<svg width="22" height="21" viewBox="0 0 22 21" fill="none" xmlns="http://www.w3.org/2000/svg">
<g clip-path="url(#clip0_703_2018)">
<path fill-rule="evenodd" clip-rule="evenodd" d="M9.98094 0.0239747C7.40347 0.261337 5.04583 1.31316 3.21564 3.04222C1.50557 4.65781 0.462271 6.63764 0.079978 8.99259C-0.0266594 9.6494 -0.0266594 11.1897 0.079978 11.8465C0.462013 14.1999 1.49662 16.165 3.20992 17.7914C4.9159 19.4109 7.0065 20.3989 9.49321 20.761C10.1868 20.862 11.8132 20.862 12.5068 20.761C14.9919 20.3992 17.0669 19.4194 18.7844 17.7969C20.4944 16.1813 21.5377 14.2014 21.92 11.8465C22.0267 11.1897 22.0267 9.6494 21.92 8.99259C21.538 6.63919 20.5034 4.67407 18.7901 3.04764C17.0957 1.43914 14.9803 0.435017 12.5498 0.0855373C12.0119 0.00819671 10.5364 -0.0271509 9.98094 0.0239747ZM12.3992 1.71365C14.3865 2.00768 16.1385 2.85182 17.5648 4.20257C19.0023 5.56388 19.8829 7.2118 20.2008 9.13529C20.2531 9.45179 20.2749 9.82968 20.2749 10.4195C20.2749 11.0094 20.2531 11.3873 20.2008 11.7038C19.8829 13.6273 19.0023 15.2752 17.5648 16.6365C16.1273 17.9978 14.3872 18.8318 12.3561 19.1328C11.7039 19.2295 10.2961 19.2295 9.64389 19.1328C7.61279 18.8318 5.87267 17.9978 4.43519 16.6365C2.99772 15.2752 2.11707 13.6273 1.79922 11.7038C1.69715 11.0862 1.69715 9.75291 1.79922 9.13529C2.11707 7.2118 2.99772 5.56388 4.43519 4.20257C6.02076 2.70097 7.90076 1.87143 10.2466 1.6383C10.5968 1.60348 11.9823 1.652 12.3992 1.71365ZM14.9176 6.93705C14.8216 6.97611 13.811 7.90289 12.1308 9.49268L9.49459 11.987L8.38534 10.9434C7.77526 10.3694 7.21728 9.87155 7.14543 9.83702C6.70291 9.62428 6.20429 9.77717 5.98382 10.1931C5.85454 10.437 5.84735 10.6621 5.9617 10.8857C6.01654 10.9931 6.57491 11.5498 7.54382 12.4632C8.72462 13.5764 9.07657 13.8856 9.20856 13.9257C9.42773 13.9923 9.76039 13.9532 9.93599 13.8402C10.1433 13.7068 15.8064 8.34879 15.9646 8.13642C16.085 7.97481 16.1013 7.92063 16.1014 7.68127C16.1015 7.44505 16.0847 7.38691 15.9724 7.23594C15.7326 6.91353 15.2863 6.78706 14.9176 6.93705Z" fill="#EAD1A6"/>
</g>
<defs>
<clipPath id="clip0_703_2018">
<rect width="22" height="21" fill="white"/>
</clipPath>
</defs>
</svg>
