<svg width="505" height="506" viewBox="0 0 505 506" fill="none" xmlns="http://www.w3.org/2000/svg">
<g clip-path="url(#clip0_703_1892)">
<path d="M505 0H0V506H505V0Z" fill="#1A172D"/>
<path d="M163.196 457.232C163.224 474.216 159.131 490.953 151.268 506H0V369.38C15.8458 358.869 34.2382 352.857 53.2216 351.984C72.2051 351.111 91.0699 355.408 107.81 364.42C124.551 373.432 138.541 386.821 148.293 403.163C158.046 419.505 163.196 438.191 163.196 457.232Z" fill="#231F3D"/>
<path d="M365.751 474.371L364.391 470.811H357.371L356.011 474.371H354.891L360.331 460.371H361.451L366.871 474.371H365.751ZM357.771 469.811H364.011L360.891 461.671L357.771 469.811ZM373.669 460.371C374.922 460.371 375.962 460.784 376.789 461.611C377.616 462.438 378.029 463.471 378.029 464.711C378.029 465.951 377.616 466.984 376.789 467.811C375.962 468.624 374.922 469.031 373.669 469.031H369.969V474.371H368.909V460.371H373.669ZM373.669 468.031C374.629 468.031 375.416 467.718 376.029 467.091C376.656 466.464 376.969 465.671 376.969 464.711C376.969 463.738 376.656 462.938 376.029 462.311C375.416 461.684 374.629 461.371 373.669 461.371H369.969V468.031H373.669ZM389.487 474.371L386.127 468.631H381.707V474.371H380.647V460.371H386.167C387.301 460.371 388.274 460.778 389.087 461.591C389.901 462.404 390.307 463.378 390.307 464.511C390.307 465.458 390.014 466.298 389.427 467.031C388.854 467.764 388.121 468.251 387.227 468.491L390.707 474.371H389.487ZM381.707 461.371V467.631H386.167C387.021 467.631 387.747 467.331 388.347 466.731C388.947 466.118 389.247 465.378 389.247 464.511C389.247 463.644 388.947 462.904 388.347 462.291C387.747 461.678 387.021 461.371 386.167 461.371H381.707Z" fill="#EFEFE8"/>
<path d="M114.323 474.371V473.411L119.463 468.131C120.97 466.571 121.723 465.251 121.723 464.171C121.723 463.238 121.43 462.504 120.843 461.971C120.257 461.438 119.523 461.171 118.643 461.171C117.083 461.171 115.97 461.878 115.303 463.291L114.403 462.751C114.817 461.911 115.39 461.271 116.123 460.831C116.87 460.378 117.71 460.151 118.643 460.151C119.777 460.151 120.75 460.511 121.563 461.231C122.39 461.951 122.803 462.931 122.803 464.171C122.803 464.971 122.57 465.751 122.103 466.511C121.65 467.258 121.01 468.051 120.183 468.891L115.843 473.351H123.123V474.371H114.323ZM124.08 460.371H132.56V461.371L127.12 474.371H126.02L131.46 461.371H124.08V460.371Z" fill="#EFEFE8"/>
<path d="M140.471 470.033H346.753" stroke="#EFEFE8" stroke-width="0.75" stroke-miterlimit="10"/>
<path d="M32.122 57.0001C34.533 57.0001 36.5225 57.86 38.0904 59.5797C39.6753 61.2826 40.4677 63.3732 40.4677 65.8516C40.4677 68.33 39.6753 70.4291 38.0904 72.1488C36.5225 73.8517 34.533 74.7031 32.122 74.7031H25.4707V57.0001H32.122ZM32.122 73.4386C34.1789 73.4386 35.8649 72.7136 37.18 71.2637C38.4951 69.7969 39.1526 67.9928 39.1526 65.8516C39.1526 63.7104 38.4951 61.9148 37.18 60.4649C35.8649 58.998 34.1789 58.2646 32.122 58.2646H26.8111V73.4386H32.122ZM49.2829 61.7799C51.1375 61.7799 52.638 62.4375 53.7845 63.7526C54.9478 65.0676 55.5295 66.6272 55.5295 68.4312C55.5295 68.4986 55.5211 68.5998 55.5042 68.7347C55.5042 68.8696 55.5042 68.9707 55.5042 69.0382H44.0478C44.1996 70.4544 44.7644 71.6009 45.7423 72.4776C46.737 73.3375 47.9593 73.7674 49.4093 73.7674C50.4209 73.7674 51.3061 73.5566 52.0648 73.1351C52.8235 72.7136 53.3967 72.1573 53.7845 71.466L54.8972 72.1235C54.3746 73.0003 53.6327 73.7 52.6717 74.2226C51.7107 74.7284 50.6148 74.9813 49.384 74.9813C47.4451 74.9813 45.8518 74.3659 44.6042 73.1351C43.3566 71.8875 42.7327 70.3027 42.7327 68.3806C42.7327 66.4923 43.3397 64.9243 44.5536 63.6767C45.7844 62.4122 47.3608 61.7799 49.2829 61.7799ZM49.2829 62.9939C47.8498 62.9939 46.6527 63.4406 45.6917 64.3342C44.7307 65.2278 44.1827 66.3827 44.0478 67.799H54.2144C54.0795 66.2984 53.54 65.1266 52.5958 64.2836C51.6685 63.4238 50.5642 62.9939 49.2829 62.9939ZM58.851 65.3711C58.851 65.9949 59.1123 66.4839 59.635 66.8379C60.1576 67.192 60.7983 67.4618 61.557 67.6472C62.3157 67.8158 63.066 68.0097 63.8078 68.2289C64.5665 68.4481 65.2072 68.819 65.7298 69.3416C66.2525 69.8474 66.5138 70.5303 66.5138 71.3901C66.5138 72.4355 66.0923 73.2953 65.2493 73.9697C64.4232 74.6441 63.3357 74.9813 61.9869 74.9813C60.773 74.9813 59.7445 74.7284 58.9015 74.2226C58.0754 73.7 57.5022 73.0171 57.1818 72.1741L58.2693 71.5419C58.5053 72.2331 58.9437 72.7811 59.5844 73.1857C60.2419 73.5735 61.0428 73.7674 61.9869 73.7674C62.9311 73.7674 63.7066 73.5651 64.3136 73.1604C64.9374 72.7389 65.2493 72.1488 65.2493 71.3901C65.2493 70.7663 64.988 70.2689 64.4653 69.898C63.9427 69.5271 63.302 69.2573 62.5433 69.0887C61.7846 68.9033 61.0259 68.701 60.2672 68.4818C59.5254 68.2626 58.8931 67.9001 58.3705 67.3943C57.8478 66.8885 57.5865 66.2141 57.5865 65.3711C57.5865 64.3595 57.9827 63.5081 58.7751 62.8168C59.5844 62.1256 60.6213 61.7799 61.8858 61.7799C62.8974 61.7799 63.7741 62.0075 64.5159 62.4628C65.2746 62.918 65.831 63.5334 66.1851 64.3089L65.1229 64.9159C64.87 64.2921 64.4485 63.82 63.8584 63.4997C63.2683 63.1625 62.6107 62.9939 61.8858 62.9939C61.0259 62.9939 60.3009 63.213 59.7108 63.6514C59.1376 64.0729 58.851 64.6461 58.851 65.3711ZM70.791 58.7198C70.5887 58.9053 70.3527 58.998 70.0829 58.998C69.8131 58.998 69.5771 58.9053 69.3748 58.7198C69.1725 58.5175 69.0713 58.2731 69.0713 57.9864C69.0713 57.7167 69.1725 57.4891 69.3748 57.3036C69.5771 57.1013 69.8131 57.0001 70.0829 57.0001C70.3527 57.0001 70.5887 57.1013 70.791 57.3036C70.9933 57.4891 71.0945 57.7167 71.0945 57.9864C71.0945 58.2731 70.9933 58.5175 70.791 58.7198ZM69.4506 74.7031V62.0581H70.7151V74.7031H69.4506ZM85.8411 62.0581H87.1056V74.0962C87.1056 75.9339 86.5071 77.3839 85.31 78.446C84.113 79.5082 82.6124 80.0393 80.8084 80.0393C79.3585 80.0393 78.1192 79.7696 77.0908 79.23C76.0623 78.6905 75.3121 77.9487 74.84 77.0045L75.9527 76.3723C76.762 78.0077 78.3806 78.8254 80.8084 78.8254C82.3764 78.8254 83.6072 78.3955 84.5008 77.5356C85.3943 76.6926 85.8411 75.5461 85.8411 74.0962V71.7695C85.3185 72.7642 84.5766 73.5482 83.6156 74.1215C82.6714 74.6947 81.6008 74.9813 80.4038 74.9813C78.5829 74.9813 77.0318 74.3491 75.7504 73.0846C74.4859 71.8032 73.8537 70.2352 73.8537 68.3806C73.8537 66.526 74.4859 64.9665 75.7504 63.702C77.0318 62.4206 78.5829 61.7799 80.4038 61.7799C81.6008 61.7799 82.6714 62.0666 83.6156 62.6398C84.5766 63.213 85.3185 63.997 85.8411 64.9918V62.0581ZM76.6609 72.1994C77.7062 73.2447 78.9791 73.7674 80.4796 73.7674C81.9802 73.7674 83.2447 73.2447 84.2732 72.1994C85.3185 71.1541 85.8411 69.8812 85.8411 68.3806C85.8411 66.8801 85.3185 65.6072 84.2732 64.5618C83.2447 63.5165 81.9802 62.9939 80.4796 62.9939C78.9791 62.9939 77.7062 63.5165 76.6609 64.5618C75.6324 65.6072 75.1182 66.8801 75.1182 68.3806C75.1182 69.8812 75.6324 71.1541 76.6609 72.1994ZM96.8028 61.7799C98.3033 61.7799 99.4919 62.2436 100.369 63.1709C101.262 64.0813 101.709 65.3037 101.709 66.8379V74.7031H100.419V66.8379C100.419 65.6577 100.09 64.722 99.4329 64.0307C98.7922 63.3395 97.8818 62.9939 96.7016 62.9939C95.4034 62.9939 94.3412 63.4238 93.5151 64.2836C92.6889 65.1435 92.2759 66.3911 92.2759 68.0266V74.7031H91.0114V62.0581H92.2759V64.4607C93.1863 62.6735 94.6953 61.7799 96.8028 61.7799Z" fill="#EFEFE8"/>
<path d="M183.295 69.0895H171.407L182.244 64.1813L181.911 63.4425L170.973 68.4013L178.659 59.1517L178.043 58.6355L170.316 67.9257L173.033 56.146L172.255 55.9639L169.538 67.7031L166.822 55.9639L166.044 56.146L168.761 67.9257L161.044 58.6355L160.418 59.1517L168.104 68.4013L157.166 63.4425L156.833 64.1813L167.67 69.0895H155.782V69.889H167.67L156.833 74.7972L157.166 75.5359L168.104 70.5771L160.418 79.8268L161.044 80.3429L168.761 71.0528L166.044 82.8325L166.822 83.0146L169.538 71.2754L172.255 83.0146L173.033 82.8325L170.316 71.0528L178.043 80.3429L178.659 79.8268L170.973 70.5771L181.911 75.5359L182.244 74.7972L171.407 69.889H183.295V69.0895Z" fill="#EFEFE8"/>
<path d="M30.984 103.25C29.1799 103.25 27.671 102.862 26.457 102.086C25.26 101.294 24.4086 100.223 23.9028 98.8744L27.3928 96.8512C28.1009 98.4866 29.3401 99.3043 31.1104 99.3043C32.7121 99.3043 33.513 98.8238 33.513 97.8628C33.513 97.3401 33.2516 96.9355 32.729 96.6489C32.2232 96.3454 31.2621 95.9998 29.8459 95.612C29.1041 95.4097 28.455 95.1821 27.8986 94.9292C27.3422 94.6763 26.7942 94.3475 26.2547 93.9428C25.7321 93.5213 25.3274 92.9987 25.0408 92.3749C24.771 91.751 24.6362 91.0345 24.6362 90.2252C24.6362 88.5898 25.2178 87.2831 26.3812 86.3053C27.5614 85.3274 28.9608 84.8384 30.5793 84.8384C32.0293 84.8384 33.3106 85.1841 34.4234 85.8753C35.5362 86.5497 36.4129 87.536 37.0536 88.8343L33.6394 90.8322C33.3191 90.1578 32.9229 89.652 32.4508 89.3148C31.9787 88.9607 31.3549 88.7837 30.5793 88.7837C29.9724 88.7837 29.5003 88.9186 29.1631 89.1883C28.8427 89.4412 28.6826 89.7531 28.6826 90.1241C28.6826 90.5624 28.8849 90.9418 29.2895 91.2621C29.711 91.5824 30.5709 91.9365 31.8691 92.3243C32.5772 92.5435 33.1252 92.7205 33.513 92.8554C33.9007 92.9903 34.3897 93.2179 34.9798 93.5382C35.5867 93.8417 36.042 94.1705 36.3454 94.5245C36.6658 94.8617 36.944 95.3169 37.18 95.8902C37.4329 96.4466 37.5594 97.0872 37.5594 97.8122C37.5594 99.4982 36.9524 100.83 35.7385 101.808C34.5246 102.769 32.9397 103.25 30.984 103.25ZM50.6497 101.328C49.3515 102.609 47.7666 103.25 45.8952 103.25C44.0237 103.25 42.4389 102.609 41.1407 101.328C39.8424 100.029 39.1933 98.4445 39.1933 96.573C39.1933 94.7015 39.8424 93.1251 41.1407 91.8438C42.4389 90.5456 44.0237 89.8964 45.8952 89.8964C47.7666 89.8964 49.3515 90.5456 50.6497 91.8438C51.9479 93.1251 52.597 94.7015 52.597 96.573C52.597 98.4445 51.9479 100.029 50.6497 101.328ZM43.8214 98.7227C44.3778 99.279 45.069 99.5572 45.8952 99.5572C46.7213 99.5572 47.4126 99.279 47.969 98.7227C48.5253 98.1663 48.8035 97.4497 48.8035 96.573C48.8035 95.6963 48.5253 94.9797 47.969 94.4234C47.4126 93.867 46.7213 93.5888 45.8952 93.5888C45.069 93.5888 44.3778 93.867 43.8214 94.4234C43.265 94.9797 42.9868 95.6963 42.9868 96.573C42.9868 97.4497 43.265 98.1663 43.8214 98.7227ZM54.7427 102.896V84.4338H58.5362V102.896H54.7427ZM69.4809 90.2505H73.2744V102.896H69.4809V101.707C68.7222 102.735 67.5167 103.25 65.8644 103.25C64.5156 103.25 63.386 102.786 62.4755 101.859C61.582 100.931 61.1352 99.65 61.1352 98.0145V90.2505H64.9287V97.4582C64.9287 98.2 65.131 98.7732 65.5356 99.1779C65.9571 99.5657 66.4882 99.7595 67.1289 99.7595C67.8539 99.7595 68.4271 99.5404 68.8486 99.102C69.2701 98.6636 69.4809 98.0145 69.4809 97.1547V90.2505ZM83.4664 93.8923H80.8616V98.3686C80.8616 98.8744 81.0639 99.1947 81.4685 99.3296C81.8732 99.4645 82.5391 99.5066 83.4664 99.4561V102.896C81.0555 103.148 79.3863 102.921 78.459 102.213C77.5317 101.488 77.0681 100.206 77.0681 98.3686V93.8923H75.0449V90.2505H77.0681V87.848L80.8616 86.7099V90.2505H83.4664V93.8923ZM89.1043 88.4802C88.666 88.9186 88.1349 89.1377 87.5111 89.1377C86.8872 89.1377 86.3477 88.9186 85.8925 88.4802C85.4541 88.025 85.235 87.4855 85.235 86.8616C85.235 86.2378 85.4541 85.7067 85.8925 85.2684C86.3477 84.8132 86.8872 84.5855 87.5111 84.5855C88.1349 84.5855 88.666 84.8132 89.1043 85.2684C89.5596 85.7067 89.7872 86.2378 89.7872 86.8616C89.7872 87.4855 89.5596 88.025 89.1043 88.4802ZM85.6143 102.896V90.2505H89.4078V102.896H85.6143ZM103.008 101.328C101.71 102.609 100.125 103.25 98.2534 103.25C96.3819 103.25 94.7971 102.609 93.4989 101.328C92.2006 100.029 91.5515 98.4445 91.5515 96.573C91.5515 94.7015 92.2006 93.1251 93.4989 91.8438C94.7971 90.5456 96.3819 89.8964 98.2534 89.8964C100.125 89.8964 101.71 90.5456 103.008 91.8438C104.306 93.1251 104.955 94.7015 104.955 96.573C104.955 98.4445 104.306 100.029 103.008 101.328ZM96.1796 98.7227C96.736 99.279 97.4272 99.5572 98.2534 99.5572C99.0795 99.5572 99.7708 99.279 100.327 98.7227C100.884 98.1663 101.162 97.4497 101.162 96.573C101.162 95.6963 100.884 94.9797 100.327 94.4234C99.7708 93.867 99.0795 93.5888 98.2534 93.5888C97.4272 93.5888 96.736 93.867 96.1796 94.4234C95.6232 94.9797 95.345 95.6963 95.345 96.573C95.345 97.4497 95.6232 98.1663 96.1796 98.7227ZM114.511 89.8964C115.86 89.8964 116.981 90.3601 117.874 91.2874C118.785 92.2147 119.24 93.4961 119.24 95.1315V102.896H115.447V95.6879C115.447 94.946 115.236 94.3812 114.814 93.9934C114.41 93.5888 113.887 93.3865 113.246 93.3865C112.521 93.3865 111.948 93.6056 111.527 94.044C111.105 94.4824 110.894 95.1315 110.894 95.9913V102.896H107.101V90.2505H110.894V91.4391C111.653 90.4107 112.859 89.8964 114.511 89.8964ZM125.436 93.9428C125.436 94.1957 125.647 94.4065 126.069 94.5751C126.507 94.7268 127.03 94.887 127.637 95.0556C128.244 95.2073 128.851 95.4097 129.457 95.6626C130.064 95.9155 130.579 96.337 131 96.9271C131.439 97.5003 131.658 98.2253 131.658 99.102C131.658 100.468 131.152 101.505 130.14 102.213C129.129 102.904 127.881 103.25 126.397 103.25C123.734 103.25 121.921 102.246 120.96 100.24L124.248 98.3686C124.585 99.3633 125.302 99.8607 126.397 99.8607C127.308 99.8607 127.763 99.5994 127.763 99.0767C127.763 98.8238 127.544 98.6131 127.106 98.4445C126.684 98.2759 126.17 98.1157 125.563 97.964C124.956 97.7954 124.349 97.5846 123.742 97.3317C123.135 97.0619 122.612 96.6489 122.174 96.0925C121.752 95.5361 121.542 94.8533 121.542 94.044C121.542 92.7289 122.014 91.7089 122.958 90.9839C123.919 90.2589 125.099 89.8964 126.499 89.8964C127.544 89.8964 128.496 90.1325 129.356 90.6046C130.216 91.0598 130.907 91.7258 131.43 92.6025L128.193 94.3475C127.788 93.6056 127.224 93.2347 126.499 93.2347C125.79 93.2347 125.436 93.4708 125.436 93.9428Z" fill="#EFEFE8"/>
<path d="M34.9039 38.725C35.8143 39.0791 36.5478 39.6439 37.1041 40.4194C37.6605 41.195 37.9387 42.0801 37.9387 43.0749C37.9387 44.4068 37.4666 45.5449 36.5225 46.489C35.5783 47.4332 34.4403 47.9053 33.1083 47.9053H25.4707V30.2023H32.5266C33.808 30.2023 34.9039 30.6575 35.8143 31.5679C36.7248 32.4784 37.18 33.5743 37.18 34.8556C37.18 35.6986 36.9693 36.4658 36.5478 37.157C36.1431 37.8314 35.5952 38.3541 34.9039 38.725ZM32.5266 31.4668H26.8111V38.2445H32.5266C33.4371 38.2445 34.2126 37.9157 34.8533 37.2582C35.5109 36.5838 35.8396 35.7829 35.8396 34.8556C35.8396 33.9283 35.5109 33.1359 34.8533 32.4784C34.2126 31.804 33.4371 31.4668 32.5266 31.4668ZM33.1083 46.6408C34.0693 46.6408 34.887 46.2951 35.5614 45.6039C36.2527 44.8958 36.5983 44.0528 36.5983 43.0749C36.5983 42.097 36.2527 41.2624 35.5614 40.5712C34.887 39.8631 34.0693 39.509 33.1083 39.509H26.8111V46.6408H33.1083ZM46.6649 34.9821C48.5195 34.9821 50.0201 35.6396 51.1666 36.9547C52.3299 38.2698 52.9116 39.8293 52.9116 41.6334C52.9116 41.7008 52.9031 41.802 52.8863 41.9368C52.8863 42.0717 52.8863 42.1729 52.8863 42.2403H41.4299C41.5817 43.6566 42.1465 44.803 43.1243 45.6798C44.1191 46.5396 45.3414 46.9695 46.7914 46.9695C47.803 46.9695 48.6881 46.7588 49.4468 46.3373C50.2055 45.9158 50.7788 45.3594 51.1666 44.6682L52.2793 45.3257C51.7567 46.2024 51.0148 46.9021 50.0538 47.4248C49.0928 47.9306 47.9969 48.1835 46.7661 48.1835C44.8272 48.1835 43.2339 47.5681 41.9863 46.3373C40.7387 45.0897 40.1148 43.5048 40.1148 41.5828C40.1148 39.6945 40.7218 38.1265 41.9357 36.8788C43.1665 35.6143 44.7429 34.9821 46.6649 34.9821ZM46.6649 36.196C45.2318 36.196 44.0348 36.6428 43.0738 37.5364C42.1127 38.43 41.5648 39.5849 41.4299 41.0011H51.5965C51.4616 39.5006 50.9221 38.3288 49.9779 37.4858C49.0506 36.6259 47.9463 36.196 46.6649 36.196ZM56.2331 38.5733C56.2331 39.1971 56.4944 39.686 57.017 40.0401C57.5397 40.3941 58.1804 40.6639 58.9391 40.8494C59.6978 41.018 60.4481 41.2119 61.1899 41.431C61.9486 41.6502 62.5893 42.0211 63.1119 42.5438C63.6346 43.0496 63.8959 43.7324 63.8959 44.5923C63.8959 45.6376 63.4744 46.4975 62.6314 47.1719C61.8053 47.8463 60.7178 48.1835 59.369 48.1835C58.1551 48.1835 57.1266 47.9306 56.2836 47.4248C55.4575 46.9021 54.8843 46.2193 54.5639 45.3763L55.6514 44.744C55.8874 45.4353 56.3258 45.9832 56.9665 46.3879C57.624 46.7757 58.4249 46.9695 59.369 46.9695C60.3132 46.9695 61.0887 46.7672 61.6957 46.3626C62.3195 45.9411 62.6314 45.351 62.6314 44.5923C62.6314 43.9685 62.3701 43.4711 61.8474 43.1002C61.3248 42.7293 60.6841 42.4595 59.9254 42.2909C59.1667 42.1054 58.408 41.9031 57.6493 41.6839C56.9075 41.4648 56.2752 41.1023 55.7525 40.5965C55.2299 40.0907 54.9686 39.4163 54.9686 38.5733C54.9686 37.5617 55.3648 36.7102 56.1572 36.019C56.9665 35.3277 58.0034 34.9821 59.2679 34.9821C60.2795 34.9821 61.1562 35.2097 61.898 35.6649C62.6567 36.1201 63.2131 36.7355 63.5672 37.5111L62.505 38.118C62.2521 37.4942 61.8306 37.0221 61.2405 36.7018C60.6504 36.3646 59.9928 36.196 59.2679 36.196C58.408 36.196 57.683 36.4152 57.0929 36.8535C56.5197 37.275 56.2331 37.8483 56.2331 38.5733ZM72.9365 36.4995H69.1683V44.7187C69.1683 45.4437 69.3032 45.9664 69.5729 46.2867C69.8427 46.6071 70.2558 46.7925 70.8122 46.8431C71.3685 46.8768 72.0767 46.8515 72.9365 46.7672V47.9053C71.2337 48.1582 69.9607 48.0402 69.1177 47.5512C68.2916 47.0623 67.8785 46.1181 67.8785 44.7187V36.4995H65.0966V35.2603H67.8785V32.099L69.1683 31.7197V35.2603H72.9365V36.4995Z" fill="#EFEFE8"/>
<path d="M26.1385 480.291L22.7278 485.045L22.4507 484.691L25.5225 480.428L20.5904 482.316L20.2787 481.918L23.2762 477.56L18.4183 479.543L18.1412 479.189L23.5608 477L23.8774 477.404L20.8672 481.772L25.8219 479.886L26.1385 480.291Z" fill="#EFEFE8"/>
<path d="M20.9908 470.501C21.6394 470.959 22.0319 471.587 22.1684 472.383C22.3048 473.179 22.1437 473.902 21.6849 474.551C21.2208 475.201 20.5933 475.594 19.8024 475.73C19.0114 475.866 18.2916 475.705 17.6431 475.246C16.9892 474.789 16.5941 474.162 16.4576 473.366C16.3211 472.569 16.4849 471.846 16.949 471.196C17.4077 470.547 18.0326 470.155 18.8236 470.019C19.6145 469.883 20.3369 470.043 20.9908 470.501ZM21.35 474.307C21.7432 473.751 21.8816 473.133 21.765 472.452C21.6484 471.772 21.3126 471.238 20.7576 470.85C20.1964 470.458 19.5756 470.321 18.8954 470.438C18.2152 470.555 17.6785 470.892 17.2852 471.448C16.8858 472 16.7444 472.616 16.861 473.296C16.9776 473.977 17.3165 474.513 17.8777 474.905C18.4327 475.293 19.0503 475.428 19.7305 475.311C20.4108 475.194 20.9506 474.859 21.35 474.307Z" fill="#EFEFE8"/>
<path d="M22.7156 465.045L20.1704 465.804L19.7524 467.52L21.9798 468.065L21.8796 468.476L16.4468 467.147L16.9688 465.005C17.076 464.565 17.3259 464.226 17.7184 463.987C18.111 463.749 18.5271 463.683 18.9669 463.791C19.3343 463.881 19.6325 464.074 19.8616 464.372C20.092 464.664 20.2115 464.995 20.2201 465.364L22.831 464.572L22.7156 465.045ZM16.9351 466.831L19.3643 467.425L19.7861 465.694C19.8668 465.363 19.8192 465.052 19.6431 464.762C19.4618 464.471 19.203 464.284 18.8667 464.202C18.5304 464.12 18.2148 464.166 17.9201 464.341C17.6253 464.515 17.4376 464.768 17.3569 465.1L16.9351 466.831Z" fill="#EFEFE8"/>
<path d="M23.186 463.298L24.5551 461.055L24.8945 461.263L23.3055 463.866L18.554 460.953L18.7739 460.593L23.186 463.298Z" fill="#EFEFE8"/>
<path d="M23.5656 454.902C24.1593 454.429 24.8174 454.251 25.5399 454.367C26.2633 454.476 26.8675 454.837 27.3524 455.448C27.8373 456.059 28.0528 456.732 27.999 457.467C27.946 458.195 27.6227 458.795 27.029 459.268L25.3912 460.572L21.9278 456.206L23.5656 454.902ZM26.7817 458.956C27.2882 458.552 27.5615 458.043 27.6016 457.427C27.6385 456.808 27.4475 456.234 27.0285 455.706C26.6096 455.178 26.0964 454.864 25.4889 454.764C24.8781 454.66 24.3195 454.81 23.813 455.214L22.5052 456.255L25.4739 459.997L26.7817 458.956Z" fill="#EFEFE8"/>
<path d="M37.1321 453.344L37.1504 453.559C37.2098 454.254 37.0131 454.862 36.5603 455.382C36.1071 455.896 35.4771 456.188 34.6704 456.257C33.8213 456.33 33.0971 456.114 32.4981 455.61C31.8985 455.1 31.5643 454.441 31.4954 453.635C31.4266 452.828 31.6419 452.125 32.1414 451.526C32.6404 450.922 33.3092 450.584 34.1478 450.512C34.6573 450.469 35.1347 450.551 35.5802 450.758C36.0309 450.966 36.3905 451.264 36.6589 451.652L36.3037 451.907C36.0881 451.573 35.7881 451.315 35.4038 451.134C35.0247 450.953 34.6176 450.881 34.1825 450.918C33.4607 450.98 32.8867 451.27 32.4604 451.788C32.039 452.3 31.858 452.903 31.9174 453.599C31.9767 454.294 32.2603 454.86 32.7681 455.298C33.2755 455.73 33.898 455.915 34.6357 455.851C35.2885 455.796 35.8014 455.572 36.1744 455.182C36.5474 454.792 36.7347 454.324 36.7362 453.779L34.3718 453.982L34.3378 453.584L37.1321 453.344Z" fill="#EFEFE8"/>
<path d="M41.7233 457.364L41.1583 454.766L39.4802 454.217L38.7694 456.397L38.3669 456.265L40.1005 450.947L42.1963 451.633C42.6267 451.774 42.9458 452.05 43.1539 452.46C43.362 452.87 43.3959 453.29 43.2556 453.72C43.1384 454.08 42.923 454.363 42.6094 454.568C42.3009 454.776 41.9622 454.869 41.5933 454.849L42.1865 457.515L41.7233 457.364ZM40.3791 451.459L39.604 453.837L41.2974 454.391C41.6214 454.497 41.9344 454.473 42.2365 454.32C42.5403 454.162 42.7458 453.918 42.8531 453.589C42.9604 453.26 42.9382 452.941 42.7863 452.634C42.6344 452.326 42.3965 452.119 42.0725 452.013L40.3791 451.459Z" fill="#EFEFE8"/>
<path d="M45.8208 460.34L46.278 458.893L44.0922 457.152L42.788 457.925L42.4393 457.647L47.5966 454.63L47.9453 454.908L46.1695 460.618L45.8208 460.34ZM44.4641 456.939L46.4071 458.487L47.4493 455.175L44.4641 456.939Z" fill="#EFEFE8"/>
<path d="M52.3997 459.953C52.663 460.379 52.7411 460.819 52.6341 461.274C52.5271 461.729 52.2632 462.087 51.8422 462.349C51.4213 462.61 50.9837 462.687 50.5295 462.58C50.0798 462.471 49.7233 462.203 49.46 461.777L48.6829 460.519L46.8702 461.644L46.6475 461.284L51.3999 458.335L52.3997 459.953ZM49.7995 461.566C50.0011 461.892 50.2727 462.094 50.6143 462.17C50.9586 462.251 51.2937 462.191 51.6196 461.988C51.95 461.783 52.1558 461.508 52.2369 461.163C52.3208 460.823 52.2619 460.49 52.0603 460.163L51.2831 458.906L49.0223 460.309L49.7995 461.566Z" fill="#EFEFE8"/>
<path d="M55.1453 467.815L55.2272 468.231L49.7408 469.317L49.6588 468.902L52.2845 468.382L51.6552 465.191L49.0295 465.711L48.9476 465.296L54.434 464.209L54.516 464.625L52.0471 465.114L52.6764 468.304L55.1453 467.815Z" fill="#EFEFE8"/>
<path d="M55.1732 471.079L55.1452 471.501L49.5645 471.13L49.5925 470.707L55.1732 471.079Z" fill="#EFEFE8"/>
<path d="M48.6104 474.913C48.896 474.121 49.3923 473.562 50.0991 473.235C50.8109 472.91 51.5473 472.885 52.3082 473.161C53.0691 473.436 53.6167 473.927 53.9511 474.631C54.2906 475.337 54.3174 476.086 54.0318 476.878C53.8582 477.358 53.584 477.757 53.2091 478.075C52.8392 478.394 52.4217 478.593 51.9567 478.674L51.8815 478.248C52.2701 478.19 52.6235 478.027 52.9417 477.757C53.2649 477.489 53.5006 477.149 53.6488 476.739C53.8947 476.058 53.8719 475.415 53.5805 474.811C53.2923 474.214 52.8202 473.796 52.1645 473.559C51.5087 473.321 50.8769 473.339 50.2691 473.611C49.6645 473.89 49.2392 474.37 48.9933 475.052C48.8451 475.462 48.8087 475.877 48.8842 476.295C48.9597 476.713 49.1335 477.07 49.4056 477.367L49.0754 477.647C48.7627 477.29 48.5619 476.866 48.4731 476.375C48.3892 475.886 48.435 475.399 48.6104 474.913Z" fill="#EFEFE8"/>
<path d="M46.0503 479.184C46.391 478.796 46.7688 478.543 47.1836 478.426C47.5988 478.316 48.0005 478.347 48.3886 478.518L48.308 478.937C47.9815 478.784 47.6492 478.747 47.3111 478.825C46.9695 478.908 46.6511 479.117 46.356 479.454C46.0574 479.794 45.907 480.123 45.9048 480.44C45.8991 480.762 46.0202 481.032 46.268 481.25C46.4998 481.454 46.755 481.523 47.0334 481.456C47.3119 481.389 47.6745 481.222 48.1211 480.955C48.2845 480.858 48.4043 480.786 48.4805 480.739C48.5572 480.7 48.6685 480.642 48.8143 480.565C48.9642 480.491 49.0817 480.442 49.1668 480.418C49.252 480.393 49.3597 480.367 49.4899 480.34C49.6166 480.317 49.7257 480.314 49.8173 480.33C49.9129 480.351 50.0149 480.384 50.1234 480.43C50.236 480.479 50.3442 480.55 50.4481 480.641C50.7879 480.94 50.9543 481.3 50.9473 481.72C50.9409 482.147 50.7778 482.543 50.4581 482.907C50.1701 483.236 49.8422 483.444 49.4746 483.532C49.1069 483.619 48.7458 483.603 48.3911 483.482L48.4784 483.08C49.1377 483.306 49.6957 483.158 50.1524 482.638C50.4053 482.35 50.5314 482.053 50.5305 481.747C50.5297 481.441 50.4114 481.184 50.1755 480.976C49.9477 480.775 49.7076 480.706 49.4551 480.767C49.2027 480.829 48.8567 480.989 48.4171 481.248C48.1374 481.413 47.9133 481.535 47.745 481.614C47.5771 481.7 47.3802 481.775 47.1542 481.839C46.9288 481.91 46.7203 481.922 46.5287 481.874C46.341 481.829 46.1613 481.731 45.9894 481.58C45.6417 481.273 45.4725 480.901 45.482 480.462C45.4955 480.026 45.6849 479.601 46.0503 479.184Z" fill="#EFEFE8"/>
<path d="M42.1396 488.431C41.4186 488.677 40.7363 488.622 40.0928 488.267C39.4461 487.919 38.9969 487.374 38.7454 486.633C38.4939 485.891 38.5179 485.183 38.8174 484.507C39.1135 483.838 39.6221 483.38 40.3431 483.135L42.3323 482.457L44.1288 487.754L42.1396 488.431ZM40.4715 483.513C39.8563 483.722 39.4256 484.111 39.1795 484.679C38.935 485.252 38.9214 485.858 39.1387 486.499C39.356 487.14 39.7349 487.61 40.2753 487.91C40.8175 488.215 41.3961 488.262 42.0113 488.053L43.5996 487.512L42.0598 482.972L40.4715 483.513Z" fill="#EFEFE8"/>
<path d="M33.2311 483.811L33.7105 485.256L36.5122 485.382L37.1184 483.985L37.5654 484.006L35.1449 489.496L34.6979 489.476L32.7841 483.791L33.2311 483.811ZM36.3347 485.774L33.8444 485.662L34.9446 488.967L36.3347 485.774Z" fill="#EFEFE8"/>
<path d="M27.2404 487.615L30.2395 485.194L30.9976 483.03L31.3956 483.17L30.6375 485.334L31.4679 489.102L31.0174 488.944L30.3005 485.646L27.6909 487.774L27.2404 487.615Z" fill="#EFEFE8"/>
<path d="M414.1 208.563C411.819 208.563 409.589 207.885 407.692 206.616C405.795 205.346 404.317 203.541 403.444 201.429C402.571 199.317 402.342 196.993 402.788 194.752C403.233 192.51 404.331 190.45 405.944 188.834C407.557 187.218 409.612 186.117 411.85 185.671C414.087 185.225 416.406 185.454 418.514 186.329C420.622 187.204 422.423 188.685 423.69 190.586C424.958 192.486 425.634 194.72 425.634 197.006C425.632 200.071 424.416 203.009 422.253 205.175C420.091 207.342 417.158 208.561 414.1 208.563ZM414.1 186.208C411.968 186.208 409.884 186.842 408.112 188.029C406.339 189.216 404.958 190.903 404.143 192.876C403.327 194.85 403.115 197.022 403.531 199.117C403.948 201.211 404.975 203.135 406.483 204.645C407.992 206.155 409.913 207.183 412.004 207.598C414.095 208.014 416.262 207.798 418.231 206.979C420.2 206.161 421.883 204.775 423.066 202.998C424.248 201.221 424.879 199.132 424.877 196.996C424.874 194.134 423.738 191.39 421.717 189.367C419.696 187.344 416.957 186.208 414.1 186.208Z" fill="#EFEFE8"/>
<path d="M414.464 177.353H413.706V216.669H414.464V177.353Z" fill="#EFEFE8"/>
<path d="M433.704 196.632H394.466V197.391H433.704V196.632Z" fill="#EFEFE8"/>
<path d="M435.159 356.062L436.977 357.893L430.967 363.965L427.543 360.535L420.16 367.882L423.584 371.313L417.574 377.334L415.746 375.512L411.565 379.702L415.746 383.892L419.938 379.702L418.14 377.87L424.15 371.849L427.573 375.28L434.957 367.882L431.533 364.451L437.542 358.43L439.35 360.272L443.531 356.082L439.35 351.872L435.159 356.062ZM418.867 379.702L415.746 382.819L412.636 379.702L415.746 376.585L418.867 379.702ZM442.451 356.072L439.35 359.189L436.239 356.062L439.35 352.945L442.451 356.072Z" fill="#EFEFE8"/>
<path d="M62.5392 267.917C62.5392 265.144 60.4081 262.533 56.6913 260.266C60.4081 257.999 62.5392 255.388 62.5392 252.615C62.5392 243.963 41.9857 236.919 16.7256 236.919C11.1326 236.909 5.54511 237.27 0 238.002L0 238.751C5.54529 238.022 11.1328 237.664 16.7256 237.678C41.5615 237.678 61.7817 244.378 61.7817 252.615C61.7817 255.246 59.691 257.675 56.0449 259.881C48.0356 255.307 33.4108 252.231 16.7256 252.231C11.1322 252.218 5.54438 252.583 0 253.324L0 254.012C5.54713 253.309 11.1343 252.971 16.7256 253C33.128 253 47.5104 255.925 55.3884 260.276C47.5104 264.628 33.1684 267.552 16.7256 267.552C11.133 267.562 5.5458 267.203 0 266.48L0 267.168C2.1715 267.461 4.4238 267.694 6.7367 267.876C4.4238 268.058 2.1715 268.291 0 268.585V269.323C5.54602 268.603 11.1332 268.248 16.7256 268.261C33.128 268.261 47.5104 271.185 55.3884 275.537C47.5104 279.889 33.1684 282.813 16.7256 282.813C11.1341 282.839 5.54691 282.498 0 281.791L0 282.52C2.1715 282.813 4.4238 283.046 6.7367 283.228C4.4238 283.41 2.1715 283.643 0 283.937V284.675C5.54602 283.955 11.1332 283.6 16.7256 283.613C33.128 283.613 47.5104 286.538 55.3884 290.889C47.5104 295.241 33.1684 298.165 16.7256 298.165C11.1332 298.178 5.54602 297.823 0 297.103L0 297.831C2.1715 298.125 4.4238 298.358 6.7367 298.54C4.4238 298.722 2.1715 298.955 0 299.248V299.987C5.54602 299.267 11.1332 298.912 16.7256 298.924C33.128 298.924 47.5104 301.849 55.3884 306.201C47.5104 310.552 33.1684 313.477 16.7256 313.477C11.1332 313.49 5.54602 313.135 0 312.414L0 313.143C2.1715 313.436 4.4238 313.669 6.7367 313.851C4.4238 314.034 2.1715 314.266 0 314.56V315.299C5.54602 314.578 11.1332 314.223 16.7256 314.236C33.128 314.236 47.5104 317.151 55.3884 321.512C47.5104 325.864 33.1684 328.789 16.7256 328.789C11.1332 328.801 5.54602 328.446 0 327.726L0 328.455C5.54438 329.195 11.1322 329.56 16.7256 329.548C33.4108 329.548 48.0356 326.512 56.0449 321.887C59.691 324.042 61.7817 326.522 61.7817 329.163C61.7817 337.401 41.5817 344.1 16.7256 344.1C11.1337 344.128 5.54619 343.783 0 343.068L0 343.817C5.54511 344.548 11.1326 344.91 16.7256 344.9C41.9756 344.9 62.5392 337.816 62.5392 329.203C62.5392 326.431 60.4081 323.82 56.6913 321.553C60.4081 319.286 62.5392 316.675 62.5392 313.892C62.5392 311.109 60.4081 308.508 56.6913 306.241C60.4081 303.974 62.5392 301.363 62.5392 298.58C62.5392 295.797 60.4081 293.197 56.6913 290.93C60.4081 288.663 62.5392 286.052 62.5392 283.269C62.5392 280.486 60.4081 277.885 56.6913 275.618C60.4081 273.311 62.5392 270.7 62.5392 267.917ZM61.7817 313.851C61.7817 316.493 59.691 318.972 56.0449 321.128C49.6819 317.485 39.1375 314.803 26.7549 313.851C39.188 312.9 49.7324 310.218 56.0954 306.575C59.691 308.731 61.7817 311.21 61.7817 313.851ZM61.7817 298.54C61.7817 301.181 59.691 303.661 56.0449 305.816C49.6819 302.173 39.1375 299.491 26.7549 298.54C39.188 297.589 49.7324 294.907 56.0954 291.274C59.691 293.419 61.7817 295.899 61.7817 298.54ZM61.7817 283.228C61.7817 285.87 59.691 288.349 56.0449 290.505C49.6819 286.871 39.1375 284.18 26.7549 283.228C39.188 282.277 49.7324 279.595 56.0954 275.962C59.691 278.108 61.7817 280.587 61.7817 283.228ZM56.0449 275.193C49.6819 271.56 39.1375 268.868 26.7549 267.917C39.188 266.976 49.7324 264.284 56.0954 260.651C59.7415 262.806 61.8322 265.286 61.8322 267.917C61.8322 270.548 59.691 273.037 56.0449 275.193Z" fill="#EFEFE8"/>
<path d="M505 28.7412V51.3088H482.477L505 28.7412Z" fill="#1B2C89"/>
<path d="M505 51.5107V74.0682H482.477L505 51.5107Z" fill="#0044DD"/>
<path d="M505 74.2812V96.8387H482.477L505 74.2812Z" fill="#FF4900"/>
<path d="M505 96.8379V119.405H482.477L505 96.8379Z" fill="#EFEFE8"/>
<path d="M505 119.406V141.974H482.477L505 119.406Z" fill="#FFBF00"/>
<path d="M82.214 382.546H0V386.857H82.214V382.546Z" fill="#FF4900"/>
<path d="M82.214 391.502H0V395.813H82.214V391.502Z" fill="#FF4900"/>
<path d="M82.214 400.459H0V404.77H82.214V400.459Z" fill="#FF4900"/>
<path d="M82.214 409.415H0V413.726H82.214V409.415Z" fill="#FF4900"/>
<path d="M104.292 378.062H82.2139V382.374H104.292V378.062Z" fill="#FFBF00"/>
<path d="M104.292 387.02H82.2139V391.331H104.292V387.02Z" fill="#FFBF00"/>
<path d="M104.292 395.985H82.2139V400.296H104.292V395.985Z" fill="#FFBF00"/>
<path d="M104.292 404.941H82.2139V409.253H104.292V404.941Z" fill="#FFBF00"/>
<path d="M411.565 449.409H448.521V412.38H411.565V449.409Z" fill="#EFEFE8"/>
<path d="M448.521 412.38V449.409H411.565L468.044 506H505V468.971L448.521 412.38Z" fill="#FF4900"/>
<path d="M448.521 449.409L505 506H468.044L411.565 449.409H448.521Z" fill="#1B2C89"/>
<path d="M477.706 314.688V311.388H478.206V315.218H471.206V314.688H477.706ZM478.316 308.35C478.316 309.083 478.066 309.707 477.566 310.22C477.059 310.727 476.439 310.98 475.706 310.98C474.972 310.98 474.356 310.727 473.856 310.22C473.349 309.707 473.096 309.083 473.096 308.35C473.096 307.623 473.349 307.007 473.856 306.5C474.356 305.987 474.972 305.73 475.706 305.73C476.439 305.73 477.059 305.987 477.566 306.5C478.066 307.007 478.316 307.623 478.316 308.35ZM477.216 309.86C477.629 309.447 477.836 308.943 477.836 308.35C477.836 307.757 477.629 307.257 477.216 306.85C476.802 306.443 476.299 306.24 475.706 306.24C475.112 306.24 474.609 306.443 474.196 306.85C473.782 307.257 473.576 307.757 473.576 308.35C473.576 308.943 473.782 309.447 474.196 309.86C474.609 310.267 475.112 310.47 475.706 310.47C476.299 310.47 476.802 310.267 477.216 309.86ZM474.186 304.027C473.486 303.727 473.136 303.17 473.136 302.357H473.616C473.616 302.83 473.769 303.227 474.076 303.547C474.376 303.867 474.826 304.027 475.426 304.027H478.206V304.527H473.206V304.027H474.186ZM473.096 299.396C473.096 298.663 473.356 298.069 473.876 297.616C474.396 297.156 475.012 296.926 475.726 296.926C475.752 296.926 475.792 296.929 475.846 296.936C475.899 296.936 475.939 296.936 475.966 296.936V301.466C476.526 301.406 476.979 301.183 477.326 300.796C477.666 300.403 477.836 299.919 477.836 299.346C477.836 298.946 477.752 298.596 477.586 298.296C477.419 297.996 477.199 297.769 476.926 297.616L477.186 297.176C477.532 297.383 477.809 297.676 478.016 298.056C478.216 298.436 478.316 298.869 478.316 299.356C478.316 300.123 478.072 300.753 477.586 301.246C477.092 301.739 476.466 301.986 475.706 301.986C474.959 301.986 474.339 301.746 473.846 301.266C473.346 300.779 473.096 300.156 473.096 299.396ZM473.576 299.396C473.576 299.963 473.752 300.436 474.106 300.816C474.459 301.196 474.916 301.413 475.476 301.466V297.446C474.882 297.499 474.419 297.713 474.086 298.086C473.746 298.453 473.576 298.889 473.576 299.396ZM473.096 290.417C473.096 289.871 473.266 289.431 473.606 289.097C473.946 288.764 474.422 288.597 475.036 288.597H478.206V289.097H475.036C474.569 289.097 474.209 289.221 473.956 289.467C473.702 289.707 473.576 290.027 473.576 290.427C473.576 290.874 473.729 291.237 474.036 291.517C474.342 291.791 474.802 291.927 475.416 291.927H478.206V292.427H475.036C474.569 292.427 474.209 292.544 473.956 292.777C473.702 293.004 473.576 293.314 473.576 293.707C473.576 294.147 473.732 294.517 474.046 294.817C474.352 295.111 474.809 295.257 475.416 295.257H478.206V295.757H473.206V295.257H474.066C473.419 294.911 473.096 294.374 473.096 293.647C473.096 293.281 473.186 292.961 473.366 292.687C473.539 292.414 473.789 292.214 474.116 292.087C473.776 291.914 473.522 291.681 473.356 291.387C473.182 291.087 473.096 290.764 473.096 290.417ZM471.886 283.987C471.959 284.067 471.996 284.16 471.996 284.267C471.996 284.374 471.959 284.467 471.886 284.547C471.806 284.627 471.709 284.667 471.596 284.667C471.489 284.667 471.399 284.627 471.326 284.547C471.246 284.467 471.206 284.374 471.206 284.267C471.206 284.16 471.246 284.067 471.326 283.987C471.399 283.907 471.489 283.867 471.596 283.867C471.709 283.867 471.806 283.907 471.886 283.987ZM478.206 284.517H473.206V284.017H478.206V284.517ZM473.096 279.826C473.096 279.106 473.349 278.496 473.856 277.996C474.356 277.489 474.972 277.236 475.706 277.236C476.439 277.236 477.059 277.489 477.566 277.996C478.066 278.496 478.316 279.106 478.316 279.826C478.316 280.299 478.202 280.726 477.976 281.106C477.749 281.479 477.439 281.769 477.046 281.976H480.206V282.476H473.206V281.976H474.366C473.972 281.769 473.662 281.479 473.436 281.106C473.209 280.726 473.096 280.299 473.096 279.826ZM477.216 281.366C477.629 280.953 477.836 280.449 477.836 279.856C477.836 279.263 477.629 278.763 477.216 278.356C476.802 277.943 476.299 277.736 475.706 277.736C475.112 277.736 474.609 277.943 474.196 278.356C473.782 278.763 473.576 279.263 473.576 279.856C473.576 280.449 473.782 280.953 474.196 281.366C474.609 281.773 475.112 281.976 475.706 281.976C476.299 281.976 476.802 281.773 477.216 281.366ZM474.516 275.788C474.762 275.788 474.956 275.685 475.096 275.478C475.236 275.272 475.342 275.018 475.416 274.718C475.482 274.418 475.559 274.122 475.646 273.828C475.732 273.528 475.879 273.275 476.086 273.068C476.286 272.862 476.556 272.758 476.896 272.758C477.309 272.758 477.649 272.925 477.916 273.258C478.182 273.585 478.316 274.015 478.316 274.548C478.316 275.028 478.216 275.435 478.016 275.768C477.809 276.095 477.539 276.322 477.206 276.448L476.956 276.018C477.229 275.925 477.446 275.752 477.606 275.498C477.759 275.238 477.836 274.922 477.836 274.548C477.836 274.175 477.756 273.868 477.596 273.628C477.429 273.382 477.196 273.258 476.896 273.258C476.649 273.258 476.452 273.362 476.306 273.568C476.159 273.775 476.052 274.028 475.986 274.328C475.912 274.628 475.832 274.928 475.746 275.228C475.659 275.522 475.516 275.772 475.316 275.978C475.116 276.185 474.849 276.288 474.516 276.288C474.116 276.288 473.779 276.132 473.506 275.818C473.232 275.498 473.096 275.088 473.096 274.588C473.096 274.188 473.186 273.842 473.366 273.548C473.546 273.248 473.789 273.028 474.096 272.888L474.336 273.308C474.089 273.408 473.902 273.575 473.776 273.808C473.642 274.042 473.576 274.302 473.576 274.588C473.576 274.928 473.662 275.215 473.836 275.448C474.002 275.675 474.229 275.788 474.516 275.788ZM473.206 267.997V267.497H478.206V267.997H477.256C477.962 268.357 478.316 268.954 478.316 269.787C478.316 270.381 478.136 270.854 477.776 271.207C477.409 271.554 476.922 271.727 476.316 271.727H473.206V271.217H476.316C476.782 271.217 477.152 271.091 477.426 270.837C477.699 270.577 477.836 270.214 477.836 269.747C477.836 269.234 477.666 268.814 477.326 268.487C476.986 268.161 476.492 267.997 475.846 267.997H473.206ZM473.096 260.613C473.096 260.066 473.266 259.626 473.606 259.293C473.946 258.959 474.422 258.793 475.036 258.793H478.206V259.293H475.036C474.569 259.293 474.209 259.416 473.956 259.663C473.702 259.903 473.576 260.223 473.576 260.623C473.576 261.069 473.729 261.433 474.036 261.713C474.342 261.986 474.802 262.123 475.416 262.123H478.206V262.623H475.036C474.569 262.623 474.209 262.739 473.956 262.973C473.702 263.199 473.576 263.509 473.576 263.903C473.576 264.343 473.732 264.713 474.046 265.013C474.352 265.306 474.809 265.453 475.416 265.453H478.206V265.953H473.206V265.453H474.066C473.419 265.106 473.096 264.569 473.096 263.843C473.096 263.476 473.186 263.156 473.366 262.883C473.539 262.609 473.789 262.409 474.116 262.283C473.776 262.109 473.522 261.876 473.356 261.583C473.182 261.283 473.096 260.959 473.096 260.613ZM471.206 250.302V249.802H478.206V250.302H477.046C477.439 250.509 477.749 250.802 477.976 251.182C478.202 251.556 478.316 251.979 478.316 252.452C478.316 253.172 478.066 253.786 477.566 254.292C477.059 254.792 476.439 255.042 475.706 255.042C474.972 255.042 474.356 254.792 473.856 254.292C473.349 253.786 473.096 253.172 473.096 252.452C473.096 251.979 473.209 251.556 473.436 251.182C473.662 250.802 473.972 250.509 474.366 250.302H471.206ZM477.216 253.932C477.629 253.519 477.836 253.016 477.836 252.422C477.836 251.829 477.629 251.329 477.216 250.922C476.802 250.509 476.299 250.302 475.706 250.302C475.112 250.302 474.609 250.509 474.196 250.922C473.782 251.329 473.576 251.829 473.576 252.422C473.576 253.016 473.782 253.519 474.196 253.932C474.609 254.339 475.112 254.542 475.706 254.542C476.299 254.542 476.802 254.339 477.216 253.932ZM478.316 245.977C478.316 246.71 478.066 247.334 477.566 247.847C477.059 248.354 476.439 248.607 475.706 248.607C474.972 248.607 474.356 248.354 473.856 247.847C473.349 247.334 473.096 246.71 473.096 245.977C473.096 245.25 473.349 244.634 473.856 244.127C474.356 243.614 474.972 243.357 475.706 243.357C476.439 243.357 477.059 243.614 477.566 244.127C478.066 244.634 478.316 245.25 478.316 245.977ZM477.216 247.487C477.629 247.074 477.836 246.57 477.836 245.977C477.836 245.384 477.629 244.884 477.216 244.477C476.802 244.07 476.299 243.867 475.706 243.867C475.112 243.867 474.609 244.07 474.196 244.477C473.782 244.884 473.576 245.384 473.576 245.977C473.576 246.57 473.782 247.074 474.196 247.487C474.609 247.894 475.112 248.097 475.706 248.097C476.299 248.097 476.802 247.894 477.216 247.487ZM478.206 242.154H470.906V241.654H478.206V242.154ZM478.316 237.823C478.316 238.556 478.066 239.179 477.566 239.693C477.059 240.199 476.439 240.453 475.706 240.453C474.972 240.453 474.356 240.199 473.856 239.693C473.349 239.179 473.096 238.556 473.096 237.823C473.096 237.096 473.349 236.479 473.856 235.973C474.356 235.459 474.972 235.203 475.706 235.203C476.439 235.203 477.059 235.459 477.566 235.973C478.066 236.479 478.316 237.096 478.316 237.823ZM477.216 239.333C477.629 238.919 477.836 238.416 477.836 237.823C477.836 237.229 477.629 236.729 477.216 236.323C476.802 235.916 476.299 235.713 475.706 235.713C475.112 235.713 474.609 235.916 474.196 236.323C473.782 236.729 473.576 237.229 473.576 237.823C473.576 238.416 473.782 238.919 474.196 239.333C474.609 239.739 475.112 239.943 475.706 239.943C476.299 239.943 476.802 239.739 477.216 239.333ZM474.186 233.5C473.486 233.2 473.136 232.643 473.136 231.83H473.616C473.616 232.303 473.769 232.7 474.076 233.02C474.376 233.34 474.826 233.5 475.426 233.5H478.206V234H473.206V233.5H474.186ZM474.516 227.81C474.762 227.81 474.956 227.707 475.096 227.5C475.236 227.293 475.342 227.04 475.416 226.74C475.482 226.44 475.559 226.143 475.646 225.85C475.732 225.55 475.879 225.297 476.086 225.09C476.286 224.883 476.556 224.78 476.896 224.78C477.309 224.78 477.649 224.947 477.916 225.28C478.182 225.607 478.316 226.037 478.316 226.57C478.316 227.05 478.216 227.457 478.016 227.79C477.809 228.117 477.539 228.343 477.206 228.47L476.956 228.04C477.229 227.947 477.446 227.773 477.606 227.52C477.759 227.26 477.836 226.943 477.836 226.57C477.836 226.197 477.756 225.89 477.596 225.65C477.429 225.403 477.196 225.28 476.896 225.28C476.649 225.28 476.452 225.383 476.306 225.59C476.159 225.797 476.052 226.05 475.986 226.35C475.912 226.65 475.832 226.95 475.746 227.25C475.659 227.543 475.516 227.793 475.316 228C475.116 228.207 474.849 228.31 474.516 228.31C474.116 228.31 473.779 228.153 473.506 227.84C473.232 227.52 473.096 227.11 473.096 226.61C473.096 226.21 473.186 225.863 473.366 225.57C473.546 225.27 473.789 225.05 474.096 224.91L474.336 225.33C474.089 225.43 473.902 225.597 473.776 225.83C473.642 226.063 473.576 226.323 473.576 226.61C473.576 226.95 473.662 227.237 473.836 227.47C474.002 227.697 474.229 227.81 474.516 227.81ZM471.886 223.089C471.959 223.169 471.996 223.262 471.996 223.369C471.996 223.475 471.959 223.569 471.886 223.649C471.806 223.729 471.709 223.769 471.596 223.769C471.489 223.769 471.399 223.729 471.326 223.649C471.246 223.569 471.206 223.475 471.206 223.369C471.206 223.262 471.246 223.169 471.326 223.089C471.399 223.009 471.489 222.969 471.596 222.969C471.709 222.969 471.806 223.009 471.886 223.089ZM478.206 223.619H473.206V223.119H478.206V223.619ZM473.696 219.018V220.508H476.946C477.232 220.508 477.439 220.454 477.566 220.348C477.692 220.241 477.766 220.078 477.786 219.858C477.799 219.638 477.789 219.358 477.756 219.018H478.206C478.306 219.691 478.259 220.194 478.066 220.528C477.872 220.854 477.499 221.018 476.946 221.018H473.696V222.118H473.206V221.018H471.956L471.806 220.508H473.206V219.018H473.696ZM473.206 210.752V210.242H478.206V210.752H477.076C477.462 210.965 477.766 211.259 477.986 211.632C478.206 212.005 478.316 212.429 478.316 212.902C478.316 213.615 478.066 214.225 477.566 214.732C477.059 215.239 476.439 215.492 475.706 215.492C474.972 215.492 474.356 215.239 473.856 214.732C473.349 214.225 473.096 213.615 473.096 212.902C473.096 212.429 473.206 212.005 473.426 211.632C473.646 211.259 473.949 210.965 474.336 210.752H473.206ZM477.216 214.372C477.629 213.959 477.836 213.455 477.836 212.862C477.836 212.269 477.629 211.769 477.216 211.362C476.802 210.955 476.299 210.752 475.706 210.752C475.112 210.752 474.609 210.955 474.196 211.362C473.782 211.769 473.576 212.269 473.576 212.862C473.576 213.455 473.782 213.959 474.196 214.372C474.609 214.779 475.112 214.982 475.706 214.982C476.299 214.982 476.802 214.779 477.216 214.372ZM473.096 203.367C473.096 202.82 473.266 202.38 473.606 202.047C473.946 201.713 474.422 201.547 475.036 201.547H478.206V202.047H475.036C474.569 202.047 474.209 202.17 473.956 202.417C473.702 202.657 473.576 202.977 473.576 203.377C473.576 203.823 473.729 204.187 474.036 204.467C474.342 204.74 474.802 204.877 475.416 204.877H478.206V205.377H475.036C474.569 205.377 474.209 205.493 473.956 205.727C473.702 205.953 473.576 206.263 473.576 206.657C473.576 207.097 473.732 207.467 474.046 207.767C474.352 208.06 474.809 208.207 475.416 208.207H478.206V208.707H473.206V208.207H474.066C473.419 207.86 473.096 207.323 473.096 206.597C473.096 206.23 473.186 205.91 473.366 205.637C473.539 205.363 473.789 205.163 474.116 205.037C473.776 204.863 473.522 204.63 473.356 204.337C473.182 204.037 473.096 203.713 473.096 203.367ZM473.096 197.882C473.096 197.149 473.356 196.556 473.876 196.102C474.396 195.642 475.012 195.412 475.726 195.412C475.752 195.412 475.792 195.416 475.846 195.422C475.899 195.422 475.939 195.422 475.966 195.422V199.952C476.526 199.892 476.979 199.669 477.326 199.282C477.666 198.889 477.836 198.406 477.836 197.832C477.836 197.432 477.752 197.082 477.586 196.782C477.419 196.482 477.199 196.256 476.926 196.102L477.186 195.662C477.532 195.869 477.809 196.162 478.016 196.542C478.216 196.922 478.316 197.356 478.316 197.842C478.316 198.609 478.072 199.239 477.586 199.732C477.092 200.226 476.466 200.472 475.706 200.472C474.959 200.472 474.339 200.232 473.846 199.752C473.346 199.266 473.096 198.642 473.096 197.882ZM473.576 197.882C473.576 198.449 473.752 198.922 474.106 199.302C474.459 199.682 474.916 199.899 475.476 199.952V195.932C474.882 195.986 474.419 196.199 474.086 196.572C473.746 196.939 473.576 197.376 473.576 197.882ZM473.696 191.83V193.32H476.946C477.232 193.32 477.439 193.267 477.566 193.16C477.692 193.053 477.766 192.89 477.786 192.67C477.799 192.45 477.789 192.17 477.756 191.83H478.206C478.306 192.503 478.259 193.007 478.066 193.34C477.872 193.667 477.499 193.83 476.946 193.83H473.696V194.93H473.206V193.83H471.956L471.806 193.32H473.206V191.83H473.696Z" fill="#EFEFE8"/>
<path d="M59.0346 138.715H22.311V175.511H59.0346V138.715Z" fill="#0044DD"/>
<path d="M79.0731 179.494C81.8139 167.859 74.622 156.2 63.0096 153.454C51.3971 150.708 39.7615 157.914 37.0207 169.549C34.28 181.185 41.4719 192.843 53.0843 195.59C64.6967 198.336 76.3323 191.13 79.0731 179.494Z" fill="#EFEFE8"/>
<path d="M58.0548 191.025C67.1471 191.025 74.5178 183.64 74.5178 174.53C74.5178 165.42 67.1471 158.034 58.0548 158.034C48.9625 158.034 41.5918 165.42 41.5918 174.53C41.5918 183.64 48.9625 191.025 58.0548 191.025Z" fill="#FFBF00"/>
<path d="M79.6586 217.823C91.5901 217.823 101.262 208.131 101.262 196.176C101.262 184.221 91.5901 174.529 79.6586 174.529C67.7271 174.529 58.0547 184.221 58.0547 196.176C58.0547 208.131 67.7271 217.823 79.6586 217.823Z" fill="#FF4900"/>
<path d="M79.6588 212.672C88.7511 212.672 96.1218 205.287 96.1218 196.176C96.1218 187.066 88.7511 179.681 79.6588 179.681C70.5665 179.681 63.1958 187.066 63.1958 196.176C63.1958 205.287 70.5665 212.672 79.6588 212.672Z" fill="#1B2C89"/>
<path d="M445.39 0H359.711V113.233H445.39V0Z" fill="url(#paint0_linear_703_1892)"/>
<path d="M436.391 36.4014H425.109V47.7054H436.391V36.4014Z" fill="#FFBF00"/>
<path d="M436.391 81.6074H425.109V92.9115H436.391V81.6074Z" fill="#FFBF00"/>
<path d="M436.391 59.0098H425.109V70.3138H436.391V59.0098Z" fill="#FFBF00"/>
<path d="M413.837 36.4014H402.556V47.7054H413.837V36.4014Z" fill="#FFBF00"/>
<path d="M413.837 81.6074H402.556V92.9115H413.837V81.6074Z" fill="#FFBF00"/>
<path d="M413.837 59.0098H402.556V70.3138H413.837V59.0098Z" fill="#FFBF00"/>
<path d="M391.274 36.4014H379.992V47.7054H391.274V36.4014Z" fill="#FFBF00"/>
<path d="M391.274 81.6074H379.992V92.9115H391.274V81.6074Z" fill="#FFBF00"/>
<path d="M391.274 59.0098H379.992V70.3138H391.274V59.0098Z" fill="#FFBF00"/>
<path d="M402.556 59V70.304H413.837L402.556 81.6081H391.274V70.304L402.556 59Z" fill="#FF4900"/>
<path d="M402.556 36.4014V47.7054H413.837L402.556 58.9993H391.274V47.7054L402.556 36.4014Z" fill="#FF4900"/>
<path d="M425.109 36.4014V47.7054H436.391L425.109 58.9993H413.837V47.7054L425.109 36.4014Z" fill="#FF4900"/>
<path d="M425.109 59V70.304H436.391L425.109 81.6081H413.837V70.304L425.109 59Z" fill="#FF4900"/>
<path d="M425.109 81.6074V92.9115H436.391L425.109 104.216H413.837V92.9115L425.109 81.6074Z" fill="#FF4900"/>
<path d="M402.556 81.6074V92.9115H413.837L402.556 104.216H391.274V92.9115L402.556 81.6074Z" fill="#FF4900"/>
<path d="M379.992 59V70.304H391.274L379.992 81.6081H368.71V70.304L379.992 59Z" fill="#FF4900"/>
<path d="M379.992 36.4014V47.7054H391.274L379.992 58.9993H368.71V47.7054L379.992 36.4014Z" fill="#FF4900"/>
<path d="M379.992 81.6074V92.9115H391.274L379.992 104.216H368.71V92.9115L379.992 81.6074Z" fill="#FF4900"/>
<path d="M176.316 386.553L175.609 385.845L183.032 378.407L181.992 377.364L174.569 384.803L173.852 384.094L177.498 372.628L187.345 367.629L190.042 370.331L192.749 373.043L187.759 382.9L176.316 386.553Z" fill="#EFEFE8"/>
<path d="M191.234 362.059L198.24 369.079L199.79 367.526L192.784 360.506L191.234 362.059Z" fill="#EFEFE8"/>
<path d="M197.122 370.2L190.123 363.177L188.426 366.415L193.89 371.89L197.122 370.2Z" fill="#EFEFE8"/>
<path d="M264.62 368.216C264.689 368.151 264.743 368.073 264.78 367.986C264.818 367.899 264.837 367.805 264.837 367.71C264.837 367.616 264.818 367.522 264.78 367.435C264.743 367.348 264.689 367.269 264.62 367.204L258.217 360.788C258.152 360.718 258.074 360.662 257.987 360.624C257.901 360.586 257.807 360.566 257.712 360.566C257.617 360.566 257.523 360.586 257.436 360.624C257.349 360.662 257.271 360.718 257.207 360.788L254.904 363.096L262.287 370.503L264.62 368.216ZM241.067 377.253L240.057 384.418C240.032 384.557 240.041 384.699 240.082 384.834C240.124 384.968 240.198 385.09 240.297 385.189C240.397 385.289 240.519 385.363 240.653 385.405C240.787 385.447 240.929 385.456 241.067 385.43L248.208 384.418C248.395 384.395 248.569 384.309 248.703 384.175L261.014 371.839L253.631 364.431L241.39 376.758C241.244 376.887 241.144 377.061 241.107 377.253H241.067ZM242.713 376.97L248.49 382.759L248.016 383.234C247.913 383.338 247.777 383.402 247.632 383.416L242.047 384.175C241.945 384.189 241.842 384.179 241.746 384.146C241.649 384.113 241.561 384.058 241.489 383.985C241.417 383.913 241.362 383.825 241.329 383.728C241.296 383.631 241.286 383.528 241.299 383.427L242.057 377.83C242.075 377.686 242.139 377.551 242.239 377.446L242.713 376.97Z" fill="#EFEFE8"/>
<path d="M320.806 375.867L321.937 374.744C322.109 374.568 322.205 374.332 322.205 374.086C322.205 373.84 322.109 373.604 321.937 373.428L321.18 372.669C321.004 372.497 320.769 372.401 320.523 372.401C320.278 372.401 320.042 372.497 319.867 372.669L318.746 373.802L313.918 368.965C315.503 367.572 317.557 366.836 319.664 366.905C321.771 366.974 323.772 367.843 325.263 369.337C326.754 370.83 327.621 372.836 327.69 374.947C327.759 377.058 327.024 379.116 325.634 380.704L320.806 375.867Z" fill="#EFEFE8"/>
<path d="M324.352 382.03L321.251 385.137C319.692 386.699 317.577 387.576 315.373 387.576C313.168 387.576 311.053 386.699 309.494 385.137C307.935 383.574 307.06 381.456 307.06 379.247C307.06 377.038 307.935 374.919 309.494 373.357L312.595 370.25L317.443 375.108L316.847 375.705C316.761 375.79 316.693 375.892 316.647 376.004C316.6 376.116 316.576 376.236 316.576 376.357C316.576 376.479 316.6 376.599 316.647 376.711C316.693 376.823 316.761 376.925 316.847 377.01L317.605 377.769C317.69 377.855 317.792 377.923 317.903 377.97C318.015 378.016 318.135 378.04 318.256 378.04C318.377 378.04 318.497 378.016 318.609 377.97C318.721 377.923 318.822 377.855 318.908 377.769L319.503 377.172L324.352 382.03Z" fill="#EFEFE8"/>
<path d="M329.997 363.436L326.348 367.093L327.505 368.252L331.154 364.595L329.997 363.436Z" fill="#EFEFE8"/>
<path d="M318.18 147.044C325.343 147.044 331.149 141.226 331.149 134.05C331.149 126.873 325.343 121.056 318.18 121.056C311.018 121.056 305.212 126.873 305.212 134.05C305.212 141.226 311.018 147.044 318.18 147.044Z" fill="#EFEFE8"/>
<path d="M186.82 147.044C193.982 147.044 199.788 141.226 199.788 134.05C199.788 126.873 193.982 121.056 186.82 121.056C179.658 121.056 173.852 126.873 173.852 134.05C173.852 141.226 179.658 147.044 186.82 147.044Z" fill="#EFEFE8"/>
<path d="M237.441 127.32C239.895 127.32 241.885 125.326 241.885 122.867C241.885 120.408 239.895 118.414 237.441 118.414C234.987 118.414 232.997 120.408 232.997 122.867C232.997 125.326 234.987 127.32 237.441 127.32Z" fill="#EFEFE8"/>
<path d="M267.559 127.32C270.014 127.32 272.003 125.326 272.003 122.867C272.003 120.408 270.014 118.414 267.559 118.414C265.105 118.414 263.115 120.408 263.115 122.867C263.115 125.326 265.105 127.32 267.559 127.32Z" fill="#EFEFE8"/>
<path d="M252.5 152.71C247.705 152.708 243.107 150.799 239.716 147.402C236.324 144.006 234.416 139.4 234.411 134.596H240.471C240.471 137.792 241.738 140.858 243.994 143.118C246.25 145.379 249.31 146.649 252.5 146.649C255.691 146.649 258.75 145.379 261.006 143.118C263.262 140.858 264.529 137.792 264.529 134.596H270.589C270.584 139.4 268.676 144.006 265.285 147.402C261.893 150.799 257.295 152.708 252.5 152.71Z" fill="#EFEFE8"/>
<path d="M385.467 253C385.467 253 325.937 327.736 252.5 327.736C179.063 327.736 119.534 253 119.534 253C119.534 253 179.063 178.264 252.5 178.264C325.937 178.264 385.467 253 385.467 253Z" fill="#EFEFE8"/>
<path d="M291.082 214.351C280.941 204.185 267.208 198.436 252.863 198.352H252.5H251.581C237.43 198.551 223.914 204.273 213.908 214.301L236.794 237.212C240.959 233.053 246.6 230.718 252.48 230.718C258.36 230.718 264 233.053 268.165 237.212C272.322 241.386 274.657 247.042 274.657 252.939C274.657 258.836 272.322 264.491 268.165 268.665C266.583 270.244 264.776 271.578 262.802 272.622C261.203 273.465 259.507 274.108 257.752 274.535L256.742 274.758C253.944 275.311 251.066 275.311 248.268 274.758C247.824 274.666 247.379 274.565 246.945 274.454C246.339 274.311 245.742 274.132 245.157 273.918C244.25 273.601 243.366 273.223 242.511 272.784C240.406 271.728 238.486 270.337 236.825 268.665L213.948 291.597L214.271 291.911C219.29 296.922 225.244 300.894 231.795 303.6C238.254 306.24 245.16 307.614 252.136 307.648H252.5H253.419C267.567 307.449 281.08 301.727 291.082 291.698C296.156 286.623 300.181 280.594 302.928 273.958C305.674 267.322 307.088 260.209 307.088 253.025C307.088 245.841 305.674 238.727 302.928 232.091C300.181 225.455 296.156 219.427 291.082 214.351Z" fill="#FFBF00"/>
<path d="M291.082 291.648L268.206 268.726C272.363 264.552 274.697 258.897 274.697 253C274.697 247.103 272.363 241.447 268.206 237.273L291.082 214.352C296.148 219.426 300.167 225.451 302.909 232.083C305.651 238.714 307.063 245.822 307.063 253C307.063 260.178 305.651 267.285 302.909 273.917C300.167 280.548 296.148 286.573 291.082 291.648Z" fill="#FF4900"/>
<path d="M291.082 291.648C281.086 301.698 267.568 307.439 253.409 307.648H252.49H252.136C245.16 307.614 238.255 306.24 231.795 303.6C225.246 300.926 219.285 296.989 214.251 292.012L213.918 291.678L236.805 268.767C238.466 270.438 240.386 271.829 242.491 272.885C243.346 273.324 244.23 273.703 245.137 274.019C245.723 274.221 246.319 274.403 246.925 274.555C247.359 274.667 247.803 274.768 248.248 274.859C251.047 275.399 253.923 275.399 256.722 274.859L257.732 274.636C259.487 274.208 261.183 273.565 262.782 272.724C264.756 271.679 266.563 270.345 268.145 268.767L291.082 291.648Z" fill="#0044DD"/>
<path d="M252.5 275.295C264.788 275.295 274.75 265.313 274.75 253C274.75 240.688 264.788 230.706 252.5 230.706C240.211 230.706 230.25 240.688 230.25 253C230.25 265.313 240.211 275.295 252.5 275.295Z" fill="#1B2C89"/>
</g>
<defs>
<linearGradient id="paint0_linear_703_1892" x1="358.459" y1="-9.22939e-05" x2="448.634" y2="0.433534" gradientUnits="userSpaceOnUse">
<stop stop-color="#E46BF2"/>
<stop offset="1" stop-color="#FFA63D"/>
</linearGradient>
<clipPath id="clip0_703_1892">
<rect width="505" height="506" fill="white"/>
</clipPath>
</defs>
</svg>
