<svg width="37" height="43" viewBox="0 0 37 43" fill="none" xmlns="http://www.w3.org/2000/svg">
<g clip-path="url(#clip0_703_3046)">
<path d="M8.66667 20.6728L17 29.9561L14.5 32.7411C13.9561 33.367 13.3058 33.866 12.5871 34.2092C11.8683 34.5523 11.0955 34.7326 10.3135 34.7397C9.53157 34.7468 8.75617 34.5804 8.03251 34.2503C7.30885 33.9202 6.6514 33.433 6.09846 32.8171C5.54552 32.2011 5.10815 31.4687 4.81183 30.6625C4.51552 29.8564 4.36619 28.9926 4.37253 28.1215C4.37888 27.2504 4.54079 26.3894 4.84881 25.5888C5.15684 24.7881 5.60482 24.0637 6.16667 23.4578L8.66667 20.6728ZM25.3333 20.6728L17 11.3895L19.5 8.60453C20.0439 7.97864 20.6942 7.47959 21.4129 7.13645C22.1317 6.79331 22.9045 6.61295 23.6865 6.60588C24.4684 6.59881 25.2438 6.76516 25.9675 7.09526C26.6911 7.42535 27.3486 7.91258 27.9015 8.52855C28.4545 9.14452 28.8918 9.87692 29.1882 10.6831C29.4845 11.4892 29.6338 12.353 29.6275 13.2241C29.6211 14.0952 29.4592 14.9562 29.1512 15.7568C28.8432 16.5575 28.3952 17.2819 27.8333 17.8878L25.3333 20.6728ZM2 37.3827L6.16667 32.7411L2 37.3827ZM27.8333 8.60453L32 3.96289L27.8333 8.60453ZM13.6667 18.8161L10.3333 22.5295L13.6667 18.8161ZM18.6667 24.3861L15.3333 28.0994L18.6667 24.3861Z" fill="#EAD1A6"/>
<path d="M18.6667 24.3861L15.3333 28.0994M8.66667 20.6728L17 29.9561L14.5 32.7411C13.9561 33.367 13.3058 33.866 12.5871 34.2092C11.8683 34.5523 11.0955 34.7326 10.3135 34.7397C9.53157 34.7468 8.75617 34.5804 8.03251 34.2503C7.30885 33.9202 6.6514 33.433 6.09846 32.8171C5.54552 32.2011 5.10815 31.4687 4.81183 30.6625C4.51552 29.8564 4.36619 28.9926 4.37254 28.1215C4.37888 27.2504 4.54079 26.3894 4.84881 25.5888C5.15684 24.7881 5.60482 24.0637 6.16667 23.4578L8.66667 20.6728ZM25.3333 20.6728L17 11.3895L19.5 8.60453C20.0439 7.97864 20.6942 7.47959 21.4129 7.13645C22.1317 6.79331 22.9045 6.61295 23.6865 6.60588C24.4684 6.59881 25.2438 6.76516 25.9675 7.09526C26.6911 7.42535 27.3486 7.91258 27.9015 8.52855C28.4545 9.14452 28.8918 9.87692 29.1882 10.6831C29.4845 11.4892 29.6338 12.353 29.6275 13.2241C29.6211 14.0952 29.4592 14.9562 29.1512 15.7568C28.8432 16.5575 28.3952 17.2819 27.8333 17.8878L25.3333 20.6728ZM2 37.3827L6.16667 32.7411L2 37.3827ZM27.8333 8.60453L32 3.96289L27.8333 8.60453ZM13.6667 18.8161L10.3333 22.5295L13.6667 18.8161Z" stroke="#EAD1A6" stroke-width="4.16667" stroke-linecap="round" stroke-linejoin="round"/>
</g>
<defs>
<clipPath id="clip0_703_3046">
<rect width="37" height="43" fill="white"/>
</clipPath>
</defs>
</svg>
