<svg width="45" height="48" viewBox="0 0 45 48" fill="none" xmlns="http://www.w3.org/2000/svg">
<path d="M28.875 44.625H9.75C8.05924 44.625 6.43774 43.9534 5.24219 42.7578C4.04665 41.5623 3.375 39.9408 3.375 38.25V36.125H24.625V40.375C24.625 41.5022 25.0728 42.5832 25.8698 43.3802C26.6668 44.1772 27.7478 44.625 28.875 44.625ZM28.875 44.625C30.0022 44.625 31.0832 44.1772 31.8802 43.3802C32.6772 42.5832 33.125 41.5022 33.125 40.375V10.625C33.125 9.78443 33.3743 8.96274 33.8413 8.26383C34.3083 7.56492 34.972 7.02019 35.7486 6.69851C36.5252 6.37684 37.3797 6.29268 38.2041 6.45666C39.0286 6.62065 39.7858 7.02542 40.3802 7.6198C40.9746 8.21417 41.3794 8.97145 41.5433 9.79587C41.7073 10.6203 41.6232 11.4748 41.3015 12.2514C40.9798 13.028 40.4351 13.6918 39.7362 14.1587C39.0373 14.6257 38.2156 14.875 37.375 14.875H33.125M37.375 6.375H14C12.3092 6.375 10.6877 7.04665 9.49219 8.2422C8.29665 9.43774 7.625 11.0592 7.625 12.75V36.125M16.125 14.875H24.625M16.125 23.375H24.625" stroke="#EAD1A6" stroke-width="2" stroke-linecap="round" stroke-linejoin="round"/>
</svg>
