<svg width="98" height="97" viewBox="0 0 98 97" fill="none" xmlns="http://www.w3.org/2000/svg">
<g clip-path="url(#clip0_703_1603)">
<path d="M16.0504 56.771L44.8865 80.9767L80.2517 43.8517L29.0423 34.2228L19.6965 80.9767L7.81611 71.062L70.4002 26.7537L39.0372 16.8761L61.7574 80.9767L89.3046 59.5624L23.4953 43.8517L27.9647 80.9767L73.8921 32.8124L48.5603 12.4688H62.1705L2.10254 80.9767" stroke="white" stroke-width="0.5" stroke-miterlimit="10" stroke-linecap="round" stroke-linejoin="round"/>
<path d="M44.8868 6.50781L55.6911 25.0997L66.4661 43.7425L87.8573 80.869L88.0438 81.1919L87.6707 81.195L2.10444 81.7511L0.753906 81.7604L1.43688 80.5925L23.067 43.6035C26.707 37.3763 30.3639 31.1615 34.0132 24.9792C37.6624 18.7968 41.2916 12.6485 44.8868 6.50781ZM44.8868 6.94036C41.3517 13.1737 37.8505 19.4024 34.3678 25.594C30.885 31.7887 27.4131 37.9479 23.9227 44.0962L2.77046 81.3618L2.1029 80.2032L87.6692 80.7593L87.4811 81.0853L66.0915 43.9588L55.4753 25.4751L44.8868 6.94036Z" fill="white"/>
<path d="M55.3658 0.442383L66.1701 19.0342L76.9451 37.6771L98.3363 74.8036L98.5228 75.1265L98.1497 75.1296L12.5834 75.6857L11.2329 75.695L11.9159 74.5271L33.5476 37.5396C37.1876 31.3124 40.8445 25.0976 44.4937 18.9153C48.1414 12.7314 51.7706 6.58302 55.3658 0.442383ZM55.3658 0.876478C51.8307 7.10981 48.3295 13.3385 44.8468 19.5301C41.364 25.7248 37.8921 31.884 34.4017 38.0324L13.2495 75.2979L12.5819 74.1393L98.1482 74.6955L97.9601 75.0214L76.5689 37.8933L65.9527 19.4096L55.3658 0.876478Z" fill="white"/>
<path d="M5.81042 87.0135C6.3901 87.5032 6.67995 88.1768 6.67995 89.0326C6.67995 89.89 6.3901 90.5604 5.81042 91.047C5.23074 91.5321 4.42905 91.7762 3.4069 91.7762H1.25468V94.3112H0.406738V86.2813H3.4069C4.4306 86.2782 5.23074 86.5238 5.81042 87.0135ZM5.20453 90.5063C5.62388 90.1588 5.83355 89.6675 5.83355 89.0326C5.83355 88.3822 5.62388 87.8833 5.20453 87.5357C4.78519 87.1881 4.17776 87.0135 3.38532 87.0135H1.25622V91.0285H3.38532C4.17776 91.0285 4.78519 90.8539 5.20453 90.5063Z" fill="white"/>
<path d="M13.9863 94.3088L12.1548 91.7274C11.9482 91.7506 11.7354 91.7614 11.515 91.7614H9.35966V94.3073H8.51172V86.2773H11.5119C12.534 86.2773 13.3357 86.523 13.9154 87.0111C14.4951 87.5008 14.7849 88.1744 14.7849 89.0302C14.7849 89.6574 14.6261 90.1873 14.3101 90.6198C13.994 91.0524 13.5408 91.3629 12.9534 91.5544L14.9113 94.3073H13.9863V94.3088ZM13.3095 90.5132C13.7289 90.161 13.9385 89.6682 13.9385 89.0333C13.9385 88.3829 13.7289 87.8839 13.3095 87.5364C12.8902 87.1888 12.2827 87.0142 11.4903 87.0142H9.35966V91.0415H11.4888C12.2827 91.04 12.8902 90.8639 13.3095 90.5132Z" fill="white"/>
<path d="M18.1352 93.8439C17.4907 93.4886 16.9866 93.0019 16.6243 92.3825C16.262 91.763 16.0801 91.0678 16.0801 90.2954C16.0801 89.523 16.2605 88.8263 16.6243 88.2068C16.9866 87.5874 17.4907 87.1008 18.1352 86.7439C18.7796 86.3886 19.4996 86.2109 20.2936 86.2109C21.0875 86.2109 21.8029 86.3871 22.4396 86.7393C23.0763 87.0915 23.5789 87.5781 23.9459 88.2022C24.3113 88.8263 24.4947 89.523 24.4947 90.2954C24.4947 91.0678 24.3113 91.7661 23.9459 92.3887C23.5789 93.0128 23.0779 93.4994 22.4396 93.8516C21.8029 94.2038 21.0875 94.3799 20.2936 94.3799C19.4996 94.3784 18.7796 94.2007 18.1352 93.8439ZM22.0095 93.1904C22.5213 92.9031 22.9206 92.5061 23.212 91.9978C23.5019 91.4896 23.6468 90.9226 23.6468 90.2954C23.6468 89.6682 23.5019 89.1013 23.212 88.5915C22.9222 88.0833 22.5213 87.6847 22.0095 87.3989C21.4976 87.1116 20.9257 86.9679 20.292 86.9679C19.6584 86.9679 19.0833 87.1116 18.5684 87.3989C18.0535 87.6862 17.6495 88.0833 17.3551 88.5915C17.0606 89.0997 16.9141 89.6682 16.9141 90.2954C16.9141 90.9226 17.0606 91.4896 17.3551 91.9978C17.6495 92.5076 18.0535 92.9046 18.5684 93.1904C19.0833 93.4778 19.6584 93.6214 20.292 93.6214C20.9257 93.6214 21.4992 93.4778 22.0095 93.1904Z" fill="white"/>
<path d="M31.7971 88.2745V93.5747C31.7971 94.5989 31.5473 95.359 31.0478 95.8518C30.5467 96.3446 29.7944 96.5917 28.7861 96.5917C28.2296 96.5917 27.7008 96.5099 27.2012 96.3446C26.7002 96.1808 26.2947 95.9522 25.9818 95.6618L26.3934 95.0423C26.6832 95.3018 27.0363 95.5042 27.4525 95.6494C27.8688 95.7946 28.3051 95.8672 28.763 95.8672C29.5261 95.8672 30.0873 95.6896 30.445 95.3342C30.8042 94.9789 30.9831 94.4259 30.9831 93.6767V92.9073C30.7318 93.2905 30.4018 93.5809 29.9933 93.7786C29.5847 93.9779 29.133 94.0768 28.6366 94.0768C28.0708 94.0768 27.5589 93.9516 27.0964 93.7045C26.6339 93.4558 26.2716 93.1082 26.008 92.6602C25.7443 92.2122 25.6133 91.7055 25.6133 91.1401C25.6133 90.5731 25.7459 90.0695 26.008 89.6262C26.2716 89.1828 26.6324 88.8383 27.0902 88.5942C27.5481 88.3501 28.0631 88.2266 28.635 88.2266C29.1469 88.2266 29.6078 88.3301 30.0195 88.5355C30.4311 88.7425 30.7641 89.0407 31.0154 89.43V88.2714H31.7971V88.2745ZM29.8977 93.0757C30.2477 92.8888 30.5221 92.6262 30.7163 92.291C30.9106 91.9542 31.0077 91.5726 31.0077 91.1432C31.0077 90.7137 30.9106 90.3337 30.7163 90.0016C30.5221 89.6694 30.2507 89.4083 29.9039 89.2214C29.557 89.0345 29.1623 88.9403 28.7183 88.9403C28.2835 88.9403 27.8919 89.0314 27.545 89.2152C27.1982 89.3991 26.9268 89.6586 26.7326 89.9954C26.5383 90.3321 26.4412 90.7137 26.4412 91.1432C26.4412 91.5726 26.5383 91.9542 26.7326 92.291C26.9268 92.6262 27.1982 92.8888 27.545 93.0757C27.8919 93.2627 28.2835 93.3569 28.7183 93.3569C29.153 93.3569 29.5462 93.2627 29.8977 93.0757Z" fill="white"/>
<path d="M35.7072 88.5385C36.0849 88.3314 36.5521 88.2295 37.1102 88.2295V89.0204L36.9159 89.0096C36.2823 89.0096 35.7858 89.2043 35.4282 89.5951C35.069 89.9844 34.8901 90.5313 34.8901 91.2357V94.3099H34.0776V88.2758H34.8562V89.4576C35.0443 89.0513 35.3295 88.7455 35.7072 88.5385Z" fill="white"/>
<path d="M42.4782 88.8196C42.8975 89.2135 43.1072 89.7975 43.1072 90.5683V94.3083H42.3286V93.3675C42.1452 93.6811 41.8769 93.9268 41.5223 94.1013C41.1677 94.2774 40.7453 94.3655 40.2566 94.3655C39.5844 94.3655 39.051 94.2048 38.6532 93.8835C38.257 93.5622 38.0581 93.1374 38.0581 92.6106C38.0581 92.0993 38.2431 91.6852 38.6131 91.3716C38.9831 91.0581 39.5721 90.902 40.3815 90.902H42.2932V90.5359C42.2932 90.0153 42.1483 89.6198 41.8584 89.3479C41.5686 89.076 41.1446 88.9401 40.588 88.9401C40.2057 88.9401 39.8403 89.0034 39.4888 89.1301C39.1373 89.2568 38.8367 89.4298 38.5854 89.6523L38.2184 89.0436C38.5237 88.7841 38.8906 88.5833 39.3177 88.4411C39.7447 88.299 40.1949 88.2295 40.6682 88.2295C41.456 88.2295 42.0588 88.4257 42.4782 88.8196ZM41.5624 93.4093C41.8908 93.1992 42.1344 92.8948 42.2947 92.4963V91.5107H40.4061C39.3763 91.5107 38.8613 91.8706 38.8613 92.589C38.8613 92.9396 38.9955 93.2177 39.2622 93.4201C39.5289 93.6224 39.9035 93.7244 40.3845 93.7244C40.8409 93.7244 41.234 93.6194 41.5624 93.4093Z" fill="white"/>
<path d="M54.6071 88.883C55.0373 89.3186 55.2531 89.9612 55.2531 90.8109V94.3099H54.4406V90.8912C54.4406 90.264 54.2896 89.7867 53.9889 89.4576C53.6867 89.1286 53.2612 88.9648 52.7124 88.9648C52.0865 88.9648 51.5947 89.1579 51.2354 89.5441C50.8762 89.9303 50.6974 90.4633 50.6974 91.1446V94.3099H49.8849V90.8912C49.8849 90.264 49.7338 89.7867 49.4332 89.4576C49.1325 89.1286 48.7024 88.9648 48.1459 88.9648C47.5276 88.9648 47.0374 89.1579 46.6751 89.5441C46.3128 89.9303 46.1308 90.4633 46.1308 91.1446V94.3099H45.3184V88.2758H46.0969V89.3773C46.3097 89.0096 46.6072 88.7269 46.9896 88.5276C47.3704 88.3284 47.8098 88.2295 48.3062 88.2295C48.8103 88.2295 49.2466 88.3361 49.6166 88.5508C49.9867 88.7655 50.2626 89.0822 50.4461 89.5024C50.6665 89.1054 50.9857 88.7933 51.4019 88.5678C51.8182 88.3423 52.293 88.2295 52.828 88.2295C53.5835 88.2295 54.177 88.4473 54.6071 88.883Z" fill="white"/>
<path d="M61.716 87.0141H58.9009V86.2803H65.3807V87.0141H62.564V94.3102H61.716V87.0141Z" fill="white"/>
<path d="M70.1413 88.8196C70.5606 89.2135 70.7703 89.7975 70.7703 90.5683V94.3083H69.9917V93.3675C69.8083 93.6811 69.54 93.9268 69.1854 94.1013C68.8308 94.2774 68.4084 94.3655 67.9197 94.3655C67.2475 94.3655 66.714 94.2048 66.3163 93.8835C65.9201 93.5622 65.7212 93.1374 65.7212 92.6106C65.7212 92.0993 65.9062 91.6852 66.2762 91.3716C66.6462 91.0581 67.2351 90.902 68.0445 90.902H69.9563V90.5359C69.9563 90.0153 69.8113 89.6198 69.5215 89.3479C69.2317 89.076 68.8077 88.9401 68.2511 88.9401C67.8688 88.9401 67.5034 89.0034 67.1519 89.1301C66.8004 89.2568 66.4998 89.4298 66.2485 89.6523L65.8815 89.0436C66.1868 88.7841 66.5537 88.5833 66.9808 88.4411C67.4078 88.299 67.858 88.2295 68.3313 88.2295C69.1191 88.2295 69.7219 88.4257 70.1413 88.8196ZM69.2255 93.4093C69.5539 93.1992 69.7975 92.8948 69.9578 92.4963V91.5107H68.0692C67.0393 91.5107 66.5244 91.8706 66.5244 92.589C66.5244 92.9396 66.6585 93.2177 66.9253 93.4201C67.192 93.6224 67.5666 93.7244 68.0476 93.7244C68.504 93.7244 68.8971 93.6194 69.2255 93.4093Z" fill="white"/>
<path d="M73.9017 93.9762C73.433 93.7167 73.0645 93.3506 72.7978 92.8809C72.5311 92.4098 72.397 91.8814 72.397 91.2913C72.397 90.7027 72.5296 90.1744 72.7978 89.7079C73.0645 89.2413 73.433 88.8783 73.9017 88.6188C74.3719 88.3593 74.9038 88.2295 75.4989 88.2295C76.0184 88.2295 76.481 88.3315 76.8895 88.5338C77.2981 88.7362 77.6203 89.0328 77.8562 89.4221L77.2503 89.8346C77.0514 89.5364 76.8001 89.3124 76.4948 89.1641C76.1896 89.0143 75.8581 88.9401 75.4989 88.9401C75.0641 88.9401 74.6725 89.0374 74.3256 89.2321C73.9788 89.4267 73.7074 89.7048 73.5132 90.0632C73.3189 90.4231 73.2218 90.8325 73.2218 91.2898C73.2218 91.7563 73.3189 92.1672 73.5132 92.5225C73.7074 92.8778 73.9788 93.1528 74.3256 93.349C74.6725 93.5437 75.0641 93.641 75.4989 93.641C75.8566 93.641 76.1896 93.5684 76.4948 93.4232C76.8001 93.2779 77.0529 93.057 77.2503 92.7589L77.8562 93.1714C77.6203 93.5606 77.295 93.8588 76.8833 94.0596C76.4717 94.2635 76.0092 94.364 75.4973 94.364C74.9038 94.3655 74.3719 94.2357 73.9017 93.9762Z" fill="white"/>
<path d="M82.6894 93.9427C82.5367 94.0802 82.3471 94.1852 82.122 94.2578C81.8969 94.3304 81.6626 94.3675 81.4175 94.3675C80.8517 94.3675 80.4169 94.2146 80.1116 93.9087C79.8064 93.6028 79.6538 93.1703 79.6538 92.6126V88.9653H78.5776V88.2763H79.6538V86.957H80.4662V88.2763H82.2978V88.9653H80.4662V92.5678C80.4662 92.9262 80.5557 93.2012 80.7345 93.3881C80.9133 93.575 81.1708 93.6693 81.5069 93.6693C81.6749 93.6693 81.8368 93.643 81.9925 93.5889C82.1498 93.5364 82.2839 93.4592 82.3995 93.3587L82.6894 93.9427Z" fill="white"/>
<path d="M84.154 86.7834C84.04 86.6691 83.9829 86.5316 83.9829 86.371C83.9829 86.218 84.04 86.0836 84.154 85.9693C84.2681 85.855 84.41 85.7979 84.578 85.7979C84.7461 85.7979 84.8863 85.8535 85.002 85.9647C85.1161 86.0759 85.1731 86.2072 85.1731 86.3602C85.1731 86.5286 85.1161 86.6691 85.002 86.785C84.8879 86.8993 84.7461 86.9565 84.578 86.9565C84.41 86.9565 84.2681 86.8978 84.154 86.7834ZM84.1648 88.2742H84.9773V94.3082H84.1648V88.2742Z" fill="white"/>
<path d="M88.1424 93.9762C87.6737 93.7167 87.3053 93.3506 87.0385 92.8809C86.7718 92.4098 86.6377 91.8814 86.6377 91.2913C86.6377 90.7027 86.7703 90.1744 87.0385 89.7079C87.3053 89.2413 87.6737 88.8783 88.1424 88.6188C88.6126 88.3593 89.1445 88.2295 89.7396 88.2295C90.2592 88.2295 90.7217 88.3315 91.1302 88.5338C91.5388 88.7362 91.861 89.0328 92.0969 89.4221L91.491 89.8346C91.2921 89.5364 91.0408 89.3124 90.7356 89.1641C90.4303 89.0143 90.0988 88.9401 89.7396 88.9401C89.3048 88.9401 88.9133 89.0374 88.5664 89.2321C88.2195 89.4267 87.9481 89.7048 87.7539 90.0632C87.5596 90.4231 87.4625 90.8325 87.4625 91.2898C87.4625 91.7563 87.5596 92.1672 87.7539 92.5225C87.9481 92.8778 88.2195 93.1528 88.5664 93.349C88.9133 93.5437 89.3048 93.641 89.7396 93.641C90.0973 93.641 90.4303 93.5684 90.7356 93.4232C91.0408 93.2779 91.2936 93.057 91.491 92.7589L92.0969 93.1714C91.861 93.5606 91.5357 93.8588 91.1241 94.0596C90.7124 94.2635 90.2499 94.364 89.7381 94.364C89.1445 94.3655 88.6126 94.2357 88.1424 93.9762Z" fill="white"/>
<path d="M93.9018 94.1535C93.4547 94.0129 93.1063 93.8352 92.855 93.6205L93.2219 92.9778C93.4732 93.1771 93.7908 93.3393 94.1716 93.4645C94.5539 93.5911 94.9502 93.6529 95.3618 93.6529C95.9122 93.6529 96.3177 93.5664 96.5813 93.3949C96.8449 93.2219 96.976 92.9794 96.976 92.6658C96.976 92.4433 96.9035 92.2688 96.7586 92.1437C96.6137 92.017 96.4302 91.9212 96.2082 91.8563C95.9862 91.7914 95.6933 91.7281 95.3263 91.6678C94.8376 91.5752 94.4445 91.4825 94.1469 91.3867C93.8494 91.2909 93.595 91.1287 93.3853 90.9001C93.1757 90.6699 93.0708 90.3532 93.0708 89.9485C93.0708 89.4433 93.2805 89.0309 93.6998 88.7095C94.1192 88.3882 94.7035 88.2275 95.4512 88.2275C95.8397 88.2275 96.2298 88.2785 96.6198 88.382C97.0083 88.4855 97.329 88.6215 97.5819 88.7899L97.2273 89.4433C96.7308 89.0988 96.1388 88.9273 95.4528 88.9273C94.9332 88.9273 94.5431 89.02 94.2795 89.2023C94.0159 89.3861 93.8848 89.6271 93.8848 89.9253C93.8848 90.1555 93.9588 90.3378 94.1084 90.4768C94.2579 90.6143 94.4429 90.7162 94.6634 90.7811C94.8839 90.846 95.1907 90.914 95.5792 90.9819C96.0602 91.0731 96.4456 91.1658 96.7355 91.2569C97.0253 91.3481 97.2735 91.5056 97.4801 91.7265C97.6867 91.949 97.7884 92.2549 97.7884 92.6442C97.7884 93.1725 97.5695 93.5911 97.1301 93.9001C96.6907 94.2091 96.0833 94.3651 95.3047 94.3651C94.8145 94.3651 94.3473 94.2956 93.9018 94.1535Z" fill="white"/>
<path d="M60.4427 34.6833C60.9868 34.6833 61.4278 34.2413 61.4278 33.6961C61.4278 33.1509 60.9868 32.709 60.4427 32.709C59.8986 32.709 59.4575 33.1509 59.4575 33.6961C59.4575 34.2413 59.8986 34.6833 60.4427 34.6833Z" fill="white"/>
<path d="M41.0726 37.4655C41.6166 37.4655 42.0577 37.0235 42.0577 36.4783C42.0577 35.9332 41.6166 35.4912 41.0726 35.4912C40.5285 35.4912 40.0874 35.9332 40.0874 36.4783C40.0874 37.0235 40.5285 37.4655 41.0726 37.4655Z" fill="white"/>
<path d="M79.5921 68.0563C80.1362 68.0563 80.5772 67.6144 80.5772 67.0692C80.5772 66.524 80.1362 66.082 79.5921 66.082C79.048 66.082 78.6069 66.524 78.6069 67.0692C78.6069 67.6144 79.048 68.0563 79.5921 68.0563Z" fill="white"/>
<path d="M71.5833 54.0661C72.1274 54.0661 72.5684 53.6241 72.5684 53.0789C72.5684 52.5338 72.1274 52.0918 71.5833 52.0918C71.0392 52.0918 70.5981 52.5338 70.5981 53.0789C70.5981 53.6241 71.0392 54.0661 71.5833 54.0661Z" fill="white"/>
<path d="M56.5789 19.7243C57.123 19.7243 57.564 19.2823 57.564 18.7371C57.564 18.192 57.123 17.75 56.5789 17.75C56.0348 17.75 55.5938 18.192 55.5938 18.7371C55.5938 19.2823 56.0348 19.7243 56.5789 19.7243Z" fill="white"/>
<path d="M57.1927 69.0426C57.7368 69.0426 58.1778 68.6007 58.1778 68.0555C58.1778 67.5103 57.7368 67.0684 57.1927 67.0684C56.6486 67.0684 56.2075 67.5103 56.2075 68.0555C56.2075 68.6007 56.6486 69.0426 57.1927 69.0426Z" fill="url(#paint0_linear_703_1603)"/>
<path d="M48.1448 43.4001C48.6889 43.4001 49.13 42.9581 49.13 42.4129C49.13 41.8677 48.6889 41.4258 48.1448 41.4258C47.6007 41.4258 47.1597 41.8677 47.1597 42.4129C47.1597 42.9581 47.6007 43.4001 48.1448 43.4001Z" fill="white"/>
</g>
<defs>
<linearGradient id="paint0_linear_703_1603" x1="56.2079" y1="68.0552" x2="58.1783" y2="68.0552" gradientUnits="userSpaceOnUse">
<stop stop-color="#302655"/>
<stop offset="1" stop-color="#895070" stop-opacity="0.8"/>
</linearGradient>
<clipPath id="clip0_703_1603">
<rect width="98" height="97" fill="white"/>
</clipPath>
</defs>
</svg>
