<svg width="512" height="378" viewBox="0 0 512 378" fill="none" xmlns="http://www.w3.org/2000/svg">
<g clip-path="url(#clip0_703_1638)">
<path d="M492.593 324.929C491.168 324.924 489.768 324.546 488.534 323.832L474.854 315.934C474.466 315.712 474.143 315.392 473.919 315.006C473.695 314.62 473.577 314.181 473.577 313.735C473.577 313.288 473.695 312.849 473.919 312.463C474.143 312.077 474.466 311.757 474.854 311.535L488.534 303.637C489.775 302.92 491.183 302.543 492.616 302.543C494.049 302.543 495.457 302.92 496.698 303.637L510.344 311.5C510.732 311.722 511.054 312.042 511.278 312.428C511.503 312.814 511.621 313.253 511.621 313.7C511.621 314.146 511.503 314.585 511.278 314.971C511.054 315.357 510.732 315.677 510.344 315.899L496.663 323.797C495.429 324.525 494.025 324.915 492.593 324.929ZM492.593 304.722C491.549 304.718 490.522 304.992 489.619 305.515L475.938 313.414C475.88 313.446 475.832 313.493 475.799 313.551C475.766 313.609 475.75 313.674 475.752 313.74C475.752 313.805 475.769 313.868 475.802 313.923C475.835 313.979 475.882 314.024 475.938 314.055L489.619 322C490.525 322.523 491.553 322.797 492.599 322.797C493.645 322.797 494.672 322.523 495.579 322L509.259 314.102C509.315 314.071 509.362 314.025 509.395 313.97C509.428 313.915 509.446 313.851 509.446 313.787C509.448 313.721 509.431 313.655 509.398 313.598C509.365 313.54 509.317 313.493 509.259 313.46L495.579 305.562C494.676 305.021 493.645 304.731 492.593 304.722Z" fill="#5C3D9E"/>
<path d="M453.452 280.059C451.135 280.062 448.858 279.455 446.851 278.297L423.292 264.694C422.75 264.377 422.3 263.924 421.988 263.38C421.675 262.835 421.511 262.218 421.511 261.59C421.511 260.963 421.675 260.346 421.988 259.801C422.3 259.257 422.75 258.804 423.292 258.487L446.851 244.884C448.858 243.731 451.132 243.125 453.446 243.125C455.761 243.125 458.035 243.731 460.042 244.884L483.601 258.487C484.146 258.801 484.598 259.254 484.913 259.798C485.228 260.343 485.394 260.961 485.394 261.59C485.394 262.22 485.228 262.838 484.913 263.383C484.598 263.927 484.146 264.38 483.601 264.694L460.042 278.297C458.039 279.455 455.765 280.062 453.452 280.059ZM447.936 276.419C449.613 277.382 451.513 277.889 453.446 277.889C455.38 277.889 457.28 277.382 458.957 276.419L482.516 262.815C482.725 262.699 482.899 262.53 483.022 262.326C483.144 262.121 483.211 261.887 483.216 261.649C483.213 261.41 483.146 261.176 483.023 260.971C482.9 260.766 482.725 260.597 482.516 260.482L458.957 246.867C457.28 245.904 455.38 245.397 453.446 245.397C451.513 245.397 449.613 245.904 447.936 246.867L424.377 260.482C424.169 260.599 423.995 260.768 423.873 260.973C423.75 261.177 423.683 261.41 423.677 261.649C423.685 261.887 423.753 262.119 423.876 262.323C423.998 262.527 424.17 262.697 424.377 262.815L447.936 276.419Z" fill="#5C3D9E"/>
<path d="M32.1545 301.478C29.8419 301.476 27.5701 300.869 25.5649 299.716L2.00594 286.101C1.46366 285.786 1.01356 285.334 0.700686 284.791C0.387814 284.247 0.223145 283.631 0.223145 283.004C0.223145 282.377 0.387814 281.76 0.700686 281.217C1.01356 280.673 1.46366 280.221 2.00594 279.906L25.5649 266.303C27.5702 265.145 29.8448 264.535 32.1603 264.535C34.4757 264.535 36.7504 265.145 38.7556 266.303L62.3146 279.906C62.8569 280.221 63.307 280.673 63.6199 281.217C63.9328 281.76 64.0974 282.377 64.0974 283.004C64.0974 283.631 63.9328 284.247 63.6199 284.791C63.307 285.334 62.8569 285.786 62.3146 286.101L38.7556 299.716C36.7468 300.87 34.4709 301.478 32.1545 301.478ZM32.1545 266.711C30.2225 266.711 28.3242 267.218 26.6496 268.181L3.09059 281.785C2.87347 281.906 2.69354 282.084 2.57021 282.3C2.44689 282.516 2.38486 282.761 2.39082 283.01C2.3941 283.249 2.46058 283.482 2.58349 283.687C2.7064 283.892 2.88136 284.061 3.09059 284.176L26.6496 297.78C28.3247 298.748 30.2254 299.258 32.1603 299.258C34.0952 299.258 35.9959 298.748 37.671 297.78L61.23 284.176C61.4377 284.059 61.6113 283.89 61.734 283.685C61.8567 283.481 61.9241 283.248 61.9298 283.01C61.9332 282.761 61.8701 282.517 61.747 282.302C61.624 282.086 61.4454 281.908 61.23 281.785L37.671 268.181C35.9927 267.216 34.0903 266.709 32.1545 266.711Z" fill="#5C3D9E"/>
<path opacity="0.6" d="M270.718 360.826L102.272 263.538C99.8108 262.126 100.126 259.653 102.96 258.008L211.098 195.568C213.932 193.935 218.212 193.76 220.673 195.171L389.12 292.46C391.569 293.883 391.266 296.356 388.432 297.99L280.317 360.43C277.46 362.063 273.179 362.25 270.718 360.826Z" fill="#020230"/>
<path d="M274.579 378.397C272.733 378.439 270.906 378.01 269.273 377.148L77.0335 266.117C76.35 265.78 75.7682 265.268 75.3481 264.633C74.9279 263.997 74.6844 263.261 74.6426 262.5C74.6426 260.808 75.8089 259.163 77.8615 257.985L208.906 181.183C212.509 179.107 217.781 178.85 220.93 180.717L413.134 291.667C413.836 292.004 414.433 292.524 414.862 293.173C415.291 293.823 415.536 294.576 415.572 295.353C415.572 297.033 414.405 298.678 412.353 299.868L281.297 376.694C279.239 377.824 276.927 378.411 274.579 378.397ZM215.612 181.603C213.639 181.58 211.693 182.058 209.955 182.992L78.9112 259.805C77.5583 260.575 76.7652 261.555 76.7652 262.43C76.8193 262.821 76.9717 263.193 77.2084 263.509C77.445 263.825 77.758 264.076 78.1181 264.238L270.357 375.27C272.806 376.694 277.355 376.437 280.201 374.815L411.245 298.013C412.586 297.232 413.391 296.252 413.391 295.377C413.337 294.985 413.184 294.614 412.948 294.298C412.711 293.982 412.398 293.731 412.038 293.568L219.799 182.548C218.507 181.879 217.065 181.554 215.612 181.603Z" fill="#5C3D9E"/>
<path d="M433.859 129.36L266.065 32.4563C265.558 32.1434 264.992 31.9385 264.402 31.8542C263.812 31.7699 263.211 31.808 262.636 31.9663L259.522 33.0396L260.618 33.308C260.147 33.8676 259.798 34.5192 259.592 35.2213L221.594 158.468C221.149 159.998 221.208 161.631 221.763 163.125C222.317 164.619 223.338 165.894 224.674 166.763L392.502 263.666C392.889 263.89 393.305 264.059 393.738 264.168L393.319 265.078L396.281 264.028C396.941 263.747 397.527 263.318 397.995 262.774C398.462 262.229 398.797 261.585 398.975 260.89L436.926 137.666C437.37 136.136 437.311 134.503 436.759 133.008C436.207 131.513 435.19 130.234 433.859 129.36Z" fill="#8C8C8C"/>
<path d="M386.496 268.263L386.554 268.333L220.825 172.667C218.387 171.267 214.13 171.442 211.319 173.063L104.243 234.897L100.674 233.532L101.665 238.537C101.767 238.97 101.964 239.375 102.243 239.722C102.521 240.069 102.874 240.35 103.275 240.543L270.579 337.167C273.016 338.578 277.273 338.392 280.084 336.77L387.44 274.773C387.983 274.514 388.465 274.145 388.856 273.689C389.248 273.233 389.54 272.7 389.715 272.125L390.706 267.167L386.496 268.263Z" fill="#5F5F5F"/>
<path d="M270.718 332.698L102.272 235.41C99.8108 233.998 100.126 231.513 102.96 229.88L211.098 167.44C213.932 165.807 218.212 165.632 220.673 167.043L389.12 264.332C391.569 265.755 391.266 268.228 388.432 269.862L280.317 332.302C277.46 333.935 273.179 334.122 270.718 332.698Z" fill="#8C8C8C"/>
<path d="M388.374 268.555L280.259 330.995C277.425 332.628 273.145 332.803 270.684 331.392L102.272 234.104C101.557 233.738 101.01 233.112 100.744 232.354C100.592 232.962 100.662 233.604 100.943 234.165C101.223 234.725 101.694 235.167 102.272 235.41L270.719 332.699C273.18 334.122 277.46 333.935 280.294 332.302L388.374 269.862C390.24 268.788 390.986 267.342 390.59 266.082C390.196 267.16 389.403 268.046 388.374 268.555Z" fill="white"/>
<g opacity="0.4">
<path d="M182.617 219.626L176.937 216.347C176.471 216.079 176.529 215.612 177.054 215.309L183.772 211.436C184.043 211.284 184.346 211.199 184.656 211.187C184.966 211.175 185.274 211.236 185.556 211.366L191.271 214.667C191.738 214.936 191.679 215.391 191.143 215.694L184.437 219.579C184.159 219.733 183.849 219.817 183.533 219.825C183.216 219.833 182.902 219.765 182.617 219.626Z" fill="#06033E"/>
<path d="M191.399 224.7L185.72 221.41C185.253 221.153 185.311 220.687 185.848 220.383L192.554 216.51C192.825 216.359 193.128 216.273 193.438 216.261C193.748 216.249 194.056 216.31 194.338 216.44L200.018 219.718C200.485 219.987 200.426 220.442 199.89 220.745L193.184 224.63C192.912 224.779 192.609 224.862 192.3 224.875C191.99 224.887 191.682 224.827 191.399 224.7Z" fill="#06033E"/>
<path d="M200.182 229.834L194.502 226.544C194.035 226.287 194.094 225.82 194.63 225.517L201.336 221.644C201.607 221.494 201.909 221.409 202.219 221.395C202.528 221.381 202.837 221.438 203.121 221.562L208.8 224.852C209.267 225.109 209.209 225.575 208.672 225.879L201.966 229.752C201.695 229.902 201.393 229.987 201.083 230.001C200.774 230.015 200.465 229.958 200.182 229.834Z" fill="#06033E"/>
<path d="M212.334 225.588L206.643 222.298C206.188 222.029 206.246 221.574 206.771 221.271L212.404 218.016C212.675 217.865 212.978 217.779 213.288 217.767C213.598 217.755 213.907 217.816 214.189 217.946L219.88 221.224C220.335 221.493 220.277 221.948 219.752 222.251L214.107 225.506C213.838 225.655 213.538 225.741 213.23 225.755C212.923 225.769 212.616 225.712 212.334 225.588Z" fill="#06033E"/>
<path d="M221.116 230.65L215.425 227.372C214.97 227.103 215.028 226.648 215.553 226.345L221.186 223.09C221.457 222.94 221.759 222.855 222.069 222.841C222.378 222.827 222.687 222.884 222.971 223.008L228.662 226.298C229.117 226.555 229.059 227.022 228.534 227.325L222.889 230.58C222.62 230.731 222.319 230.817 222.011 230.829C221.703 230.841 221.396 230.78 221.116 230.65Z" fill="#06033E"/>
<path d="M229.898 235.725L224.207 232.447C223.752 232.178 223.81 231.712 224.335 231.408L229.968 228.153C230.24 228.005 230.543 227.921 230.852 227.909C231.162 227.897 231.47 227.956 231.753 228.083L237.444 231.373C237.899 231.63 237.841 232.097 237.316 232.4L231.671 235.667C231.401 235.816 231.1 235.899 230.792 235.909C230.484 235.92 230.177 235.856 229.898 235.725Z" fill="#06033E"/>
<path d="M238.681 240.8L232.989 237.51C232.534 237.254 232.593 236.787 233.117 236.484L238.751 233.229C239.022 233.077 239.324 232.992 239.634 232.98C239.945 232.968 240.253 233.029 240.535 233.159L246.227 236.437C246.681 236.705 246.623 237.16 246.098 237.475L240.453 240.73C240.184 240.879 239.883 240.963 239.575 240.975C239.268 240.987 238.961 240.927 238.681 240.8Z" fill="#06033E"/>
<path d="M247.463 245.876L241.771 242.586C241.317 242.329 241.375 241.862 241.9 241.559L247.533 238.304C247.804 238.153 248.107 238.067 248.417 238.055C248.727 238.043 249.035 238.104 249.317 238.234L255.009 241.512C255.464 241.781 255.405 242.236 254.88 242.539L249.247 245.794C248.976 245.944 248.674 246.029 248.365 246.043C248.055 246.057 247.747 246 247.463 245.876Z" fill="#06033E"/>
<path d="M256.245 250.939L250.554 247.661C250.099 247.393 250.157 246.938 250.682 246.634L256.315 243.379C256.586 243.229 256.888 243.144 257.198 243.13C257.507 243.116 257.816 243.173 258.1 243.298L263.791 246.588C264.246 246.856 264.188 247.311 263.663 247.614L258.03 250.834C257.761 250.991 257.46 251.082 257.15 251.101C256.84 251.119 256.53 251.064 256.245 250.939Z" fill="#06033E"/>
<path d="M265.027 256.014L259.335 252.736C258.881 252.467 258.939 252.012 259.464 251.697L265.097 248.501C265.369 248.353 265.671 248.27 265.981 248.257C266.29 248.245 266.598 248.305 266.881 248.431L272.573 251.721C273.028 251.977 272.969 252.444 272.444 252.747L266.811 256.002C266.536 256.145 266.231 256.22 265.92 256.222C265.61 256.224 265.304 256.153 265.027 256.014Z" fill="#06033E"/>
<path d="M273.809 261.089L268.118 257.834C267.663 257.577 267.721 257.11 268.246 256.807L273.879 253.552C274.15 253.401 274.453 253.315 274.763 253.303C275.073 253.291 275.382 253.352 275.663 253.482L281.355 256.76C281.81 257.029 281.751 257.495 281.227 257.799L275.593 261.054C275.32 261.2 275.016 261.279 274.705 261.285C274.395 261.291 274.088 261.224 273.809 261.089Z" fill="#06033E"/>
<path d="M282.591 266.164L276.9 262.874C276.445 262.617 276.503 262.15 277.028 261.847L282.661 258.592C282.932 258.441 283.235 258.355 283.545 258.343C283.855 258.331 284.164 258.392 284.446 258.522L290.137 261.8C290.592 262.069 290.534 262.524 290.009 262.827L284.376 266.082C284.104 266.232 283.802 266.317 283.493 266.331C283.184 266.345 282.875 266.288 282.591 266.164Z" fill="#06033E"/>
<path d="M291.373 271.227L285.74 267.949C285.285 267.681 285.344 267.226 285.868 266.922L291.502 263.667C291.773 263.518 292.075 263.432 292.384 263.418C292.694 263.404 293.002 263.461 293.286 263.586L298.978 266.876C299.432 267.144 299.374 267.599 298.849 267.902L293.216 271.157C292.938 271.318 292.625 271.409 292.303 271.421C291.982 271.433 291.663 271.367 291.373 271.227Z" fill="#06033E"/>
<path d="M225.268 223.184L219.589 219.894C219.122 219.637 219.18 219.171 219.717 218.867L225.35 215.612C225.619 215.461 225.92 215.376 226.228 215.364C226.536 215.352 226.843 215.413 227.123 215.542L232.814 218.821C233.269 219.089 233.211 219.544 232.686 219.847L227.053 223.102C226.783 223.255 226.48 223.342 226.17 223.356C225.86 223.37 225.552 223.311 225.268 223.184Z" fill="#06033E"/>
<path d="M216.358 218.039L210.666 214.749C210.212 214.48 210.27 214.025 210.795 213.722L216.428 210.467C216.699 210.316 217.002 210.23 217.312 210.218C217.622 210.206 217.93 210.267 218.212 210.397L223.904 213.675C224.359 213.944 224.3 214.399 223.775 214.702L218.096 217.957C217.83 218.099 217.537 218.181 217.236 218.195C216.935 218.209 216.635 218.156 216.358 218.039Z" fill="#06033E"/>
<path d="M207.424 212.882L195.178 205.8C194.723 205.544 194.782 205.077 195.306 204.774L200.94 201.519C201.211 201.367 201.513 201.282 201.823 201.27C202.134 201.258 202.442 201.319 202.724 201.449L214.97 208.519C215.425 208.787 215.378 209.242 214.842 209.545L209.209 212.8C208.937 212.95 208.635 213.035 208.326 213.05C208.016 213.064 207.708 213.006 207.424 212.882Z" fill="#06033E"/>
<path d="M213.675 206.606L203.727 200.866C203.272 200.598 203.33 200.143 203.855 199.839L209.488 196.584C209.759 196.433 210.062 196.348 210.372 196.335C210.682 196.323 210.991 196.385 211.273 196.514L221.21 202.254C221.676 202.511 221.618 202.978 221.081 203.281L215.448 206.501C215.182 206.658 214.883 206.749 214.574 206.767C214.266 206.786 213.958 206.73 213.675 206.606Z" fill="#06033E"/>
<path d="M234.051 228.258L228.371 224.968C227.904 224.7 227.963 224.245 228.499 223.942L234.132 220.687C234.401 220.535 234.702 220.45 235.01 220.438C235.319 220.426 235.625 220.487 235.905 220.617L241.597 223.895C242.051 224.163 241.993 224.618 241.468 224.922L235.835 228.177C235.564 228.326 235.262 228.412 234.952 228.426C234.643 228.44 234.334 228.383 234.051 228.258Z" fill="#06033E"/>
<path d="M242.832 233.334L237.153 230.055C236.686 229.787 236.744 229.332 237.281 229.029L242.914 225.774C243.183 225.624 243.483 225.539 243.791 225.525C244.098 225.51 244.405 225.568 244.687 225.692L250.378 228.982C250.833 229.239 250.775 229.705 250.25 230.009L244.617 233.264C244.346 233.415 244.043 233.5 243.733 233.512C243.423 233.524 243.114 233.463 242.832 233.334Z" fill="#06033E"/>
<path d="M251.615 238.397L245.935 235.119C245.48 234.85 245.527 234.384 246.063 234.08L251.696 230.825C251.967 230.674 252.27 230.589 252.58 230.577C252.89 230.565 253.199 230.626 253.481 230.755L259.161 234.045C259.616 234.302 259.557 234.769 259.032 235.072L253.399 238.327C253.128 238.478 252.825 238.564 252.515 238.576C252.205 238.588 251.897 238.527 251.615 238.397Z" fill="#06033E"/>
<path d="M260.397 243.472L254.717 240.182C254.262 239.926 254.309 239.459 254.846 239.156L260.479 235.901C260.75 235.749 261.052 235.664 261.363 235.652C261.673 235.64 261.981 235.701 262.263 235.831L267.943 239.109C268.398 239.377 268.339 239.832 267.815 240.147L262.181 243.391C261.911 243.543 261.609 243.63 261.299 243.644C260.989 243.658 260.68 243.599 260.397 243.472Z" fill="#06033E"/>
<path d="M269.179 248.501L263.499 245.211C263.045 244.942 263.091 244.487 263.628 244.184L269.261 240.929C269.532 240.778 269.835 240.692 270.145 240.68C270.455 240.668 270.763 240.729 271.045 240.859L276.725 244.137C277.18 244.406 277.122 244.861 276.597 245.164L270.964 248.501C270.686 248.638 270.381 248.709 270.071 248.709C269.762 248.709 269.457 248.638 269.179 248.501Z" fill="#06033E"/>
<path d="M277.961 253.61L272.281 250.332C271.826 250.063 271.873 249.608 272.41 249.305L278.043 246.05C278.314 245.9 278.616 245.815 278.925 245.801C279.235 245.787 279.543 245.844 279.827 245.968L285.507 249.258C285.962 249.515 285.903 249.982 285.379 250.285L279.745 253.54C279.474 253.691 279.172 253.777 278.862 253.789C278.552 253.801 278.243 253.74 277.961 253.61Z" fill="#06033E"/>
<path d="M286.743 258.685L281.075 255.407C280.62 255.139 280.679 254.672 281.203 254.369L286.837 251.114C287.108 250.962 287.41 250.877 287.72 250.865C288.03 250.853 288.339 250.914 288.621 251.044L294.301 254.334C294.756 254.59 294.697 255.057 294.173 255.36L288.539 258.615C288.267 258.769 287.962 258.855 287.65 258.867C287.337 258.879 287.027 258.817 286.743 258.685Z" fill="#06033E"/>
<path d="M295.525 263.76L289.846 260.47C289.391 260.214 289.449 259.747 289.974 259.444L295.607 256.189C295.878 256.037 296.181 255.952 296.491 255.94C296.801 255.928 297.11 255.989 297.391 256.119L303.071 259.397C303.526 259.665 303.48 260.12 302.943 260.435L297.31 263.667C297.04 263.82 296.738 263.907 296.429 263.923C296.119 263.94 295.81 263.884 295.525 263.76Z" fill="#06033E"/>
<path d="M304.308 268.836L298.628 265.546C298.173 265.277 298.231 264.822 298.756 264.519L304.389 261.264C304.66 261.113 304.963 261.027 305.273 261.015C305.583 261.003 305.892 261.064 306.174 261.194L311.854 264.472C312.308 264.741 312.262 265.196 311.725 265.499L306.092 268.754C305.821 268.904 305.519 268.989 305.209 269.003C304.9 269.017 304.591 268.96 304.308 268.836Z" fill="#06033E"/>
<path d="M319.924 277.853L307.515 270.667C307.06 270.41 307.119 269.943 307.643 269.64L313.276 266.385C313.547 266.234 313.85 266.148 314.16 266.136C314.47 266.124 314.779 266.185 315.061 266.315L327.47 273.478C327.925 273.747 327.867 274.202 327.342 274.505L321.709 277.76C321.438 277.912 321.137 277.999 320.827 278.015C320.518 278.031 320.209 277.976 319.924 277.853Z" fill="#06033E"/>
<path d="M337.057 267.972L326.56 261.929C326.106 261.66 326.164 261.205 326.689 260.89L332.322 257.635C332.594 257.488 332.897 257.404 333.206 257.392C333.515 257.38 333.823 257.439 334.106 257.565L344.603 263.62C345.058 263.877 344.999 264.344 344.475 264.647L338.841 267.902C338.571 268.053 338.268 268.139 337.958 268.151C337.648 268.163 337.339 268.102 337.057 267.972Z" fill="#06033E"/>
<path d="M249.434 227.256L243.754 224.001C243.299 223.732 243.357 223.277 243.882 222.974L249.515 219.719C249.787 219.569 250.089 219.484 250.398 219.47C250.707 219.456 251.016 219.513 251.3 219.637L256.991 222.927C257.446 223.196 257.388 223.651 256.863 223.954L251.23 227.209C250.955 227.359 250.65 227.441 250.337 227.449C250.025 227.457 249.715 227.391 249.434 227.256Z" fill="#06033E"/>
<path d="M240.43 222.064L234.75 218.774C234.284 218.517 234.342 218.051 234.879 217.747L240.512 214.492C240.781 214.341 241.081 214.256 241.39 214.244C241.698 214.232 242.005 214.293 242.284 214.422L247.976 217.701C248.431 217.969 248.373 218.436 247.848 218.739L242.215 221.994C241.943 222.143 241.64 222.226 241.331 222.239C241.021 222.251 240.713 222.191 240.43 222.064Z" fill="#06033E"/>
<path d="M231.426 216.86L225.746 213.582C225.292 213.313 225.35 212.858 225.875 212.555L231.508 209.3C231.779 209.15 232.081 209.065 232.391 209.051C232.7 209.037 233.009 209.094 233.292 209.218L238.972 212.508C239.427 212.765 239.38 213.232 238.844 213.535L233.257 216.79C232.981 216.949 232.669 217.039 232.35 217.051C232.032 217.063 231.714 216.998 231.426 216.86Z" fill="#06033E"/>
<path d="M222.434 211.669L216.743 208.379C216.288 208.122 216.346 207.655 216.871 207.352L222.504 204.097C222.775 203.946 223.078 203.86 223.388 203.848C223.698 203.836 224.007 203.897 224.288 204.027L229.98 207.305C230.435 207.574 230.376 208.029 229.852 208.332L224.207 211.587C223.938 211.737 223.638 211.822 223.33 211.836C223.022 211.85 222.716 211.793 222.434 211.669Z" fill="#06033E"/>
<path d="M258.216 232.33L252.524 229.052C252.069 228.783 252.128 228.328 252.653 228.025L258.286 224.77C258.556 224.618 258.858 224.531 259.168 224.517C259.478 224.503 259.787 224.561 260.07 224.688L265.762 227.978C266.217 228.235 266.158 228.702 265.633 229.005L260 232.26C259.729 232.411 259.426 232.497 259.116 232.509C258.806 232.521 258.498 232.46 258.216 232.33Z" fill="#06033E"/>
<path d="M266.998 237.406L261.307 234.116C260.852 233.859 260.91 233.393 261.435 233.089L267.08 229.834C267.351 229.683 267.653 229.598 267.964 229.585C268.274 229.573 268.582 229.635 268.864 229.764L274.556 233.054C275.01 233.311 274.952 233.778 274.427 234.081L268.794 237.336C268.522 237.489 268.217 237.575 267.905 237.588C267.592 237.6 267.282 237.538 266.998 237.406Z" fill="#06033E"/>
<path d="M275.78 242.481L270.089 239.168C269.634 238.911 269.692 238.444 270.217 238.141L275.862 234.886C276.131 234.735 276.432 234.649 276.74 234.637C277.048 234.625 277.355 234.686 277.635 234.816L283.326 238.094C283.781 238.363 283.723 238.818 283.198 239.121L277.576 242.399C277.305 242.553 277 242.641 276.688 242.655C276.376 242.67 276.065 242.61 275.78 242.481Z" fill="#06033E"/>
<path d="M284.574 247.555L278.883 244.265C278.428 243.997 278.486 243.542 279.011 243.239L284.656 239.984C284.925 239.832 285.226 239.747 285.534 239.735C285.842 239.723 286.149 239.784 286.429 239.914L292.12 243.192C292.575 243.46 292.517 243.915 291.992 244.219L286.359 247.474C286.087 247.623 285.785 247.709 285.476 247.723C285.166 247.737 284.858 247.68 284.574 247.555Z" fill="#06033E"/>
<path d="M293.345 252.618L287.653 249.34C287.198 249.072 287.257 248.617 287.782 248.313L293.426 245.058C293.694 244.905 293.995 244.818 294.303 244.804C294.611 244.79 294.918 244.849 295.199 244.977L300.902 248.267C301.357 248.523 301.299 248.99 300.774 249.293L295.141 252.548C294.868 252.702 294.563 252.788 294.251 252.8C293.939 252.812 293.628 252.75 293.345 252.618Z" fill="#06033E"/>
<path d="M302.126 257.694L296.435 254.404C295.98 254.147 296.038 253.681 296.563 253.377L302.208 250.122C302.477 249.971 302.778 249.886 303.086 249.874C303.394 249.861 303.701 249.923 303.981 250.052L309.672 253.342C310.127 253.599 310.069 254.066 309.544 254.369L303.911 257.624C303.64 257.775 303.337 257.86 303.027 257.873C302.717 257.885 302.408 257.824 302.126 257.694Z" fill="#06033E"/>
<path d="M310.909 262.769L305.217 259.479C304.762 259.222 304.821 258.756 305.345 258.452L310.99 255.197C311.259 255.046 311.56 254.961 311.868 254.949C312.176 254.937 312.483 254.998 312.763 255.127L318.455 258.406C318.909 258.674 318.851 259.129 318.326 259.444L312.693 262.687C312.423 262.84 312.121 262.926 311.811 262.941C311.501 262.955 311.192 262.896 310.909 262.769Z" fill="#06033E"/>
<path d="M319.691 267.843L314.011 264.553C313.545 264.285 313.603 263.83 314.128 263.527L319.773 260.272C320.041 260.12 320.342 260.035 320.651 260.023C320.959 260.011 321.265 260.072 321.545 260.202L327.237 263.48C327.692 263.748 327.633 264.203 327.109 264.507L321.475 267.762C321.204 267.911 320.902 267.997 320.593 268.011C320.283 268.025 319.975 267.968 319.691 267.843Z" fill="#06033E"/>
<path d="M328.473 272.907L322.793 269.628C322.327 269.36 322.385 268.905 322.922 268.602L328.555 265.347C328.824 265.197 329.124 265.112 329.432 265.098C329.739 265.084 330.046 265.141 330.327 265.265L336.019 268.555C336.474 268.812 336.415 269.278 335.891 269.582L330.258 272.837C329.987 272.988 329.684 273.073 329.374 273.086C329.064 273.098 328.755 273.036 328.473 272.907Z" fill="#06033E"/>
<path d="M244.804 214.667L239.089 211.435C238.634 211.167 238.692 210.7 239.217 210.397L244.85 207.142C245.122 206.993 245.425 206.909 245.734 206.897C246.044 206.885 246.352 206.945 246.635 207.072L252.314 210.362C252.769 210.618 252.723 211.085 252.186 211.388L246.588 214.667C246.312 214.807 246.006 214.88 245.696 214.88C245.386 214.88 245.08 214.807 244.804 214.667Z" fill="#06033E"/>
<path d="M236.068 209.673L230.389 206.383C229.922 206.115 229.98 205.66 230.505 205.357L236.15 202.102C236.419 201.95 236.72 201.865 237.028 201.853C237.336 201.841 237.643 201.902 237.923 202.032L243.614 205.31C244.069 205.578 244.011 206.033 243.486 206.337L237.853 209.592C237.582 209.741 237.28 209.827 236.97 209.841C236.661 209.855 236.352 209.798 236.068 209.673Z" fill="#06033E"/>
<path d="M227.333 204.622L221.595 201.332C221.14 201.075 221.198 200.608 221.723 200.305L227.426 197.05C227.697 196.899 228 196.813 228.31 196.801C228.62 196.789 228.929 196.85 229.211 196.98L234.902 200.258C235.357 200.527 235.299 200.993 234.774 201.297L229.141 204.552C228.867 204.707 228.56 204.794 228.245 204.806C227.931 204.819 227.618 204.755 227.333 204.622Z" fill="#06033E"/>
<path d="M218.597 199.57L212.906 196.292C212.451 196.023 212.509 195.568 213.034 195.265L218.667 192.01C218.938 191.86 219.24 191.775 219.55 191.761C219.859 191.747 220.168 191.804 220.452 191.928L226.131 195.218C226.598 195.475 226.54 195.942 226.003 196.245L220.428 199.5C220.152 199.661 219.841 199.752 219.521 199.764C219.202 199.776 218.885 199.71 218.597 199.57Z" fill="#06033E"/>
<path d="M227.578 194.379L221.886 191.1C221.431 190.832 221.49 190.377 222.014 190.074L223.927 189C224.197 188.848 224.5 188.761 224.81 188.747C225.12 188.733 225.428 188.792 225.712 188.919L231.391 192.209C231.858 192.465 231.8 192.932 231.275 193.235L229.409 194.309C229.132 194.468 228.821 194.557 228.502 194.57C228.183 194.582 227.866 194.516 227.578 194.379Z" fill="#06033E"/>
<path d="M238.984 200.97L233.257 197.68C232.802 197.424 232.861 196.957 233.386 196.654L235.252 195.58C235.523 195.429 235.825 195.344 236.135 195.332C236.445 195.319 236.754 195.381 237.036 195.51L242.716 198.789C243.171 199.057 243.124 199.512 242.588 199.815L240.733 200.9C240.467 201.046 240.17 201.128 239.867 201.14C239.563 201.152 239.261 201.094 238.984 200.97Z" fill="#06033E"/>
<path d="M247.685 205.999L241.993 202.709C241.538 202.452 241.597 201.985 242.121 201.682L243.987 200.609C244.258 200.457 244.561 200.372 244.871 200.36C245.181 200.348 245.49 200.409 245.772 200.539L251.452 203.817C251.918 204.085 251.86 204.54 251.335 204.844L249.469 205.917C249.199 206.069 248.896 206.156 248.587 206.17C248.277 206.184 247.968 206.126 247.685 205.999Z" fill="#06033E"/>
<path d="M256.385 211.027L250.752 207.737C250.285 207.469 250.344 207.014 250.88 206.71L252.734 205.637C253.006 205.487 253.308 205.402 253.617 205.388C253.927 205.374 254.235 205.431 254.519 205.555L260.21 208.845C260.665 209.102 260.607 209.569 260.082 209.872L258.216 210.945C257.939 211.103 257.629 211.192 257.31 211.206C256.992 211.22 256.675 211.159 256.385 211.027Z" fill="#06033E"/>
<path d="M265.086 216.044L259.406 212.766C258.951 212.497 258.998 212.042 259.534 211.739L261.388 210.654C261.661 210.506 261.963 210.423 262.272 210.411C262.582 210.399 262.89 210.458 263.173 210.584L268.864 213.874C269.319 214.131 269.261 214.597 268.736 214.901L266.87 215.974C266.599 216.125 266.296 216.211 265.986 216.223C265.676 216.235 265.367 216.174 265.086 216.044Z" fill="#06033E"/>
<path d="M313.731 244.102L308.04 240.824C307.585 240.556 307.643 240.101 308.168 239.797L310.034 238.724C310.305 238.572 310.607 238.485 310.917 238.471C311.227 238.457 311.536 238.515 311.819 238.642L317.499 241.932C317.965 242.189 317.907 242.656 317.37 242.959L315.516 244.032C315.245 244.184 314.942 244.269 314.632 244.281C314.322 244.293 314.013 244.232 313.731 244.102Z" fill="#06033E"/>
<path d="M322.373 249.13L316.694 245.852C316.227 245.584 316.285 245.129 316.822 244.826L318.676 243.74C318.947 243.589 319.25 243.504 319.56 243.492C319.87 243.48 320.179 243.541 320.461 243.67L326.152 246.96C326.607 247.217 326.549 247.684 326.024 247.987L324.158 249.06C323.887 249.212 323.584 249.297 323.274 249.309C322.964 249.321 322.655 249.26 322.373 249.13Z" fill="#06033E"/>
<path d="M331.074 254.159L325.394 250.834C324.939 250.565 324.986 250.099 325.522 249.795L327.377 248.722C327.648 248.571 327.95 248.485 328.261 248.473C328.571 248.461 328.879 248.522 329.161 248.652L334.853 251.93C335.307 252.199 335.249 252.654 334.724 252.957L332.858 254.042C332.591 254.201 332.29 254.294 331.98 254.314C331.67 254.335 331.359 254.281 331.074 254.159Z" fill="#06033E"/>
<path d="M339.786 259.187L334.095 255.897C333.64 255.64 333.698 255.174 334.223 254.87L336.089 253.797C336.358 253.646 336.659 253.561 336.967 253.548C337.275 253.536 337.582 253.597 337.862 253.727L343.553 257.005C344.008 257.274 343.95 257.729 343.425 258.032L341.559 259.117C341.289 259.266 340.988 259.349 340.681 259.361C340.373 259.374 340.067 259.314 339.786 259.187Z" fill="#06033E"/>
<path d="M253.586 219.789L247.906 216.499C247.451 216.242 247.51 215.775 248.034 215.472L253.668 212.217C253.939 212.066 254.241 211.98 254.551 211.968C254.862 211.956 255.17 212.017 255.452 212.147L261.132 215.425C261.587 215.694 261.54 216.149 261.004 216.464L255.417 219.719C255.139 219.875 254.828 219.963 254.51 219.975C254.192 219.987 253.875 219.923 253.586 219.789Z" fill="#06033E"/>
<path d="M262.415 224.864L256.735 221.574C256.28 221.306 256.338 220.851 256.863 220.547L262.496 217.292C262.767 217.141 263.07 217.056 263.38 217.044C263.69 217.031 263.999 217.093 264.281 217.222L269.96 220.501C270.415 220.769 270.369 221.224 269.832 221.527L264.199 224.782C263.928 224.932 263.626 225.017 263.316 225.031C263.007 225.046 262.698 224.988 262.415 224.864Z" fill="#06033E"/>
<path d="M271.15 229.927L265.47 226.649C265.015 226.381 265.074 225.926 265.598 225.622L271.232 222.367C271.503 222.218 271.805 222.132 272.114 222.118C272.424 222.104 272.732 222.161 273.016 222.286L278.696 225.576C279.162 225.844 279.104 226.299 278.568 226.602L272.911 229.834C272.645 229.985 272.347 230.073 272.042 230.089C271.736 230.105 271.431 230.05 271.15 229.927Z" fill="#06033E"/>
<path d="M279.909 235.002L274.217 231.724C273.762 231.456 273.821 231.001 274.346 230.686L279.979 227.431C280.25 227.282 280.553 227.198 280.863 227.186C281.172 227.174 281.48 227.234 281.763 227.361L287.443 230.651C287.909 230.907 287.851 231.374 287.315 231.677L281.681 234.932C281.413 235.084 281.112 235.169 280.804 235.181C280.495 235.193 280.189 235.132 279.909 235.002Z" fill="#06033E"/>
<path d="M288.726 240.077L283.035 236.834C282.58 236.577 282.638 236.11 283.163 235.807L288.796 232.552C289.067 232.401 289.37 232.315 289.68 232.303C289.99 232.291 290.299 232.352 290.58 232.482L296.237 235.667C296.703 235.935 296.645 236.402 296.109 236.705L290.475 239.96C290.213 240.115 289.918 240.206 289.615 240.227C289.311 240.247 289.006 240.196 288.726 240.077Z" fill="#06033E"/>
<path d="M297.508 245.152L291.817 241.862C291.362 241.605 291.42 241.139 291.945 240.835L297.578 237.58C297.849 237.429 298.152 237.344 298.462 237.332C298.772 237.319 299.081 237.381 299.363 237.51L305.042 240.789C305.509 241.057 305.451 241.512 304.914 241.815L299.281 245.07C299.012 245.22 298.712 245.305 298.404 245.319C298.097 245.333 297.79 245.276 297.508 245.152Z" fill="#06033E"/>
<path d="M306.291 250.216L300.599 246.937C300.144 246.669 300.203 246.214 300.727 245.911L306.36 242.656C306.632 242.506 306.934 242.421 307.243 242.406C307.553 242.392 307.861 242.45 308.145 242.574L313.825 245.864C314.291 246.132 314.233 246.587 313.696 246.891L308.063 250.146C307.794 250.297 307.494 250.382 307.185 250.394C306.877 250.406 306.57 250.345 306.291 250.216Z" fill="#06033E"/>
<path d="M315.072 255.291L309.381 252.001C308.926 251.733 308.984 251.278 309.509 250.963L315.142 247.719C315.413 247.567 315.715 247.48 316.025 247.466C316.335 247.452 316.644 247.511 316.927 247.638L322.606 250.928C323.073 251.184 323.015 251.651 322.49 251.954L316.845 255.209C316.577 255.362 316.277 255.45 315.968 255.464C315.66 255.478 315.353 255.419 315.072 255.291Z" fill="#06033E"/>
<path d="M323.854 260.366L318.163 257.076C317.708 256.819 317.766 256.353 318.291 256.049L323.924 252.794C324.195 252.643 324.498 252.558 324.808 252.545C325.118 252.533 325.427 252.595 325.709 252.724L331.4 256.003C331.855 256.271 331.797 256.738 331.272 257.041L325.627 260.296C325.358 260.447 325.058 260.532 324.749 260.545C324.441 260.557 324.134 260.495 323.854 260.366Z" fill="#06033E"/>
<path d="M203.377 220.419L186.606 210.735C186.151 210.479 186.209 210.012 186.734 209.709L192.437 206.5C192.708 206.349 193.011 206.264 193.321 206.252C193.631 206.239 193.94 206.301 194.222 206.43L210.97 216.102C211.424 216.37 211.366 216.825 210.841 217.129L205.208 220.384C204.927 220.533 204.615 220.615 204.297 220.621C203.979 220.627 203.663 220.558 203.377 220.419Z" fill="#06033E"/>
<path d="M311.27 282.731L294.522 273.059C294.068 272.791 294.126 272.324 294.651 272.021L300.284 268.766C300.555 268.615 300.858 268.529 301.168 268.517C301.478 268.505 301.786 268.566 302.068 268.696L318.816 278.368C319.271 278.636 319.213 279.091 318.688 279.394L313.055 282.649C312.783 282.799 312.481 282.884 312.172 282.898C311.863 282.913 311.554 282.855 311.27 282.731Z" fill="#06033E"/>
<path d="M276.153 273.642L270.462 270.364C270.007 270.096 270.065 269.641 270.59 269.337L277.308 265.452C277.579 265.301 277.882 265.216 278.192 265.204C278.502 265.191 278.81 265.253 279.092 265.382L284.772 268.672C285.227 268.929 285.169 269.396 284.644 269.699L277.938 273.572C277.667 273.724 277.364 273.809 277.054 273.821C276.744 273.833 276.435 273.772 276.153 273.642Z" fill="#06033E"/>
<path d="M212.369 236.834L203.284 231.584C202.817 231.315 202.876 230.86 203.412 230.557L210.118 226.672C210.389 226.521 210.692 226.436 211.002 226.423C211.312 226.411 211.621 226.472 211.903 226.602L221 231.852C221.455 232.12 221.396 232.575 220.872 232.879L214.154 236.764C213.883 236.915 213.58 237 213.27 237.013C212.96 237.025 212.651 236.963 212.369 236.834Z" fill="#06033E"/>
<path d="M267.686 268.754L258.601 263.504C258.134 263.247 258.193 262.78 258.729 262.477L265.435 258.604C265.707 258.454 266.009 258.369 266.318 258.355C266.627 258.34 266.936 258.398 267.22 258.522L276.317 263.784C276.772 264.04 276.713 264.507 276.188 264.81L269.471 268.684C269.2 268.835 268.897 268.92 268.587 268.933C268.277 268.945 267.968 268.883 267.686 268.754Z" fill="#06033E"/>
<path d="M225.094 244.126L215.997 238.876C215.542 238.619 215.6 238.152 216.125 237.849L222.843 233.976C223.112 233.826 223.412 233.741 223.719 233.727C224.027 233.713 224.334 233.77 224.615 233.894L233.712 239.156C234.167 239.412 234.109 239.879 233.584 240.182L226.878 244.056C226.607 244.207 226.304 244.292 225.994 244.304C225.684 244.317 225.375 244.255 225.094 244.126Z" fill="#06033E"/>
<path d="M224.638 233.929L264.175 256.772C264.285 256.806 264.382 256.874 264.45 256.966C264.519 257.058 264.556 257.17 264.556 257.285C264.556 257.4 264.519 257.512 264.45 257.605C264.382 257.697 264.285 257.765 264.175 257.799L257.329 261.754C257.054 261.892 256.751 261.964 256.443 261.964C256.135 261.964 255.832 261.892 255.557 261.754L216.008 238.91L224.638 233.929Z" fill="#06033E"/>
<path d="M300.704 282.848L307.037 286.499C307.41 286.721 307.363 287.094 306.932 287.339L304.179 288.926C303.959 289.051 303.712 289.122 303.459 289.134C303.206 289.146 302.953 289.099 302.722 288.996L296.389 285.333C296.015 285.123 296.062 284.738 296.494 284.493L299.234 282.906C299.457 282.779 299.706 282.708 299.962 282.698C300.218 282.687 300.472 282.739 300.704 282.848Z" fill="#06033E"/>
<path d="M291.84 277.726L298.173 281.389C298.546 281.599 298.5 281.984 298.068 282.229L295.327 283.816C295.106 283.94 294.859 284.009 294.605 284.02C294.352 284.03 294.1 283.98 293.87 283.874L287.537 280.222C287.163 280.001 287.21 279.627 287.642 279.371L290.406 277.784C290.625 277.667 290.868 277.601 291.116 277.591C291.365 277.581 291.612 277.627 291.84 277.726Z" fill="#06033E"/>
<path d="M283.058 272.65L289.391 276.313C289.764 276.535 289.717 276.908 289.286 277.153L286.545 278.74C286.325 278.867 286.077 278.938 285.823 278.948C285.569 278.958 285.317 278.907 285.087 278.798L278.743 275.147C278.358 274.925 278.416 274.552 278.848 274.307L281.588 272.72C281.81 272.593 282.059 272.521 282.315 272.509C282.57 272.497 282.825 272.545 283.058 272.65Z" fill="#06033E"/>
<path d="M296.692 274.926L303.025 278.589C303.398 278.799 303.351 279.184 302.92 279.429L300.179 281.016C299.958 281.139 299.71 281.209 299.457 281.219C299.204 281.23 298.952 281.18 298.721 281.074L292.376 277.422C292.003 277.201 292.05 276.827 292.481 276.571L295.234 274.984C295.456 274.863 295.703 274.796 295.956 274.786C296.209 274.775 296.46 274.823 296.692 274.926Z" fill="#06033E"/>
</g>
<g opacity="0.4">
<path d="M182.617 219.626L176.937 216.347C176.471 216.079 176.529 215.612 177.054 215.309L183.772 211.436C184.043 211.284 184.346 211.199 184.656 211.187C184.966 211.175 185.274 211.236 185.556 211.366L191.271 214.667C191.738 214.936 191.679 215.391 191.143 215.694L184.437 219.579C184.159 219.733 183.849 219.817 183.533 219.825C183.216 219.833 182.902 219.765 182.617 219.626Z" fill="#06033E"/>
<path d="M191.399 224.7L185.72 221.41C185.253 221.153 185.311 220.687 185.848 220.383L192.554 216.51C192.825 216.359 193.128 216.273 193.438 216.261C193.748 216.249 194.056 216.31 194.338 216.44L200.018 219.718C200.485 219.987 200.426 220.442 199.89 220.745L193.184 224.63C192.912 224.779 192.609 224.862 192.3 224.875C191.99 224.887 191.682 224.827 191.399 224.7Z" fill="#06033E"/>
<path d="M200.182 229.834L194.502 226.544C194.035 226.287 194.094 225.82 194.63 225.517L201.336 221.644C201.607 221.494 201.909 221.409 202.219 221.395C202.528 221.381 202.837 221.438 203.121 221.562L208.8 224.852C209.267 225.109 209.209 225.575 208.672 225.879L201.966 229.752C201.695 229.902 201.393 229.987 201.083 230.001C200.774 230.015 200.465 229.958 200.182 229.834Z" fill="#06033E"/>
<path d="M212.334 225.588L206.643 222.298C206.188 222.029 206.246 221.574 206.771 221.271L212.404 218.016C212.675 217.865 212.978 217.779 213.288 217.767C213.598 217.755 213.907 217.816 214.189 217.946L219.88 221.224C220.335 221.493 220.277 221.948 219.752 222.251L214.107 225.506C213.838 225.655 213.538 225.741 213.23 225.755C212.923 225.769 212.616 225.712 212.334 225.588Z" fill="#06033E"/>
<path d="M221.116 230.65L215.425 227.372C214.97 227.103 215.028 226.648 215.553 226.345L221.186 223.09C221.457 222.94 221.759 222.855 222.069 222.841C222.378 222.827 222.687 222.884 222.971 223.008L228.662 226.298C229.117 226.555 229.059 227.022 228.534 227.325L222.889 230.58C222.62 230.731 222.319 230.817 222.011 230.829C221.703 230.841 221.396 230.78 221.116 230.65Z" fill="#06033E"/>
<path d="M229.898 235.725L224.207 232.447C223.752 232.178 223.81 231.712 224.335 231.408L229.968 228.153C230.24 228.005 230.543 227.921 230.852 227.909C231.162 227.897 231.47 227.956 231.753 228.083L237.444 231.373C237.899 231.63 237.841 232.097 237.316 232.4L231.671 235.667C231.401 235.816 231.1 235.899 230.792 235.909C230.484 235.92 230.177 235.856 229.898 235.725Z" fill="#06033E"/>
<path d="M238.681 240.8L232.989 237.51C232.534 237.254 232.593 236.787 233.117 236.484L238.751 233.229C239.022 233.077 239.324 232.992 239.634 232.98C239.945 232.968 240.253 233.029 240.535 233.159L246.227 236.437C246.681 236.705 246.623 237.16 246.098 237.475L240.453 240.73C240.184 240.879 239.883 240.963 239.575 240.975C239.268 240.987 238.961 240.927 238.681 240.8Z" fill="#06033E"/>
<path d="M247.463 245.876L241.771 242.586C241.317 242.329 241.375 241.862 241.9 241.559L247.533 238.304C247.804 238.153 248.107 238.067 248.417 238.055C248.727 238.043 249.035 238.104 249.317 238.234L255.009 241.512C255.464 241.781 255.405 242.236 254.88 242.539L249.247 245.794C248.976 245.944 248.674 246.029 248.365 246.043C248.055 246.057 247.747 246 247.463 245.876Z" fill="#06033E"/>
<path d="M256.245 250.939L250.554 247.661C250.099 247.393 250.157 246.938 250.682 246.634L256.315 243.379C256.586 243.229 256.888 243.144 257.198 243.13C257.507 243.116 257.816 243.173 258.1 243.298L263.791 246.588C264.246 246.856 264.188 247.311 263.663 247.614L258.03 250.834C257.761 250.991 257.46 251.082 257.15 251.101C256.84 251.119 256.53 251.064 256.245 250.939Z" fill="#06033E"/>
<path d="M265.027 256.014L259.335 252.736C258.881 252.467 258.939 252.012 259.464 251.697L265.097 248.501C265.369 248.353 265.671 248.27 265.981 248.257C266.29 248.245 266.598 248.305 266.881 248.431L272.573 251.721C273.028 251.977 272.969 252.444 272.444 252.747L266.811 256.002C266.536 256.145 266.231 256.22 265.92 256.222C265.61 256.224 265.304 256.153 265.027 256.014Z" fill="#06033E"/>
<path d="M273.809 261.089L268.118 257.834C267.663 257.577 267.721 257.11 268.246 256.807L273.879 253.552C274.15 253.401 274.453 253.315 274.763 253.303C275.073 253.291 275.382 253.352 275.663 253.482L281.355 256.76C281.81 257.029 281.751 257.495 281.227 257.799L275.593 261.054C275.32 261.2 275.016 261.279 274.705 261.285C274.395 261.291 274.088 261.224 273.809 261.089Z" fill="#06033E"/>
<path d="M282.591 266.164L276.9 262.874C276.445 262.617 276.503 262.15 277.028 261.847L282.661 258.592C282.932 258.441 283.235 258.355 283.545 258.343C283.855 258.331 284.164 258.392 284.446 258.522L290.137 261.8C290.592 262.069 290.534 262.524 290.009 262.827L284.376 266.082C284.104 266.232 283.802 266.317 283.493 266.331C283.184 266.345 282.875 266.288 282.591 266.164Z" fill="#06033E"/>
<path d="M291.373 271.227L285.74 267.949C285.285 267.681 285.344 267.226 285.868 266.922L291.502 263.667C291.773 263.518 292.075 263.432 292.384 263.418C292.694 263.404 293.002 263.461 293.286 263.586L298.978 266.876C299.432 267.144 299.374 267.599 298.849 267.902L293.216 271.157C292.938 271.318 292.625 271.409 292.303 271.421C291.982 271.433 291.663 271.367 291.373 271.227Z" fill="#06033E"/>
<path d="M225.268 223.184L219.589 219.894C219.122 219.637 219.18 219.171 219.717 218.867L225.35 215.612C225.619 215.461 225.92 215.376 226.228 215.364C226.536 215.352 226.843 215.413 227.123 215.542L232.814 218.821C233.269 219.089 233.211 219.544 232.686 219.847L227.053 223.102C226.783 223.255 226.48 223.342 226.17 223.356C225.86 223.37 225.552 223.311 225.268 223.184Z" fill="#06033E"/>
<path d="M216.358 218.039L210.666 214.749C210.212 214.48 210.27 214.025 210.795 213.722L216.428 210.467C216.699 210.316 217.002 210.23 217.312 210.218C217.622 210.206 217.93 210.267 218.212 210.397L223.904 213.675C224.359 213.944 224.3 214.399 223.775 214.702L218.096 217.957C217.83 218.099 217.537 218.181 217.236 218.195C216.935 218.209 216.635 218.156 216.358 218.039Z" fill="#06033E"/>
<path d="M207.424 212.882L195.178 205.8C194.723 205.544 194.782 205.077 195.306 204.774L200.94 201.519C201.211 201.367 201.513 201.282 201.823 201.27C202.134 201.258 202.442 201.319 202.724 201.449L214.97 208.519C215.425 208.787 215.378 209.242 214.842 209.545L209.209 212.8C208.937 212.95 208.635 213.035 208.326 213.05C208.016 213.064 207.708 213.006 207.424 212.882Z" fill="#06033E"/>
<path d="M213.675 206.606L203.727 200.866C203.272 200.598 203.33 200.143 203.855 199.839L209.488 196.584C209.759 196.433 210.062 196.348 210.372 196.335C210.682 196.323 210.991 196.385 211.273 196.514L221.21 202.254C221.676 202.511 221.618 202.978 221.081 203.281L215.448 206.501C215.182 206.658 214.883 206.749 214.574 206.767C214.266 206.786 213.958 206.73 213.675 206.606Z" fill="#06033E"/>
<path d="M234.051 228.258L228.371 224.968C227.904 224.7 227.963 224.245 228.499 223.942L234.132 220.687C234.401 220.535 234.702 220.45 235.01 220.438C235.319 220.426 235.625 220.487 235.905 220.617L241.597 223.895C242.051 224.163 241.993 224.618 241.468 224.922L235.835 228.177C235.564 228.326 235.262 228.412 234.952 228.426C234.643 228.44 234.334 228.383 234.051 228.258Z" fill="#06033E"/>
<path d="M242.832 233.334L237.153 230.055C236.686 229.787 236.744 229.332 237.281 229.029L242.914 225.774C243.183 225.624 243.483 225.539 243.791 225.525C244.098 225.51 244.405 225.568 244.687 225.692L250.378 228.982C250.833 229.239 250.775 229.705 250.25 230.009L244.617 233.264C244.346 233.415 244.043 233.5 243.733 233.512C243.423 233.524 243.114 233.463 242.832 233.334Z" fill="#06033E"/>
<path d="M251.615 238.397L245.935 235.119C245.48 234.85 245.527 234.384 246.063 234.08L251.696 230.825C251.967 230.674 252.27 230.589 252.58 230.577C252.89 230.565 253.199 230.626 253.481 230.755L259.161 234.045C259.616 234.302 259.557 234.769 259.032 235.072L253.399 238.327C253.128 238.478 252.825 238.564 252.515 238.576C252.205 238.588 251.897 238.527 251.615 238.397Z" fill="#06033E"/>
<path d="M260.397 243.472L254.717 240.182C254.262 239.926 254.309 239.459 254.846 239.156L260.479 235.901C260.75 235.749 261.052 235.664 261.363 235.652C261.673 235.64 261.981 235.701 262.263 235.831L267.943 239.109C268.398 239.377 268.339 239.832 267.815 240.147L262.181 243.391C261.911 243.543 261.609 243.63 261.299 243.644C260.989 243.658 260.68 243.599 260.397 243.472Z" fill="#06033E"/>
<path d="M269.179 248.501L263.499 245.211C263.045 244.942 263.091 244.487 263.628 244.184L269.261 240.929C269.532 240.778 269.835 240.692 270.145 240.68C270.455 240.668 270.763 240.729 271.045 240.859L276.725 244.137C277.18 244.406 277.122 244.861 276.597 245.164L270.964 248.501C270.686 248.638 270.381 248.709 270.071 248.709C269.762 248.709 269.457 248.638 269.179 248.501Z" fill="#06033E"/>
<path d="M277.961 253.61L272.281 250.332C271.826 250.063 271.873 249.608 272.41 249.305L278.043 246.05C278.314 245.9 278.616 245.815 278.925 245.801C279.235 245.787 279.543 245.844 279.827 245.968L285.507 249.258C285.962 249.515 285.903 249.982 285.379 250.285L279.745 253.54C279.474 253.691 279.172 253.777 278.862 253.789C278.552 253.801 278.243 253.74 277.961 253.61Z" fill="#06033E"/>
<path d="M286.743 258.685L281.075 255.407C280.62 255.139 280.679 254.672 281.203 254.369L286.837 251.114C287.108 250.962 287.41 250.877 287.72 250.865C288.03 250.853 288.339 250.914 288.621 251.044L294.301 254.334C294.756 254.59 294.697 255.057 294.173 255.36L288.539 258.615C288.267 258.769 287.962 258.855 287.65 258.867C287.337 258.879 287.027 258.817 286.743 258.685Z" fill="#06033E"/>
<path d="M295.525 263.76L289.846 260.47C289.391 260.214 289.449 259.747 289.974 259.444L295.607 256.189C295.878 256.037 296.181 255.952 296.491 255.94C296.801 255.928 297.11 255.989 297.391 256.119L303.071 259.397C303.526 259.665 303.48 260.12 302.943 260.435L297.31 263.667C297.04 263.82 296.738 263.907 296.429 263.923C296.119 263.94 295.81 263.884 295.525 263.76Z" fill="#06033E"/>
<path d="M304.308 268.836L298.628 265.546C298.173 265.277 298.231 264.822 298.756 264.519L304.389 261.264C304.66 261.113 304.963 261.027 305.273 261.015C305.583 261.003 305.892 261.064 306.174 261.194L311.854 264.472C312.308 264.741 312.262 265.196 311.725 265.499L306.092 268.754C305.821 268.904 305.519 268.989 305.209 269.003C304.9 269.017 304.591 268.96 304.308 268.836Z" fill="#06033E"/>
<path d="M319.924 277.853L307.515 270.667C307.06 270.41 307.119 269.943 307.643 269.64L313.276 266.385C313.547 266.234 313.85 266.148 314.16 266.136C314.47 266.124 314.779 266.185 315.061 266.315L327.47 273.478C327.925 273.747 327.867 274.202 327.342 274.505L321.709 277.76C321.438 277.912 321.137 277.999 320.827 278.015C320.518 278.031 320.209 277.976 319.924 277.853Z" fill="#06033E"/>
<path d="M337.057 267.972L326.56 261.929C326.106 261.66 326.164 261.205 326.689 260.89L332.322 257.635C332.594 257.488 332.897 257.404 333.206 257.392C333.515 257.38 333.823 257.439 334.106 257.565L344.603 263.62C345.058 263.877 344.999 264.344 344.475 264.647L338.841 267.902C338.571 268.053 338.268 268.139 337.958 268.151C337.648 268.163 337.339 268.102 337.057 267.972Z" fill="#06033E"/>
<path d="M249.434 227.256L243.754 224.001C243.299 223.732 243.357 223.277 243.882 222.974L249.515 219.719C249.787 219.569 250.089 219.484 250.398 219.47C250.707 219.456 251.016 219.513 251.3 219.637L256.991 222.927C257.446 223.196 257.388 223.651 256.863 223.954L251.23 227.209C250.955 227.359 250.65 227.441 250.337 227.449C250.025 227.457 249.715 227.391 249.434 227.256Z" fill="#06033E"/>
<path d="M240.43 222.064L234.75 218.774C234.284 218.517 234.342 218.051 234.879 217.747L240.512 214.492C240.781 214.341 241.081 214.256 241.39 214.244C241.698 214.232 242.005 214.293 242.284 214.422L247.976 217.701C248.431 217.969 248.373 218.436 247.848 218.739L242.215 221.994C241.943 222.143 241.64 222.226 241.331 222.239C241.021 222.251 240.713 222.191 240.43 222.064Z" fill="#06033E"/>
<path d="M231.426 216.86L225.746 213.582C225.292 213.313 225.35 212.858 225.875 212.555L231.508 209.3C231.779 209.15 232.081 209.065 232.391 209.051C232.7 209.037 233.009 209.094 233.292 209.218L238.972 212.508C239.427 212.765 239.38 213.232 238.844 213.535L233.257 216.79C232.981 216.949 232.669 217.039 232.35 217.051C232.032 217.063 231.714 216.998 231.426 216.86Z" fill="#06033E"/>
<path d="M222.434 211.669L216.743 208.379C216.288 208.122 216.346 207.655 216.871 207.352L222.504 204.097C222.775 203.946 223.078 203.86 223.388 203.848C223.698 203.836 224.007 203.897 224.288 204.027L229.98 207.305C230.435 207.574 230.376 208.029 229.852 208.332L224.207 211.587C223.938 211.737 223.638 211.822 223.33 211.836C223.022 211.85 222.716 211.793 222.434 211.669Z" fill="#06033E"/>
<path d="M258.216 232.33L252.524 229.052C252.069 228.783 252.128 228.328 252.653 228.025L258.286 224.77C258.556 224.618 258.858 224.531 259.168 224.517C259.478 224.503 259.787 224.561 260.07 224.688L265.762 227.978C266.217 228.235 266.158 228.702 265.633 229.005L260 232.26C259.729 232.411 259.426 232.497 259.116 232.509C258.806 232.521 258.498 232.46 258.216 232.33Z" fill="#06033E"/>
<path d="M266.998 237.406L261.307 234.116C260.852 233.859 260.91 233.393 261.435 233.089L267.08 229.834C267.351 229.683 267.653 229.598 267.964 229.585C268.274 229.573 268.582 229.635 268.864 229.764L274.556 233.054C275.01 233.311 274.952 233.778 274.427 234.081L268.794 237.336C268.522 237.489 268.217 237.575 267.905 237.588C267.592 237.6 267.282 237.538 266.998 237.406Z" fill="#06033E"/>
<path d="M275.78 242.481L270.089 239.168C269.634 238.911 269.692 238.444 270.217 238.141L275.862 234.886C276.131 234.735 276.432 234.649 276.74 234.637C277.048 234.625 277.355 234.686 277.635 234.816L283.326 238.094C283.781 238.363 283.723 238.818 283.198 239.121L277.576 242.399C277.305 242.553 277 242.641 276.688 242.655C276.376 242.67 276.065 242.61 275.78 242.481Z" fill="#06033E"/>
<path d="M284.574 247.555L278.883 244.265C278.428 243.997 278.486 243.542 279.011 243.239L284.656 239.984C284.925 239.832 285.226 239.747 285.534 239.735C285.842 239.723 286.149 239.784 286.429 239.914L292.12 243.192C292.575 243.46 292.517 243.915 291.992 244.219L286.359 247.474C286.087 247.623 285.785 247.709 285.476 247.723C285.166 247.737 284.858 247.68 284.574 247.555Z" fill="#06033E"/>
<path d="M293.345 252.618L287.653 249.34C287.198 249.072 287.257 248.617 287.782 248.313L293.426 245.058C293.694 244.905 293.995 244.818 294.303 244.804C294.611 244.79 294.918 244.849 295.199 244.977L300.902 248.267C301.357 248.523 301.299 248.99 300.774 249.293L295.141 252.548C294.868 252.702 294.563 252.788 294.251 252.8C293.939 252.812 293.628 252.75 293.345 252.618Z" fill="#06033E"/>
<path d="M302.126 257.694L296.435 254.404C295.98 254.147 296.038 253.681 296.563 253.377L302.208 250.122C302.477 249.971 302.778 249.886 303.086 249.874C303.394 249.861 303.701 249.923 303.981 250.052L309.672 253.342C310.127 253.599 310.069 254.066 309.544 254.369L303.911 257.624C303.64 257.775 303.337 257.86 303.027 257.873C302.717 257.885 302.408 257.824 302.126 257.694Z" fill="#06033E"/>
<path d="M310.909 262.769L305.217 259.479C304.762 259.222 304.821 258.756 305.345 258.452L310.99 255.197C311.259 255.046 311.56 254.961 311.868 254.949C312.176 254.937 312.483 254.998 312.763 255.127L318.455 258.406C318.909 258.674 318.851 259.129 318.326 259.444L312.693 262.687C312.423 262.84 312.121 262.926 311.811 262.941C311.501 262.955 311.192 262.896 310.909 262.769Z" fill="#06033E"/>
<path d="M319.691 267.843L314.011 264.553C313.545 264.285 313.603 263.83 314.128 263.527L319.773 260.272C320.041 260.12 320.342 260.035 320.651 260.023C320.959 260.011 321.265 260.072 321.545 260.202L327.237 263.48C327.692 263.748 327.633 264.203 327.109 264.507L321.475 267.762C321.204 267.911 320.902 267.997 320.593 268.011C320.283 268.025 319.975 267.968 319.691 267.843Z" fill="#06033E"/>
<path d="M328.473 272.907L322.793 269.628C322.327 269.36 322.385 268.905 322.922 268.602L328.555 265.347C328.824 265.197 329.124 265.112 329.432 265.098C329.739 265.084 330.046 265.141 330.327 265.265L336.019 268.555C336.474 268.812 336.415 269.278 335.891 269.582L330.258 272.837C329.987 272.988 329.684 273.073 329.374 273.086C329.064 273.098 328.755 273.036 328.473 272.907Z" fill="#06033E"/>
<path d="M244.804 214.667L239.089 211.435C238.634 211.167 238.692 210.7 239.217 210.397L244.85 207.142C245.122 206.993 245.425 206.909 245.734 206.897C246.044 206.885 246.352 206.945 246.635 207.072L252.314 210.362C252.769 210.618 252.723 211.085 252.186 211.388L246.588 214.667C246.312 214.807 246.006 214.88 245.696 214.88C245.386 214.88 245.08 214.807 244.804 214.667Z" fill="#06033E"/>
<path d="M236.068 209.673L230.389 206.383C229.922 206.115 229.98 205.66 230.505 205.357L236.15 202.102C236.419 201.95 236.72 201.865 237.028 201.853C237.336 201.841 237.643 201.902 237.923 202.032L243.614 205.31C244.069 205.578 244.011 206.033 243.486 206.337L237.853 209.592C237.582 209.741 237.28 209.827 236.97 209.841C236.661 209.855 236.352 209.798 236.068 209.673Z" fill="#06033E"/>
<path d="M227.333 204.622L221.595 201.332C221.14 201.075 221.198 200.608 221.723 200.305L227.426 197.05C227.697 196.899 228 196.813 228.31 196.801C228.62 196.789 228.929 196.85 229.211 196.98L234.902 200.258C235.357 200.527 235.299 200.993 234.774 201.297L229.141 204.552C228.867 204.707 228.56 204.794 228.245 204.806C227.931 204.819 227.618 204.755 227.333 204.622Z" fill="#06033E"/>
<path d="M218.597 199.57L212.906 196.292C212.451 196.023 212.509 195.568 213.034 195.265L218.667 192.01C218.938 191.86 219.24 191.775 219.55 191.761C219.859 191.747 220.168 191.804 220.452 191.928L226.131 195.218C226.598 195.475 226.54 195.942 226.003 196.245L220.428 199.5C220.152 199.661 219.841 199.752 219.521 199.764C219.202 199.776 218.885 199.71 218.597 199.57Z" fill="#06033E"/>
<path d="M227.578 194.379L221.886 191.1C221.431 190.832 221.49 190.377 222.014 190.074L223.927 189C224.197 188.848 224.5 188.761 224.81 188.747C225.12 188.733 225.428 188.792 225.712 188.919L231.391 192.209C231.858 192.465 231.8 192.932 231.275 193.235L229.409 194.309C229.132 194.468 228.821 194.557 228.502 194.57C228.183 194.582 227.866 194.516 227.578 194.379Z" fill="#06033E"/>
<path d="M238.984 200.97L233.257 197.68C232.802 197.424 232.861 196.957 233.386 196.654L235.252 195.58C235.523 195.429 235.825 195.344 236.135 195.332C236.445 195.319 236.754 195.381 237.036 195.51L242.716 198.789C243.171 199.057 243.124 199.512 242.588 199.815L240.733 200.9C240.467 201.046 240.17 201.128 239.867 201.14C239.563 201.152 239.261 201.094 238.984 200.97Z" fill="#06033E"/>
<path d="M247.685 205.999L241.993 202.709C241.538 202.452 241.597 201.985 242.121 201.682L243.987 200.609C244.258 200.457 244.561 200.372 244.871 200.36C245.181 200.348 245.49 200.409 245.772 200.539L251.452 203.817C251.918 204.085 251.86 204.54 251.335 204.844L249.469 205.917C249.199 206.069 248.896 206.156 248.587 206.17C248.277 206.184 247.968 206.126 247.685 205.999Z" fill="#06033E"/>
<path d="M256.385 211.027L250.752 207.737C250.285 207.469 250.344 207.014 250.88 206.71L252.734 205.637C253.006 205.487 253.308 205.402 253.617 205.388C253.927 205.374 254.235 205.431 254.519 205.555L260.21 208.845C260.665 209.102 260.607 209.569 260.082 209.872L258.216 210.945C257.939 211.103 257.629 211.192 257.31 211.206C256.992 211.22 256.675 211.159 256.385 211.027Z" fill="#06033E"/>
<path d="M265.086 216.044L259.406 212.766C258.951 212.497 258.998 212.042 259.534 211.739L261.388 210.654C261.661 210.506 261.963 210.423 262.272 210.411C262.582 210.399 262.89 210.458 263.173 210.584L268.864 213.874C269.319 214.131 269.261 214.597 268.736 214.901L266.87 215.974C266.599 216.125 266.296 216.211 265.986 216.223C265.676 216.235 265.367 216.174 265.086 216.044Z" fill="#06033E"/>
<path d="M313.731 244.102L308.04 240.824C307.585 240.556 307.643 240.101 308.168 239.797L310.034 238.724C310.305 238.572 310.607 238.485 310.917 238.471C311.227 238.457 311.536 238.515 311.819 238.642L317.499 241.932C317.965 242.189 317.907 242.656 317.37 242.959L315.516 244.032C315.245 244.184 314.942 244.269 314.632 244.281C314.322 244.293 314.013 244.232 313.731 244.102Z" fill="#06033E"/>
<path d="M322.373 249.13L316.694 245.852C316.227 245.584 316.285 245.129 316.822 244.826L318.676 243.74C318.947 243.589 319.25 243.504 319.56 243.492C319.87 243.48 320.179 243.541 320.461 243.67L326.152 246.96C326.607 247.217 326.549 247.684 326.024 247.987L324.158 249.06C323.887 249.212 323.584 249.297 323.274 249.309C322.964 249.321 322.655 249.26 322.373 249.13Z" fill="#06033E"/>
<path d="M331.074 254.159L325.394 250.834C324.939 250.565 324.986 250.099 325.522 249.795L327.377 248.722C327.648 248.571 327.95 248.485 328.261 248.473C328.571 248.461 328.879 248.522 329.161 248.652L334.853 251.93C335.307 252.199 335.249 252.654 334.724 252.957L332.858 254.042C332.591 254.201 332.29 254.294 331.98 254.314C331.67 254.335 331.359 254.281 331.074 254.159Z" fill="#06033E"/>
<path d="M339.786 259.187L334.095 255.897C333.64 255.64 333.698 255.174 334.223 254.87L336.089 253.797C336.358 253.646 336.659 253.561 336.967 253.548C337.275 253.536 337.582 253.597 337.862 253.727L343.553 257.005C344.008 257.274 343.95 257.729 343.425 258.032L341.559 259.117C341.289 259.266 340.988 259.349 340.681 259.361C340.373 259.374 340.067 259.314 339.786 259.187Z" fill="#06033E"/>
<path d="M253.586 219.789L247.906 216.499C247.451 216.242 247.51 215.775 248.034 215.472L253.668 212.217C253.939 212.066 254.241 211.98 254.551 211.968C254.862 211.956 255.17 212.017 255.452 212.147L261.132 215.425C261.587 215.694 261.54 216.149 261.004 216.464L255.417 219.719C255.139 219.875 254.828 219.963 254.51 219.975C254.192 219.987 253.875 219.923 253.586 219.789Z" fill="#06033E"/>
<path d="M262.415 224.864L256.735 221.574C256.28 221.306 256.338 220.851 256.863 220.547L262.496 217.292C262.767 217.141 263.07 217.056 263.38 217.044C263.69 217.031 263.999 217.093 264.281 217.222L269.96 220.501C270.415 220.769 270.369 221.224 269.832 221.527L264.199 224.782C263.928 224.932 263.626 225.017 263.316 225.031C263.007 225.046 262.698 224.988 262.415 224.864Z" fill="#06033E"/>
<path d="M271.15 229.927L265.47 226.649C265.015 226.381 265.074 225.926 265.598 225.622L271.232 222.367C271.503 222.218 271.805 222.132 272.114 222.118C272.424 222.104 272.732 222.161 273.016 222.286L278.696 225.576C279.162 225.844 279.104 226.299 278.568 226.602L272.911 229.834C272.645 229.985 272.347 230.073 272.042 230.089C271.736 230.105 271.431 230.05 271.15 229.927Z" fill="#06033E"/>
<path d="M279.909 235.002L274.217 231.724C273.762 231.456 273.821 231.001 274.346 230.686L279.979 227.431C280.25 227.282 280.553 227.198 280.863 227.186C281.172 227.174 281.48 227.234 281.763 227.361L287.443 230.651C287.909 230.907 287.851 231.374 287.315 231.677L281.681 234.932C281.413 235.084 281.112 235.169 280.804 235.181C280.495 235.193 280.189 235.132 279.909 235.002Z" fill="#06033E"/>
<path d="M288.726 240.077L283.035 236.834C282.58 236.577 282.638 236.11 283.163 235.807L288.796 232.552C289.067 232.401 289.37 232.315 289.68 232.303C289.99 232.291 290.299 232.352 290.58 232.482L296.237 235.667C296.703 235.935 296.645 236.402 296.109 236.705L290.475 239.96C290.213 240.115 289.918 240.206 289.615 240.227C289.311 240.247 289.006 240.196 288.726 240.077Z" fill="#06033E"/>
<path d="M297.508 245.152L291.817 241.862C291.362 241.605 291.42 241.139 291.945 240.835L297.578 237.58C297.849 237.429 298.152 237.344 298.462 237.332C298.772 237.319 299.081 237.381 299.363 237.51L305.042 240.789C305.509 241.057 305.451 241.512 304.914 241.815L299.281 245.07C299.012 245.22 298.712 245.305 298.404 245.319C298.097 245.333 297.79 245.276 297.508 245.152Z" fill="#06033E"/>
<path d="M306.291 250.216L300.599 246.937C300.144 246.669 300.203 246.214 300.727 245.911L306.36 242.656C306.632 242.506 306.934 242.421 307.243 242.406C307.553 242.392 307.861 242.45 308.145 242.574L313.825 245.864C314.291 246.132 314.233 246.587 313.696 246.891L308.063 250.146C307.794 250.297 307.494 250.382 307.185 250.394C306.877 250.406 306.57 250.345 306.291 250.216Z" fill="#06033E"/>
<path d="M315.072 255.291L309.381 252.001C308.926 251.733 308.984 251.278 309.509 250.963L315.142 247.719C315.413 247.567 315.715 247.48 316.025 247.466C316.335 247.452 316.644 247.511 316.927 247.638L322.606 250.928C323.073 251.184 323.015 251.651 322.49 251.954L316.845 255.209C316.577 255.362 316.277 255.45 315.968 255.464C315.66 255.478 315.353 255.419 315.072 255.291Z" fill="#06033E"/>
<path d="M323.854 260.366L318.163 257.076C317.708 256.819 317.766 256.353 318.291 256.049L323.924 252.794C324.195 252.643 324.498 252.558 324.808 252.545C325.118 252.533 325.427 252.595 325.709 252.724L331.4 256.003C331.855 256.271 331.797 256.738 331.272 257.041L325.627 260.296C325.358 260.447 325.058 260.532 324.749 260.545C324.441 260.557 324.134 260.495 323.854 260.366Z" fill="#06033E"/>
<path d="M203.377 220.419L186.606 210.735C186.151 210.479 186.209 210.012 186.734 209.709L192.437 206.5C192.708 206.349 193.011 206.264 193.321 206.252C193.631 206.239 193.94 206.301 194.222 206.43L210.97 216.102C211.424 216.37 211.366 216.825 210.841 217.129L205.208 220.384C204.927 220.533 204.615 220.615 204.297 220.621C203.979 220.627 203.663 220.558 203.377 220.419Z" fill="#06033E"/>
<path d="M311.27 282.731L294.522 273.059C294.068 272.791 294.126 272.324 294.651 272.021L300.284 268.766C300.555 268.615 300.858 268.529 301.168 268.517C301.478 268.505 301.786 268.566 302.068 268.696L318.816 278.368C319.271 278.636 319.213 279.091 318.688 279.394L313.055 282.649C312.783 282.799 312.481 282.884 312.172 282.898C311.863 282.913 311.554 282.855 311.27 282.731Z" fill="#06033E"/>
<path d="M276.153 273.642L270.462 270.364C270.007 270.096 270.065 269.641 270.59 269.337L277.308 265.452C277.579 265.301 277.882 265.216 278.192 265.204C278.502 265.191 278.81 265.253 279.092 265.382L284.772 268.672C285.227 268.929 285.169 269.396 284.644 269.699L277.938 273.572C277.667 273.724 277.364 273.809 277.054 273.821C276.744 273.833 276.435 273.772 276.153 273.642Z" fill="#06033E"/>
<path d="M212.369 236.834L203.284 231.584C202.817 231.315 202.876 230.86 203.412 230.557L210.118 226.672C210.389 226.521 210.692 226.436 211.002 226.423C211.312 226.411 211.621 226.472 211.903 226.602L221 231.852C221.455 232.12 221.396 232.575 220.872 232.879L214.154 236.764C213.883 236.915 213.58 237 213.27 237.013C212.96 237.025 212.651 236.963 212.369 236.834Z" fill="#06033E"/>
<path d="M267.686 268.754L258.601 263.504C258.134 263.247 258.193 262.78 258.729 262.477L265.435 258.604C265.707 258.454 266.009 258.369 266.318 258.355C266.627 258.34 266.936 258.398 267.22 258.522L276.317 263.784C276.772 264.04 276.713 264.507 276.188 264.81L269.471 268.684C269.2 268.835 268.897 268.92 268.587 268.933C268.277 268.945 267.968 268.883 267.686 268.754Z" fill="#06033E"/>
<path d="M225.094 244.126L215.997 238.876C215.542 238.619 215.6 238.152 216.125 237.849L222.843 233.976C223.112 233.826 223.412 233.741 223.719 233.727C224.027 233.713 224.334 233.77 224.615 233.894L233.712 239.156C234.167 239.412 234.109 239.879 233.584 240.182L226.878 244.056C226.607 244.207 226.304 244.292 225.994 244.304C225.684 244.317 225.375 244.255 225.094 244.126Z" fill="#06033E"/>
<path d="M224.638 233.929L264.175 256.772C264.285 256.806 264.382 256.874 264.45 256.966C264.519 257.058 264.556 257.17 264.556 257.285C264.556 257.4 264.519 257.512 264.45 257.605C264.382 257.697 264.285 257.765 264.175 257.799L257.329 261.754C257.054 261.892 256.751 261.964 256.443 261.964C256.135 261.964 255.832 261.892 255.557 261.754L216.008 238.91L224.638 233.929Z" fill="#06033E"/>
<path d="M300.704 282.848L307.037 286.499C307.41 286.721 307.363 287.094 306.932 287.339L304.179 288.926C303.959 289.051 303.712 289.122 303.459 289.134C303.206 289.146 302.953 289.099 302.722 288.996L296.389 285.333C296.015 285.123 296.062 284.738 296.494 284.493L299.234 282.906C299.457 282.779 299.706 282.708 299.962 282.698C300.218 282.687 300.472 282.739 300.704 282.848Z" fill="#06033E"/>
<path d="M291.84 277.726L298.173 281.389C298.546 281.599 298.5 281.984 298.068 282.229L295.327 283.816C295.106 283.94 294.859 284.009 294.605 284.02C294.352 284.03 294.1 283.98 293.87 283.874L287.537 280.222C287.163 280.001 287.21 279.627 287.642 279.371L290.406 277.784C290.625 277.667 290.868 277.601 291.116 277.591C291.365 277.581 291.612 277.627 291.84 277.726Z" fill="#06033E"/>
<path d="M283.058 272.65L289.391 276.313C289.764 276.535 289.717 276.908 289.286 277.153L286.545 278.74C286.325 278.867 286.077 278.938 285.823 278.948C285.569 278.958 285.317 278.907 285.087 278.798L278.743 275.147C278.358 274.925 278.416 274.552 278.848 274.307L281.588 272.72C281.81 272.593 282.059 272.521 282.315 272.509C282.57 272.497 282.825 272.545 283.058 272.65Z" fill="#06033E"/>
<path d="M296.692 274.926L303.025 278.589C303.398 278.799 303.351 279.184 302.92 279.429L300.179 281.016C299.958 281.139 299.71 281.209 299.457 281.219C299.204 281.23 298.952 281.18 298.721 281.074L292.376 277.422C292.003 277.201 292.05 276.827 292.481 276.571L295.234 274.984C295.456 274.863 295.703 274.796 295.956 274.786C296.209 274.775 296.46 274.823 296.692 274.926Z" fill="#06033E"/>
</g>
<path d="M389.645 264.67L221.851 167.767C220.519 166.895 219.502 165.619 218.95 164.126C218.397 162.632 218.339 161.001 218.784 159.472L256.723 36.237C257.668 33.1803 260.56 31.932 263.208 33.4603L430.99 130.364C432.323 131.234 433.342 132.51 433.894 134.004C434.446 135.498 434.504 137.13 434.057 138.659L396.118 261.894C395.185 264.95 392.281 266.187 389.645 264.67Z" fill="#8C8C8C"/>
<path d="M388.059 260.353L225.315 166.285C224.042 165.45 223.071 164.229 222.542 162.802C222.013 161.374 221.955 159.815 222.376 158.352L258.648 40.5184C258.786 39.8718 259.078 39.268 259.499 38.7578C259.919 38.2475 260.456 37.8458 261.064 37.5862C261.672 37.3267 262.333 37.217 262.993 37.2664C263.652 37.3158 264.29 37.5228 264.852 37.87L427.596 131.95C428.87 132.784 429.843 134.004 430.372 135.432C430.901 136.86 430.958 138.42 430.535 139.883L394.263 257.717C393.354 260.622 390.578 261.812 388.059 260.353Z" fill="url(#paint0_linear_703_1638)"/>
<path opacity="0.4" d="M388.059 260.353L225.315 166.285C224.042 165.45 223.071 164.229 222.542 162.802C222.013 161.374 221.955 159.815 222.376 158.352L258.648 40.5184C258.786 39.8718 259.078 39.268 259.499 38.7578C259.919 38.2475 260.456 37.8458 261.064 37.5862C261.672 37.3267 262.333 37.217 262.993 37.2664C263.652 37.3158 264.29 37.5228 264.852 37.87L427.596 131.95C428.87 132.784 429.843 134.004 430.372 135.432C430.901 136.86 430.958 138.42 430.535 139.883L394.263 257.717C393.354 260.622 390.578 261.812 388.059 260.353Z" fill="#06033E"/>
<path opacity="0.4" d="M388.059 260.353L225.315 166.285C224.042 165.45 223.071 164.229 222.542 162.802C222.013 161.374 221.955 159.815 222.376 158.352L258.648 40.5184C258.786 39.8718 259.078 39.268 259.499 38.7578C259.919 38.2475 260.456 37.8458 261.064 37.5862C261.672 37.3267 262.333 37.217 262.993 37.2664C263.652 37.3158 264.29 37.5228 264.852 37.87L427.596 131.95C428.87 132.784 429.843 134.004 430.372 135.432C430.901 136.86 430.958 138.42 430.535 139.883L394.263 257.717C393.354 260.622 390.578 261.812 388.059 260.353Z" fill="#8C8C8C"/>
<path opacity="0.5" d="M379.312 224.35L269.144 160.72C268.27 160.147 267.602 159.309 267.238 158.328C266.875 157.348 266.836 156.276 267.127 155.272L292.038 74.3634C292.134 73.9202 292.335 73.5063 292.623 73.1562C292.911 72.8061 293.279 72.53 293.695 72.3508C294.112 72.1716 294.565 72.0945 295.017 72.126C295.47 72.1575 295.908 72.2966 296.295 72.5318L406.463 136.162C407.339 136.733 408.008 137.571 408.371 138.553C408.735 139.534 408.773 140.606 408.481 141.61L383.569 222.53C383.474 222.974 383.273 223.388 382.985 223.738C382.697 224.089 382.328 224.365 381.911 224.543C381.494 224.721 381.04 224.797 380.588 224.763C380.136 224.73 379.698 224.588 379.312 224.35Z" fill="#06033E"/>
<path d="M364.429 226.333L254.25 162.668C253.375 162.098 252.706 161.262 252.343 160.283C251.98 159.304 251.941 158.234 252.233 157.231L277.144 76.3113C277.237 75.8662 277.436 75.45 277.724 75.0982C278.012 74.7464 278.38 74.4694 278.798 74.2907C279.216 74.112 279.671 74.0369 280.125 74.0718C280.578 74.1068 281.016 74.2507 281.401 74.4913L391.569 138.11C392.444 138.682 393.112 139.521 393.475 140.501C393.838 141.482 393.877 142.553 393.587 143.558L368.675 224.478C368.586 224.924 368.391 225.343 368.105 225.697C367.82 226.052 367.453 226.332 367.036 226.514C366.619 226.697 366.164 226.775 365.711 226.744C365.257 226.712 364.817 226.571 364.429 226.333Z" fill="url(#paint1_radial_703_1638)"/>
<g opacity="0.5">
<path d="M364.429 226.333L254.25 162.668C253.375 162.098 252.706 161.262 252.343 160.283C251.98 159.304 251.941 158.234 252.233 157.231L277.144 76.3113C277.237 75.8662 277.436 75.45 277.724 75.0982C278.012 74.7464 278.38 74.4694 278.798 74.2907C279.216 74.112 279.671 74.0369 280.125 74.0718C280.578 74.1068 281.016 74.2507 281.401 74.4913L391.569 138.11C392.444 138.682 393.112 139.521 393.475 140.501C393.838 141.482 393.877 142.553 393.587 143.558L368.675 224.478C368.586 224.924 368.391 225.343 368.105 225.697C367.82 226.052 367.453 226.332 367.036 226.514C366.619 226.697 366.164 226.775 365.711 226.744C365.257 226.712 364.817 226.571 364.429 226.333Z" fill="#06033E"/>
</g>
<path d="M391.581 138.11L281.413 74.4918C280.946 74.195 280.399 74.0463 279.846 74.0651C279.293 74.0838 278.758 74.2691 278.311 74.5968C278.867 74.5823 279.417 74.7237 279.897 75.0051L390.065 138.623C390.94 139.196 391.609 140.034 391.974 141.014C392.34 141.994 392.382 143.066 392.094 144.072L367.17 224.992C366.977 225.674 366.568 226.276 366.004 226.707C366.629 226.67 367.226 226.433 367.706 226.032C368.187 225.631 368.526 225.087 368.675 224.478L393.587 143.558C393.879 142.555 393.841 141.485 393.48 140.504C393.119 139.524 392.453 138.685 391.581 138.11Z" fill="white"/>
<path opacity="0.4" d="M225.478 292.378C224.058 292.413 222.653 292.084 221.396 291.422L177.275 265.93C176.756 265.682 176.313 265.298 175.993 264.82C175.673 264.342 175.488 263.786 175.456 263.212C175.531 262.485 175.796 261.791 176.224 261.2C176.652 260.608 177.227 260.139 177.894 259.84L200.601 246.715C202.014 245.913 203.599 245.461 205.222 245.398C206.846 245.335 208.461 245.663 209.931 246.353L254.017 271.833C254.538 272.079 254.982 272.462 255.302 272.941C255.623 273.42 255.807 273.976 255.837 274.552C255.761 275.278 255.497 275.972 255.069 276.564C254.641 277.156 254.065 277.624 253.399 277.923L230.68 291.048C229.089 291.932 227.297 292.39 225.478 292.378ZM205.826 246.692C204.225 246.69 202.649 247.091 201.243 247.858L178.523 260.983C177.357 261.648 176.727 262.477 176.727 263.258C176.763 263.606 176.889 263.937 177.094 264.22C177.299 264.503 177.575 264.726 177.894 264.868L222.026 290.36C223.297 290.918 224.68 291.176 226.067 291.116C227.454 291.055 228.809 290.677 230.027 290.01L252.758 276.885C253.924 276.22 254.554 275.392 254.554 274.552C254.516 274.205 254.388 273.874 254.184 273.592C253.979 273.31 253.705 273.086 253.387 272.942L209.243 247.45C208.188 246.908 207.011 246.647 205.826 246.692Z" fill="#06033E"/>
<path d="M308.25 116.947L301.439 113.003C301.117 112.803 300.869 112.503 300.733 112.15C300.596 111.797 300.578 111.408 300.68 111.043C300.715 110.884 300.787 110.736 300.891 110.611C300.995 110.486 301.128 110.389 301.279 110.327C301.429 110.265 301.592 110.24 301.754 110.255C301.916 110.27 302.072 110.325 302.208 110.413L309.066 114.333C309.383 114.538 309.628 114.838 309.764 115.19C309.9 115.542 309.921 115.929 309.824 116.293C309.794 116.46 309.722 116.617 309.616 116.749C309.509 116.881 309.371 116.984 309.215 117.049C309.058 117.114 308.888 117.139 308.719 117.121C308.551 117.103 308.389 117.043 308.25 116.947Z" fill="white"/>
<path d="M324.472 126.315L314.431 120.482C314.111 120.28 313.864 119.98 313.728 119.627C313.591 119.274 313.572 118.886 313.673 118.522C313.705 118.361 313.777 118.212 313.88 118.086C313.984 117.959 314.117 117.86 314.267 117.797C314.418 117.734 314.581 117.708 314.744 117.723C314.907 117.737 315.063 117.791 315.201 117.88L325.242 123.713C325.56 123.918 325.804 124.218 325.94 124.57C326.076 124.922 326.097 125.308 326 125.673C325.968 125.833 325.896 125.983 325.793 126.109C325.689 126.235 325.556 126.334 325.406 126.398C325.255 126.461 325.092 126.486 324.929 126.472C324.766 126.458 324.61 126.404 324.472 126.315Z" fill="white"/>
<path d="M294.511 147.28L287.7 143.336C287.382 143.132 287.138 142.832 287.002 142.48C286.865 142.128 286.844 141.741 286.941 141.376C286.976 141.217 287.048 141.069 287.152 140.944C287.256 140.819 287.389 140.722 287.54 140.66C287.69 140.598 287.853 140.573 288.015 140.588C288.177 140.603 288.333 140.658 288.469 140.746L295.28 144.678C295.598 144.883 295.842 145.183 295.978 145.535C296.115 145.887 296.136 146.273 296.038 146.638C296.003 146.797 295.931 146.945 295.827 147.069C295.723 147.194 295.59 147.292 295.441 147.355C295.291 147.417 295.128 147.443 294.967 147.43C294.805 147.417 294.648 147.366 294.511 147.28Z" fill="white"/>
<path d="M308.973 155.622L298.931 149.789C298.611 149.587 298.365 149.287 298.228 148.934C298.091 148.581 298.072 148.193 298.173 147.829C298.207 147.67 298.28 147.521 298.384 147.396C298.488 147.271 298.621 147.174 298.771 147.112C298.922 147.05 299.085 147.025 299.247 147.04C299.409 147.056 299.565 147.11 299.701 147.199L309.743 153.032C310.06 153.236 310.304 153.536 310.441 153.889C310.577 154.241 310.598 154.627 310.501 154.992C310.467 155.151 310.394 155.299 310.29 155.424C310.186 155.549 310.053 155.647 309.902 155.709C309.752 155.771 309.589 155.795 309.427 155.78C309.265 155.765 309.109 155.711 308.973 155.622Z" fill="white"/>
<path d="M287.839 111.533L283.583 109.083C283.266 108.878 283.023 108.578 282.887 108.226C282.751 107.874 282.729 107.488 282.824 107.123C282.859 106.963 282.932 106.813 283.036 106.687C283.141 106.561 283.275 106.462 283.426 106.399C283.578 106.336 283.742 106.311 283.905 106.325C284.069 106.34 284.226 106.393 284.364 106.482L288.621 108.943C288.939 109.147 289.183 109.447 289.317 109.8C289.452 110.153 289.469 110.54 289.367 110.903C289.333 111.062 289.261 111.211 289.157 111.336C289.052 111.46 288.919 111.558 288.769 111.62C288.619 111.682 288.455 111.707 288.294 111.691C288.132 111.676 287.976 111.622 287.839 111.533Z" fill="white"/>
<path d="M300.646 125.311L287.641 117.833C287.324 117.628 287.08 117.328 286.943 116.976C286.807 116.624 286.786 116.238 286.883 115.873C286.919 115.714 286.993 115.565 287.098 115.441C287.204 115.316 287.338 115.218 287.489 115.157C287.64 115.095 287.804 115.07 287.966 115.085C288.129 115.1 288.286 115.154 288.423 115.243L301.415 122.745C301.734 122.948 301.979 123.248 302.116 123.6C302.252 123.953 302.272 124.34 302.173 124.705C302.134 124.86 302.058 125.004 301.952 125.125C301.846 125.245 301.713 125.339 301.564 125.398C301.415 125.457 301.254 125.48 301.094 125.465C300.935 125.45 300.781 125.397 300.646 125.311Z" fill="white"/>
<path d="M288.656 131.134L284.399 128.684C284.083 128.478 283.84 128.178 283.704 127.826C283.567 127.474 283.546 127.089 283.641 126.724C283.673 126.564 283.745 126.414 283.848 126.288C283.952 126.161 284.085 126.062 284.235 125.999C284.386 125.936 284.55 125.91 284.712 125.925C284.875 125.939 285.032 125.993 285.169 126.082L289.426 128.544C289.743 128.748 289.987 129.048 290.124 129.4C290.26 129.752 290.281 130.139 290.184 130.504C290.15 130.663 290.077 130.811 289.973 130.936C289.869 131.061 289.736 131.158 289.585 131.22C289.435 131.282 289.272 131.307 289.11 131.292C288.948 131.277 288.792 131.222 288.656 131.134Z" fill="white"/>
<path d="M310.536 169.283L299.176 162.727C298.859 162.522 298.614 162.222 298.478 161.87C298.342 161.518 298.321 161.132 298.418 160.767C298.451 160.607 298.522 160.457 298.625 160.331C298.729 160.204 298.862 160.105 299.013 160.042C299.163 159.979 299.327 159.953 299.489 159.968C299.652 159.982 299.809 160.036 299.946 160.125L311.317 166.693C311.635 166.898 311.879 167.198 312.015 167.55C312.151 167.902 312.172 168.288 312.075 168.653C312.039 168.813 311.966 168.961 311.86 169.086C311.755 169.21 311.621 169.308 311.47 169.37C311.318 169.431 311.155 169.456 310.992 169.441C310.83 169.426 310.673 169.372 310.536 169.283Z" fill="white"/>
<path d="M283.886 141.167L281.157 139.58C280.84 139.378 280.596 139.08 280.46 138.73C280.324 138.379 280.302 137.995 280.399 137.632C280.431 137.472 280.502 137.322 280.606 137.196C280.71 137.07 280.842 136.971 280.993 136.907C281.144 136.844 281.307 136.819 281.47 136.833C281.633 136.847 281.789 136.901 281.926 136.99L284.656 138.565C284.977 138.766 285.225 139.065 285.361 139.419C285.498 139.772 285.516 140.16 285.414 140.525C285.379 140.684 285.306 140.832 285.202 140.956C285.098 141.081 284.965 141.179 284.816 141.242C284.666 141.304 284.503 141.331 284.342 141.317C284.18 141.304 284.024 141.253 283.886 141.167Z" fill="white"/>
<path d="M281.297 152.402L277.915 150.442C277.593 150.241 277.345 149.942 277.209 149.588C277.072 149.235 277.054 148.847 277.157 148.482C277.191 148.323 277.263 148.175 277.367 148.05C277.471 147.925 277.605 147.827 277.755 147.765C277.905 147.703 278.068 147.679 278.23 147.694C278.392 147.709 278.548 147.763 278.684 147.852L282.078 149.8C282.394 150.006 282.638 150.306 282.774 150.658C282.91 151.01 282.932 151.395 282.836 151.76C282.802 151.921 282.729 152.07 282.624 152.196C282.52 152.322 282.386 152.421 282.235 152.484C282.083 152.547 281.919 152.573 281.756 152.558C281.592 152.544 281.435 152.49 281.297 152.402Z" fill="white"/>
<path d="M294.499 160.02L285.554 154.863C285.238 154.658 284.994 154.358 284.858 154.006C284.722 153.654 284.7 153.268 284.796 152.903C284.828 152.743 284.899 152.594 285.003 152.467C285.107 152.341 285.24 152.242 285.39 152.179C285.541 152.116 285.704 152.09 285.867 152.105C286.03 152.119 286.186 152.173 286.323 152.262L295.269 157.43C295.586 157.634 295.831 157.934 295.967 158.287C296.103 158.639 296.124 159.025 296.027 159.39C295.993 159.549 295.92 159.697 295.816 159.822C295.712 159.947 295.579 160.045 295.429 160.107C295.278 160.169 295.115 160.193 294.953 160.178C294.791 160.163 294.635 160.109 294.499 160.02Z" fill="white"/>
<path d="M282.72 159.6L276.282 155.878C275.965 155.676 275.721 155.378 275.587 155.027C275.452 154.676 275.434 154.292 275.535 153.93C275.568 153.77 275.639 153.62 275.743 153.494C275.846 153.367 275.979 153.268 276.13 153.205C276.28 153.142 276.444 153.116 276.607 153.131C276.769 153.145 276.926 153.199 277.063 153.288L283.489 156.998C283.807 157.203 284.051 157.502 284.187 157.855C284.324 158.207 284.345 158.593 284.248 158.958C284.215 159.118 284.144 159.268 284.04 159.394C283.936 159.52 283.804 159.619 283.653 159.683C283.502 159.746 283.339 159.771 283.176 159.757C283.013 159.742 282.857 159.688 282.72 159.6Z" fill="white"/>
<path d="M320.286 175L316.157 172.667C315.84 172.463 315.595 172.163 315.459 171.811C315.323 171.458 315.302 171.072 315.399 170.707C315.436 170.548 315.51 170.4 315.615 170.276C315.72 170.151 315.854 170.054 316.004 169.991C316.155 169.928 316.318 169.902 316.48 169.915C316.643 169.928 316.8 169.98 316.938 170.065L321.067 172.399C321.384 172.603 321.629 172.903 321.765 173.255C321.901 173.608 321.922 173.994 321.825 174.359C321.791 174.519 321.718 174.669 321.613 174.795C321.508 174.921 321.375 175.02 321.223 175.083C321.072 175.146 320.908 175.171 320.744 175.157C320.581 175.143 320.424 175.089 320.286 175Z" fill="white"/>
<path d="M304.483 140.28L293.123 133.711C292.802 133.511 292.554 133.211 292.417 132.858C292.28 132.505 292.262 132.116 292.365 131.751C292.399 131.592 292.472 131.444 292.576 131.319C292.68 131.194 292.813 131.097 292.963 131.035C293.114 130.973 293.277 130.948 293.439 130.963C293.601 130.978 293.757 131.033 293.893 131.121L305.252 137.678C305.571 137.881 305.817 138.181 305.953 138.534C306.089 138.886 306.11 139.273 306.011 139.638C305.978 139.798 305.907 139.948 305.803 140.074C305.7 140.2 305.567 140.299 305.416 140.363C305.266 140.426 305.102 140.451 304.939 140.437C304.776 140.423 304.62 140.369 304.483 140.28Z" fill="white"/>
<path d="M305.824 134.68L285.997 123.235C285.681 123.032 285.437 122.734 285.3 122.384C285.164 122.034 285.143 121.65 285.239 121.286C285.273 121.126 285.346 120.976 285.451 120.85C285.556 120.724 285.689 120.626 285.841 120.562C285.992 120.499 286.156 120.474 286.32 120.488C286.483 120.503 286.64 120.556 286.778 120.645L306.605 132.078C306.921 132.284 307.165 132.584 307.301 132.936C307.437 133.287 307.459 133.673 307.363 134.038C307.329 134.198 307.256 134.348 307.151 134.474C307.047 134.6 306.913 134.699 306.762 134.762C306.61 134.825 306.446 134.851 306.283 134.836C306.119 134.822 305.962 134.768 305.824 134.68Z" fill="#E8975B"/>
<path d="M294.138 140.688L282.778 134.167C282.461 133.962 282.216 133.662 282.08 133.31C281.944 132.958 281.923 132.571 282.02 132.207C282.054 132.048 282.127 131.899 282.231 131.774C282.335 131.649 282.468 131.552 282.618 131.49C282.769 131.428 282.932 131.403 283.094 131.418C283.256 131.434 283.412 131.488 283.548 131.577L294.919 138.133C295.237 138.338 295.481 138.638 295.617 138.99C295.753 139.342 295.774 139.728 295.677 140.093C295.635 140.248 295.557 140.391 295.449 140.51C295.341 140.629 295.207 140.721 295.058 140.779C294.908 140.837 294.747 140.859 294.587 140.843C294.427 140.827 294.273 140.774 294.138 140.688Z" fill="#E8975B"/>
<path d="M313.102 145.262L308.973 142.928C308.656 142.724 308.411 142.424 308.275 142.072C308.139 141.72 308.118 141.333 308.215 140.968C308.249 140.809 308.321 140.661 308.426 140.536C308.53 140.411 308.663 140.314 308.813 140.252C308.964 140.19 309.127 140.165 309.289 140.18C309.451 140.195 309.606 140.25 309.743 140.338L313.871 142.672C314.193 142.872 314.441 143.172 314.577 143.525C314.714 143.879 314.732 144.267 314.629 144.632C314.593 144.789 314.519 144.936 314.415 145.059C314.31 145.182 314.177 145.279 314.028 145.34C313.878 145.402 313.716 145.427 313.555 145.413C313.394 145.4 313.239 145.348 313.102 145.262Z" fill="#E8975B"/>
<path d="M355.1 144.001L330.607 129.885C330.287 129.683 330.041 129.383 329.904 129.03C329.768 128.677 329.749 128.29 329.849 127.925C329.882 127.765 329.953 127.615 330.057 127.489C330.16 127.363 330.293 127.264 330.444 127.2C330.594 127.137 330.758 127.112 330.921 127.126C331.084 127.14 331.24 127.194 331.377 127.283L355.869 141.4C356.189 141.602 356.436 141.901 356.572 142.254C356.709 142.607 356.728 142.995 356.627 143.36C356.595 143.52 356.523 143.67 356.42 143.796C356.316 143.922 356.183 144.021 356.033 144.084C355.882 144.148 355.719 144.173 355.556 144.159C355.393 144.144 355.237 144.09 355.1 144.001Z" fill="#E8975B"/>
<path d="M293.193 152.892L279.536 145.005C279.217 144.802 278.972 144.502 278.835 144.149C278.699 143.797 278.679 143.41 278.778 143.045C278.81 142.885 278.882 142.735 278.985 142.609C279.089 142.483 279.222 142.384 279.372 142.32C279.523 142.257 279.687 142.232 279.849 142.246C280.012 142.261 280.168 142.314 280.306 142.403L293.963 150.29C294.283 150.492 294.529 150.791 294.666 151.144C294.803 151.497 294.822 151.885 294.721 152.25C294.688 152.41 294.617 152.56 294.513 152.686C294.41 152.812 294.277 152.911 294.126 152.974C293.976 153.038 293.812 153.063 293.649 153.049C293.487 153.034 293.33 152.98 293.193 152.892Z" fill="#F8359E"/>
<path d="M295.257 109.433L285.204 103.6C284.886 103.397 284.641 103.096 284.507 102.743C284.373 102.39 284.355 102.004 284.457 101.64C284.491 101.481 284.564 101.333 284.668 101.208C284.772 101.083 284.905 100.985 285.055 100.923C285.206 100.861 285.369 100.837 285.531 100.852C285.693 100.867 285.849 100.921 285.985 101.01L296.027 106.843C296.344 107.048 296.588 107.348 296.725 107.7C296.861 108.052 296.882 108.439 296.785 108.803C296.751 108.963 296.678 109.111 296.574 109.236C296.47 109.361 296.337 109.458 296.186 109.52C296.036 109.582 295.873 109.607 295.711 109.592C295.549 109.576 295.393 109.522 295.257 109.433Z" fill="#F8359E"/>
<path d="M280.62 164.757L268.958 158.048C268.641 157.842 268.398 157.542 268.262 157.191C268.126 156.839 268.104 156.453 268.199 156.088C268.234 155.928 268.307 155.778 268.411 155.652C268.516 155.526 268.65 155.427 268.801 155.364C268.953 155.301 269.117 155.276 269.28 155.29C269.444 155.304 269.601 155.358 269.739 155.447L281.402 162.167C281.719 162.371 281.964 162.671 282.1 163.023C282.236 163.375 282.257 163.762 282.16 164.127C282.126 164.287 282.054 164.438 281.949 164.564C281.844 164.69 281.71 164.789 281.558 164.851C281.406 164.913 281.241 164.937 281.077 164.921C280.914 164.904 280.757 164.848 280.62 164.757Z" fill="#E8975B"/>
<path d="M357.84 131.425L352.872 128.543C352.638 128.398 352.457 128.181 352.357 127.924C352.256 127.668 352.24 127.386 352.312 127.12C352.333 126.995 352.385 126.878 352.464 126.78C352.543 126.682 352.647 126.605 352.764 126.558C352.881 126.512 353.008 126.496 353.133 126.512C353.259 126.529 353.377 126.577 353.478 126.653L358.458 129.523C358.689 129.674 358.867 129.894 358.965 130.152C359.064 130.41 359.078 130.692 359.006 130.958C358.986 131.083 358.933 131.2 358.854 131.298C358.775 131.397 358.672 131.473 358.555 131.52C358.437 131.567 358.31 131.583 358.185 131.566C358.06 131.55 357.941 131.501 357.84 131.425Z" fill="white"/>
<path d="M367.381 136.908L362.401 134.038C362.167 133.889 361.987 133.67 361.887 133.412C361.786 133.154 361.77 132.871 361.841 132.603C361.861 132.479 361.914 132.362 361.993 132.263C362.072 132.165 362.175 132.089 362.293 132.042C362.41 131.995 362.537 131.979 362.662 131.996C362.787 132.012 362.906 132.061 363.007 132.137L367.987 135.007C368.22 135.156 368.4 135.375 368.501 135.633C368.601 135.891 368.618 136.174 368.547 136.442C368.526 136.566 368.474 136.683 368.394 136.782C368.315 136.88 368.212 136.956 368.095 137.003C367.978 137.05 367.85 137.066 367.725 137.05C367.6 137.033 367.481 136.984 367.381 136.908Z" fill="white"/>
<path d="M376.839 142.392L371.859 139.522C371.625 139.374 371.446 139.154 371.347 138.896C371.248 138.637 371.235 138.353 371.311 138.087C371.334 137.97 371.385 137.861 371.459 137.769C371.534 137.676 371.631 137.604 371.74 137.558C371.85 137.512 371.969 137.493 372.088 137.504C372.206 137.515 372.32 137.555 372.419 137.62L377.399 140.49C377.632 140.639 377.812 140.859 377.913 141.117C378.013 141.375 378.03 141.658 377.959 141.925C377.935 142.042 377.882 142.152 377.806 142.244C377.73 142.336 377.632 142.408 377.522 142.454C377.412 142.5 377.292 142.519 377.173 142.508C377.054 142.497 376.939 142.457 376.839 142.392Z" fill="white"/>
<path d="M381.504 145.087L381.352 145.005C381.121 144.855 380.944 144.635 380.845 144.377C380.747 144.119 380.732 143.837 380.804 143.57C380.825 143.446 380.878 143.329 380.957 143.23C381.036 143.132 381.139 143.056 381.256 143.009C381.373 142.962 381.501 142.946 381.626 142.962C381.751 142.979 381.87 143.028 381.971 143.104L382.122 143.197C382.351 143.347 382.527 143.565 382.625 143.82C382.724 144.076 382.739 144.355 382.67 144.62C382.65 144.745 382.597 144.862 382.518 144.96C382.439 145.059 382.336 145.135 382.218 145.182C382.101 145.229 381.974 145.245 381.849 145.228C381.724 145.211 381.605 145.163 381.504 145.087Z" fill="#F8359E"/>
<path d="M124.56 203.373C121.358 203.373 118.213 202.533 115.439 200.935L82.0951 181.673C81.4043 181.258 80.8326 180.672 80.4356 179.971C80.0387 179.269 79.8301 178.477 79.8301 177.671C79.8301 176.866 80.0387 176.073 80.4356 175.372C80.8326 174.671 81.4043 174.084 82.0951 173.67L115.463 154.42C118.234 152.82 121.377 151.979 124.577 151.979C127.777 151.979 130.92 152.82 133.692 154.42L167.036 173.681C167.741 174.083 168.328 174.664 168.736 175.366C169.144 176.068 169.36 176.865 169.36 177.677C169.36 178.489 169.144 179.287 168.736 179.989C168.328 180.691 167.741 181.272 167.036 181.673L133.692 200.935C130.915 202.537 127.765 203.378 124.56 203.373ZM116.524 199.056C118.967 200.461 121.736 201.2 124.554 201.2C127.372 201.2 130.14 200.461 132.584 199.056L165.928 179.795C166.301 179.582 166.611 179.273 166.827 178.901C167.043 178.53 167.157 178.107 167.157 177.677C167.157 177.247 167.043 176.825 166.827 176.453C166.611 176.081 166.301 175.773 165.928 175.56L132.584 156.333C130.141 154.925 127.372 154.184 124.554 154.184C121.735 154.184 118.966 154.925 116.524 156.333L83.1797 175.595C82.8064 175.808 82.4961 176.116 82.2803 176.488C82.0645 176.86 81.9508 177.282 81.9508 177.712C81.9508 178.142 82.0645 178.565 82.2803 178.936C82.4961 179.308 82.8064 179.617 83.1797 179.83L116.524 199.056Z" fill="#5C3D9E"/>
<path opacity="0.6" d="M124.384 191.356C137.035 191.356 147.29 185.433 147.29 178.126C147.29 170.82 137.035 164.896 124.384 164.896C111.734 164.896 101.479 170.82 101.479 178.126C101.479 185.433 111.734 191.356 124.384 191.356Z" fill="#020230"/>
<path d="M158.347 83.8369H93.0347L99.1343 154.502C99.1343 158.434 101.723 162.354 106.913 165.352C117.282 171.337 134.088 171.337 144.468 165.352C149.646 162.354 152.235 158.434 152.235 154.502L158.347 83.8369Z" fill="#4E2E17"/>
<path opacity="0.4" d="M158.347 83.8369H93.0347L94.0377 95.5036C95.7489 97.6306 97.793 99.4665 100.091 100.94C112.558 109.212 133.12 110.81 147.162 104.849L144.993 156.532C144.92 158.791 144.1 160.962 142.66 162.704C140.549 165.189 136.479 168.117 128.665 169.774C134.194 169.511 139.594 168.012 144.468 165.387C149.646 162.389 152.235 158.469 152.235 154.537L157.11 97.8719L158.347 83.8369Z" fill="#06033E"/>
<path opacity="0.4" d="M125.726 102.678C143.742 102.678 158.347 94.2428 158.347 83.8368C158.347 73.4308 143.742 64.9951 125.726 64.9951C107.709 64.9951 93.1045 73.4308 93.1045 83.8368C93.1045 94.2428 107.709 102.678 125.726 102.678Z" fill="#06033E"/>
<path opacity="0.4" d="M125.726 93.4264C141.243 93.4264 153.822 86.1607 153.822 77.1981C153.822 68.2354 141.243 60.9697 125.726 60.9697C110.209 60.9697 97.6299 68.2354 97.6299 77.1981C97.6299 86.1607 110.209 93.4264 125.726 93.4264Z" fill="#06033E"/>
<path d="M160.271 82.9496C160.277 82.9149 160.277 82.8794 160.271 82.8446L159.653 76.5213V76.5913C159.373 71.808 156.084 67.0596 149.751 63.408C136.502 55.7546 115.031 55.7546 101.782 63.408C95.2975 67.153 91.9969 72.0413 91.8686 76.953L91.2738 82.588C91.2738 82.728 91.2738 82.8796 91.2738 83.0196V83.113C90.9239 88.4796 94.2828 93.9163 101.374 98.0113C114.891 105.816 136.794 105.816 150.358 98.0113C157.321 93.8346 160.68 88.3513 160.271 82.9496Z" fill="#836048"/>
<path d="M125.726 93.4264C141.243 93.4264 153.822 86.1607 153.822 77.1981C153.822 68.2354 141.243 60.9697 125.726 60.9697C110.209 60.9697 97.6299 68.2354 97.6299 77.1981C97.6299 86.1607 110.209 93.4264 125.726 93.4264Z" fill="#121212"/>
<path d="M124.384 93.4264C139.901 93.4264 152.48 86.1607 152.48 77.1981C152.48 68.2354 139.901 60.9697 124.384 60.9697C108.868 60.9697 96.2886 68.2354 96.2886 77.1981C96.2886 86.1607 108.868 93.4264 124.384 93.4264Z" fill="#311D27"/>
<path opacity="0.4" d="M109.188 68.1447C120.162 61.8097 137.948 61.8097 148.923 68.1447L149.32 68.3897C148.172 67.3746 146.921 66.483 145.587 65.7297C134.613 59.3831 116.827 59.3831 105.852 65.7297C94.8773 72.0764 94.9007 82.0631 105.456 88.4214C98.4112 82.1331 99.6474 73.6514 109.188 68.1447Z" fill="#06033E"/>
<path d="M105.852 68.5416C116.827 62.2066 134.613 62.2066 145.588 68.5416C150.451 71.3533 153.157 74.9349 153.752 78.6099C154.451 74.0016 151.746 69.2766 145.588 65.7766C134.613 59.4299 116.827 59.4299 105.852 65.7766C99.7408 69.2766 97.0467 74.0483 97.6881 78.6099C98.283 74.9349 100.989 71.3533 105.852 68.5416Z" fill="#4E2E17"/>
<path d="M149.915 63.5129C136.689 55.7195 115.136 55.5212 101.77 63.0812C88.4048 70.6412 88.2998 83.0895 101.526 90.8829C114.751 98.6762 136.304 98.8745 149.67 91.3145C163.035 83.7545 163.14 71.3062 149.915 63.5129ZM145.588 88.6662C141.609 90.8531 137.259 92.2813 132.759 92.8779L132.246 91.1979C132.15 90.863 131.948 90.5682 131.67 90.3579C131.393 90.1475 131.054 90.0329 130.706 90.0312H120.618C120.269 90.0329 119.931 90.1475 119.653 90.3579C119.376 90.5682 119.174 90.863 119.078 91.1979L118.565 92.8779C114.066 92.2757 109.717 90.8479 105.736 88.6662C94.761 82.3195 94.761 72.0529 105.736 65.7179C116.711 59.3829 134.496 59.3712 145.471 65.7179C156.446 72.0645 156.563 82.3312 145.588 88.6662Z" fill="#311D27"/>
<path d="M145.587 64.5286C134.613 58.1819 116.827 58.1819 105.852 64.5286C100.102 67.8419 97.3731 72.2519 97.688 76.6036C97.9329 72.6486 100.662 68.7402 105.852 65.7302C116.827 59.3836 134.613 59.3836 145.587 65.7302C150.812 68.7402 153.541 72.6486 153.751 76.6036C154.066 72.2519 151.337 67.8419 145.587 64.5286Z" fill="white"/>
<path d="M149.669 90.1137C136.304 97.6737 114.751 97.487 101.525 89.682C95.2388 85.9837 91.9616 81.212 91.705 76.4287C91.4484 81.6087 94.7023 86.8704 101.525 90.8837C114.751 98.6887 136.304 98.8754 149.669 91.3154C156.667 87.3487 160.026 81.982 159.735 76.767C159.49 81.667 156.142 86.4504 149.669 90.1137Z" fill="white"/>
<path d="M128.747 92.1318H122.705C122.287 92.1318 121.947 92.4714 121.947 92.8902V93.0068C121.947 93.4257 122.287 93.7652 122.705 93.7652H128.747C129.165 93.7652 129.505 93.4257 129.505 93.0068V92.8902C129.505 92.4714 129.165 92.1318 128.747 92.1318Z" fill="#0C0A78"/>
<path d="M128.735 92.167H122.705C122.504 92.167 122.311 92.2469 122.169 92.3891C122.027 92.5313 121.947 92.7242 121.947 92.9253V93.0303C121.941 93.1002 121.941 93.1704 121.947 93.2403C121.988 93.08 122.082 92.938 122.213 92.8366C122.344 92.7352 122.505 92.6802 122.67 92.6803H128.7C128.865 92.6802 129.026 92.7352 129.157 92.8366C129.288 92.938 129.382 93.08 129.423 93.2403C129.434 93.1708 129.434 93.0999 129.423 93.0303V92.9253C129.424 92.7358 129.354 92.5528 129.226 92.4124C129.099 92.272 128.924 92.1845 128.735 92.167Z" fill="url(#paint2_linear_703_1638)"/>
<path opacity="0.5" d="M127.86 92.9487C127.86 92.9487 146.101 86.8353 138.718 65.8587C131.335 44.882 116.943 38.5004 122.74 21.7354C122.74 21.7354 113.666 35.3154 122.145 53.6787C130.624 72.042 132.49 69.942 132.385 78.727C132.412 81.6562 131.628 84.5356 130.119 87.046C128.61 89.5564 126.435 91.5995 123.836 92.9487H127.86Z" fill="white"/>
<path opacity="0.5" d="M129.458 24.6513C129.458 24.6513 127.569 12.1096 139.325 -0.525391C139.325 -0.525391 128.921 22.7029 132.327 34.1829C132.362 34.1829 129.61 26.8913 129.458 24.6513Z" fill="white"/>
</g>
<defs>
<linearGradient id="paint0_linear_703_1638" x1="222.096" y1="149.112" x2="430.815" y2="149.112" gradientUnits="userSpaceOnUse">
<stop stop-color="#3919BB"/>
<stop offset="1" stop-color="#6507FA"/>
</linearGradient>
<radialGradient id="paint1_radial_703_1638" cx="0" cy="0" r="1" gradientUnits="userSpaceOnUse" gradientTransform="translate(98.376 25.0713) scale(405.693 405.825)">
<stop stop-color="#E39A65"/>
<stop offset="0.47" stop-color="#A92FFB"/>
<stop offset="0.59" stop-color="#891CFB"/>
<stop offset="0.73" stop-color="#6507FA"/>
<stop offset="1" stop-color="#3919BB"/>
</radialGradient>
<linearGradient id="paint2_linear_703_1638" x1="121.271" y1="92.6687" x2="131.079" y2="92.6687" gradientUnits="userSpaceOnUse">
<stop stop-color="#131060"/>
<stop offset="0.19" stop-color="#141062"/>
<stop offset="0.28" stop-color="#19106A"/>
<stop offset="0.36" stop-color="#221078"/>
<stop offset="0.42" stop-color="#2E0F8B"/>
<stop offset="0.48" stop-color="#3E0FA3"/>
<stop offset="0.54" stop-color="#510EC2"/>
<stop offset="0.58" stop-color="#680DE5"/>
<stop offset="0.61" stop-color="#740DF8"/>
<stop offset="0.62" stop-color="#7A14F0"/>
<stop offset="0.68" stop-color="#9B3CC3"/>
<stop offset="0.75" stop-color="#B75D9D"/>
<stop offset="0.81" stop-color="#CC7680"/>
<stop offset="0.88" stop-color="#DC886C"/>
<stop offset="0.94" stop-color="#E5935F"/>
<stop offset="1" stop-color="#E8975B"/>
</linearGradient>
<clipPath id="clip0_703_1638">
<rect width="512" height="378" fill="white"/>
</clipPath>
</defs>
</svg>
