<svg width="57" height="57" viewBox="0 0 57 57" fill="none" xmlns="http://www.w3.org/2000/svg">
<g filter="url(#filter0_i_703_2041)">
<circle cx="28.5" cy="28.5" r="28.5" fill="#2E9F8B"/>
</g>
<g opacity="0.8" clip-path="url(#clip0_703_2041)">
<path d="M40.1477 29.0696L34.9502 26.6771V19.8221C34.9478 19.6783 34.9041 19.5382 34.8243 19.4185C34.7446 19.2988 34.632 19.2046 34.5002 19.1471L28.8752 16.5596C28.7765 16.5139 28.669 16.4902 28.5602 16.4902C28.4514 16.4902 28.3439 16.5139 28.2452 16.5596L22.6202 19.1471C22.49 19.2073 22.3798 19.3037 22.3027 19.4246C22.2256 19.5456 22.1848 19.6861 22.1852 19.8296V26.6846L17.0102 29.0696C16.88 29.1298 16.7698 29.2262 16.6927 29.3471C16.6156 29.4681 16.5748 29.6086 16.5752 29.7521V37.0871C16.5748 37.2305 16.6156 37.3711 16.6927 37.4921C16.7698 37.613 16.88 37.7093 17.0102 37.7696L22.6352 40.3571C22.7339 40.4028 22.8414 40.4264 22.9502 40.4264C23.059 40.4264 23.1665 40.4028 23.2652 40.3571L28.5752 37.9121L33.8852 40.3571C33.9839 40.4028 34.0914 40.4264 34.2002 40.4264C34.309 40.4264 34.4165 40.4028 34.5152 40.3571L40.1402 37.7696C40.2704 37.7093 40.3806 37.613 40.4577 37.4921C40.5348 37.3711 40.5756 37.2305 40.5752 37.0871V29.7521C40.5762 29.6095 40.5365 29.4695 40.4608 29.3486C40.3851 29.2277 40.2765 29.1309 40.1477 29.0696ZM38.0402 29.7521L34.2077 31.4996L30.3752 29.7521L34.2077 27.9896L38.0402 29.7521ZM28.5752 18.0596L32.4077 19.8221L28.5752 21.5846L24.7502 19.8221L28.5752 18.0596ZM22.9502 27.9821L26.7827 29.7446L22.9502 31.4996L19.1177 29.7521L22.9502 27.9821ZM27.8252 36.5996L22.9502 38.8496L18.0752 36.5996V30.9221L22.6352 32.9996C22.7319 33.0431 22.8367 33.0655 22.9427 33.0655C23.0487 33.0655 23.1535 33.0431 23.2502 32.9996L27.8102 30.8996L27.8252 36.5996ZM23.7002 26.6771V20.9996L28.2602 23.0996C28.3589 23.1453 28.4664 23.1689 28.5752 23.1689C28.684 23.1689 28.7915 23.1453 28.8902 23.0996L33.4502 20.9996V26.6846L28.5752 28.9346L23.7002 26.6771ZM39.0827 36.6071L34.2077 38.8571L29.3252 36.6071V30.9146L33.8927 32.9996C33.9884 33.042 34.0918 33.0639 34.1964 33.0639C34.3011 33.0639 34.4045 33.042 34.5002 32.9996L39.0602 30.8996L39.0827 36.6071Z" fill="#F8F8F8"/>
</g>
<defs>
<filter id="filter0_i_703_2041" x="0" y="0" width="57" height="57" filterUnits="userSpaceOnUse" color-interpolation-filters="sRGB">
<feFlood flood-opacity="0" result="BackgroundImageFix"/>
<feBlend mode="normal" in="SourceGraphic" in2="BackgroundImageFix" result="shape"/>
<feColorMatrix in="SourceAlpha" type="matrix" values="0 0 0 0 0 0 0 0 0 0 0 0 0 0 0 0 0 0 127 0" result="hardAlpha"/>
<feOffset/>
<feGaussianBlur stdDeviation="2"/>
<feComposite in2="hardAlpha" operator="arithmetic" k2="-1" k3="1"/>
<feColorMatrix type="matrix" values="0 0 0 0 1 0 0 0 0 1 0 0 0 0 1 0 0 0 1 0"/>
<feBlend mode="normal" in2="shape" result="effect1_innerShadow_703_2041"/>
</filter>
<clipPath id="clip0_703_2041">
<rect width="27" height="27" fill="white" transform="translate(15 15)"/>
</clipPath>
</defs>
</svg>
