<svg width="33" height="45" viewBox="0 0 33 45" fill="none" xmlns="http://www.w3.org/2000/svg">
<path d="M26.5208 0.689453C27.6615 0.689453 28.7555 1.13886 29.5621 1.9388C30.3687 2.73874 30.8219 3.82369 30.8219 4.95498V39.0792C30.8219 40.2105 30.3687 41.2954 29.5621 42.0954C28.7555 42.8953 27.6615 43.3447 26.5208 43.3447H5.01543C3.87471 43.3447 2.78072 42.8953 1.97411 42.0954C1.1675 41.2954 0.714355 40.2105 0.714355 39.0792V4.95498C0.714355 3.82369 1.1675 2.73874 1.97411 1.9388C2.78072 1.13886 3.87471 0.689453 5.01543 0.689453L26.5208 0.689453ZM27.8111 33.5084H3.72511V39.0792C3.72511 39.4186 3.86105 39.7441 4.10303 39.9841C4.34502 40.224 4.67322 40.3589 5.01543 40.3589H26.5208C26.863 40.3589 27.1912 40.224 27.4332 39.9841C27.6752 39.7441 27.8111 39.4186 27.8111 39.0792V33.5084ZM15.7681 34.8137C16.3385 34.8137 16.8855 35.0384 17.2888 35.4383C17.6921 35.8383 17.9187 36.3808 17.9187 36.9464C17.9187 37.5121 17.6921 38.0546 17.2888 38.4545C16.8855 38.8545 16.3385 39.0792 15.7681 39.0792C15.1978 39.0792 14.6508 38.8545 14.2475 38.4545C13.8442 38.0546 13.6176 37.5121 13.6176 36.9464C13.6176 36.3808 13.8442 35.8383 14.2475 35.4383C14.6508 35.0384 15.1978 34.8137 15.7681 34.8137ZM26.5208 3.67532H5.01543C4.67322 3.67532 4.34502 3.81014 4.10303 4.05013C3.86105 4.29011 3.72511 4.61559 3.72511 4.95498V30.5226H27.8111V4.95498C27.8111 4.61559 27.6752 4.29011 27.4332 4.05013C27.1912 3.81014 26.863 3.67532 26.5208 3.67532Z" fill="#EAD1A6"/>
<path d="M24.4898 20.7525L23.4333 12.2215C23.3945 11.8945 23.2216 11.5921 22.948 11.3729C22.6744 11.1536 22.3197 11.0333 21.9526 11.0351H19.7056C19.5048 10.2758 19.0239 9.59947 18.3406 9.11547C17.6574 8.63147 16.8118 8.36816 15.9407 8.36816C15.0696 8.36816 14.224 8.63147 13.5408 9.11547C12.8575 9.59947 12.3766 10.2758 12.1758 11.0351H9.9288C9.56173 11.0333 9.20699 11.1536 8.9334 11.3729C8.65981 11.5921 8.48687 11.8945 8.44814 12.2215L7.3916 20.7525C7.36632 20.9381 7.38579 21.1263 7.44869 21.3045C7.51158 21.4827 7.61644 21.6468 7.75618 21.7856C7.89548 21.9257 8.06623 22.0379 8.25727 22.1149C8.44832 22.1918 8.65534 22.2318 8.86481 22.2321H23.0166C23.2261 22.2318 23.4331 22.1918 23.6241 22.1149C23.8152 22.0379 23.9859 21.9257 24.1252 21.7856C24.265 21.6468 24.3698 21.4827 24.4327 21.3045C24.4956 21.1263 24.5151 20.9381 24.4898 20.7525ZM15.9407 9.96874C16.335 9.96872 16.7211 10.0689 17.0544 10.2577C17.3876 10.4464 17.6542 10.716 17.8231 11.0351H14.0583C14.2272 10.716 14.4938 10.4464 14.827 10.2577C15.1603 10.0689 15.5464 9.96872 15.9407 9.96874ZM9.19963 20.6326L10.1892 12.6347H12.0717V13.9677C12.0717 14.1798 12.1657 14.3832 12.3332 14.5332C12.5006 14.6832 12.7277 14.7675 12.9645 14.7675C13.2013 14.7675 13.4284 14.6832 13.5959 14.5332C13.7633 14.3832 13.8574 14.1798 13.8574 13.9677V12.6347H18.024V13.9677C18.024 14.1798 18.1181 14.3832 18.2855 14.5332C18.453 14.6832 18.6801 14.7675 18.9169 14.7675C19.1537 14.7675 19.3808 14.6832 19.5482 14.5332C19.7157 14.3832 19.8098 14.1798 19.8098 13.9677V12.6347H21.6922L22.6818 20.6326H9.19963Z" fill="#EAD1A6"/>
</svg>
