<svg width="25" height="25" viewBox="0 0 25 25" fill="none" xmlns="http://www.w3.org/2000/svg">
<g clip-path="url(#clip0_703_1633)">
<path d="M20.8438 16.0208C19.5625 16.0208 18.3229 15.8125 17.1667 15.4375C16.8021 15.3125 16.3958 15.4062 16.1146 15.6875L14.4792 17.7396C11.5312 16.3333 8.77083 13.6771 7.30208 10.625L9.33333 8.89583C9.61458 8.60417 9.69792 8.19792 9.58333 7.83333C9.19792 6.67708 9 5.4375 9 4.15625C9 3.59375 8.53125 3.125 7.96875 3.125H4.36458C3.80208 3.125 3.125 3.375 3.125 4.15625C3.125 13.8333 11.1771 21.875 20.8438 21.875C21.5833 21.875 21.875 21.2187 21.875 20.6458V17.0521C21.875 16.4896 21.4062 16.0208 20.8438 16.0208Z" fill="white"/>
</g>
<defs>
<clipPath id="clip0_703_1633">
<rect width="25" height="25" fill="white"/>
</clipPath>
</defs>
</svg>
