<svg width="57" height="68" viewBox="0 0 57 68" fill="none" xmlns="http://www.w3.org/2000/svg">
<g clip-path="url(#clip0_703_2029)">
<circle cx="28.5" cy="37.5" r="28.5" fill="#E64467"/>
<path d="M39.0992 38.0696L34.2266 35.6771L34.2266 28.8221C34.2243 28.6783 34.1834 28.5382 34.1086 28.4185C34.0338 28.2988 33.9283 28.2046 33.8047 28.1471L28.5313 25.5596C28.4387 25.5139 28.3379 25.4902 28.2359 25.4902C28.134 25.4902 28.0332 25.5139 27.9406 25.5596L22.6672 28.1471C22.5451 28.2073 22.4419 28.3037 22.3696 28.4246C22.2973 28.5456 22.259 28.6861 22.2594 28.8296L22.2594 35.6846L17.4078 38.0696C17.2858 38.1298 17.1825 38.2262 17.1102 38.3471C17.0379 38.4681 16.9997 38.6086 17 38.7521L17 46.0871C16.9997 46.2305 17.0379 46.3711 17.1102 46.4921C17.1825 46.613 17.2858 46.7093 17.4078 46.7696L22.6813 49.3571C22.7738 49.4028 22.8746 49.4264 22.9766 49.4264C23.0786 49.4264 23.1793 49.4028 23.2719 49.3571L28.25 46.9121L33.2281 49.3571C33.3207 49.4028 33.4214 49.4264 33.5234 49.4264C33.6254 49.4264 33.7262 49.4028 33.8188 49.3571L39.0922 46.7696C39.2142 46.7093 39.3175 46.613 39.3898 46.4921C39.4621 46.3711 39.5003 46.2305 39.5 46.0871L39.5 38.7521C39.501 38.6095 39.4638 38.4695 39.3928 38.3486C39.3218 38.2277 39.22 38.1309 39.0992 38.0696ZM37.1234 38.7521L33.5305 40.4996L29.9375 38.7521L33.5305 36.9896L37.1234 38.7521ZM28.25 27.0596L31.843 28.8221L28.25 30.5846L24.6641 28.8221L28.25 27.0596ZM22.9766 36.9821L26.5695 38.7446L22.9766 40.4996L19.3836 38.7521L22.9766 36.9821ZM27.5469 45.5996L22.9766 47.8496L18.4063 45.5996L18.4063 39.9221L22.6813 41.9996C22.7719 42.0431 22.8702 42.0655 22.9695 42.0655C23.0689 42.0655 23.1672 42.0431 23.2578 41.9996L27.5328 39.8996L27.5469 45.5996ZM23.6797 35.6771L23.6797 29.9996L27.9547 32.0996C28.0472 32.1453 28.148 32.1689 28.25 32.1689C28.352 32.1689 28.4528 32.1453 28.5453 32.0996L32.8203 29.9996L32.8203 35.6846L28.25 37.9346L23.6797 35.6771ZM38.1008 45.6071L33.5305 47.8571L28.9531 45.6071L28.9531 39.9146L33.2352 41.9996C33.3248 42.042 33.4218 42.0639 33.5199 42.0639C33.618 42.0639 33.715 42.042 33.8047 41.9996L38.0797 39.8996L38.1008 45.6071Z" fill="#F8F8F8"/>
</g>
<defs>
<clipPath id="clip0_703_2029">
<rect width="57" height="68" fill="white"/>
</clipPath>
</defs>
</svg>
