<svg width="68" height="80" viewBox="0 0 68 80" fill="none" xmlns="http://www.w3.org/2000/svg">
<path fill-rule="evenodd" clip-rule="evenodd" d="M16.9393 8.04595L0 14.0881V29.4524C0 43.4232 0.0290892 44.998 0.320871 46.8149C1.63433 54.9942 4.99258 61.4036 11.0668 67.3236C14.6863 70.8513 18.428 73.4875 23.4135 76.0227C27.1556 77.9255 32.6837 80 34.0122 80C34.6903 80 38.7673 78.646 41.0592 77.6595C46.9466 75.1256 52.1834 71.7734 56.3203 67.8904C63.1713 61.4598 67.0269 53.6547 67.8469 44.5562C67.976 43.1247 68.0243 37.5585 67.9886 28.2282L67.9347 14.0721L50.9954 8.03414C41.6787 4.71319 34.0161 1.99774 33.9673 2C33.9186 2.00226 26.256 4.72292 16.9393 8.04595ZM51.0855 29.9631L53.032 31.8757L40.6617 43.9927L28.2915 56.1097L21.6025 49.5578L14.9137 43.0059L16.8994 41.0445L18.8851 39.0833L23.5888 43.6868L28.2924 48.2903L38.6238 38.1704C44.306 32.6045 48.9965 28.0505 49.0471 28.0505C49.0976 28.0505 50.0148 28.9112 51.0855 29.9631Z" fill="#2BC48A"/>
</svg>
