<svg width="41" height="41" viewBox="0 0 41 41" fill="none" xmlns="http://www.w3.org/2000/svg">
<path d="M20.5003 3.41699C11.0806 3.41699 3.41699 11.0806 3.41699 20.5003V27.578C3.41699 29.3273 4.94937 30.7503 6.83366 30.7503H8.54199C8.99507 30.7503 9.42959 30.5703 9.74997 30.25C10.0703 29.9296 10.2503 29.4951 10.2503 29.042V20.256C10.2503 19.803 10.0703 19.3684 9.74997 19.0481C9.42959 18.7277 8.99507 18.5477 8.54199 18.5477H6.99083C7.94066 11.9365 13.6294 6.83366 20.5003 6.83366C27.3712 6.83366 33.06 11.9365 34.0098 18.5477H32.4587C32.0056 18.5477 31.5711 18.7277 31.2507 19.0481C30.9303 19.3684 30.7503 19.803 30.7503 20.256V30.7503C30.7503 32.6346 29.218 34.167 27.3337 34.167H23.917V32.4587H17.0837V37.5837H27.3337C31.1022 37.5837 34.167 34.5189 34.167 30.7503C36.0513 30.7503 37.5837 29.3273 37.5837 27.578V20.5003C37.5837 11.0806 29.9201 3.41699 20.5003 3.41699Z" fill="#EAD1A6"/>
</svg>
