<svg width="33" height="33" viewBox="0 0 33 33" fill="none" xmlns="http://www.w3.org/2000/svg">
<path fill-rule="evenodd" clip-rule="evenodd" d="M31.2404 8.50781C31.4699 7.78078 31.2404 7.25227 30.2253 7.25227H26.8499C25.9985 7.25227 25.6053 7.71504 25.3758 8.21004C25.3758 8.21004 23.6395 12.4382 21.2147 15.1794C20.4284 15.9721 20.0681 16.2364 19.6421 16.2364C19.4126 16.2364 19.1174 15.9721 19.1174 15.2457V8.47365C19.1174 7.61514 18.8558 7.21875 18.1345 7.21875H12.8262C12.3015 7.21875 11.9741 7.61514 11.9741 8.01152C11.9741 8.83717 13.1865 9.03568 13.3173 11.3476V16.3711C13.3173 17.461 13.1239 17.6602 12.6947 17.6602C11.5481 17.6602 8.76305 13.3992 7.09242 8.54391C6.76758 7.58227 6.43758 7.21875 5.58551 7.21875H2.17787C1.19496 7.21875 1.03125 7.68088 1.03125 8.17652C1.03125 9.06855 2.17787 13.5603 6.37184 19.5054C9.15686 23.566 13.1214 25.7484 16.6927 25.7484C18.8558 25.7484 19.1174 25.2527 19.1174 24.4271V21.3553C19.1174 20.3646 19.314 20.1996 20.0024 20.1996C20.4935 20.1996 21.3785 20.4632 23.3771 22.4123C25.6704 24.7242 26.0636 25.7812 27.3417 25.7812H30.7164C31.6993 25.7812 32.1582 25.2856 31.8959 24.3278C31.6014 23.3701 30.487 21.983 29.0452 20.3317C28.2588 19.4075 27.0793 18.3833 26.719 17.8877C26.2279 17.227 26.3587 16.9628 26.719 16.3685C26.6862 16.3685 30.815 10.4891 31.2404 8.50523" fill="white"/>
</svg>
