<svg width="49" height="20" viewBox="0 0 49 20" fill="none" xmlns="http://www.w3.org/2000/svg">
<g clip-path="url(#clip0_703_2101)">
<path d="M7.95778 0.0976562H5.38519C2.81249 0.0976562 0.598881 1.98868 0.598881 5.65246C0.598881 7.83898 1.67573 9.49358 3.53046 10.3209L0.0603593 16.4667C-0.0592696 16.644 0.0603592 16.8212 0.239898 16.8212H1.85527C1.9749 16.8212 2.09453 16.7622 2.15434 16.644L5.32537 10.6164H6.46204V16.644C6.46204 16.7031 6.52195 16.8212 6.64158 16.8212H8.07751C8.19713 16.8212 8.25695 16.7622 8.25695 16.644V0.333975C8.19713 0.156736 8.13732 0.0976562 7.95778 0.0976562ZM6.46204 9.19818H5.50481C1.37666 9.19818 1.67573 1.51594 5.32537 1.51594H6.52195V9.19818H6.46204Z" fill="#FF0000"/>
<path d="M16.5727 5.65229H15.1369C15.0173 5.65229 14.9574 5.71137 14.9574 5.82963V10.0843H12.3248V5.82963C12.3248 5.71147 12.265 5.65229 12.1454 5.65229H10.7693C10.6497 5.65229 10.5898 5.71137 10.5898 5.82963V16.6438C10.5898 16.762 10.6497 16.8211 10.7693 16.8211H12.2052C12.3248 16.8211 12.3848 16.762 12.3848 16.6438V11.4435H15.0172V16.6438C15.0172 16.762 15.077 16.8211 15.1967 16.8211H16.6325C16.7522 16.8211 16.8121 16.762 16.8121 16.6438V5.82963C16.7523 5.71147 16.6924 5.65229 16.5727 5.65229ZM48.8805 15.3438C48.8805 15.2847 48.8207 15.2847 48.7608 15.2847C48.1625 15.2847 44.513 16.9985 44.513 11.3254C44.513 8.84354 45.4702 5.35699 47.7437 7.42525C47.8035 7.48433 47.8633 7.48433 47.9232 7.48433C47.983 7.48433 48.0428 7.42525 48.1027 7.30709L48.7009 6.30245C48.7607 6.24337 48.7607 6.18429 48.7607 6.12521C48.7607 6.00705 48.6411 5.94788 48.5215 5.8888C44.5728 3.9387 42.5386 7.54341 42.5386 11.7391C42.5386 17.1757 46.5471 17.944 48.8206 16.2894C48.9402 16.2303 48.9402 16.112 48.9402 16.053L48.8805 15.3438ZM39.0685 10.6754L41.8206 5.77064C41.8805 5.71147 41.8206 5.59331 41.7608 5.59331H40.3847C39.9659 5.59331 39.8463 5.71147 39.7266 6.00696C39.6069 6.30245 37.5728 10.4981 37.3334 10.6754V5.77055C37.3334 5.71137 37.2736 5.59321 37.2138 5.59321H35.718C35.6582 5.59321 35.5984 5.65229 35.5984 5.77055V16.6438C35.5984 16.7029 35.6582 16.8211 35.718 16.8211H37.2138C37.3334 16.8211 37.3334 16.762 37.3334 16.6438V11.0299C37.513 11.148 40.0257 16.2893 40.0855 16.4665C40.2052 16.7028 40.4445 16.8211 40.7437 16.8211H42.2394C42.3591 16.8211 42.3591 16.762 42.2993 16.6438L39.0685 10.6754ZM25.9659 15.403H25.6667C25.3078 15.403 25.2479 15.2848 25.2479 14.9892V5.77055C25.2479 5.65239 25.1881 5.59321 25.1283 5.59321H20.5214C20.4018 5.59321 20.342 5.65229 20.342 5.77055C20.342 8.25246 20.4018 12.3891 18.7265 15.4029H18.248C18.1284 15.4029 18.0685 15.462 18.0685 15.5801V18.8303C18.0685 18.9484 18.1881 19.0076 18.248 19.0076H19.3249C19.5641 19.0076 19.6838 18.8303 19.6838 18.653V16.8211H24.5301V18.8303C24.5301 18.8894 24.5899 19.0076 24.7095 19.0076H25.9061C26.0257 19.0076 26.2052 18.8894 26.2052 18.653V15.5801C26.1454 15.462 26.0856 15.4029 25.966 15.4029L25.9659 15.403ZM23.4531 15.403H20.1025C21.0599 13.8665 21.9573 11.3846 21.9573 7.0116H23.453L23.4531 15.403ZM30.6326 5.35699C28.1796 5.35699 27.0428 8.37071 27.0428 11.6799C27.0428 17.1167 30.8719 17.944 33.5043 16.3484C33.624 16.2894 33.624 16.2303 33.624 16.1712L33.4445 15.403C33.4445 15.3438 33.3847 15.2848 33.2651 15.2848C32.3078 15.2848 28.9574 16.9393 28.9574 11.5619C30.154 11.68 30.154 11.68 33.7437 11.68C33.6839 8.9617 33.3848 5.35699 30.6326 5.35699ZM29.0173 10.3206C29.0173 6.00677 31.8891 5.17947 31.8891 10.2025C30.6327 10.2025 30.0942 10.2025 29.0173 10.3206Z" fill="white"/>
</g>
<defs>
<clipPath id="clip0_703_2101">
<rect width="49" height="19" fill="white" transform="translate(0 0.0976562)"/>
</clipPath>
</defs>
</svg>
