<svg width="60" height="60" viewBox="0 0 60 60" fill="none" xmlns="http://www.w3.org/2000/svg">
<path d="M37.425 56.875H22.425C8.84999 56.875 3.04999 51.075 3.04999 37.5V22.5C3.04999 8.925 8.84999 3.125 22.425 3.125H27.425C28.45 3.125 29.3 3.975 29.3 5C29.3 6.025 28.45 6.875 27.425 6.875H22.425C10.9 6.875 6.79999 10.975 6.79999 22.5V37.5C6.79999 49.025 10.9 53.125 22.425 53.125H37.425C48.95 53.125 53.05 49.025 53.05 37.5V32.5C53.05 31.475 53.9 30.625 54.925 30.625C55.95 30.625 56.8 31.475 56.8 32.5V37.5C56.8 51.075 51.025 56.875 37.425 56.875Z" fill="#EAD1A6"/>
<path d="M31.95 38.0997C31.575 38.0997 31.225 37.9997 30.9 37.7747C30.375 37.4247 30.075 36.8497 30.075 36.2247C30.075 35.9497 30.05 35.6497 30 35.3497C29.825 34.0247 29.225 32.8497 28.225 31.8247C27.2 30.7997 25.95 30.1497 24.575 29.9747C24.375 29.9497 24.05 29.9247 23.75 29.9497C23.125 29.9997 22.5 29.7247 22.125 29.2247C21.75 28.7247 21.65 28.0497 21.85 27.4497C22.15 26.5997 22.625 25.7997 23.175 25.1747L26.25 21.3247C31.6 14.6497 42.375 6.64972 50.325 3.47472C52.15 2.77472 54.075 3.17472 55.4 4.49972C56.775 5.87472 57.175 7.82472 56.45 9.59972C53.275 17.5247 45.275 28.3247 38.625 33.6497L34.7 36.7997C33.925 37.3497 33.3 37.7247 32.65 37.9747C32.425 38.0497 32.175 38.0997 31.95 38.0997ZM26.8 26.6747C28.325 27.1747 29.7 28.0247 30.875 29.1747C32.025 30.3247 32.85 31.6497 33.325 33.0747L36.275 30.6997C42.5 25.6997 50 15.5997 52.975 8.17472C53.175 7.69972 52.95 7.34972 52.75 7.12472C52.625 6.99972 52.275 6.72472 51.7 6.94972C44.3 9.92472 34.2 17.4247 29.2 23.6497L26.8 26.6747Z" fill="#EAD1A6"/>
<path d="M19.25 46.8746C17.65 46.8746 16.125 46.2496 14.975 45.0996C13.65 43.7746 13 41.9496 13.225 40.0746L13.75 35.1746C14.3 30.0996 18.425 26.3496 23.6 26.2496C24 26.2246 24.5 26.2496 24.975 26.2746C27.25 26.5746 29.275 27.5746 30.875 29.1996C32.475 30.7996 33.45 32.6996 33.725 34.8496C33.8 35.3246 33.825 35.7996 33.825 36.2496C33.825 38.9746 32.775 41.5496 30.85 43.4746C29.275 45.0496 27.225 46.0246 24.9 46.3246L19.95 46.8496C19.7 46.8746 19.475 46.8746 19.25 46.8746ZM24 29.9746C23.925 29.9746 23.825 29.9746 23.75 29.9746C20.875 30.0496 17.85 31.9746 17.475 35.5746L16.95 40.4996C16.875 41.2246 17.125 41.9496 17.625 42.4496C18.125 42.9496 18.825 43.1996 19.525 43.1246L24.45 42.5996C25.9 42.4246 27.2 41.7996 28.175 40.8246C29.375 39.5996 30.05 37.9996 30.05 36.2496C30.05 35.9746 30.025 35.6746 29.975 35.3746C29.8 34.0496 29.2 32.8746 28.2 31.8496C27.175 30.8246 25.925 30.1746 24.55 29.9996C24.425 29.9746 24.225 29.9746 24 29.9746Z" fill="#EAD1A6"/>
<path d="M39.55 31.8246C38.525 31.8246 37.675 30.9746 37.675 29.9496C37.675 25.7746 34.275 22.3496 30.075 22.3496C29.05 22.3496 28.2 21.4996 28.2 20.4746C28.2 19.4496 29.05 18.5996 30.075 18.5996C36.325 18.5996 41.425 23.6746 41.425 29.9496C41.425 30.9746 40.6 31.8246 39.55 31.8246Z" fill="#EAD1A6"/>
</svg>
