<svg width="60" height="60" viewBox="0 0 60 60" fill="none" xmlns="http://www.w3.org/2000/svg">
<path d="M47.5 41.876C46.475 41.876 45.625 41.026 45.625 40.001V16.251C45.625 14.526 44.225 13.126 42.5 13.126H31.25C30.225 13.126 29.375 12.276 29.375 11.251C29.375 10.226 30.225 9.37598 31.25 9.37598H42.5C46.3 9.37598 49.375 12.451 49.375 16.251V40.001C49.375 41.026 48.525 41.876 47.5 41.876Z" fill="#EAD1A6"/>
<path d="M37.5 19.3753C37.075 19.3753 36.65 19.2253 36.3 18.9503L28.8 12.7003C28.375 12.3503 28.125 11.8253 28.125 11.2503C28.125 10.6753 28.375 10.1753 28.8 9.80031L36.3 3.55031C37.1 2.87531 38.275 3.00032 38.95 3.80032C39.625 4.60032 39.5 5.77532 38.7 6.45032L32.925 11.2503L38.7 16.0503C39.5 16.7253 39.6 17.9003 38.95 18.7003C38.575 19.1503 38.025 19.3753 37.5 19.3753Z" fill="#EAD1A6"/>
<path d="M12.5001 41.876C11.4751 41.876 10.6251 41.026 10.6251 40.001V22.501C10.6251 21.476 11.4751 20.626 12.5001 20.626C13.5251 20.626 14.3751 21.476 14.3751 22.501V40.001C14.3751 41.026 13.5251 41.876 12.5001 41.876Z" fill="#EAD1A6"/>
<path d="M13.125 23.125C7.6 23.125 3.125 18.65 3.125 13.125C3.125 7.6 7.6 3.125 13.125 3.125C18.65 3.125 23.125 7.6 23.125 13.125C23.125 18.65 18.65 23.125 13.125 23.125ZM13.125 6.875C9.675 6.875 6.875 9.675 6.875 13.125C6.875 16.575 9.675 19.375 13.125 19.375C16.575 19.375 19.375 16.575 19.375 13.125C19.375 9.675 16.575 6.875 13.125 6.875Z" fill="#EAD1A6"/>
<path d="M12.5 56.875C7.325 56.875 3.125 52.675 3.125 47.5C3.125 42.325 7.325 38.125 12.5 38.125C17.675 38.125 21.875 42.325 21.875 47.5C21.875 52.675 17.675 56.875 12.5 56.875ZM12.5 41.875C9.4 41.875 6.875 44.4 6.875 47.5C6.875 50.6 9.4 53.125 12.5 53.125C15.6 53.125 18.125 50.6 18.125 47.5C18.125 44.4 15.6 41.875 12.5 41.875Z" fill="#EAD1A6"/>
<path d="M47.5 56.875C42.325 56.875 38.125 52.675 38.125 47.5C38.125 42.325 42.325 38.125 47.5 38.125C52.675 38.125 56.875 42.325 56.875 47.5C56.875 52.675 52.675 56.875 47.5 56.875ZM47.5 41.875C44.4 41.875 41.875 44.4 41.875 47.5C41.875 50.6 44.4 53.125 47.5 53.125C50.6 53.125 53.125 50.6 53.125 47.5C53.125 44.4 50.6 41.875 47.5 41.875Z" fill="#EAD1A6"/>
</svg>
