<svg width="60" height="60" viewBox="0 0 60 60" fill="none" xmlns="http://www.w3.org/2000/svg">
<g clip-path="url(#clip0_1017_3072)">
<path d="M30 56.875C15.175 56.875 3.125 44.825 3.125 30C3.125 15.175 15.175 3.125 30 3.125C44.825 3.125 56.875 15.175 56.875 30C56.875 44.825 44.825 56.875 30 56.875ZM30 6.875C17.25 6.875 6.875 17.25 6.875 30C6.875 42.75 17.25 53.125 30 53.125C42.75 53.125 53.125 42.75 53.125 30C53.125 17.25 42.75 6.875 30 6.875Z" fill="#EAD1A6"/>
<path d="M22.5 54.375H20C18.975 54.375 18.125 53.525 18.125 52.5C18.125 51.475 18.925 50.65 19.95 50.625C16.025 37.225 16.025 22.775 19.95 9.375C18.925 9.35 18.125 8.525 18.125 7.5C18.125 6.475 18.975 5.625 20 5.625H22.5C23.1 5.625 23.675 5.925 24.025 6.4C24.375 6.9 24.475 7.525 24.275 8.1C19.575 22.225 19.575 37.775 24.275 51.925C24.475 52.5 24.375 53.125 24.025 53.625C23.675 54.075 23.1 54.375 22.5 54.375Z" fill="#EAD1A6"/>
<path d="M37.5 54.3747C37.3 54.3747 37.1 54.3497 36.9 54.2747C35.925 53.9497 35.375 52.8747 35.725 51.8997C40.425 37.7747 40.425 22.2247 35.725 8.07472C35.4 7.09972 35.925 6.02472 36.9 5.69972C37.9 5.37472 38.95 5.89972 39.275 6.87472C44.25 21.7747 44.25 38.1747 39.275 53.0497C39.025 53.8747 38.275 54.3747 37.5 54.3747Z" fill="#EAD1A6"/>
<path d="M30 43C23.025 43 16.075 42.025 9.375 40.05C9.35 41.05 8.525 41.875 7.5 41.875C6.475 41.875 5.625 41.025 5.625 40V37.5C5.625 36.9 5.925 36.325 6.4 35.975C6.9 35.625 7.525 35.525 8.1 35.725C22.225 40.425 37.8 40.425 51.925 35.725C52.5 35.525 53.125 35.625 53.625 35.975C54.125 36.325 54.4 36.9 54.4 37.5V40C54.4 41.025 53.55 41.875 52.525 41.875C51.5 41.875 50.675 41.075 50.65 40.05C43.925 42.025 36.975 43 30 43Z" fill="#EAD1A6"/>
<path d="M52.5 24.3754C52.3 24.3754 52.1 24.3504 51.9 24.2754C37.775 19.5754 22.2 19.5754 8.07499 24.2754C7.07499 24.6004 6.02499 24.0754 5.69999 23.1004C5.39999 22.1004 5.92499 21.0504 6.89999 20.7254C21.8 15.7504 38.2 15.7504 53.075 20.7254C54.05 21.0504 54.6 22.1254 54.25 23.1004C54.025 23.8754 53.275 24.3754 52.5 24.3754Z" fill="#EAD1A6"/>
</g>
<defs>
<clipPath id="clip0_1017_3072">
<rect width="60" height="60" fill="white"/>
</clipPath>
</defs>
</svg>
