<svg width="60" height="60" viewBox="0 0 60 60" fill="none" xmlns="http://www.w3.org/2000/svg">
<path d="M29.9998 56.9C27.2748 56.9 24.5748 56.1 22.4498 54.525L11.6998 46.5C8.84975 44.375 6.62476 39.95 6.62476 36.4V17.825C6.62476 13.975 9.4498 9.87499 13.0748 8.52499L25.5498 3.85C28.0248 2.925 31.9248 2.925 34.3998 3.85L46.8998 8.52499C50.5248 9.87499 53.3497 13.975 53.3497 17.825V36.4C53.3497 39.95 51.1248 44.375 48.2748 46.5L37.5248 54.525C35.4248 56.1 32.7248 56.9 29.9998 56.9ZM26.8748 7.34998L14.3998 12.025C12.2498 12.825 10.3748 15.525 10.3748 17.825V36.4C10.3748 38.775 12.0498 42.1 13.9248 43.5L24.6748 51.5249C27.5498 53.6749 32.4248 53.6749 35.2998 51.5249L46.0498 43.5C47.9498 42.075 49.5997 38.75 49.5997 36.4V17.825C49.5997 15.55 47.7248 12.85 45.5748 12.025L33.0997 7.34998C31.4497 6.72498 28.5498 6.72498 26.8748 7.34998Z" fill="#EAD1A6"/>
<path d="M29.9998 29.1754C29.9498 29.1754 29.8998 29.1754 29.8248 29.1754C26.1998 29.0754 23.5498 26.3004 23.5498 22.9254C23.5498 19.4754 26.3748 16.6504 29.8248 16.6504C33.2748 16.6504 36.0998 19.4754 36.0998 22.9254C36.0748 26.3254 33.4247 29.0754 30.0497 29.2004C30.0247 29.1754 30.0248 29.1754 29.9998 29.1754ZM29.8248 20.4004C28.4248 20.4004 27.2998 21.5254 27.2998 22.9254C27.2998 24.3004 28.3748 25.4004 29.7248 25.4504C29.7248 25.4504 29.8498 25.4504 29.9998 25.4504C31.3248 25.3754 32.3498 24.2754 32.3498 22.9254C32.3748 21.5254 31.2248 20.4004 29.8248 20.4004Z" fill="#EAD1A6"/>
<path d="M29.9995 43.3754C27.8495 43.3754 25.6746 42.8004 23.9996 41.6754C22.3246 40.5754 21.3745 38.9504 21.3745 37.2254C21.3745 35.5004 22.3246 33.8754 23.9996 32.7504C27.3746 30.5004 32.6495 30.5254 35.9995 32.7504C37.6745 33.8504 38.6246 35.4754 38.6246 37.2004C38.6246 38.9254 37.6745 40.5504 35.9995 41.6754C34.3245 42.8004 32.1495 43.3754 29.9995 43.3754ZM26.0745 35.8504C25.4495 36.2504 25.0995 36.7504 25.1245 37.2004C25.1245 37.6504 25.4745 38.1504 26.0745 38.5504C28.1745 39.9504 31.8246 39.9504 33.9246 38.5504C34.5496 38.1504 34.8995 37.6504 34.8995 37.2004C34.8995 36.7504 34.5495 36.2504 33.9495 35.8504C31.8495 34.4754 28.1745 34.4754 26.0745 35.8504Z" fill="#EAD1A6"/>
</svg>
