<svg width="60" height="60" viewBox="0 0 60 60" fill="none" xmlns="http://www.w3.org/2000/svg">
<path d="M30 56.8754C28.25 56.8754 26.475 56.2002 25.15 54.8752L20.875 50.6504C19.8 49.6004 18.4 49.0253 16.9 49.0253H15C9.825 49.0253 5.625 44.8504 5.625 39.7254V12.4503C5.625 7.32532 9.825 3.15039 15 3.15039H45C50.175 3.15039 54.375 7.32532 54.375 12.4503V39.7254C54.375 44.8504 50.175 49.0253 45 49.0253H43.1C41.6 49.0253 40.175 49.6004 39.125 50.6504L34.85 54.8752C33.525 56.2002 31.75 56.8754 30 56.8754ZM15 6.87537C11.9 6.87537 9.375 9.37529 9.375 12.4253V39.7004C9.375 42.7754 11.9 45.2503 15 45.2503H16.9C19.4 45.2503 21.75 46.2252 23.525 47.9752L27.8 52.2004C29.025 53.4004 31 53.4004 32.225 52.2004L36.5 47.9752C38.275 46.2252 40.625 45.2503 43.125 45.2503H45C48.1 45.2503 50.625 42.7504 50.625 39.7004V12.4253C50.625 9.35029 48.1 6.87537 45 6.87537H15Z" fill="#EAD1A6"/>
<path d="M25.9506 36.2755H19.2506C18.1506 36.2755 17.1256 35.7503 16.4756 34.8503C15.8506 34.0003 15.7006 32.9506 16.0006 31.9506C16.8756 29.2756 19.0256 27.8255 20.9256 26.5255C22.9256 25.1755 24.0506 24.3255 24.0506 22.8755C24.0506 21.5755 23.0006 20.5254 21.7006 20.5254C20.4006 20.5254 19.3506 21.5755 19.3506 22.8755C19.3506 23.9005 18.5006 24.7505 17.4756 24.7505C16.4506 24.7505 15.6006 23.9005 15.6006 22.8755C15.6006 19.5255 18.3256 16.7754 21.7006 16.7754C25.0756 16.7754 27.8006 19.5005 27.8006 22.8755C27.8006 26.4005 25.1506 28.2005 23.0256 29.6505C21.7006 30.5505 20.4506 31.4005 19.8256 32.5255H25.9256C26.9506 32.5255 27.8006 33.3755 27.8006 34.4005C27.8006 35.4255 26.9756 36.2755 25.9506 36.2755Z" fill="#EAD1A6"/>
<path d="M40.0997 36.2754C39.0747 36.2754 38.2247 35.4254 38.2247 34.4004V32.6752H33.3247C33.3247 32.6752 33.3247 32.6752 33.2997 32.6752C32.0747 32.6752 30.9497 32.0254 30.3247 30.9754C29.6997 29.9004 29.6997 28.5754 30.3247 27.5254C32.0247 24.6004 33.9997 21.2753 35.7997 18.3753C36.5997 17.1003 38.1247 16.5254 39.5497 16.9254C40.9747 17.3504 41.9747 18.6505 41.9497 20.1505V28.9502H42.4997C43.5247 28.9502 44.3747 29.8002 44.3747 30.8252C44.3747 31.8502 43.5247 32.7002 42.4997 32.7002H41.9747V34.4254C41.9747 35.4504 41.1497 36.2754 40.0997 36.2754ZM38.2247 21.6004C36.7497 24.0004 35.2247 26.5752 33.8497 28.9252H38.2247V21.6004Z" fill="#EAD1A6"/>
</svg>
