<svg width="60" height="60" viewBox="0 0 60 60" fill="none" xmlns="http://www.w3.org/2000/svg">
<path d="M25 44.2502H15.525C6.025 44.2502 3.125 41.3502 3.125 31.8502V16.8502C3.125 7.3502 6.025 4.4502 15.525 4.4502H41.85C51.35 4.4502 54.25 7.3502 54.25 16.8502C54.25 17.8752 53.4 18.7252 52.375 18.7252C51.35 18.7252 50.5 17.8752 50.5 16.8502C50.5 9.5002 49.2 8.2002 41.85 8.2002H15.525C8.175 8.2002 6.875 9.5002 6.875 16.8502V31.8502C6.875 39.2002 8.175 40.5002 15.525 40.5002H25C26.025 40.5002 26.875 41.3502 26.875 42.3752C26.875 43.4002 26.025 44.2502 25 44.2502Z" fill="#EAD1A6"/>
<path d="M25 55.5496C23.975 55.5496 23.125 54.6996 23.125 53.6746V42.3496C23.125 41.3246 23.975 40.4746 25 40.4746C26.025 40.4746 26.875 41.3246 26.875 42.3496V53.6746C26.875 54.7246 26.025 55.5496 25 55.5496Z" fill="#EAD1A6"/>
<path d="M25 34.25H5C3.975 34.25 3.125 33.4 3.125 32.375C3.125 31.35 3.975 30.5 5 30.5H25C26.025 30.5 26.875 31.35 26.875 32.375C26.875 33.4 26.025 34.25 25 34.25Z" fill="#EAD1A6"/>
<path d="M25 55.5498H16.85C15.825 55.5498 14.975 54.6998 14.975 53.6748C14.975 52.6498 15.825 51.7998 16.85 51.7998H25C26.025 51.7998 26.875 52.6498 26.875 53.6748C26.875 54.6998 26.025 55.5498 25 55.5498Z" fill="#EAD1A6"/>
<path d="M47.6 55.5496H38.725C31.8 55.5496 29.45 53.1996 29.45 46.2746V31.9996C29.45 25.0746 31.8 22.7246 38.725 22.7246H47.6C54.525 22.7246 56.875 25.0746 56.875 31.9996V46.2746C56.875 53.2246 54.525 55.5496 47.6 55.5496ZM38.725 26.4746C33.825 26.4746 33.2 27.0996 33.2 31.9996V46.2746C33.2 51.1746 33.825 51.7996 38.725 51.7996H47.6C52.5 51.7996 53.125 51.1746 53.125 46.2746V31.9996C53.125 27.0996 52.5 26.4746 47.6 26.4746H38.725Z" fill="#EAD1A6"/>
<path d="M43.25 47.425C42.6 47.425 41.95 47.175 41.475 46.7C41.25 46.475 41.075 46.2 40.95 45.9C40.825 45.575 40.75 45.25 40.75 44.925C40.75 44.275 41.025 43.625 41.475 43.175C42.05 42.6 42.925 42.325 43.75 42.475C43.9 42.525 44.05 42.575 44.2 42.625C44.35 42.7 44.5 42.775 44.625 42.85C44.775 42.95 44.9 43.05 45.025 43.175C45.475 43.625 45.75 44.275 45.75 44.925C45.75 45.25 45.675 45.575 45.55 45.9C45.425 46.2 45.25 46.475 45.025 46.7C44.9 46.825 44.775 46.925 44.625 47C44.5 47.1 44.35 47.175 44.2 47.25C44.05 47.3 43.9 47.35 43.75 47.375C43.575 47.425 43.425 47.425 43.25 47.425Z" fill="#EAD1A6"/>
</svg>
