<svg width="234" height="234" viewBox="0 0 234 234" fill="none" xmlns="http://www.w3.org/2000/svg">
<path d="M103.35 134.55L82.1438 113.344C80.3563 111.556 78.1625 110.663 75.5625 110.663C72.9625 110.663 70.6875 111.637 68.7375 113.587C66.95 115.375 66.0563 117.65 66.0563 120.413C66.0563 123.175 66.95 125.45 68.7375 127.238L96.525 155.025C98.3125 156.812 100.588 157.706 103.35 157.706C106.113 157.706 108.388 156.812 110.175 155.025L165.506 99.6938C167.294 97.9062 168.188 95.7125 168.188 93.1125C168.188 90.5125 167.213 88.2375 165.263 86.2875C163.475 84.5 161.2 83.6062 158.438 83.6062C155.675 83.6062 153.4 84.5 151.613 86.2875L103.35 134.55ZM117 214.5C103.512 214.5 90.8375 211.939 78.975 206.817C67.1125 201.695 56.7938 194.75 48.0188 185.981C39.2438 177.206 32.2985 166.887 27.183 155.025C22.0675 143.162 19.5065 130.488 19.5 117C19.5 103.512 22.061 90.8375 27.183 78.975C32.305 67.1125 39.2503 56.7938 48.0188 48.0188C56.7938 39.2438 67.1125 32.2985 78.975 27.183C90.8375 22.0675 103.512 19.5065 117 19.5C130.488 19.5 143.162 22.061 155.025 27.183C166.887 32.305 177.206 39.2503 185.981 48.0188C194.756 56.7938 201.705 67.1125 206.827 78.975C211.949 90.8375 214.507 103.512 214.5 117C214.5 130.488 211.939 143.162 206.817 155.025C201.695 166.887 194.75 177.206 185.981 185.981C177.206 194.756 166.887 201.705 155.025 206.827C143.162 211.949 130.488 214.507 117 214.5Z" fill="#31D7B9"/>
</svg>
