<svg width="558" height="440" viewBox="0 0 558 440" fill="none" xmlns="http://www.w3.org/2000/svg">
<path d="M226.053 115.211C226.458 120.933 225.157 126.647 222.314 131.629C219.47 136.612 215.212 140.639 210.078 143.202C204.944 145.764 199.165 146.747 193.473 146.025C187.78 145.303 182.429 142.91 178.098 139.147C173.767 135.384 170.649 130.422 169.14 124.887C167.63 119.353 167.797 113.495 169.619 108.055C171.441 102.616 174.836 97.8387 179.374 94.3285C183.913 90.8183 189.391 88.7329 195.116 88.3361C202.782 87.8047 210.345 90.3364 216.146 95.3751C221.946 100.414 225.509 107.548 226.053 115.211Z" fill="#2F2184"/>
<g opacity="0.1">
<path d="M195.109 88.3359C187.445 88.8808 180.311 92.4435 175.272 98.242C170.233 104.04 167.701 111.601 168.233 119.263C168.233 119.263 188.606 118.754 192.918 110.243C197.23 101.731 195.109 88.3359 195.109 88.3359Z" fill="white"/>
</g>
<path d="M218.628 115.275C218.931 119.618 217.938 123.954 215.777 127.733C213.615 131.513 210.381 134.567 206.484 136.509C202.586 138.452 198.2 139.195 193.88 138.646C189.56 138.097 185.499 136.28 182.212 133.424C178.925 130.568 176.558 126.802 175.412 122.602C174.265 118.402 174.39 113.956 175.77 109.827C177.15 105.698 179.724 102.071 183.167 99.4035C186.609 96.7366 190.765 95.1497 195.109 94.8436C197.996 94.6402 200.894 95.0074 203.638 95.9243C206.383 96.8412 208.92 98.2897 211.104 100.187C213.288 102.085 215.077 104.394 216.368 106.983C217.659 109.571 218.427 112.389 218.628 115.275Z" fill="#2F2184"/>
<g opacity="0.2">
<path d="M218.628 115.275C218.931 119.618 217.938 123.954 215.777 127.733C213.615 131.513 210.381 134.567 206.484 136.509C202.586 138.452 198.2 139.195 193.88 138.646C189.56 138.097 185.499 136.28 182.212 133.424C178.925 130.568 176.558 126.802 175.412 122.602C174.265 118.402 174.39 113.956 175.77 109.827C177.15 105.698 179.724 102.071 183.167 99.4035C186.609 96.7366 190.765 95.1497 195.109 94.8436C197.996 94.6402 200.894 95.0074 203.638 95.9243C206.383 96.8412 208.92 98.2897 211.104 100.187C213.288 102.085 215.077 104.394 216.368 106.983C217.659 109.571 218.427 112.389 218.628 115.275Z" fill="black"/>
</g>
<path d="M219.311 116.145C219.606 120.431 218.624 124.708 216.489 128.436C214.353 132.164 211.16 135.175 207.313 137.089C203.465 139.003 199.137 139.734 194.874 139.19C190.612 138.645 186.606 136.85 183.364 134.03C180.122 131.21 177.789 127.493 176.66 123.348C175.531 119.203 175.656 114.817 177.02 110.743C178.384 106.669 180.925 103.091 184.323 100.461C187.72 97.8303 191.822 96.266 196.108 95.9654C198.958 95.7656 201.819 96.1292 204.527 97.0355C207.236 97.9418 209.739 99.373 211.894 101.247C214.049 103.121 215.813 105.402 217.086 107.958C218.359 110.515 219.115 113.297 219.311 116.145Z" fill="#2F2184"/>
<g opacity="0.2">
<path d="M219.311 116.145C219.606 120.431 218.624 124.708 216.489 128.436C214.353 132.164 211.16 135.175 207.313 137.089C203.465 139.003 199.137 139.734 194.874 139.19C190.612 138.645 186.606 136.85 183.364 134.03C180.122 131.21 177.789 127.493 176.66 123.348C175.531 119.203 175.656 114.817 177.02 110.743C178.384 106.669 180.925 103.091 184.323 100.461C187.72 97.8303 191.822 96.266 196.108 95.9654C198.958 95.7656 201.819 96.1292 204.527 97.0355C207.236 97.9418 209.739 99.373 211.894 101.247C214.049 103.121 215.813 105.402 217.086 107.958C218.359 110.515 219.115 113.297 219.311 116.145Z" fill="white"/>
</g>
<path d="M198.358 115.727L197.977 110.186C198.997 110.236 200.005 110.425 200.974 110.746C201.477 110.958 201.958 111.217 202.412 111.519L202.476 111.345L203.192 109.284L203.359 108.813L202.296 107.84L201.838 108.092C200.547 107.52 199.151 107.221 197.739 107.215L197.526 104.161L196.579 103.459V104.232L195.29 104.277L195.502 107.389C191.249 108.105 189.386 110.688 189.579 113.485C189.844 117.293 193.195 118.066 196.295 118.594L196.675 124.09C194.67 124.069 192.713 123.474 191.036 122.376L189.992 125.276C192.065 126.557 194.479 127.177 196.914 127.054L197.075 129.361L196.005 129.457L197.127 130.102L199.382 129.934L199.163 126.861C203.449 126.12 205.338 123.549 205.144 120.753C204.861 116.99 201.464 116.255 198.358 115.727ZM196.063 115.334C194.439 114.979 193.221 114.483 193.124 113.137C193.027 111.79 193.801 110.882 195.702 110.443L196.063 115.334ZM198.931 123.935L198.59 119.084C200.272 119.432 201.535 119.934 201.632 121.326C201.709 122.505 200.923 123.497 198.931 123.935Z" fill="#2F2184"/>
<g opacity="0.3">
<path d="M198.358 115.727L197.977 110.186C198.997 110.236 200.005 110.425 200.974 110.746C201.477 110.958 201.958 111.217 202.412 111.519L202.476 111.345L203.192 109.284L203.359 108.813L202.296 107.84L201.838 108.092C200.547 107.52 199.151 107.221 197.739 107.215L197.526 104.161L196.579 103.459V104.232L195.29 104.277L195.502 107.389C191.249 108.105 189.386 110.688 189.579 113.485C189.844 117.293 193.195 118.066 196.295 118.594L196.675 124.09C194.67 124.069 192.713 123.474 191.036 122.376L189.992 125.276C192.065 126.557 194.479 127.177 196.914 127.054L197.075 129.361L196.005 129.457L197.127 130.102L199.382 129.934L199.163 126.861C203.449 126.12 205.338 123.549 205.144 120.753C204.861 116.99 201.464 116.255 198.358 115.727ZM196.063 115.334C194.439 114.979 193.221 114.483 193.124 113.137C193.027 111.79 193.801 110.882 195.702 110.443L196.063 115.334ZM198.931 123.935L198.59 119.084C200.272 119.432 201.535 119.934 201.632 121.326C201.709 122.505 200.923 123.497 198.931 123.935Z" fill="black"/>
</g>
<path d="M198.164 126.223L198.377 129.302L196.121 129.457L195.934 126.416C193.506 126.512 191.105 125.882 189.038 124.605L190.082 121.706C191.766 122.795 193.723 123.387 195.728 123.413L195.29 117.911C192.19 117.389 188.845 116.622 188.58 112.814C188.374 109.96 190.243 107.421 194.503 106.706L194.284 103.594L196.54 103.439L196.753 106.494C198.73 106.443 200.688 106.886 202.45 107.782L201.516 110.675C200.095 109.972 198.543 109.573 196.959 109.503L197.359 115.05C200.459 115.578 203.855 116.339 204.12 120.127C204.313 122.924 202.444 125.475 198.164 126.223ZM195.083 114.625L194.742 109.734C192.847 110.173 192.054 111.216 192.164 112.428C192.273 113.639 193.485 114.27 195.109 114.625H195.083ZM200.639 120.617C200.549 119.27 199.299 118.755 197.616 118.375L197.958 123.239C199.937 122.795 200.723 121.796 200.639 120.617Z" fill="#2F2184"/>
<path d="M173.473 132.524C173.416 132.457 173.365 132.386 173.318 132.312L172.925 131.667C172.757 131.397 172.551 131.023 172.338 130.643C172.126 130.263 171.868 129.766 171.636 129.232C171.526 128.961 171.397 128.69 171.269 128.394C171.14 128.098 171.037 127.795 170.908 127.453C170.65 126.809 170.444 126.113 170.218 125.379C169.272 122.161 168.901 118.802 169.122 115.456C169.163 114.727 169.24 114 169.354 113.278C169.387 112.956 169.437 112.636 169.503 112.318C169.567 112.035 169.619 111.674 169.689 111.416C169.78 110.849 169.947 110.34 170.057 109.896C170.152 109.511 170.268 109.133 170.405 108.762C170.521 108.452 170.585 108.24 170.65 108.053C170.671 107.968 170.706 107.888 170.753 107.814C170.746 107.903 170.726 107.989 170.695 108.072C170.637 108.253 170.566 108.497 170.482 108.787C170.398 109.077 170.276 109.477 170.179 109.921C170.083 110.366 169.928 110.881 169.831 111.448C169.78 111.738 169.722 112.035 169.664 112.344C169.606 112.653 169.58 112.988 169.522 113.304C169.425 113.948 169.38 114.702 169.316 115.469C169.237 117.128 169.278 118.79 169.438 120.443C169.638 122.093 169.961 123.726 170.405 125.327C170.63 126.049 170.824 126.751 171.049 127.389C171.165 127.711 171.275 128.033 171.397 128.336L171.752 129.167C171.971 129.708 172.216 130.166 172.396 130.578C172.577 130.991 172.79 131.345 172.951 131.629L173.305 132.273C173.377 132.345 173.434 132.43 173.473 132.524Z" fill="white"/>
<path d="M190.643 115.005C190.371 114.868 190.136 114.667 189.959 114.419C189.495 113.838 189.226 113.125 189.193 112.383C189.178 111.638 189.404 110.908 189.837 110.302C189.992 110.034 190.214 109.812 190.482 109.657C190.287 109.881 190.115 110.123 189.966 110.379C189.595 110.977 189.41 111.671 189.434 112.374C189.458 113.077 189.691 113.757 190.101 114.329C190.391 114.767 190.668 114.973 190.643 115.005Z" fill="white"/>
<path d="M194.961 106.242C194.77 105.647 194.725 105.015 194.832 104.399C194.897 104.399 194.967 104.792 195.006 105.295C195.07 105.61 195.054 105.935 194.961 106.242Z" fill="white"/>
<path d="M197.062 94.1355C196.824 94.1612 196.584 94.1612 196.347 94.1355L195.522 94.1677L194.426 94.2064C193.981 94.2057 193.538 94.2554 193.105 94.3546C192.634 94.477 192.157 94.5157 191.609 94.6059C190.475 94.8554 189.357 95.1782 188.264 95.5723C187.177 95.9918 186.12 96.4848 185.1 97.0478C184.636 97.3249 184.159 97.5697 183.811 97.8403C183.463 98.111 183.044 98.3558 182.722 98.5942C182.399 98.8326 182.077 99.0646 181.858 99.2385C181.639 99.4125 181.381 99.6187 181.213 99.7669C181.05 99.9375 180.866 100.087 180.666 100.211C180.82 100.037 180.981 99.87 181.155 99.7089C181.329 99.5478 181.523 99.3545 181.8 99.1483C182.077 98.9421 182.322 98.6908 182.657 98.446C182.992 98.2012 183.334 97.9241 183.733 97.6664C184.133 97.4087 184.578 97.1316 185.022 96.8481C186.044 96.2697 187.109 95.77 188.206 95.3533C189.309 94.9494 190.44 94.6285 191.59 94.3932C192.132 94.2966 192.634 94.1935 193.105 94.1484C193.575 94.1033 194.059 94.0517 194.439 94.026C194.819 94.0002 195.219 94.026 195.548 93.9873H196.372L197.062 94.1355Z" fill="white"/>
<path d="M202.586 144.405C202.423 144.476 202.255 144.535 202.083 144.579C201.618 144.722 201.144 144.836 200.665 144.92C199.098 145.234 197.5 145.368 195.902 145.32C194.282 145.267 192.674 145.031 191.107 144.618C190.52 144.444 190.037 144.302 189.715 144.167C189.545 144.116 189.381 144.049 189.225 143.967C189.401 143.988 189.574 144.029 189.74 144.089C190.069 144.192 190.553 144.321 191.152 144.463C192.701 144.835 194.284 145.051 195.876 145.107C197.471 145.153 199.066 145.043 200.639 144.779C201.245 144.669 201.729 144.572 202.07 144.502C202.236 144.444 202.41 144.411 202.586 144.405Z" fill="white"/>
<path d="M526.444 52.1897C527.666 60.1274 526.505 68.2491 523.108 75.527C519.712 82.8049 514.232 88.912 507.362 93.0754C500.492 97.2388 492.541 99.2715 484.515 98.9162C476.49 98.5609 468.75 95.8336 462.275 91.0794C455.8 86.3252 450.882 79.7577 448.142 72.2081C445.402 64.6585 444.963 56.4661 446.882 48.6674C448.801 40.8688 452.991 33.8145 458.922 28.3971C464.853 22.9798 472.258 19.4429 480.2 18.234H480.271C485.533 17.4313 490.901 17.673 496.07 18.9452C501.238 20.2175 506.105 22.4954 510.392 25.6487C514.68 28.8021 518.304 32.7692 521.057 37.3232C523.81 41.8772 525.638 46.929 526.438 52.1897H526.444Z" fill="#F5F5F5"/>
<path d="M516.905 53.6594C517.836 59.7063 516.952 65.8931 514.364 71.4374C511.777 76.9817 507.603 81.6343 502.37 84.8066C497.137 87.9789 491.08 89.5284 484.966 89.2591C478.852 88.9898 472.956 86.9138 468.022 83.2937C463.089 79.6736 459.34 74.6721 457.25 68.9218C455.161 63.1715 454.824 56.9309 456.283 50.9893C457.742 45.0477 460.931 39.6721 465.446 35.5426C469.962 31.413 475.601 28.715 481.65 27.79H481.727C489.823 26.5603 498.077 28.5945 504.673 33.4454C511.269 38.2962 515.669 45.5669 516.905 53.6594Z" fill="#EBEBEB"/>
<path d="M516.738 52.699C516.557 52.699 516.229 51.4104 515.378 49.1488C514.205 45.966 512.546 42.984 510.46 40.3087C509.014 38.4905 507.374 36.8355 505.568 35.3732C501.202 31.8441 495.944 29.5918 490.377 28.8656C488.843 28.667 487.296 28.5873 485.749 28.6272C484.16 28.6656 482.576 28.8271 481.012 29.1104C479.443 29.388 477.896 29.7799 476.384 30.2831C474.923 30.8119 473.507 31.4583 472.15 32.2161C470.829 32.8999 469.565 33.6908 468.373 34.5807C467.22 35.4281 466.132 36.3607 465.118 37.3706C463.229 39.2416 461.589 41.3487 460.239 43.6399C457.334 48.5867 455.846 54.2376 455.94 59.9734C455.94 62.3445 456.108 63.7362 455.94 63.7749C455.773 63.8135 455.334 62.4862 455.025 60.0249C454.636 56.4967 454.905 52.9269 455.818 49.4967C457.187 44.3488 459.85 39.6359 463.552 35.8049C465.75 33.5437 468.272 31.6219 471.035 30.1027C472.496 29.2985 474.02 28.6133 475.592 28.0537C477.213 27.4795 478.877 27.0314 480.567 26.7136C482.271 26.4169 483.995 26.2467 485.724 26.2045C487.392 26.1712 489.06 26.2703 490.712 26.5009C492.315 26.72 493.897 27.0691 495.443 27.5447C496.922 27.9825 498.363 28.5362 499.755 29.2006C504.569 31.4816 508.717 34.9604 511.801 39.3036C513.865 42.1931 515.377 45.4392 516.261 48.8782C516.867 51.2944 516.905 52.6797 516.738 52.699Z" fill="#EAD1A6"/>
<path d="M492.536 76.0295L493.413 81.3387L488.675 82.1248L487.812 76.9703C483.074 77.4535 478.344 76.7319 475.379 75.1211L477.029 68.9291C480.067 70.3855 483.433 71.0229 486.793 70.7783L485.504 62.8596C480.026 62.4473 473.858 61.6741 472.73 54.8829C471.898 49.8508 474.837 44.9411 482.204 42.847L481.328 37.5765L486.065 36.7969L486.916 41.9514C490.341 41.5766 493.807 42.0182 497.028 43.2401L495.617 49.4642C493.173 48.5322 490.568 48.0942 487.953 48.1756L489.294 56.2425C494.753 56.6033 500.837 57.428 501.94 64.0838C502.726 68.9742 499.845 73.8389 492.536 76.0295ZM484.318 55.8881L483.21 49.1485C480.838 50.1343 479.987 51.6742 480.284 53.2335C480.58 54.7927 482.127 55.4822 484.318 55.8108V55.8881ZM494.347 65.9588C494.076 64.3029 492.549 63.5942 490.39 63.2462L491.479 69.7925C493.767 68.8003 494.605 67.4021 494.347 65.8751V65.9588Z" fill="#EAD1A6"/>
<path d="M65.8893 61.3526C66.6276 66.2131 65.9076 71.1834 63.8204 75.6349C61.7331 80.0864 58.3723 83.8192 54.163 86.3613C49.9536 88.9034 45.0848 90.1406 40.1721 89.9165C35.2594 89.6924 30.5235 88.017 26.5632 85.1023C22.603 82.1875 19.5962 78.1642 17.9231 73.5412C16.2501 68.9182 15.9859 63.903 17.1639 59.1299C18.3419 54.3567 20.9093 50.04 24.5414 46.7255C28.1735 43.411 32.7071 41.2476 37.5691 40.5088C40.7977 40.0182 44.0914 40.1683 47.262 40.9503C50.4326 41.7323 53.418 43.1311 56.0479 45.0666C58.6777 47.0022 60.9004 49.4367 62.589 52.231C64.2776 55.0254 65.3991 58.1249 65.8893 61.3526Z" fill="#F5F5F5"/>
<path d="M60.0305 62.2289C60.5934 65.9328 60.0449 69.7203 58.4546 73.1126C56.8643 76.5049 54.3035 79.3496 51.096 81.287C47.8886 83.2244 44.1784 84.1676 40.4348 83.9972C36.6912 83.8269 33.0821 82.5506 30.064 80.3298C27.0459 78.1091 24.7543 75.0435 23.4788 71.5208C22.2034 67.9981 22.0015 64.1764 22.8986 60.539C23.7957 56.9016 25.7516 53.6118 28.5189 51.0855C31.2862 48.5593 34.7407 46.9101 38.4456 46.3464C40.9062 45.9712 43.4167 46.0845 45.8335 46.6797C48.2503 47.275 50.5261 48.3406 52.5307 49.8156C54.5353 51.2906 56.2295 53.1462 57.5164 55.2761C58.8032 57.4061 59.6576 59.7687 60.0305 62.2289Z" fill="#EBEBEB"/>
<path d="M59.9404 61.6485C59.5847 60.9543 59.3038 60.2243 59.1026 59.4707C58.3733 57.5175 57.352 55.6861 56.0733 54.0391C55.1815 52.9228 54.1724 51.9054 53.0634 51.0043C51.7947 49.9729 50.3999 49.1069 48.9127 48.4271C47.2723 47.6994 45.5359 47.2111 43.7565 46.9773C41.8417 46.7333 39.9007 46.7832 38.001 47.1255C37.0411 47.3063 36.0955 47.5561 35.1715 47.8729C34.2843 48.2045 33.4226 48.6007 32.5934 49.0585C31.7667 49.4874 30.9738 49.9785 30.2216 50.5275C27.0312 52.9112 24.6652 56.2316 23.4541 60.0248C22.8414 62.0156 22.5392 64.0889 22.5583 66.1716C22.6485 66.9573 22.6485 67.7507 22.5583 68.5363C22.2143 67.8146 22.0255 67.0288 22.004 66.2296C21.7697 64.0704 21.9336 61.8866 22.4874 59.7864C22.8863 58.3286 23.4462 56.9196 24.1567 55.5855C25.4589 53.2238 27.2286 51.1521 29.3579 49.4966C30.1443 48.8981 30.9761 48.3617 31.8458 47.8923C32.7366 47.382 33.6704 46.9508 34.6366 46.6036C35.6337 46.2572 36.6548 45.9838 37.6916 45.7853C38.7286 45.6041 39.7779 45.5029 40.8304 45.4825C41.8561 45.4567 42.8822 45.5149 43.8983 45.6565C44.8759 45.7969 45.8413 46.0123 46.7858 46.3008C47.691 46.5732 48.5744 46.9135 49.4283 47.3188C52.385 48.7022 54.9354 50.8236 56.8339 53.4785C58.1087 55.2649 59.0398 57.2728 59.5795 59.3998C59.8535 60.1165 59.9764 60.8821 59.9404 61.6485Z" fill="#EAD1A6"/>
<path d="M45.0714 75.9203L45.6192 79.187L42.706 79.6766L42.171 76.5001C39.5691 76.8331 36.926 76.4243 34.5464 75.321L35.5518 71.5195C37.4114 72.4328 39.4784 72.8416 41.5458 72.7051L40.7402 67.8534C37.3758 67.6021 33.6505 67.1188 32.9028 62.9501C32.3937 59.8767 34.1919 56.8548 38.7035 55.5662L38.1686 52.3446L41.0818 51.8613L41.6039 55.0314C43.7073 54.8068 45.8342 55.0828 47.8106 55.8368L46.9534 59.664C45.4455 59.086 43.8364 58.8186 42.2226 58.878L43.0347 63.7877C46.3991 64.0132 50.1244 64.4965 50.7689 68.6072C51.3361 71.6355 49.5508 74.6058 45.0714 75.9203ZM40.0312 63.5429L39.3158 59.4128C37.8399 60.012 37.3822 60.9591 37.5305 61.9192C37.6787 62.8792 38.6519 63.3496 40.0054 63.5429H40.0312ZM46.1993 69.7348C46.0317 68.7168 45.1165 68.2979 43.8274 68.066L44.472 72.0865C45.8255 71.5195 46.3346 70.669 46.1542 69.7348H46.1993Z" fill="#EAD1A6"/>
<path d="M399.235 383.37C400.245 389.972 399.273 396.725 396.443 402.775C393.613 408.825 389.053 413.901 383.337 417.36C377.622 420.818 371.01 422.505 364.335 422.207C357.661 421.909 351.225 419.639 345.842 415.684C340.458 411.729 336.368 406.268 334.09 399.989C331.811 393.711 331.446 386.898 333.041 380.413C334.635 373.927 338.118 368.059 343.048 363.552C347.978 359.045 354.134 356.101 360.738 355.091H360.803C369.65 353.749 378.668 355.974 385.875 361.277C393.082 366.58 397.888 374.527 399.235 383.37Z" fill="#F5F5F5"/>
<path d="M391.288 384.543C392.057 389.573 391.317 394.718 389.16 399.327C387.004 403.936 383.53 407.803 379.176 410.438C374.821 413.073 369.783 414.358 364.699 414.131C359.614 413.904 354.711 412.174 350.609 409.162C346.507 406.149 343.392 401.988 341.655 397.205C339.919 392.421 339.641 387.231 340.856 382.29C342.07 377.349 344.723 372.878 348.479 369.444C352.235 366.01 356.925 363.767 361.956 362.997H362.001C368.743 361.975 375.614 363.67 381.106 367.71C386.598 371.75 390.26 377.805 391.288 384.543Z" fill="#EBEBEB"/>
<path d="M391.16 383.738C390.661 382.798 390.266 381.806 389.98 380.781C389.003 378.157 387.631 375.698 385.913 373.487C383.338 370.217 380.007 367.622 376.207 365.923C375.117 365.446 373.992 365.051 372.842 364.744C370.405 364.042 367.875 363.718 365.34 363.784C364.017 363.816 362.698 363.95 361.396 364.183C356.386 365.09 351.769 367.496 348.157 371.084C345.202 374.017 343.008 377.626 341.764 381.599C340.926 384.279 340.506 387.071 340.52 389.879C340.636 390.934 340.636 391.999 340.52 393.055C340.056 392.077 339.804 391.012 339.778 389.93C339.447 386.995 339.665 384.023 340.423 381.167C341.546 376.874 343.767 372.946 346.868 369.769C348.697 367.892 350.795 366.298 353.094 365.04C354.312 364.365 355.584 363.794 356.897 363.333C360.132 362.152 363.57 361.629 367.009 361.794C370.449 361.959 373.821 362.809 376.929 364.293C379.068 365.305 381.059 366.606 382.845 368.159C384.394 369.498 385.782 371.011 386.983 372.669C388.717 375.055 389.994 377.742 390.747 380.594C391.1 381.602 391.241 382.673 391.16 383.738Z" fill="#EAD1A6"/>
<path d="M370.999 403.08L371.734 407.507L367.776 408.151L367.067 403.853C363.537 404.316 359.947 403.783 356.703 402.313L358.083 397.159C360.615 398.366 363.418 398.897 366.217 398.699L365.127 392.094C360.558 391.747 355.414 391.102 354.486 385.464C353.803 381.276 356.239 377.178 362.375 375.439L361.653 371.122L365.604 370.478L366.313 374.782C369.167 374.47 372.054 374.841 374.737 375.864L373.551 381.019C371.514 380.253 369.346 379.896 367.17 379.968L368.279 386.676C372.829 386.985 377.895 387.649 378.817 393.209C379.487 397.288 377.044 401.341 370.999 403.08ZM364.154 386.283L363.232 380.671C361.215 381.502 360.577 382.778 360.79 384.079C361.002 385.381 362.33 386.057 364.154 386.321V386.283ZM372.533 394.71C372.307 393.325 371.038 392.777 369.239 392.462L370.142 397.906C372.037 397.159 372.739 395.98 372.533 394.71Z" fill="#EAD1A6"/>
<path d="M463.494 72.7891L431.191 230.538H292.599L326.037 72.7891H463.494Z" fill="white"/>
<path d="M254.192 368.809H381.041C383.329 368.809 385.185 366.954 385.185 364.666V198.869C385.185 196.581 383.329 194.726 381.041 194.726L254.192 194.726C251.904 194.726 250.048 196.581 250.048 198.869L250.048 364.666C250.048 366.954 251.904 368.809 254.192 368.809Z" fill="#2F2E41"/>
<path d="M243.693 368.809H370.541C372.83 368.809 374.686 366.954 374.686 364.666V198.869C374.686 196.581 372.83 194.726 370.541 194.726L243.693 194.726C241.404 194.726 239.549 196.581 239.549 198.869L239.549 364.666C239.549 366.954 241.404 368.809 243.693 368.809Z" fill="#2F2184"/>
<g opacity="0.2">
<path d="M243.693 368.81H370.541C372.83 368.81 374.686 366.955 374.686 364.667V198.87C374.686 196.582 372.83 194.727 370.541 194.727L243.693 194.727C241.404 194.727 239.549 196.582 239.549 198.87L239.549 364.667C239.549 366.955 241.404 368.81 243.693 368.81Z" fill="white"/>
</g>
<path d="M249.79 232.806L364.818 232.806C365.676 232.806 366.371 232.11 366.371 231.253V209.108C366.371 208.25 365.676 207.555 364.818 207.555H249.79C248.932 207.555 248.237 208.25 248.237 209.108V231.253C248.237 232.11 248.932 232.806 249.79 232.806Z" fill="white"/>
<g opacity="0.2">
<path d="M311.155 272.168H331.406C332.264 272.168 332.959 271.473 332.959 270.615V250.371C332.959 249.513 332.264 248.818 331.406 248.818H311.155C310.297 248.818 309.602 249.513 309.602 250.371V270.615C309.602 271.473 310.297 272.168 311.155 272.168Z" fill="white"/>
</g>
<path d="M308.667 272.167H328.918C329.776 272.167 330.471 271.472 330.471 270.614V250.37C330.471 249.512 329.776 248.817 328.918 248.817H308.667C307.809 248.817 307.114 249.512 307.114 250.37V270.614C307.114 271.472 307.809 272.167 308.667 272.167Z" fill="#2F2184"/>
<path d="M320.082 223.702C320.455 223.972 320.91 224.106 321.371 224.082C321.676 224.102 321.98 224.035 322.249 223.891C322.518 223.746 322.74 223.529 322.892 223.264C323.28 222.385 323.446 221.425 323.375 220.467C323.127 220.813 322.785 221.079 322.389 221.234C321.951 221.418 321.479 221.51 321.003 221.505C320.405 221.513 319.814 221.38 319.276 221.118C318.764 220.862 318.338 220.461 318.052 219.965C317.74 219.392 317.587 218.747 317.607 218.096C317.571 217.622 317.638 217.146 317.804 216.701C317.969 216.255 318.229 215.851 318.566 215.515C318.903 215.18 319.309 214.921 319.755 214.757C320.201 214.593 320.678 214.528 321.152 214.565C321.7 214.516 322.251 214.613 322.749 214.846C323.247 215.079 323.675 215.44 323.988 215.893C324.55 216.778 324.83 218.133 324.825 219.958C324.85 220.996 324.744 222.033 324.51 223.045C324.359 223.755 323.976 224.394 323.42 224.862C322.792 225.302 322.034 225.518 321.268 225.474C320.385 225.532 319.516 225.237 318.851 224.655C318.286 224.112 317.948 223.376 317.903 222.594H319.437C319.509 223.03 319.738 223.424 320.082 223.702ZM322.692 219.552C323.045 219.152 323.228 218.629 323.201 218.096C323.236 217.522 323.044 216.958 322.666 216.524C322.476 216.333 322.249 216.185 321.998 216.087C321.747 215.989 321.479 215.945 321.21 215.957C320.939 215.943 320.669 215.988 320.418 216.088C320.166 216.188 319.94 216.341 319.753 216.537C319.413 216.961 319.228 217.488 319.228 218.032C319.228 218.575 319.413 219.103 319.753 219.527C319.961 219.729 320.209 219.884 320.481 219.983C320.753 220.082 321.043 220.122 321.332 220.1C321.585 220.112 321.837 220.069 322.072 219.974C322.306 219.88 322.518 219.736 322.692 219.552Z" fill="#2F2E41"/>
<path d="M327.526 216.053C328.099 215.1 329.079 214.623 330.478 214.623C331.876 214.623 332.856 215.1 333.43 216.053C334.063 217.275 334.359 218.642 334.287 220.016C334.361 221.402 334.066 222.783 333.43 224.017C333.08 224.467 332.633 224.831 332.121 225.081C331.609 225.331 331.047 225.461 330.478 225.461C329.908 225.461 329.346 225.331 328.835 225.081C328.323 224.831 327.875 224.467 327.526 224.017C326.893 222.782 326.597 221.402 326.669 220.016C326.598 218.643 326.894 217.275 327.526 216.053ZM332.495 217.986C332.41 217.488 332.186 217.024 331.851 216.646C331.463 216.314 330.969 216.132 330.458 216.132C329.948 216.132 329.454 216.314 329.066 216.646C328.732 217.025 328.509 217.489 328.422 217.986C328.309 218.65 328.257 219.323 328.267 219.997C328.255 220.687 328.305 221.377 328.415 222.059C328.493 222.561 328.717 223.03 329.06 223.405C329.45 223.738 329.946 223.921 330.458 223.921C330.971 223.921 331.467 223.738 331.857 223.405C332.2 223.03 332.424 222.561 332.502 222.059C332.606 221.376 332.654 220.687 332.643 219.997C332.654 219.33 332.604 218.664 332.495 218.006V217.986Z" fill="#2F2E41"/>
<path d="M338.109 223.482L336.336 227.522H335.254L336.291 223.482H338.109Z" fill="#2F2E41"/>
<path d="M340.21 216.054C340.784 215.1 341.764 214.623 343.162 214.623C343.738 214.569 344.318 214.674 344.838 214.926C345.358 215.178 345.8 215.568 346.114 216.054C346.746 217.275 347.042 218.643 346.971 220.016C347.043 221.402 346.747 222.782 346.114 224.017C345.765 224.467 345.317 224.831 344.805 225.081C344.294 225.331 343.732 225.462 343.162 225.462C342.593 225.462 342.031 225.331 341.519 225.081C341.007 224.831 340.56 224.467 340.21 224.017C339.574 222.783 339.279 221.402 339.353 220.016C339.281 218.643 339.577 217.275 340.21 216.054ZM345.173 217.987C345.085 217.489 344.862 217.025 344.529 216.646C344.346 216.467 344.128 216.328 343.888 216.239C343.648 216.15 343.392 216.113 343.136 216.131C342.881 216.112 342.624 216.148 342.384 216.237C342.144 216.326 341.926 216.466 341.744 216.646C341.411 217.026 341.188 217.489 341.1 217.987C340.993 218.651 340.943 219.324 340.951 219.997C340.941 220.687 340.988 221.377 341.093 222.059C341.17 222.561 341.395 223.03 341.738 223.405C342.128 223.738 342.624 223.921 343.136 223.921C343.649 223.921 344.145 223.738 344.535 223.405C344.878 223.03 345.102 222.561 345.18 222.059C345.29 221.377 345.34 220.687 345.328 219.997C345.336 219.33 345.284 218.664 345.173 218.006V217.987Z" fill="#2F2E41"/>
<path d="M349.594 216.053C349.909 215.567 350.352 215.176 350.873 214.924C351.395 214.672 351.976 214.568 352.553 214.623C353.951 214.623 354.931 215.1 355.505 216.053C356.138 217.274 356.434 218.642 356.362 220.016C356.436 221.402 356.141 222.783 355.505 224.017C355.155 224.467 354.708 224.83 354.196 225.081C353.684 225.331 353.122 225.461 352.553 225.461C351.983 225.461 351.421 225.331 350.91 225.081C350.398 224.83 349.95 224.467 349.601 224.017C348.968 222.782 348.672 221.402 348.744 220.016C348.671 218.643 348.965 217.275 349.594 216.053ZM354.564 217.986C354.478 217.488 354.255 217.024 353.919 216.646C353.738 216.465 353.519 216.326 353.279 216.237C353.039 216.148 352.782 216.112 352.527 216.131C352.272 216.113 352.015 216.15 351.775 216.238C351.535 216.327 351.317 216.466 351.135 216.646C350.801 217.025 350.578 217.489 350.49 217.986C350.378 218.65 350.326 219.323 350.336 219.996C350.327 220.687 350.376 221.376 350.484 222.058C350.561 222.561 350.785 223.029 351.128 223.405C351.312 223.584 351.532 223.723 351.773 223.811C352.014 223.9 352.271 223.937 352.527 223.92C352.783 223.939 353.041 223.902 353.282 223.813C353.523 223.724 353.742 223.585 353.926 223.405C354.269 223.029 354.493 222.561 354.57 222.058C354.678 221.376 354.727 220.687 354.718 219.996C354.727 219.329 354.675 218.663 354.564 218.005V217.986Z" fill="#2F2E41"/>
<g opacity="0.2">
<path d="M340.855 272.168H361.105C361.963 272.168 362.659 271.473 362.659 270.615V250.371C362.659 249.513 361.963 248.818 361.105 248.818H340.855C339.997 248.818 339.301 249.513 339.301 250.371V270.615C339.301 271.473 339.997 272.168 340.855 272.168Z" fill="white"/>
</g>
<path d="M338.36 272.167H358.611C359.469 272.167 360.165 271.472 360.165 270.614V250.37C360.165 249.512 359.469 248.817 358.611 248.817H338.36C337.503 248.817 336.807 249.512 336.807 250.37V270.614C336.807 271.472 337.503 272.167 338.36 272.167Z" fill="#2F2184"/>
<g opacity="0.2">
<path d="M281.056 272.168H301.307C302.165 272.168 302.86 271.473 302.86 270.615V250.371C302.86 249.513 302.165 248.818 301.307 248.818H281.056C280.198 248.818 279.503 249.513 279.503 250.371V270.615C279.503 271.473 280.198 272.168 281.056 272.168Z" fill="white"/>
</g>
<path d="M278.562 272.167H298.813C299.671 272.167 300.366 271.472 300.366 270.614V250.37C300.366 249.512 299.671 248.817 298.813 248.817H278.562C277.704 248.817 277.009 249.512 277.009 250.37V270.614C277.009 271.472 277.704 272.167 278.562 272.167Z" fill="#2F2184"/>
<path d="M317.749 264.693C318.123 264.962 318.577 265.096 319.038 265.073C319.342 265.092 319.646 265.026 319.915 264.881C320.184 264.736 320.407 264.52 320.559 264.255C320.947 263.377 321.113 262.416 321.042 261.459C320.794 261.808 320.449 262.076 320.05 262.232C319.613 262.415 319.144 262.507 318.67 262.502C318.071 262.512 317.479 262.377 316.943 262.109C316.428 261.857 316.001 261.455 315.718 260.956C315.407 260.384 315.254 259.739 315.274 259.088C315.251 258.617 315.322 258.147 315.484 257.704C315.646 257.261 315.894 256.856 316.215 256.51C316.557 256.185 316.963 255.933 317.406 255.769C317.849 255.605 318.321 255.533 318.793 255.557C319.34 255.505 319.892 255.6 320.39 255.832C320.888 256.064 321.316 256.425 321.629 256.878C322.189 257.76 322.473 259.12 322.473 260.943C322.498 261.981 322.392 263.018 322.157 264.029C322.001 264.737 321.619 265.375 321.068 265.846C320.441 266.289 319.681 266.505 318.915 266.459C318.033 266.516 317.164 266.222 316.498 265.64C315.933 265.097 315.592 264.361 315.544 263.578H317.104C317.176 264.016 317.405 264.412 317.749 264.693ZM320.365 260.544C320.714 260.141 320.894 259.619 320.868 259.088C320.904 258.515 320.714 257.95 320.34 257.515C320.149 257.324 319.92 257.175 319.668 257.077C319.416 256.979 319.146 256.935 318.877 256.948C318.606 256.936 318.337 256.981 318.085 257.081C317.834 257.181 317.607 257.333 317.42 257.528C317.053 257.945 316.861 258.488 316.885 259.042C316.864 259.583 317.051 260.111 317.407 260.518C317.612 260.721 317.859 260.878 318.131 260.977C318.402 261.076 318.692 261.115 318.98 261.091C319.23 261.1 319.479 261.055 319.711 260.961C319.944 260.866 320.153 260.724 320.327 260.544H320.365Z" fill="white"/>
<g opacity="0.2">
<path d="M251.118 272.168H271.369C272.227 272.168 272.922 271.473 272.922 270.615V250.371C272.922 249.513 272.227 248.818 271.369 248.818H251.118C250.26 248.818 249.565 249.513 249.565 250.371V270.615C249.565 271.473 250.26 272.168 251.118 272.168Z" fill="white"/>
</g>
<path d="M248.624 272.167H268.875C269.733 272.167 270.428 271.472 270.428 270.614V250.37C270.428 249.512 269.733 248.817 268.875 248.817H248.624C247.766 248.817 247.071 249.512 247.071 250.37V270.614C247.071 271.472 247.766 272.167 248.624 272.167Z" fill="#2F2184"/>
<g opacity="0.2">
<path d="M311.155 302.213H331.406C332.264 302.213 332.959 301.518 332.959 300.66V280.416C332.959 279.558 332.264 278.863 331.406 278.863H311.155C310.297 278.863 309.602 279.558 309.602 280.416V300.66C309.602 301.518 310.297 302.213 311.155 302.213Z" fill="white"/>
</g>
<path d="M308.667 302.212H328.918C329.776 302.212 330.471 301.517 330.471 300.659V280.415C330.471 279.557 329.776 278.862 328.918 278.862H308.667C307.809 278.862 307.114 279.557 307.114 280.415V300.659C307.114 301.517 307.809 302.212 308.667 302.212Z" fill="#2F2184"/>
<g opacity="0.2">
<path d="M340.855 302.213H361.105C361.963 302.213 362.659 301.518 362.659 300.66V280.416C362.659 279.558 361.963 278.863 361.105 278.863H340.855C339.997 278.863 339.301 279.558 339.301 280.416V300.66C339.301 301.518 339.997 302.213 340.855 302.213Z" fill="white"/>
</g>
<path d="M338.36 302.212H358.611C359.469 302.212 360.165 301.517 360.165 300.659V280.415C360.165 279.557 359.469 278.862 358.611 278.862H338.36C337.503 278.862 336.807 279.557 336.807 280.415V300.659C336.807 301.517 337.503 302.212 338.36 302.212Z" fill="#2F2184"/>
<g opacity="0.2">
<path d="M281.056 302.213H301.307C302.165 302.213 302.86 301.518 302.86 300.66V280.416C302.86 279.558 302.165 278.863 301.307 278.863H281.056C280.198 278.863 279.503 279.558 279.503 280.416V300.66C279.503 301.518 280.198 302.213 281.056 302.213Z" fill="white"/>
</g>
<path d="M278.562 302.212H298.813C299.671 302.212 300.366 301.517 300.366 300.659V280.415C300.366 279.557 299.671 278.862 298.813 278.862H278.562C277.704 278.862 277.009 279.557 277.009 280.415V300.659C277.009 301.517 277.704 302.212 278.562 302.212Z" fill="#2F2184"/>
<path d="M320.127 287.315C319.781 287.072 319.363 286.954 318.941 286.98C318.601 286.962 318.262 287.035 317.959 287.19C317.655 287.345 317.398 287.577 317.214 287.863C316.76 288.773 316.553 289.786 316.614 290.801C316.875 290.365 317.262 290.017 317.723 289.803C318.219 289.569 318.761 289.45 319.308 289.455C319.904 289.444 320.493 289.588 321.016 289.873C321.511 290.153 321.912 290.572 322.17 291.078C322.442 291.66 322.583 292.295 322.583 292.937C322.583 293.579 322.442 294.214 322.17 294.796C321.913 295.337 321.497 295.786 320.978 296.085C320.397 296.405 319.74 296.563 319.076 296.542C318.238 296.598 317.405 296.371 316.711 295.898C316.115 295.419 315.692 294.758 315.506 294.016C315.258 293.027 315.143 292.008 315.164 290.988C315.164 287.414 316.423 285.627 318.941 285.627C319.784 285.579 320.613 285.864 321.248 286.42C321.797 286.927 322.149 287.612 322.241 288.353H320.713C320.644 287.95 320.436 287.583 320.127 287.315ZM317.426 291.394C317.21 291.587 317.039 291.826 316.928 292.094C316.816 292.361 316.766 292.651 316.782 292.94C316.767 293.232 316.81 293.524 316.91 293.798C317.01 294.073 317.163 294.324 317.362 294.538C317.575 294.745 317.829 294.905 318.108 295.008C318.386 295.111 318.683 295.155 318.98 295.138C319.249 295.151 319.519 295.107 319.77 295.008C320.021 294.909 320.248 294.758 320.436 294.564C320.806 294.146 320.997 293.601 320.971 293.043C321.002 292.467 320.815 291.899 320.449 291.452C320.254 291.247 320.015 291.088 319.751 290.986C319.487 290.883 319.204 290.84 318.922 290.859C318.375 290.849 317.843 291.039 317.426 291.394Z" fill="white"/>
<g opacity="0.2">
<path d="M251.118 302.213H271.369C272.227 302.213 272.922 301.518 272.922 300.66V280.416C272.922 279.558 272.227 278.863 271.369 278.863H251.118C250.26 278.863 249.565 279.558 249.565 280.416V300.66C249.565 301.518 250.26 302.213 251.118 302.213Z" fill="white"/>
</g>
<path d="M248.624 302.212H268.875C269.733 302.212 270.428 301.517 270.428 300.659V280.415C270.428 279.557 269.733 278.862 268.875 278.862H248.624C247.766 278.862 247.071 279.557 247.071 280.415V300.659C247.071 301.517 247.766 302.212 248.624 302.212Z" fill="#2F2184"/>
<path d="M343.916 286.754C344.358 286.356 344.932 286.135 345.527 286.135C346.123 286.135 346.697 286.356 347.139 286.754C347.54 287.222 347.76 287.817 347.76 288.433C347.76 289.049 347.54 289.644 347.139 290.111C346.699 290.514 346.124 290.738 345.527 290.738C344.931 290.738 344.356 290.514 343.916 290.111C343.515 289.644 343.294 289.049 343.294 288.433C343.294 287.817 343.515 287.222 343.916 286.754ZM344.561 288.43C344.561 289.287 344.87 289.718 345.482 289.718C345.613 289.726 345.744 289.701 345.863 289.646C345.983 289.591 346.086 289.507 346.166 289.403C346.35 289.113 346.435 288.772 346.41 288.43C346.41 287.571 346.101 287.141 345.482 287.141C344.902 287.154 344.593 287.579 344.593 288.43H344.561ZM352.192 286.336L346.346 296.522H344.709L350.619 286.336H352.192ZM349.839 292.74C350.282 292.343 350.856 292.123 351.451 292.123C352.045 292.123 352.619 292.343 353.062 292.74C353.463 293.207 353.684 293.803 353.684 294.419C353.684 295.034 353.463 295.63 353.062 296.097C352.623 296.503 352.048 296.728 351.451 296.728C350.853 296.728 350.278 296.503 349.839 296.097C349.438 295.63 349.218 295.034 349.218 294.419C349.218 293.803 349.438 293.207 349.839 292.74ZM350.484 294.415C350.484 295.266 350.787 295.704 351.405 295.704C352.024 295.704 352.327 295.279 352.327 294.415C352.327 293.552 352.018 293.127 351.405 293.127C350.793 293.127 350.542 293.565 350.542 294.415H350.484Z" fill="white"/>
<g opacity="0.2">
<path d="M311.155 332.257H331.406C332.264 332.257 332.959 331.562 332.959 330.704V310.459C332.959 309.602 332.264 308.907 331.406 308.907H311.155C310.297 308.907 309.602 309.602 309.602 310.459V330.704C309.602 331.562 310.297 332.257 311.155 332.257Z" fill="white"/>
</g>
<path d="M308.667 332.257H328.918C329.776 332.257 330.471 331.562 330.471 330.704V310.459C330.471 309.602 329.776 308.907 328.918 308.907H308.667C307.809 308.907 307.114 309.602 307.114 310.459V330.704C307.114 331.562 307.809 332.257 308.667 332.257Z" fill="#2F2184"/>
<g opacity="0.2">
<path d="M340.855 332.257H361.105C361.963 332.257 362.659 331.562 362.659 330.704V310.459C362.659 309.602 361.963 308.907 361.105 308.907H340.855C339.997 308.907 339.301 309.602 339.301 310.459V330.704C339.301 331.562 339.997 332.257 340.855 332.257Z" fill="white"/>
</g>
<path d="M338.36 332.257H358.611C359.469 332.257 360.165 331.562 360.165 330.704V310.459C360.165 309.602 359.469 308.907 358.611 308.907H338.36C337.503 308.907 336.807 309.602 336.807 310.459V330.704C336.807 331.562 337.503 332.257 338.36 332.257Z" fill="#2F2184"/>
<g opacity="0.2">
<path d="M281.056 332.257H301.307C302.165 332.257 302.86 331.562 302.86 330.704V310.459C302.86 309.602 302.165 308.907 301.307 308.907H281.056C280.198 308.907 279.503 309.602 279.503 310.459V330.704C279.503 331.562 280.198 332.257 281.056 332.257Z" fill="white"/>
</g>
<path d="M278.562 332.257H298.813C299.671 332.257 300.366 331.562 300.366 330.704V310.459C300.366 309.602 299.671 308.907 298.813 308.907H278.562C277.704 308.907 277.009 309.602 277.009 310.459V330.704C277.009 331.562 277.704 332.257 278.562 332.257Z" fill="#2F2184"/>
<path d="M316.344 316.406C317.05 315.882 317.914 315.614 318.793 315.646C319.404 315.631 320.011 315.756 320.565 316.013C321.03 316.227 321.422 316.572 321.693 317.006C321.948 317.437 322.079 317.929 322.073 318.43C322.088 318.986 321.918 319.532 321.59 319.982C321.303 320.382 320.9 320.683 320.436 320.846V320.904C320.983 321.058 321.459 321.398 321.783 321.864C322.124 322.393 322.293 323.014 322.267 323.642C322.276 324.18 322.137 324.71 321.867 325.176C321.593 325.641 321.184 326.012 320.694 326.239C320.114 326.51 319.478 326.643 318.838 326.625C317.911 326.66 317 326.373 316.26 325.814C315.916 325.53 315.639 325.174 315.45 324.771C315.26 324.367 315.163 323.927 315.164 323.481H316.775C316.783 323.726 316.841 323.967 316.945 324.188C317.049 324.41 317.197 324.608 317.381 324.77C317.788 325.114 318.312 325.29 318.844 325.259C319.094 325.276 319.345 325.241 319.581 325.157C319.817 325.072 320.034 324.941 320.217 324.77C320.382 324.6 320.511 324.398 320.594 324.176C320.677 323.954 320.713 323.718 320.701 323.481C320.729 323.203 320.685 322.923 320.572 322.667C320.459 322.412 320.281 322.191 320.056 322.025C319.445 321.694 318.752 321.544 318.058 321.593H317.678V320.227H318.071C318.699 320.258 319.323 320.122 319.882 319.834C320.089 319.711 320.259 319.534 320.372 319.322C320.486 319.109 320.539 318.87 320.526 318.629C320.535 318.422 320.499 318.214 320.42 318.022C320.341 317.83 320.221 317.657 320.069 317.515C319.709 317.214 319.247 317.064 318.78 317.096C318.312 317.061 317.849 317.212 317.491 317.515C317.192 317.782 317 318.148 316.949 318.546H315.325C315.328 318.136 315.421 317.733 315.597 317.363C315.773 316.993 316.028 316.667 316.344 316.406Z" fill="white"/>
<g opacity="0.2">
<path d="M251.118 332.257H271.369C272.227 332.257 272.922 331.562 272.922 330.704V310.459C272.922 309.602 272.227 308.907 271.369 308.907H251.118C250.26 308.907 249.565 309.602 249.565 310.459V330.704C249.565 331.562 250.26 332.257 251.118 332.257Z" fill="white"/>
</g>
<path d="M248.624 332.257H268.875C269.733 332.257 270.428 331.562 270.428 330.704V310.459C270.428 309.602 269.733 308.907 268.875 308.907H248.624C247.766 308.907 247.071 309.602 247.071 310.459V330.704C247.071 331.562 247.766 332.257 248.624 332.257Z" fill="#2F2184"/>
<path d="M351.496 320.421V321.826H345.463V320.421H351.496Z" fill="white"/>
<g opacity="0.2">
<path d="M311.155 361.394H331.406C332.264 361.394 332.959 360.698 332.959 359.841V339.596C332.959 338.739 332.264 338.043 331.406 338.043H311.155C310.297 338.043 309.602 338.739 309.602 339.596V359.841C309.602 360.698 310.297 361.394 311.155 361.394Z" fill="white"/>
</g>
<path d="M308.667 361.393H328.918C329.776 361.393 330.471 360.697 330.471 359.84V339.595C330.471 338.738 329.776 338.042 328.918 338.042H308.667C307.809 338.042 307.114 338.738 307.114 339.595V359.84C307.114 360.697 307.809 361.393 308.667 361.393Z" fill="#2F2184"/>
<path d="M318.806 352.734C318.551 352.74 318.297 352.695 318.06 352.601C317.823 352.507 317.607 352.366 317.426 352.186C317.246 352.01 317.104 351.799 317.009 351.567C316.914 351.334 316.867 351.084 316.872 350.833C316.867 350.577 316.913 350.324 317.008 350.087C317.104 349.85 317.246 349.635 317.427 349.454C317.607 349.274 317.822 349.132 318.059 349.036C318.296 348.941 318.55 348.895 318.806 348.9C319.058 348.899 319.308 348.949 319.542 349.046C319.775 349.143 319.986 349.286 320.163 349.466C320.341 349.646 320.48 349.86 320.573 350.094C320.667 350.329 320.712 350.58 320.707 350.833C320.71 351.169 320.623 351.501 320.456 351.793C320.287 352.075 320.05 352.31 319.766 352.476C319.476 352.649 319.143 352.739 318.806 352.734Z" fill="white"/>
<g opacity="0.2">
<path d="M340.855 361.394H361.105C361.963 361.394 362.659 360.698 362.659 359.841V339.596C362.659 338.739 361.963 338.043 361.105 338.043H340.855C339.997 338.043 339.301 338.739 339.301 339.596V359.841C339.301 360.698 339.997 361.394 340.855 361.394Z" fill="white"/>
</g>
<path d="M338.36 361.393H358.611C359.469 361.393 360.165 360.697 360.165 359.84V339.595C360.165 338.738 359.469 338.042 358.611 338.042H338.36C337.503 338.042 336.807 338.738 336.807 339.595V359.84C336.807 360.697 337.503 361.393 338.36 361.393Z" fill="#2F2184"/>
<g opacity="0.2">
<path d="M281.056 361.394H301.307C302.165 361.394 302.86 360.698 302.86 359.841V339.596C302.86 338.739 302.165 338.043 301.307 338.043H281.056C280.198 338.043 279.503 338.739 279.503 339.596V359.841C279.503 360.698 280.198 361.394 281.056 361.394Z" fill="white"/>
</g>
<path d="M278.562 361.393H298.813C299.671 361.393 300.366 360.697 300.366 359.84V339.595C300.366 338.738 299.671 338.042 298.813 338.042H278.562C277.704 338.042 277.009 338.738 277.009 339.595V359.84C277.009 360.697 277.704 361.393 278.562 361.393Z" fill="#2F2184"/>
<path d="M284.955 349.718H287.914V346.689H289.467V349.718H292.425V351.155H289.467V354.189H287.914V351.155H284.955V349.718Z" fill="white"/>
<g opacity="0.2">
<path d="M251.118 361.394H271.369C272.227 361.394 272.922 360.698 272.922 359.841V339.596C272.922 338.739 272.227 338.043 271.369 338.043H251.118C250.26 338.043 249.565 338.739 249.565 339.596V359.841C249.565 360.698 250.26 361.394 251.118 361.394Z" fill="white"/>
</g>
<path d="M248.624 361.393H268.875C269.733 361.393 270.428 360.697 270.428 359.84V339.595C270.428 338.738 269.733 338.042 268.875 338.042H248.624C247.766 338.042 247.071 338.738 247.071 339.595V359.84C247.071 360.697 247.766 361.393 248.624 361.393Z" fill="#2F2184"/>
<path d="M352.385 348.049V349.453H344.593V348.049H352.385ZM352.385 351.374V352.778H344.593V351.374H352.385Z" fill="white"/>
<path d="M476.004 65.5723H322.705V72.7887H476.004V65.5723Z" fill="#EAD1A6"/>
<path d="M463.494 72.7891L402.877 368.809H412.016L472.15 72.7891H463.494Z" fill="#EAD1A6"/>
<path d="M472.15 72.7891L518.82 370.961H508.23L467.174 97.2797L472.15 72.7891Z" fill="#EAD1A6"/>
<path d="M435.76 251.923H495.726V258.424H434.439L435.76 251.923Z" fill="#EAD1A6"/>
<path d="M317.517 191.885C317.442 191.883 317.37 191.859 317.31 191.814C317.246 191.758 317.205 191.68 317.197 191.595C317.189 191.51 317.213 191.425 317.265 191.357L346.269 155.887C346.303 155.845 346.348 155.812 346.399 155.793C346.45 155.773 346.505 155.766 346.559 155.773C346.613 155.78 346.664 155.801 346.708 155.833C346.752 155.865 346.787 155.908 346.81 155.958L356.729 177.916L404.92 117.041C404.959 116.99 405.013 116.953 405.074 116.933C405.135 116.913 405.2 116.913 405.262 116.931C405.322 116.948 405.376 116.981 405.418 117.028C405.459 117.075 405.486 117.134 405.494 117.196L413.138 177.684L428.381 165.732C428.448 165.688 428.529 165.67 428.609 165.682C428.689 165.695 428.761 165.737 428.811 165.8C428.861 165.863 428.886 165.943 428.88 166.024C428.875 166.104 428.839 166.179 428.78 166.235L413.086 178.541C413.043 178.578 412.991 178.602 412.935 178.61C412.879 178.618 412.822 178.61 412.77 178.587C412.716 178.566 412.669 178.532 412.634 178.486C412.598 178.441 412.576 178.386 412.57 178.329L404.914 118.04L356.877 178.735C356.842 178.778 356.797 178.812 356.745 178.832C356.693 178.852 356.636 178.859 356.581 178.851C356.526 178.844 356.475 178.823 356.43 178.791C356.386 178.758 356.352 178.714 356.33 178.664L346.404 156.699L317.749 191.769C317.72 191.804 317.685 191.832 317.645 191.852C317.605 191.872 317.561 191.883 317.517 191.885Z" fill="#2F2184"/>
<path d="M429.457 168.761C431.29 168.761 432.776 167.275 432.776 165.442C432.776 163.61 431.29 162.124 429.457 162.124C427.624 162.124 426.137 163.61 426.137 165.442C426.137 167.275 427.624 168.761 429.457 168.761Z" fill="#2F2184"/>
<path d="M422.825 151.66C424.658 151.66 426.144 150.174 426.144 148.342C426.144 146.509 424.658 145.023 422.825 145.023C420.991 145.023 419.505 146.509 419.505 148.342C419.505 150.174 420.991 151.66 422.825 151.66Z" fill="#2F2E41"/>
<path d="M326.45 191.885C326.388 191.882 326.328 191.863 326.277 191.828C326.226 191.794 326.186 191.745 326.161 191.689C326.136 191.632 326.127 191.57 326.136 191.509C326.145 191.448 326.171 191.39 326.211 191.343L369.903 144.772C369.943 144.728 369.994 144.697 370.051 144.681C370.108 144.665 370.169 144.665 370.225 144.682C370.282 144.696 370.333 144.725 370.373 144.768C370.413 144.81 370.44 144.863 370.451 144.92L379.506 186.157L392.133 174.939C392.174 174.902 392.224 174.875 392.278 174.863C392.332 174.85 392.389 174.852 392.442 174.868C392.495 174.885 392.543 174.915 392.582 174.956C392.62 174.996 392.647 175.046 392.661 175.1L395.387 186.208L421.291 149.624C421.315 149.589 421.346 149.559 421.382 149.536C421.418 149.514 421.458 149.498 421.5 149.491C421.542 149.484 421.585 149.485 421.627 149.494C421.668 149.504 421.707 149.522 421.742 149.546C421.811 149.597 421.858 149.672 421.872 149.756C421.886 149.84 421.868 149.927 421.819 149.997L395.503 187.155C395.469 187.207 395.42 187.247 395.363 187.27C395.305 187.294 395.242 187.298 395.181 187.284C395.121 187.273 395.065 187.245 395.02 187.203C394.975 187.16 394.944 187.106 394.93 187.046L392.158 175.744L379.526 186.968C379.485 187.008 379.434 187.035 379.379 187.048C379.324 187.061 379.266 187.059 379.212 187.041C379.158 187.024 379.109 186.993 379.072 186.951C379.034 186.908 379.008 186.857 378.997 186.801L369.974 145.648L326.701 191.775C326.671 191.812 326.632 191.842 326.589 191.861C326.545 191.88 326.497 191.888 326.45 191.885Z" fill="#2F2E41"/>
<path d="M290.518 81.1848C287.688 84.8328 283.666 87.3703 279.154 88.3534C274.643 89.3365 269.929 88.7027 265.837 86.5627C261.746 84.4228 258.537 80.913 256.773 76.6473C255.008 72.3815 254.8 67.6313 256.184 63.2275L274.959 69.1488L290.518 81.1848Z" fill="#2F2184"/>
<path d="M274.959 69.1811L256.184 63.2598C257.405 59.394 259.791 55.9999 263.016 53.542C266.24 51.0841 270.146 49.6826 274.198 49.5293L274.959 69.1811Z" fill="#2F2E41"/>
<path d="M294.636 69.1805C294.642 73.529 293.192 77.7545 290.518 81.1842L274.959 69.1547L274.198 49.5029C274.45 49.5029 274.707 49.5029 274.959 49.5029C277.543 49.5029 280.103 50.012 282.49 51.0009C284.878 51.9899 287.048 53.4394 288.875 55.2667C290.702 57.0941 292.152 59.2633 293.14 61.6507C294.128 64.038 294.637 66.5967 294.636 69.1805Z" fill="white"/>
<path d="M353.062 261.749H343.916C343.831 261.747 343.75 261.713 343.69 261.653C343.63 261.593 343.595 261.512 343.594 261.427C343.594 261.341 343.628 261.259 343.688 261.199C343.749 261.138 343.831 261.104 343.916 261.104H353.062C353.147 261.104 353.229 261.138 353.29 261.199C353.35 261.259 353.384 261.341 353.384 261.427C353.384 261.512 353.35 261.594 353.29 261.654C353.229 261.715 353.147 261.749 353.062 261.749Z" fill="white"/>
<path d="M348.492 266.298C349.179 266.298 349.736 265.741 349.736 265.054C349.736 264.367 349.179 263.811 348.492 263.811C347.805 263.811 347.248 264.367 347.248 265.054C347.248 265.741 347.805 266.298 348.492 266.298Z" fill="white"/>
<path d="M348.492 259.184C349.179 259.184 349.736 258.628 349.736 257.941C349.736 257.254 349.179 256.697 348.492 256.697C347.805 256.697 347.248 257.254 347.248 257.941C347.248 258.628 347.805 259.184 348.492 259.184Z" fill="white"/>
<path d="M109.336 259.861L116.503 261.794C116.503 261.794 131.463 278.862 118.379 311.754H80.797C75.2678 311.76 69.8415 310.26 65.1007 307.415C60.3599 304.57 56.4837 300.488 53.8883 295.608C48.4034 285.253 45.0261 270.763 53.985 254.655L90.3939 236.858L109.336 259.861Z" fill="#2F2E41"/>
<path d="M106.823 140.224C106.823 140.224 105.398 141.957 104.477 148.671L87.4355 155.758L88.1961 146.094C88.1961 146.094 94.1386 140.855 98.9402 130.694C98.9402 130.675 100.249 137.337 106.823 140.224Z" fill="#F9B499"/>
<path d="M106.823 140.224C105.433 142.835 104.633 145.718 104.477 148.671C104.477 148.671 100.384 144.071 99.6299 132.763C99.6299 132.763 101.937 138.091 106.823 140.224Z" fill="#F7A48B"/>
<path d="M99.844 121.297C96.5484 128.454 99.6787 136.926 106.836 140.219C113.993 143.513 122.467 140.382 125.762 133.226L133.182 117.113C136.478 109.956 133.348 101.485 126.191 98.1907C119.034 94.8968 110.56 98.0281 107.264 105.185L99.844 121.297Z" fill="#F9B499"/>
<path d="M110.729 110.031C110.729 110.031 141.459 115.095 138.714 99.9986C138.714 99.9986 135.182 72.7438 100.075 80.5852C100.075 80.5852 83.6007 82.5504 75.9502 107.254C75.9502 107.254 73.5977 123.329 55.9701 130.385C55.9701 130.385 40.5016 135.539 37.9235 159.431C37.0529 166.458 38.4435 173.581 41.8937 179.765C45.083 185.375 50.0162 189.791 55.9443 192.343L75.1703 157.446C75.1703 157.446 82.795 148.033 88.1961 146.074C88.1961 146.074 94.4673 140.571 98.9402 130.675C98.9402 130.675 97.4256 126.525 99.8297 121.3L104.142 111.931L110.729 110.031Z" fill="#2F2E41"/>
<path d="M110.396 111.798C111.575 107.857 109.879 103.87 106.609 102.892C103.338 101.914 99.7313 104.316 98.5523 108.257C97.3733 112.199 99.0688 116.186 102.339 117.164C105.61 118.142 109.217 115.74 110.396 111.798Z" fill="#F9B499"/>
<path d="M113.623 168.522C113.623 168.522 134.827 196.873 129.278 207.948C129.278 207.948 127.196 213.567 119.114 223.212C116.779 225.998 115.026 229.223 113.958 232.697C112.533 237.342 111.044 244.14 111.496 251.311C111.617 252.748 111.845 254.174 112.179 255.577C112.714 258.077 111.173 264.829 76.1888 260.254C76.1888 260.254 63.5046 258.869 58.9414 254.114L79.9205 182.987L113.623 168.522Z" fill="#2F2184"/>
<path d="M53.985 196.659L43.4665 220.228C43.4665 220.228 35.3584 237.47 48.7258 251.536C48.7258 251.536 57.3366 260.453 81.519 255.892C81.519 255.892 124.921 252.129 145.733 242.419C145.733 242.419 153.853 249.551 166.144 236.079L172.538 242.322C173.101 242.878 173.861 243.189 174.652 243.189C175.443 243.189 176.203 242.878 176.766 242.322C177.318 241.769 177.635 241.024 177.648 240.242C177.661 239.461 177.37 238.705 176.837 238.134L168.458 229.191C167.47 228.117 166.537 226.995 165.661 225.828C164.204 223.895 160.157 220.596 151.088 224.61L138.894 230.357L88.2993 215.847L89.3177 213.914L53.985 196.659Z" fill="#F9B499"/>
<path d="M88.2994 215.848L78.3738 229.121C78.3738 229.121 92.0827 220.377 102.472 219.894L88.2994 215.848Z" fill="#F7A48B"/>
<path d="M120.171 268.037C120.171 268.037 172.158 266.619 191.919 269.912C191.919 269.912 209.489 270.73 218.55 287.47C227.612 304.209 253.135 345.922 253.135 345.922L226.51 363.216C226.51 363.216 191.648 329.183 184.784 309.976L118.398 311.741C118.398 311.741 128.936 287.051 120.171 268.037Z" fill="#F9B499"/>
<path d="M184.784 310.002C184.462 306.99 184.462 303.954 184.784 300.942C184.784 300.942 175.445 307.56 158.429 310.704L184.784 310.002Z" fill="#F7A48B"/>
<path d="M226.51 363.242C231.879 368.667 246.961 377.475 246.961 377.475V379.659C276.867 393.757 284.408 387.197 284.408 387.197C265.439 375.78 253.135 345.961 253.135 345.961L226.51 363.242Z" fill="#EAD1A6"/>
<path d="M257.66 396.682C262.839 397.27 267.912 398.571 272.735 400.548C277.112 403.711 288.3 407.597 288.3 407.597C305.799 411.972 304.098 403.222 304.098 403.222C305.799 393.982 284.408 387.178 284.408 387.178C284.408 387.178 276.867 393.737 246.961 379.64C241.122 396.901 257.66 396.682 257.66 396.682Z" fill="#2F2184"/>
<path d="M99.7265 267.754H189.644V259.197H99.7265V267.754Z" fill="#2F2184"/>
<g opacity="0.2">
<path d="M99.7265 267.754H189.644V259.197H99.7265V267.754Z" fill="black"/>
</g>
<path d="M189.637 267.738L221.474 188.485L213.531 185.297L181.694 264.549L189.637 267.738Z" fill="#2F2184"/>
<g opacity="0.2">
<path d="M189.637 267.738L221.474 188.485L213.531 185.297L181.694 264.549L189.637 267.738Z" fill="white"/>
</g>
<path d="M184.784 266.381C186.386 266.381 187.684 265.083 187.684 263.481C187.684 261.88 186.386 260.582 184.784 260.582C183.182 260.582 181.884 261.88 181.884 263.481C181.884 265.083 183.182 266.381 184.784 266.381Z" fill="white"/>
<path d="M58.9221 329.1H177.649V310.698H58.9221V329.1Z" fill="#2F2184"/>
<g opacity="0.2">
<path d="M58.9221 329.099H177.649V310.697H58.9221V329.099Z" fill="white"/>
</g>
<g opacity="0.2">
<path d="M58.9221 316.915H177.649V310.697H58.9221V316.915Z" fill="black"/>
</g>
<g opacity="0.2">
<path d="M133.106 329.099H156.058V310.697H133.106V329.099Z" fill="white"/>
</g>
<g opacity="0.2">
<path d="M83.8973 329.099H90.6326V310.697H83.8973V329.099Z" fill="white"/>
</g>
<g opacity="0.2">
<path d="M74.7837 329.099H78.3479V310.697H74.7837V329.099Z" fill="white"/>
</g>
<path d="M74.7773 347.508H193.504V329.106H74.7773V347.508Z" fill="#2F2184"/>
<g opacity="0.2">
<path d="M74.7773 347.508H193.504V329.106H74.7773V347.508Z" fill="white"/>
</g>
<g opacity="0.2">
<path d="M74.7773 335.317H193.504V329.1H74.7773V335.317Z" fill="black"/>
</g>
<g opacity="0.2">
<path d="M148.962 347.508H171.913V329.106H148.962V347.508Z" fill="white"/>
</g>
<g opacity="0.2">
<path d="M99.7526 347.508H106.488V329.106H99.7526V347.508Z" fill="white"/>
</g>
<g opacity="0.2">
<path d="M90.6389 347.508H94.2031V329.106H90.6389V347.508Z" fill="white"/>
</g>
<path d="M58.9221 365.909H177.649V347.507H58.9221V365.909Z" fill="#2F2184"/>
<g opacity="0.2">
<path d="M58.9221 365.909H177.649V347.507H58.9221V365.909Z" fill="white"/>
</g>
<g opacity="0.2">
<path d="M58.9221 353.719H177.649V347.501H58.9221V353.719Z" fill="black"/>
</g>
<g opacity="0.2">
<path d="M133.106 365.909H156.058V347.507H133.106V365.909Z" fill="white"/>
</g>
<g opacity="0.2">
<path d="M83.8973 365.909H90.6326V347.507H83.8973V365.909Z" fill="white"/>
</g>
<g opacity="0.2">
<path d="M74.7837 365.909H78.3479V347.507H74.7837V365.909Z" fill="white"/>
</g>
<path d="M64.3811 384.317H183.108V365.916H64.3811V384.317Z" fill="#2F2184"/>
<g opacity="0.2">
<path d="M64.3811 384.317H183.108V365.916H64.3811V384.317Z" fill="white"/>
</g>
<g opacity="0.2">
<path d="M64.3811 372.127H183.108V365.909H64.3811V372.127Z" fill="black"/>
</g>
<g opacity="0.2">
<path d="M138.559 384.317H161.51V365.916H138.559V384.317Z" fill="white"/>
</g>
<g opacity="0.2">
<path d="M89.35 384.317H96.0852V365.916H89.35V384.317Z" fill="white"/>
</g>
<g opacity="0.2">
<path d="M80.2427 384.317H83.8069V365.916H80.2427V384.317Z" fill="white"/>
</g>
<path d="M74.7773 402.236H193.504V383.835H74.7773V402.236Z" fill="#2F2184"/>
<g opacity="0.2">
<path d="M74.7773 402.236H193.504V383.835H74.7773V402.236Z" fill="white"/>
</g>
<g opacity="0.2">
<path d="M74.7773 390.053H193.504V383.835H74.7773V390.053Z" fill="black"/>
</g>
<g opacity="0.2">
<path d="M148.962 402.236H171.913V383.835H148.962V402.236Z" fill="white"/>
</g>
<g opacity="0.2">
<path d="M99.7526 402.236H106.488V383.835H99.7526V402.236Z" fill="white"/>
</g>
<g opacity="0.2">
<path d="M90.6389 402.236H94.2031V383.835H90.6389V402.236Z" fill="white"/>
</g>
<path d="M89.2919 213.915L53.9851 196.66L75.1705 157.447C75.1705 157.447 87.9191 135.875 106.352 149.992C106.352 149.992 121.26 159.012 108.93 182.736L89.2919 213.915Z" fill="#2F2184"/>
<g opacity="0.2">
<path d="M89.2919 213.915L53.9851 196.66L75.1705 157.447C75.1705 157.447 87.9191 135.875 106.352 149.992C106.352 149.992 121.26 159.012 108.93 182.736L89.2919 213.915Z" fill="black"/>
</g>
<path d="M263.415 257.083L259.342 266.471H257.66L261.778 257.257H256.358V255.84H263.415V257.083Z" fill="white"/>
<path d="M254.869 294.3V293.044L259.787 285.956H261.811V292.825H263.171V294.274H261.811V296.497H260.167V294.274L254.869 294.3ZM260.244 287.683L256.79 292.837H260.244V287.683Z" fill="white"/>
<path d="M256.429 317.418V315.897H259.478V326.567H257.808V317.418H256.429Z" fill="white"/>
<path d="M257.505 346.271C258.079 345.317 259.059 344.847 260.457 344.847C261.856 344.847 262.836 345.317 263.409 346.271C264.042 347.492 264.338 348.86 264.266 350.233C264.341 351.619 264.045 353 263.409 354.234C263.06 354.684 262.612 355.048 262.1 355.298C261.589 355.549 261.027 355.679 260.457 355.679C259.888 355.679 259.326 355.549 258.814 355.298C258.302 355.048 257.855 354.684 257.505 354.234C256.872 352.999 256.577 351.619 256.648 350.233C256.578 348.86 256.874 347.492 257.505 346.271ZM262.475 348.204C262.387 347.706 262.164 347.243 261.83 346.863C261.442 346.531 260.949 346.349 260.438 346.349C259.927 346.349 259.434 346.531 259.046 346.863C258.712 347.243 258.489 347.706 258.401 348.204C258.289 348.868 258.237 349.54 258.247 350.214C258.234 350.904 258.284 351.594 258.395 352.276C258.472 352.778 258.696 353.247 259.039 353.622C259.429 353.955 259.925 354.138 260.438 354.138C260.951 354.138 261.447 353.955 261.837 353.622C262.176 353.245 262.4 352.777 262.481 352.276C262.586 351.594 262.633 350.904 262.623 350.214C262.63 349.547 262.58 348.881 262.475 348.223V348.204Z" fill="white"/>
<path d="M285.175 258.501C285.164 257.975 285.308 257.458 285.59 257.015C285.872 256.571 286.279 256.221 286.76 256.007C287.372 255.751 288.03 255.618 288.694 255.618C289.358 255.618 290.015 255.751 290.627 256.007C291.121 256.228 291.536 256.591 291.82 257.051C292.084 257.488 292.223 257.99 292.219 258.501C292.229 259.013 292.083 259.517 291.8 259.944C291.526 260.358 291.145 260.69 290.698 260.904C291.221 261.099 291.671 261.45 291.987 261.909C292.314 262.389 292.483 262.959 292.47 263.54C292.482 264.136 292.313 264.722 291.987 265.221C291.655 265.718 291.187 266.109 290.64 266.349C290.021 266.613 289.354 266.748 288.681 266.748C288.007 266.748 287.341 266.613 286.721 266.349C286.177 266.107 285.712 265.716 285.381 265.221C285.055 264.722 284.886 264.136 284.897 263.54C284.883 262.955 285.052 262.38 285.381 261.897C285.7 261.443 286.15 261.097 286.67 260.904C286.209 260.699 285.82 260.36 285.554 259.932C285.287 259.503 285.155 259.005 285.175 258.501ZM287.108 262.109C286.905 262.273 286.745 262.484 286.639 262.722C286.534 262.961 286.487 263.221 286.502 263.482C286.494 263.736 286.542 263.99 286.643 264.224C286.745 264.458 286.897 264.667 287.089 264.835C287.535 265.202 288.103 265.389 288.681 265.357C289.255 265.387 289.819 265.198 290.26 264.828C290.449 264.659 290.598 264.452 290.699 264.219C290.799 263.986 290.847 263.735 290.84 263.482C290.854 263.223 290.807 262.965 290.703 262.727C290.599 262.49 290.44 262.281 290.24 262.116C289.793 261.778 289.241 261.61 288.681 261.639C288.121 261.615 287.569 261.781 287.115 262.109H287.108ZM290.092 257.451C289.692 257.135 289.19 256.977 288.681 257.006C288.18 256.979 287.687 257.138 287.295 257.451C287.117 257.612 286.977 257.812 286.888 258.035C286.799 258.259 286.761 258.5 286.779 258.739C286.773 258.966 286.818 259.192 286.911 259.399C287.003 259.607 287.141 259.791 287.314 259.938C287.699 260.252 288.185 260.414 288.681 260.395C289.183 260.416 289.675 260.249 290.06 259.925C290.235 259.779 290.374 259.595 290.468 259.388C290.562 259.18 290.608 258.954 290.601 258.726C290.621 258.49 290.586 258.251 290.499 258.03C290.411 257.809 290.275 257.611 290.099 257.451H290.092Z" fill="white"/>
<path d="M291.775 287.289H286.87V290.202C287.11 289.897 287.426 289.659 287.785 289.512C288.189 289.327 288.629 289.233 289.074 289.235C289.778 289.203 290.476 289.387 291.072 289.764C291.561 290.087 291.943 290.549 292.168 291.091C292.386 291.631 292.498 292.209 292.496 292.792C292.511 293.459 292.37 294.121 292.084 294.725C291.802 295.267 291.367 295.715 290.833 296.013C290.112 296.379 289.305 296.544 288.498 296.49C287.69 296.437 286.912 296.168 286.245 295.711C285.602 295.189 285.188 294.438 285.091 293.617H286.715C286.812 294.055 287.067 294.442 287.43 294.705C287.839 294.986 288.327 295.129 288.823 295.111C289.114 295.129 289.406 295.08 289.676 294.968C289.947 294.857 290.188 294.685 290.382 294.467C290.749 293.99 290.934 293.399 290.904 292.798C290.942 292.211 290.753 291.632 290.376 291.181C290.172 290.982 289.928 290.829 289.66 290.731C289.392 290.633 289.107 290.594 288.823 290.614C288.392 290.6 287.969 290.727 287.617 290.975C287.284 291.218 287.035 291.558 286.902 291.948H285.329V285.82H291.775V287.289Z" fill="white"/>
<path d="M286.264 324.299C287.205 323.487 287.946 322.821 288.487 322.302C289.002 321.811 289.456 321.262 289.841 320.665C290.182 320.165 290.37 319.576 290.382 318.97C290.41 318.476 290.262 317.987 289.963 317.592C289.798 317.419 289.597 317.285 289.374 317.2C289.151 317.114 288.912 317.078 288.674 317.095C288.424 317.08 288.173 317.122 287.941 317.216C287.709 317.311 287.502 317.457 287.334 317.643C287 318.062 286.82 318.583 286.824 319.119H285.213C285.181 318.658 285.247 318.197 285.409 317.764C285.57 317.332 285.823 316.94 286.149 316.614C286.475 316.287 286.868 316.035 287.3 315.874C287.733 315.712 288.194 315.645 288.655 315.678C289.109 315.65 289.564 315.713 289.994 315.864C290.423 316.014 290.818 316.249 291.156 316.554C291.46 316.862 291.697 317.229 291.852 317.632C292.008 318.036 292.078 318.468 292.058 318.9C292.055 319.609 291.871 320.305 291.523 320.923C291.174 321.56 290.74 322.148 290.234 322.669C289.744 323.178 289.112 323.771 288.352 324.447L287.707 325.033H292.348V326.419H285.258V325.207L286.264 324.299Z" fill="white"/>
<path d="M507.579 319.17C507.895 311.161 507.785 303.141 507.25 295.143C506.071 278.644 503.553 262.267 499.722 246.175C497.621 237.116 495.037 228.205 492.343 219.313C492.259 219.043 491.84 219.12 491.911 219.397C500.238 250.782 507.076 283.146 506.593 315.717C506.464 324.885 505.414 333.803 504.543 342.868C504.543 343.113 504.917 343.21 504.969 342.959C506.703 335.265 507.238 327.134 507.579 319.17Z" fill="#2F2184"/>
<path d="M491.911 219.462C491.911 219.462 479.285 251.485 482.101 259.017C484.918 266.549 490.757 268.185 490.757 268.185C490.757 268.185 483.023 279.184 488.43 289.545C493.838 299.905 505.832 299.396 506.612 311.11C506.593 311.071 507.289 262.064 491.911 219.462Z" fill="#2F2184"/>
<path d="M505.252 290.84C505.272 290.783 505.272 290.722 505.252 290.666C503.589 268.799 499.481 247.187 493.007 226.234C493.007 226.176 492.884 226.234 492.903 226.234C495.4 235.598 497.611 245.014 499.536 254.481C497.839 252.877 495.767 251.723 493.509 251.124C493.464 251.124 493.445 251.175 493.509 251.188C495.883 252.058 498.013 253.483 499.722 255.344C500.103 257.174 500.457 259.01 500.799 260.918C497.982 257.76 494.07 256.208 490.151 254.719C490.1 254.719 490.068 254.784 490.151 254.803C494.231 256.459 498.285 258.598 501.057 262.135C502.019 267.453 502.861 272.784 503.583 278.127C501.544 276 498.931 274.509 496.062 273.836C495.984 273.836 495.926 273.946 496.016 273.971C498.979 274.827 501.63 276.523 503.648 278.855H503.699C503.951 280.737 504.189 282.625 504.408 284.506C502.831 283.172 501.051 282.098 499.136 281.323C499.091 281.323 499.065 281.388 499.136 281.407C501.089 282.25 502.877 283.435 504.415 284.906C504.426 284.912 504.44 284.915 504.453 284.915C504.467 284.915 504.48 284.912 504.492 284.906C504.692 286.742 504.904 288.501 505.085 290.299C502.243 286.864 498.555 284.229 494.386 282.65C494.377 282.648 494.368 282.646 494.359 282.647C494.351 282.648 494.342 282.65 494.334 282.655C494.326 282.659 494.319 282.665 494.314 282.672C494.308 282.679 494.304 282.687 494.302 282.696C494.299 282.704 494.298 282.712 494.298 282.721C494.298 282.729 494.3 282.738 494.304 282.746C494.307 282.753 494.312 282.76 494.319 282.766C494.325 282.772 494.333 282.776 494.341 282.779C498.458 284.6 502.075 287.388 504.885 290.904C504.917 290.942 504.958 290.97 505.005 290.985C505.052 290.999 505.102 291.001 505.149 290.988C505.429 293.733 505.671 296.482 505.878 299.235C505.878 299.235 505.942 299.28 505.942 299.235C505.671 296.497 505.53 293.662 505.252 290.84Z" fill="#3F4347"/>
<path d="M495.108 247.986C492.824 246.566 490.215 245.752 487.528 245.621C487.516 245.621 487.505 245.626 487.496 245.634C487.488 245.643 487.483 245.654 487.483 245.666C487.483 245.678 487.488 245.69 487.496 245.698C487.505 245.707 487.516 245.711 487.528 245.711C490.124 246.202 492.645 247.024 495.03 248.16C495.12 248.205 495.204 248.063 495.108 247.986Z" fill="#3F4347"/>
<path d="M496.642 281.89C494.885 280.891 492.953 280.235 490.951 279.957C490.942 279.954 490.933 279.953 490.923 279.955C490.914 279.956 490.905 279.959 490.898 279.965C490.89 279.97 490.884 279.977 490.88 279.985C490.876 279.994 490.874 280.003 490.874 280.012C490.874 280.021 490.876 280.03 490.88 280.039C490.884 280.047 490.89 280.054 490.898 280.059C490.905 280.065 490.914 280.068 490.923 280.069C490.933 280.071 490.942 280.07 490.951 280.067C492.909 280.459 494.803 281.123 496.577 282.038C496.648 282.058 496.713 281.929 496.642 281.89Z" fill="#3F4347"/>
<path d="M540.753 259.539C535.418 263.226 530.518 267.506 526.148 272.296C521.641 277.379 518.162 283.287 515.906 289.693C511.117 303.014 508.539 317.028 508.275 331.181C508.114 339.027 508.869 346.866 510.525 354.538C510.526 354.57 510.534 354.602 510.549 354.631C510.564 354.66 510.584 354.685 510.61 354.705C510.635 354.725 510.665 354.74 510.696 354.747C510.728 354.755 510.761 354.756 510.792 354.75C510.824 354.744 510.854 354.731 510.881 354.712C510.907 354.693 510.929 354.669 510.946 354.641C510.962 354.613 510.972 354.582 510.975 354.549C510.978 354.517 510.974 354.484 510.963 354.454C508.9 340.918 508.978 327.142 511.195 313.63C513.361 300.376 516.77 285.963 525.187 275.196C529.77 269.339 535.5 264.726 541.152 259.958C541.442 259.726 541.068 259.313 540.753 259.539Z" fill="#2F2184"/>
<path d="M510.112 321.664C513.156 316.753 516.731 312.192 520.772 308.063C527.082 301.748 532.374 297.264 533.225 293.095C534.075 288.927 526.895 285.84 526.895 285.84C526.895 285.84 535.635 287.412 538.02 283.746C540.405 280.08 541.571 258.85 541.571 258.85C541.571 258.85 525.697 270.196 518.278 286.079C510.86 301.961 510.112 321.664 510.112 321.664Z" fill="#2F2184"/>
<path d="M536.08 264.294C529.396 270.866 522.661 277.857 518.723 286.484C517.382 289.473 516.21 292.534 515.21 295.653C515.01 296.297 514.798 296.909 514.604 297.541C514.598 297.572 514.598 297.605 514.604 297.637C512.738 304.088 511.231 310.638 510.093 317.257C510.093 317.257 510.157 317.321 510.164 317.257C510.84 313.945 511.601 310.601 512.445 307.263H512.535C513.864 306.695 515.273 306.337 516.712 306.2C516.802 306.2 516.796 306.026 516.712 306.039C515.309 306.097 513.921 306.348 512.587 306.787C513.354 303.784 514.192 300.781 515.165 297.824C518.255 297.077 521.416 296.664 524.594 296.593V296.542C521.486 296.4 518.373 296.664 515.333 297.328C515.487 296.825 515.661 296.323 515.835 295.814C517.899 295.318 519.995 294.963 522.107 294.751M522.107 294.68C520.039 294.724 517.981 294.977 515.964 295.434C516.834 292.856 517.795 290.35 518.807 287.895C519.659 285.88 520.661 283.931 521.804 282.064C523.479 281.647 525.18 281.341 526.895 281.149C526.941 281.149 526.941 281.065 526.895 281.065C525.267 280.95 523.631 281.12 522.062 281.568C522.899 280.228 523.782 278.907 524.71 277.618C528.281 276.832 531.89 276.098 535.545 276.787C535.596 276.787 535.622 276.684 535.545 276.677C532.077 275.756 528.629 276.291 525.175 276.967C525.542 276.465 525.929 275.975 526.328 275.485C528.476 274.83 530.708 274.491 532.954 274.48C532.999 274.48 533.005 274.403 532.954 274.403C530.869 274.209 528.765 274.397 526.747 274.957C529.686 271.291 532.941 267.87 536.164 264.448C536.351 264.248 536.241 264.191 536.08 264.313L522.107 294.68Z" fill="#3F4347"/>
<path d="M535.906 278.766C534.858 278.616 533.797 278.579 532.741 278.656C532.711 278.665 532.685 278.685 532.669 278.713C532.654 278.741 532.65 278.773 532.658 278.804C532.664 278.824 532.675 278.841 532.69 278.856C532.704 278.87 532.722 278.881 532.741 278.888C533.785 278.888 534.842 278.83 535.887 278.888C535.903 278.883 535.917 278.873 535.927 278.859C535.936 278.845 535.94 278.828 535.938 278.811C535.931 278.793 535.92 278.778 535.906 278.766Z" fill="#3F4347"/>
<path d="M524.459 299.364C522.784 299.404 521.129 299.736 519.567 300.344V300.415C521.185 300.034 522.79 299.88 524.459 299.603C524.492 299.603 524.523 299.59 524.546 299.567C524.569 299.544 524.582 299.513 524.582 299.48C524.58 299.449 524.566 299.419 524.544 299.398C524.521 299.376 524.491 299.364 524.459 299.364Z" fill="#3F4347"/>
<path d="M521.03 292.251C520.332 292.243 519.635 292.304 518.948 292.431C518.884 292.431 518.884 292.56 518.948 292.56C519.644 292.599 520.341 292.566 521.03 292.463C521.159 292.444 521.159 292.251 521.03 292.251Z" fill="#3F4347"/>
<path d="M463.539 282.064C468.712 283.815 473.668 286.149 478.312 289.023C483.132 292.084 487.311 296.054 490.615 300.711C497.596 310.394 502.944 321.155 506.445 332.566C508.386 338.879 509.589 345.396 510.028 351.986C510.023 352.011 510.013 352.035 509.998 352.056C509.984 352.077 509.965 352.095 509.943 352.109C509.922 352.122 509.898 352.132 509.872 352.136C509.847 352.141 509.821 352.14 509.796 352.134C509.761 352.126 509.728 352.108 509.703 352.081C509.678 352.055 509.661 352.022 509.655 351.986C508.186 340.553 504.937 329.42 500.025 318.99C495.204 308.765 489.12 297.908 479.852 291.124C474.78 287.457 469.088 285.028 463.41 282.477C463.03 282.38 463.236 281.968 463.539 282.064Z" fill="#2F2184"/>
<path d="M502.726 325.266C499.13 321.995 495.186 319.13 490.963 316.722C484.389 313.056 479.04 310.672 477.429 307.483C475.817 304.293 480.812 300.15 480.812 300.15C480.812 300.15 474.103 303.436 471.325 301.02C468.547 298.604 462.695 281.69 462.695 281.69C462.695 281.69 478.163 287.193 487.831 298.365C497.499 309.538 502.726 325.266 502.726 325.266Z" fill="#2F2184"/>
<path d="M501.862 321.786C494.128 307.244 483.777 294.081 469.636 285.421C473.334 287.799 476.803 290.515 480 293.533C477.119 293.375 474.246 293.98 471.673 295.285C471.667 295.29 471.663 295.296 471.66 295.303C471.657 295.31 471.655 295.317 471.655 295.324C471.655 295.331 471.657 295.339 471.66 295.345C471.663 295.352 471.667 295.358 471.673 295.363H471.712C474.447 294.333 477.355 293.841 480.277 293.913C480.291 293.919 480.307 293.923 480.322 293.923C480.338 293.923 480.353 293.919 480.368 293.913C480.87 294.39 481.367 294.88 481.863 295.363C480.366 295.433 478.878 295.634 477.416 295.962M477.416 296.014C478.962 295.724 480.535 295.594 482.108 295.627C484.711 298.249 487.16 301.02 489.442 303.926C488.403 303.776 487.344 303.851 486.336 304.145C486.326 304.157 486.32 304.171 486.32 304.187C486.32 304.202 486.326 304.217 486.336 304.229V304.261C487.438 304.133 488.55 304.118 489.655 304.216C490.087 304.757 490.506 305.292 490.944 305.839C487.783 305.646 484.611 305.955 481.547 306.754V306.832C484.727 306.195 487.978 305.978 491.215 306.187C491.608 306.709 491.982 307.25 492.368 307.779C490.483 307.731 488.6 307.948 486.774 308.423C486.703 308.423 486.722 308.552 486.774 308.533C488.678 308.122 490.63 307.97 492.575 308.082C494.244 310.375 495.842 312.721 497.37 315.092C496.551 314.951 495.71 315.001 494.914 315.24M494.914 315.304C495.799 315.241 496.689 315.284 497.563 315.433C498.949 317.579 500.315 319.75 501.559 321.935C501.733 322.089 502.036 321.935 501.914 321.761L494.914 315.304Z" fill="#3F4347"/>
<path d="M489.835 309.731C488.31 309.621 486.778 309.807 485.324 310.279L489.835 309.731ZM485.324 310.343C486.817 310.107 488.324 309.965 489.835 309.918C489.964 309.918 489.964 309.77 489.835 309.763L485.324 310.343Z" fill="#3F4347"/>
<path d="M476.301 292.012C475.609 291.967 474.914 292.006 474.232 292.128C474.214 292.128 474.198 292.135 474.186 292.147C474.174 292.159 474.167 292.176 474.167 292.193C474.166 292.201 474.167 292.21 474.17 292.219C474.173 292.227 474.178 292.234 474.184 292.241C474.19 292.247 474.197 292.252 474.206 292.254C474.214 292.257 474.223 292.258 474.232 292.257C474.876 292.186 475.579 292.212 476.268 292.193C476.28 292.196 476.292 292.196 476.304 292.194C476.317 292.192 476.328 292.187 476.338 292.181C476.348 292.174 476.357 292.166 476.364 292.155C476.371 292.145 476.376 292.134 476.378 292.122C476.382 292.097 476.376 292.072 476.361 292.052C476.347 292.031 476.325 292.017 476.301 292.012Z" fill="#3F4347"/>
<path d="M522.661 373.325H487.708L492.691 336.825L493.967 327.476H516.403L517.679 336.825L522.661 373.325Z" fill="#3F4347"/>
<path d="M517.679 336.825H492.691L493.967 327.476H516.403L517.679 336.825Z" fill="#2E3135"/>
<path d="M519.612 324.222H490.757V332.153H519.612V324.222Z" fill="#3F4347"/>
</svg>
