<svg width="430" height="441" viewBox="0 0 430 441" fill="none" xmlns="http://www.w3.org/2000/svg">
<g clip-path="url(#clip0_824_1554)">
<path d="M204.048 381.425C204.137 364.869 180.985 351.321 152.336 351.166C123.687 351.011 100.39 364.307 100.301 380.863C100.211 397.42 123.363 410.968 152.012 411.123C180.661 411.278 203.958 397.982 204.048 381.425Z" fill="#F2F2F2"/>
<path d="M330.18 389.257L215.299 322.886C212.84 321.469 213.17 318.987 215.99 317.346L222.515 313.575C225.346 311.934 229.645 311.753 232.093 313.18L346.974 379.541C349.433 380.968 349.103 383.451 346.283 385.091L339.758 388.852C336.938 390.493 332.638 390.631 330.18 389.257Z" fill="#F2F2F2"/>
<path d="M341.482 63.1864L235.765 2.0995C235.018 1.57327 234.143 1.25883 233.233 1.18944C232.322 1.12005 231.41 1.2983 230.592 1.70532L220.162 7.74583L232.444 17.3339L235.446 16.5669V267.285C235.446 273.166 239.022 280.006 243.428 282.552L336.107 350.457V354.644L346.921 348.337C348.485 347.272 349.475 345.141 349.475 342.051V78.4848C349.454 72.5615 345.856 65.7007 341.482 63.1864Z" fill="#999999"/>
<path d="M325.315 85.5685V73.7431L314.917 81.5521L269.482 62.5037L235.424 37.7025V16.534L232.412 17.2904L220.151 7.70232L230.582 1.66181C231.398 1.25976 232.307 1.08332 233.215 1.15075C234.122 1.21818 234.995 1.52701 235.743 2.04533L341.45 63.1536C344.356 64.8262 346.889 68.3525 348.262 72.241L325.315 85.5685Z" fill="#E6E6E6"/>
<path d="M330.957 354.164L225.271 293.077C220.865 290.531 217.3 283.692 217.3 277.811V14.2551C217.3 8.37435 220.865 5.66837 225.271 8.21455L330.957 69.3121C335.363 71.8583 338.928 78.6872 338.928 84.5679V348.124C338.96 354.005 335.395 356.711 330.957 354.164Z" fill="#CCCCCC"/>
<path d="M219.63 279.366V15.3947C219.63 11.1333 222.237 9.14107 225.441 10.9948L330.807 71.8899C334 73.7436 336.618 78.7295 336.618 83.0122V346.952C336.618 351.213 334.021 353.216 330.807 351.362L225.441 290.456C222.237 288.635 219.63 283.659 219.63 279.366Z" fill="#333333"/>
<path d="M333.543 85.8142V341.497C333.543 345.301 330.861 346.824 327.572 344.896L228.709 287.761C226.966 286.631 225.514 285.106 224.471 283.308C223.428 281.511 222.823 279.492 222.706 277.417V21.7336C222.706 17.9303 225.399 16.4069 228.709 18.3139L246.802 28.7543C247.627 29.2938 248.207 30.1351 248.42 31.098L249.26 34.912C249.694 36.9029 250.525 38.7858 251.703 40.4479C252.88 42.11 254.381 43.5172 256.115 44.5853L300.198 70.0577C303.551 71.9967 306.445 71.2616 307.052 68.3106L307.893 65.4661C308.095 64.7523 308.766 64.5605 309.521 64.9973L327.614 75.4484C329.347 76.5881 330.787 78.1206 331.817 79.9217C332.847 81.7228 333.438 83.7416 333.543 85.8142Z" fill="#80C5FF"/>
<path d="M311.373 149.288C312.284 149.878 313.042 150.676 313.585 151.617C314.127 152.558 314.438 153.615 314.491 154.7V165.524C314.491 167.516 313.087 168.325 311.352 167.324L247.941 130.687C247.03 130.093 246.271 129.293 245.728 128.35C245.184 127.408 244.87 126.351 244.812 125.264V114.44C244.812 112.448 246.227 111.649 248.004 112.64L311.373 149.288Z" fill="#57B2FF"/>
<path d="M311.373 187.15C312.284 187.74 313.042 188.539 313.585 189.48C314.127 190.421 314.438 191.477 314.491 192.562V203.397C314.491 205.389 313.087 206.188 311.352 205.186L247.941 168.56C247.03 167.968 246.271 167.17 245.728 166.229C245.184 165.289 244.87 164.233 244.812 163.148V152.313C244.812 150.321 246.227 149.522 248.004 150.513L311.373 187.15Z" fill="#57B2FF"/>
<g style="mix-blend-mode:multiply">
<path d="M222.727 179.575V197.899L217.299 194.767V176.443L222.727 179.575Z" fill="#B3B3B3"/>
</g>
<path d="M314.502 237.445V246.085C314.502 248.738 312.597 249.824 310.245 248.503L222.717 197.91V179.586L310.309 230.179C311.528 230.977 312.542 232.05 313.271 233.312C313.999 234.574 314.421 235.99 314.502 237.445Z" fill="#57B2FF"/>
<path d="M263.575 251.592C264.454 252.164 265.185 252.936 265.709 253.845C266.232 254.755 266.533 255.775 266.587 256.823L266.502 286.493C266.502 288.41 265.14 289.177 263.469 288.208L237.681 273.293C236.804 272.724 236.073 271.956 235.55 271.05C235.026 270.145 234.725 269.128 234.669 268.084L234.754 238.414C234.754 236.496 236.116 235.718 237.787 236.677L263.575 251.592Z" fill="#57B2FF"/>
<path d="M311.48 279.238C312.359 279.808 313.091 280.578 313.614 281.485C314.138 282.393 314.439 283.412 314.492 284.459L314.407 314.118C314.407 316.046 313.044 316.813 311.384 315.844L285.585 300.929C284.707 300.359 283.975 299.589 283.452 298.681C282.928 297.774 282.627 296.755 282.573 295.709L282.658 266.049C282.658 264.132 284.021 263.354 285.692 264.313L311.48 279.238Z" fill="#57B2FF"/>
<path d="M309.67 90.1286C311.088 91.0494 312.268 92.2929 313.113 93.7576C313.958 95.2222 314.445 96.8664 314.534 98.5555L314.46 123.953C314.46 127.043 312.267 128.3 309.574 126.745L236.372 84.4397C234.955 83.5183 233.775 82.2746 232.93 80.8101C232.085 79.3456 231.598 77.7018 231.508 76.0128L231.582 50.6149C231.582 47.5148 233.785 46.2683 236.467 47.8237L309.67 90.1286Z" fill="#57B2FF"/>
<g style="mix-blend-mode:multiply">
<path d="M222.727 100.314V150.055L217.299 146.923V97.1709L222.727 100.314Z" fill="#B3B3B3"/>
</g>
<path d="M230.826 109.848L230.699 149.862C230.699 152.515 228.826 153.58 226.441 152.259L222.674 150.129V100.377L226.58 102.646C227.802 103.429 228.823 104.489 229.561 105.74C230.298 106.991 230.732 108.398 230.826 109.848Z" fill="#57B2FF"/>
<path d="M260.116 40.9096C260.116 42.9444 258.679 43.7647 256.923 42.742C255.993 42.1351 255.219 41.3172 254.665 40.3546C254.11 39.392 253.79 38.3119 253.73 37.2022C253.73 35.1674 255.167 34.3471 256.923 35.3698C257.852 35.9779 258.625 36.7962 259.18 37.7585C259.735 38.7209 260.055 39.8003 260.116 40.9096Z" fill="#666666"/>
<path d="M258.668 40.0683C258.668 41.1336 257.881 41.6344 256.912 41.1336C256.388 40.7927 255.955 40.3296 255.649 39.784C255.343 39.2385 255.174 38.6268 255.156 38.0015C255.156 36.8829 255.933 36.4355 256.912 37.0001C257.428 37.3349 257.856 37.7879 258.161 38.3215C258.467 38.8551 258.641 39.4539 258.668 40.0683Z" fill="#333333"/>
<path d="M293.535 55.7075L262.17 37.5966C261.884 37.3934 261.65 37.1253 261.487 36.8142C261.324 36.5032 261.237 36.158 261.233 35.8069V34.5178C261.233 33.8253 261.648 33.4524 262.17 33.8147L293.535 51.9255C293.819 52.1306 294.052 52.3991 294.214 52.7098C294.377 53.0204 294.465 53.3647 294.472 53.7153V55.047C294.472 55.6862 294.046 56.0058 293.535 55.7075Z" fill="black"/>
<path d="M346.527 119.063C346.136 118.882 345.705 118.809 345.276 118.85C344.848 118.891 344.438 119.046 344.089 119.297C343.091 119.942 342.261 120.815 341.669 121.846C341.076 122.876 340.738 124.033 340.684 125.221L340.769 156.542C340.726 156.964 340.796 157.389 340.972 157.775C341.147 158.161 341.423 158.493 341.769 158.737L343.674 159.802C343.329 159.556 343.054 159.224 342.877 158.839C342.699 158.454 342.626 158.03 342.663 157.607L342.578 126.275C342.641 125.091 342.982 123.938 343.573 122.911C344.165 121.883 344.991 121.01 345.984 120.363C346.333 120.111 346.742 119.957 347.171 119.915C347.599 119.874 348.031 119.948 348.421 120.128L346.527 119.063Z" fill="#E6E6E6"/>
<path d="M345.984 120.406C347.878 119.34 349.411 120.193 349.422 122.366L349.507 153.687C349.445 154.873 349.104 156.028 348.513 157.057C347.921 158.086 347.094 158.961 346.101 159.611C344.207 160.676 342.674 159.802 342.663 157.65L342.578 126.318C342.641 125.134 342.982 123.981 343.574 122.954C344.165 121.926 344.991 121.053 345.984 120.406Z" fill="#BFBFBF"/>
<path d="M346.548 123.932C348.102 123.037 349.358 123.75 349.358 125.54L349.432 151.236C349.381 152.208 349.1 153.154 348.614 153.996C348.127 154.839 347.449 155.554 346.633 156.084C345.09 156.979 343.823 156.244 343.823 154.475L343.728 128.779C343.782 127.806 344.066 126.859 344.557 126.016C345.047 125.174 345.729 124.46 346.548 123.932Z" fill="#CCCCCC"/>
<path d="M214 37.905L188.212 22.9902C187.908 22.7698 187.551 22.6339 187.177 22.5965C186.803 22.5591 186.426 22.6214 186.084 22.7771L181.241 25.6003C181.583 25.4446 181.96 25.3823 182.334 25.4197C182.708 25.4571 183.065 25.5929 183.37 25.8133L209.169 40.7282C210.045 41.3004 210.774 42.0713 211.297 42.9782C211.821 43.8851 212.123 44.9026 212.181 45.9484L212.095 75.6182C212.131 75.9906 212.068 76.3658 211.913 76.7062C211.758 77.0466 211.516 77.34 211.212 77.5572L216.065 74.734C216.368 74.5156 216.607 74.2216 216.761 73.8813C216.914 73.541 216.975 73.1665 216.938 72.7951L217.023 43.1358C216.968 42.0869 216.665 41.066 216.14 40.1568C215.614 39.2475 214.881 38.4759 214 37.905Z" fill="#8482FF"/>
<path d="M209.157 40.7285C210.034 41.3008 210.763 42.0716 211.286 42.9785C211.81 43.8854 212.112 44.903 212.169 45.9487L212.084 75.6186C212.084 77.5362 210.722 78.3033 209.051 77.3445L183.263 62.4296C182.385 61.8592 181.654 61.0889 181.131 60.1816C180.607 59.2742 180.306 58.2558 180.251 57.2094L180.336 27.5502C180.336 25.6219 181.688 24.8442 183.359 25.8137L209.157 40.7285Z" fill="#4D4BB7"/>
<path d="M194.364 53.1292L191.937 59.6385L181.848 53.8004L188.116 44.9473C188.989 43.7115 191.192 44.9473 192.076 47.2378L194.364 53.1292Z" fill="white"/>
<path d="M198.344 63.3348L191.947 59.6274L194.363 53.1182L198.344 63.3348Z" fill="#E6E6E6"/>
<path d="M208.433 69.1621L198.344 63.3347L194.363 53.1287L197.428 44.9042C198.344 42.4432 202.026 44.5739 202.952 48.1002L208.433 69.1621Z" fill="white"/>
<path d="M194.406 41.5591C194.406 42.9867 193.406 43.5619 192.161 42.8375C191.505 42.4128 190.959 41.8393 190.567 41.1636C190.175 40.4879 189.948 39.7292 189.904 38.949C189.904 37.5214 190.915 36.9462 192.161 37.6599C192.815 38.0875 193.359 38.6633 193.749 39.3408C194.139 40.0183 194.364 40.7782 194.406 41.5591Z" fill="#E6E6E6"/>
<path d="M308.883 150.789L245.503 114.163C245.184 113.931 244.809 113.789 244.416 113.749C244.023 113.71 243.627 113.776 243.268 113.939L238.426 116.762C238.782 116.596 239.176 116.528 239.567 116.565C239.958 116.603 240.332 116.744 240.65 116.975L304.04 153.612C304.948 154.206 305.703 155.006 306.245 155.946C306.787 156.886 307.1 157.941 307.159 159.024V169.848C307.197 170.237 307.133 170.628 306.973 170.984C306.812 171.339 306.56 171.646 306.243 171.872L311.054 169.039C311.371 168.814 311.623 168.51 311.784 168.156C311.944 167.802 312.008 167.412 311.969 167.025V156.201C311.918 155.119 311.612 154.065 311.075 153.124C310.539 152.184 309.787 151.383 308.883 150.789Z" fill="#8482FF"/>
<path d="M304.04 153.613C304.948 154.207 305.703 155.006 306.245 155.946C306.787 156.886 307.1 157.941 307.158 159.025V169.849C307.158 171.841 305.754 172.651 304.019 171.649L240.597 135.023C239.689 134.426 238.934 133.625 238.392 132.683C237.85 131.741 237.537 130.685 237.479 129.6V118.776C237.479 116.784 238.883 115.974 240.618 116.976L304.04 153.613Z" fill="#4D4BB7"/>
<path d="M301.933 160.239L243.8 126.478C243.13 126.094 242.598 126.478 242.598 127.394C242.603 127.845 242.715 128.289 242.924 128.689C243.133 129.089 243.433 129.433 243.8 129.695L301.933 163.456C302.592 163.839 303.135 163.456 303.135 162.54C303.127 162.089 303.015 161.646 302.806 161.247C302.597 160.847 302.298 160.502 301.933 160.239Z" fill="white"/>
<path d="M308.883 188.652L245.503 151.993C245.187 151.76 244.813 151.616 244.422 151.576C244.03 151.537 243.636 151.604 243.279 151.77L238.426 154.593C238.782 154.427 239.176 154.359 239.567 154.396C239.958 154.434 240.332 154.575 240.65 154.806L304.04 191.443C304.948 192.037 305.703 192.836 306.245 193.776C306.787 194.717 307.1 195.771 307.159 196.855V207.69C307.198 208.076 307.134 208.467 306.973 208.82C306.812 209.174 306.56 209.479 306.243 209.703L311.096 206.88C311.411 206.654 311.66 206.348 311.819 205.995C311.977 205.641 312.04 205.252 312.001 204.867V194.043C311.942 192.962 311.629 191.91 311.087 190.973C310.545 190.036 309.79 189.241 308.883 188.652Z" fill="#8482FF"/>
<path d="M304.04 191.475C304.948 192.069 305.703 192.868 306.245 193.808C306.787 194.749 307.1 195.803 307.158 196.887V207.722C307.158 209.714 305.754 210.513 304.019 209.511L240.597 172.885C239.689 172.291 238.934 171.492 238.392 170.551C237.85 169.611 237.537 168.557 237.479 167.473V156.638C237.479 154.646 238.883 153.836 240.618 154.838L304.04 191.475Z" fill="#4D4BB7"/>
<path d="M301.933 197.494L243.8 163.712C243.13 163.329 242.598 163.712 242.598 164.628C242.603 165.08 242.715 165.523 242.924 165.923C243.133 166.323 243.433 166.668 243.8 166.93L301.933 200.69C302.592 201.074 303.135 200.69 303.135 199.774C303.124 199.327 303.01 198.888 302.801 198.493C302.593 198.097 302.295 197.756 301.933 197.494Z" fill="white"/>
<path d="M214 225.939L188.212 211.024C187.908 210.804 187.551 210.668 187.177 210.631C186.803 210.593 186.426 210.656 186.084 210.811L181.241 213.634C181.583 213.479 181.96 213.416 182.334 213.454C182.708 213.491 183.065 213.627 183.37 213.847L209.169 228.762C210.045 229.335 210.774 230.105 211.297 231.012C211.821 231.919 212.123 232.937 212.181 233.983L212.095 263.652C212.131 264.025 212.068 264.4 211.913 264.74C211.758 265.081 211.516 265.374 211.212 265.591L216.012 262.789C216.314 262.571 216.554 262.277 216.707 261.937C216.86 261.597 216.922 261.222 216.885 260.851L216.97 231.191C216.925 230.143 216.632 229.121 216.116 228.208C215.6 227.295 214.875 226.517 214 225.939Z" fill="#8482FF"/>
<path d="M209.157 228.762C210.034 229.334 210.763 230.105 211.286 231.012C211.81 231.919 212.112 232.936 212.169 233.982L212.084 263.652C212.084 265.57 210.722 266.337 209.051 265.378L183.263 250.463C182.385 249.893 181.654 249.122 181.131 248.215C180.607 247.308 180.306 246.289 180.251 245.243L180.336 215.573C180.336 213.655 181.688 212.878 183.359 213.847L209.157 228.762Z" fill="#4D4BB7"/>
<path d="M208.306 238.84L196.024 239.905L183.551 224.532C183.551 224.042 183.891 223.851 184.306 224.096L207.551 237.519C207.77 237.666 207.953 237.861 208.084 238.09C208.215 238.32 208.291 238.576 208.306 238.84Z" fill="white"/>
<path d="M196.024 240.886L208.306 239.82V254.799C208.306 255.278 207.966 255.47 207.551 255.225L184.306 241.802C184.088 241.657 183.905 241.463 183.774 241.236C183.643 241.008 183.567 240.753 183.551 240.491V225.502L195.79 240.662L196.024 240.886Z" fill="white"/>
<path d="M307.818 231.691L193.065 165.374C192.639 165.06 192.136 164.867 191.61 164.814C191.084 164.762 190.553 164.852 190.074 165.075L185.231 167.898C185.71 167.676 186.24 167.585 186.766 167.636C187.292 167.686 187.794 167.876 188.222 168.186L302.975 234.504C304.195 235.297 305.21 236.368 305.937 237.629C306.664 238.89 307.082 240.305 307.158 241.759V250.41C307.207 250.928 307.119 251.45 306.902 251.923C306.685 252.396 306.348 252.804 305.924 253.105L310.777 250.292C311.202 249.99 311.539 249.58 311.754 249.105C311.969 248.629 312.054 248.105 312.001 247.586V238.946C311.926 237.492 311.509 236.076 310.782 234.815C310.054 233.554 309.039 232.483 307.818 231.691Z" fill="#8482FF"/>
<path d="M302.975 234.504C304.195 235.297 305.21 236.368 305.937 237.629C306.664 238.89 307.082 240.305 307.158 241.759V250.41C307.158 253.073 305.264 254.16 302.901 252.817L188.169 186.5C186.948 185.705 185.932 184.633 185.205 183.37C184.478 182.107 184.061 180.69 183.986 179.234V170.594C183.986 167.92 185.881 166.855 188.244 168.186L302.975 234.504Z" fill="#4D4BB7"/>
<path d="M299.953 241.024L189.489 176.805C188.818 176.421 188.286 176.805 188.286 177.721C188.291 178.172 188.403 178.616 188.612 179.016C188.821 179.416 189.121 179.761 189.489 180.022L299.953 244.241C300.613 244.625 301.156 244.241 301.156 243.336C301.149 242.883 301.036 242.439 300.827 242.037C300.619 241.636 300.319 241.289 299.953 241.024Z" fill="white"/>
<path d="M261.085 253.105L235.297 238.19C234.993 237.97 234.636 237.834 234.262 237.797C233.888 237.759 233.511 237.822 233.169 237.977L228.326 240.79C228.668 240.634 229.045 240.572 229.419 240.609C229.793 240.647 230.15 240.782 230.455 241.003L256.253 255.918C257.132 256.49 257.863 257.262 258.387 258.171C258.91 259.08 259.212 260.101 259.265 261.149L259.18 290.808C259.216 291.18 259.153 291.555 258.998 291.896C258.843 292.236 258.601 292.53 258.297 292.747L263.15 289.924C263.453 289.707 263.694 289.416 263.849 289.077C264.004 288.739 264.067 288.366 264.034 287.995L264.119 258.325C264.06 257.278 263.754 256.258 263.227 255.351C262.7 254.444 261.966 253.674 261.085 253.105Z" fill="#8482FF"/>
<path d="M256.242 255.917C257.121 256.489 257.852 257.261 258.376 258.171C258.899 259.08 259.2 260.1 259.254 261.148L259.169 290.807C259.169 292.736 257.807 293.503 256.136 292.533L230.348 277.618C229.471 277.05 228.74 276.281 228.217 275.376C227.693 274.47 227.392 273.453 227.336 272.409L227.421 242.739C227.421 240.821 228.783 240.044 230.444 241.002L256.242 255.917Z" fill="#4D4BB7"/>
<path d="M253.923 282.583L232.636 270.279C231.959 269.838 231.395 269.244 230.99 268.544C230.585 267.844 230.351 267.059 230.306 266.252V254.533C230.306 253.052 231.37 252.402 232.636 253.201L253.923 265.517C254.6 265.957 255.164 266.552 255.569 267.251C255.974 267.951 256.208 268.736 256.253 269.544V281.262C256.253 282.733 255.21 283.329 253.923 282.583ZM232.636 254.288C231.881 253.851 231.274 254.203 231.274 255.066V266.784C231.3 267.255 231.437 267.713 231.674 268.12C231.911 268.528 232.241 268.873 232.636 269.128L253.923 281.444C254.678 281.87 255.285 281.529 255.285 280.666V268.947C255.259 268.475 255.122 268.016 254.885 267.607C254.649 267.197 254.319 266.85 253.923 266.593L232.636 254.288Z" fill="white"/>
<path d="M243.279 274.508C241.634 273.437 240.263 271.994 239.278 270.295C238.292 268.596 237.72 266.689 237.606 264.728C237.606 261.137 240.15 259.689 243.279 261.532C244.923 262.604 246.291 264.047 247.275 265.746C248.258 267.445 248.829 269.351 248.941 271.312C248.941 274.87 246.398 276.319 243.279 274.508ZM243.279 262.608C240.682 261.106 238.586 262.309 238.586 265.282C238.675 266.907 239.147 268.489 239.963 269.898C240.778 271.307 241.915 272.503 243.279 273.389C245.865 274.88 247.973 273.687 247.973 270.715C247.879 269.092 247.405 267.513 246.59 266.107C245.775 264.7 244.641 263.505 243.279 262.618V262.608Z" fill="white"/>
<path d="M250.006 264.121L236.553 256.397V253.574C236.553 252.604 237.234 252.221 238.075 252.7L248.473 258.709C248.917 258.999 249.286 259.389 249.553 259.848C249.819 260.307 249.974 260.821 250.006 261.351V264.121ZM237.521 255.8L249.005 262.448V260.744C248.996 260.551 248.941 260.364 248.845 260.197C248.749 260.03 248.614 259.889 248.452 259.785L238.053 253.776C237.755 253.595 237.5 253.776 237.5 254.096L237.521 255.8Z" fill="white"/>
<path d="M309 280.74L283.202 265.825C282.897 265.605 282.54 265.469 282.166 265.431C281.792 265.394 281.415 265.456 281.073 265.612L276.23 268.435C276.572 268.278 276.948 268.214 277.322 268.249C277.696 268.285 278.054 268.419 278.359 268.638L304.147 283.552C305.025 284.123 305.755 284.894 306.278 285.801C306.802 286.708 307.104 287.727 307.159 288.773L307.074 318.432C307.11 318.804 307.047 319.179 306.892 319.52C306.737 319.86 306.495 320.154 306.191 320.371L311.044 317.558C311.346 317.34 311.586 317.046 311.739 316.706C311.892 316.365 311.953 315.991 311.917 315.619L312.002 285.949C311.949 284.905 311.65 283.889 311.128 282.983C310.606 282.077 309.877 281.309 309 280.74Z" fill="#8482FF"/>
<path d="M304.147 283.563C305.024 284.134 305.754 284.904 306.278 285.811C306.801 286.719 307.103 287.737 307.159 288.783L307.074 318.442C307.074 320.36 305.711 321.137 304.04 320.168L278.252 305.253C277.372 304.685 276.64 303.915 276.117 303.007C275.593 302.099 275.292 301.08 275.24 300.033L275.325 270.374C275.325 268.456 276.688 267.678 278.359 268.637L304.147 283.563Z" fill="#4D4BB7"/>
<path d="M291.311 282.913C285.415 279.504 280.668 281.283 280.668 286.887C280.668 290.509 282.68 294.845 285.691 298.382C285.553 299.33 284.936 301.312 282.243 299.789C282.243 299.789 285.968 303.901 289.491 301.919C290.085 302.365 290.703 302.778 291.343 303.155C297.239 306.564 301.986 304.785 301.986 299.181C301.986 293.578 297.207 286.323 291.311 282.913Z" fill="white"/>
<path d="M307.147 91.6307L233.945 49.3259C233.449 48.9645 232.866 48.7424 232.256 48.6825C231.646 48.6225 231.031 48.727 230.475 48.9849L225.59 51.8507C226.144 51.5903 226.757 51.4845 227.366 51.5445C227.975 51.6045 228.556 51.8281 229.049 52.1916L302.294 94.4646C303.712 95.3853 304.891 96.6289 305.737 98.0935C306.582 99.5581 307.069 101.202 307.158 102.891L307.084 128.289C307.147 128.89 307.049 129.496 306.798 130.046C306.547 130.595 306.153 131.066 305.657 131.411L310.511 128.598C311.001 128.247 311.391 127.772 311.642 127.223C311.892 126.673 311.994 126.067 311.937 125.466L312.001 100.068C311.92 98.377 311.437 96.7294 310.593 95.2621C309.749 93.7947 308.568 92.5499 307.147 91.6307Z" fill="#8482FF"/>
<path d="M302.294 94.4645C303.712 95.3852 304.892 96.6288 305.737 98.0934C306.582 99.5581 307.069 101.202 307.158 102.891L307.084 128.289C307.084 131.379 304.881 132.636 302.199 131.07L228.996 88.7542C227.58 87.8345 226.401 86.5927 225.555 85.13C224.71 83.6673 224.222 82.0253 224.132 80.338L224.206 54.9401C224.206 51.84 226.399 50.5935 229.091 52.1489L302.294 94.4645Z" fill="#4D4BB7"/>
<path d="M300.453 100.547L231.433 60.4905C230.773 60.107 230.23 60.4905 230.23 61.4067C230.238 61.8575 230.351 62.3002 230.56 62.6997C230.769 63.0991 231.068 63.4443 231.433 63.7078L300.453 103.765C301.124 104.148 301.667 103.765 301.667 102.849C301.659 102.397 301.545 101.953 301.335 101.553C301.124 101.153 300.822 100.809 300.453 100.547Z" fill="white"/>
<path d="M300.453 110.135L231.433 70.089C230.773 69.6948 230.23 70.089 230.23 70.9945C230.237 71.447 230.35 71.8915 230.559 72.2928C230.767 72.6942 231.067 73.0412 231.433 73.3063L300.453 113.353C301.124 113.736 301.667 113.353 301.667 112.436C301.659 111.984 301.545 111.541 301.335 111.141C301.124 110.741 300.822 110.396 300.453 110.135Z" fill="white"/>
<path d="M300.453 119.724L231.433 79.6772C230.773 79.2937 230.23 79.6772 230.23 80.5827C230.237 81.0352 230.35 81.4797 230.559 81.881C230.767 82.2824 231.067 82.6294 231.433 82.8945L300.453 122.941C301.124 123.324 301.667 122.941 301.667 122.035C301.66 121.582 301.547 121.136 301.336 120.734C301.125 120.333 300.823 119.986 300.453 119.724Z" fill="white"/>
<path d="M188.754 101.464C188.669 101.241 188.598 101.013 188.541 100.782C188.52 100.534 188.52 100.284 188.541 100.036C188.544 99.7566 188.482 99.4805 188.36 99.2291C188.238 98.9778 188.06 98.758 187.839 98.5871C187.652 98.4748 187.477 98.3426 187.317 98.193C187.195 98.027 187.085 97.8526 186.988 97.6709C186.655 97.284 186.225 96.9931 185.742 96.8282C185.259 96.6634 184.741 96.6307 184.242 96.7334C182.132 97.0083 180.106 97.735 178.303 98.8641C175.757 100.222 173.569 102.165 171.917 104.532C171.304 105.477 170.79 106.484 170.384 107.536C170.028 108.457 169.719 109.396 169.458 110.349C169.288 110.988 169.054 111.606 168.926 112.256C168.858 112.553 168.815 112.856 168.799 113.161C168.825 113.443 168.773 113.727 168.65 113.981C168.437 114.28 148.832 138.815 147.438 140.551C146.214 142.075 145.224 143.96 143.787 145.281C140.818 148.019 136.944 149.979 133.336 151.737C130.398 153.165 125.205 154.454 126.492 158.95C127.028 160.228 127.86 161.36 128.919 162.252C130.528 163.959 131.818 165.939 132.729 168.101C132.766 168.238 132.849 168.359 132.963 168.442C133.058 168.474 133.159 168.481 133.257 168.465C133.356 168.448 133.449 168.407 133.528 168.346C138.636 165.619 152.632 155.732 155.005 154.294C155.005 154.22 155.005 154.145 155.005 154.07C155.708 153.651 156.308 153.08 156.761 152.398C158.485 150.075 160.103 147.678 161.636 145.217C163.168 142.756 164.605 140.253 165.989 137.76C167.372 135.267 168.692 132.625 169.98 130.025C171.268 127.426 174.237 121.13 174.482 120.608C174.727 120.086 174.769 119.617 175.206 119.415C175.482 119.276 175.791 119.287 176.078 119.138C176.391 118.961 176.677 118.742 176.93 118.488C179.793 115.846 181.389 112.096 183.635 108.974C184.019 108.395 184.477 107.869 184.997 107.408C186.062 106.577 187.424 106.162 188.116 105.043C188.368 104.572 188.548 104.066 188.648 103.541C188.881 102.873 188.918 102.152 188.754 101.464Z" fill="#FFB78C"/>
<path d="M113.328 388.202C113.323 389.035 113.505 389.858 113.858 390.611C114.212 391.365 114.728 392.03 115.371 392.559C116.181 393.065 117.119 393.328 118.074 393.316C120.701 393.409 123.267 392.516 125.269 390.812C127.493 388.905 128.866 386.103 131.24 384.42C132.554 383.569 133.952 382.855 135.412 382.289C138.94 380.697 142.205 378.578 145.097 376.004C145.806 375.457 146.378 374.753 146.768 373.948C147.002 373.327 147.015 372.644 146.803 372.015C146.592 371.385 146.169 370.849 145.608 370.496C144.89 370.094 144.103 369.83 143.288 369.718C140.381 369.303 137.431 369.281 134.518 369.654C130.792 369.868 127.111 370.585 123.577 371.785C122.058 372.355 120.611 373.103 119.266 374.011C118.766 374.363 118.032 375.247 117.436 375.354C116.87 375.259 116.323 375.072 115.818 374.8C114.925 377.374 114.213 380.009 113.689 382.683C113.344 384.501 113.223 386.355 113.328 388.202Z" fill="#4D4BB7"/>
<path d="M140.233 250.453C140.021 249.449 139.636 248.49 139.094 247.619C135.901 241.504 134.422 234.686 132.101 228.219C131.041 225.071 129.612 222.06 127.844 219.249C126.78 217.608 123.768 213.219 121.192 214.135C120.836 214.29 120.517 214.519 120.256 214.806C115.546 219.378 111.652 224.721 108.74 230.605C105.849 236.308 104.364 242.62 104.408 249.015C104.383 253.996 105.155 258.948 106.696 263.684C107.314 265.327 107.829 267.007 108.24 268.713C108.545 270.543 108.68 272.398 108.644 274.253L108.868 295.922C108.868 299.235 108.868 302.57 109.144 305.861C109.516 309.222 109.296 312.623 108.495 315.908C107.538 319.277 106.854 322.719 106.452 326.199C105.387 335.329 107.271 344.523 109.176 353.525L114.328 377.847C114.393 378.328 114.584 378.784 114.881 379.168C115.183 379.431 115.551 379.608 115.945 379.679C118.209 380.239 120.597 379.998 122.704 378.997C124.788 377.99 126.708 376.672 128.398 375.088C128.877 374.708 129.282 374.242 129.59 373.713C130.281 372.36 129.643 370.752 129.057 369.345C123.906 356.764 124.311 342.477 127.44 329.235C128.504 324.718 129.877 320.254 130.505 315.641C130.549 315.288 130.57 314.932 130.569 314.576C130.564 314.555 130.564 314.533 130.569 314.512C135.507 294.121 138.019 273.23 140.222 252.37C140.303 251.734 140.306 251.09 140.233 250.453Z" fill="#333333"/>
<path d="M177.622 367.449C174.669 367.268 171.705 367.353 168.767 367.705C166.436 367.928 164.219 368.82 162.381 370.272C161.267 371.338 160.31 372.558 159.54 373.894C157.326 377.452 153.25 385.783 159.146 388.191C160.168 388.561 161.271 388.649 162.339 388.447C166.074 387.872 169.289 385.368 172.982 384.707C174.375 384.517 175.78 384.428 177.186 384.441C182.209 384.303 187.35 383.376 191.575 380.648C193.571 379.381 194.983 377.374 195.502 375.066C196.279 371.87 194.31 369.856 191.341 369.175C186.828 368.192 182.237 367.615 177.622 367.449Z" fill="#8482FF"/>
<path d="M172.758 365.201C169.756 355.238 168.257 344.883 168.309 334.476C168.309 326.177 167.245 317.431 168.309 309.217C169.221 300.689 168.862 292.072 167.245 283.649C164.85 270.364 158.997 257.772 157.826 244.327C157.389 239.256 157.624 234.132 156.761 229.114C150.69 232.235 143.71 233.099 137.061 231.553C133.674 230.616 130.35 229.463 127.11 228.102C125.737 227.526 124.268 227.399 122.853 226.898C121.704 226.408 120.657 225.707 119.766 224.831C115.151 230.392 112.223 237.16 111.329 244.334C110.435 251.508 111.612 258.789 114.722 265.314C117.489 271.174 121.948 275.297 126.759 279.515C131.388 283.585 136.263 287.548 139.616 292.726C142.5 297.211 144.054 302.921 145.469 308.013C147.163 313.754 148.198 319.669 148.556 325.645C148.811 331.174 148.055 336.298 149.024 341.827C149.46 344.351 150.064 346.842 150.833 349.285C153.654 358.159 158.73 366.671 158.401 375.972C158.343 376.366 158.422 376.768 158.624 377.112C158.83 377.333 159.097 377.488 159.39 377.559C163.201 378.784 167.394 377.122 170.587 374.683C171.734 373.907 172.656 372.841 173.258 371.593C174.067 369.558 173.439 367.278 172.758 365.201Z" fill="#424242"/>
<path d="M104.472 157.491C103.344 163.585 103.972 170.275 105.143 176.038C106.848 184.386 109.229 192.581 112.263 200.541C113.508 203.791 114.86 207.051 115.137 210.513C115.626 216.596 112.742 222.381 109.868 227.761C109.554 228.235 109.384 228.79 109.379 229.359C109.457 229.818 109.655 230.248 109.954 230.605C113.598 235.542 118.669 239.238 124.481 241.195C130.264 243.123 136.344 244.003 142.436 243.794C147.598 243.731 152.877 243.134 157.507 240.843C157.762 233.247 158.028 225.662 157.954 218.066C157.89 210.928 156.176 203.428 157.879 196.376C158.486 193.83 159.55 191.401 160.21 188.918C160.921 186.21 161.18 183.402 160.976 180.609C160.806 178.34 160.146 175.825 158.177 174.675C157.571 174.323 156.879 174.131 156.251 173.801C153.271 172.235 152.547 168.038 149.673 166.28C148.586 165.728 147.43 165.323 146.236 165.076C133.677 161.56 124.183 146.113 110.209 148.329C109.458 148.397 108.732 148.63 108.08 149.011C107.431 149.516 106.928 150.185 106.622 150.95C105.614 153.023 104.891 155.223 104.472 157.491Z" fill="#D9D9D9"/>
<path d="M110.645 152.643C110.46 152.983 110.307 153.34 110.188 153.708C109.304 156.414 111.816 158.204 113.892 159.355C117.29 161.167 121.088 162.098 124.939 162.061C127.251 162.054 129.556 161.801 131.814 161.304C132.687 161.123 133.294 161.102 133.73 160.313C134.167 159.347 134.382 158.295 134.358 157.235C134.486 154.912 134.539 152.6 134.603 150.278C134.709 146.691 134.809 143.101 134.901 139.507C134.901 137.994 132.772 138.442 131.708 138.282C130.069 138.069 128.441 137.835 126.823 137.526C123.601 136.978 120.473 135.977 117.531 134.553C116.755 134.159 115.531 133.211 114.658 133.168C113.594 133.115 113.594 134.564 113.455 135.448C113.207 137.898 113.086 140.358 113.093 142.82C113.137 145.715 112.56 148.585 111.401 151.237C111.135 151.705 110.869 152.164 110.645 152.643Z" fill="#FFB78C"/>
<path d="M141.01 116.965C141.376 117.464 141.623 118.039 141.734 118.648C141.726 119.232 141.687 119.816 141.617 120.396C141.617 122.43 143.586 123.805 145.203 125.04C145.842 125.53 146.512 126.202 146.417 127.001C146.347 127.319 146.229 127.624 146.065 127.906C145.076 130.203 144.709 132.72 145.001 135.204C145.097 136.77 146.3 140.978 144.714 141.99C142.824 143.185 140.784 144.123 138.647 144.781C138.021 145.047 137.348 145.184 136.668 145.184C135.987 145.184 135.314 145.047 134.688 144.781C133.624 144.185 132.953 142.981 132.017 142.192C130.899 141.266 129.398 142.608 128.196 143.002C126.627 143.522 125.001 143.848 123.353 143.972C120.145 144.229 116.92 143.767 113.913 142.619C111.973 141.916 110.185 140.849 108.644 139.476C107.02 137.853 105.653 135.993 104.589 133.957C102.928 131.372 101.819 128.47 101.333 125.435C101.079 122.19 101.822 118.945 103.461 116.134C104.923 113.462 106.954 111.145 109.411 109.348C114.04 105.811 120.203 105.086 126.025 105.086C128.01 104.993 129.993 105.331 131.836 106.077C133.85 106.854 135.487 108.381 136.401 110.339C137.466 112.693 139.626 114.707 141.01 116.965Z" fill="#FFE5CC"/>
<path d="M128.355 132.04C129.158 130.815 130.28 129.835 131.601 129.206C134.645 127.554 135.188 123.783 135.582 120.683C136.203 116.624 135.868 112.476 134.602 108.57C133.336 105.129 129.079 103.744 125.801 103.339C121.749 102.832 117.636 103.352 113.838 104.852C108.218 107.121 103.535 112.427 100.971 117.817C97.8521 124.369 97.7776 131.177 98.2778 138.24C98.4375 140.626 98.5226 142.299 100.183 144.174C101.236 145.296 102.47 146.232 103.833 146.944C107.496 148.983 111.55 150.22 115.727 150.57C119.903 150.921 124.106 150.379 128.057 148.979C129.256 148.608 130.375 148.015 131.356 147.231C133.698 145.218 133.336 142.395 131.41 140.211C130.43 139.092 128.749 138.932 127.993 137.526C127.684 136.838 127.545 136.085 127.589 135.331C127.54 134.185 127.805 133.046 128.355 132.04Z" fill="#733118"/>
<path d="M224.143 104.052L187.126 82.7453C186.699 82.4338 186.197 82.2419 185.671 82.1895C185.146 82.137 184.615 82.2259 184.135 82.447L179.282 85.2702C179.761 85.0476 180.291 84.9569 180.817 85.0075C181.342 85.058 181.845 85.248 182.273 85.5578L219.3 106.961C220.51 107.752 221.517 108.817 222.24 110.07C222.963 111.323 223.381 112.728 223.461 114.173L223.355 154.155C223.406 154.673 223.32 155.195 223.105 155.668C222.89 156.141 222.554 156.549 222.131 156.851L226.974 154.028C227.398 153.73 227.736 153.324 227.951 152.852C228.166 152.38 228.251 151.859 228.198 151.343L228.315 111.35C228.246 109.89 227.832 108.467 227.106 107.198C226.381 105.93 225.365 104.851 224.143 104.052Z" fill="#8482FF"/>
<path d="M219.3 106.918C220.516 107.714 221.527 108.786 222.25 110.047C222.973 111.307 223.388 112.721 223.462 114.173L223.355 154.156C223.355 156.819 221.461 157.895 219.098 156.553L182.135 135.161C180.916 134.366 179.901 133.295 179.172 132.035C178.443 130.774 178.022 129.36 177.941 127.906L178.058 87.9233C178.058 85.2599 179.953 84.1839 182.316 85.5262L219.3 106.918Z" fill="#4D4BB7"/>
<path d="M199.451 107.621C192.937 103.86 187.669 106.864 187.669 114.354C187.669 121.843 192.937 130.952 199.451 134.712C205.964 138.473 211.243 135.458 211.243 127.979C211.243 120.501 205.964 111.381 199.451 107.621ZM196.577 125.732V113.565L205.762 124.965L196.577 125.732Z" fill="white"/>
<path d="M162.041 192.338C173.748 193.35 185.509 192.476 197.163 191.475H197.333C200.281 191.198 200.962 188.715 202.122 186.393C203.187 184.326 204.081 182.195 204.985 180.065C209.86 168.602 214.152 156.918 217.863 145.015C218.663 144 219.619 143.119 220.694 142.405C224.756 139.147 228.03 135.014 230.273 130.313C230.997 128.811 231.593 127.01 230.805 125.551C230.512 125.126 230.249 124.681 230.018 124.219C229.794 123.644 229.869 122.994 229.688 122.408C229.273 121.087 227.74 120.437 227.08 119.212C226.825 118.722 226.655 118.147 226.144 117.902C225.922 117.844 225.688 117.853 225.472 117.929C225.256 118.005 225.067 118.144 224.93 118.328C224.665 118.696 224.463 119.107 224.334 119.542C223.361 121.997 221.504 123.996 219.13 125.146C218.921 125.284 218.68 125.366 218.431 125.385C218.181 125.404 217.931 125.358 217.704 125.253C218.426 124.092 218.958 122.822 219.279 121.492C219.53 120.738 219.53 119.923 219.279 119.17C219.133 118.802 218.852 118.504 218.494 118.338C218.136 118.171 217.727 118.149 217.352 118.275C216.65 118.605 216.49 119.5 216.288 120.256C215.997 121.521 215.473 122.72 214.745 123.793C213.989 124.858 213.021 125.849 212.276 126.989C211.667 127.943 211.201 128.98 210.892 130.068C210.356 132.055 210.077 134.103 210.062 136.162C210.027 137.282 209.899 138.397 209.679 139.496C209.679 139.614 209.583 139.72 209.541 139.837C208.317 143.204 191.937 174.152 189.564 177.753C188.861 177.753 188.18 177.753 187.531 177.646C179.793 176.752 171.981 175.516 164.872 172.32C161.274 170.711 157.869 168.612 154.09 167.483C150.312 166.354 145.916 166.343 142.745 168.676C140.201 170.541 138.913 173.555 138.296 176.56C135.923 188.14 150.621 191.048 158.965 192.061C159.987 192.146 161.008 192.252 162.041 192.338Z" fill="#FFE5CC"/>
<path d="M174.503 183.016C174.541 186.989 173.563 190.906 171.662 194.394C171.441 194.958 171.039 195.432 170.518 195.741C169.997 196.05 169.388 196.176 168.788 196.098C167.719 196.062 166.653 195.963 165.595 195.8C159.598 194.977 153.678 193.662 147.896 191.869C145.233 191.229 142.685 190.183 140.339 188.769C138.988 187.888 137.848 186.72 136.997 185.349C135.629 183.097 135.144 180.417 135.635 177.828C136.069 175.471 137.071 173.255 138.555 171.375C140.039 169.494 141.959 168.004 144.149 167.036C144.733 166.793 145.339 166.608 145.959 166.482C147.248 166.264 148.565 166.264 149.854 166.482C153.493 167.144 157.058 168.164 160.497 169.529L171.587 173.534C173.205 174.12 173.301 175.526 173.716 177.018C174.242 178.974 174.507 180.99 174.503 183.016Z" fill="#F2F2F2"/>
<path d="M174.781 101.826C173.72 102.39 172.748 103.108 171.896 103.957C171.369 104.664 170.993 105.474 170.794 106.333C170.594 107.193 170.575 108.085 170.736 108.953C170.802 109.712 171.05 110.443 171.46 111.084C171.662 111.417 171.949 111.692 172.291 111.879C172.633 112.066 173.018 112.159 173.408 112.149C173.763 112.088 174.102 111.957 174.405 111.763C174.708 111.569 174.97 111.317 175.174 111.02C175.656 110.424 176.018 109.74 176.239 109.007C176.665 107.536 176.526 105.864 177.399 104.607C177.831 104.061 178.331 103.574 178.889 103.158C179.565 102.59 180.163 101.934 180.666 101.208C181.032 100.686 181.288 100.095 181.422 99.4717C181.548 98.8437 181.438 98.1912 181.113 97.6393C180.177 96.1478 178.985 98.2785 178.346 98.9284C177.28 100.036 176.082 101.009 174.781 101.826Z" fill="#FFE5CC"/>
<path d="M330.839 234.749L351.465 239.596C355.613 240.449 359.679 241.657 363.62 243.208C367.575 244.769 371.054 247.34 373.709 250.665C373.848 250.857 373.997 251.123 373.858 251.315C373.754 251.431 373.609 251.504 373.454 251.517C368.132 252.583 362.736 253.648 357.33 253.201C353.173 252.744 349.109 251.667 345.271 250.005C340.959 248.226 336.805 246.088 332.851 243.613C329.658 241.663 326.582 239.351 324.826 236.155C324.685 236.002 324.583 235.818 324.529 235.617C324.475 235.416 324.47 235.205 324.515 235.002C324.56 234.799 324.653 234.61 324.787 234.451C324.921 234.292 325.091 234.167 325.283 234.088C326.177 233.502 326.954 232.927 327.902 233.588C328.798 234.158 329.795 234.552 330.839 234.749Z" fill="#FFB78C"/>
<path d="M416.803 279.014C416.803 288.485 410.129 300.023 401.902 304.774C397.73 307.182 393.963 307.395 391.259 305.776C391.202 305.756 391.148 305.727 391.1 305.69C386.08 302.871 380.586 301.001 374.89 300.172C367.068 298.872 359.085 298.893 351.156 298.308C347.741 298.181 344.363 297.553 341.131 296.443C337.554 294.894 334.277 292.731 331.445 290.051C328.912 287.846 326.454 285.491 323.995 283.158C316.737 276.191 309.475 269.231 302.209 262.278C301.324 261.488 300.521 260.61 299.814 259.657C299.582 259.147 299.482 258.587 299.523 258.029C299.564 257.47 299.744 256.931 300.048 256.461C300.611 255.514 301.352 254.685 302.23 254.021C302.278 253.992 302.321 253.956 302.358 253.915C302.416 253.863 302.46 253.799 302.486 253.726C302.512 253.653 302.519 253.575 302.507 253.499C302.461 253.432 302.404 253.374 302.337 253.329L302.209 253.222C300.517 251.837 298.835 250.473 297.132 249.11C295.99 248.382 295.128 247.29 294.684 246.01C294.574 245.402 294.622 244.776 294.823 244.192C295.025 243.608 295.373 243.086 295.834 242.675C296.278 242.272 296.799 241.964 297.366 241.77C297.574 241.694 297.795 241.658 298.016 241.663C298.404 241.717 298.798 241.717 299.186 241.663C298.356 241.056 297.515 240.449 296.675 239.863C295.898 239.266 295.121 238.723 294.344 238.158C293.88 237.86 293.485 237.467 293.186 237.004C292.887 236.541 292.69 236.019 292.609 235.473C292.586 234.64 292.808 233.819 293.247 233.111C293.686 232.403 294.322 231.839 295.078 231.489C297.058 230.52 299.719 231.361 301.56 232.554C301.773 232.682 301.964 232.831 302.145 232.959C301.953 232.687 301.786 232.398 301.645 232.096C301.432 231.755 301.187 231.446 300.953 231.127C300.719 230.807 300.698 230.818 300.57 230.647C300.188 230.185 299.832 229.702 299.506 229.199C298.729 227.899 298.122 226.301 299.027 224.937C299.409 224.43 299.907 224.022 300.479 223.747C301.051 223.473 301.681 223.34 302.315 223.36C303.773 223.39 305.214 223.675 306.573 224.202C311.508 225.816 316.351 227.701 321.079 229.848C323.264 230.783 325.373 231.884 327.39 233.14C329.396 234.561 331.329 236.083 333.18 237.7C339.391 242.716 347.011 245.666 354.977 246.138C358.798 246.34 362.651 245.988 366.408 246.66C370.218 247.525 373.887 248.924 377.306 250.814C383.054 253.712 400.263 263.087 411.417 269.053C411.971 269.351 412.482 269.618 413.014 269.895C415.355 271.418 416.803 274.614 416.803 279.014Z" fill="#FFE5CC"/>
<path d="M416.803 279.014C416.803 288.485 410.13 300.023 401.903 304.774C397.731 307.182 393.963 307.395 391.26 305.776C391.203 305.756 391.149 305.727 391.101 305.691C388.557 304.103 387.003 300.843 387.003 296.273C387.003 286.802 393.676 275.264 401.903 270.502C405.511 268.425 408.821 267.977 411.397 268.925C411.965 269.131 412.502 269.414 412.993 269.767C415.356 271.418 416.803 274.614 416.803 279.014Z" fill="#FFB78C"/>
<path d="M299.527 224.863C299.045 225.533 298.784 226.338 298.782 227.164C298.76 227.472 298.792 227.783 298.878 228.08C298.989 228.403 299.159 228.703 299.378 228.964C300.483 230.295 301.782 231.452 303.231 232.395C304.096 230.917 304.535 229.228 304.497 227.515C304.519 227.399 304.519 227.28 304.497 227.164C304.461 227.063 304.407 226.969 304.338 226.887L302.763 224.82C302.337 224.255 302.05 223.893 301.326 223.968C300.98 223.982 300.641 224.069 300.331 224.223C300.021 224.377 299.747 224.595 299.527 224.863Z" fill="#FFB78C"/>
<path d="M292.694 234.728C292.577 235.347 292.577 235.983 292.694 236.603C292.724 236.958 292.845 237.299 293.046 237.594C293.215 237.771 293.413 237.918 293.631 238.03C295.183 238.91 296.848 239.574 298.58 240.001C298.96 238.679 299.139 237.307 299.112 235.932C299.132 235.749 299.114 235.564 299.059 235.388C299.003 235.264 298.923 235.152 298.825 235.058C297.93 234.015 296.738 233.271 295.408 232.927C294.738 232.757 294.344 232.629 293.769 233.087C293.236 233.497 292.858 234.075 292.694 234.728Z" fill="#FFB78C"/>
<path d="M295.036 245.605C294.826 246.111 294.789 246.673 294.929 247.203C295.07 247.517 295.277 247.797 295.536 248.023C296.936 249.49 298.601 250.679 300.442 251.528C300.584 250.651 300.641 249.763 300.613 248.875C300.575 247.988 300.291 247.128 299.793 246.393C299.098 245.559 298.172 244.947 297.132 244.635C296.802 244.518 296.142 244.156 295.791 244.273C295.44 244.39 295.153 245.232 295.036 245.605Z" fill="#FFB78C"/>
<path d="M300.72 259.892L304.126 262.214C304.126 262.214 304.253 262.289 304.307 262.214C304.36 262.14 304.392 262.097 304.402 262.023C304.523 261.143 304.443 260.246 304.168 259.402C303.422 258.136 302.339 257.103 301.039 256.419C300.783 256.352 300.513 256.355 300.259 256.43C300.005 256.504 299.776 256.647 299.597 256.842C299.417 257.037 299.294 257.277 299.241 257.536C299.187 257.796 299.206 258.065 299.294 258.315C299.58 258.986 300.082 259.541 300.72 259.892Z" fill="#FFB78C"/>
<path d="M335.086 286.738C331.276 285.129 328.275 282.082 325.38 279.099C320.839 274.461 316.305 269.809 311.778 265.143C310.034 263.44 308.402 261.625 306.893 259.71C305.515 257.684 303.993 255.762 302.337 253.957C302.395 253.906 302.439 253.841 302.465 253.769C302.491 253.696 302.499 253.618 302.486 253.542C302.441 253.475 302.383 253.417 302.316 253.371L302.188 253.265C304.307 254.683 306.189 256.427 307.765 258.432C311.884 263.194 315.844 268.084 320.324 272.473C325.209 277.278 330.701 281.496 335.086 286.738Z" fill="#FFB78C"/>
<path d="M332.382 273.943C328.179 270.625 324.324 266.888 320.877 262.789L311.798 252.721C310.527 251.246 309.166 249.852 307.722 248.545C306.343 247.378 304.897 246.293 303.39 245.296C301.73 244.156 300.091 242.877 298.356 241.897C298.229 241.839 298.107 241.768 297.994 241.684C298.386 241.737 298.784 241.737 299.176 241.684C298.335 241.077 297.494 240.47 296.653 239.884C300.672 241.917 304.346 244.57 307.541 247.746C309.191 249.323 310.734 251.006 312.299 252.7C318.926 259.838 325.62 266.919 332.382 273.943Z" fill="#FFB78C"/>
<path d="M334.149 259.018C331.813 257.652 329.681 255.963 327.817 254C321.612 248.126 315.004 242.694 308.042 237.743C305.788 236.283 303.669 234.625 301.709 232.789C301.618 232.688 301.532 232.581 301.454 232.469C301.667 232.597 301.858 232.746 302.05 232.874C301.858 232.725 301.688 232.224 301.539 232.011C301.39 231.798 301.081 231.362 300.847 231.042L300.475 230.562C301.103 230.978 301.73 231.404 302.337 231.841C308.058 236.006 313.534 240.499 318.738 245.296L324.57 250.431L334.149 259.018Z" fill="#FFB78C"/>
<path d="M344.313 260.402C344.904 260.461 345.5 260.461 346.091 260.402C346.393 260.391 346.687 260.299 346.942 260.136C347.137 259.97 347.281 259.752 347.357 259.508C347.621 258.699 347.571 257.821 347.219 257.047C346.357 255.001 343.207 252.082 341.302 254.639C339.577 256.972 341.78 260.136 344.313 260.402Z" fill="#FFB78C"/>
<path d="M339.886 277.352C340.242 277.403 340.605 277.377 340.95 277.278C341.322 277.119 341.633 276.845 341.838 276.496C342.043 276.147 342.131 275.741 342.089 275.339C341.834 272.782 337.353 271.472 335.576 273.208C333.287 275.403 338.268 277.214 339.886 277.352Z" fill="#FFB78C"/>
<path d="M339.971 288.155C341.131 287.633 338.843 281.881 336.193 284.054C335.816 284.297 335.54 284.667 335.413 285.097C335.286 285.527 335.317 285.989 335.501 286.398C336.022 287.293 338.97 288.603 339.971 288.155Z" fill="#FFB78C"/>
<path d="M339.588 293.599C339.665 293.507 339.703 293.389 339.694 293.269C339.747 291.926 336.565 289.583 336.022 291.5C335.962 291.814 335.98 292.137 336.075 292.442C336.169 292.747 336.338 293.023 336.565 293.247C337.023 293.684 339.151 294.089 339.588 293.599Z" fill="#FFB78C"/>
<path d="M399.263 40.5689C393.207 37.0746 387.705 36.7443 383.735 39.0561L377.477 42.6996C381.436 40.3878 386.938 40.718 392.994 44.2124C405.042 51.1797 414.78 68.0548 414.738 81.915C414.738 88.7864 412.29 93.6338 408.352 95.903L414.61 92.2595C418.527 89.9796 420.996 85.143 420.996 78.2715C421.039 64.4113 411.311 47.5895 399.263 40.5689Z" fill="#4D4D4D"/>
<path d="M392.995 44.2128C405.042 51.1801 414.781 68.0552 414.738 81.9153C414.696 95.7755 404.904 101.347 392.856 94.3799C380.808 87.4125 371.07 70.5375 371.112 56.6986C371.155 42.8598 380.979 37.2667 392.995 44.2128Z" fill="black"/>
<path d="M393.58 54.3549C386.002 49.9763 379.861 53.4707 379.861 62.1746C379.861 70.8784 386.002 81.4786 393.58 85.8572C401.158 90.2358 407.288 86.7308 407.288 78.0269C407.288 69.323 401.201 58.7335 393.58 54.3549ZM390.228 75.4275V61.269L400.871 74.5219L390.228 75.4275Z" fill="white"/>
<path d="M409.715 113.939L389.227 102.103C386.034 100.239 383.086 100.069 380.979 101.294L374.721 104.937C376.849 103.712 379.744 103.872 382.958 105.747L403.436 117.583C409.821 121.269 414.973 130.229 414.951 137.569L414.888 161.156C414.888 164.799 413.589 167.367 411.514 168.613L417.772 164.969C419.9 163.755 421.146 161.198 421.156 157.512L421.22 133.915C421.241 126.585 416.101 117.626 409.715 113.939Z" fill="#FFD166"/>
<path d="M403.436 117.583C409.822 121.269 414.973 130.229 414.951 137.569L414.888 161.156C414.888 168.485 409.662 171.458 403.287 167.772L382.799 155.925C376.413 152.228 371.24 143.269 371.262 135.939L371.326 112.352C371.326 105.012 376.541 102.05 382.937 105.747L403.436 117.583Z" fill="#FFAD66"/>
<path d="M393.58 121.364C386.002 116.986 379.861 120.491 379.861 129.195C379.861 137.899 386.002 148.488 393.58 152.867C401.158 157.245 407.288 153.74 407.288 145.047C407.288 136.354 401.201 125.743 393.58 121.364ZM390.228 142.405V128.289L400.871 141.542L390.228 142.405Z" fill="white"/>
<path d="M418.804 191.624L380.436 169.444C380.167 169.251 379.853 169.132 379.524 169.1C379.195 169.069 378.863 169.125 378.563 169.262L372.305 172.906C372.603 172.768 372.933 172.712 373.26 172.744C373.588 172.776 373.901 172.894 374.167 173.087L412.546 195.268C413.31 195.763 413.945 196.433 414.4 197.222C414.855 198.011 415.117 198.896 415.164 199.806L415.036 243.943C415.07 244.264 415.017 244.588 414.885 244.882C414.752 245.176 414.543 245.429 414.281 245.616L420.539 241.962C420.803 241.779 421.014 241.528 421.149 241.235C421.284 240.943 421.338 240.62 421.305 240.3L421.433 196.162C421.384 195.252 421.12 194.366 420.663 193.577C420.206 192.788 419.569 192.119 418.804 191.624Z" fill="#8482FF"/>
<path d="M412.546 195.267C413.31 195.763 413.945 196.432 414.4 197.221C414.855 198.01 415.117 198.896 415.164 199.805L415.036 243.943C415.036 245.594 413.855 246.265 412.397 245.424L374.082 223.254C373.322 222.757 372.688 222.089 372.234 221.302C371.779 220.516 371.515 219.633 371.464 218.726L371.592 174.599C371.592 172.916 372.784 172.256 374.22 173.087L412.546 195.267Z" fill="#4D4BB7"/>
<path d="M393.58 193.435C386.002 189.056 379.861 192.561 379.861 201.265C379.861 209.969 386.002 220.558 393.58 224.937C401.158 229.316 407.288 225.811 407.288 217.117C407.288 208.424 401.201 197.803 393.58 193.435ZM390.228 214.518V200.349L400.871 213.602L390.228 214.518Z" fill="white"/>
<path fill-rule="evenodd" clip-rule="evenodd" d="M408.182 249.057V246.138L404.138 243.805V246.713L408.182 249.057Z" fill="#231F20"/>
<path fill-rule="evenodd" clip-rule="evenodd" d="M415.43 253.243V250.335L411.386 247.991V250.91L415.43 253.243Z" fill="#231F20"/>
<path fill-rule="evenodd" clip-rule="evenodd" d="M423.083 257.622L421.848 254.043L418.325 252.008L418.772 255.204C420.209 256.014 421.656 256.855 423.083 257.622Z" fill="#231F20"/>
<path fill-rule="evenodd" clip-rule="evenodd" d="M386.396 236.464V233.556L382.352 231.212V234.131L386.396 236.464Z" fill="#231F20"/>
<path fill-rule="evenodd" clip-rule="evenodd" d="M393.655 240.662V237.743L389.61 235.41V238.319L393.655 240.662Z" fill="#231F20"/>
<path fill-rule="evenodd" clip-rule="evenodd" d="M400.881 244.827V241.919L396.837 239.586V242.494L400.881 244.827Z" fill="#231F20"/>
<path fill-rule="evenodd" clip-rule="evenodd" d="M366.366 219.174L368.782 218.801V214.752L366.249 214.22C366.249 215.914 366.281 217.533 366.366 219.174Z" fill="#231F20"/>
<path fill-rule="evenodd" clip-rule="evenodd" d="M371.4 227.633L372.922 225.715C371.6 224.867 370.53 223.679 369.825 222.274L367.696 223.393C368.562 225.091 369.835 226.547 371.4 227.633Z" fill="#231F20"/>
<path fill-rule="evenodd" clip-rule="evenodd" d="M379.042 232.213L379.191 229.39L375.668 227.355L374.721 229.71L379.042 232.213Z" fill="#231F20"/>
<path fill-rule="evenodd" clip-rule="evenodd" d="M366.249 193.51L368.782 194.97V190.325L366.249 188.865V193.51Z" fill="#231F20"/>
<path fill-rule="evenodd" clip-rule="evenodd" d="M366.249 201.841L368.782 203.301V198.656L366.249 197.196V201.841Z" fill="#231F20"/>
<path fill-rule="evenodd" clip-rule="evenodd" d="M366.249 210.204L368.782 211.482V206.955L366.249 205.495V210.204Z" fill="#231F20"/>
<path fill-rule="evenodd" clip-rule="evenodd" d="M366.249 168.485L368.782 169.955V165.736L366.249 163.605V168.485Z" fill="#231F20"/>
<path fill-rule="evenodd" clip-rule="evenodd" d="M366.249 176.816L368.782 178.286V173.641L366.249 172.171V176.816Z" fill="#231F20"/>
<path fill-rule="evenodd" clip-rule="evenodd" d="M366.249 185.115L368.782 186.585V181.94L366.249 180.48V185.115Z" fill="#231F20"/>
<path fill-rule="evenodd" clip-rule="evenodd" d="M376.977 157.8L377.509 161.017L381.212 163.158V160.239L376.977 157.8Z" fill="#231F20"/>
<path fill-rule="evenodd" clip-rule="evenodd" d="M369.409 154.124L371.24 157.821C372.304 157.821 373.549 158.78 374.709 159.408L373.528 155.85C372.144 155.189 370.708 154.124 369.409 154.124Z" fill="#231F20"/>
<path fill-rule="evenodd" clip-rule="evenodd" d="M366.28 159.643L368.771 162.487C368.771 161.816 368.771 161.124 368.771 160.474C368.781 159.889 368.943 159.316 369.239 158.812L366.972 155.339C366.608 155.924 366.396 156.59 366.355 157.278C366.312 158.045 366.302 158.844 366.28 159.643Z" fill="#231F20"/>
<path fill-rule="evenodd" clip-rule="evenodd" d="M398.955 170.498V173.406L402.989 175.74V172.831L398.955 170.498Z" fill="#231F20"/>
<path fill-rule="evenodd" clip-rule="evenodd" d="M391.696 166.301V169.22L395.741 171.553V168.645L391.696 166.301Z" fill="#231F20"/>
<path fill-rule="evenodd" clip-rule="evenodd" d="M384.47 162.125V165.033L388.514 167.377V164.458L384.47 162.125Z" fill="#231F20"/>
<path fill-rule="evenodd" clip-rule="evenodd" d="M421.028 183.261L420.166 185.679C421.347 186.361 422.518 187.011 423.689 187.735L425.275 185.881C423.891 184.955 422.486 184.113 421.028 183.261Z" fill="#231F20"/>
<path fill-rule="evenodd" clip-rule="evenodd" d="M413.482 178.894V181.802L417.378 184.06L417.601 181.269L413.482 178.894Z" fill="#231F20"/>
<path fill-rule="evenodd" clip-rule="evenodd" d="M406.256 174.717V177.625L410.29 179.958V177.05L406.256 174.717Z" fill="#231F20"/>
<path fill-rule="evenodd" clip-rule="evenodd" d="M429.99 207.231L427.457 205.771V210.416L429.99 211.876V207.231Z" fill="#231F20"/>
<path fill-rule="evenodd" clip-rule="evenodd" d="M429.99 198.549L427.457 198.102V202.15L429.99 203.514V198.549Z" fill="#231F20"/>
<path fill-rule="evenodd" clip-rule="evenodd" d="M428.298 189.344L426.169 190.548C426.977 191.865 427.408 193.38 427.414 194.926L429.937 194.607C429.85 192.741 429.286 190.928 428.298 189.344Z" fill="#231F20"/>
<path fill-rule="evenodd" clip-rule="evenodd" d="M429.99 232.256L427.457 230.786V235.431L429.99 236.901V232.256Z" fill="#231F20"/>
<path fill-rule="evenodd" clip-rule="evenodd" d="M429.99 223.925L427.457 222.466V227.111L429.99 228.57V223.925Z" fill="#231F20"/>
<path fill-rule="evenodd" clip-rule="evenodd" d="M429.99 215.626L427.457 214.156V218.801L429.99 220.271V215.626Z" fill="#231F20"/>
<path fill-rule="evenodd" clip-rule="evenodd" d="M429.447 257.558L427.148 254.139C426.953 254.613 426.594 255.001 426.137 255.232C425.679 255.463 425.154 255.521 424.657 255.396L426.435 259.093C427.036 259.21 427.659 259.122 428.204 258.844C428.75 258.566 429.187 258.114 429.447 257.558Z" fill="#231F20"/>
<path fill-rule="evenodd" clip-rule="evenodd" d="M429.99 249.153L427.457 247.118V251.156L429.937 254.064C429.99 252.477 429.99 250.815 429.99 249.153Z" fill="#231F20"/>
<path fill-rule="evenodd" clip-rule="evenodd" d="M429.99 240.64L427.457 239.181V243.826L429.99 245.285V240.64Z" fill="#231F20"/>
<path d="M73.6178 157.916L77.6409 160.26C73.1815 162.678 70.1908 162.763 68.2857 161.634L64.252 159.29C66.1996 160.42 69.1371 160.334 73.6178 157.916Z" fill="#FFD166"/>
<path d="M55.6 166.215L51.5663 163.861C48.4558 161.889 45.8931 159.162 44.1162 155.935L48.1499 158.278C49.9269 161.509 52.4893 164.239 55.6 166.215Z" fill="#FFD166"/>
<path d="M31.1739 117.039L71.2662 93.857C72.9691 92.8769 74.4591 92.7917 75.6085 93.4309L79.6422 95.7746C78.5779 95.1248 76.9921 95.2207 75.2999 96.2008L35.2076 119.383C33.4347 120.534 31.959 122.089 30.9009 123.92C29.8429 125.751 29.2326 127.807 29.1197 129.919L29.2155 162.21C29.1432 162.957 29.2696 163.71 29.5817 164.393C29.8938 165.076 30.3807 165.664 30.9929 166.098L26.9592 163.712C26.3469 163.278 25.8601 162.69 25.548 162.007C25.2359 161.324 25.1095 160.571 25.1818 159.823L25.0967 127.533C25.2124 125.428 25.8231 123.38 26.8792 121.557C27.9353 119.733 29.4068 118.185 31.1739 117.039Z" fill="#FFD166"/>
<path d="M35.2079 119.383C33.435 120.534 31.9593 122.089 30.9013 123.92C29.8433 125.751 29.2329 127.807 29.1201 129.919L29.2159 162.21C29.2159 166.077 31.9724 167.622 35.3356 165.672L48.1073 158.279C55.7277 170.935 65.0617 168.857 71.1708 165.331C73.5304 163.955 75.6809 162.247 77.5566 160.26C63.7738 167.717 64.3486 152.984 64.7849 148.595L75.3215 142.501C77.0914 141.352 78.5647 139.801 79.6209 137.973C80.6771 136.146 81.2863 134.094 81.3987 131.986L81.3136 99.6952C81.3136 95.8066 78.5677 94.2512 75.1938 96.2008L35.2079 119.383Z" fill="#FFAD66"/>
<path d="M36.0379 144.834C35.9817 144.374 35.9533 143.912 35.9528 143.449C35.9513 142.961 35.9762 142.474 36.0273 141.989L34.2818 142.341C34.0158 142.394 33.8774 142.16 33.9625 141.819L34.8885 137.962C34.954 137.693 35.1171 137.458 35.3461 137.302L35.5058 137.248L37.2512 136.886C37.6591 135.806 38.1428 134.756 38.6987 133.743L37.6344 132.678C37.4747 132.518 37.528 132.135 37.7408 131.826L40.1887 128.363C40.2662 128.254 40.3637 128.16 40.4761 128.086C40.5305 128.039 40.6005 128.012 40.673 128.012C40.7455 128.012 40.8155 128.039 40.8699 128.086L41.9342 129.152C42.656 128.347 43.4388 127.599 44.2756 126.915V124.784C44.2829 124.613 44.3311 124.446 44.4163 124.298C44.5016 124.149 44.6212 124.024 44.7652 123.932L47.7878 122.195C48.0539 122.035 48.2774 122.195 48.2774 122.472V124.603C49.0337 124.328 49.8262 124.167 50.6295 124.123L51.6938 121.79C51.7782 121.603 51.9149 121.444 52.0876 121.332C52.1287 121.303 52.1753 121.282 52.2247 121.271C52.2741 121.26 52.3253 121.259 52.375 121.268L54.8335 121.897C55.0464 121.961 55.0996 122.28 54.94 122.632L53.8757 124.965C54.4598 125.35 54.9625 125.845 55.355 126.425L57.0899 124.773C57.1378 124.727 57.1914 124.688 57.2495 124.656C57.4517 124.528 57.6433 124.571 57.7072 124.773L58.6544 127.543C58.6826 127.706 58.6691 127.874 58.6152 128.03C58.5612 128.187 58.4685 128.327 58.3457 128.438L56.6003 130.1C56.6003 130.537 56.6748 130.995 56.6748 131.474C56.6748 131.954 56.6748 132.454 56.6109 132.944L58.3564 132.582C58.6118 132.529 58.7502 132.763 58.6757 133.115L57.7497 136.961C57.6866 137.234 57.5183 137.471 57.2814 137.621C57.2323 137.652 57.1783 137.673 57.1218 137.685L55.387 138.037C54.9753 139.117 54.4881 140.168 53.9289 141.18L54.9932 142.245C55.1635 142.405 55.1103 142.788 54.8867 143.097L52.4495 146.549C52.3764 146.662 52.278 146.757 52.1621 146.826C52.1051 146.873 52.0336 146.898 51.9599 146.898C51.8862 146.898 51.8147 146.873 51.7577 146.826L50.6934 145.761C49.9707 146.568 49.1841 147.317 48.3413 147.998V150.128C48.3329 150.3 48.283 150.468 48.1959 150.616C48.1088 150.765 47.987 150.89 47.8411 150.981L44.8291 152.728C44.5524 152.877 44.3289 152.728 44.3289 152.44V150.31C43.5683 150.58 42.7723 150.738 41.9661 150.778L40.9018 153.111C40.8205 153.307 40.6788 153.471 40.4974 153.58C40.4112 153.632 40.3091 153.651 40.21 153.633L37.7621 153.005C37.5386 152.952 37.4854 152.632 37.645 152.28L38.7093 149.947C38.1329 149.561 37.6376 149.065 37.2512 148.488L35.5058 150.15L35.3568 150.267C35.1546 150.384 34.9523 150.342 34.8885 150.139L34.0158 147.391C33.9944 147.225 34.0122 147.057 34.0677 146.9C34.1231 146.742 34.2147 146.6 34.335 146.485L36.0379 144.834ZM46.3404 145.814C48.4493 144.441 50.2041 142.588 51.4618 140.407C52.7195 138.226 53.4445 135.779 53.5777 133.264C53.5777 128.662 50.2996 126.797 46.2872 129.12C44.1817 130.493 42.4298 132.344 41.1741 134.523C39.9183 136.702 39.1942 139.147 39.0605 141.659C39.0605 146.272 42.328 148.126 46.3404 145.814Z" fill="white"/>
<path d="M60.7188 128.417C60.8303 127.654 61.0084 126.901 61.251 126.169L60.1867 125.892C60.0377 125.892 59.9951 125.615 60.1122 125.37L61.3787 122.622C61.4356 122.483 61.5366 122.367 61.666 122.291C61.6976 122.276 61.7322 122.268 61.7671 122.268C61.8021 122.268 61.8367 122.276 61.8683 122.291L62.9326 122.568C63.3625 121.863 63.8389 121.186 64.3587 120.544L63.9543 119.34C63.9339 119.222 63.9437 119.1 63.9828 118.987C64.0218 118.873 64.0889 118.771 64.1778 118.69L66.2319 116.741C66.2618 116.706 66.2979 116.677 66.3383 116.656C66.4873 116.57 66.6257 116.656 66.6789 116.741L67.0833 117.945C67.3814 117.742 67.6687 117.54 67.9667 117.369C68.2647 117.199 68.5627 117.05 68.8607 116.922L69.2545 115.249C69.3079 115.06 69.4243 114.895 69.5845 114.781C69.623 114.772 69.663 114.772 69.7015 114.781L71.7556 114.354C71.9472 114.354 72.043 114.493 71.9898 114.738L71.5854 116.411C72.0828 116.44 72.5702 116.563 73.0222 116.773L74.0865 115.271C74.1437 115.193 74.2161 115.128 74.2993 115.079C74.3404 115.047 74.391 115.03 74.443 115.03C74.495 115.03 74.5456 115.047 74.5867 115.079L75.8639 116.357C75.9809 116.475 75.9384 116.752 75.7787 116.975L74.7144 118.477C74.9796 118.986 75.1662 119.532 75.2678 120.097L76.5769 119.33C76.7685 119.223 76.9282 119.33 76.9282 119.532V122.025C76.9204 122.146 76.8847 122.265 76.8238 122.37C76.7628 122.475 76.6783 122.565 76.5769 122.632L75.2678 123.389C75.1475 124.151 74.966 124.903 74.725 125.637L75.7894 125.914C75.949 125.914 75.9809 126.19 75.8639 126.436L74.5973 129.184C74.5407 129.32 74.4442 129.435 74.3206 129.514C74.287 129.529 74.2508 129.537 74.2142 129.537C74.1776 129.537 74.1413 129.529 74.1078 129.514L73.0434 129.237C72.6172 129.945 72.1406 130.622 71.6173 131.262L72.0217 132.465C72.0444 132.582 72.0357 132.703 71.9964 132.815C71.9571 132.928 71.8887 133.027 71.7982 133.105L69.7441 135.065L69.6377 135.15C69.4887 135.235 69.3503 135.15 69.2971 135.065L68.8927 133.861C68.6053 134.063 68.3073 134.255 68.0093 134.436C67.7225 134.6 67.4277 134.749 67.1259 134.884L66.7215 136.556C66.6725 136.751 66.5505 136.919 66.3809 137.025H66.2745L64.2204 137.441C64.0394 137.441 63.933 137.313 63.9862 137.068L64.3907 135.395C63.8918 135.367 63.4033 135.241 62.9539 135.022L61.8895 136.524C61.8363 136.605 61.7675 136.673 61.6873 136.727C61.6462 136.759 61.5957 136.776 61.5436 136.776C61.4916 136.776 61.4411 136.759 61.4 136.727L60.1228 135.448C60.0057 135.331 60.0377 135.054 60.1973 134.83L61.2616 133.328C60.9965 132.82 60.8099 132.274 60.7082 131.709L59.3991 132.465C59.2075 132.583 59.0479 132.465 59.0479 132.274V129.781C59.0556 129.659 59.0913 129.541 59.1523 129.436C59.2132 129.33 59.2977 129.241 59.3991 129.173L60.7188 128.417ZM68.0093 131.837C69.52 130.856 70.7773 129.53 71.6781 127.969C72.579 126.408 73.0979 124.656 73.1924 122.856C73.1924 119.553 70.8403 118.222 67.9774 119.884C66.4686 120.866 65.2134 122.192 64.3145 123.753C63.4155 125.314 62.8982 127.065 62.8049 128.864C62.8049 132.167 65.1463 133.499 68.0093 131.837Z" fill="white"/>
<path d="M44.4777 287.76L0.564491 262.384C-0.276309 261.894 -0.169877 261.042 0.79864 260.477L43.9562 235.548C44.4549 235.268 45.0126 235.109 45.584 235.085C46.1554 235.061 46.7244 235.172 47.2449 235.409L91.158 260.786C91.9988 261.276 91.8924 262.128 90.9239 262.682L47.7664 287.622C47.2676 287.902 46.7099 288.061 46.1386 288.085C45.5672 288.109 44.9982 287.998 44.4777 287.76Z" fill="#F2F2F2"/>
<path d="M46.1275 263.471L4.15137 239.213L45.8614 215.104L87.8376 239.362L46.1275 263.471Z" fill="#F2F2F2"/>
<path d="M46.1165 260.818L8.72754 239.224L45.8824 217.757L83.2607 239.351L46.1165 260.818Z" fill="#E6E6E6"/>
<path d="M46.127 284.789V263.471L87.837 239.362V260.68L46.127 284.789Z" fill="#BFBFBF"/>
<path d="M4.15137 239.213V260.53L46.1275 284.788V263.471L4.15137 239.213Z" fill="#E6E6E6"/>
<path d="M17.8379 244.487L14.8898 242.782L14.379 235.943L13.3359 221.348L16.2734 222.775L17.1036 234.377L17.8379 244.487Z" fill="#4D4D4D"/>
<path d="M16.2733 222.764L13.3252 221.347L49.9372 200.189L52.8854 201.606L16.2733 222.764Z" fill="#737373"/>
<path d="M56.0465 245.35L40.1883 254.512L37.6872 255.96L37.485 256.088L37.4637 255.811L35.8886 254.916L32.9298 253.212L31.3759 252.317L28.4278 250.612L26.8526 249.707L23.8939 247.992L22.3719 247.107L19.3918 245.392L17.838 244.487L17.1036 234.376L16.2734 222.775L52.8855 201.606L53.0345 203.705L53.2686 206.677L53.407 208.776V208.798L53.6199 211.78L53.7689 213.879L53.9924 216.873L54.1414 218.95L54.3542 221.955L54.4181 222.69L54.5032 224.053L54.7267 227.047L56.0465 245.35Z" fill="#1F2125"/>
<path d="M22.3718 247.108L19.3918 245.392L18.5297 233.556L17.8379 224.032L20.7967 225.46L21.2543 231.98L22.3718 247.108Z" fill="#4D4D4D"/>
<path d="M20.7861 225.459L17.8486 224.032L54.4607 202.874L57.3982 204.302L20.7861 225.459Z" fill="#737373"/>
<path d="M60.5805 248.034L42.2852 258.602L40.412 257.537L37.6874 255.96L37.4852 256.088L37.4639 255.811L35.8887 254.916L32.9299 253.212L31.3761 252.317L28.4279 250.612L26.8528 249.707L23.894 247.992L22.372 247.107L21.2545 231.979L20.7969 225.459L53.2688 206.677L57.3876 204.291L57.5366 206.411L57.7708 209.383L57.9198 211.461L58.122 214.486L58.2923 216.564L58.5052 219.557L58.6542 221.635V221.656L58.8777 224.639V224.66L58.9202 225.289L60.5805 248.034Z" fill="#1F2125"/>
<path d="M26.8528 249.707L23.894 247.992L22.6807 231.159L22.3721 226.717L25.2989 228.144L25.4053 229.593L26.8528 249.707Z" fill="#4D4D4D"/>
<path d="M25.3095 228.144L22.3613 226.716L58.9734 205.559L61.9215 206.986L25.3095 228.144Z" fill="#737373"/>
<path d="M65.0186 249.899L46.1166 260.829L42.2851 258.602L40.4119 257.537L37.6873 255.96L37.4851 256.088L37.4638 255.811L35.8887 254.916L32.9299 253.212L31.376 252.317L28.4279 250.612L26.8527 249.707L25.4053 229.593L25.2988 228.144L53.62 211.78L61.9215 206.997L62.0705 209.074L62.294 212.068L62.443 214.146V214.167L62.6559 217.15L62.8049 219.249L63.0284 222.242L63.4328 227.889L65.0186 249.899Z" fill="#1F2125"/>
<path d="M31.376 252.317L28.4279 250.612L26.874 229.401L29.8328 230.829L31.376 252.317Z" fill="#4D4D4D"/>
<path d="M29.8222 230.828L26.8848 229.412L63.4968 208.243L66.4343 209.671L29.8222 230.828Z" fill="#737373"/>
<path d="M69.191 247.491L65.0189 249.898L46.1169 260.829L42.2854 258.602L40.4122 257.537L37.6876 255.96L37.4854 256.088L37.4641 255.811L35.8889 254.916L32.9301 253.212L31.3762 252.317L29.833 230.829L49.1714 219.664L53.9927 216.873L58.1222 214.486L62.2943 212.068L66.4451 209.682L66.5941 211.759L66.8282 214.753L66.9666 216.83L67.1794 219.856L67.9564 230.509L69.191 247.491Z" fill="#1F2125"/>
<path d="M35.8888 254.916L32.9301 253.212L31.3975 232.086L34.3349 233.513L35.8888 254.916Z" fill="#4D4D4D"/>
<path d="M34.3456 233.524L31.3975 232.096L68.0202 210.938L70.9576 212.366L34.3456 233.524Z" fill="#737373"/>
<path d="M73.3417 245.094L69.1909 247.491L65.0188 249.898L46.1168 260.829L42.2853 258.602L40.4121 257.537L37.6875 255.96L37.4853 256.088L37.464 255.811L35.8888 254.916L34.335 233.513L53.7479 222.306L54.3545 221.954L58.5053 219.557L62.6561 217.15L66.8282 214.753L70.9577 212.366L71.096 214.444L71.3302 217.437V217.459L72.4583 233.119L73.3417 245.094Z" fill="#1F2125"/>
<path d="M40.4124 257.536L37.6877 255.959L37.4855 256.087L37.4642 255.81L35.9316 234.791L38.8691 236.219L40.1889 254.511L40.4124 257.536Z" fill="#4D4D4D"/>
<path d="M38.869 236.208L35.9209 234.781L72.5329 213.623L75.4811 215.051L38.869 236.208Z" fill="#737373"/>
<path d="M77.4714 242.686L73.3419 245.094L69.1912 247.491L65.0191 249.898L46.1171 260.829L42.2856 258.602L40.4124 257.537L40.1889 254.511L38.8691 236.219L54.7273 227.047L58.3565 224.959L58.8781 224.66L62.5712 222.519L63.0288 222.242L67.1796 219.855L71.3304 217.458L75.4812 215.051L76.9712 235.718L77.4714 242.686Z" fill="#1F2125"/>
<path d="M49.1825 249.451L54.504 249.952V252.306L45.6064 251.528L54.504 240.502V242.856L49.1825 249.451Z" fill="#F2F2F2"/>
<path d="M58.4948 253.2L56.7812 254.181C58.477 247.973 59.74 243.318 60.5702 240.214L62.4646 233.225L64.1675 232.234L58.4948 253.2Z" fill="#F2F2F2"/>
<path d="M71.3625 236.635L66.041 236.145V233.812L74.9599 234.557L66.041 245.626V243.24L71.3625 236.635Z" fill="#F2F2F2"/>
<path d="M255.253 436.611C245.078 442.492 228.517 442.46 218.279 436.547C208.04 430.635 207.987 421.057 218.141 415.134C228.294 409.211 244.876 409.285 255.114 415.208C265.353 421.132 265.428 430.731 255.253 436.611Z" fill="#F2F2F2"/>
<path d="M258.987 424.337C259.025 417.224 249.083 411.403 236.781 411.337C224.479 411.27 214.474 416.982 214.436 424.096C214.397 431.209 224.339 437.03 236.642 437.096C248.944 437.163 258.949 431.45 258.987 424.337Z" fill="#C4C4C4"/>
<path d="M258.233 382.204H215.192V422.591C215.075 425.873 217.182 429.186 221.578 431.7C230.007 436.569 243.641 436.59 252.017 431.7C256.37 429.186 258.403 425.862 258.265 422.559L258.233 382.204Z" fill="#D9D9D9"/>
<path d="M258.987 383.033C259.025 375.92 249.083 370.099 236.781 370.033C224.479 369.966 214.474 375.679 214.436 382.792C214.397 389.905 224.339 395.726 236.642 395.793C248.944 395.859 258.949 390.147 258.987 383.033Z" fill="#F2F2F2"/>
<path d="M241.374 395.531C234.264 396.384 226.548 395.201 221.003 392.005C220.077 391.473 219.198 390.864 218.374 390.183L222.152 388.053L240.565 392.772L241.374 395.531Z" fill="#FFD166"/>
<path d="M254.262 386.87C253.149 388.433 251.693 389.719 250.005 390.63C242.683 394.892 230.794 394.838 223.398 390.577C221.682 389.652 220.206 388.339 219.087 386.742C216.533 382.864 217.938 378.325 223.344 375.225C230.667 370.964 242.555 370.964 249.952 375.225C255.39 378.411 256.838 382.992 254.262 386.87Z" fill="#999999"/>
<path d="M254.262 386.871C253.149 388.433 251.693 389.72 250.005 390.631C242.683 394.893 230.794 394.839 223.397 390.578C221.682 389.653 220.206 388.34 219.087 386.743C220.2 385.18 221.656 383.893 223.344 382.982C230.667 378.721 242.555 378.774 249.952 383.035C251.669 383.957 253.146 385.271 254.262 386.871Z" fill="#FFAD66"/>
<path d="M223.377 377.207C230.699 372.946 242.588 372.999 249.985 377.261C253.241 379.146 255.072 381.522 255.455 383.993C255.945 380.883 254.125 377.665 249.985 375.268C242.62 371.007 230.731 371.007 223.377 375.268C219.311 377.623 217.513 380.797 218.055 383.887C218.385 381.415 220.173 379.061 223.377 377.207Z" fill="#D9D9D9"/>
<path d="M240.842 433.671H240.682C240.273 433.642 239.891 433.455 239.618 433.149C238.713 432.265 238.437 430.89 237.574 429.953C236.872 429.197 235.84 428.813 235.127 428.067C234.605 427.513 234.275 426.789 233.754 426.224C233.519 425.92 233.19 425.702 232.819 425.604C232.447 425.505 232.054 425.533 231.699 425.681C231.242 425.969 230.901 426.586 230.369 426.491C230.212 426.452 230.069 426.371 229.954 426.256C229.561 425.873 229.248 425.416 229.033 424.911C228.817 424.407 228.704 423.865 228.698 423.316C228.624 422.251 228.783 421.132 228.773 420.035C228.785 419.505 228.698 418.977 228.517 418.479C228.038 417.297 226.782 416.572 226.261 415.411C225.974 414.772 225.899 413.994 225.367 413.557C224.832 413.23 224.196 413.108 223.579 413.216C223.411 413.21 223.245 413.25 223.1 413.334C222.94 413.48 222.841 413.682 222.823 413.898C221.961 418.042 222.823 422.549 221.11 426.427C221 426.77 220.818 427.086 220.576 427.353C220.333 427.619 220.036 427.83 219.705 427.971C219.421 428.038 219.122 428 218.864 427.865C218.002 427.396 218.406 425.873 218.406 425.042V390.184C219.23 390.864 220.109 391.473 221.035 392.005C226.58 395.201 234.296 396.384 241.406 395.532V428.557C241.374 429.495 241.906 433.479 240.842 433.671Z" fill="#FFAD66"/>
<path d="M320.4 399.775C320.445 391.432 308.778 384.606 294.342 384.527C279.906 384.449 268.167 391.149 268.122 399.492C268.077 407.835 279.743 414.662 294.179 414.74C308.615 414.818 320.354 408.118 320.4 399.775Z" fill="#F2F2F2"/>
<path d="M316.537 398.084C316.575 390.971 306.633 385.15 294.331 385.084C282.028 385.017 272.024 390.729 271.986 397.843C271.947 404.956 281.889 410.777 294.192 410.843C306.494 410.91 316.498 405.197 316.537 398.084Z" fill="#C4C4C4"/>
<path d="M315.79 355.943H272.75V396.32C272.633 399.601 274.74 402.914 279.136 405.429C287.565 410.297 301.199 410.319 309.575 405.482C313.917 402.968 315.96 399.644 315.811 396.341L315.79 355.943Z" fill="#D9D9D9"/>
<path d="M316.537 356.78C316.575 349.667 306.633 343.847 294.331 343.78C282.028 343.713 272.024 349.426 271.986 356.539C271.947 363.652 281.889 369.473 294.192 369.54C306.494 369.606 316.498 363.894 316.537 356.78Z" fill="#F2F2F2"/>
<path d="M298.931 369.323C291.822 370.176 284.116 368.993 278.571 365.797C277.644 365.268 276.764 364.658 275.942 363.975L279.721 361.845L298.133 366.564L298.931 369.323Z" fill="#8482FF"/>
<path d="M311.798 360.609C310.684 362.171 309.228 363.457 307.541 364.37C300.229 368.631 288.384 368.578 280.934 364.317C279.216 363.395 277.739 362.081 276.623 360.482C274.069 356.614 275.474 352.076 280.88 348.965C288.192 344.704 300.091 344.757 307.488 348.965C312.948 352.161 314.385 356.732 311.798 360.609Z" fill="#999999"/>
<path d="M311.799 360.609C310.685 362.17 309.229 363.457 307.542 364.369C300.23 368.631 288.385 368.578 280.934 364.316C279.217 363.394 277.74 362.08 276.624 360.481C277.737 358.918 279.194 357.632 280.881 356.72C288.193 352.459 300.092 352.512 307.489 356.774C309.199 357.706 310.673 359.018 311.799 360.609Z" fill="#4D4BB7"/>
<path d="M280.934 350.946C288.246 346.685 300.145 346.738 307.541 351C310.798 352.885 312.618 355.261 313.001 357.733C313.502 354.622 311.682 351.405 307.541 349.008C300.177 344.746 288.278 344.746 280.934 349.008C276.858 351.362 275.07 354.537 275.549 357.626C275.942 355.155 277.741 352.8 280.934 350.946Z" fill="#D9D9D9"/>
<path d="M298.389 407.41H298.24C297.831 407.379 297.45 407.193 297.176 406.888C296.282 406.004 296.005 404.63 295.143 403.692C294.281 402.755 293.408 402.552 292.695 401.807C292.163 401.253 291.843 400.528 291.322 399.964C291.088 399.658 290.759 399.44 290.386 399.343C290.014 399.247 289.62 399.278 289.268 399.431C288.81 399.708 288.459 400.336 287.937 400.23C287.783 400.19 287.64 400.113 287.522 400.006C286.736 399.224 286.285 398.165 286.266 397.055C286.192 395.99 286.352 394.871 286.341 393.774C286.347 393.244 286.261 392.718 286.086 392.218C285.607 391.036 284.351 390.311 283.829 389.15C283.542 388.511 283.467 387.733 282.935 387.297C282.397 386.968 281.758 386.847 281.137 386.956C280.969 386.951 280.804 386.992 280.658 387.073C280.502 387.222 280.404 387.422 280.381 387.637C279.519 391.782 280.381 396.288 278.667 400.166C278.558 400.508 278.377 400.822 278.137 401.089C277.896 401.355 277.602 401.567 277.273 401.711C276.989 401.784 276.689 401.746 276.432 401.604C275.56 401.135 275.975 399.612 275.975 398.781V363.923C276.796 364.606 277.676 365.215 278.603 365.745C284.148 368.941 291.865 370.123 298.974 369.271V402.297C298.932 403.234 299.464 407.219 298.389 407.41Z" fill="#4D4BB7"/>
<path d="M415.601 396.959C405.426 402.84 388.865 402.808 378.627 396.885C368.388 390.961 368.335 381.405 378.51 375.524C388.684 369.644 405.245 369.676 415.484 375.588C425.722 381.501 425.775 391.078 415.601 396.959Z" fill="#F2F2F2"/>
<path d="M412.908 393.71C404.245 398.717 390.132 398.695 381.405 393.646C372.677 388.596 372.635 380.446 381.309 375.439C389.983 370.432 404.085 370.453 412.812 375.492C421.539 380.531 421.529 388.692 412.908 393.71Z" fill="#C4C4C4"/>
<path d="M418.58 342.552H375.54V382.918C375.423 386.199 377.53 389.512 381.926 392.026C390.355 396.906 403.989 396.927 412.365 392.08C416.707 389.576 418.75 386.242 418.612 382.939L418.58 342.552Z" fill="#D9D9D9"/>
<path d="M419.331 343.371C419.369 336.258 409.427 330.437 397.125 330.371C384.822 330.304 374.818 336.017 374.78 343.13C374.741 350.243 384.683 356.064 396.986 356.13C409.288 356.197 419.292 350.485 419.331 343.371Z" fill="#F2F2F2"/>
<path d="M401.722 355.879C394.613 356.721 386.897 355.549 381.351 352.342C380.423 351.814 379.544 351.204 378.723 350.52L382.501 348.39L400.913 353.098L401.722 355.879Z" fill="#737373"/>
<path d="M414.611 347.208C413.504 348.776 412.046 350.064 410.354 350.968C403.031 355.23 391.143 355.23 383.746 350.968C382.036 350.036 380.562 348.724 379.436 347.133C376.881 343.255 378.286 338.717 383.693 335.606C391.015 331.345 402.904 331.398 410.301 335.659C415.739 338.759 417.165 343.33 414.611 347.208Z" fill="#999999"/>
<path d="M414.611 347.207C413.503 348.775 412.046 350.063 410.354 350.968C403.031 355.229 391.143 355.229 383.746 350.968C382.036 350.035 380.561 348.723 379.436 347.132C380.543 345.564 382.001 344.277 383.693 343.372C391.015 339.11 402.903 339.11 410.3 343.372C412.014 344.3 413.489 345.613 414.611 347.207Z" fill="#1F2125"/>
<path d="M383.725 337.555C391.047 333.294 402.935 333.347 410.332 337.555C413.589 339.441 415.42 341.817 415.803 344.299C416.293 341.188 414.473 337.96 410.332 335.574C402.967 331.312 391.079 331.312 383.725 335.521C379.659 337.875 377.86 341.05 378.35 344.139C378.733 341.763 380.521 339.398 383.725 337.555Z" fill="#D9D9D9"/>
<path d="M401.2 394.019H401.041C400.634 393.989 400.253 393.807 399.976 393.507C399.072 392.623 398.795 391.249 397.933 390.311C397.23 389.555 396.198 389.171 395.485 388.426C394.963 387.872 394.633 387.147 394.112 386.582C393.877 386.279 393.547 386.062 393.176 385.965C392.804 385.869 392.411 385.899 392.058 386.05C391.6 386.327 391.249 386.955 390.727 386.859C390.57 386.82 390.427 386.739 390.312 386.625C389.522 385.85 389.07 384.793 389.056 383.685C388.982 382.619 389.142 381.501 389.131 380.403C389.143 379.874 389.057 379.346 388.876 378.848C388.397 377.655 387.141 376.941 386.619 375.769C386.332 375.141 386.257 374.363 385.725 373.915C385.191 373.588 384.555 373.467 383.937 373.575C383.769 373.576 383.605 373.62 383.458 373.702C383.298 373.85 383.196 374.05 383.171 374.267C382.319 378.411 383.171 382.907 381.468 386.785C381.359 387.128 381.177 387.444 380.934 387.711C380.692 387.978 380.395 388.189 380.063 388.33C379.923 388.37 379.776 388.382 379.632 388.364C379.487 388.345 379.348 388.298 379.222 388.223C378.36 387.754 378.765 386.242 378.765 385.4V350.521C379.586 351.204 380.465 351.814 381.394 352.342C386.939 355.538 394.655 356.731 401.764 355.879V388.905C401.722 389.842 402.265 393.827 401.2 394.019Z" fill="#1F2125"/>
<path d="M54.0986 372.957C53.3195 373.356 52.4568 373.564 51.5815 373.564C50.7063 373.564 49.8435 373.356 49.0644 372.957L12.4524 351.65C11.0901 350.851 11.0901 349.519 12.4524 348.741L49.2879 327.434C50.0667 327.04 50.9271 326.835 51.7997 326.835C52.6723 326.835 53.5327 327.04 54.3115 327.434L90.9129 348.741C92.2965 349.551 92.2752 350.872 90.9129 351.66L54.0986 372.957Z" fill="#F2F2F2"/>
<path d="M53.8865 369.686L87.3162 350.371C87.5787 350.262 87.8077 350.085 87.9797 349.859C88.1517 349.632 88.2606 349.364 88.2954 349.082V345.705C88.2754 345.992 88.1763 346.269 88.0092 346.504C87.842 346.739 87.6133 346.923 87.3482 347.036L53.929 366.351C53.2226 366.714 52.4401 366.903 51.6461 366.903C50.8522 366.903 50.0696 366.714 49.3632 366.351L16.1037 346.951C15.8471 346.837 15.6257 346.657 15.4628 346.428C15.2999 346.2 15.2015 345.931 15.1777 345.651V349.082C15.2057 349.36 15.3059 349.627 15.4683 349.855C15.6307 350.083 15.8497 350.264 16.1037 350.382L49.31 369.696C50.0186 370.059 50.8035 370.247 51.5995 370.246C52.3955 370.244 53.1795 370.052 53.8865 369.686Z" fill="#FFAD66"/>
<path d="M53.8759 366.309C53.1695 366.672 52.3869 366.861 51.593 366.861C50.799 366.861 50.0165 366.672 49.31 366.309L16.1038 346.952C14.8585 346.228 14.8692 345.056 16.1038 344.321L49.5229 325.006C50.229 324.648 51.0092 324.462 51.8005 324.462C52.5918 324.462 53.372 324.648 54.0781 325.006L87.2844 344.321C87.5599 344.415 87.7991 344.592 87.9685 344.829C88.1379 345.066 88.229 345.35 88.229 345.642C88.229 345.933 88.1379 346.217 87.9685 346.454C87.7991 346.691 87.5599 346.869 87.2844 346.963L53.8759 366.309Z" fill="#FFD166"/>
<path d="M58.0266 339.153C61.352 338.285 64.766 337.803 68.2014 337.715L69.2657 339.846C66.1581 339.996 63.0755 340.479 60.0701 341.284C56.9088 342.103 53.8728 343.346 51.0448 344.981C48.6113 346.287 46.445 348.039 44.659 350.147C43.3556 351.659 42.4971 353.503 42.1792 355.474L38.4541 354.888C38.6947 352.719 39.5641 350.667 40.9552 348.986C42.8537 346.59 45.218 344.604 47.9051 343.148C51.0739 341.345 54.4815 340 58.0266 339.153Z" fill="white"/>
<path d="M117.658 80.8706L109.921 85.3771C109.95 85.3656 109.975 85.3473 109.995 85.3238L117.733 80.8174C117.713 80.8409 117.687 80.8592 117.658 80.8706Z" fill="black"/>
<path d="M99.6826 63.6224L107.42 59.1266C107.519 59.088 107.629 59.088 107.729 59.1266L100.002 63.5691C99.8926 63.5441 99.7779 63.5633 99.6826 63.6224Z" fill="black"/>
<path d="M111.657 83.6617L119.394 79.1553L117.744 80.8172L110.007 85.313L111.657 83.6617Z" fill="black"/>
<path d="M99.9912 63.5797L107.729 59.084L110.389 59.6273L102.652 64.1337L99.9912 63.5797Z" fill="black"/>
<path d="M128.845 89.7986L121.107 94.2944C121.181 94.2397 121.24 94.1668 121.277 94.0828C121.314 93.9987 121.329 93.9065 121.32 93.815L129.058 89.3086C129.066 89.4016 129.051 89.4953 129.014 89.581C128.977 89.6667 128.919 89.7416 128.845 89.7986Z" fill="black"/>
<path d="M121.331 90.5973L129.068 86.1016V89.3083L121.32 93.8147L121.331 90.5973Z" fill="black"/>
<path d="M101.141 51.4458L108.878 46.95C108.959 46.9022 109.051 46.877 109.144 46.877C109.238 46.877 109.33 46.9022 109.41 46.95C109.499 46.9998 109.581 47.0606 109.655 47.1311L101.907 51.6269C101.836 51.5575 101.758 51.4967 101.673 51.4458C101.592 51.4 101.5 51.376 101.407 51.376C101.313 51.376 101.222 51.4 101.141 51.4458Z" fill="black"/>
<path d="M101.918 51.6802L109.655 47.1738L112.306 49.6987L104.568 54.2051L101.918 51.6802Z" fill="black"/>
<path d="M110.485 57.529L118.233 53.0332C116.243 54.1838 115.04 56.6341 115.04 60.1284C115.04 67.149 119.958 75.7144 126.067 79.2407L118.329 83.7471C112.22 80.2102 107.282 71.6555 107.303 64.5709C107.282 61.1405 108.516 58.6902 110.485 57.529Z" fill="black"/>
<path d="M133.9 80.0083L126.162 84.5147C124.151 85.6866 121.362 85.5161 118.297 83.7476L126.034 79.2412C129.1 81.0203 131.931 81.1801 133.9 80.0083Z" fill="black"/>
<path d="M139.168 90.203L131.42 94.7095C131.675 94.5603 131.729 94.1129 131.505 93.6441L139.243 89.1377C139.466 89.5958 139.381 90.0432 139.168 90.203Z" fill="black"/>
<path d="M129.866 90.0544L137.604 85.5586L139.243 89.1062L131.505 93.6126L129.866 90.0544Z" fill="black"/>
<path d="M132.101 87.8492L139.839 83.3428C139.244 84.2191 138.485 84.9717 137.604 85.5587L129.866 90.0651C130.742 89.4718 131.5 88.7204 132.101 87.8492Z" fill="black"/>
<path d="M110.113 47.1636L117.851 42.6572L119.49 46.2048L111.742 50.7112L110.113 47.1636Z" fill="black"/>
<path d="M117.244 41.9537C117.178 41.9103 117.105 41.8805 117.029 41.8658C116.952 41.8512 116.873 41.8521 116.797 41.8685L113.061 42.8273C113.033 42.8212 113.004 42.8212 112.976 42.8273L105.228 47.3337H105.323L109.059 46.3749C109.136 46.3606 109.215 46.3618 109.292 46.3782C109.369 46.3947 109.441 46.4261 109.506 46.4708C109.772 46.6379 109.981 46.8835 110.102 47.1739L117.85 42.6675C117.724 42.3742 117.512 42.1256 117.244 41.9537Z" fill="#666666"/>
<path d="M143.255 86.0908L135.507 90.5972C135.551 90.5726 135.59 90.5391 135.622 90.4988C135.653 90.4585 135.675 90.4122 135.688 90.3629L143.436 85.8564C143.406 85.9537 143.341 86.0369 143.255 86.0908Z" fill="black"/>
<path d="M111.709 50.7105L119.446 46.2041C120.671 46.2754 121.879 46.523 123.033 46.9392L115.296 51.4456C114.143 51.025 112.934 50.7773 111.709 50.7105Z" fill="black"/>
<path d="M137.135 86.1441L144.873 81.6377L143.436 85.8565L135.698 90.3522L137.135 86.1441Z" fill="black"/>
<path d="M144.394 80.2739L141.734 77.749L133.996 82.2448L136.646 84.7803C136.839 84.9459 136.985 85.1586 137.07 85.3976C137.156 85.6365 137.179 85.8937 137.136 86.144L144.873 81.6375C144.915 81.3882 144.894 81.1323 144.81 80.8938C144.726 80.6552 144.583 80.4419 144.394 80.2739Z" fill="#666666"/>
<path d="M134.059 77.9195L141.797 73.4131C141.874 74.1527 141.91 74.8961 141.903 75.6397C141.904 76.3515 141.865 77.0629 141.786 77.7704L134.049 82.2661C134.128 81.5587 134.167 80.8473 134.166 80.1354C134.113 79.4216 134.059 78.6652 134.059 77.9195Z" fill="black"/>
<path d="M121.427 54.9722L129.175 50.4658C130.454 51.5071 131.65 52.6469 132.751 53.8749L125.013 58.3813C123.911 57.1505 122.712 56.0104 121.427 54.9722Z" fill="black"/>
<path d="M121.447 51.7545L129.185 47.248L129.174 50.4654L121.437 54.9718L121.447 51.7545Z" fill="black"/>
<path d="M128.43 45.9598L123.832 43.3284C123.749 43.2827 123.656 43.2588 123.561 43.2588C123.466 43.2588 123.372 43.2827 123.289 43.3284L115.552 47.8349C115.631 47.7847 115.724 47.7581 115.818 47.7581C115.912 47.7581 116.004 47.7847 116.084 47.8349L120.692 50.4876C120.91 50.6307 121.09 50.8229 121.219 51.0486C121.349 51.2744 121.424 51.5274 121.437 51.7873L129.175 47.2915C129.17 47.0254 129.099 46.7646 128.969 46.5323C128.839 46.3 128.654 46.1034 128.43 45.9598Z" fill="#666666"/>
<path d="M129.93 65.359L137.678 60.8633C138.525 62.4045 139.265 64.0029 139.892 65.6467L132.143 70.1531C131.517 68.5058 130.777 66.904 129.93 65.359Z" fill="black"/>
<path d="M144.702 73.9252L136.965 78.4209C137.156 78.3144 137.231 78.0267 137.146 77.6539L144.883 73.1475C144.979 73.5203 144.905 73.808 144.702 73.9252Z" fill="black"/>
<path d="M135.752 71.7838L143.489 67.2881L144.905 73.1475L137.157 77.6539L135.752 71.7838Z" fill="black"/>
<path d="M142.776 66.2867C142.707 66.2367 142.626 66.2038 142.542 66.1908L139.892 65.6475L132.144 70.1539L134.804 70.6972C134.887 70.7112 134.966 70.7401 135.038 70.7824C135.22 70.9049 135.375 71.0621 135.496 71.2449C135.616 71.4277 135.7 71.6326 135.741 71.8478L143.478 67.3414C143.439 67.1269 143.357 66.9227 143.236 66.7413C143.115 66.5599 142.959 66.4052 142.776 66.2867Z" fill="#666666"/>
<path d="M131.59 63.7077L139.328 59.2119L137.678 60.8525L129.94 65.359L131.59 63.7077Z" fill="black"/>
<path d="M136.646 84.7802C136.838 84.9458 136.984 85.1584 137.07 85.3974C137.156 85.6364 137.178 85.8935 137.135 86.1438L135.688 90.4052C135.592 90.7035 135.294 90.7674 134.975 90.5863C134.895 90.5363 134.821 90.4793 134.751 90.4158L132.101 87.891C131.5 88.7622 130.742 89.5136 129.866 90.1069L131.505 93.6545C131.75 94.1872 131.665 94.7198 131.335 94.7731L127.599 95.7213C127.523 95.7376 127.444 95.7385 127.367 95.7239C127.29 95.7093 127.217 95.6794 127.152 95.636C126.89 95.4612 126.68 95.2181 126.546 94.9329L124.917 91.3747C123.693 91.3117 122.484 91.0676 121.331 90.6502V93.8462C121.331 94.3257 120.99 94.5174 120.575 94.2724L115.966 91.5877C115.748 91.4452 115.566 91.2534 115.434 91.0277C115.303 90.802 115.227 90.5486 115.211 90.288V87.092C113.929 86.0499 112.733 84.9063 111.635 83.6722L109.985 85.3341C109.899 85.4024 109.792 85.4395 109.682 85.4395C109.572 85.4395 109.465 85.4024 109.378 85.3341C109.205 85.2278 109.057 85.0862 108.942 84.9186L105.217 79.6558C104.887 79.1764 104.813 78.5905 105.057 78.3455L106.707 76.6942C105.859 75.1549 105.122 73.5563 104.504 71.9108L101.843 71.3675C101.761 71.3535 101.681 71.3246 101.609 71.2822C101.244 71.0312 100.989 70.6501 100.896 70.2169L99.4911 64.3468C99.3634 63.8248 99.5762 63.4626 99.9806 63.5478L102.641 64.0911C102.567 63.3454 102.524 62.589 102.524 61.8539C102.524 61.1188 102.578 60.4263 102.652 59.7232L99.9913 57.1983C99.8025 57.0281 99.6596 56.8129 99.5758 56.5726C99.4921 56.3324 99.4703 56.075 99.5123 55.8241L100.949 51.5627C101.056 51.2537 101.343 51.1898 101.662 51.3709C101.747 51.4218 101.826 51.4826 101.896 51.552L104.557 54.0769C105.145 53.1985 105.901 52.4454 106.782 51.861L105.143 48.3134C104.898 47.7807 104.972 47.248 105.313 47.248L109.049 46.2892C109.126 46.275 109.205 46.2761 109.282 46.2925C109.358 46.309 109.431 46.3404 109.496 46.3851C109.762 46.5522 109.97 46.7978 110.092 47.0882L111.709 50.7104C112.934 50.7772 114.143 51.0249 115.296 51.4455V48.2494C115.296 47.77 115.626 47.5783 116.041 47.8233L120.649 50.476C120.867 50.6191 121.047 50.8113 121.177 51.0371C121.306 51.2628 121.381 51.5158 121.394 51.7757V54.9718C122.679 56.01 123.879 57.15 124.981 58.3809L126.62 56.7296C126.707 56.6613 126.813 56.6242 126.923 56.6242C127.034 56.6242 127.14 56.6613 127.227 56.7296C127.403 56.8396 127.555 56.9846 127.674 57.1557L131.399 62.4185C131.729 62.8979 131.803 63.4839 131.559 63.7289L129.898 65.3696C130.746 66.9145 131.486 68.5163 132.112 70.1636L134.773 70.7069C134.855 70.7209 134.935 70.7498 135.007 70.7922C135.188 70.9146 135.344 71.0718 135.464 71.2546C135.585 71.4375 135.668 71.6424 135.709 71.8575L137.125 77.7169C137.253 78.2496 137.029 78.6012 136.635 78.5266L133.975 77.9833C134.049 78.729 134.081 79.4854 134.081 80.2098C134.082 80.9217 134.043 81.6331 133.964 82.3405L136.646 84.7802ZM118.297 83.7148C124.396 87.2411 129.366 84.4073 129.387 77.3227C129.409 70.2382 124.47 61.7474 118.361 58.2211C112.252 54.6948 107.282 57.518 107.271 64.5386C107.26 71.5592 112.188 80.1246 118.297 83.7148Z" fill="#333333"/>
<path d="M139.168 57.9129L135.443 52.5862C135.332 52.4161 135.182 52.274 135.007 52.1707C134.926 52.1229 134.835 52.0977 134.741 52.0977C134.647 52.0977 134.555 52.1229 134.475 52.1707L126.737 56.6665C126.817 56.6207 126.907 56.5965 126.998 56.5965C127.09 56.5965 127.18 56.6207 127.259 56.6665C127.435 56.7765 127.587 56.9215 127.706 57.0926L131.431 62.3554C131.761 62.8348 131.835 63.4208 131.591 63.6658L139.328 59.1594C139.573 58.9676 139.498 58.3817 139.168 57.9129Z" fill="#666666"/>
<path d="M104.058 26.3785L113.274 21.0518H113.349L104.143 26.3785C104.115 26.3678 104.085 26.3678 104.058 26.3785Z" fill="#4D4BB7"/>
<path d="M124.972 37.8518L115.755 43.1786C115.829 43.1326 115.882 43.0602 115.904 42.9761L125.121 37.6494C125.096 37.7321 125.043 37.8037 124.972 37.8518Z" fill="#4D4BB7"/>
<path d="M104.143 26.336L113.359 20.9773L115.286 20.4766L106.069 25.8353L104.143 26.336Z" fill="#4D4BB7"/>
<path d="M116.648 40.8245L125.865 35.4658L125.12 37.6498L115.914 43.0085L116.648 40.8245Z" fill="#4D4BB7"/>
<path d="M102.27 14.3616L111.476 9.03483C111.547 8.99471 111.628 8.97363 111.71 8.97363C111.792 8.97363 111.873 8.99471 111.944 9.03483L102.727 14.3616C102.659 14.3179 102.579 14.2948 102.498 14.2948C102.417 14.2948 102.338 14.3179 102.27 14.3616Z" fill="#4D4BB7"/>
<path d="M102.728 14.4036L111.944 9.04492L114.328 10.4192L105.112 15.7779L102.728 14.4036Z" fill="#4D4BB7"/>
<path d="M134.604 42.0179L125.387 47.3447C125.546 47.2488 125.61 47.0038 125.536 46.6842L134.753 41.3574C134.827 41.6877 134.763 41.9327 134.604 42.0179Z" fill="#4D4BB7"/>
<path d="M124.822 43.7005L134.028 38.3418L134.763 41.3674L125.546 46.7261L124.822 43.7005Z" fill="#4D4BB7"/>
<path d="M134.189 32.5356L124.972 37.8623C123.258 38.8638 120.885 38.7253 118.267 37.2125L127.483 31.8857C130.102 33.3879 132.475 33.537 134.189 32.5356Z" fill="#4D4BB7"/>
<path d="M111.625 14.8941L120.842 9.56738C119.16 10.5262 118.096 12.6143 118.096 15.6292C118.096 21.6164 122.289 28.9141 127.494 31.929L118.277 37.2557C113.072 34.2408 108.868 26.9538 108.879 20.9666C108.879 17.973 109.933 15.8849 111.625 14.8941Z" fill="#4D4BB7"/>
<path d="M106.389 6.63785L115.595 1.31112C115.664 1.26984 115.743 1.24805 115.824 1.24805C115.904 1.24805 115.983 1.26984 116.053 1.31112C116.205 1.39922 116.333 1.52366 116.425 1.67334L107.219 7.00007C107.12 6.85582 106.993 6.7327 106.846 6.63785C106.777 6.59764 106.698 6.57648 106.617 6.57648C106.537 6.57648 106.458 6.59764 106.389 6.63785Z" fill="#9996FF"/>
<path d="M139.382 40.792L130.165 46.1187H130.229L139.446 40.792H139.382Z" fill="#4D4BB7"/>
<path d="M107.262 7.0422L116.479 1.67285L118.394 4.40014L109.177 9.75883L107.262 7.0422Z" fill="#4D4BB7"/>
<path d="M109.177 9.76938L118.394 4.44265C119.21 4.05798 120.091 3.8303 120.991 3.77148L111.774 9.09821C110.873 9.15211 109.991 9.38002 109.177 9.76938Z" fill="#4D4BB7"/>
<path d="M132.55 43.7757L141.767 38.417L139.446 40.7394L130.229 46.0981L132.55 43.7757Z" fill="#4D4BB7"/>
<path d="M141.628 37.3191L139.701 34.5918L130.484 39.9185L132.411 42.6458C132.698 43.0506 132.762 43.5514 132.549 43.7112L141.766 38.3844C141.968 38.2246 141.904 37.7239 141.628 37.3191Z" fill="#9996FF"/>
<path d="M131.485 37.0103L140.702 31.6836C140.517 32.7084 140.18 33.6996 139.701 34.624L130.484 39.9507C130.968 39.0283 131.305 38.0364 131.485 37.0103Z" fill="#4D4BB7"/>
<path d="M116.01 7.07451L125.227 1.71582L125.95 4.7414L116.733 10.1001L116.01 7.07451Z" fill="#4D4BB7"/>
<path d="M124.62 0.852574C124.557 0.818434 124.489 0.793335 124.418 0.778L120.682 0.0109499C120.599 -0.0166708 120.51 -0.0166708 120.427 0.0109499L111.21 5.33768C111.292 5.30559 111.383 5.30559 111.465 5.33768L115.201 6.10473C115.272 6.11833 115.34 6.14352 115.403 6.1793C115.704 6.40343 115.906 6.73572 115.967 7.10615L125.184 1.77942C125.123 1.40899 124.921 1.0767 124.62 0.852574Z" fill="#9996FF"/>
<path d="M143.543 33.0796L134.326 38.4064C134.39 38.3612 134.44 38.2998 134.472 38.2286C134.504 38.1575 134.516 38.079 134.507 38.0015L143.724 32.6748C143.731 32.7521 143.717 32.8298 143.686 32.9006C143.654 32.9714 143.605 33.033 143.543 33.0796Z" fill="#4D4BB7"/>
<path d="M116.733 10.1109L125.95 4.78418C126.5 5.03 127.036 5.30379 127.557 5.6045C128.1 5.91345 128.622 6.27566 129.164 6.66984L119.948 11.9966C119.415 11.6237 118.883 11.2615 118.34 10.9312C117.822 10.6261 117.285 10.3521 116.733 10.1109Z" fill="#4D4BB7"/>
<path d="M130.527 26.9537L139.744 21.627C140.176 22.9596 140.503 24.3238 140.723 25.7072L131.507 31.034C131.285 29.6508 130.958 28.2867 130.527 26.9537Z" fill="#4D4BB7"/>
<path d="M134.529 33.5158L143.746 28.1465L143.735 32.6636L134.519 38.0222L134.529 33.5158Z" fill="#4D4BB7"/>
<path d="M143.096 27.0491L140.723 25.6748L131.506 31.0015L133.879 32.3758C134.063 32.4902 134.218 32.6461 134.331 32.8312C134.443 33.0162 134.511 33.2251 134.528 33.4412L143.735 28.1144C143.721 27.8987 143.656 27.6894 143.545 27.5041C143.434 27.3187 143.28 27.1627 143.096 27.0491Z" fill="#9996FF"/>
<path d="M124.887 16.6939L134.104 11.3672C135.051 12.5302 135.915 13.7584 136.69 15.0426L127.484 20.3694C126.704 19.0854 125.836 17.8573 124.887 16.6939Z" fill="#4D4BB7"/>
<path d="M125.631 14.4886L134.848 9.12988L134.113 11.3032L124.896 16.6619L125.631 14.4886Z" fill="#4D4BB7"/>
<path d="M134.433 7.95841L130.708 4.41081C130.651 4.3486 130.582 4.29796 130.506 4.26167C130.439 4.21897 130.361 4.19629 130.282 4.19629C130.203 4.19629 130.125 4.21897 130.059 4.26167L120.842 9.5884C120.909 9.54805 120.987 9.52675 121.065 9.52675C121.144 9.52675 121.221 9.54805 121.289 9.5884C121.365 9.62469 121.434 9.67533 121.491 9.73754L125.227 13.2851C125.386 13.4319 125.506 13.6157 125.576 13.8202C125.647 14.0247 125.666 14.2435 125.631 14.457L134.848 9.1303C134.883 8.91578 134.864 8.69584 134.791 8.49095C134.718 8.28606 134.595 8.10287 134.433 7.95841Z" fill="#9996FF"/>
<path d="M127.483 20.3379L136.7 14.9792L138.627 14.4785L129.41 19.8372L127.483 20.3379Z" fill="#4D4BB7"/>
<path d="M133.88 32.408C134.064 32.5223 134.218 32.6783 134.331 32.8633C134.444 33.0484 134.511 33.2573 134.529 33.4734V37.9904C134.529 38.3846 134.241 38.5551 133.89 38.342L131.506 36.9677C131.327 37.9938 130.989 38.9857 130.506 39.908L132.432 42.6353C132.72 43.0402 132.783 43.5409 132.571 43.7007L130.25 46.0231C130.177 46.0828 130.084 46.1153 129.99 46.1153C129.895 46.1153 129.803 46.0828 129.729 46.0231C129.582 45.9325 129.455 45.8129 129.356 45.6716L127.441 42.9443C126.622 43.3327 125.737 43.5605 124.833 43.6154L125.557 46.641C125.663 47.0991 125.482 47.3974 125.152 47.3335L121.406 46.5665C121.337 46.5558 121.272 46.5303 121.214 46.4919C120.909 46.2931 120.691 45.984 120.608 45.629L119.884 42.6034C119.333 42.3618 118.796 42.0879 118.277 41.7831C117.723 41.4634 117.213 41.1225 116.67 40.7177L115.925 42.8484C115.84 43.1147 115.584 43.168 115.318 43.0082C115.243 42.9692 115.175 42.9189 115.116 42.859L111.391 39.3008C111.229 39.1588 111.107 38.9771 111.036 38.7736C110.965 38.5701 110.948 38.3516 110.986 38.1396L111.721 36.0089C110.775 34.845 109.911 33.617 109.135 32.3334L107.208 32.8341C107.144 32.8472 107.078 32.8473 107.014 32.8345C106.95 32.8217 106.89 32.7962 106.836 32.7596C106.605 32.6145 106.423 32.4028 106.314 32.1523L104.015 27.1665C103.802 26.7191 103.877 26.3036 104.164 26.229L106.091 25.7283C105.649 24.3949 105.322 23.0263 105.111 21.6374L102.727 20.2631C102.547 20.1463 102.395 19.9895 102.284 19.8048C102.174 19.6201 102.107 19.4124 102.089 19.1977V14.7659C102.089 14.3504 102.376 14.2012 102.738 14.4037L105.122 15.778C105.305 14.7527 105.642 13.7613 106.123 12.8376L104.196 10.1103C103.909 9.70548 103.845 9.21542 104.058 9.04497L106.389 6.69055C106.463 6.63268 106.555 6.60126 106.649 6.60126C106.744 6.60126 106.836 6.63268 106.91 6.69055C107.057 6.78541 107.184 6.90853 107.283 7.05277L109.198 9.78006C110.012 9.38701 110.894 9.15547 111.795 9.09823L111.05 6.04069C110.944 5.59325 111.135 5.2843 111.465 5.34822L115.201 6.11527C115.272 6.12886 115.34 6.15406 115.403 6.18984C115.702 6.41142 115.904 6.73947 115.967 7.10604L116.691 10.1423C117.242 10.38 117.779 10.6504 118.298 10.9519C118.841 11.2609 119.363 11.6231 119.905 12.0173L120.65 9.83333C120.735 9.56699 120.98 9.51372 121.246 9.67352C121.323 9.70982 121.391 9.76045 121.449 9.82267L125.184 13.3703C125.343 13.517 125.463 13.7008 125.534 13.9053C125.604 14.1098 125.623 14.3286 125.589 14.5422L124.844 16.7261C125.793 17.8861 126.661 19.1106 127.441 20.3909L129.367 19.9008C129.434 19.8654 129.508 19.846 129.584 19.8441C129.66 19.8423 129.735 19.8581 129.803 19.8902C130.034 20.0309 130.216 20.2392 130.325 20.4868L132.624 25.4726C132.826 25.92 132.762 26.3462 132.475 26.4208L130.548 26.9215C130.979 28.2544 131.306 29.6186 131.527 31.0017L133.88 32.408ZM118.266 37.2447C123.471 40.249 127.707 37.8306 127.717 31.8434C127.728 25.8561 123.535 18.5585 118.33 15.5542C113.126 12.55 108.89 14.9683 108.868 20.9555C108.847 26.9428 113.062 34.2297 118.266 37.2447Z" fill="#6865F7"/>
<path d="M141.819 20.1458L139.52 15.16C139.408 14.9116 139.227 14.7007 138.999 14.5527C138.887 14.4847 138.755 14.4582 138.626 14.4781L129.409 19.8049C129.477 19.7903 129.547 19.7904 129.615 19.8051C129.683 19.8198 129.747 19.8487 129.803 19.8901C130.034 20.0308 130.216 20.2391 130.324 20.4867L132.623 25.4725C132.804 25.8773 132.772 26.2609 132.56 26.3887L141.766 21.062C141.968 20.9555 142 20.5506 141.819 20.1458Z" fill="#9996FF"/>
</g>
<defs>
<clipPath id="clip0_824_1554">
<rect width="430" height="441" fill="white"/>
</clipPath>
</defs>
</svg>
