<svg width="418" height="407" viewBox="0 0 418 407" fill="none" xmlns="http://www.w3.org/2000/svg">
<g clip-path="url(#clip0_1008_1547)">
<path d="M228.968 376.282C308.475 376.282 372.928 311.839 372.928 232.343C372.928 152.848 308.475 88.4043 228.968 88.4043C149.461 88.4043 85.0084 152.848 85.0084 232.343C85.0084 311.839 149.461 376.282 228.968 376.282Z" stroke="#EED1A0" stroke-width="1.89" stroke-linecap="round" stroke-linejoin="round"/>
<path d="M219.973 232.158L125.089 359.636C103.759 345.241 86.5111 325.579 75.0181 302.557L219.973 232.158Z" fill="#EAD1A6"/>
<path d="M157.957 305.871L166.701 295" stroke="white" stroke-width="0.94" stroke-linecap="round" stroke-linejoin="round"/>
<path d="M108.983 336.225C113.545 340.699 118.521 344.732 123.843 348.27L154.297 310.424" stroke="white" stroke-width="0.94" stroke-linecap="round" stroke-linejoin="round"/>
<path d="M94.3074 320.455C94.3074 320.455 98.0925 325.086 103.63 330.861" stroke="white" stroke-width="0.94" stroke-linecap="round" stroke-linejoin="round"/>
<path d="M409.003 241.718C409.058 271.516 401.381 300.818 386.722 326.761L223.61 232.158L404.384 201.882C405.88 208.116 407.668 221.115 407.668 221.115C408.545 227.948 408.991 234.829 409.003 241.718Z" fill="#EAD1A6"/>
<path d="M396.879 282.234C398.222 277.949 399.321 273.591 400.169 269.182" stroke="white" stroke-width="0.94" stroke-linecap="round" stroke-linejoin="round"/>
<path d="M356.566 298.862L384.486 312.397C388.57 304.396 392.115 296.131 395.096 287.657" stroke="white" stroke-width="0.94" stroke-linecap="round" stroke-linejoin="round"/>
<path d="M336.776 289.261L351.601 296.448" stroke="white" stroke-width="0.94" stroke-linecap="round" stroke-linejoin="round"/>
<path d="M145.302 19.4707C102.14 30.2404 48.9395 77.1036 48.9395 77.1036L49.4938 77.6459L219.306 232.158L145.302 19.4707Z" fill="#EAD1A6"/>
<path d="M102.724 118.818L119.247 134.422" stroke="white" stroke-width="0.94" stroke-linecap="round" stroke-linejoin="round"/>
<path d="M78.8925 59.5996C71.7069 64.9325 64.9322 70.7977 58.6257 77.1457L97.2161 113.615" stroke="white" stroke-width="0.94" stroke-linecap="round" stroke-linejoin="round"/>
<path d="M93.4609 49.3789C93.4609 49.3789 89.1214 52.0907 82.9937 56.5309" stroke="white" stroke-width="0.94" stroke-linecap="round" stroke-linejoin="round"/>
<path d="M143.991 87.4973L147.621 85.8345L146.852 81.4658L142.828 81.1499C142.308 79.8126 141.629 78.5421 140.808 77.3654L142.918 73.9086L139.776 70.6962L136.242 72.7881C134.209 71.4118 131.91 70.4759 129.494 70.0406L128.499 66.0176H124.046L123.033 70.0406C121.646 70.2981 120.295 70.7202 119.009 71.2981L115.832 68.5386L112.196 71.0597L113.698 74.9814C112.738 75.9919 111.892 77.1052 111.176 78.3011L107.004 77.872L105.478 82.0439L108.947 84.4279C108.779 85.4123 108.695 86.4093 108.697 87.4079V88.6654L105.049 90.6859L106.199 94.977L110.324 94.9115C110.926 96.2042 111.689 97.4158 112.595 98.5173L110.777 102.278L114.21 105.139L117.501 102.755C118.775 103.475 120.132 104.037 121.542 104.43L122.198 108.405L126.621 108.792L127.962 105.008C129.416 104.882 130.848 104.573 132.224 104.09L135.014 106.927L138.859 104.71L137.803 100.925C138.927 99.9804 139.928 98.8993 140.784 97.7067L144.694 98.4279L146.572 94.3989L143.55 91.8779C143.867 90.4399 144.015 88.9697 143.991 87.4973ZM137.434 87.4973C137.435 89.6915 136.785 91.8367 135.567 93.6616C134.348 95.4865 132.616 96.9091 130.589 97.7493C128.561 98.5895 126.33 98.8097 124.178 98.3819C122.026 97.9541 120.049 96.8976 118.497 95.3461C116.945 93.7946 115.888 91.8177 115.461 89.6656C115.033 87.5135 115.253 85.2829 116.093 83.256C116.934 81.229 118.356 79.4968 120.181 78.2785C122.007 77.0602 124.152 76.4106 126.347 76.4118C129.284 76.4118 132.101 77.5784 134.178 79.6551C136.255 81.7319 137.422 84.5485 137.422 87.4854L137.434 87.4973Z" fill="white" stroke="#EED1A0" stroke-width="0.94" stroke-linecap="round" stroke-linejoin="round"/>
<path d="M327.715 29.7995L305.613 35.4615L311.204 13.362C306.377 12.1582 301.289 12.5714 296.72 14.5382C292.15 16.505 288.353 19.9167 285.91 24.2496C283.467 28.5825 282.514 33.5973 283.197 38.5241C283.88 43.4509 286.161 48.0176 289.69 51.5232C293.219 55.0288 297.801 57.2796 302.733 57.9302C307.665 58.5807 312.674 57.595 316.991 55.1244C321.309 52.6537 324.696 48.8347 326.634 44.2534C328.571 39.6722 328.951 34.5819 327.715 29.7638V29.7995Z" fill="#EAD1A6"/>
<path d="M330.72 25.6877C328.931 18.6252 322.243 11.6997 315.162 9.93555L309.523 31.4927L330.72 25.6877Z" fill="#EAD1A6"/>
<path d="M153.325 271.548V222.903C153.325 222.061 152.991 221.253 152.395 220.657C151.799 220.061 150.991 219.727 150.148 219.727H143.109" stroke="#EAD1A6" stroke-linecap="round" stroke-linejoin="round" stroke-dasharray="1.92 1.92"/>
<path d="M139.163 191.249H65.6477C63.5572 191.249 61.8625 192.943 61.8625 195.034V246.951C61.8625 249.041 63.5572 250.735 65.6477 250.735H139.163C141.253 250.735 142.948 249.041 142.948 246.951V195.034C142.948 192.943 141.253 191.249 139.163 191.249Z" fill="#EAD1A6"/>
<path opacity="0.3" d="M87.345 197.973H73.5695C71.4791 197.973 69.7844 199.667 69.7844 201.757V210.018C69.7844 212.108 71.4791 213.802 73.5695 213.802H87.345C89.4355 213.802 91.1301 212.108 91.1301 210.018V201.757C91.1301 199.667 89.4355 197.973 87.345 197.973Z" fill="white"/>
<path opacity="0.3" d="M134.579 223.177H69.5938V227.593H134.579V223.177Z" fill="white"/>
<path opacity="0.3" d="M134.567 209.35H96.9182V213.766H134.567V209.35Z" fill="white"/>
<path opacity="0.3" d="M134.567 197.579H96.9182V201.995H134.567V197.579Z" fill="white"/>
<path opacity="0.3" d="M134.751 236.157H69.9573V240.508H134.751V236.157Z" fill="white"/>
<path d="M153.2 275.547C155.011 275.547 156.479 274.08 156.479 272.269C156.479 270.459 155.011 268.991 153.2 268.991C151.39 268.991 149.922 270.459 149.922 272.269C149.922 274.08 151.39 275.547 153.2 275.547Z" fill="#EAD1A6"/>
<path d="M304.122 181.678H305.309" stroke="#263238" stroke-width="0.94" stroke-linecap="round" stroke-linejoin="round"/>
<path d="M307.735 181.702H316.372C317.496 181.699 318.572 181.252 319.367 180.458C320.163 179.664 320.611 178.588 320.616 177.465V104.414C320.614 103.857 320.721 103.305 320.933 102.79C321.144 102.275 321.455 101.807 321.847 101.412C322.24 101.017 322.706 100.704 323.22 100.49C323.734 100.275 324.286 100.165 324.842 100.164H340.144" stroke="#EAD1A6" stroke-linecap="round" stroke-linejoin="round" stroke-dasharray="1.92 1.92"/>
<path d="M421.67 70.8701H348.155C346.065 70.8701 344.37 72.5645 344.37 74.6547V126.572C344.37 128.662 346.065 130.357 348.155 130.357H421.67C423.76 130.357 425.455 128.662 425.455 126.572V74.6547C425.455 72.5645 423.76 70.8701 421.67 70.8701Z" fill="#EAD1A6"/>
<path opacity="0.3" d="M414.475 77.5801H357.275C355.185 77.5801 353.49 79.2745 353.49 81.3647V89.6252C353.49 91.7153 355.185 93.4097 357.275 93.4097H414.475C416.566 93.4097 418.26 91.7153 418.26 89.6252V81.3647C418.26 79.2745 416.566 77.5801 414.475 77.5801Z" fill="white"/>
<path opacity="0.3" d="M417.998 102.934H355.85V107.207H417.998V102.934Z" fill="white"/>
<path opacity="0.3" d="M417.998 111.486H355.85V115.76H417.998V111.486Z" fill="white"/>
<path d="M306.912 184.956C308.723 184.956 310.191 183.489 310.191 181.678C310.191 179.868 308.723 178.4 306.912 178.4C305.101 178.4 303.634 179.868 303.634 181.678C303.634 183.489 305.101 184.956 306.912 184.956Z" fill="#EAD1A6"/>
<path d="M345.252 103.16C347.063 103.16 348.531 101.693 348.531 99.8825C348.531 98.0721 347.063 96.6045 345.252 96.6045C343.441 96.6045 341.974 98.0721 341.974 99.8825C341.974 101.693 343.441 103.16 345.252 103.16Z" fill="#EAD1A6"/>
<path d="M411.87 388.34H3.64916C1.58174 388.34 -0.0942383 390.016 -0.0942383 392.083V393.328C-0.0942383 395.395 1.58174 397.071 3.64916 397.071H411.87C413.938 397.071 415.614 395.395 415.614 393.328V392.083C415.614 390.016 413.938 388.34 411.87 388.34Z" fill="#EAD1A6"/>
<path d="M210.812 287.985L203.534 310.282C203.534 310.282 214.263 339.247 229.088 342.322C229.088 342.322 246.231 323.972 244.228 298.743L210.812 287.985Z" fill="#F9B499"/>
<path d="M108.047 372.141L161.587 308.369L201.042 300.723C201.042 300.723 208.791 328.8 228.867 340.422C228.867 340.422 242.249 325.981 240.491 302.385C240.491 302.385 279.236 306.259 301.78 322.459V388.316H108.053C108.053 388.316 101.842 379.531 108.047 372.141Z" fill="#605797"/>
<path opacity="0.2" d="M165.527 330.402C165.527 330.402 164.812 357.925 160.759 365.28L132.743 360.298L169.998 369.786L170.827 371.329V368.719L163.87 366.818C163.87 366.818 167.661 339.301 165.527 330.402Z" fill="black"/>
<path opacity="0.2" d="M161.587 308.393C161.587 308.393 168.836 318.346 183.797 317.774C183.797 317.774 189.967 327.482 193.049 329.765C193.049 329.765 214.06 337.513 223.657 339.015C223.657 339.015 197.501 334.676 192.137 330.909L183.344 319.585C183.344 319.585 163.93 318.31 161.587 308.393Z" fill="black"/>
<path opacity="0.2" d="M231.758 364.893L227.377 339.533L228.867 340.445L231.758 364.893Z" fill="black"/>
<path d="M181.014 278.604C179.869 279.701 173.407 286.674 169.777 306.807L188.417 303.195V317.356L195.659 323.703C195.659 323.703 197.793 314.269 197.793 314.984V324.71L200.178 325.902C200.178 325.902 207.539 295.03 225.332 263.031C225.332 263.031 236.449 264.968 240.282 257.577C240.282 257.577 237.671 265.164 234.321 266.827L245.951 272.048C246.841 271.572 247.606 270.891 248.183 270.062C248.76 269.234 249.133 268.28 249.271 267.28C249.271 267.28 249.748 272.734 247.846 273.681L259.011 278.926C259.011 278.926 247.96 296.21 240.491 302.414L245.855 303.111L245.987 308.398H256.662L257.39 305.18C257.39 305.18 271.88 308.756 275.147 309.84C275.147 309.84 268.244 301.282 268.483 272.602C268.495 271.021 268.892 269.467 269.639 268.073C272.012 263.7 273.248 258.801 273.231 253.825C273.214 248.85 271.946 243.959 269.544 239.602C267.314 235.449 264.279 231.782 260.616 228.814C256.953 225.847 252.736 223.638 248.21 222.318C239.531 219.791 227.436 219.511 215.616 230.066C215.616 230.066 210.317 234.834 204.291 245.961C204.291 245.961 188.482 270.528 182.075 277.549C181.753 277.913 181.371 278.258 181.014 278.604Z" fill="#2F2E41"/>
<path d="M211.956 290.47C211.956 290.47 226.465 318.923 240.491 302.39C240.491 302.39 248.097 296.222 259.011 278.902L247.858 273.681C247.858 273.681 249.998 272.614 249.283 267.28C249.283 267.28 248.812 270.719 245.963 272.048L234.333 266.827C234.333 266.827 237.314 265.76 240.294 257.577C240.294 257.577 237.087 264.455 225.344 263.031C225.32 263.025 215.795 280.654 211.956 290.47Z" fill="#F9B499"/>
<path d="M210.812 293.284C210.812 293.284 216.659 310.83 229.564 311.658C229.564 311.658 237.153 312.129 240.491 302.409C240.491 302.409 235.406 310.115 227.216 306.795C227.216 306.795 218.519 303.684 211.956 290.471L210.812 293.284Z" fill="#F9AB93"/>
<path d="M205.93 306.872L204.666 310.621C204.666 310.621 213.786 332.571 228.867 340.421V337.614C228.867 337.614 215.056 329.639 205.93 306.872Z" fill="#F9AB93"/>
<path d="M348.811 308.393H237.224C234.742 308.393 232.73 310.405 232.73 312.886V383.846C232.73 386.328 234.742 388.34 237.224 388.34H348.811C351.293 388.34 353.305 386.328 353.305 383.846V312.886C353.305 310.405 351.293 308.393 348.811 308.393Z" fill="#2F2E41"/>
<path d="M350.116 388.34H190.497V394.431H350.116V388.34Z" fill="#2F2E41"/>
<path opacity="0.2" d="M350.116 388.34H190.497V394.431H350.116V388.34Z" fill="black"/>
<path d="M207.581 387.034H230.834L227.627 376.955L232.73 378.261V371.377L223.24 371.401L207.581 375.293L205.435 387.058L207.581 387.034Z" fill="#F9AB93"/>
<path d="M214.621 384.192C211.044 381.808 207.307 385.259 206.246 386.373C206.015 386.622 205.757 386.844 205.477 387.035H205.435C204.062 387.904 202.457 388.332 200.833 388.263L190.73 387.965C190.652 387.488 189.943 387.41 189.943 387.41L164.758 388.316C160.157 376.098 170.862 371.307 170.862 371.307L197.376 374.322C197.376 374.322 203.665 375.032 208.529 373.017C208.529 373.017 217.547 367.963 223.24 371.378L232.73 375.985V382.267L230.238 380.61L235.221 388.316H229.857C229.857 388.316 222.978 377.284 212.773 376.575C215.288 377.668 217.542 379.281 219.388 381.309C221.233 383.337 222.627 385.734 223.478 388.34H217.899C217.899 388.34 215.807 385.014 214.621 384.192Z" fill="#F9B499"/>
<path opacity="0.2" d="M293.101 357.676C298.865 357.676 303.538 353.003 303.538 347.24C303.538 341.476 298.865 336.804 293.101 336.804C287.336 336.804 282.663 341.476 282.663 347.24C282.663 353.003 287.336 357.676 293.101 357.676Z" fill="black"/>
</g>
<defs>
<clipPath id="clip0_1008_1547">
<rect width="418" height="407" fill="white"/>
</clipPath>
</defs>
</svg>
