<svg width="443" height="396" viewBox="0 0 443 396" fill="none" xmlns="http://www.w3.org/2000/svg">
<g clip-path="url(#clip0_1008_1054)">
<path d="M369.473 17.3027H88.6812V235.138H369.473V17.3027Z" fill="white"/>
<path d="M369.803 235.469H88.3423V16.9727H369.797L369.803 235.469ZM89.0118 234.808H369.141V17.6335H89.0052L89.0118 234.808Z" fill="#2F2E41"/>
<path d="M123.488 83.6094H122.825V216.845H123.488V83.6094Z" fill="#2F2E41"/>
<path d="M166.203 110.647H165.541V216.747H166.203V110.647Z" fill="#2F2E41"/>
<path d="M207.818 82.2559H207.155V188.355H207.818V82.2559Z" fill="#2F2E41"/>
<path d="M244.428 60.624H243.766V166.723H244.428V60.624Z" fill="#2F2E41"/>
<path d="M288.078 112.002H287.416V218.101H288.078V112.002Z" fill="#2F2E41"/>
<path d="M335.931 81.582H335.269V187.681H335.931V81.582Z" fill="#2F2E41"/>
<path d="M166.887 111.069C166.887 111.266 166.828 111.457 166.719 111.62C166.61 111.783 166.454 111.91 166.273 111.985C166.091 112.06 165.891 112.08 165.698 112.042C165.505 112.003 165.328 111.909 165.189 111.77C165.05 111.632 164.955 111.455 164.917 111.263C164.879 111.071 164.898 110.871 164.974 110.69C165.049 110.509 165.176 110.354 165.34 110.245C165.503 110.136 165.696 110.078 165.892 110.078C166.156 110.078 166.409 110.183 166.595 110.368C166.782 110.554 166.887 110.807 166.887 111.069Z" fill="#2F2E41"/>
<path d="M207.486 82.6116C208.036 82.6116 208.481 82.1677 208.481 81.6202C208.481 81.0727 208.036 80.6289 207.486 80.6289C206.937 80.6289 206.492 81.0727 206.492 81.6202C206.492 82.1677 206.937 82.6116 207.486 82.6116Z" fill="#2F2E41"/>
<path d="M207.487 85.1035C206.796 85.1048 206.12 84.9016 205.544 84.5197C204.969 84.1378 204.52 83.5943 204.255 82.958C203.989 82.3217 203.919 81.6212 204.053 80.9452C204.187 80.2691 204.519 79.6479 205.008 79.1601C205.496 78.6724 206.118 78.34 206.796 78.2051C207.474 78.0702 208.177 78.1388 208.815 78.4022C209.454 78.6656 210 79.112 210.384 79.6849C210.768 80.2578 210.973 80.9314 210.973 81.6206C210.973 82.5432 210.606 83.428 209.953 84.081C209.299 84.734 208.412 85.1017 207.487 85.1035ZM207.487 78.369C206.842 78.369 206.211 78.5597 205.675 78.917C205.139 79.2743 204.721 79.7821 204.474 80.3762C204.227 80.9704 204.162 81.6242 204.288 82.2549C204.414 82.8857 204.725 83.465 205.181 83.9198C205.637 84.3745 206.218 84.6842 206.851 84.8097C207.483 84.9351 208.139 84.8707 208.735 84.6246C209.331 84.3785 209.84 83.9618 210.198 83.427C210.557 82.8923 210.748 82.2637 210.748 81.6206C210.748 80.7582 210.404 79.9312 209.793 79.3214C209.181 78.7116 208.352 78.369 207.487 78.369Z" fill="#2F2E41"/>
<path d="M243.971 61.7014C244.52 61.7014 244.966 61.2576 244.966 60.7101C244.966 60.1626 244.52 59.7188 243.971 59.7188C243.422 59.7188 242.977 60.1626 242.977 60.7101C242.977 61.2576 243.422 61.7014 243.971 61.7014Z" fill="#2F2E41"/>
<path d="M287.747 113.053C288.296 113.053 288.742 112.609 288.742 112.062C288.742 111.514 288.296 111.07 287.747 111.07C287.198 111.07 286.753 111.514 286.753 112.062C286.753 112.609 287.198 113.053 287.747 113.053Z" fill="#2F2E41"/>
<path d="M335.6 82.6116C336.149 82.6116 336.594 82.1677 336.594 81.6202C336.594 81.0727 336.149 80.6289 335.6 80.6289C335.051 80.6289 334.605 81.0727 334.605 81.6202C334.605 82.1677 335.051 82.6116 335.6 82.6116Z" fill="#263238"/>
<path d="M124.138 82.619C124.137 82.8148 124.077 83.0058 123.967 83.168C123.857 83.3301 123.701 83.4562 123.52 83.5302C123.338 83.6042 123.138 83.6229 122.946 83.5839C122.753 83.5449 122.577 83.45 122.438 83.3111C122.3 83.1722 122.206 82.9955 122.168 82.8034C122.13 82.6113 122.15 82.4123 122.226 82.2315C122.301 82.0508 122.429 81.8963 122.592 81.7877C122.755 81.6791 122.947 81.6211 123.144 81.6211C123.273 81.6211 123.402 81.6466 123.522 81.6961C123.641 81.7455 123.75 81.8181 123.842 81.9095C123.934 82.0009 124.007 82.1095 124.056 82.229C124.106 82.3485 124.131 82.4765 124.131 82.6058L124.138 82.619Z" fill="#2F2E41"/>
<path d="M344.999 129.476C344.748 129.589 344.486 129.675 344.217 129.734C343.446 129.939 342.691 130.197 341.956 130.507C339.178 131.796 336.706 133.659 334.705 135.972C331.967 138.907 329.269 142.984 325.862 147.578C324.05 150.054 322.039 152.379 319.85 154.53C318.633 155.699 317.331 156.775 315.952 157.749C314.472 158.754 312.895 159.61 311.246 160.306C307.673 161.748 303.826 162.391 299.977 162.19C297.936 162.151 295.906 161.898 293.918 161.436C291.809 160.988 289.815 160.113 288.058 158.866C286.263 157.562 284.715 155.951 283.485 154.107C282.225 152.283 281.092 150.353 279.998 148.397C277.804 144.432 275.537 140.466 272.952 136.501C270.366 132.536 268.066 128.214 265.448 124.024C262.892 119.709 259.8 115.732 256.247 112.187C254.407 110.434 252.327 108.95 250.069 107.779C247.794 106.618 245.321 105.891 242.778 105.638C237.482 105.121 232.156 106.252 227.532 108.876C222.96 111.625 219.016 115.297 215.951 119.655C212.909 123.896 210.152 128.334 207.699 132.939C205.281 137.414 202.612 141.75 199.704 145.925C196.904 149.962 193.645 153.663 189.993 156.956C189.093 157.75 188.153 158.498 187.176 159.196C186.216 159.897 185.218 160.546 184.187 161.139C182.161 162.305 179.987 163.194 177.724 163.783C176.614 164.077 175.484 164.287 174.343 164.41C173.778 164.481 173.209 164.512 172.64 164.503H170.949C168.748 164.378 166.572 163.973 164.473 163.3C160.569 161.925 156.879 160.005 153.516 157.597C150.261 155.369 147.291 153.043 144.375 150.988C141.681 148.941 138.777 147.187 135.711 145.754C132.984 144.494 130.077 143.667 127.094 143.302C124.5 142.991 121.87 143.162 119.338 143.804C118.767 143.942 118.207 144.121 117.661 144.339C117.119 144.503 116.591 144.711 116.083 144.96C115.134 145.393 114.219 145.897 113.346 146.467C111.88 147.447 110.503 148.553 109.229 149.772L107.791 151.338C107.378 151.753 106.992 152.194 106.638 152.66L105.186 154.563C105.027 154.789 104.847 154.999 104.649 155.191C104.759 154.937 104.899 154.698 105.067 154.477L106.392 152.495C106.731 152.007 107.101 151.541 107.499 151.1L108.891 149.461C110.15 148.177 111.531 147.017 113.014 145.998C113.884 145.395 114.799 144.861 115.752 144.399C116.263 144.13 116.798 143.909 117.35 143.738C117.912 143.5 118.49 143.302 119.08 143.143C121.69 142.432 124.409 142.208 127.1 142.482C130.18 142.816 133.189 143.63 136.016 144.894C139.158 146.328 142.139 148.086 144.912 150.142C147.855 152.217 150.844 154.504 154.046 156.678C157.334 158.993 160.934 160.833 164.738 162.144C166.738 162.777 168.813 163.148 170.909 163.247H172.527C173.063 163.254 173.599 163.221 174.131 163.148C175.21 163.029 176.278 162.825 177.326 162.54C181.709 161.301 185.739 159.053 189.092 155.978C192.655 152.744 195.831 149.112 198.558 145.152C201.421 141.008 204.055 136.71 206.446 132.278C208.931 127.62 211.723 123.131 214.805 118.842C217.988 114.327 222.081 110.523 226.822 107.673C229.266 106.304 231.903 105.31 234.644 104.726C237.345 104.157 240.116 103.999 242.864 104.256C245.595 104.529 248.251 105.311 250.692 106.563C253.071 107.784 255.259 109.342 257.189 111.189C260.818 114.821 263.976 118.893 266.588 123.31C269.24 127.546 271.56 131.815 274.052 135.814C276.544 139.812 278.924 143.877 281.078 147.802C283.233 151.728 285.4 155.574 288.748 157.934C290.385 159.109 292.25 159.933 294.223 160.353C296.132 160.802 298.082 161.059 300.043 161.119C303.738 161.33 307.434 160.744 310.881 159.401C312.478 158.74 314.007 157.928 315.448 156.975C316.796 156.045 318.073 155.016 319.266 153.896C321.438 151.8 323.433 149.53 325.232 147.108C328.686 142.555 331.49 138.517 334.313 135.616C336.413 133.301 339.003 131.484 341.897 130.295C342.648 129.999 343.428 129.778 344.223 129.634C344.477 129.559 344.736 129.506 344.999 129.476Z" fill="#605797"/>
<path d="M171.129 41.75H122.169V44.4663H171.129V41.75Z" fill="#2F2E41"/>
<path d="M146.357 48.1064H122.169V50.8227H146.357V48.1064Z" fill="#2F2E41"/>
<path d="M92.4587 -0.467773H365.356C365.897 -0.467774 366.433 -0.361399 366.932 -0.154735C367.432 0.0519297 367.886 0.354829 368.269 0.736632C368.651 1.11844 368.954 1.57165 369.161 2.07035C369.367 2.56904 369.473 3.10344 369.472 3.64295V17.2837H88.3423V3.64295C88.3414 3.10344 88.4472 2.56904 88.6537 2.07035C88.8602 1.57165 89.1633 1.11844 89.5456 0.736632C89.9279 0.354829 90.382 0.0519297 90.8819 -0.154735C91.3818 -0.361399 91.9176 -0.467774 92.4587 -0.467773Z" fill="#2F2E41"/>
<path d="M102.926 8.75764C102.927 9.13726 102.815 9.50872 102.604 9.82491C102.394 10.1411 102.094 10.3878 101.742 10.5337C101.391 10.6795 101.003 10.718 100.63 10.6443C100.256 10.5706 99.9133 10.3879 99.6441 10.1195C99.3749 9.85102 99.1916 9.50892 99.1177 9.13652C99.0437 8.76413 99.0823 8.37822 99.2287 8.02774C99.375 7.67727 99.6224 7.37801 99.9395 7.16791C100.257 6.95782 100.629 6.84636 101.01 6.84767C101.518 6.84767 102.005 7.0489 102.365 7.40708C102.724 7.76527 102.926 8.25108 102.926 8.75764Z" fill="white"/>
<path d="M111.291 8.75764C111.292 9.13698 111.181 9.50818 110.97 9.82423C110.76 10.1403 110.46 10.387 110.109 10.533C109.758 10.6791 109.371 10.718 108.998 10.6448C108.624 10.5716 108.281 10.3896 108.012 10.1218C107.742 9.85403 107.558 9.51255 107.484 9.14059C107.409 8.76863 107.447 8.38293 107.592 8.03234C107.737 7.68174 107.984 7.38202 108.3 7.17113C108.616 6.96024 108.988 6.84767 109.369 6.84767C109.621 6.8468 109.871 6.89556 110.104 6.99116C110.337 7.08675 110.549 7.2273 110.728 7.40474C110.906 7.58219 111.048 7.79303 111.144 8.02519C111.241 8.25735 111.291 8.50626 111.291 8.75764Z" fill="white"/>
<path d="M119.656 8.75764C119.657 9.13726 119.546 9.50872 119.335 9.82491C119.124 10.1411 118.824 10.3878 118.473 10.5337C118.121 10.6795 117.734 10.718 117.36 10.6443C116.987 10.5706 116.644 10.3879 116.375 10.1195C116.105 9.85102 115.922 9.50892 115.848 9.13652C115.774 8.76413 115.813 8.37822 115.959 8.02774C116.105 7.67727 116.353 7.37801 116.67 7.16791C116.987 6.95782 117.36 6.84636 117.74 6.84767C118.249 6.84767 118.736 7.0489 119.095 7.40708C119.454 7.76527 119.656 8.25108 119.656 8.75764Z" fill="white"/>
<path d="M144.687 58.3711H35.8036C34.482 58.3711 33.4106 59.4393 33.4106 60.7569V103.047C33.4106 104.365 34.482 105.433 35.8036 105.433H144.687C146.008 105.433 147.08 104.365 147.08 103.047V60.7569C147.08 59.4393 146.008 58.3711 144.687 58.3711Z" fill="#E0E0E0"/>
<path d="M57.0288 73.2402C57.0288 74.2859 56.7178 75.3081 56.1351 76.1776C55.5524 77.0471 54.7242 77.7247 53.7552 78.1249C52.7862 78.5251 51.7199 78.6298 50.6913 78.4258C49.6626 78.2217 48.7177 77.7182 47.9761 76.9788C47.2344 76.2394 46.7294 75.2973 46.5247 74.2717C46.3201 73.2461 46.4251 72.183 46.8265 71.2169C47.2279 70.2509 47.9076 69.4251 48.7797 68.8442C49.6517 68.2632 50.677 67.9531 51.7258 67.9531C53.1322 67.9531 54.4811 68.5102 55.4756 69.5017C56.4701 70.4932 57.0288 71.838 57.0288 73.2402Z" fill="#2E2852"/>
<path d="M99.2537 69.5918H62.3252V71.634H99.2537V69.5918Z" fill="#605797"/>
<path d="M134.147 74.2393H62.3252V76.2814H134.147V74.2393Z" fill="white"/>
<path d="M57.0288 89.4854C57.0288 90.531 56.7178 91.5533 56.1351 92.4227C55.5524 93.2922 54.7242 93.9698 53.7552 94.37C52.7862 94.7702 51.7199 94.8749 50.6913 94.6709C49.6626 94.4669 48.7177 93.9633 47.9761 93.2239C47.2344 92.4845 46.7294 91.5424 46.5247 90.5168C46.3201 89.4912 46.4251 88.4282 46.8265 87.4621C47.2279 86.496 47.9076 85.6702 48.7797 85.0893C49.6517 84.5083 50.677 84.1982 51.7258 84.1982C53.1322 84.1982 54.4811 84.7553 55.4756 85.7468C56.4701 86.7383 57.0288 88.0831 57.0288 89.4854Z" fill="#2E2852"/>
<path d="M81.1838 85.8369H62.3252V87.8791H81.1838V85.8369Z" fill="#605797"/>
<path d="M134.147 90.4766H62.3252V92.5187H134.147V90.4766Z" fill="white"/>
<path d="M149.704 201.063H10.2828C8.28398 201.063 6.66357 202.679 6.66357 204.672V259.612C6.66357 261.605 8.28398 263.22 10.2828 263.22H149.704C151.703 263.22 153.324 261.605 153.324 259.612V204.672C153.324 202.679 151.703 201.063 149.704 201.063Z" fill="#E0E0E0"/>
<path d="M33.4966 231.094L33.4104 218.491C29.5549 218.558 25.851 220 22.9702 222.556C21.126 224.154 19.7035 226.18 18.8275 228.454C17.9515 230.729 17.6487 233.183 17.9457 235.602C18.012 236.203 18.1114 236.818 18.2373 237.426C18.2404 237.433 18.242 237.441 18.242 237.449C18.242 237.457 18.2404 237.465 18.2373 237.472L33.4833 234.055L33.4966 231.094Z" fill="#B49662"/>
<path d="M49.2333 227.215C48.1216 224.832 46.3997 222.783 44.241 221.275C42.0823 219.767 39.5631 218.852 36.9371 218.623L36.4532 218.577H35.1274L35.207 231.18V234.141L50.453 237.406C50.691 236.332 50.8044 235.234 50.7911 234.134C50.7893 231.742 50.2574 229.379 49.2333 227.215Z" fill="#605797"/>
<g opacity="0.2">
<path d="M49.2333 227.215C48.1216 224.832 46.3997 222.783 44.241 221.275C42.0823 219.767 39.5631 218.852 36.9371 218.623L36.4532 218.577H35.1274L35.207 231.18V234.141L50.453 237.406C50.691 236.332 50.8044 235.234 50.7911 234.134C50.7893 231.742 50.2574 229.379 49.2333 227.215Z" fill="black"/>
</g>
<path d="M34.3056 235.595L19.0596 239.018C19.841 242.475 21.7816 245.562 24.5608 247.771C27.34 249.979 30.7916 251.176 34.3455 251.165C37.8994 251.153 41.343 249.933 44.1077 247.707C46.8724 245.481 48.7927 242.381 49.5516 238.919L34.3056 235.615" fill="#605797"/>
<g opacity="0.1">
<path d="M34.3056 235.595L19.0596 239.018C19.841 242.475 21.7816 245.562 24.5608 247.771C27.34 249.979 30.7916 251.176 34.3455 251.165C37.8994 251.153 41.343 249.933 44.1077 247.707C46.8724 245.481 48.7927 242.381 49.5516 238.919L34.3056 235.615" fill="black"/>
</g>
<path d="M138.423 222.258H61.0195V225.754H138.423V222.258Z" fill="white"/>
<path d="M138.423 231.478H61.0195V234.974H138.423V231.478Z" fill="white"/>
<path d="M102.86 241.669H61.0195V245.165H102.86V241.669Z" fill="white"/>
<path d="M350.647 147.531H213.095C208.852 147.531 205.412 150.961 205.412 155.191V286.668C205.412 290.898 208.852 294.328 213.095 294.328H350.647C354.89 294.328 358.33 290.898 358.33 286.668V155.191C358.33 150.961 354.89 147.531 350.647 147.531Z" fill="#E6E6E6"/>
<path d="M221.116 248.092H216.098V249.533H221.116V248.092Z" fill="#2F2E41"/>
<path d="M233.876 255.804H227.453V257.244H233.876V255.804Z" fill="#2F2E41"/>
<path d="M256.221 255.804H249.798V257.244H256.221V255.804Z" fill="#2F2E41"/>
<path d="M278.56 255.804H272.137V257.244H278.56V255.804Z" fill="#2F2E41"/>
<path d="M300.905 255.804H294.482V257.244H300.905V255.804Z" fill="#2F2E41"/>
<path d="M323.251 255.804H316.828V257.244H323.251V255.804Z" fill="#2F2E41"/>
<path d="M345.596 255.804H339.172V257.244H345.596V255.804Z" fill="#2F2E41"/>
<path d="M221.116 228.834H216.098V230.275H221.116V228.834Z" fill="#2F2E41"/>
<path d="M221.116 192.584H216.098V194.025H221.116V192.584Z" fill="#2F2E41"/>
<path d="M221.116 174.377H216.098V175.818H221.116V174.377Z" fill="#2F2E41"/>
<path d="M221.374 210.713H216.356V212.154H221.374V210.713Z" fill="#2F2E41"/>
<path d="M346.551 211.393H228.321V212.053H346.551V211.393Z" fill="#2F2E41"/>
<path d="M346.551 193.146H228.321V193.806H346.551V193.146Z" fill="#2F2E41"/>
<path d="M346.815 174.793H228.586V175.454H346.815V174.793Z" fill="#2F2E41"/>
<path d="M346.551 229.065H228.321V229.726H346.551V229.065Z" fill="#2F2E41"/>
<path d="M229.819 245.634V229.555L239.868 213.997L246.696 219.218L260.689 197.535L268.915 203.337L280.403 183.299L289.743 190.873L303.736 164.345L318.816 193.999L331.026 179.162L345.384 175.064V245.594L229.819 245.634Z" fill="#EAD1A6"/>
<path d="M346.816 169.386H342.885L331.868 169.439H331.968L320.162 184.825L320.096 184.897H320.009L290.445 184.944L290.644 184.838L278.215 205.491L266.005 225.714L265.833 226.005L265.628 225.727L249.619 203.772H249.937L235.321 226.467C233.578 229.203 232.199 231.279 231.251 232.733C230.794 233.446 230.429 233.982 230.171 234.372C229.912 234.761 229.786 234.92 229.786 234.92C229.786 234.92 229.899 234.722 230.124 234.345C230.35 233.968 230.708 233.393 231.158 232.673L235.135 226.342L249.606 203.568L249.752 203.336L249.924 203.561C254.71 210.09 260.126 217.486 265.992 225.476H265.608L277.798 205.246L290.247 184.626L290.313 184.514H320.003L319.857 184.587L331.762 169.287V169.234H331.835L342.885 169.287H346.551L346.816 169.386Z" fill="#2F2E41"/>
<path d="M254.643 208.829C254.65 209.052 254.59 209.272 254.471 209.462C254.352 209.651 254.179 209.801 253.974 209.892C253.77 209.984 253.543 210.013 253.322 209.976C253.101 209.939 252.896 209.837 252.733 209.684C252.57 209.53 252.456 209.332 252.406 209.114C252.356 208.896 252.371 208.669 252.451 208.46C252.531 208.251 252.671 208.07 252.853 207.941C253.036 207.811 253.253 207.738 253.477 207.732H253.51C253.655 207.728 253.8 207.753 253.936 207.806C254.071 207.858 254.195 207.936 254.301 208.036C254.406 208.136 254.49 208.256 254.549 208.389C254.608 208.521 254.64 208.664 254.643 208.809V208.829Z" fill="#2F2E41"/>
<path d="M288.748 189.491C288.756 189.714 288.697 189.935 288.579 190.125C288.461 190.315 288.289 190.466 288.085 190.558C287.881 190.651 287.654 190.681 287.433 190.645C287.212 190.609 287.006 190.509 286.842 190.356C286.678 190.204 286.563 190.007 286.512 189.789C286.46 189.572 286.475 189.344 286.553 189.135C286.631 188.925 286.77 188.744 286.952 188.613C287.134 188.482 287.351 188.408 287.575 188.4H287.614C287.91 188.399 288.194 188.513 288.406 188.718C288.618 188.923 288.741 189.203 288.748 189.497V189.491Z" fill="#2F2E41"/>
<path d="M315.256 184.747C315.265 184.971 315.207 185.194 315.09 185.385C314.972 185.577 314.8 185.73 314.596 185.824C314.391 185.918 314.163 185.95 313.94 185.915C313.718 185.88 313.51 185.78 313.344 185.628C313.179 185.476 313.062 185.278 313.009 185.059C312.956 184.841 312.969 184.612 313.047 184.401C313.124 184.19 313.263 184.006 313.445 183.874C313.627 183.741 313.845 183.666 314.07 183.656H314.123C314.419 183.653 314.704 183.766 314.917 183.972C315.129 184.177 315.251 184.458 315.256 184.753V184.747Z" fill="#2F2E41"/>
<path d="M234.791 282.107C238.843 282.107 242.129 278.956 242.129 275.069C242.129 271.181 238.843 268.03 234.791 268.03C230.738 268.03 227.453 271.181 227.453 275.069C227.453 278.956 230.738 282.107 234.791 282.107Z" fill="white"/>
<path d="M339.172 270.351H253.006V272.981H339.172V270.351Z" fill="white"/>
<path d="M288.781 276.934H253.006V279.564H288.781V276.934Z" fill="white"/>
<path d="M406.123 33.5146H313.619C311.126 33.5146 309.105 35.5297 309.105 38.0153V112.973C309.105 115.459 311.126 117.474 313.619 117.474H406.123C408.616 117.474 410.637 115.459 410.637 112.973V38.0153C410.637 35.5297 408.616 33.5146 406.123 33.5146Z" fill="#E6E6E6"/>
<path d="M332.305 67.1348H326.83V108.328H332.305V67.1348Z" fill="#605797"/>
<path d="M357.183 63.79H351.708V108.327H357.183V63.79Z" fill="#605797"/>
<path d="M382.942 58.1328H377.466V108.327H382.942V58.1328Z" fill="#605797"/>
<path d="M370.844 88.2627H365.369V108.321H370.844V88.2627Z" fill="#605797"/>
<g opacity="0.2">
<path d="M370.844 88.2627H365.369V108.321H370.844V88.2627Z" fill="black"/>
</g>
<path d="M338.682 62.7119H333.207V108.326H338.682V62.7119Z" fill="#605797"/>
<g opacity="0.1">
<path d="M338.682 62.7119H333.207V108.326H338.682V62.7119Z" fill="black"/>
</g>
<path d="M364.004 53.1631H358.528V108.327H364.004V53.1631Z" fill="#605797"/>
<g opacity="0.1">
<path d="M364.004 53.1631H358.528V108.327H364.004V53.1631Z" fill="black"/>
</g>
<path d="M397.068 53.1631H391.592V108.327H397.068V53.1631Z" fill="#605797"/>
<g opacity="0.2">
<path d="M397.068 53.1631H391.592V108.327H397.068V53.1631Z" fill="black"/>
</g>
<path d="M389.922 42.2656H384.447V108.328H389.922V42.2656Z" fill="#605797"/>
<g opacity="0.1">
<path d="M389.922 42.2656H384.447V108.328H389.922V42.2656Z" fill="black"/>
</g>
<path d="M345.377 79.3809H339.902V108.328H345.377V79.3809Z" fill="#605797"/>
<g opacity="0.2">
<path d="M345.377 79.3809H339.902V108.328H345.377V79.3809Z" fill="black"/>
</g>
<path d="M409.378 111.176H316.642V111.837H409.378V111.176Z" fill="#2F2E41"/>
<path d="M318.458 100.999H315.117V102.103H318.458V100.999Z" fill="#2F2E41"/>
<path d="M318.458 86.3389H315.117V87.4426H318.458V86.3389Z" fill="#2F2E41"/>
<path d="M318.458 58.7412H315.117V59.8449H318.458V58.7412Z" fill="#2F2E41"/>
<path d="M318.458 44.8818H315.117V45.9855H318.458V44.8818Z" fill="#2F2E41"/>
<path d="M318.63 72.54H315.29V73.6437H318.63V72.54Z" fill="#2F2E41"/>
<path d="M293.388 26.6943H195.144C193.515 26.6943 192.194 28.011 192.194 29.6353V52.8655C192.194 54.4898 193.515 55.8065 195.144 55.8065H293.388C295.017 55.8065 296.338 54.4898 296.338 52.8655V29.6353C296.338 28.011 295.017 26.6943 293.388 26.6943Z" fill="#B49662"/>
<path d="M214.143 46.1044C213.356 47.0805 212.297 47.8022 211.099 48.1781C209.901 48.5541 208.618 48.5674 207.412 48.2165C206.207 47.8656 205.133 47.1661 204.326 46.2066C203.519 45.2471 203.016 44.0705 202.879 42.8258C202.743 41.581 202.98 40.324 203.56 39.2135C204.141 38.103 205.038 37.1891 206.139 36.5871C207.241 35.9852 208.496 35.7224 209.747 35.8319C210.998 35.9414 212.189 36.4182 213.168 37.2022C214.473 38.2599 215.306 39.7874 215.489 41.4538C215.671 43.1202 215.187 44.7911 214.143 46.1044Z" fill="white"/>
<path d="M212.757 39.9912C211.738 41.3108 210.595 42.5302 209.343 43.6327L208.508 44.4324L208.335 44.5976L208.183 44.4324C207.234 43.5674 206.379 42.6061 205.631 41.5641C206.676 42.3102 207.64 43.1629 208.508 44.1085H208.183L209.012 43.289C210.154 42.0761 211.408 40.9721 212.757 39.9912Z" fill="#605797"/>
<path d="M342.501 54.8481H309.278C309.102 54.8481 308.933 54.7785 308.809 54.6546C308.685 54.5306 308.615 54.3625 308.615 54.1873C308.615 54.012 308.685 53.8439 308.809 53.7199C308.933 53.596 309.102 53.5264 309.278 53.5264H342.501C342.676 53.5264 342.845 53.596 342.969 53.7199C343.094 53.8439 343.164 54.012 343.164 54.1873C343.164 54.3625 343.094 54.5306 342.969 54.6546C342.845 54.7785 342.676 54.8481 342.501 54.8481Z" fill="white"/>
<path d="M385.647 142.753C379.966 136.527 371.925 146.507 368.306 150.683C365.323 154.133 352.092 169.069 352.092 169.069L332.683 151.754L322.913 163.24C322.913 163.24 346.186 190.112 352.337 192.458C361.207 195.855 373.715 173.107 382.478 164.965C391.241 156.823 389.2 146.639 385.647 142.746" fill="#605797"/>
<path d="M430.529 215.781C433.638 229.659 436.734 229.818 431.981 296.521C431.61 301.762 434.314 321.635 433.585 344.674C433.022 362.405 431.206 368.796 431.206 368.796H416.782C416.782 368.796 409.735 307.67 408.436 295.563C407.137 283.456 404.459 239.81 404.459 239.81H401.98C401.98 239.81 399.805 248.29 393.097 294.367C393.097 294.367 395.271 322.488 387.085 366.602H371.262C371.262 366.602 367.736 303.507 367.663 293.561C367.59 283.614 372.562 226.513 374.007 216.455C375.452 206.396 380.821 200.93 380.821 200.93L423.603 199.926C423.603 199.926 428.846 208.26 430.529 215.787" fill="#2F2E41"/>
<path d="M372.449 366.602C372.449 366.602 372.886 375.253 371.428 376.687C369.353 378.735 356.182 383.58 352.085 385.06C349.991 385.807 348.599 386.977 348.029 388.47C347.924 388.776 347.894 389.102 347.942 389.421C347.989 389.741 348.112 390.044 348.301 390.307C348.49 390.569 348.738 390.783 349.026 390.93C349.315 391.077 349.634 391.154 349.958 391.154H385.971C385.971 391.154 387.251 390.658 387.403 388.378C387.529 386.448 385.666 380.883 385.666 380.883C385.335 379.628 386.15 366.602 386.15 366.602H372.449Z" fill="#F9B499"/>
<path d="M372.449 366.602L385.959 369.952L386.157 366.602H372.449Z" fill="#F7A48B"/>
<path d="M386.667 384.189C386.667 384.189 386.442 385.973 383.744 385.973H361.352C361.352 385.973 356.54 384.843 359.423 382.378C359.423 382.378 354.193 383.197 350.746 385.259C348.685 386.495 346.875 386.938 347.094 391.155L347.14 392.053H387.469C387.469 392.053 388.795 386.898 386.667 384.189Z" fill="#605797"/>
<path d="M347.14 392.053L347.246 394.134H376.366L380.615 392.053L380.721 394.134H386.276C386.447 394.138 386.617 394.105 386.774 394.039C386.931 393.973 387.073 393.874 387.189 393.749C387.306 393.624 387.394 393.476 387.45 393.315C387.505 393.153 387.525 392.982 387.509 392.813L387.469 392.02L347.14 392.053Z" fill="#2F2E41"/>
<path d="M370.812 376.443C370.812 376.443 369.956 382.391 378.574 387.216" stroke="#605797" stroke-miterlimit="10"/>
<path d="M417.398 368.929C417.398 368.929 417.835 377.586 416.377 379.02C414.302 381.069 401.131 385.907 397.034 387.387C394.94 388.141 393.548 389.311 392.971 390.804C392.868 391.11 392.839 391.436 392.888 391.756C392.936 392.075 393.06 392.378 393.249 392.64C393.438 392.902 393.687 393.116 393.975 393.263C394.263 393.411 394.583 393.487 394.906 393.487H430.927C430.927 393.487 432.206 392.992 432.359 390.705C432.485 388.782 430.622 383.217 430.622 383.217C430.29 381.961 431.099 368.929 431.099 368.929H417.398Z" fill="#F9B499"/>
<path d="M417.398 368.936L430.907 372.286L431.1 368.936H417.398Z" fill="#F7A48B"/>
<path d="M431.616 386.523C431.616 386.523 431.391 388.307 428.693 388.307H406.295C406.295 388.307 401.489 387.177 404.372 384.712C404.372 384.712 399.136 385.531 395.689 387.593C393.634 388.823 391.824 389.272 392.036 393.488L392.083 394.387H432.419C432.419 394.387 433.744 389.232 431.616 386.523Z" fill="#605797"/>
<path d="M392.083 394.387L392.195 396.468H421.315L425.564 394.387L425.67 396.468H431.225C431.396 396.471 431.565 396.438 431.722 396.371C431.879 396.304 432.02 396.205 432.136 396.081C432.252 395.956 432.341 395.809 432.396 395.648C432.452 395.487 432.473 395.316 432.458 395.147L432.418 394.354L392.083 394.387Z" fill="#2F2E41"/>
<path d="M415.761 378.789C415.761 378.789 414.906 384.737 423.516 389.568" stroke="#605797" stroke-miterlimit="10"/>
<path d="M420.785 153.386C414.697 156.354 407.856 157.438 401.145 156.499C400.753 156.439 400.362 156.38 399.971 156.307C391.931 154.82 382.591 154.899 381.086 142.019C379.581 129.138 390.366 122.542 391.274 116.66C391.478 115.172 391.458 113.662 391.215 112.18C390.658 108.214 389.319 104.758 392.309 101.196C398.148 94.2364 404.114 94.5536 404.114 94.5536C404.114 94.5536 409.318 90.7139 415.562 95.3335C422.264 100.29 424.338 107.084 423.437 114.268C422.819 118.628 422.575 123.032 422.708 127.433C422.814 129.759 423.417 132.218 425.359 137.346C427.301 142.475 425.889 150.802 420.766 153.373" fill="#2F2E41"/>
<path opacity="0.2" d="M401.145 156.5C400.753 156.44 400.362 156.381 399.971 156.308C391.931 154.821 382.591 154.901 381.086 142.02C379.581 129.139 390.366 122.543 391.274 116.661C391.474 115.173 391.454 113.663 391.215 112.181C399.832 113.417 411.214 118.182 415.25 125.603C415.25 125.603 413.103 128.247 415.018 132.8C417.186 137.935 421.647 137.486 419.937 145.232C419.168 148.728 410.279 151.305 401.145 156.467" fill="black"/>
<path d="M395.795 127.949C395.795 127.949 396.909 132.357 395.358 135.575C393.806 138.794 391.877 139.825 391.877 139.825C391.877 139.825 395.225 145.991 403.663 145.826C412.102 145.66 414.799 139.329 414.799 139.329C414.799 139.329 412.38 138.833 411.333 135.688C410.285 132.542 410.975 126.792 410.975 126.792L395.795 127.949Z" fill="#F9B499"/>
<path d="M379.886 143.606C379.886 143.606 380.748 150.103 380.94 157.855C381.185 167.636 376.134 200.066 376.101 199.491C376.101 199.491 382.067 203.403 398.712 204.342C408.667 204.915 418.601 202.907 427.546 198.513C427.546 198.513 428.527 173.062 430.536 161.219C432.326 150.698 433.85 145.814 433.85 145.814L412.91 138.227L403.285 145.305L393.74 138.114L379.886 143.586V143.606Z" fill="#F4F4F4"/>
<path d="M396.173 131.823C396.173 131.823 395.51 138.141 401.158 138.141C406.805 138.141 410.756 131.32 410.756 131.32L396.173 131.823Z" fill="#F7A48B"/>
<path d="M391.062 111.269C391.062 111.269 392.01 122.504 392.52 125.438C393.031 128.372 396.749 135.411 401.489 136.012C406.228 136.614 412.261 131.089 414.083 128.247C415.906 125.405 417.345 117.058 417.743 113.906C418.14 110.753 416.94 98.8836 406.275 97.5684C395.609 96.2532 391.857 104.911 391.069 111.282" fill="#F9B499"/>
<path d="M389.696 138.954C388.357 143.684 387.469 148.53 387.045 153.427C385.56 171.271 387.482 202.61 387.416 217.679C387.35 232.747 386.945 243.87 386.945 243.87C386.945 243.87 370.659 243.387 369.85 234.485C369.041 225.583 375.325 207.448 376.074 199.458C376.446 195.46 379.263 142.37 379.263 141.154C385.275 139.463 385.421 139.786 389.67 138.94" fill="#605797"/>
<path d="M408.018 111.672C408.018 111.672 412.903 113.529 415.243 115.862C415.734 116.321 416.129 116.873 416.404 117.486C416.679 118.098 416.83 118.759 416.847 119.43L417.921 114.692C417.921 114.692 414.866 110.66 408.018 111.672Z" fill="#F7A48B"/>
<path d="M391.526 116.464C391.231 113.453 391.907 110.427 393.455 107.826C394.196 106.598 395.183 105.535 396.354 104.705C397.526 103.875 398.856 103.295 400.263 103.001L404.114 94.5486C404.114 94.5486 394.92 92.8831 390.273 99.5383C382.226 111.077 391.526 116.457 391.526 116.457" fill="#2F2E41"/>
<path d="M400.76 105.267C404.134 114.678 415.588 110.745 417.729 115.457C417.729 115.457 422.224 108.683 417.02 100.548C411.817 92.4122 404.114 94.5535 404.114 94.5535C404.114 94.5535 398.539 99.0872 400.76 105.267Z" fill="#2F2E41"/>
<path d="M387.218 202.134C387.218 202.134 391.401 204.374 402.159 204.374C412.917 204.374 422.708 199.655 422.708 199.655L422.416 204.804C422.416 204.804 414.303 208.941 402.471 208.941C390.638 208.941 386.973 206.555 386.973 206.555L387.218 202.16V202.134Z" fill="#C2C4C6"/>
<path d="M416.834 139.257C416.834 139.257 418.16 143.05 418.094 153.796C418.054 165.838 417.656 243.895 417.656 243.895C417.656 243.895 432.008 240.802 434.334 235.304C436.661 229.805 427.931 205.636 427.546 198.492C427.129 190.733 436.919 154.616 437.079 146.712C437.079 146.051 416.834 139.257 416.834 139.257Z" fill="#605797"/>
<path d="M394.317 137.374L401.409 143.91L395.291 148.536C395.291 148.536 390.061 139.509 394.317 137.387" fill="#C2C4C6"/>
<path d="M412.413 137.704L405.055 144.029L410.656 148.999C410.656 148.999 416.119 139.462 412.413 137.704Z" fill="#C2C4C6"/>
<path d="M403.285 145.324C403.285 145.324 402.165 195.585 402.165 204.408" stroke="#C2C4C6" stroke-width="0.5" stroke-miterlimit="10"/>
<path d="M331.543 153.096L324.006 146.633L317.749 153.096L324.105 161.84L331.543 153.096Z" fill="#F9B499"/>
<path d="M324.663 144.042C324.457 143.19 320.977 134.426 319.618 132.193C318.259 129.959 315.508 130.699 315.701 132.371C315.893 134.043 317.444 138.656 317.444 138.656C317.444 138.656 310.258 133.131 309.576 132.642C307.753 131.32 307.05 130.388 305.32 130.468C304.965 130.489 304.624 130.617 304.344 130.835C304.063 131.054 303.856 131.352 303.749 131.69C303.421 131.597 303.07 131.622 302.758 131.761C302.447 131.9 302.194 132.144 302.045 132.45C301.383 133.488 302.708 134.638 302.708 134.638C302.708 134.638 302.045 134.433 301.117 135.457C299.984 136.706 301.495 138.015 301.495 138.015C301.053 138.17 300.648 138.416 300.305 138.735C299.963 139.055 299.691 139.442 299.507 139.872C299.162 140.718 300.03 141.372 305.293 145.318C306.294 146.065 310.113 149.799 311.365 150.882C316.96 155.727 318.942 155.264 318.942 155.264C318.942 155.264 326.008 149.528 324.689 144.029" fill="#F9B499"/>
<path d="M303.775 131.689L314.262 139.389M302.715 134.637L312.393 141.808M301.508 138.014L310.066 144.26M316.887 140.294C316.586 141.357 316.599 142.483 316.924 143.538C317.25 144.594 317.875 145.533 318.723 146.242M314.746 139.177L309.443 145.667" stroke="#F7A48B" stroke-miterlimit="10"/>
<path d="M379.237 141.53C379.237 141.53 375.79 144.676 376.101 163.3" stroke="#605797" stroke-miterlimit="10"/>
<g opacity="0.2">
<path d="M375.77 163.34C375.458 144.782 378.865 141.452 379.011 141.319L379.462 141.802C379.462 141.835 376.147 145.219 376.433 163.327L375.77 163.34Z" fill="black"/>
</g>
<path d="M366.529 163.446L368.896 162.005L368.71 163.571L366.529 163.446Z" fill="#3F4347"/>
<path d="M396.418 200.674H374.152C373.733 200.673 373.328 200.518 373.015 200.239C372.702 199.96 372.503 199.576 372.455 199.16L368.167 163.294C368.146 163.117 368.163 162.938 368.217 162.768C368.271 162.599 368.361 162.443 368.48 162.31C368.599 162.178 368.745 162.072 368.908 162C369.071 161.928 369.248 161.891 369.426 161.893H391.692C392.112 161.892 392.518 162.046 392.831 162.325C393.144 162.605 393.343 162.99 393.389 163.406L397.678 199.272C397.697 199.449 397.679 199.628 397.625 199.797C397.57 199.966 397.481 200.122 397.362 200.254C397.243 200.386 397.098 200.492 396.935 200.564C396.772 200.636 396.596 200.674 396.418 200.674Z" fill="#3F4347"/>
<path d="M394.476 200.673H371.388C370.967 200.674 370.561 200.52 370.246 200.241C369.932 199.961 369.732 199.576 369.685 199.159L365.82 164.72C365.801 164.544 365.819 164.365 365.873 164.196C365.927 164.027 366.017 163.871 366.136 163.739C366.255 163.607 366.4 163.501 366.563 163.429C366.725 163.357 366.902 163.319 367.08 163.319H390.167C390.589 163.32 390.996 163.475 391.31 163.756C391.624 164.036 391.824 164.422 391.871 164.839L395.729 199.272C395.749 199.448 395.732 199.626 395.679 199.795C395.625 199.964 395.536 200.12 395.418 200.253C395.3 200.385 395.155 200.491 394.992 200.563C394.83 200.636 394.654 200.673 394.476 200.673Z" fill="#5D6166"/>
<path d="M383.764 181.997C383.764 181.408 383.588 180.831 383.26 180.341C382.931 179.851 382.465 179.469 381.918 179.243C381.372 179.018 380.771 178.959 380.191 179.074C379.611 179.189 379.078 179.473 378.66 179.89C378.242 180.306 377.957 180.838 377.842 181.416C377.727 181.994 377.786 182.593 378.012 183.138C378.239 183.682 378.622 184.148 379.113 184.475C379.605 184.803 380.183 184.978 380.774 184.978C381.567 184.978 382.328 184.664 382.888 184.105C383.449 183.546 383.764 182.788 383.764 181.997Z" stroke="#9EA0A3" stroke-miterlimit="10"/>
<path d="M369.532 166.248C369.532 166.427 369.479 166.602 369.379 166.751C369.279 166.9 369.137 167.016 368.971 167.085C368.806 167.153 368.623 167.171 368.447 167.136C368.271 167.101 368.109 167.015 367.982 166.888C367.855 166.762 367.768 166.6 367.733 166.425C367.698 166.249 367.716 166.067 367.785 165.902C367.854 165.736 367.97 165.595 368.119 165.495C368.269 165.396 368.444 165.343 368.624 165.343C368.743 165.343 368.861 165.366 368.971 165.412C369.082 165.457 369.182 165.524 369.266 165.608C369.35 165.692 369.417 165.792 369.463 165.902C369.509 166.012 369.532 166.129 369.532 166.248Z" fill="#3F4347"/>
<path d="M400.985 200.792C399.734 200.974 398.457 200.828 397.28 200.369C395.742 199.609 395.702 198.757 394.323 198.387C393.057 198.07 390.631 198.526 389.683 198.387C389.44 198.375 389.201 198.313 388.983 198.205C388.765 198.097 388.572 197.945 388.415 197.759C388.259 197.573 388.143 197.356 388.075 197.123C388.007 196.89 387.988 196.645 388.019 196.404C387.681 196.21 387.414 195.912 387.26 195.555C387.106 195.197 387.072 194.8 387.164 194.421C386.733 194.421 385.925 193.761 386.561 192.538C386.727 192.214 386.17 192.326 386.11 191.428C386.031 190.106 388.543 188.943 388.543 188.943C387.052 189.194 386.428 187.872 386.766 187.317C387.105 186.762 390.286 184.673 390.711 184.64C391.135 184.607 393.495 184.64 394.396 185.083C395.298 185.526 397.71 187.786 397.71 187.786L404.836 192.967C404.836 192.967 404.836 199.041 400.978 200.806" fill="#F9B499"/>
<path d="M393.369 195.624C393.369 195.624 389.763 195.492 388.066 196.391M392.925 193.087C392.925 193.087 388.769 192.802 387.211 194.408M392.514 190.357C392.514 190.357 387.741 190.608 386.462 192.789M388.616 188.93C388.616 188.93 390.605 187.667 390.757 187.608C391.378 187.595 391.999 187.633 392.613 187.72" stroke="#F7A48B" stroke-miterlimit="10"/>
<path d="M404.85 192.954L411.293 194.897L407.137 204.064L401.217 200.68C401.217 200.68 399.494 194.329 404.85 192.954Z" fill="#F9B499"/>
<path d="M433.612 146.156C443.687 146.229 442.613 157.101 442.753 161.687C442.892 166.274 444.456 207.527 435.461 212.219C426.466 216.911 406.958 204.949 406.958 204.949L410.066 193.926L423.324 195.168C423.324 195.168 424.265 169.962 424.921 162.784C425.578 155.607 427.069 146.104 433.612 146.156Z" fill="#605797"/>
<path d="M408.324 194.005L407.13 204.064L409.888 194.474L408.324 194.005Z" fill="#F7A48B"/>
<path d="M437.079 146.711C437.079 146.711 431.113 146.711 429.33 151.337C427.547 155.963 424.942 195.617 424.942 195.617M410.053 193.905L430.211 196.383M406.938 204.922C406.938 204.922 419.301 213.091 431.013 213.289" stroke="#605797" stroke-miterlimit="10"/>
<g opacity="0.2">
<path d="M431.046 213.627C419.373 213.429 406.925 205.287 406.799 205.208C406.725 205.158 406.675 205.082 406.657 204.995C406.64 204.909 406.657 204.819 406.706 204.745C406.754 204.673 406.83 204.622 406.915 204.605C407.001 204.588 407.09 204.605 407.163 204.653C407.289 204.732 419.579 212.768 431.06 212.967C431.146 212.972 431.228 213.009 431.288 213.072C431.349 213.134 431.383 213.217 431.384 213.304C431.384 213.347 431.374 213.39 431.357 213.43C431.339 213.469 431.314 213.505 431.283 213.535C431.251 213.565 431.214 213.589 431.174 213.605C431.133 213.621 431.09 213.628 431.046 213.627ZM430.244 196.722H430.198L410.04 194.237C409.997 194.232 409.955 194.219 409.917 194.197C409.878 194.176 409.845 194.147 409.819 194.112C409.792 194.078 409.773 194.038 409.762 193.996C409.751 193.954 409.748 193.91 409.755 193.867C409.767 193.78 409.812 193.702 409.882 193.648C409.951 193.595 410.039 193.571 410.126 193.583L424.656 195.374C424.902 191.805 427.348 155.72 429.051 151.207C430.867 146.435 437.006 146.389 437.118 146.389C437.162 146.39 437.205 146.399 437.245 146.416C437.284 146.434 437.321 146.459 437.351 146.49C437.381 146.521 437.405 146.558 437.42 146.599C437.436 146.639 437.444 146.682 437.443 146.726C437.443 146.769 437.434 146.811 437.418 146.851C437.401 146.891 437.376 146.927 437.346 146.957C437.315 146.987 437.278 147.011 437.238 147.027C437.198 147.043 437.155 147.05 437.112 147.05C437.039 147.05 431.325 147.096 429.674 151.438C428.024 155.78 425.518 192.413 425.319 195.453L430.284 196.068C430.328 196.07 430.37 196.081 430.409 196.1C430.449 196.119 430.484 196.146 430.513 196.178C430.542 196.211 430.564 196.249 430.578 196.29C430.592 196.331 430.598 196.375 430.596 196.418C430.593 196.461 430.582 196.504 430.563 196.543C430.544 196.582 430.517 196.617 430.484 196.646C430.452 196.675 430.414 196.697 430.373 196.711C430.331 196.725 430.288 196.731 430.244 196.729V196.722Z" fill="black"/>
</g>
<path d="M112.411 138.081H3.01129C1.38218 138.081 0.0615234 139.398 0.0615234 141.022V167.372C0.0615234 168.996 1.38218 170.313 3.01129 170.313H112.411C114.04 170.313 115.361 168.996 115.361 167.372V141.022C115.361 139.398 114.04 138.081 112.411 138.081Z" fill="#E6E6E6"/>
<path d="M24.3623 159.539C23.4931 160.621 22.3219 161.42 20.9967 161.838C19.6715 162.255 18.252 162.271 16.9176 161.884C15.5831 161.497 14.3938 160.725 13.4999 159.664C12.606 158.603 12.0477 157.301 11.8957 155.924C11.7437 154.547 12.0047 153.156 12.6457 151.926C13.2868 150.697 14.2791 149.685 15.4971 149.018C16.7152 148.351 18.1043 148.059 19.4888 148.179C20.8733 148.299 22.191 148.825 23.2752 149.692C24.7277 150.852 25.6588 152.539 25.8639 154.383C26.069 156.227 25.5313 158.077 24.369 159.526L24.3623 159.539Z" fill="white"/>
<path d="M22.8376 152.765C21.6818 154.21 20.4069 155.556 19.0262 156.789L18.1114 157.701L17.9457 157.867L17.78 157.701C16.7351 156.741 15.7851 155.683 14.9429 154.542C16.089 155.383 17.1502 156.332 18.1114 157.378H17.7932L18.708 156.466C19.9754 155.116 21.3571 153.878 22.8376 152.765Z" fill="#2F2E41"/>
<path d="M98.2457 151.483H30.2816C30.1937 151.483 30.1094 151.448 30.0473 151.386C29.9851 151.324 29.9502 151.24 29.9502 151.153C29.9502 151.065 29.9851 150.981 30.0473 150.919C30.1094 150.857 30.1937 150.822 30.2816 150.822H98.2457C98.3336 150.822 98.4179 150.857 98.48 150.919C98.5422 150.981 98.5771 151.065 98.5771 151.153C98.5771 151.24 98.5422 151.324 98.48 151.386C98.4179 151.448 98.3336 151.483 98.2457 151.483Z" fill="#2F2E41"/>
<path d="M79.0954 157.563H30.2816C30.1937 157.563 30.1094 157.528 30.0473 157.466C29.9851 157.404 29.9502 157.32 29.9502 157.233C29.9502 157.145 29.9851 157.061 30.0473 156.999C30.1094 156.937 30.1937 156.902 30.2816 156.902H79.0954C79.1833 156.902 79.2676 156.937 79.3297 156.999C79.3919 157.061 79.4268 157.145 79.4268 157.233C79.4268 157.32 79.3919 157.404 79.3297 157.466C79.2676 157.528 79.1833 157.563 79.0954 157.563Z" fill="#2F2E41"/>
<path d="M222.315 38.207H290.28" stroke="white" stroke-linecap="round" stroke-linejoin="round"/>
<path d="M222.315 44.2871H271.129" stroke="white" stroke-linecap="round" stroke-linejoin="round"/>
<path d="M345.41 249.837H223.17V161.84H223.833V249.176H345.41V249.837Z" fill="#2F2E41"/>
</g>
<defs>
<clipPath id="clip0_1008_1054">
<rect width="443" height="396" fill="white"/>
</clipPath>
</defs>
</svg>
