<svg width="490" height="386" viewBox="0 0 490 386" fill="none" xmlns="http://www.w3.org/2000/svg">
<path d="M246.057 198.22V189.492H249.006C249.69 189.492 250.25 189.616 250.685 189.863C251.122 190.108 251.446 190.438 251.656 190.856C251.866 191.274 251.972 191.74 251.972 192.254C251.972 192.768 251.866 193.235 251.656 193.656C251.449 194.076 251.128 194.411 250.693 194.661C250.259 194.909 249.702 195.032 249.023 195.032H246.909V194.095H248.989C249.457 194.095 249.834 194.014 250.118 193.852C250.402 193.69 250.608 193.471 250.736 193.196C250.866 192.917 250.932 192.603 250.932 192.254C250.932 191.904 250.866 191.592 250.736 191.316C250.608 191.041 250.401 190.825 250.114 190.669C249.827 190.509 249.446 190.43 248.972 190.43H247.114V198.22H246.057ZM256.126 198.356C255.536 198.356 255.017 198.215 254.571 197.934C254.128 197.653 253.781 197.259 253.531 196.754C253.284 196.248 253.161 195.657 253.161 194.981C253.161 194.299 253.284 193.704 253.531 193.196C253.781 192.687 254.128 192.292 254.571 192.011C255.017 191.73 255.536 191.589 256.126 191.589C256.717 191.589 257.234 191.73 257.678 192.011C258.124 192.292 258.47 192.687 258.717 193.196C258.967 193.704 259.092 194.299 259.092 194.981C259.092 195.657 258.967 196.248 258.717 196.754C258.47 197.259 258.124 197.653 257.678 197.934C257.234 198.215 256.717 198.356 256.126 198.356ZM256.126 197.453C256.575 197.453 256.945 197.338 257.234 197.108C257.524 196.877 257.739 196.575 257.878 196.2C258.017 195.825 258.087 195.419 258.087 194.981C258.087 194.544 258.017 194.136 257.878 193.758C257.739 193.38 257.524 193.075 257.234 192.842C256.945 192.609 256.575 192.492 256.126 192.492C255.678 192.492 255.308 192.609 255.018 192.842C254.729 193.075 254.514 193.38 254.375 193.758C254.236 194.136 254.166 194.544 254.166 194.981C254.166 195.419 254.236 195.825 254.375 196.2C254.514 196.575 254.729 196.877 255.018 197.108C255.308 197.338 255.678 197.453 256.126 197.453ZM260.627 198.22V191.674H261.599V192.697H261.684C261.821 192.348 262.041 192.076 262.345 191.883C262.649 191.687 263.014 191.589 263.44 191.589C263.872 191.589 264.231 191.687 264.518 191.883C264.808 192.076 265.034 192.348 265.196 192.697H265.264C265.431 192.359 265.683 192.09 266.018 191.892C266.353 191.69 266.755 191.589 267.224 191.589C267.809 191.589 268.288 191.772 268.66 192.139C269.032 192.502 269.218 193.069 269.218 193.839V198.22H268.213V193.839C268.213 193.356 268.081 193.011 267.816 192.804C267.552 192.596 267.241 192.492 266.883 192.492C266.423 192.492 266.066 192.632 265.814 192.91C265.561 193.186 265.434 193.535 265.434 193.958V198.22H264.412V193.737C264.412 193.365 264.291 193.065 264.049 192.838C263.808 192.608 263.497 192.492 263.116 192.492C262.855 192.492 262.61 192.562 262.383 192.701C262.159 192.84 261.977 193.034 261.838 193.281C261.701 193.525 261.633 193.808 261.633 194.129V198.22H260.627ZM273.716 198.356C273.125 198.356 272.607 198.215 272.161 197.934C271.718 197.653 271.371 197.259 271.121 196.754C270.874 196.248 270.75 195.657 270.75 194.981C270.75 194.299 270.874 193.704 271.121 193.196C271.371 192.687 271.718 192.292 272.161 192.011C272.607 191.73 273.125 191.589 273.716 191.589C274.307 191.589 274.824 191.73 275.267 192.011C275.713 192.292 276.06 192.687 276.307 193.196C276.557 193.704 276.682 194.299 276.682 194.981C276.682 195.657 276.557 196.248 276.307 196.754C276.06 197.259 275.713 197.653 275.267 197.934C274.824 198.215 274.307 198.356 273.716 198.356ZM273.716 197.453C274.165 197.453 274.534 197.338 274.824 197.108C275.114 196.877 275.328 196.575 275.468 196.2C275.607 195.825 275.676 195.419 275.676 194.981C275.676 194.544 275.607 194.136 275.468 193.758C275.328 193.38 275.114 193.075 274.824 192.842C274.534 192.609 274.165 192.492 273.716 192.492C273.267 192.492 272.898 192.609 272.608 192.842C272.319 193.075 272.104 193.38 271.965 193.758C271.826 194.136 271.756 194.544 271.756 194.981C271.756 195.419 271.826 195.825 271.965 196.2C272.104 196.575 272.319 196.877 272.608 197.108C272.898 197.338 273.267 197.453 273.716 197.453ZM280.689 198.356C280.143 198.356 279.662 198.218 279.244 197.943C278.827 197.664 278.5 197.272 278.264 196.767C278.028 196.258 277.911 195.657 277.911 194.964C277.911 194.277 278.028 193.68 278.264 193.174C278.5 192.669 278.828 192.278 279.249 192.002C279.669 191.727 280.155 191.589 280.706 191.589C281.132 191.589 281.469 191.66 281.716 191.802C281.966 191.941 282.156 192.1 282.287 192.279C282.42 192.456 282.524 192.6 282.598 192.714H282.683V189.492H283.689V198.22H282.717V197.214H282.598C282.524 197.333 282.419 197.484 282.283 197.666C282.146 197.845 281.952 198.005 281.699 198.147C281.446 198.286 281.109 198.356 280.689 198.356ZM280.825 197.453C281.229 197.453 281.57 197.348 281.848 197.137C282.126 196.924 282.338 196.63 282.483 196.255C282.628 195.877 282.7 195.441 282.7 194.947C282.7 194.458 282.629 194.031 282.487 193.664C282.345 193.295 282.135 193.008 281.857 192.804C281.578 192.596 281.234 192.492 280.825 192.492C280.399 192.492 280.044 192.602 279.76 192.821C279.479 193.036 279.267 193.331 279.125 193.703C278.986 194.072 278.916 194.487 278.916 194.947C278.916 195.413 278.987 195.836 279.129 196.217C279.274 196.595 279.487 196.896 279.768 197.12C280.053 197.342 280.405 197.453 280.825 197.453ZM288.33 198.356C287.739 198.356 287.22 198.215 286.774 197.934C286.331 197.653 285.984 197.259 285.734 196.754C285.487 196.248 285.364 195.657 285.364 194.981C285.364 194.299 285.487 193.704 285.734 193.196C285.984 192.687 286.331 192.292 286.774 192.011C287.22 191.73 287.739 191.589 288.33 191.589C288.92 191.589 289.438 191.73 289.881 192.011C290.327 192.292 290.673 192.687 290.92 193.196C291.17 193.704 291.295 194.299 291.295 194.981C291.295 195.657 291.17 196.248 290.92 196.754C290.673 197.259 290.327 197.653 289.881 197.934C289.438 198.215 288.92 198.356 288.33 198.356ZM288.33 197.453C288.778 197.453 289.148 197.338 289.438 197.108C289.727 196.877 289.942 196.575 290.081 196.2C290.22 195.825 290.29 195.419 290.29 194.981C290.29 194.544 290.22 194.136 290.081 193.758C289.942 193.38 289.727 193.075 289.438 192.842C289.148 192.609 288.778 192.492 288.33 192.492C287.881 192.492 287.511 192.609 287.222 192.842C286.932 193.075 286.717 193.38 286.578 193.758C286.439 194.136 286.369 194.544 286.369 194.981C286.369 195.419 286.439 195.825 286.578 196.2C286.717 196.575 286.932 196.877 287.222 197.108C287.511 197.338 287.881 197.453 288.33 197.453ZM292.831 198.22V191.674H293.802V192.663H293.87C293.99 192.339 294.206 192.076 294.518 191.875C294.831 191.673 295.183 191.572 295.575 191.572C295.649 191.572 295.741 191.573 295.852 191.576C295.963 191.579 296.047 191.583 296.103 191.589V192.612C296.069 192.603 295.991 192.59 295.869 192.573C295.75 192.554 295.623 192.544 295.49 192.544C295.172 192.544 294.887 192.61 294.637 192.744C294.39 192.875 294.194 193.056 294.049 193.289C293.907 193.519 293.836 193.782 293.836 194.078V198.22H292.831ZM299.755 198.356C299.164 198.356 298.646 198.215 298.2 197.934C297.757 197.653 297.41 197.259 297.16 196.754C296.913 196.248 296.789 195.657 296.789 194.981C296.789 194.299 296.913 193.704 297.16 193.196C297.41 192.687 297.757 192.292 298.2 192.011C298.646 191.73 299.164 191.589 299.755 191.589C300.346 191.589 300.863 191.73 301.306 192.011C301.752 192.292 302.099 192.687 302.346 193.196C302.596 193.704 302.721 194.299 302.721 194.981C302.721 195.657 302.596 196.248 302.346 196.754C302.099 197.259 301.752 197.653 301.306 197.934C300.863 198.215 300.346 198.356 299.755 198.356ZM299.755 197.453C300.204 197.453 300.574 197.338 300.863 197.108C301.153 196.877 301.368 196.575 301.507 196.2C301.646 195.825 301.716 195.419 301.716 194.981C301.716 194.544 301.646 194.136 301.507 193.758C301.368 193.38 301.153 193.075 300.863 192.842C300.574 192.609 300.204 192.492 299.755 192.492C299.306 192.492 298.937 192.609 298.647 192.842C298.358 193.075 298.143 193.38 298.004 193.758C297.865 194.136 297.795 194.544 297.795 194.981C297.795 195.419 297.865 195.825 298.004 196.2C298.143 196.575 298.358 196.877 298.647 197.108C298.937 197.338 299.306 197.453 299.755 197.453ZM248.767 206.674V207.527H245.375V206.674H248.767ZM246.364 205.106H247.369V211.345C247.369 211.629 247.411 211.842 247.493 211.984C247.578 212.123 247.686 212.217 247.817 212.265C247.95 212.311 248.091 212.333 248.239 212.333C248.349 212.333 248.44 212.328 248.511 212.316C248.582 212.302 248.639 212.291 248.682 212.282L248.886 213.186C248.818 213.211 248.723 213.237 248.601 213.262C248.479 213.291 248.324 213.305 248.136 213.305C247.852 213.305 247.574 213.244 247.301 213.122C247.031 213 246.807 212.813 246.628 212.563C246.452 212.313 246.364 211.998 246.364 211.617V205.106ZM252.954 213.356C252.323 213.356 251.779 213.217 251.322 212.938C250.867 212.657 250.516 212.265 250.269 211.762C250.025 211.257 249.903 210.669 249.903 209.998C249.903 209.328 250.025 208.737 250.269 208.225C250.516 207.711 250.86 207.311 251.3 207.024C251.744 206.734 252.261 206.589 252.852 206.589C253.192 206.589 253.529 206.646 253.862 206.759C254.194 206.873 254.496 207.058 254.769 207.313C255.042 207.566 255.259 207.902 255.421 208.319C255.583 208.737 255.664 209.251 255.664 209.862V210.288H250.619V209.419H254.641C254.641 209.049 254.567 208.72 254.42 208.43C254.275 208.14 254.067 207.911 253.798 207.744C253.531 207.576 253.215 207.492 252.852 207.492C252.451 207.492 252.104 207.592 251.812 207.791C251.522 207.987 251.299 208.242 251.143 208.558C250.987 208.873 250.908 209.211 250.908 209.572V210.152C250.908 210.646 250.994 211.065 251.164 211.409C251.337 211.75 251.577 212.009 251.884 212.188C252.191 212.365 252.548 212.453 252.954 212.453C253.218 212.453 253.457 212.416 253.67 212.342C253.886 212.265 254.072 212.152 254.228 212.001C254.384 211.848 254.505 211.657 254.59 211.43L255.562 211.703C255.46 212.032 255.288 212.322 255.046 212.572C254.805 212.819 254.506 213.012 254.151 213.152C253.796 213.288 253.397 213.356 252.954 213.356ZM259.853 213.356C259.239 213.356 258.711 213.211 258.268 212.921C257.825 212.632 257.484 212.233 257.245 211.724C257.006 211.215 256.887 210.634 256.887 209.981C256.887 209.316 257.009 208.73 257.254 208.221C257.501 207.71 257.844 207.311 258.285 207.024C258.728 206.734 259.245 206.589 259.836 206.589C260.296 206.589 260.711 206.674 261.08 206.845C261.45 207.015 261.752 207.254 261.988 207.561C262.224 207.867 262.37 208.225 262.427 208.634H261.421C261.344 208.336 261.174 208.072 260.91 207.842C260.648 207.609 260.296 207.492 259.853 207.492C259.461 207.492 259.117 207.595 258.822 207.799C258.529 208.001 258.3 208.286 258.136 208.656C257.974 209.022 257.893 209.453 257.893 209.947C257.893 210.453 257.972 210.893 258.131 211.268C258.293 211.643 258.521 211.934 258.813 212.142C259.109 212.349 259.455 212.453 259.853 212.453C260.114 212.453 260.352 212.407 260.565 212.316C260.778 212.225 260.958 212.095 261.106 211.924C261.254 211.754 261.359 211.549 261.421 211.311H262.427C262.37 211.697 262.229 212.045 262.005 212.355C261.783 212.661 261.489 212.906 261.123 213.088C260.759 213.267 260.336 213.356 259.853 213.356ZM264.903 209.282V213.22H263.897V204.492H264.903V207.697H264.988C265.141 207.359 265.371 207.09 265.678 206.892C265.988 206.69 266.4 206.589 266.914 206.589C267.36 206.589 267.751 206.679 268.086 206.858C268.421 207.034 268.681 207.305 268.866 207.671C269.053 208.035 269.147 208.498 269.147 209.061V213.22H268.141V209.129C268.141 208.609 268.006 208.207 267.737 207.923C267.469 207.636 267.099 207.492 266.624 207.492C266.295 207.492 265.999 207.562 265.738 207.701C265.479 207.84 265.275 208.044 265.124 208.311C264.977 208.578 264.903 208.902 264.903 209.282ZM271.993 209.282V213.22H270.987V206.674H271.958V207.697H272.044C272.197 207.365 272.43 207.098 272.743 206.896C273.055 206.691 273.458 206.589 273.953 206.589C274.396 206.589 274.784 206.68 275.116 206.862C275.449 207.041 275.707 207.313 275.892 207.68C276.076 208.044 276.169 208.504 276.169 209.061V213.22H275.163V209.129C275.163 208.615 275.029 208.214 274.762 207.927C274.495 207.637 274.129 207.492 273.663 207.492C273.342 207.492 273.055 207.562 272.802 207.701C272.552 207.84 272.355 208.044 272.21 208.311C272.065 208.578 271.993 208.902 271.993 209.282ZM278.006 213.22V206.674H279.012V213.22H278.006ZM278.518 205.583C278.322 205.583 278.153 205.517 278.011 205.383C277.871 205.25 277.802 205.089 277.802 204.902C277.802 204.714 277.871 204.554 278.011 204.42C278.153 204.286 278.322 204.22 278.518 204.22C278.714 204.22 278.881 204.286 279.021 204.42C279.163 204.554 279.234 204.714 279.234 204.902C279.234 205.089 279.163 205.25 279.021 205.383C278.881 205.517 278.714 205.583 278.518 205.583ZM285.32 215.674V212.214H285.235C285.161 212.333 285.056 212.484 284.919 212.666C284.783 212.845 284.588 213.005 284.336 213.147C284.083 213.286 283.746 213.356 283.326 213.356C282.78 213.356 282.299 213.218 281.881 212.943C281.463 212.664 281.137 212.272 280.901 211.767C280.665 211.258 280.547 210.657 280.547 209.964C280.547 209.277 280.665 208.68 280.901 208.174C281.137 207.669 281.465 207.278 281.885 207.002C282.306 206.727 282.792 206.589 283.343 206.589C283.769 206.589 284.105 206.66 284.353 206.802C284.603 206.941 284.793 207.1 284.924 207.279C285.057 207.456 285.161 207.6 285.235 207.714H285.354V206.674H286.326V215.674H285.32ZM283.462 212.453C283.865 212.453 284.206 212.348 284.485 212.137C284.763 211.924 284.975 211.63 285.12 211.255C285.265 210.877 285.337 210.441 285.337 209.947C285.337 209.458 285.266 209.031 285.124 208.664C284.982 208.295 284.772 208.008 284.493 207.804C284.215 207.596 283.871 207.492 283.462 207.492C283.036 207.492 282.681 207.602 282.397 207.821C282.115 208.036 281.904 208.331 281.762 208.703C281.623 209.072 281.553 209.487 281.553 209.947C281.553 210.413 281.624 210.836 281.766 211.217C281.911 211.595 282.124 211.896 282.405 212.12C282.689 212.342 283.042 212.453 283.462 212.453ZM292.292 210.544V206.674H293.297V213.22H292.292V212.112H292.223C292.07 212.444 291.831 212.727 291.507 212.96C291.184 213.19 290.775 213.305 290.28 213.305C289.871 213.305 289.507 213.215 289.189 213.036C288.871 212.855 288.621 212.582 288.439 212.218C288.257 211.852 288.167 211.39 288.167 210.833V206.674H289.172V210.765C289.172 211.242 289.306 211.623 289.573 211.907C289.843 212.191 290.186 212.333 290.604 212.333C290.854 212.333 291.108 212.269 291.367 212.142C291.628 212.014 291.847 211.818 292.023 211.554C292.202 211.289 292.292 210.953 292.292 210.544ZM297.884 213.356C297.253 213.356 296.709 213.217 296.251 212.938C295.797 212.657 295.446 212.265 295.199 211.762C294.955 211.257 294.832 210.669 294.832 209.998C294.832 209.328 294.955 208.737 295.199 208.225C295.446 207.711 295.79 207.311 296.23 207.024C296.673 206.734 297.19 206.589 297.781 206.589C298.122 206.589 298.459 206.646 298.791 206.759C299.124 206.873 299.426 207.058 299.699 207.313C299.972 207.566 300.189 207.902 300.351 208.319C300.513 208.737 300.594 209.251 300.594 209.862V210.288H295.548V209.419H299.571C299.571 209.049 299.497 208.72 299.349 208.43C299.205 208.14 298.997 207.911 298.727 207.744C298.46 207.576 298.145 207.492 297.781 207.492C297.381 207.492 297.034 207.592 296.741 207.791C296.452 207.987 296.229 208.242 296.072 208.558C295.916 208.873 295.838 209.211 295.838 209.572V210.152C295.838 210.646 295.923 211.065 296.094 211.409C296.267 211.75 296.507 212.009 296.814 212.188C297.121 212.365 297.477 212.453 297.884 212.453C298.148 212.453 298.386 212.416 298.599 212.342C298.815 212.265 299.001 212.152 299.158 212.001C299.314 211.848 299.435 211.657 299.52 211.43L300.491 211.703C300.389 212.032 300.217 212.322 299.976 212.572C299.734 212.819 299.436 213.012 299.081 213.152C298.726 213.288 298.327 213.356 297.884 213.356Z" fill="black"/>
<path d="M59.6936 269.583C59.6936 269.583 6.49176 219.434 35.7188 152.854C43.8406 134.348 56.9712 118.487 73.311 106.572C109.896 79.8977 202.478 27.1321 341.742 47.4809C356.702 49.6139 371.014 54.9825 383.681 63.2117C404.107 76.6193 425.79 101.219 416.559 143.369C413.305 158.263 414.04 173.802 419.389 188.08C424.709 202.211 434.783 219.553 453.545 238.291C453.545 238.291 493.526 276.857 454.632 310.235C446.333 317.298 436.516 322.356 425.943 325.016C377.456 337.401 181.384 378.556 59.6936 269.583Z" fill="#2F246E"/>
<path opacity="0.7" d="M59.6936 269.583C59.6936 269.583 6.49176 219.434 35.7188 152.854C43.8406 134.348 56.9712 118.487 73.311 106.572C109.896 79.8977 202.478 27.1321 341.742 47.4809C356.702 49.6139 371.014 54.9825 383.681 63.2117C404.107 76.6193 425.79 101.219 416.559 143.369C413.305 158.263 414.04 173.802 419.389 188.08C424.709 202.211 434.783 219.553 453.545 238.291C453.545 238.291 493.526 276.857 454.632 310.235C446.333 317.298 436.516 322.356 425.943 325.016C377.456 337.401 181.384 378.556 59.6936 269.583Z" fill="white"/>
<path d="M156.04 328.187H466.851V335.116C466.854 336.164 466.65 337.202 466.251 338.171C465.851 339.14 465.264 340.021 464.524 340.763C463.783 341.505 462.903 342.093 461.934 342.495C460.965 342.897 459.926 343.103 458.877 343.103H156.04V328.187Z" fill="#909091"/>
<path d="M228.988 77.1328H410.209C419.709 77.1328 428.82 80.9019 435.538 87.6109C442.255 94.3199 446.029 103.419 446.029 112.907V334.059H193.162V112.913C193.162 103.425 196.936 94.3255 203.654 87.6165C210.371 80.9075 219.483 77.1385 228.983 77.1385L228.988 77.1328Z" fill="#CCCCCC"/>
<path d="M239.159 77.1328H414.38C424.676 77.1328 434.55 81.2175 441.83 88.4883C449.11 95.7591 453.2 105.62 453.2 115.903V334.059H200.356V115.875C200.363 105.6 204.454 95.7485 211.73 88.4843C219.006 81.2201 228.871 77.1373 239.159 77.1328Z" fill="#E6E6E6"/>
<path d="M411.657 244.898L393.308 325.473H348.958L353.95 234.904H403.677C403.828 234.904 403.981 234.904 404.136 234.904C405.326 234.97 406.488 235.295 407.539 235.857C408.591 236.418 409.507 237.202 410.224 238.154C410.94 239.106 411.44 240.203 411.687 241.368C411.935 242.532 411.925 243.737 411.657 244.898Z" fill="#3F4347"/>
<path d="M411.658 244.898L393.309 325.474H377.116L396.982 241.252C397.38 239.518 398.324 237.957 399.676 236.798C400.932 235.729 402.492 235.081 404.136 234.944C405.322 235.011 406.48 235.336 407.528 235.895C408.576 236.454 409.49 237.234 410.206 238.181C410.922 239.128 411.422 240.22 411.673 241.38C411.924 242.54 411.919 243.741 411.658 244.898Z" fill="#2E3135"/>
<path d="M348.958 325.474H369.968C369.968 325.474 374.739 296.081 368.49 282.583L348.958 325.474Z" fill="#2E3135"/>
<path d="M297.76 120.465H314.66" stroke="#CCCCCC" stroke-width="4" stroke-miterlimit="10"/>
<path d="M297.653 131.883H314.553" stroke="#CCCCCC" stroke-width="4" stroke-miterlimit="10"/>
<path d="M298.009 153.3H314.909" stroke="#CCCCCC" stroke-width="4" stroke-miterlimit="10"/>
<path d="M244.123 179.098C244.123 179.098 236.907 191.618 232.05 216.099C232.05 216.099 227.115 243.162 225.876 267.485C225.876 267.485 222.717 312.586 222.57 318.538V325.773H264.311L268.273 323.218L270.333 297.692L270.763 243.049C270.763 243.049 270.356 212.215 277.764 187.791L264.311 185.784L253.558 182.732L244.123 179.098Z" fill="#E6E6E6"/>
<path d="M231.937 145.268C231.937 145.268 208.5 169.008 221.993 186.757C221.993 186.757 235.707 176.757 246.896 174.095C246.709 173.131 246.573 172.157 246.488 171.178V160.784C246.488 160.784 236.94 159.082 231.937 145.268Z" fill="#2F2E41"/>
<path d="M224.161 126.74L232.299 124.394C232.393 124.368 232.491 124.362 232.587 124.378C232.683 124.393 232.775 124.428 232.856 124.482C232.937 124.535 233.005 124.606 233.057 124.688C233.108 124.77 233.141 124.863 233.154 124.959C233.18 125.123 233.146 125.291 233.057 125.431C232.969 125.571 232.832 125.675 232.673 125.722L224.381 128.102L224.161 126.74Z" fill="#2F246E"/>
<path d="M231.864 140.396C236.177 140.396 239.674 136.855 239.674 132.488C239.674 128.121 236.177 124.58 231.864 124.58C227.55 124.58 224.053 128.121 224.053 132.488C224.053 136.855 227.55 140.396 231.864 140.396Z" fill="#F29681"/>
<path d="M277.951 133.02V170.326C277.951 174.419 276.351 178.35 273.492 181.283C270.633 184.216 266.741 185.918 262.644 186.028C258.547 186.138 254.569 184.646 251.557 181.871C248.545 179.095 246.736 175.255 246.517 171.168C246.517 170.891 246.517 170.603 246.517 170.326V133.02H277.951Z" fill="#F9B499"/>
<path d="M271.272 152.231C264.583 171.761 248.775 171.359 246.517 171.195C246.517 170.918 246.517 170.63 246.517 170.353V157.302L271.272 152.231Z" fill="#F29681"/>
<g opacity="0.2">
<path d="M227.234 183.337C227.214 183.338 227.195 183.333 227.178 183.323C227.161 183.313 227.147 183.298 227.138 183.281C225.886 180.89 225.132 178.272 224.919 175.582C224.742 173.335 224.897 171.075 225.377 168.873C225.843 166.59 226.634 164.386 227.726 162.327C227.733 162.315 227.742 162.305 227.753 162.297C227.763 162.288 227.776 162.282 227.789 162.278C227.802 162.275 227.816 162.274 227.829 162.275C227.843 162.277 227.856 162.281 227.868 162.288C227.88 162.294 227.89 162.303 227.899 162.314C227.907 162.325 227.913 162.337 227.917 162.35C227.921 162.363 227.922 162.377 227.92 162.391C227.918 162.404 227.914 162.417 227.907 162.429C226.832 164.475 226.049 166.661 225.581 168.924C224.486 173.736 225.104 178.779 227.33 183.185C227.342 183.21 227.344 183.238 227.336 183.265C227.327 183.291 227.309 183.313 227.285 183.326C227.269 183.335 227.252 183.339 227.234 183.337Z" fill="black"/>
</g>
<path d="M214.324 188.368C214.302 188.369 214.28 188.363 214.262 188.351C214.243 188.339 214.229 188.321 214.222 188.3C214.222 188.238 212.032 182.111 213.09 173.604C213.725 168.578 215.336 163.724 217.833 159.315C220.991 153.662 225.621 148.524 231.592 143.968C231.613 143.949 231.64 143.938 231.668 143.938C231.697 143.938 231.724 143.949 231.745 143.968C231.763 143.988 231.774 144.014 231.774 144.042C231.774 144.069 231.763 144.095 231.745 144.115C218.28 154.386 214.296 165.82 213.322 173.61C212.269 182.043 214.426 188.119 214.454 188.182C214.463 188.208 214.462 188.237 214.45 188.262C214.439 188.287 214.418 188.307 214.392 188.317L214.324 188.368Z" fill="#2F2E41"/>
<path d="M246.924 174.096C246.924 174.096 225.083 178.849 205.093 202.923C205.093 202.923 187.695 223.131 178.464 256.181L200.192 318.516H222.559C222.559 318.516 225.117 273.697 226.821 256.604C226.821 256.621 231.015 200.035 246.924 174.096Z" fill="#2F246E"/>
<g opacity="0.2">
<path d="M180.156 260.764H180.122C180.109 260.761 180.097 260.754 180.086 260.745C180.075 260.737 180.067 260.726 180.06 260.714C180.054 260.702 180.05 260.688 180.049 260.675C180.048 260.661 180.05 260.647 180.054 260.634C182.984 251.514 186.425 242.565 190.361 233.83C193.722 226.22 197.629 218.862 202.054 211.814C207.034 204.053 212.088 198.152 217.086 194.292C217.096 194.282 217.108 194.273 217.121 194.268C217.134 194.263 217.148 194.26 217.162 194.26C217.177 194.26 217.191 194.263 217.204 194.268C217.217 194.273 217.229 194.282 217.239 194.292C217.249 194.301 217.257 194.312 217.262 194.325C217.267 194.338 217.27 194.351 217.27 194.365C217.27 194.379 217.267 194.392 217.262 194.405C217.257 194.418 217.249 194.429 217.239 194.439C205.959 203.183 196.513 220.722 190.57 233.904C186.635 242.631 183.196 251.572 180.269 260.685C180.263 260.71 180.248 260.731 180.227 260.745C180.206 260.76 180.181 260.767 180.156 260.764Z" fill="black"/>
</g>
<g opacity="0.2">
<path d="M223.628 189.645C223.612 189.646 223.596 189.643 223.581 189.636C223.566 189.629 223.553 189.619 223.544 189.605C223.533 189.595 223.525 189.584 223.52 189.57C223.515 189.557 223.512 189.543 223.512 189.529C223.512 189.515 223.515 189.501 223.52 189.488C223.525 189.475 223.533 189.463 223.544 189.453C223.578 189.453 226.549 187.237 230.579 184.801C234.303 182.54 239.714 179.646 244.366 178.532C244.379 178.529 244.393 178.528 244.407 178.531C244.42 178.533 244.433 178.538 244.445 178.545C244.457 178.553 244.467 178.562 244.475 178.574C244.482 178.585 244.488 178.598 244.49 178.611C244.495 178.625 244.496 178.639 244.495 178.653C244.493 178.667 244.489 178.68 244.482 178.692C244.475 178.705 244.466 178.715 244.455 178.724C244.443 178.732 244.43 178.738 244.417 178.741C235.565 180.861 223.793 189.538 223.674 189.622C223.661 189.634 223.646 189.642 223.628 189.645Z" fill="black"/>
</g>
<path opacity="0.2" d="M224.331 186.135C224.302 186.163 221.693 188.961 218.671 194.58C216.804 198.047 215.222 201.659 213.939 205.381C212.216 210.397 210.931 215.553 210.096 220.79L204.318 246.079C202.978 250.319 201.311 254.448 199.331 258.43C195.936 265.495 191.13 273.216 185.329 275.845L196.054 306.696C196.869 297.528 197.933 288.024 199.246 278.185C200.624 268.01 202.178 258.228 203.91 248.837L210.289 220.829C212.264 208.615 216.016 199.87 218.812 194.687C221.84 189.068 224.438 186.304 224.472 186.282L224.331 186.135Z" fill="black"/>
<path d="M334.571 203.29C355.195 228.777 365.575 262.228 365.575 262.228C379.425 308.188 351.517 325.705 351.517 325.705L264.311 325.846C271.408 310.314 258.77 301.874 258.77 301.874L270.344 297.692L270.774 245.989C269.925 218.049 276.762 191.239 276.762 191.239C280.492 181.065 277.974 170.743 277.543 170.534C277.521 170.534 312.583 176.124 334.571 203.29Z" fill="#2F246E"/>
<g opacity="0.2">
<path d="M280.294 315.525C280.267 315.525 280.24 315.514 280.22 315.496C280.2 315.477 280.188 315.451 280.187 315.423C280.186 315.409 280.188 315.396 280.193 315.383C280.198 315.37 280.205 315.358 280.214 315.348C280.224 315.337 280.235 315.33 280.248 315.324C280.261 315.319 280.275 315.316 280.289 315.316L328.832 313.999C329.562 313.999 330.298 313.999 331.028 314.038C332.16 314.114 333.277 314.151 334.379 314.151C343.18 314.151 349.989 311.721 354.652 306.905C358.795 302.62 360.425 297.205 361.059 293.418C361.475 291.017 361.604 288.575 361.444 286.144C360.821 261.216 352.117 240.387 344.923 227.302C337.107 213.097 329.359 204.731 329.285 204.647C329.275 204.637 329.267 204.625 329.262 204.612C329.256 204.598 329.253 204.584 329.253 204.57C329.253 204.556 329.256 204.542 329.262 204.529C329.267 204.516 329.275 204.504 329.285 204.494C329.305 204.475 329.331 204.465 329.359 204.465C329.386 204.465 329.412 204.475 329.432 204.494C329.512 204.579 337.271 212.973 345.082 227.183C349.607 235.39 353.295 244.031 356.09 252.975C359.463 263.717 361.337 274.873 361.659 286.127C361.816 288.573 361.685 291.03 361.269 293.446C360.888 295.779 360.225 298.057 359.293 300.229C358.218 302.741 356.697 305.039 354.805 307.012C350.102 311.868 343.242 314.321 334.379 314.321C333.288 314.321 332.168 314.285 331.017 314.214C330.293 314.163 329.562 314.151 328.838 314.168L280.317 315.485L280.294 315.525Z" fill="black"/>
</g>
<g opacity="0.2">
<path d="M308.984 241.699C308.959 241.699 308.934 241.691 308.915 241.675C308.895 241.66 308.882 241.638 308.876 241.614C307.996 236.046 308.189 230.362 309.442 224.866C310.549 219.949 312.806 215.363 316.03 211.486C319.953 206.868 325.324 203.505 332.002 201.493C332.029 201.486 332.058 201.489 332.082 201.503C332.106 201.517 332.124 201.539 332.132 201.566C332.137 201.579 332.138 201.593 332.137 201.607C332.136 201.62 332.132 201.633 332.126 201.646C332.12 201.658 332.111 201.669 332.1 201.677C332.09 201.686 332.078 201.692 332.064 201.696C317.038 206.218 311.582 216.822 309.652 224.911C308.401 230.378 308.209 236.034 309.086 241.574C309.091 241.602 309.085 241.63 309.069 241.654C309.053 241.677 309.029 241.693 309.001 241.699H308.984Z" fill="black"/>
</g>
<g opacity="0.2">
<path d="M326.002 201.346C325.977 201.353 325.949 201.353 325.923 201.346C315.413 190.476 303.148 184.049 294.71 180.573C289.568 178.396 284.226 176.722 278.76 175.576C278.745 175.576 278.729 175.573 278.715 175.566C278.701 175.56 278.688 175.55 278.678 175.538C278.668 175.527 278.661 175.513 278.656 175.498C278.652 175.483 278.651 175.467 278.654 175.452C278.656 175.436 278.662 175.421 278.671 175.409C278.68 175.396 278.691 175.385 278.704 175.377C278.718 175.369 278.733 175.364 278.748 175.362C278.764 175.36 278.78 175.362 278.794 175.367C284.275 176.516 289.632 178.193 294.789 180.375C300.1 182.56 305.213 185.198 310.07 188.26C315.895 191.924 321.264 196.265 326.065 201.193C326.075 201.203 326.083 201.215 326.088 201.228C326.094 201.241 326.097 201.255 326.097 201.269C326.097 201.284 326.094 201.298 326.088 201.311C326.083 201.324 326.075 201.336 326.065 201.346C326.044 201.352 326.023 201.352 326.002 201.346Z" fill="black"/>
</g>
<path d="M297.121 210.746H283.628C282.334 210.746 281.285 211.794 281.285 213.086C281.285 214.379 282.334 215.426 283.628 215.426H297.121C298.415 215.426 299.464 214.379 299.464 213.086C299.464 211.794 298.415 210.746 297.121 210.746Z" fill="white"/>
<path d="M266.399 318.301C260.53 320.975 253.45 318.256 253.45 318.256L244.887 315.028L236.906 312.016C236.424 311.682 235.866 311.474 235.282 311.412C234.699 311.35 234.109 311.435 233.567 311.659C231.015 312.298 228.173 312.79 228.173 312.79C226.631 313.086 225.128 313.562 223.696 314.209L216.667 317.826C215.439 318.375 214.1 318.629 212.756 318.567C211.413 318.505 210.102 318.13 208.93 317.47C205.093 320.025 201.969 316.905 201.969 316.905C200.763 318.324 200.056 318.143 200.056 318.143L198.748 314.407L206.796 305.984L203.457 308.042C201.649 309.425 199.365 310.035 197.107 309.738L195.901 306.143L210.136 298.229L222.587 296.601C230.115 295.183 235.039 296.528 235.039 296.528L253.784 301.564C257.548 303.192 258.827 301.847 258.827 301.847C268.08 308.828 266.399 318.301 266.399 318.301Z" fill="#F9B499"/>
<path d="M266.4 318.301C260.531 320.975 253.45 318.256 253.45 318.256L244.887 315.028L244.853 314.96C259.693 314.638 258.776 301.875 258.776 301.875C268.081 308.828 266.4 318.301 266.4 318.301Z" fill="#F29681"/>
<path d="M207.578 305.311C207.557 305.316 207.536 305.316 207.515 305.311C207.497 305.291 207.486 305.265 207.486 305.238C207.486 305.21 207.497 305.184 207.515 305.164C207.549 305.113 210.911 300.439 214.901 300.015L224.602 298.449C224.617 298.444 224.633 298.442 224.648 298.444C224.664 298.446 224.679 298.451 224.692 298.459C224.706 298.467 224.717 298.478 224.726 298.491C224.735 298.504 224.74 298.518 224.743 298.534C224.745 298.549 224.744 298.565 224.74 298.58C224.736 298.595 224.729 298.609 224.718 298.621C224.708 298.632 224.696 298.642 224.681 298.648C224.667 298.655 224.652 298.658 224.636 298.658L214.907 300.218C211.019 300.637 207.697 305.232 207.668 305.305C207.654 305.313 207.639 305.317 207.624 305.318C207.608 305.319 207.592 305.316 207.578 305.311Z" fill="#F29681"/>
<path d="M201.969 317.018C201.955 317.018 201.941 317.015 201.928 317.009C201.915 317.003 201.904 316.995 201.895 316.984C201.884 316.974 201.876 316.962 201.87 316.949C201.864 316.936 201.861 316.922 201.861 316.907C201.861 316.893 201.864 316.879 201.87 316.865C201.876 316.852 201.884 316.841 201.895 316.831L212.864 306.137C213.69 305.32 214.717 304.736 215.841 304.441L227.93 301.326C227.944 301.323 227.958 301.322 227.972 301.324C227.986 301.327 228 301.332 228.012 301.339C228.024 301.346 228.034 301.356 228.043 301.367C228.051 301.379 228.057 301.392 228.06 301.405C228.067 301.432 228.064 301.461 228.05 301.485C228.036 301.51 228.014 301.528 227.987 301.535L215.898 304.667C214.81 304.949 213.815 305.51 213.011 306.295L202.054 316.984C202.044 316.996 202.031 317.006 202.016 317.012C202.001 317.018 201.985 317.02 201.969 317.018Z" fill="#F29681"/>
<path d="M208.846 317.442C208.829 317.442 208.812 317.438 208.797 317.43C208.783 317.422 208.77 317.411 208.761 317.397C208.664 317.243 208.601 317.071 208.577 316.892C208.553 316.713 208.567 316.53 208.619 316.357C208.812 315.673 209.491 315.062 210.645 314.542L229.6 304.266C229.724 304.181 231.779 302.904 235.826 303.135C235.839 303.135 235.853 303.138 235.865 303.144C235.878 303.149 235.889 303.157 235.898 303.167C235.907 303.178 235.914 303.19 235.918 303.203C235.922 303.216 235.924 303.229 235.922 303.243C235.922 303.257 235.919 303.27 235.914 303.283C235.908 303.296 235.9 303.307 235.89 303.317C235.88 303.326 235.868 303.334 235.855 303.339C235.842 303.343 235.828 303.345 235.814 303.345C231.785 303.135 229.719 304.475 229.696 304.475L210.736 314.757C209.655 315.237 208.998 315.814 208.829 316.424C208.785 316.568 208.772 316.719 208.789 316.867C208.807 317.016 208.855 317.16 208.93 317.289C208.95 317.31 208.96 317.337 208.96 317.366C208.96 317.394 208.95 317.421 208.93 317.442C208.903 317.451 208.873 317.451 208.846 317.442Z" fill="#F29681"/>
<path d="M276.304 174.966C273.305 182.659 267.577 184.451 267.577 184.451C256.212 188.86 250.032 180.375 250.032 180.375C250.032 180.375 263.4 189.984 273.271 178.052C275.303 175.172 276.887 172 277.968 168.646C277.968 168.646 277.278 172.733 276.304 174.966Z" fill="#F29681"/>
<path opacity="0.2" d="M246.132 195.451C246.485 196.876 246.963 198.268 247.558 199.611C247.558 199.611 253.733 190.607 257.638 187.696C261.915 192.225 265.12 197.654 267.016 203.585C267.016 203.585 273.995 198.87 276.072 191.437C273.841 194.93 271.123 198.087 268.001 200.815C268.001 200.815 267.435 194.688 257.995 185.48L257.565 185.355C257.565 185.355 250.388 187.04 246.132 195.451Z" fill="black"/>
<path opacity="0.2" d="M225.451 275.274C225.451 275.274 233.647 217.483 243.727 193.596C243.727 193.596 241.327 187.622 244.123 179.126C239.148 190.28 235.477 201.969 233.182 213.962C233.182 213.962 227.013 244.423 226.43 261.375L225.451 275.274Z" fill="black"/>
<path d="M108.504 316.696L85.1853 258.052C84.6806 256.783 84.486 255.413 84.6176 254.054C84.7491 252.696 85.203 251.388 85.9417 250.24C86.6804 249.092 87.6825 248.136 88.865 247.452C90.0475 246.767 91.3762 246.375 92.7411 246.306L150.471 243.378C155.368 243.129 160.213 244.48 164.271 247.228C168.33 249.976 171.381 253.97 172.963 258.606L193.298 318.154C194.128 320.627 195.761 322.752 197.939 324.191C199.093 324.945 200.362 325.504 201.697 325.847H122.002C119.093 325.847 116.251 324.975 113.845 323.343C111.438 321.712 109.577 319.396 108.504 316.696Z" fill="#2F2E41"/>
<path d="M152.118 243.366L164.003 242.999C166.811 242.94 169.566 243.77 171.873 245.369C174.181 246.968 175.923 249.254 176.851 251.902L200.214 318.538H260.038C260.514 318.538 260.986 318.632 261.426 318.814C261.865 318.996 262.265 319.263 262.601 319.6C262.938 319.936 263.205 320.336 263.386 320.775C263.568 321.215 263.661 321.686 263.66 322.162C263.66 323.12 263.28 324.039 262.601 324.718C261.923 325.396 261.003 325.778 260.044 325.779L201.686 325.847C199.758 325.36 197.981 324.402 196.515 323.059C195.049 321.716 193.939 320.031 193.287 318.154L172.951 258.605C172.951 258.605 168.876 244.22 152.118 243.366Z" fill="#2F2E41"/>
<path opacity="0.2" d="M152.118 243.366L164.003 242.999C166.811 242.94 169.566 243.77 171.873 245.369C174.181 246.968 175.923 249.254 176.851 251.902L200.214 318.538H260.038C260.514 318.538 260.986 318.632 261.426 318.814C261.865 318.996 262.265 319.263 262.601 319.6C262.938 319.936 263.205 320.336 263.386 320.775C263.568 321.215 263.661 321.686 263.66 322.162C263.66 323.12 263.28 324.039 262.601 324.718C261.923 325.396 261.003 325.778 260.044 325.779L201.686 325.847C199.758 325.36 197.981 324.402 196.515 323.059C195.049 321.716 193.939 320.031 193.287 318.154L172.951 258.605C172.951 258.605 168.876 244.22 152.118 243.366Z" fill="black"/>
<path opacity="0.2" d="M139.802 293.436C143.193 293.436 145.943 290.69 145.943 287.303C145.943 283.916 143.193 281.17 139.802 281.17C136.41 281.17 133.661 283.916 133.661 287.303C133.661 290.69 136.41 293.436 139.802 293.436Z" fill="black"/>
<path d="M153.04 155.854H33.6758C29.4778 155.854 26.0747 159.253 26.0747 163.446V258.61C26.0747 262.803 29.4778 266.202 33.6758 266.202H153.04C157.238 266.202 160.641 262.803 160.641 258.61V163.446C160.641 159.253 157.238 155.854 153.04 155.854Z" fill="#E6E6E6"/>
<path d="M144.698 175.994C143.454 175.994 142.238 175.626 141.204 174.936C140.169 174.245 139.364 173.264 138.888 172.116C138.412 170.969 138.288 169.706 138.531 168.487C138.774 167.269 139.373 166.15 140.253 165.272C141.133 164.394 142.254 163.796 143.474 163.555C144.695 163.313 145.959 163.438 147.108 163.914C148.257 164.39 149.238 165.196 149.929 166.23C150.619 167.263 150.987 168.478 150.986 169.72C150.984 171.385 150.321 172.98 149.142 174.157C147.963 175.333 146.364 175.994 144.698 175.994ZM144.698 163.723C143.51 163.722 142.348 164.073 141.36 164.731C140.372 165.389 139.601 166.325 139.146 167.421C138.69 168.517 138.571 169.723 138.802 170.887C139.033 172.05 139.604 173.119 140.444 173.959C141.283 174.798 142.353 175.37 143.518 175.602C144.683 175.834 145.891 175.715 146.989 175.261C148.086 174.808 149.025 174.039 149.685 173.053C150.345 172.066 150.697 170.906 150.697 169.72C150.696 168.131 150.063 166.607 148.939 165.483C147.814 164.359 146.289 163.726 144.698 163.723Z" fill="#2F246E"/>
<path d="M86.6512 189.04H68.8965V206.84H86.6512V189.04Z" fill="#2F246E"/>
<path d="M136.853 189.04H92.6846V195.354H136.853V189.04Z" fill="#CCCCCC"/>
<path opacity="0.25" d="M150.556 200.532H92.6846V206.846H150.556V200.532Z" fill="#2F246E"/>
<path d="M86.5096 221.384H68.7549V239.183H86.5096V221.384Z" fill="#2F246E"/>
<path d="M136.712 221.384H92.543V227.698H136.712V221.384Z" fill="#CCCCCC"/>
<path opacity="0.25" d="M150.414 232.869H92.543V239.183H150.414V232.869Z" fill="#2F246E"/>
<path opacity="0.25" d="M150.561 247.481H68.7549V259.323H150.561V247.481Z" fill="#2F246E"/>
<path d="M155.881 182.574H67.5888C67.5512 182.574 67.5152 182.559 67.4887 182.532C67.4622 182.506 67.4473 182.47 67.4473 182.432C67.4473 182.395 67.4622 182.359 67.4887 182.332C67.5152 182.306 67.5512 182.291 67.5888 182.291H155.881C155.919 182.291 155.955 182.306 155.981 182.332C156.008 182.359 156.023 182.395 156.023 182.432C156.023 182.47 156.008 182.506 155.981 182.532C155.955 182.559 155.919 182.574 155.881 182.574Z" fill="#CCCCCC"/>
<path d="M155.644 213.725H67.3513C67.318 213.718 67.2879 213.7 67.2663 213.674C67.2447 213.647 67.2329 213.615 67.2329 213.581C67.2329 213.547 67.2447 213.514 67.2663 213.487C67.2879 213.461 67.318 213.443 67.3513 213.436H155.644C155.665 213.432 155.687 213.433 155.708 213.438C155.729 213.443 155.749 213.453 155.766 213.467C155.783 213.481 155.796 213.498 155.805 213.518C155.815 213.537 155.82 213.559 155.82 213.581C155.82 213.602 155.815 213.624 155.805 213.643C155.796 213.663 155.783 213.68 155.766 213.694C155.749 213.708 155.729 213.718 155.708 213.723C155.687 213.728 155.665 213.729 155.644 213.725Z" fill="#CCCCCC"/>
<path d="M83.5949 298.896V313.292C83.6304 314.963 83.3316 316.624 82.7159 318.178C82.1003 319.732 81.1803 321.147 80.0098 322.341C78.8392 323.535 77.4418 324.484 75.8994 325.132C74.357 325.779 72.7006 326.113 71.0274 326.113C69.3542 326.113 67.6978 325.779 66.1554 325.132C64.6129 324.484 63.2155 323.535 62.045 322.341C60.8745 321.147 59.9544 319.732 59.3388 318.178C58.7232 316.624 58.4244 314.963 58.4599 313.292V298.896H83.5949Z" fill="#2F2E41"/>
<path opacity="0.2" d="M83.5948 304.102V313.304C83.5906 315.998 82.719 318.619 81.1088 320.78C79.4986 322.941 77.2352 324.527 74.6528 325.305C72.0705 326.082 69.3063 326.009 66.7684 325.097C64.2306 324.185 62.0538 322.482 60.5596 320.24C64.1705 320.681 77.7709 321.122 83.5948 304.091V304.102Z" fill="black"/>
<path d="M59.2465 317.158H58.2277C56.4106 317.107 54.6852 316.35 53.4182 315.048C52.1512 313.746 51.4424 312.002 51.4424 310.186C51.4424 308.371 52.1512 306.627 53.4182 305.325C54.6852 304.023 56.4106 303.266 58.2277 303.214H58.4485H58.6352V313.304C58.6409 314.536 58.8317 315.762 59.2012 316.938L59.2465 317.158ZM58.2277 303.593C56.5043 303.643 54.8683 304.362 53.667 305.597C52.4657 306.833 51.7938 308.487 51.7938 310.209C51.7938 311.931 52.4657 313.585 53.667 314.82C54.8683 316.056 56.5043 316.775 58.2277 316.825H58.7937C58.4655 315.684 58.2998 314.502 58.3013 313.315V303.593H58.2277Z" fill="#2F2E41"/>
<path d="M25.8652 328.187H336.677V335.116C336.68 336.164 336.476 337.202 336.076 338.171C335.677 339.14 335.09 340.021 334.349 340.763C333.609 341.505 332.728 342.093 331.759 342.495C330.79 342.897 329.752 343.103 328.702 343.103H25.8652V328.187Z" fill="#9EA0A3"/>
<path d="M470.847 325.49H336.428C333.937 325.49 331.917 327.506 331.917 329.992C331.917 332.479 333.937 334.495 336.428 334.495H470.847C473.339 334.495 475.358 332.479 475.358 329.992C475.358 327.506 473.339 325.49 470.847 325.49Z" fill="#9EA0A3"/>
<path d="M473.089 293.56V297.997C473.089 305.289 470.188 312.282 465.026 317.438C459.863 322.594 452.861 325.49 445.56 325.49H436.278C428.976 325.49 421.974 322.594 416.812 317.438C411.649 312.282 408.749 305.289 408.749 297.997V293.56C408.749 293.15 408.911 292.758 409.201 292.469C409.491 292.179 409.884 292.017 410.294 292.017H471.544C471.856 292.018 472.16 292.113 472.418 292.289C472.675 292.466 472.873 292.715 472.987 293.006C473.052 293.183 473.087 293.371 473.089 293.56Z" fill="#2F2E41"/>
<path opacity="0.2" d="M473.089 293.56V297.997C473.089 305.289 470.188 312.282 465.026 317.438C459.863 322.594 452.861 325.491 445.56 325.491H436.278C430.242 325.494 424.375 323.507 419.587 319.838C428.643 321.732 459.771 325.553 472.987 292.983C473.055 293.168 473.089 293.363 473.089 293.56Z" fill="black"/>
<g opacity="0.2">
<path d="M471.244 296.771H410.882V297.053H471.244V296.771Z" fill="black"/>
</g>
<g opacity="0.2">
<path d="M469.426 300.1H412.336V300.382H469.426V300.1Z" fill="black"/>
</g>
<path d="M415.636 292.017V269.204C415.631 268.544 415.781 267.893 416.077 267.304C416.372 266.714 416.803 266.203 417.334 265.812C418.335 265.122 419.564 264.847 420.764 265.043C420.764 265.043 423.594 264.976 425.026 269.091V235.492C425.033 233.299 425.911 231.198 427.466 229.649C429.021 228.1 431.127 227.23 433.323 227.229C435.525 227.229 437.637 228.102 439.194 229.657C440.751 231.212 441.626 233.321 441.626 235.521V292L415.636 292.017Z" fill="#2F246E"/>
<path d="M449.618 241.241C451.736 241.241 453.767 242.081 455.264 243.577C456.762 245.073 457.604 247.102 457.604 249.217V291.944H441.626V249.217C441.626 248.169 441.833 247.131 442.234 246.163C442.636 245.195 443.225 244.316 443.967 243.575C444.709 242.835 445.59 242.247 446.56 241.847C447.529 241.446 448.568 241.24 449.618 241.241Z" fill="#2F246E"/>
<path opacity="0.2" d="M449.618 241.241C451.736 241.241 453.767 242.081 455.264 243.577C456.762 245.073 457.604 247.102 457.604 249.217V291.944H441.626V249.217C441.626 248.169 441.833 247.131 442.234 246.163C442.636 245.195 443.225 244.316 443.967 243.575C444.709 242.835 445.59 242.247 446.56 241.847C447.529 241.446 448.568 241.24 449.618 241.241Z" fill="black"/>
<path d="M462.046 259.747C462.629 259.747 463.206 259.862 463.744 260.084C464.283 260.307 464.772 260.634 465.184 261.045C465.596 261.457 465.923 261.945 466.146 262.483C466.369 263.02 466.484 263.597 466.484 264.179V291.943H457.604V264.184C457.603 263.601 457.717 263.024 457.94 262.485C458.163 261.947 458.49 261.457 458.903 261.045C459.316 260.633 459.806 260.306 460.345 260.083C460.885 259.861 461.463 259.746 462.046 259.747Z" fill="#2F246E"/>
<g opacity="0.2">
<path d="M420.396 269.746H420.113V291.728H420.396V269.746Z" fill="black"/>
</g>
<g opacity="0.2">
<path d="M433.459 236.453H433.176V292.051H433.459V236.453Z" fill="black"/>
</g>
<g opacity="0.2">
<path d="M462.08 265.173H461.797V292.05H462.08V265.173Z" fill="black"/>
</g>
<path d="M382.227 97.7022C373.402 97.7178 364.78 100.346 357.451 105.253C350.121 110.161 344.413 117.129 341.047 125.275C337.681 133.422 336.809 142.382 338.541 151.024C340.272 159.666 344.53 167.601 350.776 173.827C357.021 180.052 364.975 184.29 373.631 186.002C382.287 187.715 391.257 186.827 399.408 183.45C407.559 180.073 414.525 174.359 419.425 167.03C424.325 159.7 426.94 151.085 426.939 142.272C426.934 136.413 425.774 130.612 423.524 125.201C421.275 119.79 417.98 114.875 413.828 110.736C409.676 106.597 404.748 103.316 399.325 101.08C393.903 98.8431 388.093 97.6955 382.227 97.7022ZM381.695 182.8C358.908 182.8 340.44 164.61 340.44 142.164C340.44 119.718 358.908 101.529 381.695 101.529C404.481 101.529 422.954 119.724 422.954 142.164C422.954 164.605 404.481 182.8 381.695 182.8Z" fill="#2F2E41"/>
<path d="M419.519 171.693C426.741 162.452 430.271 150.861 429.424 139.169C428.577 127.476 423.413 116.514 414.933 108.407C406.453 100.3 395.262 95.6267 383.528 95.2918C371.795 94.9569 360.354 98.9848 351.425 106.595C342.496 114.204 336.713 124.854 335.199 136.48C333.684 148.105 336.546 159.878 343.228 169.516C349.91 179.155 359.938 185.972 371.367 188.647C382.796 191.321 394.812 189.663 405.086 183.993L400.638 175.351C392.49 179.928 382.936 181.334 373.812 179.299C364.689 177.263 356.642 171.929 351.221 164.324C345.799 156.719 343.385 147.379 344.444 138.103C345.503 128.827 349.96 120.27 356.957 114.079C363.955 107.888 372.997 104.501 382.345 104.569C391.693 104.636 400.685 108.155 407.592 114.447C414.498 120.739 418.83 129.359 419.754 138.65C420.678 147.94 418.129 157.243 412.597 164.769L419.519 171.693Z" fill="#EAD1A6"/>
<path d="M393.054 166.493H371.966C371.534 166.493 371.185 166.842 371.185 167.273C371.185 167.704 371.534 168.053 371.966 168.053H393.054C393.485 168.053 393.835 167.704 393.835 167.273C393.835 166.842 393.485 166.493 393.054 166.493Z" fill="#2F2E41"/>
<path d="M378.072 158.054H386.522L382.334 150.678L378.072 158.054Z" fill="#2F246E"/>
<path d="M383.546 138.406H381.129V146.772H383.546V138.406Z" fill="#2F2E41"/>
<path d="M399.308 138.479H396.891V146.845H399.308V138.479Z" fill="#2F2E41"/>
<path d="M414.929 138.479H412.512V146.845H414.929V138.479Z" fill="#2F2E41"/>
<path d="M387.168 140.254H386.171V145.008H387.168V140.254Z" fill="#2F2E41"/>
<path d="M390.501 140.254H389.505V145.008H390.501V140.254Z" fill="#2F2E41"/>
<path d="M393.767 140.254H392.771V145.008H393.767V140.254Z" fill="#2F2E41"/>
<path d="M403.004 140.181H402.008V144.934H403.004V140.181Z" fill="#2F2E41"/>
<path d="M406.337 140.181H405.341V144.934H406.337V140.181Z" fill="#2F2E41"/>
<path d="M409.603 140.181H408.607V144.934H409.603V140.181Z" fill="#2F2E41"/>
<path d="M418.551 140.254H417.555V145.008H418.551V140.254Z" fill="#2F2E41"/>
<path d="M383.257 86.5674H380.133V96.2105H383.257V86.5674Z" fill="#2F2E41"/>
<path d="M408.041 200.034H357.907C354.887 200.034 352.439 202.479 352.439 205.494C352.439 208.51 354.887 210.955 357.907 210.955H408.041C411.061 210.955 413.508 208.51 413.508 205.494C413.508 202.479 411.061 200.034 408.041 200.034Z" fill="#CCCCCC"/>
<path d="M350.594 213.759H350.56C350.533 213.75 350.511 213.731 350.498 213.705C350.485 213.68 350.483 213.65 350.492 213.623C356.786 195.179 348.862 181.681 341.114 173.604C337.388 169.79 333.206 166.449 328.663 163.656C326.706 162.431 324.676 161.329 322.584 160.355C312.244 155.296 301.501 144.76 301.394 144.652C301.375 144.632 301.365 144.606 301.365 144.579C301.365 144.551 301.375 144.525 301.394 144.505C301.403 144.494 301.415 144.486 301.428 144.48C301.442 144.474 301.456 144.471 301.47 144.471C301.485 144.471 301.499 144.474 301.512 144.48C301.525 144.486 301.537 144.494 301.547 144.505C301.654 144.607 312.368 155.12 322.675 160.162C324.775 161.136 326.811 162.242 328.77 163.475C333.337 166.27 337.54 169.619 341.284 173.446C346.242 178.612 349.677 184.236 351.471 190.166C353.735 197.582 353.481 205.495 350.69 213.685C350.684 213.706 350.671 213.724 350.654 213.737C350.637 213.75 350.616 213.758 350.594 213.759Z" fill="#2F2E41"/>
<path d="M323.495 96.6338H221.461C218.263 96.6338 215.671 99.2214 215.671 102.413C215.671 105.605 218.263 108.193 221.461 108.193H323.495C326.693 108.193 329.285 105.605 329.285 102.413C329.285 99.2214 326.693 96.6338 323.495 96.6338Z" fill="#CCCCCC"/>
<path d="M278.234 125.004L277.951 133.019V135.845C273.825 159.433 257.519 161.383 257.519 161.383C242.572 163.785 235.769 154.396 232.882 147.817C231.594 144.909 230.925 141.766 230.918 138.586V116.112L236.459 115.858C236.459 115.858 238.723 103.801 246.256 97.985C246.256 97.985 242.991 106.424 242.425 114.942H254.565C254.565 114.942 255.561 100.975 253.642 96.0801C253.716 96.1649 258.408 101.501 259.466 114.304H269.977C269.977 114.304 270.327 106.577 266.637 101.116C266.637 101.116 269.903 103.943 271.89 111.472C271.912 111.46 275.393 121.742 278.234 125.004Z" fill="#F9B499"/>
<path d="M278.234 125.004V125.626L278.194 125.705C273.169 123.715 269.807 117.56 269.807 117.56L259.37 117.842L256.88 112.099L256.597 117.983L240.834 118.198C240.44 116.529 240.403 114.795 240.727 113.111C239.137 114.615 238.092 116.603 237.755 118.764H230.918V116.09L236.459 115.836C236.459 115.836 238.723 103.779 246.256 97.9625C246.256 97.9625 242.991 106.402 242.425 114.92H254.565C254.565 114.92 255.561 100.953 253.642 96.0576C253.716 96.1424 258.408 101.478 259.466 114.281H269.977C269.977 114.281 270.327 106.554 266.637 101.094C266.637 101.094 269.903 103.92 271.89 111.449C271.912 111.461 275.393 121.742 278.234 125.004Z" fill="#F29681"/>
<path d="M342.501 214.363C320.128 176.916 277.98 170.749 277.98 170.749V133.019L278.263 125.003C275.433 121.742 271.941 111.438 271.941 111.438C269.954 103.92 266.688 101.082 266.688 101.082C270.379 106.543 270.028 114.269 270.028 114.269H259.489C258.431 101.467 253.739 96.1307 253.665 96.0459C255.584 100.941 254.588 114.908 254.588 114.908H242.448C243.014 106.401 246.279 97.9508 246.279 97.9508C238.752 103.801 236.482 115.875 236.482 115.875L230.941 116.129L224.195 116.44C225.831 101.744 231.581 95.232 231.581 95.232C223.538 102.088 222.282 113.478 222.095 116.146C222.086 116.306 222.017 116.458 221.903 116.57C221.792 116.687 221.644 116.761 221.484 116.779C221.386 116.79 221.288 116.779 221.195 116.749C221.102 116.718 221.017 116.668 220.945 116.601C220.873 116.535 220.816 116.454 220.778 116.363C220.74 116.273 220.722 116.176 220.725 116.078C221.088 100.172 234.631 90.8344 234.631 90.8344C243.863 82.887 251.532 86.0807 251.532 86.0807C244.932 78.9869 252.03 74.3066 252.03 74.3066C250.332 82.6779 256.15 85.2272 256.15 85.2272C288.173 73.5266 293.431 117.497 293.431 117.497L294.495 129.056C295.485 139.412 306.873 151.344 313.738 157.652C316.075 159.792 318.546 161.782 321.135 163.61C330.293 170.104 337.402 180.12 337.402 180.12C352.723 198.83 342.501 214.363 342.501 214.363Z" fill="#2F2E41"/>
<path d="M271.312 126.174L279.802 123.823C279.896 123.798 279.994 123.793 280.089 123.809C280.185 123.824 280.276 123.86 280.357 123.914C280.438 123.967 280.506 124.037 280.558 124.119C280.61 124.201 280.643 124.292 280.657 124.388C280.682 124.552 280.647 124.72 280.557 124.859C280.468 124.999 280.33 125.101 280.17 125.146L271.878 127.531L271.312 126.174Z" fill="#2F246E"/>
<path d="M282.213 139.899C286.526 139.899 290.023 136.358 290.023 131.991C290.023 127.623 286.526 124.083 282.213 124.083C277.899 124.083 274.402 127.623 274.402 131.991C274.402 136.358 277.899 139.899 282.213 139.899Z" fill="#F9B499"/>
<path d="M257.571 185.355C254.645 186.35 251.994 188.018 249.832 190.223C247.669 192.428 246.055 195.109 245.119 198.05C238.893 183.088 246.902 174.112 246.902 174.112C247.561 176.745 248.89 179.162 250.759 181.132C252.628 183.101 254.974 184.556 257.571 185.355Z" fill="#2F246E"/>
<path opacity="0.4" d="M257.571 185.355C254.645 186.35 251.994 188.018 249.832 190.223C247.669 192.428 246.055 195.109 245.119 198.05C238.893 183.088 246.902 174.112 246.902 174.112C247.561 176.745 248.89 179.162 250.759 181.132C252.628 183.101 254.974 184.556 257.571 185.355Z" fill="white"/>
<path d="M258 185.479C258 185.479 267.016 194.076 268.007 200.814C268.007 200.814 275.84 193.986 277.781 187.814C277.781 187.814 280.362 178.204 277.521 170.557C277.521 170.534 275.404 187.734 258 185.479Z" fill="#2F246E"/>
<path opacity="0.4" d="M258 185.479C258 185.479 267.016 194.076 268.007 200.814C268.007 200.814 275.84 193.986 277.781 187.814C277.781 187.814 280.362 178.204 277.521 170.557C277.521 170.534 275.404 187.734 258 185.479Z" fill="white"/>
<path d="M345.302 325.49H19.1524C16.6612 325.49 14.6416 327.506 14.6416 329.992C14.6416 332.479 16.6612 334.495 19.1524 334.495H345.302C347.793 334.495 349.813 332.479 349.813 329.992C349.813 327.506 347.793 325.49 345.302 325.49Z" fill="#E1E1E2"/>
<path d="M58.5615 155.889V266.23H33.0019C30.986 266.23 29.0527 265.43 27.6272 264.007C26.2017 262.583 25.4009 260.652 25.4009 258.639V163.48C25.4009 161.467 26.2017 159.536 27.6272 158.112C29.0527 156.688 30.986 155.889 33.0019 155.889H58.5615Z" fill="#2F246E"/>
<path d="M44.644 178.408H30.5116C29.355 178.408 28.4175 179.345 28.4175 180.5C28.4175 181.655 29.355 182.591 30.5116 182.591H44.644C45.8006 182.591 46.7381 181.655 46.7381 180.5C46.7381 179.345 45.8006 178.408 44.644 178.408Z" fill="white"/>
<path d="M31.5817 165.431C32.5039 165.431 33.2514 164.684 33.2514 163.763C33.2514 162.842 32.5039 162.096 31.5817 162.096C30.6596 162.096 29.9121 162.842 29.9121 163.763C29.9121 164.684 30.6596 165.431 31.5817 165.431Z" fill="white"/>
<path d="M36.7658 165.498C37.6879 165.498 38.4355 164.751 38.4355 163.831C38.4355 162.91 37.6879 162.163 36.7658 162.163C35.8437 162.163 35.0962 162.91 35.0962 163.831C35.0962 164.751 35.8437 165.498 36.7658 165.498Z" fill="white"/>
<path d="M41.9445 165.571C42.8666 165.571 43.6142 164.825 43.6142 163.904C43.6142 162.983 42.8666 162.236 41.9445 162.236C41.0224 162.236 40.2749 162.983 40.2749 163.904C40.2749 164.825 41.0224 165.571 41.9445 165.571Z" fill="white"/>
<path d="M44.7517 188.26H33.036C32.9985 188.26 32.9625 188.245 32.936 188.219C32.9094 188.192 32.8945 188.156 32.8945 188.119C32.8945 188.081 32.9094 188.045 32.936 188.019C32.9625 187.992 32.9985 187.978 33.036 187.978H44.7517C44.7893 187.978 44.8253 187.992 44.8518 188.019C44.8783 188.045 44.8932 188.081 44.8932 188.119C44.8932 188.156 44.8783 188.192 44.8518 188.219C44.8253 188.245 44.7893 188.26 44.7517 188.26Z" fill="white"/>
<path d="M44.7124 194.291H33.0023C32.9648 194.291 32.9288 194.277 32.9023 194.25C32.8757 194.224 32.8608 194.188 32.8608 194.15C32.8608 194.113 32.8757 194.077 32.9023 194.05C32.9288 194.024 32.9648 194.009 33.0023 194.009H44.7124C44.7499 194.009 44.7859 194.024 44.8124 194.05C44.839 194.077 44.8539 194.113 44.8539 194.15C44.8539 194.188 44.839 194.224 44.8124 194.25C44.7859 194.277 44.7499 194.291 44.7124 194.291Z" fill="white"/>
<path d="M44.7124 200.097H33.0023C32.9648 200.097 32.9288 200.082 32.9023 200.056C32.8757 200.029 32.8608 199.993 32.8608 199.956C32.8608 199.918 32.8757 199.882 32.9023 199.856C32.9288 199.829 32.9648 199.814 33.0023 199.814H44.7124C44.7499 199.814 44.7859 199.829 44.8124 199.856C44.839 199.882 44.8539 199.918 44.8539 199.956C44.8539 199.993 44.839 200.029 44.8124 200.056C44.7859 200.082 44.7499 200.097 44.7124 200.097Z" fill="white"/>
<g opacity="0.2">
<path d="M449.832 248.934H449.759V291.841H449.832V248.934Z" fill="black"/>
</g>
<path d="M365.434 94.5088L372.537 100.393L370.975 111.528L382.159 104.581L392.561 111.528L390.36 100.54L397.955 94.5088H365.434Z" fill="#2F246E"/>
<path opacity="0.2" d="M365.434 94.5088L372.537 100.393L370.975 111.528L382.159 104.581L392.561 111.528L390.36 100.54L397.955 94.5088H365.434Z" fill="black"/>
<path opacity="0.32" d="M244.382 128.904C244.416 123.463 240.01 119.024 234.54 118.99C229.07 118.956 224.607 123.339 224.573 128.78C224.539 134.221 228.946 138.66 234.416 138.694C239.886 138.728 244.348 134.345 244.382 128.904Z" fill="white"/>
<path opacity="0.32" d="M271.05 128.898C271.083 123.547 266.752 119.182 261.376 119.149C256 119.115 251.614 123.425 251.58 128.776C251.547 134.126 255.878 138.491 261.254 138.525C266.63 138.559 271.016 134.249 271.05 128.898Z" fill="white"/>
<path d="M261.334 118.057C258.726 118.053 256.205 118.994 254.238 120.704C252.271 122.415 250.992 124.78 250.637 127.361C248.373 125.518 245.543 126.982 245.181 127.197C244.75 124.456 243.274 121.988 241.061 120.31C238.848 118.632 236.071 117.874 233.312 118.196C230.552 118.517 228.024 119.893 226.258 122.034C224.491 124.176 223.623 126.917 223.836 129.684C224.048 132.45 225.324 135.028 227.397 136.875C229.47 138.723 232.178 139.698 234.954 139.595C237.731 139.493 240.36 138.321 242.29 136.326C244.221 134.331 245.304 131.667 245.311 128.892C247.943 126.728 250.569 128.819 250.569 128.819C250.561 130.953 251.188 133.04 252.369 134.818C253.55 136.596 255.233 137.984 257.205 138.806C259.176 139.628 261.347 139.847 263.444 139.435C265.54 139.024 267.467 138 268.98 136.495C270.494 134.989 271.526 133.068 271.945 130.976C272.365 128.884 272.153 126.715 271.338 124.743C270.522 122.771 269.139 121.085 267.363 119.899C265.587 118.712 263.499 118.079 261.362 118.079L261.334 118.057ZM234.49 138.264C232.629 138.257 230.812 137.7 229.269 136.663C227.725 135.625 226.524 134.154 225.817 132.435C225.11 130.716 224.93 128.827 225.297 127.005C225.665 125.184 226.566 123.512 227.884 122.201C229.203 120.891 230.881 120 232.707 119.641C234.533 119.282 236.424 119.472 238.141 120.186C239.859 120.9 241.326 122.107 242.358 123.654C243.389 125.2 243.938 127.017 243.936 128.875C243.933 130.111 243.686 131.335 243.21 132.475C242.734 133.616 242.037 134.652 241.16 135.524C240.283 136.395 239.242 137.086 238.098 137.556C236.953 138.027 235.727 138.267 234.49 138.264ZM261.334 138.196C259.474 138.19 257.658 137.633 256.114 136.596C254.571 135.559 253.37 134.088 252.663 132.37C251.955 130.652 251.774 128.763 252.141 126.942C252.508 125.121 253.407 123.449 254.725 122.138C256.042 120.826 257.719 119.934 259.544 119.574C261.369 119.215 263.26 119.403 264.978 120.115C266.696 120.828 268.164 122.032 269.196 123.577C270.229 125.123 270.78 126.939 270.78 128.796C270.778 130.033 270.532 131.257 270.056 132.399C269.58 133.54 268.884 134.577 268.007 135.45C267.129 136.323 266.089 137.015 264.944 137.486C263.799 137.957 262.572 138.199 261.334 138.196Z" fill="#2F246E"/>
<path opacity="0.2" d="M328.074 275.336C326.618 275.031 325.21 274.527 323.892 273.838C320.004 271.724 316.942 268.365 315.198 264.303L310.048 245.497L310.687 267.406C310.897 284.216 294.495 289.535 294.495 289.535L258.776 301.875C271.912 312.015 264.311 325.847 264.311 325.847H276.072C284.069 308.68 271.408 298.975 271.408 298.975C290.301 290.818 320.552 283.866 320.552 283.866C336.881 279.344 343.984 282.803 343.984 282.803C339.288 279.188 333.858 276.64 328.074 275.336Z" fill="black"/>
<path d="M272.874 322.015C273.834 322.015 274.612 321.238 274.612 320.279C274.612 319.321 273.834 318.544 272.874 318.544C271.915 318.544 271.137 319.321 271.137 320.279C271.137 321.238 271.915 322.015 272.874 322.015Z" fill="#2F2E41"/>
</svg>
