<svg width="394" height="404" viewBox="0 0 394 404" fill="none" xmlns="http://www.w3.org/2000/svg">
<path d="M186.964 349.424C187.046 334.256 165.833 321.845 139.582 321.703C113.332 321.561 91.9854 333.741 91.9034 348.909C91.8214 364.076 113.035 376.487 139.285 376.629C165.536 376.772 186.882 364.591 186.964 349.424Z" fill="#F2F2F2"/>
<path d="M302.537 356.598L197.274 295.795C195.021 294.497 195.323 292.223 197.908 290.72L203.886 287.265C206.48 285.762 210.419 285.596 212.662 286.904L317.925 347.697C320.178 349.005 319.876 351.279 317.291 352.782L311.313 356.227C308.729 357.73 304.789 357.857 302.537 356.598Z" fill="#F2F2F2"/>
<path d="M312.892 57.885L216.026 1.92329C215.342 1.4412 214.54 1.15314 213.706 1.08958C212.872 1.02601 212.036 1.18931 211.286 1.56218L201.729 7.09589L212.983 15.8796L215.733 15.1769V244.86C215.733 250.247 219.01 256.513 223.047 258.846L307.968 321.054V324.889L317.876 319.111C319.309 318.135 320.216 316.183 320.216 313.353V71.8999C320.197 66.4735 316.901 60.1883 312.892 57.885Z" fill="#999999"/>
<path d="M298.079 78.3899V67.5567L288.551 74.7105L246.92 57.2603L215.714 34.5399V15.1475L212.954 15.8404L201.72 7.05674L211.277 1.52302C212.025 1.15471 212.858 0.993077 213.689 1.05485C214.521 1.11662 215.321 1.39954 216.006 1.87437L312.863 57.8556C315.525 59.3879 317.846 62.6183 319.104 66.1806L298.079 78.3899Z" fill="#E6E6E6"/>
<path d="M303.248 324.449L206.411 268.488C202.373 266.155 199.106 259.889 199.106 254.502V13.0585C199.106 7.67121 202.373 5.19227 206.411 7.52482L303.248 63.4963C307.285 65.8289 310.552 72.0848 310.552 77.4721V318.916C310.581 324.303 307.315 326.782 303.248 324.449Z" fill="#CCCCCC"/>
<path d="M201.242 255.927V14.103C201.242 10.1992 203.631 8.37411 206.567 10.0723L303.112 65.8583C306.037 67.5565 308.436 72.124 308.436 76.0474V317.842C308.436 321.746 306.057 323.581 303.112 321.883L206.567 266.087C203.631 264.418 201.242 259.86 201.242 255.927Z" fill="#333333"/>
<path d="M305.618 78.6142V312.845C305.618 316.33 303.16 317.725 300.147 315.959L209.561 263.618C207.964 262.583 206.633 261.185 205.677 259.538C204.722 257.892 204.168 256.042 204.061 254.141V19.91C204.061 16.4258 206.528 15.0302 209.561 16.7772L226.139 26.3416C226.895 26.8358 227.427 27.6066 227.621 28.4887L228.392 31.9827C228.789 33.8066 229.55 35.5315 230.629 37.0541C231.709 38.5768 233.084 39.8659 234.672 40.8444L275.065 64.1797C278.137 65.9559 280.789 65.2825 281.345 62.5791L282.115 59.9733C282.301 59.3194 282.915 59.1437 283.608 59.5439L300.186 69.1181C301.774 70.1621 303.093 71.5661 304.037 73.2161C304.98 74.866 305.522 76.7154 305.618 78.6142Z" fill="#80C5FF"/>
<path d="M285.304 136.762C286.139 137.303 286.834 138.034 287.331 138.896C287.828 139.758 288.112 140.726 288.162 141.72V151.636C288.162 153.461 286.874 154.203 285.285 153.285L227.183 119.722C226.348 119.178 225.653 118.445 225.155 117.582C224.657 116.718 224.369 115.75 224.315 114.754V104.838C224.315 103.013 225.612 102.281 227.241 103.189L285.304 136.762Z" fill="#57B2FF"/>
<path d="M285.304 171.448C286.139 171.988 286.834 172.72 287.331 173.582C287.828 174.444 288.112 175.412 288.162 176.406V186.331C288.162 188.156 286.874 188.888 285.285 187.971L227.183 154.417C226.348 153.876 225.653 153.144 225.155 152.282C224.657 151.421 224.369 150.453 224.315 149.459V139.534C224.315 137.709 225.612 136.977 227.241 137.884L285.304 171.448Z" fill="#57B2FF"/>
<g style="mix-blend-mode:multiply">
<path d="M204.08 164.509V181.296L199.106 178.426V161.64L204.08 164.509Z" fill="#B3B3B3"/>
</g>
<path d="M288.172 217.523V225.438C288.172 227.868 286.426 228.864 284.271 227.654L204.07 181.305V164.519L284.329 210.867C285.446 211.598 286.376 212.581 287.043 213.737C287.71 214.893 288.097 216.19 288.172 217.523Z" fill="#57B2FF"/>
<path d="M241.508 230.484C242.313 231.008 242.983 231.715 243.463 232.548C243.942 233.381 244.218 234.316 244.268 235.276L244.19 262.457C244.19 264.213 242.941 264.916 241.41 264.028L217.781 250.364C216.977 249.843 216.308 249.139 215.829 248.31C215.349 247.48 215.072 246.549 215.021 245.592L215.099 218.411C215.099 216.655 216.348 215.942 217.879 216.82L241.508 230.484Z" fill="#57B2FF"/>
<path d="M285.402 255.81C286.208 256.331 286.878 257.037 287.358 257.868C287.838 258.7 288.114 259.633 288.162 260.592L288.084 287.763C288.084 289.53 286.836 290.232 285.315 289.344L261.676 275.681C260.871 275.159 260.201 274.453 259.721 273.622C259.241 272.791 258.965 271.857 258.916 270.899L258.994 243.728C258.994 241.971 260.242 241.259 261.773 242.137L285.402 255.81Z" fill="#57B2FF"/>
<path d="M283.744 82.567C285.043 83.4105 286.123 84.5497 286.898 85.8915C287.673 87.2333 288.119 88.7394 288.2 90.2869L288.132 113.554C288.132 116.384 286.123 117.536 283.656 116.111L216.582 77.3554C215.283 76.5113 214.203 75.3719 213.428 74.0303C212.654 72.6887 212.207 71.1828 212.125 69.6355L212.193 46.3685C212.193 43.5285 214.212 42.3866 216.669 43.8115L283.744 82.567Z" fill="#57B2FF"/>
<g style="mix-blend-mode:multiply">
<path d="M204.08 91.8967V137.464L199.106 134.595V89.0176L204.08 91.8967Z" fill="#B3B3B3"/>
</g>
<path d="M211.501 100.632L211.384 137.29C211.384 139.72 209.668 140.696 207.483 139.485L204.031 137.534V91.9561L207.61 94.0348C208.73 94.7525 209.666 95.7235 210.342 96.8695C211.017 98.0155 211.415 99.3044 211.501 100.632Z" fill="#57B2FF"/>
<path d="M238.339 37.4772C238.339 39.3413 237.022 40.0928 235.413 39.1559C234.561 38.5999 233.852 37.8506 233.343 36.9688C232.835 36.0869 232.542 35.0975 232.487 34.0809C232.487 32.2168 233.804 31.4653 235.413 32.4022C236.264 32.9593 236.972 33.7089 237.48 34.5905C237.989 35.4721 238.283 36.461 238.339 37.4772Z" fill="#666666"/>
<path d="M237.013 36.7064C237.013 37.6824 236.291 38.1411 235.404 37.6824C234.924 37.37 234.527 36.9457 234.246 36.446C233.966 35.9462 233.811 35.3859 233.795 34.813C233.795 33.7883 234.507 33.3784 235.404 33.8956C235.876 34.2023 236.269 34.6173 236.548 35.1062C236.828 35.595 236.987 36.1436 237.013 36.7064Z" fill="#333333"/>
<path d="M268.961 51.0337L240.221 34.4423C239.959 34.2561 239.745 34.0105 239.596 33.7255C239.447 33.4406 239.367 33.1244 239.363 32.8027V31.6218C239.363 30.9874 239.744 30.6458 240.221 30.9777L268.961 47.569C269.221 47.7569 269.434 48.0028 269.583 48.2874C269.732 48.572 269.813 48.8874 269.819 49.2086V50.4286C269.819 51.0142 269.429 51.307 268.961 51.0337Z" fill="black"/>
<path d="M317.515 109.075C317.157 108.909 316.762 108.842 316.369 108.879C315.977 108.917 315.602 109.059 315.282 109.289C314.367 109.879 313.607 110.68 313.064 111.624C312.521 112.568 312.211 113.628 312.161 114.716L312.239 143.409C312.2 143.795 312.264 144.185 312.425 144.539C312.586 144.892 312.838 145.196 313.156 145.419L314.901 146.395C314.585 146.17 314.333 145.866 314.171 145.514C314.008 145.161 313.941 144.772 313.975 144.385L313.897 115.682C313.954 114.597 314.267 113.541 314.809 112.599C315.351 111.658 316.108 110.858 317.018 110.265C317.337 110.034 317.713 109.893 318.105 109.855C318.498 109.818 318.893 109.885 319.251 110.05L317.515 109.075Z" fill="#E6E6E6"/>
<path d="M317.018 110.304C318.754 109.328 320.158 110.109 320.168 112.1L320.246 140.793C320.189 141.88 319.877 142.937 319.335 143.88C318.793 144.823 318.036 145.625 317.125 146.219C315.39 147.195 313.985 146.395 313.975 144.424L313.897 115.721C313.955 114.636 314.267 113.579 314.81 112.638C315.352 111.697 316.109 110.897 317.018 110.304Z" fill="#BFBFBF"/>
<path d="M317.534 113.535C318.958 112.715 320.109 113.369 320.109 115.009L320.177 138.549C320.13 139.439 319.873 140.305 319.427 141.077C318.982 141.849 318.36 142.504 317.612 142.99C316.198 143.809 315.038 143.136 315.038 141.516L314.95 117.976C315 117.084 315.261 116.217 315.71 115.445C316.159 114.673 316.784 114.019 317.534 113.535Z" fill="#CCCCCC"/>
<path d="M196.084 34.7252L172.455 21.0617C172.176 20.8598 171.849 20.7354 171.506 20.7011C171.163 20.6668 170.818 20.7239 170.505 20.8665L166.067 23.4528C166.381 23.3102 166.726 23.2531 167.069 23.2874C167.411 23.3217 167.739 23.4461 168.018 23.648L191.657 37.3115C192.46 37.8358 193.128 38.5419 193.607 39.3727C194.087 40.2036 194.364 41.1357 194.416 42.0937L194.338 69.2743C194.371 69.6154 194.314 69.9592 194.172 70.271C194.029 70.5828 193.808 70.8516 193.529 71.0505L197.976 68.4642C198.253 68.2642 198.473 67.9948 198.613 67.6831C198.753 67.3714 198.809 67.0282 198.776 66.688L198.854 39.5172C198.803 38.5563 198.526 37.621 198.044 36.788C197.563 35.9551 196.891 35.2482 196.084 34.7252Z" fill="#8482FF"/>
<path d="M191.647 37.3113C192.449 37.8356 193.118 38.5417 193.597 39.3725C194.077 40.2034 194.354 41.1355 194.406 42.0935L194.328 69.2741C194.328 71.0308 193.08 71.7335 191.549 70.8552L167.92 57.1917C167.115 56.6691 166.446 55.9634 165.966 55.1322C165.487 54.301 165.21 53.368 165.16 52.4095L165.238 25.2386C165.238 23.4721 166.477 22.7597 168.008 23.6478L191.647 37.3113Z" fill="#4D4BB7"/>
<path d="M178.091 48.6713L175.868 54.6344L166.623 49.2862L172.367 41.1759C173.167 40.0438 175.185 41.1759 175.995 43.2742L178.091 48.6713Z" fill="white"/>
<path d="M181.739 58.0216L175.878 54.6252L178.092 48.6621L181.739 58.0216Z" fill="#E6E6E6"/>
<path d="M190.984 63.3601L181.739 58.0216L178.092 48.6718L180.9 41.1374C181.739 38.8829 185.113 40.8349 185.962 44.0653L190.984 63.3601Z" fill="white"/>
<path d="M178.13 38.0725C178.13 39.3802 177.213 39.9073 176.072 39.2436C175.472 38.8546 174.972 38.3292 174.612 37.7102C174.253 37.0912 174.045 36.3961 174.005 35.6813C174.005 34.3736 174.931 33.8465 176.072 34.5004C176.672 34.8921 177.17 35.4197 177.528 36.0403C177.885 36.6609 178.092 37.3571 178.13 38.0725Z" fill="#E6E6E6"/>
<path d="M283.023 138.139L224.95 104.585C224.657 104.373 224.313 104.242 223.954 104.206C223.594 104.17 223.231 104.23 222.902 104.38L218.465 106.966C218.791 106.814 219.152 106.752 219.51 106.786C219.869 106.821 220.212 106.95 220.503 107.162L278.586 140.725C279.418 141.269 280.11 142.001 280.606 142.863C281.102 143.724 281.389 144.69 281.443 145.683V155.599C281.479 155.954 281.42 156.313 281.273 156.639C281.126 156.964 280.895 157.245 280.605 157.453L285.012 154.857C285.303 154.651 285.534 154.372 285.681 154.048C285.828 153.724 285.887 153.367 285.851 153.012V143.097C285.804 142.105 285.524 141.14 285.032 140.278C284.54 139.416 283.852 138.683 283.023 138.139Z" fill="#8482FF"/>
<path d="M278.586 140.725C279.417 141.268 280.109 142.001 280.606 142.862C281.102 143.723 281.389 144.69 281.443 145.682V155.598C281.443 157.423 280.156 158.165 278.566 157.248L220.454 123.694C219.622 123.148 218.93 122.414 218.434 121.551C217.937 120.688 217.651 119.721 217.597 118.726V108.811C217.597 106.985 218.884 106.244 220.473 107.161L278.586 140.725Z" fill="#4D4BB7"/>
<path d="M276.654 146.795L223.389 115.867C222.775 115.515 222.287 115.867 222.287 116.706C222.292 117.119 222.394 117.526 222.586 117.892C222.777 118.259 223.052 118.574 223.389 118.814L276.654 149.742C277.259 150.094 277.756 149.742 277.756 148.903C277.749 148.49 277.646 148.085 277.455 147.719C277.263 147.353 276.989 147.036 276.654 146.795Z" fill="white"/>
<path d="M283.023 172.824L224.95 139.241C224.66 139.027 224.318 138.895 223.959 138.859C223.6 138.823 223.239 138.884 222.912 139.036L218.465 141.622C218.791 141.47 219.152 141.408 219.51 141.442C219.869 141.476 220.212 141.606 220.503 141.817L278.586 175.381C279.418 175.925 280.11 176.657 280.606 177.518C281.102 178.379 281.389 179.346 281.443 180.339V190.264C281.479 190.618 281.42 190.976 281.273 191.3C281.126 191.624 280.895 191.903 280.605 192.109L285.051 189.522C285.339 189.315 285.568 189.035 285.713 188.711C285.859 188.387 285.916 188.031 285.88 187.678V177.762C285.826 176.772 285.54 175.808 285.043 174.95C284.546 174.092 283.854 173.363 283.023 172.824Z" fill="#8482FF"/>
<path d="M278.586 175.41C279.417 175.954 280.109 176.686 280.606 177.548C281.102 178.409 281.389 179.375 281.443 180.368V190.294C281.443 192.119 280.156 192.851 278.566 191.933L220.454 158.38C219.622 157.836 218.93 157.103 218.434 156.242C217.937 155.381 217.651 154.414 217.597 153.422V143.496C217.597 141.671 218.884 140.929 220.473 141.847L278.586 175.41Z" fill="#4D4BB7"/>
<path d="M276.654 180.924L223.389 149.976C222.775 149.625 222.287 149.976 222.287 150.815C222.292 151.229 222.394 151.635 222.586 152.002C222.777 152.368 223.052 152.684 223.389 152.924L276.654 183.852C277.259 184.203 277.756 183.852 277.756 183.013C277.746 182.603 277.642 182.201 277.45 181.839C277.259 181.476 276.987 181.163 276.654 180.924Z" fill="white"/>
<path d="M196.084 206.983L172.455 193.32C172.176 193.118 171.849 192.993 171.506 192.959C171.163 192.925 170.818 192.982 170.505 193.124L166.067 195.711C166.381 195.568 166.726 195.511 167.069 195.545C167.411 195.579 167.739 195.704 168.018 195.906L191.657 209.569C192.46 210.094 193.128 210.8 193.607 211.631C194.087 212.461 194.364 213.394 194.416 214.352L194.338 241.532C194.371 241.873 194.314 242.217 194.172 242.529C194.029 242.841 193.808 243.109 193.529 243.308L197.927 240.742C198.204 240.542 198.424 240.272 198.564 239.96C198.705 239.649 198.761 239.306 198.727 238.965L198.805 211.794C198.764 210.834 198.495 209.898 198.022 209.061C197.55 208.225 196.885 207.513 196.084 206.983Z" fill="#8482FF"/>
<path d="M191.647 209.569C192.449 210.094 193.118 210.8 193.597 211.631C194.077 212.461 194.354 213.394 194.406 214.352L194.328 241.532C194.328 243.289 193.08 243.992 191.549 243.113L167.92 229.45C167.115 228.927 166.446 228.221 165.966 227.39C165.487 226.559 165.21 225.626 165.16 224.668L165.238 197.487C165.238 195.73 166.477 195.018 168.008 195.906L191.647 209.569Z" fill="#4D4BB7"/>
<path d="M190.867 218.802L179.613 219.778L168.184 205.695C168.184 205.246 168.496 205.07 168.876 205.295L190.174 217.592C190.376 217.726 190.543 217.905 190.663 218.115C190.783 218.325 190.853 218.56 190.867 218.802Z" fill="white"/>
<path d="M179.613 220.676L190.867 219.7V233.422C190.867 233.861 190.555 234.037 190.174 233.812L168.876 221.515C168.676 221.383 168.509 221.205 168.388 220.997C168.268 220.788 168.198 220.555 168.184 220.315V206.583L179.398 220.471L179.613 220.676Z" fill="white"/>
<path d="M282.047 212.253L176.901 151.499C176.511 151.212 176.05 151.035 175.568 150.987C175.086 150.939 174.6 151.021 174.161 151.226L169.724 153.812C170.163 153.608 170.648 153.525 171.13 153.572C171.611 153.618 172.072 153.792 172.464 154.076L277.61 214.83C278.727 215.556 279.657 216.537 280.323 217.692C280.989 218.847 281.373 220.144 281.442 221.476V229.401C281.487 229.875 281.406 230.354 281.208 230.787C281.009 231.221 280.7 231.594 280.311 231.87L284.758 229.293C285.147 229.016 285.456 228.641 285.653 228.205C285.85 227.77 285.928 227.29 285.88 226.814V218.899C285.812 217.567 285.429 216.27 284.763 215.115C284.096 213.959 283.166 212.978 282.047 212.253Z" fill="#8482FF"/>
<path d="M277.61 214.829C278.728 215.556 279.658 216.537 280.324 217.692C280.99 218.847 281.373 220.144 281.443 221.476V229.401C281.443 231.84 279.707 232.836 277.542 231.606L172.416 170.853C171.297 170.125 170.366 169.142 169.7 167.985C169.034 166.829 168.651 165.53 168.583 164.196V156.281C168.583 153.832 170.319 152.856 172.484 154.076L277.61 214.829Z" fill="#4D4BB7"/>
<path d="M274.84 220.802L173.624 161.971C173.01 161.62 172.522 161.971 172.522 162.811C172.527 163.224 172.63 163.63 172.821 163.997C173.013 164.363 173.288 164.679 173.624 164.919L274.84 223.75C275.445 224.101 275.942 223.75 275.942 222.92C275.936 222.506 275.833 222.098 275.642 221.731C275.45 221.363 275.176 221.045 274.84 220.802Z" fill="white"/>
<path d="M239.227 231.87L215.598 218.206C215.319 218.004 214.991 217.88 214.649 217.846C214.306 217.811 213.96 217.868 213.647 218.011L209.21 220.588C209.523 220.445 209.869 220.388 210.211 220.422C210.554 220.456 210.881 220.581 211.16 220.783L234.799 234.446C235.604 234.97 236.274 235.678 236.754 236.511C237.234 237.344 237.51 238.278 237.559 239.238L237.481 266.409C237.514 266.75 237.456 267.094 237.314 267.406C237.172 267.718 236.95 267.986 236.672 268.185L241.118 265.599C241.396 265.401 241.616 265.134 241.758 264.824C241.9 264.514 241.959 264.172 241.928 263.833L242.006 236.652C241.952 235.692 241.672 234.758 241.189 233.927C240.706 233.096 240.034 232.391 239.227 231.87Z" fill="#8482FF"/>
<path d="M234.789 234.446C235.594 234.97 236.264 235.677 236.744 236.51C237.224 237.343 237.5 238.278 237.549 239.238L237.471 266.409C237.471 268.175 236.223 268.878 234.692 267.99L211.063 254.326C210.259 253.805 209.59 253.101 209.11 252.272C208.63 251.442 208.354 250.511 208.303 249.554L208.381 222.373C208.381 220.616 209.629 219.904 211.15 220.782L234.789 234.446Z" fill="#4D4BB7"/>
<path d="M232.663 258.874L213.159 247.602C212.539 247.198 212.022 246.654 211.651 246.013C211.28 245.372 211.065 244.653 211.023 243.913V233.177C211.023 231.821 211.999 231.225 213.159 231.957L232.663 243.24C233.284 243.643 233.8 244.188 234.172 244.829C234.543 245.47 234.757 246.189 234.799 246.929V257.664C234.799 259.011 233.843 259.558 232.663 258.874ZM213.159 232.953C212.467 232.553 211.911 232.875 211.911 233.665V244.401C211.935 244.832 212.06 245.251 212.277 245.625C212.494 245.998 212.796 246.314 213.159 246.548L232.663 257.83C233.356 258.221 233.911 257.908 233.911 257.118V246.382C233.888 245.95 233.762 245.529 233.545 245.154C233.328 244.779 233.026 244.461 232.663 244.225L213.159 232.953Z" fill="white"/>
<path d="M222.912 251.477C221.404 250.496 220.148 249.174 219.245 247.617C218.342 246.061 217.818 244.314 217.714 242.517C217.714 239.228 220.045 237.901 222.912 239.589C224.417 240.572 225.671 241.894 226.573 243.45C227.474 245.007 227.997 246.753 228.1 248.549C228.1 251.808 225.769 253.136 222.912 251.477ZM222.912 240.575C220.532 239.199 218.611 240.302 218.611 243.025C218.693 244.514 219.126 245.963 219.873 247.254C220.62 248.544 221.661 249.64 222.912 250.452C225.281 251.818 227.212 250.725 227.212 248.002C227.126 246.515 226.692 245.069 225.945 243.781C225.198 242.492 224.159 241.398 222.912 240.585V240.575Z" fill="white"/>
<path d="M229.075 241.961L216.748 234.885V232.299C216.748 231.411 217.372 231.059 218.143 231.498L227.67 237.003C228.077 237.269 228.416 237.626 228.66 238.046C228.903 238.467 229.046 238.938 229.075 239.423V241.961ZM217.635 234.338L228.158 240.428V238.867C228.15 238.691 228.099 238.519 228.011 238.366C227.923 238.213 227.799 238.084 227.651 237.989L218.123 232.484C217.85 232.318 217.616 232.484 217.616 232.777L217.635 234.338Z" fill="white"/>
<path d="M283.13 257.186L259.491 243.523C259.212 243.321 258.885 243.196 258.542 243.162C258.2 243.128 257.854 243.185 257.541 243.327L253.104 245.914C253.416 245.77 253.761 245.711 254.104 245.744C254.446 245.776 254.774 245.899 255.054 246.099L278.683 259.763C279.487 260.286 280.156 260.992 280.636 261.823C281.115 262.654 281.392 263.587 281.443 264.545L281.365 291.716C281.398 292.057 281.34 292.401 281.198 292.712C281.056 293.024 280.834 293.293 280.555 293.492L285.002 290.915C285.279 290.715 285.499 290.446 285.639 290.134C285.78 289.823 285.836 289.479 285.802 289.139L285.88 261.959C285.832 261.002 285.557 260.071 285.079 259.241C284.601 258.411 283.933 257.707 283.13 257.186Z" fill="#8482FF"/>
<path d="M278.683 259.772C279.487 260.295 280.156 261.001 280.635 261.832C281.115 262.663 281.392 263.596 281.443 264.554L281.365 291.725C281.365 293.482 280.116 294.194 278.585 293.306L254.956 279.643C254.15 279.122 253.479 278.417 252.999 277.585C252.519 276.753 252.244 275.82 252.196 274.86L252.274 247.69C252.274 245.933 253.523 245.22 255.054 246.099L278.683 259.772Z" fill="#4D4BB7"/>
<path d="M266.922 259.177C261.519 256.054 257.17 257.684 257.17 262.818C257.17 266.136 259.013 270.108 261.773 273.348C261.646 274.217 261.08 276.032 258.613 274.637C258.613 274.637 262.026 278.404 265.254 276.589C265.798 276.997 266.365 277.375 266.951 277.721C272.354 280.844 276.703 279.214 276.703 274.08C276.703 268.947 272.325 262.3 266.922 259.177Z" fill="white"/>
<path d="M281.433 83.943L214.358 45.1875C213.904 44.8565 213.37 44.653 212.811 44.5981C212.252 44.5432 211.689 44.6388 211.179 44.8752L206.703 47.5005C207.211 47.262 207.773 47.165 208.331 47.22C208.889 47.275 209.421 47.4798 209.873 47.8128L276.986 86.5391C278.285 87.3826 279.366 88.5218 280.14 89.8635C280.915 91.2053 281.361 92.7115 281.442 94.2589L281.374 117.526C281.433 118.076 281.342 118.632 281.112 119.135C280.882 119.638 280.521 120.07 280.067 120.385L284.514 117.809C284.964 117.487 285.321 117.052 285.551 116.549C285.78 116.045 285.873 115.49 285.821 114.94L285.88 91.6726C285.805 90.1233 285.363 88.6139 284.59 87.2697C283.817 85.9254 282.734 84.785 281.433 83.943Z" fill="#8482FF"/>
<path d="M276.986 86.5387C278.285 87.3822 279.366 88.5214 280.14 89.8632C280.915 91.2049 281.361 92.7111 281.442 94.2586L281.374 117.526C281.374 120.356 279.356 121.507 276.898 120.073L209.824 81.3075C208.526 80.465 207.446 79.3273 206.672 77.9874C205.897 76.6474 205.45 75.1432 205.367 73.5974L205.435 50.3305C205.435 47.4904 207.444 46.3485 209.912 47.7734L276.986 86.5387Z" fill="#4D4BB7"/>
<path d="M275.299 92.1118L212.057 55.4156C211.452 55.0642 210.955 55.4156 210.955 56.2549C210.962 56.6679 211.066 57.0735 211.257 57.4394C211.448 57.8054 211.722 58.1216 212.057 58.363L275.299 95.0592C275.913 95.4106 276.41 95.0592 276.41 94.2199C276.404 93.8058 276.3 93.3991 276.106 93.0329C275.913 92.6666 275.637 92.351 275.299 92.1118Z" fill="white"/>
<path d="M275.299 100.895L212.057 64.209C211.452 63.8479 210.955 64.209 210.955 65.0386C210.961 65.453 211.064 65.8603 211.256 66.228C211.447 66.5956 211.721 66.9135 212.057 67.1564L275.299 103.843C275.913 104.194 276.41 103.843 276.41 103.004C276.404 102.589 276.3 102.183 276.106 101.817C275.913 101.45 275.637 101.135 275.299 100.895Z" fill="white"/>
<path d="M275.299 109.679L212.057 72.9929C211.452 72.6416 210.955 72.9929 210.955 73.8225C210.961 74.2369 211.064 74.6442 211.256 75.0119C211.447 75.3795 211.721 75.6974 212.057 75.9403L275.299 112.627C275.913 112.978 276.41 112.627 276.41 111.797C276.404 111.382 276.301 110.973 276.108 110.605C275.914 110.237 275.637 109.92 275.299 109.679Z" fill="white"/>
<path d="M172.952 92.9514C172.873 92.7476 172.808 92.539 172.756 92.3268C172.737 92.0995 172.737 91.8709 172.756 91.6436C172.759 91.3877 172.702 91.1347 172.59 90.9045C172.479 90.6742 172.315 90.4729 172.113 90.3163C171.941 90.2134 171.781 90.0924 171.635 89.9552C171.523 89.8032 171.422 89.6434 171.333 89.477C171.028 89.1225 170.634 88.856 170.191 88.705C169.749 88.554 169.274 88.524 168.817 88.6182C166.884 88.87 165.028 89.5357 163.375 90.5701C161.043 91.8143 159.037 93.5936 157.524 95.7622C156.962 96.6285 156.491 97.5508 156.12 98.5144C155.793 99.3582 155.51 100.218 155.271 101.091C155.115 101.677 154.901 102.243 154.784 102.838C154.721 103.111 154.682 103.388 154.667 103.668C154.691 103.926 154.643 104.186 154.53 104.419C154.335 104.692 136.372 127.169 135.094 128.76C133.973 130.155 133.066 131.883 131.749 133.093C129.029 135.601 125.479 137.397 122.173 139.007C119.481 140.315 114.722 141.496 115.902 145.614C116.393 146.785 117.155 147.822 118.126 148.64C119.6 150.203 120.782 152.018 121.617 153.998C121.651 154.124 121.726 154.234 121.832 154.31C121.918 154.339 122.011 154.346 122.101 154.331C122.191 154.316 122.276 154.278 122.348 154.222C127.029 151.724 139.853 142.667 142.028 141.349C142.028 141.281 142.028 141.213 142.028 141.144C142.672 140.761 143.222 140.237 143.637 139.612C145.217 137.485 146.699 135.289 148.103 133.034C149.508 130.78 150.824 128.486 152.092 126.202C153.36 123.919 154.569 121.498 155.749 119.117C156.929 116.736 159.65 110.968 159.874 110.489C160.098 110.011 160.137 109.582 160.537 109.396C160.791 109.27 161.074 109.279 161.337 109.143C161.623 108.981 161.885 108.781 162.117 108.547C164.74 106.127 166.203 102.692 168.261 99.832C168.613 99.3015 169.032 98.8192 169.509 98.3973C170.484 97.6361 171.733 97.2554 172.366 96.2307C172.598 95.7994 172.762 95.3354 172.854 94.8546C173.067 94.2425 173.101 93.5821 172.952 92.9514Z" fill="#FFB78C"/>
<path d="M103.839 355.631C103.835 356.394 104.001 357.148 104.325 357.839C104.649 358.529 105.123 359.139 105.711 359.623C106.454 360.087 107.314 360.327 108.188 360.316C110.595 360.402 112.947 359.584 114.781 358.022C116.819 356.276 118.077 353.709 120.252 352.167C121.456 351.387 122.737 350.733 124.074 350.215C127.307 348.756 130.299 346.815 132.949 344.457C133.598 343.956 134.122 343.311 134.48 342.573C134.694 342.004 134.706 341.378 134.512 340.802C134.318 340.226 133.931 339.734 133.417 339.411C132.759 339.042 132.038 338.801 131.291 338.698C128.627 338.318 125.924 338.298 123.255 338.64C119.841 338.836 116.469 339.492 113.23 340.592C111.838 341.114 110.513 341.799 109.281 342.632C108.822 342.954 108.149 343.764 107.603 343.861C107.085 343.775 106.584 343.603 106.121 343.354C105.302 345.712 104.651 348.126 104.171 350.576C103.854 352.241 103.743 353.939 103.839 355.631Z" fill="#4D4BB7"/>
<path d="M128.492 229.439C128.298 228.52 127.945 227.641 127.449 226.843C124.523 221.241 123.168 214.995 121.042 209.071C120.07 206.187 118.761 203.429 117.141 200.853C116.166 199.35 113.406 195.329 111.046 196.169C110.72 196.311 110.427 196.52 110.188 196.784C105.873 200.972 102.304 205.867 99.636 211.257C96.9872 216.481 95.6263 222.264 95.6669 228.122C95.6438 232.685 96.3516 237.222 97.7636 241.561C98.329 243.066 98.8013 244.604 99.1776 246.167C99.4571 247.844 99.5812 249.543 99.5482 251.242L99.753 271.093C99.753 274.129 99.753 277.183 100.007 280.199C100.347 283.278 100.145 286.393 99.4117 289.402C98.5344 292.489 97.9082 295.642 97.5393 298.83C96.5641 307.194 98.2902 315.617 100.036 323.864L104.756 346.145C104.816 346.586 104.991 347.003 105.263 347.355C105.54 347.596 105.877 347.758 106.238 347.824C108.312 348.336 110.5 348.116 112.431 347.199C114.341 346.276 116.1 345.069 117.648 343.617C118.087 343.27 118.458 342.843 118.74 342.358C119.374 341.119 118.789 339.645 118.253 338.357C113.533 326.831 113.903 313.743 116.77 301.612C117.745 297.474 119.003 293.384 119.579 289.158C119.619 288.835 119.638 288.509 119.637 288.182C119.633 288.163 119.633 288.143 119.637 288.124C124.162 269.444 126.464 250.305 128.482 231.196C128.556 230.613 128.559 230.023 128.492 229.439Z" fill="#333333"/>
<path d="M162.751 336.62C160.045 336.454 157.33 336.532 154.638 336.854C152.502 337.059 150.471 337.876 148.787 339.206C147.766 340.183 146.889 341.3 146.183 342.524C144.154 345.784 140.419 353.416 145.822 355.622C146.759 355.961 147.769 356.042 148.748 355.856C152.171 355.329 155.116 353.035 158.5 352.43C159.776 352.256 161.063 352.175 162.352 352.186C166.955 352.06 171.665 351.21 175.536 348.712C177.365 347.551 178.659 345.712 179.135 343.598C179.847 340.67 178.043 338.825 175.322 338.201C171.187 337.301 166.98 336.772 162.751 336.62Z" fill="#8482FF"/>
<path d="M158.295 334.561C155.545 325.434 154.171 315.947 154.219 306.414C154.219 298.811 153.243 290.798 154.219 283.274C155.054 275.461 154.725 267.567 153.243 259.851C151.049 247.68 145.686 236.145 144.613 223.828C144.213 219.182 144.428 214.488 143.638 209.891C138.074 212.75 131.678 213.542 125.587 212.126C122.483 211.267 119.438 210.211 116.469 208.964C115.211 208.437 113.865 208.32 112.568 207.861C111.515 207.412 110.556 206.77 109.74 205.968C105.511 211.062 102.828 217.262 102.009 223.834C101.189 230.407 102.268 237.076 105.117 243.054C107.653 248.422 111.739 252.199 116.147 256.064C120.389 259.792 124.855 263.423 127.927 268.166C130.57 272.275 131.994 277.506 133.291 282.171C134.843 287.43 135.791 292.849 136.119 298.323C136.353 303.388 135.66 308.083 136.548 313.148C136.947 315.46 137.501 317.742 138.206 319.98C140.79 328.11 145.442 335.908 145.139 344.428C145.087 344.789 145.159 345.157 145.344 345.472C145.533 345.674 145.777 345.817 146.046 345.882C149.538 347.004 153.38 345.482 156.305 343.247C157.357 342.536 158.201 341.56 158.753 340.416C159.494 338.552 158.919 336.464 158.295 334.561Z" fill="#424242"/>
<path d="M95.7255 144.277C94.6918 149.86 95.2672 155.989 96.3399 161.269C97.9019 168.916 100.084 176.423 102.864 183.716C104.005 186.692 105.243 189.679 105.497 192.851C105.946 198.424 103.303 203.723 100.67 208.652C100.381 209.086 100.225 209.594 100.221 210.116C100.293 210.536 100.474 210.93 100.748 211.257C104.087 215.78 108.734 219.166 114.059 220.959C119.358 222.725 124.929 223.531 130.511 223.34C135.241 223.281 140.078 222.735 144.32 220.636C144.554 213.678 144.798 206.729 144.729 199.77C144.671 193.231 143.101 186.361 144.661 179.9C145.217 177.567 146.192 175.342 146.797 173.068C147.449 170.587 147.686 168.014 147.499 165.456C147.343 163.377 146.738 161.073 144.934 160.019C144.378 159.697 143.744 159.522 143.169 159.219C140.438 157.784 139.775 153.939 137.142 152.329C136.146 151.823 135.087 151.452 133.992 151.226C122.485 148.005 113.786 133.854 100.982 135.884C100.294 135.947 99.6281 136.16 99.0314 136.508C98.4367 136.972 97.9756 137.585 97.6954 138.285C96.7718 140.184 96.1091 142.2 95.7255 144.277Z" fill="#D9D9D9"/>
<path d="M101.382 139.836C101.212 140.148 101.072 140.474 100.963 140.812C100.153 143.291 102.455 144.931 104.356 145.985C107.47 147.645 110.951 148.498 114.479 148.464C116.597 148.458 118.709 148.225 120.779 147.771C121.578 147.605 122.134 147.585 122.534 146.863C122.934 145.978 123.131 145.014 123.109 144.042C123.226 141.915 123.275 139.797 123.334 137.669C123.431 134.384 123.522 131.095 123.607 127.802C123.607 126.417 121.656 126.826 120.681 126.68C119.179 126.485 117.687 126.27 116.205 125.987C113.253 125.485 110.387 124.569 107.691 123.264C106.98 122.903 105.858 122.034 105.058 121.995C104.083 121.947 104.083 123.274 103.956 124.084C103.729 126.328 103.618 128.582 103.625 130.838C103.665 133.489 103.136 136.118 102.074 138.548C101.831 138.977 101.587 139.397 101.382 139.836Z" fill="#FFB78C"/>
<path d="M129.205 107.152C129.54 107.609 129.767 108.136 129.868 108.694C129.861 109.229 129.825 109.763 129.76 110.294C129.76 112.158 131.565 113.417 133.047 114.55C133.632 114.999 134.246 115.613 134.159 116.345C134.095 116.637 133.986 116.917 133.837 117.175C132.93 119.279 132.594 121.585 132.862 123.86C132.949 125.295 134.051 129.15 132.598 130.077C130.866 131.172 128.997 132.031 127.04 132.634C126.466 132.878 125.849 133.004 125.226 133.004C124.602 133.004 123.986 132.878 123.412 132.634C122.437 132.088 121.822 130.985 120.964 130.263C119.94 129.414 118.565 130.643 117.463 131.004C116.026 131.481 114.536 131.779 113.026 131.892C110.086 132.129 107.131 131.705 104.376 130.653C102.599 130.009 100.96 129.032 99.5487 127.774C98.0606 126.288 96.8077 124.583 95.8332 122.718C94.3106 120.35 93.2946 117.692 92.8491 114.911C92.6171 111.938 93.2976 108.966 94.7995 106.391C96.1385 103.943 97.9997 101.82 100.251 100.174C104.493 96.9334 110.139 96.2698 115.474 96.2698C117.293 96.1842 119.11 96.4938 120.798 97.1774C122.645 97.8888 124.144 99.2879 124.982 101.081C125.957 103.238 127.937 105.083 129.205 107.152Z" fill="#FFE5CC"/>
<path d="M117.61 120.961C118.345 119.84 119.374 118.942 120.584 118.365C123.373 116.853 123.87 113.398 124.231 110.558C124.801 106.839 124.493 103.039 123.334 99.461C122.174 96.3086 118.273 95.0398 115.269 94.669C111.557 94.204 107.788 94.6806 104.308 96.0548C99.1588 98.1336 94.868 102.994 92.5177 107.932C89.6604 113.934 89.5921 120.171 90.0505 126.642C90.1968 128.828 90.2748 130.36 91.7961 132.078C92.7606 133.106 93.8914 133.964 95.141 134.615C98.4969 136.484 102.212 137.616 106.038 137.938C109.865 138.259 113.716 137.762 117.337 136.479C118.435 136.14 119.461 135.597 120.36 134.879C122.505 133.034 122.174 130.448 120.408 128.447C119.511 127.422 117.97 127.276 117.278 125.988C116.995 125.357 116.867 124.667 116.907 123.977C116.862 122.927 117.105 121.884 117.61 120.961Z" fill="#733118"/>
<path d="M205.377 95.3232L171.46 75.8039C171.069 75.5185 170.608 75.3427 170.127 75.2947C169.645 75.2466 169.159 75.3281 168.719 75.5306L164.272 78.1169C164.711 77.913 165.197 77.8299 165.678 77.8762C166.16 77.9226 166.621 78.0966 167.013 78.3804L200.94 97.9875C202.049 98.7125 202.971 99.6883 203.634 100.836C204.296 101.984 204.68 103.271 204.753 104.595L204.655 141.223C204.702 141.697 204.623 142.175 204.427 142.608C204.23 143.042 203.922 143.416 203.534 143.692L207.971 141.106C208.36 140.833 208.67 140.461 208.867 140.029C209.064 139.596 209.142 139.119 209.093 138.646L209.2 102.009C209.137 100.671 208.757 99.3675 208.093 98.2053C207.428 97.0431 206.497 96.0553 205.377 95.3232Z" fill="#8482FF"/>
<path d="M200.94 97.9481C202.054 98.6769 202.98 99.6589 203.643 100.814C204.305 101.969 204.686 103.264 204.753 104.594L204.656 141.222C204.656 143.662 202.92 144.648 200.755 143.418L166.886 123.821C165.769 123.093 164.839 122.112 164.171 120.957C163.504 119.803 163.118 118.507 163.044 117.175L163.151 80.5467C163.151 78.1068 164.887 77.1211 167.052 78.3508L200.94 97.9481Z" fill="#4D4BB7"/>
<path d="M182.752 98.5931C176.784 95.148 171.957 97.9002 171.957 104.761C171.957 111.622 176.784 119.967 182.752 123.412C188.721 126.857 193.558 124.095 193.558 117.244C193.558 110.393 188.721 102.038 182.752 98.5931ZM180.119 115.184V104.039L188.535 114.482L180.119 115.184Z" fill="white"/>
<path d="M148.475 176.201C159.202 177.128 169.978 176.327 180.656 175.41H180.812C183.514 175.156 184.138 172.882 185.201 170.755C186.176 168.861 186.995 166.909 187.824 164.957C192.29 154.456 196.224 143.753 199.624 132.848C200.357 131.919 201.232 131.112 202.218 130.457C205.939 127.473 208.94 123.686 210.995 119.38C211.658 118.004 212.204 116.354 211.482 115.017C211.214 114.628 210.973 114.22 210.761 113.797C210.556 113.27 210.624 112.675 210.458 112.138C210.078 110.928 208.674 110.333 208.069 109.21C207.835 108.761 207.679 108.234 207.211 108.01C207.008 107.957 206.793 107.965 206.595 108.035C206.397 108.105 206.224 108.232 206.099 108.4C205.856 108.738 205.671 109.114 205.553 109.513C204.662 111.761 202.96 113.593 200.784 114.647C200.593 114.773 200.372 114.848 200.144 114.865C199.915 114.882 199.686 114.841 199.478 114.744C200.14 113.68 200.627 112.517 200.921 111.299C201.151 110.608 201.151 109.862 200.921 109.171C200.787 108.835 200.53 108.562 200.202 108.409C199.873 108.257 199.499 108.236 199.156 108.352C198.512 108.654 198.366 109.474 198.181 110.167C197.913 111.325 197.434 112.424 196.767 113.407C196.074 114.383 195.187 115.291 194.504 116.335C193.946 117.208 193.519 118.159 193.236 119.155C192.745 120.976 192.489 122.852 192.476 124.738C192.444 125.764 192.326 126.786 192.125 127.793C192.125 127.9 192.037 127.998 191.998 128.105C190.876 131.189 175.868 159.541 173.693 162.84C173.05 162.84 172.426 162.84 171.831 162.742C164.741 161.922 157.583 160.79 151.069 157.862C147.772 156.388 144.652 154.466 141.19 153.431C137.728 152.397 133.7 152.387 130.794 154.524C128.464 156.232 127.284 158.994 126.718 161.747C124.543 172.355 138.011 175.02 145.656 175.947C146.592 176.025 147.529 176.122 148.475 176.201Z" fill="#FFE5CC"/>
<path d="M159.894 167.661C159.928 171.301 159.032 174.889 157.29 178.084C157.088 178.601 156.719 179.035 156.242 179.318C155.765 179.601 155.207 179.716 154.657 179.646C153.677 179.613 152.7 179.521 151.731 179.372C146.236 178.618 140.812 177.414 135.514 175.771C133.074 175.185 130.739 174.227 128.59 172.931C127.352 172.124 126.307 171.054 125.528 169.798C124.274 167.735 123.83 165.28 124.279 162.908C124.677 160.749 125.595 158.719 126.955 156.996C128.315 155.273 130.074 153.909 132.081 153.021C132.616 152.799 133.171 152.629 133.739 152.514C134.92 152.314 136.127 152.314 137.308 152.514C140.643 153.12 143.909 154.055 147.06 155.305L157.222 158.975C158.704 159.512 158.792 160.8 159.172 162.166C159.655 163.958 159.897 165.805 159.894 167.661Z" fill="#F2F2F2"/>
<path d="M160.147 93.2829C159.175 93.7997 158.284 94.4574 157.504 95.2348C157.021 95.8829 156.677 96.6242 156.494 97.412C156.311 98.1998 156.293 99.017 156.441 99.812C156.501 100.507 156.729 101.177 157.104 101.764C157.29 102.069 157.552 102.321 157.866 102.492C158.179 102.663 158.532 102.749 158.889 102.74C159.214 102.684 159.525 102.564 159.803 102.386C160.081 102.208 160.32 101.977 160.508 101.705C160.949 101.159 161.28 100.533 161.483 99.8608C161.873 98.514 161.746 96.9818 162.546 95.8301C162.941 95.3302 163.4 94.884 163.911 94.5028C164.531 93.9825 165.079 93.3819 165.54 92.7168C165.874 92.2381 166.11 91.6972 166.232 91.126C166.348 90.5507 166.247 89.9529 165.949 89.4473C165.091 88.081 163.999 90.0329 163.414 90.6282C162.437 91.6428 161.34 92.5342 160.147 93.2829Z" fill="#FFE5CC"/>
<path d="M303.141 215.054L322.04 219.495C325.841 220.276 329.566 221.383 333.177 222.804C336.802 224.234 339.989 226.59 342.422 229.635C342.549 229.811 342.685 230.055 342.559 230.231C342.463 230.337 342.33 230.403 342.188 230.416C337.312 231.392 332.368 232.368 327.414 231.958C323.605 231.54 319.881 230.553 316.365 229.03C312.414 227.401 308.607 225.442 304.984 223.174C302.059 221.388 299.24 219.271 297.631 216.343C297.502 216.203 297.409 216.033 297.359 215.849C297.31 215.666 297.305 215.472 297.346 215.286C297.388 215.1 297.473 214.927 297.596 214.781C297.718 214.636 297.874 214.522 298.05 214.449C298.87 213.913 299.582 213.386 300.449 213.991C301.271 214.513 302.184 214.874 303.141 215.054Z" fill="#FFB78C"/>
<path d="M381.908 255.605C381.908 264.282 375.793 274.851 368.255 279.204C364.432 281.41 360.98 281.605 358.503 280.122C358.451 280.103 358.401 280.077 358.357 280.043C353.758 277.461 348.723 275.747 343.504 274.988C336.337 273.797 329.023 273.817 321.758 273.28C318.628 273.164 315.533 272.589 312.571 271.572C309.294 270.153 306.291 268.171 303.697 265.716C301.376 263.696 299.123 261.539 296.87 259.402C290.22 253.019 283.565 246.643 276.908 240.273C276.097 239.549 275.362 238.745 274.714 237.872C274.501 237.405 274.409 236.892 274.447 236.381C274.484 235.869 274.65 235.375 274.928 234.944C275.444 234.077 276.123 233.318 276.928 232.709C276.971 232.683 277.011 232.65 277.045 232.612C277.098 232.565 277.138 232.505 277.162 232.439C277.186 232.372 277.192 232.301 277.181 232.231C277.139 232.17 277.086 232.117 277.025 232.075L276.908 231.977C275.358 230.708 273.817 229.459 272.256 228.21C271.21 227.544 270.42 226.543 270.013 225.37C269.912 224.813 269.956 224.24 270.141 223.705C270.325 223.17 270.644 222.691 271.067 222.315C271.473 221.946 271.951 221.663 272.471 221.486C272.662 221.417 272.863 221.384 273.066 221.388C273.422 221.437 273.783 221.437 274.139 221.388C273.378 220.832 272.607 220.275 271.837 219.739C271.125 219.192 270.413 218.694 269.701 218.177C269.277 217.904 268.915 217.544 268.641 217.12C268.367 216.695 268.186 216.217 268.112 215.718C268.091 214.955 268.294 214.202 268.696 213.553C269.098 212.904 269.682 212.388 270.374 212.068C272.188 211.179 274.626 211.95 276.313 213.044C276.508 213.161 276.684 213.297 276.85 213.414C276.673 213.165 276.52 212.901 276.391 212.624C276.196 212.312 275.972 212.029 275.757 211.736C275.543 211.443 275.523 211.453 275.406 211.297C275.056 210.873 274.73 210.43 274.431 209.969C273.719 208.779 273.163 207.315 273.992 206.065C274.342 205.601 274.798 205.227 275.323 204.975C275.847 204.724 276.424 204.602 277.006 204.621C278.341 204.648 279.661 204.909 280.906 205.392C285.429 206.871 289.866 208.598 294.198 210.565C296.2 211.421 298.133 212.429 299.981 213.58C301.819 214.882 303.59 216.276 305.286 217.757C310.977 222.353 317.959 225.055 325.258 225.487C328.759 225.673 332.29 225.35 335.732 225.965C339.223 226.758 342.585 228.04 345.718 229.772C350.984 232.426 366.753 241.015 376.973 246.48C377.48 246.753 377.949 246.997 378.436 247.251C380.582 248.647 381.908 251.575 381.908 255.605Z" fill="#FFE5CC"/>
<path d="M381.908 255.606C381.908 264.282 375.794 274.852 368.255 279.204C364.433 281.41 360.98 281.605 358.503 280.122C358.451 280.104 358.401 280.077 358.357 280.044C356.026 278.59 354.603 275.603 354.603 271.416C354.603 262.74 360.717 252.17 368.255 247.808C371.561 245.905 374.594 245.495 376.954 246.363C377.475 246.551 377.967 246.811 378.417 247.134C380.582 248.647 381.908 251.575 381.908 255.606Z" fill="#FFB78C"/>
<path d="M274.451 205.997C274.008 206.611 273.77 207.348 273.768 208.105C273.748 208.388 273.777 208.672 273.856 208.944C273.958 209.24 274.113 209.514 274.314 209.754C275.326 210.973 276.516 212.033 277.844 212.897C278.637 211.543 279.039 209.996 279.005 208.427C279.024 208.32 279.024 208.211 279.005 208.105C278.972 208.012 278.922 207.926 278.858 207.851L277.415 205.958C277.025 205.44 276.762 205.109 276.099 205.177C275.782 205.19 275.471 205.269 275.187 205.411C274.903 205.552 274.652 205.752 274.451 205.997Z" fill="#FFB78C"/>
<path d="M268.19 215.034C268.083 215.602 268.083 216.185 268.19 216.752C268.217 217.077 268.328 217.39 268.512 217.66C268.667 217.822 268.848 217.957 269.048 218.06C270.47 218.866 271.996 219.474 273.583 219.865C273.931 218.654 274.095 217.397 274.07 216.137C274.089 215.97 274.072 215.8 274.022 215.64C273.97 215.526 273.897 215.423 273.807 215.337C272.988 214.381 271.895 213.7 270.677 213.385C270.062 213.229 269.701 213.112 269.175 213.531C268.687 213.907 268.339 214.437 268.19 215.034Z" fill="#FFB78C"/>
<path d="M270.335 224.999C270.143 225.463 270.109 225.977 270.238 226.463C270.367 226.75 270.556 227.007 270.793 227.214C272.077 228.558 273.602 229.647 275.289 230.425C275.419 229.622 275.471 228.808 275.445 227.995C275.411 227.182 275.151 226.395 274.694 225.721C274.057 224.957 273.209 224.397 272.256 224.111C271.954 224.003 271.349 223.672 271.027 223.779C270.706 223.886 270.442 224.657 270.335 224.999Z" fill="#FFB78C"/>
<path d="M275.543 238.087L278.663 240.214C278.663 240.214 278.78 240.283 278.829 240.214C278.878 240.146 278.907 240.107 278.917 240.039C279.028 239.232 278.954 238.412 278.702 237.638C278.019 236.478 277.026 235.532 275.835 234.905C275.601 234.843 275.354 234.847 275.121 234.915C274.888 234.983 274.678 235.114 274.514 235.292C274.349 235.471 274.237 235.691 274.188 235.929C274.139 236.167 274.155 236.413 274.236 236.642C274.498 237.256 274.958 237.765 275.543 238.087Z" fill="#FFB78C"/>
<path d="M307.032 262.681C303.541 261.208 300.791 258.416 298.138 255.684C293.977 251.435 289.823 247.173 285.675 242.899C284.077 241.338 282.582 239.676 281.199 237.921C279.937 236.066 278.542 234.304 277.025 232.651C277.078 232.604 277.118 232.545 277.142 232.478C277.166 232.412 277.173 232.34 277.162 232.27C277.12 232.209 277.067 232.156 277.006 232.114L276.889 232.017C278.83 233.316 280.554 234.914 281.999 236.75C285.773 241.113 289.4 245.592 293.506 249.613C297.982 254.015 303.014 257.88 307.032 262.681Z" fill="#FFB78C"/>
<path d="M304.555 250.959C300.703 247.92 297.171 244.496 294.013 240.741L285.694 231.518C284.53 230.167 283.282 228.889 281.959 227.692C280.696 226.623 279.371 225.629 277.99 224.716C276.469 223.671 274.967 222.5 273.378 221.602C273.261 221.549 273.15 221.484 273.046 221.407C273.405 221.456 273.769 221.456 274.129 221.407C273.358 220.851 272.588 220.295 271.817 219.758C275.5 221.62 278.866 224.051 281.794 226.96C283.305 228.405 284.719 229.947 286.153 231.499C292.225 238.038 298.359 244.525 304.555 250.959Z" fill="#FFB78C"/>
<path d="M306.174 237.287C304.033 236.035 302.08 234.488 300.371 232.69C294.686 227.309 288.632 222.332 282.252 217.797C280.187 216.459 278.245 214.941 276.45 213.259C276.366 213.166 276.288 213.068 276.216 212.966C276.411 213.083 276.586 213.219 276.762 213.337C276.586 213.2 276.43 212.741 276.294 212.546C276.157 212.351 275.874 211.951 275.66 211.658L275.318 211.219C275.894 211.599 276.469 211.99 277.025 212.39C282.267 216.206 287.285 220.321 292.053 224.716L297.397 229.42L306.174 237.287Z" fill="#FFB78C"/>
<path d="M315.487 238.555C316.028 238.608 316.574 238.608 317.115 238.555C317.392 238.544 317.662 238.46 317.895 238.311C318.074 238.158 318.205 237.959 318.276 237.735C318.517 236.994 318.472 236.19 318.149 235.48C317.359 233.607 314.472 230.932 312.727 233.275C311.147 235.412 313.166 238.311 315.487 238.555Z" fill="#FFB78C"/>
<path d="M311.43 254.083C311.756 254.129 312.088 254.106 312.405 254.015C312.745 253.869 313.03 253.618 313.218 253.298C313.406 252.978 313.487 252.607 313.448 252.238C313.214 249.896 309.109 248.696 307.48 250.286C305.383 252.297 309.947 253.956 311.43 254.083Z" fill="#FFB78C"/>
<path d="M311.508 263.979C312.571 263.501 310.474 258.231 308.046 260.222C307.701 260.445 307.447 260.784 307.331 261.178C307.215 261.572 307.243 261.994 307.412 262.369C307.89 263.189 310.591 264.389 311.508 263.979Z" fill="#FFB78C"/>
<path d="M311.157 268.966C311.228 268.881 311.263 268.773 311.255 268.663C311.303 267.433 308.388 265.286 307.89 267.043C307.835 267.33 307.852 267.626 307.938 267.906C308.025 268.185 308.179 268.438 308.388 268.644C308.807 269.044 310.757 269.415 311.157 268.966Z" fill="#FFB78C"/>
<path d="M365.836 37.1648C360.287 33.9636 355.246 33.6611 351.608 35.7789L345.874 39.1167C349.502 36.9989 354.544 37.3014 360.092 40.5026C371.132 46.8854 380.055 62.3447 380.016 75.0419C380.016 81.3369 377.773 85.7775 374.165 87.8563L379.899 84.5185C383.487 82.43 385.75 77.9991 385.75 71.7041C385.789 59.0069 376.876 43.5964 365.836 37.1648Z" fill="#4D4D4D"/>
<path d="M360.092 40.5024C371.131 46.8852 380.055 62.3445 380.016 75.0418C379.977 87.739 371.005 92.8433 359.965 86.4605C348.926 80.0777 340.003 64.6185 340.042 51.9407C340.081 39.2629 349.082 34.1391 360.092 40.5024Z" fill="black"/>
<path d="M360.629 49.7942C353.685 45.7829 348.059 48.9841 348.059 56.9577C348.059 64.9314 353.685 74.6422 360.629 78.6534C367.572 82.6646 373.189 79.4537 373.189 71.4801C373.189 63.5064 367.611 53.8054 360.629 49.7942ZM357.557 69.0987V56.1282L367.309 68.2691L357.557 69.0987Z" fill="white"/>
<path d="M375.413 104.38L356.641 93.5372C353.715 91.8293 351.014 91.6731 349.083 92.7955L343.349 96.1333C345.299 95.0109 347.952 95.1573 350.897 96.875L369.66 107.718C375.511 111.095 380.231 119.303 380.211 126.027L380.153 147.635C380.153 150.973 378.963 153.325 377.061 154.467L382.795 151.129C384.746 150.016 385.887 147.674 385.897 144.297L385.955 122.679C385.975 115.965 381.264 107.757 375.413 104.38Z" fill="#FFD166"/>
<path d="M369.659 107.718C375.51 111.095 380.23 119.303 380.211 126.027L380.152 147.635C380.152 154.35 375.364 157.073 369.523 153.696L350.75 142.843C344.899 139.457 340.159 131.249 340.179 124.534L340.237 102.926C340.237 96.202 345.016 93.4888 350.877 96.8754L369.659 107.718Z" fill="#FFAD66"/>
<path d="M360.629 111.183C353.685 107.172 348.059 110.382 348.059 118.356C348.059 126.33 353.685 136.031 360.629 140.042C367.572 144.053 373.189 140.842 373.189 132.878C373.189 124.915 367.611 115.194 360.629 111.183ZM357.557 130.458V117.527L367.309 129.668L357.557 130.458Z" fill="white"/>
<path d="M383.741 175.547L348.585 155.228C348.339 155.051 348.051 154.942 347.749 154.913C347.448 154.884 347.144 154.935 346.869 155.062L341.135 158.399C341.408 158.273 341.711 158.222 342.011 158.251C342.31 158.28 342.597 158.389 342.841 158.565L378.007 178.885C378.707 179.339 379.289 179.952 379.706 180.675C380.123 181.398 380.363 182.209 380.406 183.043L380.289 223.477C380.319 223.771 380.271 224.067 380.15 224.336C380.028 224.606 379.837 224.838 379.597 225.009L385.331 221.661C385.573 221.494 385.766 221.264 385.89 220.996C386.013 220.728 386.063 220.432 386.033 220.139L386.15 179.705C386.105 178.871 385.863 178.059 385.445 177.336C385.026 176.614 384.442 176.001 383.741 175.547Z" fill="#8482FF"/>
<path d="M378.007 178.885C378.707 179.339 379.289 179.952 379.706 180.675C380.123 181.398 380.363 182.209 380.406 183.043L380.289 223.477C380.289 224.989 379.206 225.604 377.87 224.833L342.763 204.523C342.066 204.069 341.486 203.456 341.069 202.736C340.653 202.015 340.411 201.207 340.364 200.376L340.481 159.951C340.481 158.409 341.574 157.804 342.89 158.565L378.007 178.885Z" fill="#4D4BB7"/>
<path d="M360.629 177.206C353.685 173.195 348.059 176.406 348.059 184.38C348.059 192.353 353.685 202.054 360.629 206.065C367.572 210.077 373.189 206.866 373.189 198.902C373.189 190.938 367.611 181.208 360.629 177.206ZM357.557 196.521V183.54L367.309 195.681L357.557 196.521Z" fill="white"/>
<path fill-rule="evenodd" clip-rule="evenodd" d="M374.008 228.161V225.487L370.303 223.35V226.014L374.008 228.161Z" fill="#231F20"/>
<path fill-rule="evenodd" clip-rule="evenodd" d="M380.65 231.997V229.333L376.944 227.186V229.86L380.65 231.997Z" fill="#231F20"/>
<path fill-rule="evenodd" clip-rule="evenodd" d="M387.661 236.008L386.53 232.728L383.302 230.864L383.711 233.792C385.028 234.534 386.354 235.305 387.661 236.008Z" fill="#231F20"/>
<path fill-rule="evenodd" clip-rule="evenodd" d="M354.047 216.625V213.961L350.341 211.813V214.488L354.047 216.625Z" fill="#231F20"/>
<path fill-rule="evenodd" clip-rule="evenodd" d="M360.697 220.471V217.797L356.991 215.659V218.324L360.697 220.471Z" fill="#231F20"/>
<path fill-rule="evenodd" clip-rule="evenodd" d="M367.319 224.286V221.622L363.613 219.484V222.149L367.319 224.286Z" fill="#231F20"/>
<path fill-rule="evenodd" clip-rule="evenodd" d="M335.693 200.785L337.907 200.444V196.735L335.586 196.247C335.586 197.799 335.615 199.282 335.693 200.785Z" fill="#231F20"/>
<path fill-rule="evenodd" clip-rule="evenodd" d="M340.306 208.534L341.7 206.777C340.489 206 339.509 204.911 338.863 203.625L336.912 204.65C337.706 206.205 338.872 207.539 340.306 208.534Z" fill="#231F20"/>
<path fill-rule="evenodd" clip-rule="evenodd" d="M347.308 212.731L347.444 210.144L344.217 208.28L343.349 210.437L347.308 212.731Z" fill="#231F20"/>
<path fill-rule="evenodd" clip-rule="evenodd" d="M335.586 177.275L337.907 178.612V174.357L335.586 173.02V177.275Z" fill="#231F20"/>
<path fill-rule="evenodd" clip-rule="evenodd" d="M335.586 184.907L337.907 186.244V181.988L335.586 180.651V184.907Z" fill="#231F20"/>
<path fill-rule="evenodd" clip-rule="evenodd" d="M335.586 192.568L337.907 193.739V189.591L335.586 188.254V192.568Z" fill="#231F20"/>
<path fill-rule="evenodd" clip-rule="evenodd" d="M335.586 154.349L337.907 155.696V151.831L335.586 149.879V154.349Z" fill="#231F20"/>
<path fill-rule="evenodd" clip-rule="evenodd" d="M335.586 161.981L337.907 163.328V159.072L335.586 157.726V161.981Z" fill="#231F20"/>
<path fill-rule="evenodd" clip-rule="evenodd" d="M335.586 169.583L337.907 170.93V166.675L335.586 165.338V169.583Z" fill="#231F20"/>
<path fill-rule="evenodd" clip-rule="evenodd" d="M345.416 144.561L345.904 147.508L349.297 149.47V146.796L345.416 144.561Z" fill="#231F20"/>
<path fill-rule="evenodd" clip-rule="evenodd" d="M338.482 141.193L340.16 144.58C341.135 144.58 342.276 145.458 343.339 146.034L342.256 142.774C340.989 142.169 339.672 141.193 338.482 141.193Z" fill="#231F20"/>
<path fill-rule="evenodd" clip-rule="evenodd" d="M335.615 146.249L337.897 148.854C337.897 148.24 337.897 147.605 337.897 147.01C337.907 146.474 338.055 145.949 338.326 145.487L336.249 142.306C335.916 142.841 335.721 143.452 335.684 144.082C335.644 144.785 335.635 145.517 335.615 146.249Z" fill="#231F20"/>
<path fill-rule="evenodd" clip-rule="evenodd" d="M365.554 156.193V158.858L369.25 160.995V158.331L365.554 156.193Z" fill="#231F20"/>
<path fill-rule="evenodd" clip-rule="evenodd" d="M358.902 152.349V155.023L362.608 157.16V154.496L358.902 152.349Z" fill="#231F20"/>
<path fill-rule="evenodd" clip-rule="evenodd" d="M352.281 148.522V151.187L355.987 153.334V150.66L352.281 148.522Z" fill="#231F20"/>
<path fill-rule="evenodd" clip-rule="evenodd" d="M385.779 167.886L384.989 170.101C386.072 170.726 387.144 171.321 388.217 171.985L389.67 170.287C388.402 169.438 387.115 168.667 385.779 167.886Z" fill="#231F20"/>
<path fill-rule="evenodd" clip-rule="evenodd" d="M378.865 163.884V166.548L382.434 168.617L382.639 166.06L378.865 163.884Z" fill="#231F20"/>
<path fill-rule="evenodd" clip-rule="evenodd" d="M372.243 160.059V162.723L375.939 164.86V162.196L372.243 160.059Z" fill="#231F20"/>
<path fill-rule="evenodd" clip-rule="evenodd" d="M393.991 189.845L391.67 188.508V192.763L393.991 194.1V189.845Z" fill="#231F20"/>
<path fill-rule="evenodd" clip-rule="evenodd" d="M393.991 181.89L391.67 181.48V185.189L393.991 186.438V181.89Z" fill="#231F20"/>
<path fill-rule="evenodd" clip-rule="evenodd" d="M392.44 173.458L390.489 174.561C391.23 175.768 391.624 177.156 391.63 178.572L393.941 178.279C393.862 176.57 393.345 174.91 392.44 173.458Z" fill="#231F20"/>
<path fill-rule="evenodd" clip-rule="evenodd" d="M393.991 212.771L391.67 211.424V215.679L393.991 217.026V212.771Z" fill="#231F20"/>
<path fill-rule="evenodd" clip-rule="evenodd" d="M393.991 205.138L391.67 203.801V208.056L393.991 209.393V205.138Z" fill="#231F20"/>
<path fill-rule="evenodd" clip-rule="evenodd" d="M393.991 197.535L391.67 196.188V200.444L393.991 201.79V197.535Z" fill="#231F20"/>
<path fill-rule="evenodd" clip-rule="evenodd" d="M393.493 235.949L391.386 232.816C391.208 233.251 390.879 233.607 390.46 233.818C390.041 234.03 389.56 234.083 389.104 233.968L390.733 237.355C391.284 237.462 391.855 237.382 392.355 237.127C392.855 236.873 393.255 236.458 393.493 235.949Z" fill="#231F20"/>
<path fill-rule="evenodd" clip-rule="evenodd" d="M393.991 228.249L391.67 226.385V230.084L393.942 232.748C393.991 231.294 393.991 229.771 393.991 228.249Z" fill="#231F20"/>
<path fill-rule="evenodd" clip-rule="evenodd" d="M393.991 220.451L391.67 219.114V223.369L393.991 224.707V220.451Z" fill="#231F20"/>
<path d="M67.4548 144.668L71.141 146.815C67.055 149.031 64.3147 149.109 62.569 148.074L58.873 145.927C60.6577 146.961 63.3492 146.883 67.4548 144.668Z" fill="#FFD166"/>
<path d="M50.9443 152.271L47.2483 150.114C44.3981 148.307 42.05 145.81 40.4219 142.853L44.1179 145C45.7461 147.959 48.094 150.46 50.9443 152.271Z" fill="#FFD166"/>
<path d="M28.5635 107.22L65.2993 85.9832C66.8596 85.0853 68.2249 85.0073 69.2781 85.5928L72.9741 87.7399C71.9989 87.1446 70.5458 87.2325 68.9953 88.1303L32.2595 109.367C30.635 110.422 29.2829 111.846 28.3134 113.524C27.344 115.201 26.7847 117.084 26.6814 119.02L26.7691 148.601C26.7029 149.286 26.8186 149.976 27.1046 150.601C27.3906 151.227 27.8367 151.766 28.3977 152.163L24.7017 149.977C24.1407 149.58 23.6946 149.041 23.4086 148.415C23.1226 147.79 23.0069 147.1 23.0731 146.415L22.9951 116.833C23.1011 114.905 23.6607 113.03 24.6284 111.359C25.596 109.689 26.9444 108.27 28.5635 107.22Z" fill="#FFD166"/>
<path d="M32.2598 109.367C30.6353 110.422 29.2832 111.846 28.3137 113.524C27.3443 115.201 26.785 117.084 26.6816 119.02L26.7694 148.601C26.7694 152.144 29.2952 153.559 32.3768 151.773L44.0792 145C51.0616 156.594 59.6141 154.691 65.2118 151.461C67.3739 150.2 69.3443 148.635 71.063 146.815C58.4341 153.647 58.9607 140.149 59.3606 136.128L69.015 130.546C70.6367 129.494 71.9867 128.072 72.9545 126.398C73.9223 124.724 74.4804 122.844 74.5834 120.913L74.5054 91.3315C74.5054 87.7692 71.9894 86.3443 68.898 88.1303L32.2598 109.367Z" fill="#FFAD66"/>
<path d="M33.0203 132.683C32.9688 132.262 32.9427 131.839 32.9423 131.414C32.9409 130.968 32.9637 130.521 33.0105 130.077L31.4112 130.399C31.1674 130.448 31.0406 130.233 31.1186 129.921L31.9671 126.388C32.0271 126.141 32.1765 125.926 32.3864 125.783L32.5327 125.734L34.132 125.402C34.5057 124.413 34.9489 123.451 35.4583 122.523L34.4831 121.547C34.3368 121.401 34.3856 121.05 34.5806 120.767L36.8236 117.595C36.8946 117.494 36.9839 117.408 37.0869 117.341C37.1367 117.297 37.2009 117.273 37.2673 117.273C37.3337 117.273 37.3978 117.297 37.4477 117.341L38.4229 118.317C39.0843 117.58 39.8016 116.894 40.5683 116.267V114.316C40.5749 114.159 40.6192 114.006 40.6972 113.87C40.7753 113.734 40.885 113.619 41.0169 113.535L43.7865 111.944C44.0303 111.798 44.2351 111.944 44.2351 112.198V114.15C44.928 113.898 45.6542 113.75 46.3903 113.71L47.3655 111.573C47.4427 111.401 47.5681 111.256 47.7263 111.153C47.7639 111.126 47.8066 111.107 47.8519 111.097C47.8972 111.087 47.944 111.086 47.9896 111.095L50.2423 111.671C50.4373 111.729 50.4861 112.022 50.3398 112.344L49.3646 114.481C49.8998 114.834 50.3605 115.288 50.7202 115.819L52.3097 114.306C52.3536 114.264 52.4028 114.228 52.456 114.198C52.6413 114.081 52.8168 114.12 52.8753 114.306L53.7433 116.843C53.7691 116.993 53.7568 117.146 53.7073 117.29C53.6579 117.433 53.5729 117.561 53.4605 117.663L51.8611 119.186C51.8611 119.586 51.9294 120.005 51.9294 120.445C51.9294 120.884 51.9294 121.342 51.8709 121.791L53.4702 121.46C53.7043 121.411 53.831 121.625 53.7628 121.948L52.9144 125.471C52.8565 125.721 52.7023 125.939 52.4853 126.076C52.4402 126.104 52.3908 126.124 52.339 126.134L50.7494 126.457C50.3722 127.446 49.9258 128.409 49.4134 129.336L50.3886 130.312C50.5446 130.458 50.4959 130.809 50.2911 131.092L48.0579 134.254C47.9908 134.358 47.9007 134.445 47.7946 134.508C47.7423 134.551 47.6768 134.574 47.6093 134.574C47.5417 134.574 47.4762 134.551 47.424 134.508L46.4488 133.532C45.7866 134.272 45.0658 134.958 44.2936 135.582V137.534C44.2859 137.691 44.2402 137.845 44.1604 137.981C44.0806 138.116 43.969 138.231 43.8352 138.314L41.0754 139.915C40.8219 140.052 40.6171 139.915 40.6171 139.652V137.7C39.9202 137.947 39.1908 138.092 38.4521 138.129L37.4769 140.266C37.4024 140.445 37.2726 140.596 37.1064 140.696C37.0274 140.743 36.9338 140.761 36.8431 140.745L34.6001 140.169C34.3953 140.12 34.3466 139.827 34.4928 139.505L35.468 137.368C34.9398 137.014 34.486 136.559 34.132 136.031L32.5327 137.553L32.3962 137.661C32.2109 137.768 32.0256 137.729 31.9671 137.543L31.1674 135.025C31.1479 134.874 31.1642 134.72 31.215 134.576C31.2658 134.432 31.3497 134.302 31.46 134.196L33.0203 132.683ZM42.4602 133.581C44.3925 132.323 46.0004 130.626 47.1528 128.628C48.3053 126.63 48.9696 124.388 49.0916 122.084C49.0916 117.868 46.088 116.16 42.4115 118.288C40.4822 119.546 38.877 121.242 37.7264 123.238C36.5758 125.234 35.9123 127.474 35.7898 129.775C35.7898 134.001 38.7837 135.699 42.4602 133.581Z" fill="white"/>
<path d="M55.6346 117.643C55.7368 116.944 55.8999 116.255 56.1222 115.584L55.147 115.33C55.0105 115.33 54.9714 115.077 55.0787 114.852L56.2392 112.334C56.2913 112.207 56.3839 112.101 56.5025 112.032C56.5314 112.018 56.5631 112.011 56.5951 112.011C56.6272 112.011 56.6589 112.018 56.6878 112.032L57.663 112.285C58.0569 111.639 58.4935 111.019 58.9698 110.431L58.5992 109.328C58.5805 109.22 58.5895 109.108 58.6253 109.004C58.6611 108.9 58.7225 108.807 58.804 108.733L60.6861 106.947C60.7135 106.915 60.7466 106.889 60.7836 106.869C60.9202 106.791 61.0469 106.869 61.0957 106.947L61.4663 108.05C61.7393 107.864 62.0026 107.679 62.2757 107.523C62.5487 107.367 62.8218 107.23 63.0949 107.113L63.4557 105.581C63.5046 105.407 63.6113 105.256 63.758 105.151C63.7933 105.143 63.8299 105.143 63.8653 105.151L65.7474 104.761C65.9229 104.761 66.0107 104.888 65.9619 105.112L65.5914 106.644C66.0471 106.671 66.4937 106.784 66.9079 106.976L67.8831 105.6C67.9356 105.529 68.0019 105.469 68.0781 105.424C68.1158 105.395 68.1621 105.379 68.2098 105.379C68.2575 105.379 68.3038 105.395 68.3414 105.424L69.5117 106.596C69.6189 106.703 69.5799 106.957 69.4336 107.162L68.4584 108.538C68.7014 109.004 68.8724 109.504 68.9656 110.021L70.165 109.318C70.3406 109.221 70.4869 109.318 70.4869 109.504V111.788C70.4798 111.899 70.447 112.007 70.3912 112.104C70.3354 112.2 70.258 112.282 70.165 112.344L68.9656 113.037C68.8553 113.736 68.689 114.424 68.4682 115.096L69.4434 115.35C69.5897 115.35 69.6189 115.604 69.5117 115.828L68.3512 118.346C68.2993 118.47 68.2109 118.576 68.0976 118.649C68.0669 118.662 68.0337 118.669 68.0001 118.669C67.9665 118.669 67.9333 118.662 67.9026 118.649L66.9274 118.395C66.5368 119.044 66.1001 119.663 65.6206 120.249L65.9912 121.352C66.012 121.459 66.004 121.57 65.968 121.673C65.932 121.776 65.8693 121.867 65.7864 121.938L63.9043 123.733L63.8068 123.812C63.6702 123.89 63.5434 123.812 63.4947 123.733L63.1241 122.631C62.8608 122.816 62.5878 122.992 62.3147 123.158C62.0519 123.308 61.7818 123.445 61.5053 123.568L61.1347 125.1C61.0899 125.278 60.9781 125.432 60.8226 125.529H60.7251L58.843 125.91C58.6772 125.91 58.5797 125.793 58.6284 125.568L58.999 124.036C58.5419 124.011 58.0944 123.895 57.6825 123.694L56.7073 125.071C56.6585 125.144 56.5955 125.207 56.522 125.256C56.4844 125.285 56.438 125.301 56.3904 125.301C56.3427 125.301 56.2964 125.285 56.2587 125.256L55.0885 124.085C54.9812 123.977 55.0105 123.724 55.1567 123.519L56.1319 122.143C55.889 121.677 55.718 121.176 55.6248 120.659L54.4253 121.352C54.2498 121.459 54.1035 121.352 54.1035 121.176V118.893C54.1106 118.781 54.1433 118.673 54.1992 118.577C54.255 118.48 54.3324 118.398 54.4253 118.336L55.6346 117.643ZM62.3147 120.776C63.699 119.877 64.8509 118.663 65.6764 117.233C66.5018 115.803 66.9773 114.198 67.0639 112.549C67.0639 109.523 64.9087 108.303 62.2854 109.826C60.903 110.726 59.7529 111.941 58.9292 113.371C58.1055 114.8 57.6315 116.405 57.546 118.053C57.546 121.079 59.6914 122.299 62.3147 120.776Z" fill="white"/>
<path d="M40.7537 263.618L0.516986 240.371C-0.253421 239.922 -0.1559 239.141 0.731531 238.624L40.2759 215.786C40.7329 215.53 41.2439 215.384 41.7674 215.362C42.2909 215.34 42.8123 215.442 43.2892 215.659L83.526 238.907C84.2964 239.356 84.1988 240.136 83.3114 240.644L43.7671 263.491C43.3101 263.748 42.7991 263.893 42.2755 263.915C41.752 263.937 41.2306 263.835 40.7537 263.618Z" fill="#F2F2F2"/>
<path d="M42.2656 241.366L3.80371 219.144L42.0218 197.058L80.4836 219.28L42.2656 241.366Z" fill="#F2F2F2"/>
<path d="M42.2558 238.936L7.99707 219.153L42.0413 199.487L76.2903 219.27L42.2558 238.936Z" fill="#E6E6E6"/>
<path d="M42.2656 260.895V241.366L80.4837 219.28V238.809L42.2656 260.895Z" fill="#BFBFBF"/>
<path d="M3.80371 219.144V238.673L42.2656 260.895V241.366L3.80371 219.144Z" fill="#E6E6E6"/>
<path d="M16.3448 223.974L13.6435 222.413L13.1754 216.147L12.2197 202.776L14.9113 204.084L15.6719 214.712L16.3448 223.974Z" fill="#4D4D4D"/>
<path d="M14.9113 204.074L12.21 202.776L45.7568 183.394L48.4581 184.692L14.9113 204.074Z" fill="#737373"/>
<path d="M51.3543 224.764L36.8239 233.158L34.5321 234.485L34.3469 234.602L34.3274 234.348L32.8841 233.529L30.173 231.967L28.7492 231.147L26.0479 229.586L24.6046 228.756L21.8936 227.185L20.499 226.375L17.7685 224.803L16.3447 223.974L15.6718 214.712L14.9111 204.084L48.458 184.691L48.5945 186.614L48.8091 189.337L48.9358 191.26V191.279L49.1309 194.012L49.2674 195.934L49.4722 198.677L49.6087 200.58L49.8038 203.332L49.8623 204.006L49.9403 205.255L50.1451 207.997L51.3543 224.764Z" fill="#1F2125"/>
<path d="M20.4991 226.376L17.7685 224.804L16.9786 213.961L16.3447 205.236L19.0558 206.544L19.4751 212.517L20.4991 226.376Z" fill="#4D4D4D"/>
<path d="M19.046 206.544L16.3545 205.236L49.9013 185.854L52.5929 187.161L19.046 206.544Z" fill="#737373"/>
<path d="M55.5086 227.224L38.7449 236.906L37.0286 235.93L34.5321 234.486L34.3468 234.603L34.3273 234.349L32.884 233.529L30.1729 231.968L28.7491 231.148L26.0478 229.586L24.6045 228.757L21.8935 227.185L20.499 226.375L19.475 212.517L19.0557 206.544L48.809 189.338L52.583 187.151L52.7195 189.094L52.9341 191.816L53.0706 193.72L53.2559 196.491L53.4119 198.394L53.607 201.137L53.7435 203.04V203.06L53.9483 205.792V205.812L53.9873 206.388L55.5086 227.224Z" fill="#1F2125"/>
<path d="M24.6046 228.757L21.8936 227.185L20.7818 211.765L20.499 207.695L23.1808 209.003L23.2783 210.33L24.6046 228.757Z" fill="#4D4D4D"/>
<path d="M23.1906 209.003L20.4893 207.695L54.0361 188.312L56.7374 189.62L23.1906 209.003Z" fill="#737373"/>
<path d="M59.5751 228.932L42.2556 238.945L38.7448 236.906L37.0285 235.93L34.532 234.485L34.3467 234.602L34.3272 234.349L32.8839 233.529L30.1728 231.967L28.7491 231.147L26.0477 229.586L24.6045 228.756L23.2782 210.33L23.1807 209.003L49.1307 194.012L56.7373 189.63L56.8738 191.533L57.0786 194.275L57.2151 196.179V196.198L57.4102 198.931L57.5467 200.853L57.7515 203.596L58.1221 208.769L59.5751 228.932Z" fill="#1F2125"/>
<path d="M28.7491 231.147L26.0478 229.586L24.624 210.154L27.3351 211.462L28.7491 231.147Z" fill="#4D4D4D"/>
<path d="M27.3253 211.462L24.6338 210.164L58.1806 190.771L60.8722 192.079L27.3253 211.462Z" fill="#737373"/>
<path d="M63.3978 226.726L59.575 228.931L42.2555 238.945L38.7448 236.905L37.0284 235.929L34.5319 234.485L34.3466 234.602L34.3271 234.348L32.8838 233.528L30.1728 231.967L28.749 231.147L27.335 211.462L45.0543 201.234L49.472 198.677L53.2558 196.49L57.0785 194.275L60.8818 192.089L61.0183 193.992L61.2329 196.734L61.3597 198.638L61.5547 201.409L62.2666 211.169L63.3978 226.726Z" fill="#1F2125"/>
<path d="M32.8839 233.529L30.1728 231.968L28.7686 212.614L31.4601 213.922L32.8839 233.529Z" fill="#4D4D4D"/>
<path d="M31.4699 213.932L28.7686 212.624L62.3252 193.241L65.0167 194.549L31.4699 213.932Z" fill="#737373"/>
<path d="M67.201 224.53L63.3977 226.726L59.575 228.932L42.2554 238.945L38.7447 236.906L37.0284 235.93L34.5318 234.485L34.3466 234.602L34.327 234.349L32.8838 233.529L31.46 213.922L49.2476 203.655L49.8035 203.332L53.6067 201.137L57.41 198.931L61.2328 196.735L65.0166 194.549L65.1433 196.452L65.3579 199.194V199.214L66.3916 213.561L67.201 224.53Z" fill="#1F2125"/>
<path d="M37.0284 235.93L34.5319 234.485L34.3466 234.602L34.3271 234.349L32.9229 215.093L35.6144 216.401L36.8236 233.158L37.0284 235.93Z" fill="#4D4D4D"/>
<path d="M35.6144 216.391L32.9131 215.083L66.4599 195.7L69.1612 197.008L35.6144 216.391Z" fill="#737373"/>
<path d="M70.9847 222.324L67.201 224.53L63.3977 226.726L59.5749 228.932L42.2554 238.945L38.7446 236.905L37.0283 235.929L36.8235 233.157L35.6143 216.4L50.1447 207.997L53.4702 206.084L53.948 205.811L57.3319 203.849L57.7513 203.596L61.5546 201.409L65.3578 199.213L69.1611 197.008L70.5264 215.941L70.9847 222.324Z" fill="#1F2125"/>
<path d="M45.0638 228.521L49.9398 228.98V231.137L41.7871 230.424L49.9398 220.323V222.48L45.0638 228.521Z" fill="#F2F2F2"/>
<path d="M53.5974 231.957L52.0273 232.855C53.5812 227.168 54.7384 222.903 55.4991 220.06L57.2349 213.658L58.7952 212.75L53.5974 231.957Z" fill="#F2F2F2"/>
<path d="M65.3867 216.781L60.5107 216.332V214.194L68.6829 214.878L60.5107 225.018V222.832L65.3867 216.781Z" fill="#F2F2F2"/>
<path d="M233.882 399.98C224.559 405.367 209.385 405.338 200.004 399.921C190.623 394.505 190.574 385.731 199.877 380.304C209.181 374.878 224.374 374.946 233.756 380.373C243.137 385.799 243.205 394.592 233.882 399.98Z" fill="#F2F2F2"/>
<path d="M237.304 388.735C237.339 382.219 228.23 376.887 216.957 376.826C205.685 376.765 196.518 381.998 196.483 388.514C196.448 395.031 205.557 400.363 216.83 400.424C228.102 400.485 237.269 395.252 237.304 388.735Z" fill="#C4C4C4"/>
<path d="M236.613 350.137H197.176V387.135C197.069 390.141 199 393.177 203.027 395.48C210.751 399.94 223.243 399.96 230.918 395.48C234.907 393.177 236.769 390.132 236.642 387.106L236.613 350.137Z" fill="#D9D9D9"/>
<path d="M237.304 350.897C237.339 344.381 228.23 339.049 216.957 338.988C205.685 338.927 196.518 344.16 196.483 350.676C196.448 357.193 205.557 362.525 216.83 362.586C228.102 362.647 237.269 357.414 237.304 350.897Z" fill="#F2F2F2"/>
<path d="M221.166 362.346C214.652 363.127 207.581 362.044 202.501 359.116C201.652 358.628 200.846 358.07 200.092 357.447L203.554 355.495L220.425 359.819L221.166 362.346Z" fill="#FFD166"/>
<path d="M232.975 354.412C231.955 355.843 230.62 357.022 229.074 357.857C222.365 361.761 211.472 361.712 204.694 357.808C203.122 356.961 201.769 355.758 200.744 354.294C198.404 350.742 199.691 346.584 204.645 343.744C211.355 339.84 222.248 339.84 229.025 343.744C234.009 346.662 235.335 350.859 232.975 354.412Z" fill="#999999"/>
<path d="M232.975 354.412C231.956 355.844 230.621 357.023 229.075 357.857C222.365 361.761 211.472 361.712 204.695 357.809C203.123 356.961 201.77 355.758 200.745 354.295C201.765 352.863 203.1 351.685 204.646 350.85C211.355 346.946 222.248 346.995 229.026 350.899C230.6 351.743 231.953 352.947 232.975 354.412Z" fill="#FFAD66"/>
<path d="M204.675 345.56C211.385 341.656 222.278 341.705 229.055 345.608C232.04 347.336 233.717 349.512 234.068 351.777C234.517 348.927 232.849 345.979 229.055 343.783C222.307 339.88 211.414 339.88 204.675 343.783C200.95 345.94 199.302 348.849 199.799 351.679C200.102 349.415 201.74 347.258 204.675 345.56Z" fill="#D9D9D9"/>
<path d="M220.678 397.286H220.532C220.157 397.26 219.807 397.088 219.557 396.808C218.728 395.998 218.474 394.739 217.684 393.88C217.041 393.187 216.095 392.836 215.441 392.153C214.964 391.645 214.661 390.981 214.183 390.464C213.968 390.185 213.667 389.986 213.327 389.896C212.986 389.806 212.626 389.831 212.301 389.966C211.882 390.23 211.57 390.796 211.082 390.708C210.938 390.672 210.807 390.598 210.702 390.493C210.342 390.142 210.055 389.724 209.858 389.261C209.661 388.799 209.556 388.302 209.551 387.8C209.483 386.824 209.629 385.799 209.619 384.794C209.631 384.308 209.551 383.825 209.385 383.369C208.947 382.286 207.796 381.622 207.318 380.558C207.055 379.973 206.986 379.26 206.499 378.86C206.009 378.56 205.426 378.449 204.86 378.548C204.707 378.542 204.555 378.579 204.422 378.655C204.275 378.789 204.185 378.974 204.168 379.172C203.378 382.969 204.168 387.097 202.598 390.65C202.498 390.964 202.331 391.254 202.109 391.498C201.887 391.742 201.614 391.935 201.311 392.065C201.051 392.126 200.777 392.091 200.54 391.967C199.75 391.538 200.121 390.142 200.121 389.381V357.447C200.876 358.07 201.681 358.629 202.53 359.116C207.611 362.044 214.681 363.127 221.195 362.347V392.601C221.166 393.46 221.653 397.11 220.678 397.286Z" fill="#FFAD66"/>
<path d="M293.576 366.235C293.617 358.592 282.927 352.338 269.7 352.266C256.472 352.195 245.716 358.332 245.674 365.976C245.633 373.619 256.323 379.873 269.55 379.944C282.778 380.016 293.534 373.878 293.576 366.235Z" fill="#F2F2F2"/>
<path d="M290.035 364.685C290.071 358.168 280.961 352.836 269.689 352.775C258.416 352.714 249.249 357.947 249.214 364.463C249.179 370.98 258.289 376.312 269.561 376.373C280.834 376.434 290 371.201 290.035 364.685Z" fill="#C4C4C4"/>
<path d="M289.351 326.079H249.914V363.068C249.807 366.074 251.738 369.109 255.766 371.413C263.489 375.873 275.981 375.892 283.656 371.461C287.635 369.158 289.507 366.113 289.371 363.088L289.351 326.079Z" fill="#D9D9D9"/>
<path d="M290.036 326.847C290.072 320.33 280.962 314.998 269.69 314.937C258.417 314.876 249.25 320.109 249.215 326.626C249.18 333.142 258.29 338.474 269.562 338.535C280.834 338.596 290.001 333.363 290.036 326.847Z" fill="#F2F2F2"/>
<path d="M273.904 338.338C267.39 339.118 260.329 338.035 255.249 335.107C254.399 334.622 253.593 334.064 252.84 333.438L256.302 331.486L273.173 335.81L273.904 338.338Z" fill="#8482FF"/>
<path d="M285.695 330.354C284.673 331.785 283.339 332.963 281.794 333.799C275.094 337.703 264.24 337.654 257.414 333.751C255.84 332.906 254.487 331.702 253.464 330.237C251.124 326.694 252.411 322.537 257.365 319.687C264.065 315.783 274.967 315.832 281.745 319.687C286.748 322.615 288.064 326.802 285.695 330.354Z" fill="#999999"/>
<path d="M285.694 330.355C284.673 331.785 283.339 332.964 281.793 333.8C275.094 337.704 264.24 337.655 257.413 333.751C255.839 332.906 254.486 331.703 253.464 330.237C254.484 328.806 255.818 327.627 257.365 326.792C264.064 322.888 274.967 322.937 281.745 326.841C283.312 327.696 284.663 328.897 285.694 330.355Z" fill="#4D4BB7"/>
<path d="M257.414 321.502C264.114 317.598 275.017 317.647 281.794 321.551C284.778 323.278 286.446 325.455 286.797 327.719C287.255 324.869 285.588 321.922 281.794 319.726C275.046 315.822 264.143 315.822 257.414 319.726C253.679 321.883 252.041 324.791 252.48 327.621C252.84 325.357 254.489 323.2 257.414 321.502Z" fill="#D9D9D9"/>
<path d="M273.407 373.228H273.271C272.897 373.2 272.547 373.029 272.296 372.75C271.477 371.94 271.223 370.681 270.433 369.822C269.643 368.964 268.843 368.778 268.19 368.095C267.702 367.587 267.41 366.924 266.932 366.407C266.718 366.127 266.416 365.927 266.075 365.838C265.734 365.75 265.373 365.778 265.05 365.919C264.631 366.172 264.309 366.748 263.831 366.65C263.689 366.614 263.559 366.544 263.451 366.446C262.73 365.729 262.317 364.759 262.3 363.742C262.232 362.766 262.378 361.741 262.368 360.736C262.374 360.251 262.295 359.769 262.134 359.311C261.695 358.228 260.545 357.564 260.067 356.5C259.803 355.915 259.735 355.202 259.247 354.802C258.754 354.501 258.168 354.39 257.599 354.49C257.446 354.486 257.295 354.523 257.161 354.597C257.018 354.734 256.928 354.918 256.907 355.115C256.117 358.911 256.907 363.039 255.337 366.592C255.237 366.905 255.071 367.193 254.851 367.437C254.63 367.681 254.361 367.876 254.059 368.007C253.8 368.074 253.524 368.039 253.289 367.909C252.489 367.48 252.87 366.084 252.87 365.323V333.39C253.623 334.015 254.429 334.573 255.278 335.059C260.359 337.986 267.429 339.07 273.944 338.289V368.544C273.905 369.403 274.392 373.053 273.407 373.228Z" fill="#4D4BB7"/>
<path d="M380.806 363.654C371.483 369.041 356.309 369.012 346.927 363.585C337.546 358.159 337.497 349.405 346.82 344.017C356.143 338.63 371.317 338.659 380.698 344.076C390.08 349.493 390.129 358.266 380.806 363.654Z" fill="#F2F2F2"/>
<path d="M378.338 360.677C370.4 365.264 357.469 365.245 349.472 360.619C341.476 355.993 341.437 348.527 349.385 343.94C357.332 339.353 370.254 339.372 378.251 343.988C386.247 348.605 386.237 356.081 378.338 360.677Z" fill="#C4C4C4"/>
<path d="M383.536 313.812H344.099V350.791C343.992 353.797 345.923 356.832 349.95 359.135C357.674 363.605 370.166 363.625 377.841 359.184C381.82 356.891 383.692 353.836 383.565 350.81L383.536 313.812Z" fill="#D9D9D9"/>
<path d="M384.224 314.562C384.259 308.046 375.15 302.714 363.877 302.653C352.605 302.592 343.438 307.825 343.403 314.341C343.367 320.858 352.477 326.19 363.75 326.251C375.022 326.312 384.189 321.079 384.224 314.562Z" fill="#F2F2F2"/>
<path d="M368.089 326.021C361.574 326.792 354.504 325.719 349.423 322.781C348.573 322.297 347.767 321.738 347.015 321.112L350.477 319.16L367.348 323.474L368.089 326.021Z" fill="#737373"/>
<path d="M379.899 318.077C378.884 319.513 377.548 320.693 375.998 321.522C369.288 325.426 358.396 325.426 351.618 321.522C350.051 320.667 348.7 319.466 347.668 318.008C345.328 314.456 346.615 310.298 351.569 307.449C358.278 303.545 369.171 303.593 375.949 307.497C380.932 310.337 382.239 314.524 379.899 318.077Z" fill="#999999"/>
<path d="M379.898 318.077C378.884 319.514 377.548 320.693 375.998 321.522C369.288 325.426 358.395 325.426 351.618 321.522C350.051 320.668 348.7 319.466 347.668 318.009C348.683 316.572 350.018 315.393 351.569 314.564C358.278 310.66 369.171 310.66 375.949 314.564C377.519 315.414 378.87 316.617 379.898 318.077Z" fill="#1F2125"/>
<path d="M351.598 309.235C358.308 305.331 369.201 305.38 375.978 309.235C378.962 310.962 380.64 313.139 380.991 315.413C381.439 312.563 379.772 309.606 375.978 307.419C369.23 303.516 358.337 303.516 351.598 307.371C347.873 309.527 346.225 312.436 346.674 315.266C347.025 313.09 348.663 310.923 351.598 309.235Z" fill="#D9D9D9"/>
<path d="M367.611 360.961H367.465C367.092 360.934 366.743 360.767 366.489 360.492C365.66 359.682 365.407 358.423 364.617 357.565C363.973 356.872 363.027 356.52 362.374 355.837C361.896 355.33 361.594 354.666 361.116 354.149C360.9 353.87 360.599 353.671 360.258 353.583C359.918 353.495 359.557 353.522 359.234 353.661C358.815 353.914 358.493 354.49 358.015 354.402C357.871 354.367 357.74 354.292 357.635 354.188C356.91 353.478 356.496 352.509 356.484 351.494C356.416 350.518 356.562 349.493 356.552 348.488C356.563 348.003 356.484 347.519 356.318 347.063C355.879 345.97 354.728 345.316 354.251 344.243C353.987 343.667 353.919 342.954 353.431 342.544C352.941 342.244 352.359 342.133 351.793 342.232C351.639 342.234 351.488 342.274 351.354 342.349C351.207 342.484 351.114 342.668 351.091 342.867C350.311 346.663 351.091 350.782 349.531 354.334C349.431 354.649 349.264 354.938 349.042 355.182C348.819 355.427 348.547 355.62 348.243 355.749C348.115 355.787 347.981 355.797 347.848 355.781C347.716 355.764 347.588 355.72 347.473 355.652C346.683 355.222 347.054 353.836 347.054 353.065V321.112C347.806 321.739 348.612 322.297 349.462 322.781C354.543 325.709 361.613 326.802 368.128 326.021V356.276C368.089 357.135 368.586 360.785 367.611 360.961Z" fill="#1F2125"/>
<path d="M49.5694 341.665C48.8555 342.031 48.065 342.222 47.263 342.222C46.461 342.222 45.6705 342.031 44.9567 341.665L11.4098 322.146C10.1616 321.414 10.1616 320.194 11.4098 319.482L45.1615 299.962C45.875 299.601 46.6634 299.413 47.4629 299.413C48.2625 299.413 49.0509 299.601 49.7644 299.962L83.3015 319.482C84.5693 320.223 84.5498 321.434 83.3015 322.156L49.5694 341.665Z" fill="#F2F2F2"/>
<path d="M49.3742 338.669L80.0052 320.975C80.2458 320.875 80.4555 320.713 80.6131 320.506C80.7708 320.298 80.8706 320.053 80.9024 319.794V316.7C80.8841 316.964 80.7933 317.217 80.6402 317.432C80.487 317.648 80.2774 317.816 80.0345 317.92L49.4133 335.614C48.766 335.947 48.0489 336.12 47.3215 336.12C46.594 336.12 45.8769 335.947 45.2296 335.614L14.7547 317.842C14.5196 317.738 14.3168 317.573 14.1675 317.363C14.0182 317.154 13.928 316.908 13.9062 316.651V319.794C13.9319 320.049 14.0237 320.293 14.1725 320.502C14.3213 320.711 14.522 320.877 14.7547 320.985L45.1809 338.679C45.8302 339.011 46.5494 339.184 47.2787 339.182C48.0081 339.18 48.7265 339.004 49.3742 338.669Z" fill="#FFAD66"/>
<path d="M49.3643 335.576C48.717 335.908 47.9999 336.081 47.2724 336.081C46.545 336.081 45.8279 335.908 45.1806 335.576L14.7544 317.842C13.6134 317.179 13.6232 316.105 14.7544 315.432L45.3757 297.738C46.0226 297.41 46.7375 297.239 47.4626 297.239C48.1877 297.239 48.9026 297.41 49.5495 297.738L79.9758 315.432C80.2282 315.518 80.4474 315.681 80.6026 315.898C80.7578 316.115 80.8413 316.375 80.8413 316.642C80.8413 316.909 80.7578 317.169 80.6026 317.386C80.4474 317.603 80.2282 317.766 79.9758 317.852L49.3643 335.576Z" fill="#FFD166"/>
<path d="M53.1683 310.698C56.2152 309.903 59.3434 309.461 62.4912 309.381L63.4664 311.333C60.619 311.471 57.7945 311.913 55.0407 312.65C52.1441 313.401 49.3622 314.54 46.771 316.037C44.5412 317.233 42.5562 318.839 40.9198 320.77C39.7255 322.155 38.9388 323.844 38.6476 325.65L35.2344 325.113C35.4548 323.126 36.2514 321.246 37.5261 319.707C39.2656 317.511 41.432 315.692 43.8941 314.358C46.7976 312.707 49.9199 311.475 53.1683 310.698Z" fill="white"/>
<path d="M107.808 74.0859L100.719 78.2142C100.745 78.2037 100.769 78.187 100.787 78.1654L107.877 74.0371C107.858 74.0587 107.835 74.0754 107.808 74.0859Z" fill="black"/>
<path d="M91.3369 58.2848L98.4266 54.1662C98.5176 54.1308 98.6185 54.1308 98.7094 54.1662L91.6295 58.236C91.5293 58.213 91.4242 58.2306 91.3369 58.2848Z" fill="black"/>
<path d="M102.308 76.643L109.398 72.5146L107.887 74.0371L100.797 78.1557L102.308 76.643Z" fill="black"/>
<path d="M91.6201 58.2455L98.7098 54.127L101.148 54.6247L94.0581 58.753L91.6201 58.2455Z" fill="black"/>
<path d="M118.057 82.2644L110.968 86.3829C111.035 86.3328 111.089 86.266 111.123 86.189C111.157 86.1121 111.171 86.0276 111.163 85.9438L118.253 81.8154C118.26 81.9006 118.247 81.9865 118.213 82.065C118.179 82.1435 118.125 82.2121 118.057 82.2644Z" fill="black"/>
<path d="M111.173 82.9965L118.263 78.8779V81.8156L111.163 85.9439L111.173 82.9965Z" fill="black"/>
<path d="M92.6738 47.1298L99.7635 43.0113C99.8373 42.9675 99.9215 42.9443 100.007 42.9443C100.093 42.9443 100.177 42.9675 100.251 43.0113C100.333 43.0568 100.408 43.1126 100.475 43.1772L93.376 47.2957C93.3112 47.2322 93.2392 47.1765 93.1614 47.1298C93.087 47.0879 93.003 47.0659 92.9176 47.0659C92.8322 47.0659 92.7483 47.0879 92.6738 47.1298Z" fill="black"/>
<path d="M93.3848 47.3441L100.474 43.2158L102.903 45.5289L95.813 49.6572L93.3848 47.3441Z" fill="black"/>
<path d="M101.235 52.7026L108.335 48.584C106.511 49.638 105.409 51.8827 105.409 55.0839C105.409 61.5155 109.915 69.3622 115.512 72.5927L108.423 76.721C102.825 73.4808 98.3001 65.6438 98.3196 59.1537C98.3001 56.0111 99.4313 53.7664 101.235 52.7026Z" fill="black"/>
<path d="M122.69 73.2955L115.6 77.4238C113.757 78.4974 111.202 78.3412 108.394 76.7211L115.483 72.5928C118.292 74.2226 120.886 74.369 122.69 73.2955Z" fill="black"/>
<path d="M127.517 82.6351L120.418 86.7635C120.652 86.6268 120.701 86.2169 120.496 85.7875L127.586 81.6592C127.79 82.0788 127.712 82.4887 127.517 82.6351Z" fill="black"/>
<path d="M118.994 82.4984L126.084 78.3799L127.586 81.6298L120.496 85.7582L118.994 82.4984Z" fill="black"/>
<path d="M121.042 80.4779L128.132 76.3496C127.587 77.1524 126.891 77.8418 126.084 78.3796L118.994 82.5079C119.797 81.9644 120.491 81.276 121.042 80.4779Z" fill="black"/>
<path d="M100.895 43.2064L107.984 39.0781L109.486 42.3281L102.387 46.4564L100.895 43.2064Z" fill="black"/>
<path d="M107.428 38.4337C107.368 38.394 107.301 38.3666 107.231 38.3532C107.161 38.3398 107.088 38.3406 107.018 38.3557L103.595 39.234C103.57 39.2285 103.543 39.2285 103.517 39.234L96.418 43.3623H96.5057L99.9287 42.484C99.9994 42.4709 100.072 42.472 100.142 42.487C100.213 42.5021 100.279 42.5309 100.338 42.5718C100.582 42.7249 100.773 42.9499 100.884 43.216L107.984 39.0876C107.868 38.819 107.674 38.5912 107.428 38.4337Z" fill="#666666"/>
<path d="M131.262 78.868L124.162 82.9964C124.203 82.9738 124.239 82.9431 124.267 82.9062C124.296 82.8693 124.316 82.8269 124.328 82.7816L131.427 78.6533C131.4 78.7424 131.341 78.8186 131.262 78.868Z" fill="black"/>
<path d="M102.357 46.4565L109.447 42.3281C110.569 42.3935 111.676 42.6203 112.734 43.0015L105.644 47.1299C104.588 46.7446 103.48 46.5177 102.357 46.4565Z" fill="black"/>
<path d="M125.654 78.9164L132.744 74.7881L131.428 78.6529L124.338 82.7715L125.654 78.9164Z" fill="black"/>
<path d="M132.305 73.5396L129.867 71.2266L122.777 75.3451L125.206 77.6679C125.382 77.8196 125.516 78.0145 125.594 78.2334C125.673 78.4523 125.694 78.6879 125.654 78.9172L132.744 74.7888C132.783 74.5604 132.763 74.326 132.686 74.1075C132.609 73.8889 132.478 73.6935 132.305 73.5396Z" fill="#666666"/>
<path d="M122.836 71.3822L129.926 67.2539C129.996 67.9315 130.029 68.6125 130.023 69.2937C130.024 69.9458 129.988 70.5975 129.916 71.2456L122.826 75.3642C122.899 74.7161 122.935 74.0644 122.933 73.4122C122.885 72.7583 122.836 72.0654 122.836 71.3822Z" fill="black"/>
<path d="M111.261 50.3598L118.36 46.2314C119.532 47.1853 120.628 48.2296 121.637 49.3545L114.547 53.4829C113.537 52.3553 112.438 51.3109 111.261 50.3598Z" fill="black"/>
<path d="M111.28 47.4125L118.37 43.2842L118.36 46.2316L111.271 50.3599L111.28 47.4125Z" fill="black"/>
<path d="M117.678 42.1033L113.465 39.6927C113.389 39.6509 113.303 39.6289 113.216 39.6289C113.129 39.6289 113.044 39.6509 112.968 39.6927L105.878 43.821C105.951 43.7751 106.035 43.7508 106.122 43.7508C106.208 43.7508 106.292 43.7751 106.366 43.821L110.588 46.2512C110.787 46.3823 110.953 46.5583 111.071 46.7652C111.19 46.972 111.258 47.2038 111.271 47.4419L118.36 43.3233C118.356 43.0795 118.291 42.8406 118.172 42.6278C118.053 42.415 117.883 42.2349 117.678 42.1033Z" fill="#666666"/>
<path d="M119.053 59.8754L126.152 55.7568C126.929 57.1688 127.607 58.633 128.181 60.1389L121.081 64.2672C120.507 62.7582 119.829 61.2907 119.053 59.8754Z" fill="black"/>
<path d="M132.589 67.7222L125.499 71.8408C125.675 71.7432 125.743 71.4797 125.665 71.1381L132.755 67.0098C132.842 67.3514 132.774 67.6149 132.589 67.7222Z" fill="black"/>
<path d="M124.387 65.7611L131.476 61.6426L132.773 67.0104L125.674 71.1387L124.387 65.7611Z" fill="black"/>
<path d="M130.823 60.7243C130.76 60.6785 130.686 60.6484 130.609 60.6364L128.181 60.1387L121.081 64.267L123.519 64.7647C123.595 64.7776 123.667 64.804 123.734 64.8428C123.9 64.955 124.042 65.099 124.153 65.2665C124.263 65.434 124.34 65.6217 124.377 65.8188L131.467 61.6905C131.431 61.494 131.356 61.3069 131.245 61.1408C131.134 60.9746 130.991 60.8329 130.823 60.7243Z" fill="#666666"/>
<path d="M120.574 58.3627L127.664 54.2441L126.152 55.7471L119.062 59.8754L120.574 58.3627Z" fill="black"/>
<path d="M125.206 77.6671C125.382 77.8188 125.516 78.0137 125.595 78.2326C125.673 78.4515 125.694 78.6871 125.655 78.9163L124.328 82.8202C124.241 83.0935 123.968 83.152 123.675 82.9861C123.602 82.9404 123.534 82.8881 123.47 82.83L121.042 80.5169C120.491 81.315 119.797 82.0034 118.994 82.5469L120.496 85.7969C120.72 86.2849 120.642 86.7728 120.34 86.8216L116.917 87.6903C116.847 87.7053 116.774 87.7061 116.704 87.6927C116.634 87.6793 116.567 87.6519 116.507 87.6122C116.267 87.452 116.075 87.2293 115.951 86.968L114.459 83.7083C113.337 83.6507 112.23 83.427 111.173 83.0447V85.9726C111.173 86.4117 110.861 86.5874 110.48 86.363L106.258 83.9035C106.058 83.7729 105.891 83.5972 105.77 83.3904C105.65 83.1837 105.58 82.9516 105.565 82.7128V79.785C104.391 78.8303 103.295 77.7826 102.289 76.6521L100.777 78.1746C100.698 78.2371 100.6 78.2712 100.499 78.2712C100.398 78.2712 100.301 78.2371 100.221 78.1746C100.063 78.0772 99.9267 77.9475 99.8216 77.794L96.4084 72.9727C96.1061 72.5335 96.0378 71.9968 96.2621 71.7723L97.7737 70.2596C96.9962 68.8494 96.3215 67.3849 95.755 65.8775L93.317 65.3797C93.2413 65.3669 93.1686 65.3405 93.1024 65.3017C92.7682 65.0717 92.5345 64.7225 92.4491 64.3257L91.1618 58.9481C91.0448 58.4699 91.2398 58.1381 91.6104 58.2162L94.0484 58.7139C93.9801 58.0307 93.9411 57.3378 93.9411 56.6644C93.9411 55.991 93.9899 55.3566 94.0581 54.7125L91.6201 52.3994C91.4471 52.2434 91.3162 52.0463 91.2395 51.8262C91.1628 51.6062 91.1428 51.3703 91.1813 51.1404L92.4978 47.2366C92.5953 46.9536 92.8586 46.895 93.1512 47.0609C93.229 47.1076 93.301 47.1633 93.3657 47.2268L95.8037 49.5399C96.3426 48.7352 97.0353 48.0453 97.8419 47.5099L96.3401 44.2599C96.1158 43.7719 96.1841 43.2839 96.4961 43.2839L99.9191 42.4056C99.9898 42.3925 100.062 42.3935 100.133 42.4086C100.203 42.4237 100.27 42.4525 100.329 42.4934C100.573 42.6465 100.764 42.8715 100.875 43.1375L102.357 46.4558C103.48 46.517 104.587 46.7439 105.644 47.1292V44.2013C105.644 43.7622 105.946 43.5865 106.326 43.811L110.549 46.2411C110.748 46.3722 110.913 46.5483 111.032 46.7551C111.15 46.9619 111.219 47.1937 111.231 47.4318V50.3597C112.409 51.3107 113.508 52.3551 114.518 53.4827L116.02 51.97C116.099 51.9075 116.197 51.8735 116.298 51.8735C116.398 51.8735 116.496 51.9075 116.575 51.97C116.737 52.0708 116.877 52.2036 116.985 52.3604L120.398 57.1816C120.701 57.6208 120.769 58.1576 120.545 58.3821L119.023 59.8851C119.8 61.3004 120.478 62.7678 121.052 64.2769L123.49 64.7746C123.565 64.7875 123.638 64.8139 123.704 64.8527C123.87 64.9649 124.013 65.1089 124.123 65.2764C124.234 65.4439 124.31 65.6316 124.348 65.8287L125.645 71.1965C125.762 71.6845 125.557 72.0065 125.196 71.9382L122.758 71.4405C122.827 72.1236 122.856 72.8166 122.856 73.4802C122.857 74.1324 122.821 74.7841 122.749 75.4322L125.206 77.6671ZM108.394 76.6912C113.981 79.9216 118.536 77.3255 118.555 70.8354C118.575 64.3452 114.05 56.5668 108.452 53.3364C102.854 50.1059 98.3003 52.6922 98.2905 59.1238C98.2808 65.5554 102.796 73.4022 108.394 76.6912Z" fill="#333333"/>
<path d="M127.517 53.0539L124.104 48.1741C124.002 48.0183 123.865 47.8881 123.704 47.7935C123.63 47.7497 123.546 47.7266 123.46 47.7266C123.375 47.7266 123.29 47.7497 123.217 47.7935L116.127 51.9121C116.2 51.8701 116.282 51.848 116.366 51.848C116.45 51.848 116.532 51.8701 116.605 51.9121C116.767 52.0128 116.906 52.1457 117.014 52.3024L120.428 57.1237C120.73 57.5629 120.798 58.0997 120.574 58.3241L127.664 54.1958C127.888 54.0201 127.82 53.4834 127.517 53.0539Z" fill="#666666"/>
<path d="M95.3447 24.165L103.79 19.2852H103.858L95.4227 24.165C95.3977 24.1552 95.3698 24.1552 95.3447 24.165Z" fill="#4D4BB7"/>
<path d="M114.508 34.6766L106.062 39.5565C106.13 39.5143 106.179 39.448 106.199 39.371L114.644 34.4912C114.622 34.567 114.573 34.6325 114.508 34.6766Z" fill="#4D4BB7"/>
<path d="M95.4229 24.1266L103.868 19.2175L105.633 18.7588L97.188 23.6679L95.4229 24.1266Z" fill="#4D4BB7"/>
<path d="M106.882 37.3993L115.327 32.4902L114.644 34.491L106.209 39.4001L106.882 37.3993Z" fill="#4D4BB7"/>
<path d="M93.707 13.1566L102.142 8.27677C102.208 8.24001 102.282 8.2207 102.357 8.2207C102.432 8.2207 102.506 8.24001 102.572 8.27677L94.1264 13.1566C94.0637 13.1166 93.991 13.0954 93.9167 13.0954C93.8424 13.0954 93.7697 13.1166 93.707 13.1566Z" fill="#4D4BB7"/>
<path d="M94.126 13.1952L102.571 8.28613L104.756 9.54513L96.3104 14.4542L94.126 13.1952Z" fill="#4D4BB7"/>
<path d="M123.333 38.4928L114.888 43.3726C115.034 43.2848 115.092 43.0603 115.024 42.7675L123.469 37.8877C123.538 38.1902 123.479 38.4147 123.333 38.4928Z" fill="#4D4BB7"/>
<path d="M114.371 40.0341L122.807 35.125L123.479 37.8967L115.034 42.8058L114.371 40.0341Z" fill="#4D4BB7"/>
<path d="M122.953 29.8063L114.508 34.6861C112.938 35.6035 110.763 35.4766 108.364 34.0908L116.809 29.2109C119.208 30.587 121.383 30.7237 122.953 29.8063Z" fill="#4D4BB7"/>
<path d="M102.279 13.6445L110.724 8.76465C109.183 9.64302 108.208 11.5559 108.208 14.3179C108.208 19.8028 112.05 26.4881 116.819 29.2501L108.374 34.1299C103.605 31.368 99.753 24.6924 99.7627 19.2075C99.7627 16.465 100.728 14.5521 102.279 13.6445Z" fill="#4D4BB7"/>
<path d="M97.4805 6.08115L105.916 1.20134C105.979 1.16352 106.052 1.14355 106.126 1.14355C106.199 1.14355 106.272 1.16352 106.335 1.20134C106.475 1.28204 106.592 1.39605 106.677 1.53316L98.2411 6.41298C98.1504 6.28084 98.0344 6.16805 97.8998 6.08115C97.8361 6.04432 97.7637 6.02493 97.6901 6.02493C97.6165 6.02493 97.5442 6.04432 97.4805 6.08115Z" fill="#9996FF"/>
<path d="M127.712 37.3701L119.267 42.2499H119.325L127.77 37.3701H127.712Z" fill="#4D4BB7"/>
<path d="M98.2803 6.45108L106.726 1.53223L108.481 4.03069L100.036 8.93979L98.2803 6.45108Z" fill="#4D4BB7"/>
<path d="M100.036 8.94975L108.481 4.06994C109.229 3.71753 110.036 3.50896 110.861 3.45508L102.416 8.33489C101.59 8.38427 100.782 8.59306 100.036 8.94975Z" fill="#4D4BB7"/>
<path d="M121.451 40.1025L129.896 35.1934L127.77 37.321L119.325 42.2301L121.451 40.1025Z" fill="#4D4BB7"/>
<path d="M129.77 34.1889L128.005 31.6904L119.56 36.5702L121.325 39.0687C121.588 39.4396 121.646 39.8983 121.451 40.0447L129.897 35.1649C130.082 35.0185 130.023 34.5598 129.77 34.1889Z" fill="#9996FF"/>
<path d="M120.476 33.9052L128.921 29.0254C128.753 29.9642 128.444 30.8723 128.005 31.7191L119.56 36.5989C120.003 35.7539 120.312 34.8452 120.476 33.9052Z" fill="#4D4BB7"/>
<path d="M106.297 6.48038L114.742 1.57129L115.405 4.34302L106.96 9.25212L106.297 6.48038Z" fill="#4D4BB7"/>
<path d="M114.186 0.7812C114.128 0.749924 114.065 0.726931 114.001 0.712883L110.578 0.0101884C110.502 -0.0151149 110.42 -0.0151149 110.344 0.0101884L101.898 4.89001C101.974 4.86061 102.057 4.86061 102.132 4.89001L105.555 5.5927C105.621 5.60516 105.683 5.62824 105.741 5.66102C106.016 5.86634 106.202 6.17075 106.258 6.5101L114.703 1.63029C114.647 1.29093 114.462 0.986525 114.186 0.7812Z" fill="#9996FF"/>
<path d="M131.525 30.3045L123.08 35.1843C123.138 35.1429 123.184 35.0867 123.213 35.0215C123.243 34.9562 123.254 34.8844 123.246 34.8134L131.691 29.9336C131.697 30.0044 131.685 30.0756 131.656 30.1404C131.627 30.2053 131.582 30.2617 131.525 30.3045Z" fill="#4D4BB7"/>
<path d="M106.96 9.26263L115.405 4.38281C115.909 4.608 116.4 4.85883 116.878 5.1343C117.375 5.41733 117.853 5.74916 118.35 6.11027L109.905 10.9901C109.417 10.6485 108.93 10.3167 108.433 10.0141C107.957 9.73456 107.465 9.48362 106.96 9.26263Z" fill="#4D4BB7"/>
<path d="M119.599 24.6923L128.044 19.8125C128.439 21.0333 128.739 22.2831 128.941 23.5504L120.496 28.4303C120.293 27.1631 119.993 25.9134 119.599 24.6923Z" fill="#4D4BB7"/>
<path d="M123.265 30.704L131.71 25.7852L131.7 29.9232L123.255 34.8323L123.265 30.704Z" fill="#4D4BB7"/>
<path d="M131.115 24.7805L128.94 23.5215L120.495 28.4013L122.67 29.6603C122.838 29.765 122.98 29.9079 123.083 30.0774C123.187 30.2469 123.249 30.4383 123.265 30.6363L131.7 25.7564C131.688 25.5588 131.628 25.3671 131.526 25.1973C131.424 25.0275 131.283 24.8845 131.115 24.7805Z" fill="#9996FF"/>
<path d="M114.43 15.2939L122.875 10.4141C123.743 11.4795 124.534 12.6047 125.245 13.7811L116.809 18.6609C116.095 17.4847 115.3 16.3597 114.43 15.2939Z" fill="#4D4BB7"/>
<path d="M115.112 13.2734L123.558 8.36426L122.885 10.3552L114.439 15.2643L115.112 13.2734Z" fill="#4D4BB7"/>
<path d="M123.177 7.29121L119.764 4.04125C119.711 3.98425 119.648 3.93787 119.578 3.90462C119.517 3.86551 119.446 3.84473 119.374 3.84473C119.301 3.84473 119.23 3.86551 119.169 3.90462L110.724 8.78443C110.786 8.74748 110.856 8.72796 110.928 8.72796C111.001 8.72796 111.071 8.74748 111.133 8.78443C111.203 8.81769 111.266 8.86407 111.319 8.92107L114.741 12.171C114.887 12.3054 114.997 12.4738 115.062 12.6612C115.126 12.8485 115.144 13.0489 115.112 13.2446L123.557 8.36477C123.589 8.16825 123.571 7.96676 123.505 7.77906C123.438 7.59136 123.326 7.42354 123.177 7.29121Z" fill="#9996FF"/>
<path d="M116.81 18.6315L125.255 13.7224L127.02 13.2637L118.575 18.1728L116.81 18.6315Z" fill="#4D4BB7"/>
<path d="M122.67 29.6897C122.839 29.7945 122.98 29.9373 123.084 30.1068C123.187 30.2764 123.249 30.4678 123.265 30.6657V34.8038C123.265 35.1649 123.002 35.321 122.68 35.1258L120.496 33.8668C120.331 34.8068 120.022 35.7155 119.579 36.5605L121.344 39.059C121.607 39.4298 121.666 39.8885 121.471 40.0349L119.345 42.1625C119.277 42.2172 119.193 42.247 119.106 42.247C119.019 42.247 118.935 42.2172 118.867 42.1625C118.732 42.0795 118.616 41.9699 118.526 41.8405L116.77 39.342C116.02 39.6978 115.209 39.9065 114.381 39.9568L115.044 42.7286C115.142 43.1483 114.976 43.4215 114.674 43.363L111.241 42.6603C111.178 42.6505 111.118 42.6272 111.065 42.592C110.785 42.4099 110.586 42.1267 110.509 41.8014L109.846 39.0297C109.341 38.8084 108.849 38.5575 108.374 38.2782C107.867 37.9854 107.399 37.6731 106.901 37.3022L106.219 39.2542C106.141 39.4981 105.907 39.5469 105.663 39.4005C105.594 39.3648 105.532 39.3187 105.477 39.2639L102.064 36.0042C101.916 35.8741 101.804 35.7077 101.739 35.5212C101.674 35.3348 101.658 35.1346 101.694 34.9404L102.367 32.9885C101.5 31.9223 100.708 30.7972 99.9968 29.6214L98.2317 30.0801C98.1732 30.092 98.1128 30.0922 98.0542 30.0804C97.9956 30.0687 97.9399 30.0454 97.8904 30.0118C97.6787 29.8789 97.5121 29.6849 97.4125 29.4555L95.3061 24.888C95.1111 24.4781 95.1793 24.0974 95.4427 24.0291L97.2078 23.5704C96.8032 22.3489 96.503 21.0951 96.3106 19.8227L94.1261 18.5637C93.9604 18.4568 93.8215 18.3131 93.72 18.1439C93.6186 17.9747 93.5573 17.7844 93.541 17.5878V13.5278C93.541 13.1471 93.8043 13.0105 94.1359 13.1959L96.3203 14.4549C96.4877 13.5157 96.7968 12.6075 97.237 11.7613L95.4719 9.2628C95.2086 8.89194 95.1501 8.443 95.3451 8.28684L97.4808 6.12996C97.5492 6.07694 97.6332 6.04817 97.7197 6.04817C97.8062 6.04817 97.8903 6.07694 97.9587 6.12996C98.0933 6.21686 98.2093 6.32965 98.3 6.46179L100.055 8.96026C100.801 8.60019 101.609 8.38807 102.435 8.33564L101.752 5.53463C101.655 5.12472 101.83 4.84169 102.133 4.90025L105.555 5.60294C105.621 5.6154 105.683 5.63848 105.741 5.67126C106.014 5.87425 106.199 6.17478 106.258 6.51059L106.921 9.29208C107.426 9.5099 107.918 9.75759 108.393 10.0338C108.891 10.3168 109.368 10.6487 109.866 11.0098L110.548 9.00906C110.626 8.76507 110.851 8.71627 111.095 8.86266C111.165 8.89591 111.227 8.9423 111.28 8.99929L114.703 12.2493C114.848 12.3837 114.958 12.5521 115.023 12.7394C115.088 12.9267 115.105 13.1272 115.073 13.3228L114.391 15.3235C115.261 16.3862 116.056 17.508 116.77 18.6809L118.535 18.2319C118.597 18.1994 118.665 18.1817 118.734 18.18C118.804 18.1783 118.872 18.1927 118.935 18.2221C119.147 18.3511 119.313 18.5418 119.413 18.7687L121.519 23.3362C121.705 23.7461 121.646 24.1365 121.383 24.2048L119.618 24.6635C120.012 25.8846 120.312 27.1343 120.515 28.4014L122.67 29.6897ZM108.364 34.1206C113.133 36.8728 117.014 34.6574 117.024 29.1725C117.034 23.6875 113.191 17.0022 108.423 14.25C103.654 11.4978 99.7725 13.7132 99.753 19.1981C99.7335 24.683 103.595 31.3586 108.364 34.1206Z" fill="#6865F7"/>
<path d="M129.945 18.4559L127.839 13.8884C127.736 13.6608 127.57 13.4677 127.361 13.3321C127.259 13.2697 127.138 13.2455 127.019 13.2637L118.574 18.1436C118.636 18.1302 118.701 18.1303 118.763 18.1437C118.825 18.1572 118.884 18.1837 118.935 18.2216C119.146 18.3506 119.313 18.5413 119.413 18.7682L121.519 23.3357C121.685 23.7065 121.656 24.0579 121.461 24.175L129.896 19.2952C130.082 19.1976 130.111 18.8267 129.945 18.4559Z" fill="#9996FF"/>
</svg>
