<svg width="452" height="449" viewBox="0 0 452 449" fill="none" xmlns="http://www.w3.org/2000/svg">
<g clip-path="url(#clip0_1008_977)">
<path d="M365.759 432.721C365.45 435.811 364.366 438.71 361.277 440.532C359.213 441.748 356.288 442.504 352.076 442.432C341.599 442.294 321.889 434.798 321.889 434.798L303.441 424.594L313.036 409.406L315.665 405.283L322.448 406.809C322.448 406.809 328.067 409.991 333.713 412.529C339.358 415.067 353.081 415.626 357.912 419.511C362.742 423.397 366.285 427.625 365.759 432.721Z" fill="#605797"/>
<path d="M365.759 432.72C365.45 435.81 364.366 438.71 361.277 440.531C362.163 437.494 361.98 434.245 360.758 431.326C358.701 426.724 351.99 422.614 343.164 421.937C334.337 421.26 327.594 417.131 324.058 415.283C321.298 413.85 315.475 410.72 313.05 409.418L315.679 405.296L322.461 406.821C322.461 406.821 328.081 410.004 333.726 412.542C339.372 415.08 353.095 415.638 357.925 419.524C362.756 423.41 366.285 427.625 365.759 432.72Z" fill="white"/>
<path d="M438.744 179.728C388.506 93.6547 252.25 124.307 224.423 82.418C210.167 61.0427 194.223 36.1629 171.095 23.243C149.052 10.8689 123.479 6.5294 101.206 8.16C21.6092 13.9854 -12.0999 85.2124 3.20689 163.429C23.5809 267.761 116.039 374.341 225.862 375.084C283.31 375.518 338.202 354.899 381.178 325.89L382.137 325.233C425.146 295.974 477.1 245.439 438.744 179.728Z" fill="#E6E7E8"/>
<path d="M49.351 185.158H43.7646C37.7702 185.158 32.0213 187.54 27.7826 191.781C23.5439 196.021 21.1626 201.773 21.1626 207.77V331.846C21.1626 337.843 23.5439 343.595 27.7826 347.835C32.0213 352.076 37.7702 354.458 43.7646 354.458H120.404C126.398 354.458 132.147 352.076 136.386 347.835C140.624 343.595 143.006 337.843 143.006 331.846" stroke="#D1D3D4" stroke-width="1.1" stroke-linecap="round" stroke-linejoin="round" stroke-dasharray="4.41 4.41"/>
<path d="M136.762 68.0841V43.5725C136.762 39.9069 138.215 36.3909 140.802 33.7952C143.389 31.1995 146.9 29.736 150.564 29.7256H250.232C253.903 29.7256 257.424 31.1845 260.019 33.7813C262.615 36.3781 264.073 39.9001 264.073 43.5725" stroke="#D1D3D4" stroke-width="1.1" stroke-linecap="round" stroke-linejoin="round" stroke-dasharray="4.41 4.41"/>
<path d="M412.494 100.959V286.617C412.494 292.68 410.089 298.496 405.807 302.787C401.526 307.078 395.717 309.494 389.656 309.505H63.2247C57.1582 309.503 51.3408 307.091 47.0518 302.799C42.7627 298.507 40.3533 292.686 40.3533 286.617V100.959C40.342 100.423 40.3662 99.8871 40.4256 99.3546C40.8281 93.5791 43.4047 88.1712 47.6358 84.2215C51.8669 80.2717 57.4377 78.0739 63.2247 78.0713H389.656C395.449 78.0732 401.025 80.2761 405.257 84.2346C409.488 88.1931 412.058 93.6116 412.448 99.394C412.491 99.9145 412.506 100.437 412.494 100.959Z" fill="#EAD1A6"/>
<path d="M51.4868 107.929H402.531V279.438C402.529 285.121 400.272 290.571 396.256 294.59C392.24 298.609 386.793 300.869 381.112 300.872H72.9321C67.2485 300.872 61.7974 298.614 57.7773 294.595C53.7571 290.575 51.4969 285.124 51.4934 279.438V107.929H51.4868Z" fill="white"/>
<path d="M412.422 99.3946H40.4321C40.8347 93.6192 43.4113 88.2113 47.6424 84.2615C51.8735 80.3117 57.4443 78.1139 63.2313 78.1113H389.656C395.438 78.1207 401.001 80.3217 405.225 84.2709C409.45 88.2202 412.021 93.6243 412.422 99.3946Z" fill="#978361"/>
<path d="M86.1356 88.7094C86.1369 89.5123 85.9 90.2975 85.4549 90.9657C85.0098 91.6338 84.3766 92.1548 83.6353 92.4627C82.8941 92.7705 82.0782 92.8514 81.291 92.6951C80.5038 92.5388 79.7806 92.1523 79.2131 91.5845C78.6456 91.0168 78.2592 90.2933 78.103 89.5058C77.9467 88.7182 78.0276 87.902 78.3353 87.1605C78.6431 86.4189 79.1638 85.7854 79.8317 85.3401C80.4996 84.8949 81.2845 84.6579 82.087 84.6592C83.1608 84.6592 84.1905 85.0859 84.9498 85.8455C85.709 86.605 86.1356 87.6352 86.1356 88.7094Z" fill="white"/>
<path d="M103.263 88.7094C103.263 89.5104 103.026 90.2935 102.581 90.9596C102.136 91.6256 101.504 92.1447 100.764 92.4513C100.024 92.7578 99.21 92.838 98.4247 92.6818C97.6394 92.5255 96.918 92.1397 96.3518 91.5733C95.7856 91.0069 95.4 90.2852 95.2438 89.4995C95.0876 88.7139 95.1678 87.8995 95.4742 87.1594C95.7806 86.4194 96.2995 85.7868 96.9653 85.3418C97.6311 84.8967 98.4138 84.6592 99.2145 84.6592C100.288 84.6592 101.318 85.0859 102.077 85.8455C102.837 86.605 103.263 87.6352 103.263 88.7094Z" fill="white"/>
<path d="M116.342 92.7596C118.578 92.7596 120.39 90.9462 120.39 88.7094C120.39 86.4725 118.578 84.6592 116.342 84.6592C114.106 84.6592 112.293 86.4725 112.293 88.7094C112.293 90.9462 114.106 92.7596 116.342 92.7596Z" fill="white"/>
<path d="M402.531 107.929V279.438C402.529 285.121 400.272 290.571 396.256 294.59C392.239 298.609 386.792 300.869 381.112 300.872H72.9319C67.9686 300.874 63.1586 299.152 59.3231 296C55.4875 292.849 52.8641 288.464 51.9006 283.593V283.534C51.6372 282.176 51.5073 280.795 51.5129 279.411V107.929H402.531Z" fill="white" stroke="#2F2E41" stroke-miterlimit="10"/>
<path d="M402.202 134.452C400.699 133.606 399.099 132.944 397.437 132.48L395.512 123.873H387.329L385.423 132.48C383.753 132.937 382.146 133.6 380.639 134.452L373.225 129.718L367.442 135.484L372.088 142.875C371.236 144.383 370.574 145.991 370.117 147.661L361.507 149.568V157.754L370.117 159.68C370.571 161.359 371.233 162.973 372.088 164.487L367.363 171.93L373.153 177.716L380.586 172.982C382.088 173.835 383.691 174.498 385.358 174.954L387.27 183.554H395.426L397.339 174.954C399 174.49 400.6 173.827 402.104 172.982L402.485 173.232V134.242L402.202 134.452ZM391.443 164.375C389.352 164.375 387.307 163.754 385.568 162.592C383.829 161.429 382.473 159.776 381.673 157.843C380.873 155.909 380.664 153.782 381.072 151.73C381.481 149.677 382.489 147.792 383.968 146.313C385.448 144.834 387.333 143.827 389.385 143.419C391.436 143.012 393.563 143.222 395.495 144.024C397.427 144.826 399.078 146.183 400.239 147.923C401.4 149.664 402.02 151.71 402.018 153.802C402.019 155.191 401.746 156.566 401.216 157.849C400.685 159.133 399.906 160.298 398.925 161.28C397.943 162.262 396.778 163.041 395.495 163.572C394.213 164.103 392.838 164.376 391.45 164.375H391.443Z" fill="#EAD1A6"/>
<path d="M254.714 142.75V125.491L236.582 121.46C235.602 117.953 234.217 114.573 232.454 111.387L234.649 107.929H149.006L151.116 111.295C149.336 114.467 147.952 117.845 146.995 121.355L128.849 125.398V142.678L146.995 146.734C147.953 150.271 149.336 153.677 151.116 156.88L141.152 172.561L153.364 184.771L169.032 174.79C172.21 176.578 175.59 177.98 179.101 178.965L183.143 197.059H200.375L204.437 178.919C207.938 177.932 211.31 176.531 214.479 174.744L230.128 184.758L242.332 172.554L232.428 156.866C234.175 153.679 235.548 150.302 236.522 146.8L254.714 142.75ZM191.831 156.426C187.424 156.415 183.119 155.098 179.459 152.641C175.8 150.184 172.951 146.697 171.272 142.62C169.593 138.544 169.159 134.061 170.026 129.738C170.892 125.415 173.02 121.446 176.141 118.333C179.261 115.219 183.234 113.101 187.558 112.245C191.881 111.39 196.361 111.835 200.432 113.526C204.502 115.216 207.98 118.076 210.427 121.743C212.873 125.411 214.178 129.721 214.177 134.13C214.176 137.063 213.597 139.966 212.473 142.675C211.349 145.384 209.702 147.844 207.626 149.915C205.551 151.986 203.087 153.627 200.377 154.744C197.667 155.861 194.763 156.433 191.831 156.426Z" fill="#EAD1A6"/>
<path d="M249.719 240.849C250.246 238.725 250.526 236.547 250.554 234.359L260.412 229.204L257.691 219.217L246.578 219.73C245.452 217.862 244.114 216.133 242.588 214.575L245.874 203.943L236.91 198.789L229.404 206.974C227.288 206.461 225.121 206.185 222.944 206.153L217.791 196.29L207.814 199.006L208.34 210.13C206.472 211.254 204.743 212.593 203.188 214.121L192.554 210.834L187.401 219.796L195.643 227.291C195.109 229.404 194.836 231.575 194.828 233.754L184.969 238.909L187.69 248.89L198.817 248.364C199.912 250.24 201.236 251.972 202.76 253.519L199.474 264.098L208.445 269.253L215.911 261.133C218.03 261.666 220.207 261.94 222.392 261.948L227.544 271.81L237.521 269.095L237.081 259.594L237.008 257.964C238.899 256.846 240.649 255.506 242.22 253.972L252.848 257.26L257.238 249.587L257.98 248.272L249.719 240.849ZM226.151 246.911C223.596 247.616 220.889 247.548 218.373 246.715C215.857 245.881 213.645 244.32 212.015 242.229C210.386 240.137 209.414 237.609 209.22 234.965C209.027 232.32 209.622 229.678 210.93 227.372C212.238 225.066 214.2 223.199 216.568 222.009C218.937 220.818 221.605 220.357 224.235 220.683C226.865 221.01 229.34 222.109 231.345 223.842C233.351 225.575 234.798 227.865 235.503 230.421C235.5 230.451 235.5 230.482 235.503 230.513C236.418 233.931 235.946 237.573 234.19 240.644C232.433 243.716 229.534 245.968 226.125 246.911H226.151Z" fill="#EAD1A6"/>
<path d="M349.782 175.552L350.577 170.753L345.72 168.78C345.623 167.76 345.402 166.755 345.063 165.788L348.553 161.896L345.727 157.951L340.909 159.996C340.101 159.355 339.218 158.814 338.281 158.385L337.998 153.158L333.2 152.362L331.229 157.195C330.21 157.314 329.209 157.55 328.245 157.898L324.347 154.401L320.404 157.234L322.448 162.047C321.887 162.753 321.398 163.513 320.989 164.316C320.936 164.427 320.877 164.539 320.831 164.651L315.606 164.94L314.811 169.733L315.593 170.049L319.661 171.693C319.774 172.71 320.008 173.71 320.358 174.671L316.855 178.616L319.688 182.561L324.505 180.51C325.303 181.154 326.174 181.702 327.101 182.14L327.371 187.341L332.168 188.137L334.14 183.337C335.162 183.225 336.166 182.988 337.13 182.634L341.021 186.072L344.965 183.238L342.914 178.419C343.567 177.613 344.119 176.73 344.557 175.789L349.782 175.552ZM336.335 175.335C335.327 176.059 334.126 176.468 332.886 176.509C331.645 176.551 330.42 176.223 329.366 175.568C328.311 174.913 327.474 173.96 326.961 172.829C326.448 171.698 326.282 170.441 326.483 169.215C326.684 167.99 327.244 166.852 328.092 165.945C328.939 165.038 330.037 164.403 331.246 164.12C332.454 163.837 333.72 163.918 334.882 164.355C336.044 164.791 337.05 165.562 337.775 166.571C338.743 167.926 339.134 169.61 338.861 171.254C338.589 172.897 337.676 174.365 336.322 175.335H336.335Z" fill="#EAD1A6"/>
<path d="M178.069 156.899H70.2836C62.8208 156.899 56.771 162.952 56.771 170.418V319.703C56.771 327.169 62.8208 333.221 70.2836 333.221H178.069C185.531 333.221 191.581 327.169 191.581 319.703V170.418C191.581 162.952 185.531 156.899 178.069 156.899Z" fill="#978361"/>
<path opacity="0.2" d="M178.069 156.899H70.2836C62.8208 156.899 56.771 162.952 56.771 170.418V319.703C56.771 327.169 62.8208 333.221 70.2836 333.221H178.069C185.531 333.221 191.581 327.169 191.581 319.703V170.418C191.581 162.952 185.531 156.899 178.069 156.899Z" fill="black"/>
<path d="M204.121 183.738V333.024C204.123 334.798 203.775 336.556 203.097 338.197C202.42 339.837 201.426 341.328 200.172 342.584C198.918 343.84 197.43 344.836 195.791 345.517C194.152 346.197 192.396 346.547 190.621 346.548H82.8363C81.0612 346.548 79.3036 346.198 77.6637 345.519C76.0239 344.839 74.534 343.843 73.2791 342.587C72.0243 341.331 71.0291 339.84 70.3504 338.199C69.6717 336.558 69.3229 334.799 69.3237 333.024V183.771C69.3237 180.187 70.7465 176.75 73.2791 174.215C75.8118 171.68 79.2471 170.255 82.8297 170.253H190.615C192.389 170.253 194.146 170.603 195.785 171.282C197.424 171.961 198.913 172.957 200.167 174.213C201.422 175.468 202.416 176.958 203.095 178.598C203.773 180.238 204.122 181.996 204.121 183.771V183.738Z" fill="white"/>
<path d="M204.121 183.738V191.727H69.3237V183.738C69.3237 180.154 70.7465 176.716 73.2791 174.181C75.8118 171.646 79.2471 170.221 82.8297 170.22H190.615C192.389 170.22 194.146 170.569 195.785 171.249C197.424 171.928 198.913 172.924 200.167 174.179C201.422 175.435 202.416 176.925 203.095 178.565C203.773 180.205 204.122 181.963 204.121 183.738Z" fill="#978361"/>
<path d="M115.166 200.984H82.002V206.553H115.166V200.984Z" fill="#978361"/>
<path d="M115.166 250.876H82.002V256.445H115.166V250.876Z" fill="#978361"/>
<path d="M115.166 296.125H82.002V301.694H115.166V296.125Z" fill="#978361"/>
<path d="M176.189 214.772H82.002V218.856H176.189V214.772Z" fill="#EAD1A6"/>
<path d="M159.206 222.577H82.002V226.555H159.206V222.577Z" fill="#EAD1A6"/>
<path d="M169.314 230.257H82.002V234.235H169.314V230.257Z" fill="#EAD1A6"/>
<path d="M169.314 237.93H82.002V241.908H169.314V237.93Z" fill="#EAD1A6"/>
<path d="M176.189 260.015H82.002V264.098H176.189V260.015Z" fill="#EAD1A6"/>
<path d="M159.206 267.819H82.002V271.797H159.206V267.819Z" fill="#EAD1A6"/>
<path d="M169.314 275.499H82.002V279.477H169.314V275.499Z" fill="#EAD1A6"/>
<path d="M176.189 309.689H82.002V313.773H176.189V309.689Z" fill="#EAD1A6"/>
<path d="M159.206 317.507H82.002V321.485H159.206V317.507Z" fill="#EAD1A6"/>
<path d="M169.314 325.187H82.002V329.164H169.314V325.187Z" fill="#EAD1A6"/>
<path d="M356.052 66.6971V127.036C356.052 131.31 354.355 135.409 351.334 138.431C348.313 141.453 344.216 143.151 339.943 143.151H201.032C198.917 143.153 196.822 142.738 194.868 141.929C192.913 141.121 191.137 139.935 189.64 138.44C188.144 136.945 186.956 135.169 186.146 133.215C185.335 131.26 184.918 129.165 184.917 127.049V66.6971C184.92 62.4224 186.619 58.3237 189.641 55.301C192.662 52.2783 196.759 50.5787 201.032 50.5752H339.93C342.047 50.5743 344.143 50.9907 346.099 51.8005C348.055 52.6103 349.833 53.7977 351.33 55.2949C352.827 56.792 354.014 58.5696 354.825 60.526C355.635 62.4824 356.052 64.5794 356.052 66.6971Z" fill="#EAD1A6"/>
<path d="M356.052 66.6971V68.0844H184.904V66.6971C184.907 62.4201 186.608 58.3195 189.632 55.2964C192.657 52.2733 196.757 50.5752 201.032 50.5752H339.93C342.047 50.5743 344.143 50.9907 346.099 51.8005C348.055 52.6103 349.833 53.7977 351.33 55.2949C352.827 56.792 354.014 58.5696 354.825 60.526C355.635 62.4824 356.052 64.5794 356.052 66.6971Z" fill="#978361"/>
<path d="M210.049 62.2124C209.704 62.5579 209.263 62.7931 208.784 62.8883C208.305 62.9835 207.808 62.9344 207.356 62.7472C206.905 62.56 206.519 62.2431 206.248 61.8366C205.976 61.4301 205.832 60.9523 205.832 60.4634C205.832 59.9746 205.976 59.4967 206.248 59.0902C206.519 58.6837 206.905 58.3668 207.356 58.1796C207.808 57.9924 208.305 57.9433 208.784 58.0385C209.263 58.1337 209.704 58.369 210.049 58.7145C210.512 59.179 210.771 59.8079 210.771 60.4634C210.771 61.119 210.512 61.7478 210.049 62.2124Z" fill="#EAD1A6"/>
<path d="M221.511 62.2124C221.165 62.5579 220.725 62.7931 220.246 62.8883C219.767 62.9835 219.27 62.9344 218.818 62.7472C218.367 62.56 217.981 62.2431 217.71 61.8366C217.438 61.4301 217.293 60.9523 217.293 60.4634C217.293 59.9746 217.438 59.4967 217.71 59.0902C217.981 58.6837 218.367 58.3668 218.818 58.1796C219.27 57.9924 219.767 57.9433 220.246 58.0385C220.725 58.1337 221.165 58.369 221.511 58.7145C221.974 59.179 222.233 59.8079 222.233 60.4634C222.233 61.119 221.974 61.7478 221.511 62.2124Z" fill="#EAD1A6"/>
<path d="M232.973 62.2124C232.627 62.5579 232.187 62.7931 231.708 62.8883C231.228 62.9835 230.732 62.9344 230.28 62.7472C229.829 62.56 229.443 62.2431 229.172 61.8366C228.9 61.4301 228.755 60.9523 228.755 60.4634C228.755 59.9746 228.9 59.4967 229.172 59.0902C229.443 58.6837 229.829 58.3668 230.28 58.1796C230.732 57.9924 231.228 57.9433 231.708 58.0385C232.187 58.1337 232.627 58.369 232.973 58.7145C233.434 59.1799 233.692 59.8084 233.692 60.4634C233.692 61.1184 233.434 61.747 232.973 62.2124Z" fill="#EAD1A6"/>
<path d="M251.757 79.1758H195.813V127.555H251.757V79.1758Z" stroke="white" stroke-width="1.1" stroke-linecap="round" stroke-linejoin="round" stroke-dasharray="4.41 4.41"/>
<path d="M324.781 79.1758H260.399V82.5751H324.781V79.1758Z" fill="white"/>
<path d="M309.79 86.2178H260.399V89.6105H309.79V86.2178Z" fill="white"/>
<path d="M333.936 93.2266H260.399V96.6587H333.936V93.2266Z" fill="white"/>
<path d="M323.02 100.064H260.399V103.497H323.02V100.064Z" fill="white"/>
<path d="M360.731 216.449H329.244C325.527 216.449 322.514 219.464 322.514 223.182V241.671C322.514 245.389 325.527 248.404 329.244 248.404H360.731C364.448 248.404 367.461 245.389 367.461 241.671V223.182C367.461 219.464 364.448 216.449 360.731 216.449Z" fill="#EAD1A6"/>
<path d="M336.421 238.87C336.355 238.871 336.292 238.848 336.243 238.804L328.212 231.69C328.18 231.661 328.155 231.625 328.139 231.586C328.123 231.546 328.117 231.503 328.12 231.46C328.124 231.418 328.139 231.378 328.161 231.342C328.184 231.307 328.215 231.277 328.251 231.256L336.894 225.832C336.924 225.813 336.958 225.8 336.993 225.794C337.028 225.788 337.064 225.789 337.099 225.797C337.134 225.805 337.167 225.82 337.196 225.84C337.225 225.861 337.249 225.887 337.268 225.917C337.287 225.947 337.3 225.981 337.306 226.016C337.312 226.051 337.311 226.087 337.303 226.122C337.295 226.157 337.281 226.19 337.26 226.219C337.239 226.248 337.213 226.273 337.183 226.292L328.843 231.519L336.605 238.397C336.647 238.433 336.677 238.481 336.69 238.535C336.703 238.589 336.7 238.646 336.68 238.698C336.659 238.75 336.624 238.794 336.577 238.825C336.531 238.856 336.476 238.872 336.421 238.87Z" fill="#978361"/>
<path d="M352.759 239.383C352.72 239.384 352.682 239.376 352.647 239.36C352.611 239.344 352.58 239.32 352.555 239.291C352.531 239.264 352.513 239.232 352.502 239.198C352.491 239.164 352.486 239.128 352.489 239.093C352.492 239.057 352.503 239.022 352.52 238.991C352.537 238.959 352.56 238.931 352.588 238.909L360.08 232.525L351.418 226.837C351.388 226.818 351.363 226.793 351.342 226.764C351.322 226.734 351.308 226.701 351.301 226.667C351.293 226.632 351.293 226.596 351.3 226.561C351.306 226.526 351.32 226.492 351.339 226.463C351.379 226.404 351.441 226.362 351.511 226.348C351.581 226.333 351.653 226.346 351.714 226.384L360.679 232.262C360.714 232.285 360.744 232.316 360.766 232.352C360.787 232.389 360.8 232.43 360.803 232.472C360.805 232.514 360.798 232.556 360.782 232.594C360.766 232.633 360.742 232.667 360.711 232.696L352.936 239.33C352.885 239.366 352.822 239.385 352.759 239.383Z" fill="#978361"/>
<path d="M341.218 243.466C341.192 243.472 341.165 243.472 341.139 243.466C341.105 243.456 341.074 243.44 341.046 243.417C341.019 243.395 340.996 243.367 340.979 243.336C340.963 243.305 340.953 243.27 340.95 243.235C340.947 243.2 340.951 243.164 340.962 243.13L347.337 223.103C347.348 223.069 347.366 223.038 347.389 223.011C347.412 222.984 347.441 222.962 347.472 222.946C347.504 222.931 347.539 222.921 347.574 222.919C347.61 222.916 347.645 222.921 347.679 222.932C347.713 222.942 347.745 222.958 347.772 222.981C347.8 223.003 347.822 223.031 347.839 223.062C347.856 223.093 347.866 223.128 347.869 223.163C347.872 223.198 347.867 223.234 347.856 223.267L341.475 243.275C341.459 243.331 341.425 243.379 341.379 243.414C341.332 243.448 341.276 243.467 341.218 243.466Z" fill="#978361"/>
<path d="M274.72 417.447C274.72 417.447 244.836 425.994 240.656 427.5C236.864 428.815 226.579 432.451 218.863 431.326C218.117 431.219 217.379 431.06 216.655 430.853C208.834 428.519 205.317 426.343 204.286 421.424C203.254 416.506 207.151 412.877 210.904 410.563C214.657 408.248 235.004 405.815 235.004 405.815L239.92 407.262L274.72 417.447Z" fill="#605797"/>
<path d="M218.863 431.32C218.117 431.212 217.379 431.054 216.655 430.846C208.834 428.512 205.317 426.336 204.286 421.418C203.254 416.5 207.151 412.87 210.904 410.556C214.657 408.241 235.004 405.809 235.004 405.809L239.92 407.255C235.464 409.313 218.889 410.437 215.274 412.515C211.66 414.593 209.918 418.518 212.047 423.857C213.191 426.651 216.247 429.387 218.863 431.32Z" fill="white"/>
<path d="M328.37 267.728L297.151 255.847L296.757 255.695C296.757 255.695 296.869 254.867 296.961 253.631C297.158 251.139 297.263 247.056 296.087 245.701C294.345 243.643 289.416 245.373 284.605 243.163C279.794 240.954 270.895 244.906 270.895 244.906C270.895 244.906 264.468 243.722 261.622 248.364C260.182 252.105 260.675 257.642 260.675 257.642L260.084 257.852C256.364 259.239 236.128 266.86 231.823 269.924C227.091 273.277 221.853 307.677 220.177 317.783C218.501 327.889 215.504 336.995 217.022 340.467C218.541 343.938 240.282 360.698 252.795 365.018C265.309 369.338 309.678 368.108 309.678 368.108C309.678 368.108 310.395 367.917 311.65 367.503C319.155 365.09 345.78 355.129 359.91 331.748C359.989 331.788 346.279 286.907 328.37 267.728ZM244.021 325.588C241.721 327.218 242.989 333.524 242.989 333.524L239.085 330.085L248.891 305.948L253.078 324.503C253.078 324.503 246.315 323.983 244.021 325.601V325.588ZM322.514 340.92C321.429 341.473 325.603 329.874 323.624 327.244C321.646 324.614 315.679 324.864 315.679 324.864L316.185 321.702L319.721 303.555L320.897 302.161C320.897 302.161 333.036 322.977 335.211 330.322C335.211 330.354 321.962 340.934 322.514 340.934V340.92Z" fill="#605797"/>
<path opacity="0.2" d="M328.37 267.728L297.152 255.847L296.757 255.695C296.757 255.695 296.869 254.867 296.961 253.631L296.304 257.681L291.703 263.954C296.639 265.77 301.457 267.891 306.129 270.305C308.363 271.507 310.183 273.353 311.355 275.602C312.527 277.852 312.996 280.403 312.701 282.922L306.951 332.156L304.611 360.113L311.735 367.503C319.234 365.09 345.859 355.129 359.989 331.748C359.989 331.788 346.279 286.907 328.37 267.728ZM322.514 340.934C321.429 341.486 325.603 329.888 323.625 327.258C321.646 324.628 315.679 324.878 315.679 324.878L316.185 321.715L319.721 303.568L320.897 302.174C320.897 302.174 333.036 322.991 335.211 330.335C335.211 330.355 321.962 340.934 322.514 340.934Z" fill="black"/>
<path opacity="0.2" d="M255.148 327.258L250.324 311.031C250.324 311.031 241.616 281.325 235.648 274.007L237.18 294.896C237.18 294.896 232.027 319.848 227.321 327.258C222.615 334.668 221.564 336.542 227.321 336.542C233.078 336.542 247.11 347.719 247.11 347.719L246.032 338.435L255.148 327.258ZM242.917 333.537L239.013 330.098L248.819 305.961L253.006 324.516C253.006 324.516 246.289 324.01 243.988 325.634C241.688 327.258 242.917 333.537 242.917 333.537Z" fill="black"/>
<path d="M320.903 302.174C320.903 302.174 332.293 319.012 335.211 330.354" stroke="#263238" stroke-width="1.1" stroke-linecap="round" stroke-linejoin="round"/>
<path opacity="0.2" d="M281.358 277.313C281.36 277.676 281.253 278.03 281.053 278.331C280.853 278.633 280.568 278.868 280.233 279.007C279.899 279.147 279.531 279.183 279.176 279.113C278.821 279.043 278.495 278.869 278.239 278.613C277.983 278.356 277.809 278.03 277.739 277.675C277.669 277.32 277.705 276.952 277.844 276.618C277.984 276.283 278.219 275.998 278.52 275.798C278.822 275.597 279.176 275.491 279.538 275.492C280.018 275.49 280.479 275.679 280.82 276.017C281.161 276.354 281.355 276.814 281.358 277.294V277.313Z" fill="black"/>
<path d="M313.332 374.459H250.462C250.071 374.459 249.697 374.304 249.421 374.028C249.145 373.752 248.99 373.377 248.99 372.987C248.99 372.596 249.145 372.221 249.421 371.945C249.697 371.669 250.071 371.514 250.462 371.514H313.332C313.525 371.514 313.717 371.552 313.896 371.626C314.074 371.7 314.236 371.808 314.373 371.945C314.51 372.082 314.618 372.244 314.692 372.423C314.766 372.602 314.804 372.793 314.804 372.987C314.804 373.18 314.766 373.371 314.692 373.55C314.618 373.729 314.51 373.891 314.373 374.028C314.236 374.165 314.074 374.273 313.896 374.347C313.717 374.421 313.525 374.459 313.332 374.459Z" fill="#263238"/>
<path d="M315.534 369.515L323.933 329.94C324.049 329.4 324.057 328.842 323.957 328.299C323.857 327.756 323.651 327.237 323.351 326.774C323.051 326.31 322.662 325.911 322.207 325.598C321.752 325.285 321.24 325.064 320.7 324.949C320.408 324.889 320.11 324.858 319.812 324.857H246.381C245.266 324.859 244.197 325.303 243.408 326.092C242.62 326.881 242.176 327.95 242.174 329.065C242.176 329.342 242.205 329.617 242.26 329.887L249.811 368.16C249.995 369.101 250.495 369.95 251.228 370.567C251.961 371.184 252.882 371.532 253.84 371.553L311.341 372.868C312.32 372.883 313.274 372.556 314.039 371.945C314.804 371.333 315.333 370.474 315.534 369.515Z" fill="#D1D3D4"/>
<path d="M288.719 347.705C288.718 348.866 288.372 350.001 287.726 350.966C287.08 351.931 286.163 352.682 285.09 353.126C284.017 353.569 282.837 353.684 281.699 353.456C280.56 353.228 279.515 352.668 278.695 351.846C277.875 351.024 277.318 349.977 277.092 348.838C276.867 347.698 276.985 346.518 277.43 345.446C277.876 344.373 278.629 343.457 279.595 342.813C280.561 342.169 281.696 341.826 282.857 341.827C283.628 341.827 284.391 341.979 285.103 342.275C285.815 342.57 286.462 343.004 287.007 343.55C287.551 344.096 287.983 344.744 288.277 345.457C288.57 346.17 288.721 346.934 288.719 347.705Z" fill="#978361"/>
<path d="M308.981 328.914H300.273C300.234 328.92 300.193 328.918 300.155 328.907C300.117 328.896 300.081 328.877 300.051 328.851C300.021 328.825 299.997 328.793 299.98 328.757C299.963 328.721 299.955 328.681 299.955 328.641C299.955 328.602 299.963 328.562 299.98 328.526C299.997 328.49 300.021 328.458 300.051 328.432C300.081 328.406 300.117 328.387 300.155 328.376C300.193 328.365 300.234 328.362 300.273 328.369H309.001C309.066 328.379 309.125 328.412 309.168 328.462C309.211 328.512 309.235 328.575 309.235 328.641C309.235 328.707 309.211 328.771 309.168 328.821C309.125 328.871 309.066 328.904 309.001 328.914H308.981Z" fill="#2F2E41"/>
<path d="M291.729 328.914H258.559C258.494 328.904 258.434 328.871 258.392 328.821C258.349 328.771 258.325 328.707 258.325 328.641C258.325 328.575 258.349 328.511 258.392 328.461C258.434 328.411 258.494 328.378 258.559 328.368H291.729C291.794 328.378 291.853 328.411 291.896 328.461C291.939 328.511 291.963 328.575 291.963 328.641C291.963 328.707 291.939 328.771 291.896 328.821C291.853 328.871 291.794 328.904 291.729 328.914Z" fill="#2F2E41"/>
<path d="M315.678 411.595L308.981 429.189C308.981 429.189 291.893 424.876 270.014 420.392C247.123 415.697 223.22 409.629 210.825 387.859C209.32 385.229 208.307 382.08 209.017 379.108C210.805 371.592 220.584 369.548 227.025 368.798C231.075 368.369 235.144 368.149 239.217 368.141C241.28 368.141 248.129 367.016 249.792 368.246C252.284 370.067 254.945 371.646 257.737 372.96C261.398 374.512 314.804 371.566 314.804 371.566C315.734 369.539 316.301 367.365 316.48 365.142C324.886 360.875 344.307 357.252 352.555 358.863C365.47 361.316 373.002 368.857 371.569 376.747C370.136 384.637 341.613 405.828 315.678 411.595Z" fill="#2F2E41"/>
<path d="M315.678 411.595L308.981 429.189C308.981 429.189 291.893 424.876 270.014 420.392C247.123 415.697 223.22 409.629 210.825 387.859C209.32 385.229 208.307 382.08 209.017 379.108C210.805 371.592 220.584 369.548 227.025 368.798C231.075 368.369 235.144 368.149 239.217 368.141C241.28 368.141 248.129 367.016 249.792 368.246C252.284 370.067 254.945 371.646 257.737 372.96C261.398 374.512 314.804 371.566 314.804 371.566C315.734 369.539 316.301 367.365 316.48 365.142C324.886 360.875 344.307 357.252 352.555 358.863C365.47 361.316 373.002 368.857 371.569 376.747C370.136 384.637 341.613 405.828 315.678 411.595Z" fill="#2F2E41"/>
<path d="M315.678 411.844H315.613C315.448 411.805 299.182 407.42 285.998 398.53C283.862 397.084 281.779 395.585 279.761 394.138C269.318 386.61 259.459 379.535 244.041 381.35C244.005 381.354 243.969 381.351 243.935 381.342C243.901 381.332 243.869 381.316 243.84 381.294C243.812 381.272 243.789 381.245 243.771 381.214C243.754 381.183 243.743 381.148 243.738 381.113C243.734 381.078 243.737 381.042 243.746 381.007C243.756 380.973 243.772 380.941 243.794 380.913C243.816 380.885 243.843 380.861 243.874 380.844C243.905 380.826 243.94 380.815 243.975 380.811C259.604 378.989 269.548 386.136 280.076 393.704C282.087 395.151 284.171 396.643 286.3 398.083C299.386 406.926 315.586 411.286 315.751 411.325C315.82 411.345 315.879 411.391 315.914 411.454C315.95 411.517 315.959 411.591 315.941 411.66C315.921 411.714 315.885 411.761 315.838 411.793C315.791 411.826 315.736 411.844 315.678 411.844Z" fill="#2F2E41"/>
<path d="M283.113 396.473C283.044 396.479 282.976 396.459 282.922 396.416C282.867 396.374 282.831 396.312 282.821 396.244C282.811 396.176 282.828 396.106 282.867 396.049C282.907 395.993 282.967 395.954 283.034 395.94C290.329 393.843 295.863 389.497 301.719 384.888C302.547 384.23 303.375 383.573 304.217 382.915C311.33 377.209 318.966 372.188 327.022 367.917C327.086 367.885 327.16 367.878 327.229 367.899C327.298 367.919 327.356 367.966 327.39 368.029C327.408 368.061 327.418 368.095 327.422 368.131C327.426 368.166 327.422 368.202 327.412 368.237C327.401 368.271 327.384 368.303 327.361 368.331C327.339 368.358 327.31 368.381 327.279 368.397C319.25 372.645 311.641 377.643 304.552 383.323C303.711 383.98 302.882 384.638 302.054 385.295C296.139 389.937 290.579 394.316 283.185 396.473H283.113Z" fill="#2F2E41"/>
<path d="M266.649 237.068L267.55 246.931C267.813 249.884 269.175 252.631 271.366 254.627C273.556 256.624 276.416 257.726 279.38 257.714C282.407 257.719 285.32 256.562 287.521 254.483C289.722 252.404 291.042 249.56 291.21 246.536L291.709 237.739L266.649 237.068Z" fill="#F9B499"/>
<path d="M266.86 239.383L267.432 245.622C267.432 245.622 278.743 258.003 291.42 242.591L266.86 239.383Z" fill="#F7A48B"/>
<path d="M279.899 247.378C291.264 247.378 300.477 234.861 300.477 219.421C300.477 203.981 291.264 191.464 279.899 191.464C268.534 191.464 259.321 203.981 259.321 219.421C259.321 234.861 268.534 247.378 279.899 247.378Z" fill="#F9B499"/>
<path d="M258.638 223.664C261.275 223.036 262.565 218.962 261.519 214.564C260.472 210.166 257.486 207.109 254.848 207.738C252.21 208.366 250.92 212.44 251.967 216.838C253.013 221.236 256 224.292 258.638 223.664Z" fill="#F9B499"/>
<path d="M298.505 222.459C301.217 222.459 303.415 218.794 303.415 214.273C303.415 209.752 301.217 206.087 298.505 206.087C295.794 206.087 293.596 209.752 293.596 214.273C293.596 218.794 295.794 222.459 298.505 222.459Z" fill="#F9B499"/>
<path d="M259.321 221.709C260.776 221.482 262.09 220.708 262.995 219.546C263.546 218.526 263.897 217.41 264.027 216.258C264.408 214.065 264.599 211.843 264.599 209.617C264.556 208.747 264.635 207.875 264.835 207.027C265.146 206.174 265.624 205.391 266.242 204.726C267.694 203.016 269.456 201.576 270.843 199.801C271.587 198.963 272.154 197.983 272.507 196.919C272.861 195.855 272.994 194.731 272.9 193.614C276.087 196.246 279.814 198.146 283.815 199.181C287.817 200.216 291.997 200.36 296.06 199.604C303.428 198.157 310.486 191.714 309.632 183.567C309.469 182.206 308.885 180.93 307.961 179.917C307.037 178.904 305.82 178.206 304.479 177.919C300.845 177.012 297.572 178.952 294.279 180.201C288.266 182.469 282.383 178.57 276.311 177.919C271.158 177.354 264.737 178.005 262.036 183.179C262.036 183.179 252.762 184.277 248.641 191.944C244.521 199.61 252.322 210.229 252.322 210.229C252.322 210.229 255.411 206.435 259.459 214.102L259.321 221.709Z" fill="#2F2E41"/>
<path d="M294.128 197.013C294.128 197.013 291.309 209.598 298.676 215.686C298.676 215.686 300.293 211.906 301.916 210.978C303.082 208.776 303.579 206.281 303.345 203.799C303.111 201.318 302.158 198.959 300.602 197.013C295.18 189.695 294.128 197.013 294.128 197.013Z" fill="#2F2E41"/>
<g opacity="0.2">
<path d="M257.021 202.47C256.985 202.468 256.95 202.46 256.918 202.444C256.886 202.428 256.857 202.406 256.834 202.379C256.811 202.352 256.793 202.321 256.782 202.286C256.771 202.252 256.768 202.216 256.771 202.181C257.008 198.689 258.92 195.172 262.029 192.529C265.138 189.886 269.061 188.459 272.611 188.774C275.229 189.048 277.831 189.463 280.405 190.017C286.57 191.247 292.38 192.397 298.433 189.932C300.092 189.333 301.592 188.36 302.816 187.089C304.04 185.818 304.955 184.282 305.492 182.6C305.514 182.532 305.563 182.475 305.626 182.442C305.69 182.409 305.764 182.402 305.833 182.423C305.902 182.446 305.958 182.494 305.991 182.558C306.025 182.622 306.032 182.696 306.011 182.765C305.449 184.523 304.492 186.13 303.212 187.46C301.933 188.79 300.365 189.809 298.63 190.438C292.439 192.963 286.268 191.753 280.3 190.55C277.732 189.994 275.137 189.575 272.525 189.294C269.114 188.985 265.407 190.313 262.351 192.923C259.295 195.533 257.521 198.841 257.291 202.2C257.291 202.236 257.285 202.272 257.272 202.305C257.259 202.338 257.239 202.368 257.214 202.393C257.188 202.418 257.158 202.438 257.125 202.451C257.092 202.465 257.057 202.471 257.021 202.47Z" fill="white"/>
</g>
<g opacity="0.2">
<path d="M252.841 200.538C252.805 200.537 252.77 200.529 252.737 200.514C252.704 200.5 252.675 200.478 252.65 200.452C252.626 200.426 252.607 200.395 252.594 200.361C252.582 200.327 252.577 200.291 252.578 200.255C252.695 197.309 253.643 194.455 255.313 192.026C256.983 189.596 259.308 187.689 262.016 186.527C262.083 186.5 262.157 186.5 262.223 186.527C262.289 186.554 262.342 186.606 262.371 186.671C262.4 186.737 262.401 186.811 262.376 186.877C262.35 186.944 262.298 186.997 262.233 187.026C259.618 188.148 257.374 189.988 255.761 192.332C254.148 194.677 253.231 197.431 253.117 200.275C253.114 200.346 253.083 200.413 253.032 200.462C252.981 200.511 252.912 200.538 252.841 200.538Z" fill="white"/>
</g>
</g>
<defs>
<clipPath id="clip0_1008_977">
<rect width="452" height="449" fill="white"/>
</clipPath>
</defs>
</svg>
