<svg width="424" height="370" viewBox="0 0 424 370" fill="none" xmlns="http://www.w3.org/2000/svg">
<g clip-path="url(#clip0_1100_922)">
<path d="M207.549 257.628H122.378V287.005H207.549V257.628Z" fill="#ECECEC"/>
<path d="M207.549 287.004H122.378V316.381H207.549V287.004Z" fill="#ECECEC"/>
<path d="M154.743 287.005L165.338 257.628H149.034L138.434 287.005H154.743Z" fill="#EAD1A6"/>
<path d="M173.233 257.628H169.649L159.054 287.005H162.638L173.233 257.628Z" fill="#EAD1A6"/>
<path d="M144.149 316.381L154.744 287.004H138.434L127.839 316.381H144.149Z" fill="#EAD1A6"/>
<path d="M162.637 287.004H159.053L148.458 316.381H152.037L162.637 287.004Z" fill="#EAD1A6"/>
<path d="M207.544 262.151V259.177H122.373V262.151H207.544Z" fill="#EAD1A6"/>
<path d="M207.549 291.297V288.322H122.378V291.297H207.549Z" fill="#EAD1A6"/>
<path d="M120.914 256.311V317.666H209.035V256.311H120.914ZM206.042 314.691H123.864V288.559H206.042V314.691ZM206.042 285.585H123.864V259.448H206.042V285.585Z" fill="#EAD1A6"/>
<path d="M295.692 257.628H210.521V287.005H295.692V257.628Z" fill="#ECECEC"/>
<path d="M295.692 287.004H210.521V316.381H295.692V287.004Z" fill="#ECECEC"/>
<path d="M251.778 287.005L262.378 257.628H246.069L235.474 287.005H251.778Z" fill="#EAD1A6"/>
<path d="M270.267 257.628H266.688L256.088 287.005H259.672L270.267 257.628Z" fill="#EAD1A6"/>
<path d="M241.183 316.381L251.778 287.004H235.473L224.873 316.381H241.183Z" fill="#EAD1A6"/>
<path d="M259.672 287.004H256.088L245.493 316.381H249.077L259.672 287.004Z" fill="#EAD1A6"/>
<path d="M295.691 262.151V259.177H210.52V262.151H295.691Z" fill="#EAD1A6"/>
<path d="M295.691 291.297V288.322H210.52V291.297H295.691Z" fill="#EAD1A6"/>
<path d="M209.035 256.311V317.666H297.178V256.311H209.035ZM294.206 314.691H212.007V288.559H294.206V314.691ZM294.206 285.585H212.007V259.448H294.206V285.585Z" fill="#EAD1A6"/>
<path d="M383.835 257.628H298.664V287.005H383.835V257.628Z" fill="#ECECEC"/>
<path d="M383.835 287.004H298.664V316.381H383.835V287.004Z" fill="#ECECEC"/>
<path d="M334.911 287.005L345.511 257.628H329.201L318.606 287.005H334.911Z" fill="#EAD1A6"/>
<path d="M353.4 257.628H349.821L339.221 287.005H342.805L353.4 257.628Z" fill="#EAD1A6"/>
<path d="M324.316 316.381L334.911 287.004H318.606L308.006 316.381H324.316Z" fill="#EAD1A6"/>
<path d="M342.805 287.004H339.221L328.626 316.381H332.21L342.805 287.004Z" fill="#EAD1A6"/>
<path d="M383.835 262.146V259.172H298.664V262.146H383.835Z" fill="#EAD1A6"/>
<path d="M383.835 291.297V288.322H298.664V291.297H383.835Z" fill="#EAD1A6"/>
<path d="M297.178 256.311V317.666H385.32V256.311H297.178ZM382.349 314.691H300.154V288.559H382.349V314.691ZM382.349 285.585H300.154V259.448H382.349V285.585Z" fill="#EAD1A6"/>
<path d="M376.802 322.088H129.411L128.126 317.667H378.087L376.802 322.088Z" fill="#EAD1A6"/>
<path d="M255.665 275.069C255.67 275.576 255.523 276.072 255.245 276.496C254.966 276.919 254.568 277.25 254.101 277.447C253.633 277.644 253.118 277.698 252.62 277.601C252.122 277.505 251.664 277.263 251.304 276.907C250.944 276.55 250.698 276.094 250.598 275.598C250.497 275.101 250.547 274.586 250.74 274.117C250.933 273.648 251.261 273.248 251.682 272.966C252.103 272.684 252.599 272.533 253.106 272.533C253.781 272.533 254.429 272.8 254.908 273.275C255.387 273.749 255.66 274.394 255.665 275.069Z" fill="#EAD1A6"/>
<path d="M253.106 276.906C254.52 276.906 255.665 275.761 255.665 274.348C255.665 272.936 254.52 271.791 253.106 271.791C251.693 271.791 250.547 272.936 250.547 274.348C250.547 275.761 251.693 276.906 253.106 276.906Z" fill="#FAFAFA"/>
<path d="M253.106 304.614C254.52 304.614 255.665 303.469 255.665 302.056C255.665 300.644 254.52 299.499 253.106 299.499C251.693 299.499 250.547 300.644 250.547 302.056C250.547 303.469 251.693 304.614 253.106 304.614Z" fill="#EAD1A6"/>
<path d="M255.665 301.33C255.666 301.836 255.517 302.331 255.237 302.753C254.956 303.174 254.557 303.502 254.089 303.697C253.622 303.891 253.107 303.943 252.61 303.845C252.113 303.747 251.657 303.503 251.298 303.146C250.94 302.789 250.696 302.333 250.596 301.837C250.497 301.34 250.548 300.826 250.741 300.358C250.935 299.891 251.263 299.491 251.684 299.21C252.105 298.928 252.6 298.778 253.106 298.778C253.784 298.778 254.434 299.047 254.914 299.525C255.394 300.004 255.664 300.653 255.665 301.33Z" fill="#FAFAFA"/>
<path d="M167.545 275.069C167.546 275.575 167.397 276.07 167.116 276.491C166.835 276.913 166.436 277.241 165.968 277.436C165.5 277.63 164.985 277.681 164.488 277.582C163.991 277.484 163.535 277.24 163.176 276.882C162.818 276.524 162.574 276.068 162.476 275.572C162.377 275.075 162.428 274.56 162.623 274.093C162.817 273.625 163.146 273.226 163.568 272.945C163.989 272.665 164.485 272.516 164.991 272.517C165.669 272.517 166.318 272.785 166.797 273.264C167.276 273.743 167.545 274.392 167.545 275.069Z" fill="#EAD1A6"/>
<path d="M164.964 276.906C166.377 276.906 167.523 275.761 167.523 274.348C167.523 272.936 166.377 271.791 164.964 271.791C163.55 271.791 162.404 272.936 162.404 274.348C162.404 275.761 163.55 276.906 164.964 276.906Z" fill="#FAFAFA"/>
<path d="M164.964 304.614C166.377 304.614 167.523 303.469 167.523 302.056C167.523 300.644 166.377 299.499 164.964 299.499C163.55 299.499 162.404 300.644 162.404 302.056C162.404 303.469 163.55 304.614 164.964 304.614Z" fill="#EAD1A6"/>
<path d="M167.545 301.33C167.546 301.837 167.397 302.332 167.116 302.753C166.835 303.174 166.436 303.503 165.968 303.697C165.5 303.892 164.985 303.943 164.488 303.844C163.991 303.746 163.535 303.502 163.176 303.144C162.818 302.786 162.574 302.33 162.476 301.833C162.377 301.337 162.428 300.822 162.623 300.355C162.817 299.887 163.146 299.488 163.568 299.207C163.989 298.926 164.485 298.777 164.991 298.778C165.669 298.778 166.318 299.047 166.797 299.526C167.276 300.004 167.545 300.653 167.545 301.33Z" fill="#FAFAFA"/>
<path d="M345.391 275.069C345.392 275.575 345.243 276.07 344.962 276.491C344.682 276.912 344.282 277.241 343.815 277.435C343.347 277.63 342.833 277.681 342.336 277.583C341.839 277.485 341.382 277.242 341.024 276.884C340.666 276.527 340.421 276.071 340.322 275.575C340.223 275.079 340.273 274.564 340.467 274.097C340.66 273.629 340.988 273.229 341.409 272.948C341.83 272.667 342.325 272.517 342.832 272.517C343.51 272.517 344.16 272.785 344.639 273.264C345.119 273.742 345.39 274.391 345.391 275.069Z" fill="#EAD1A6"/>
<path d="M342.804 276.906C344.218 276.906 345.364 275.761 345.364 274.348C345.364 272.936 344.218 271.791 342.804 271.791C341.391 271.791 340.245 272.936 340.245 274.348C340.245 275.761 341.391 276.906 342.804 276.906Z" fill="#FAFAFA"/>
<path d="M342.804 304.614C344.218 304.614 345.364 303.469 345.364 302.056C345.364 300.644 344.218 299.499 342.804 299.499C341.391 299.499 340.245 300.644 340.245 302.056C340.245 303.469 341.391 304.614 342.804 304.614Z" fill="#EAD1A6"/>
<path d="M345.391 301.33C345.392 301.836 345.243 302.331 344.962 302.753C344.682 303.174 344.282 303.502 343.815 303.697C343.347 303.891 342.833 303.943 342.336 303.845C341.839 303.747 341.382 303.503 341.024 303.146C340.666 302.789 340.421 302.333 340.322 301.837C340.223 301.34 340.273 300.826 340.467 300.358C340.66 299.891 340.988 299.491 341.409 299.21C341.83 298.928 342.325 298.778 342.832 298.778C343.51 298.778 344.16 299.047 344.639 299.525C345.119 300.004 345.39 300.653 345.391 301.33Z" fill="#FAFAFA"/>
<path d="M423.986 23.6338H93.4512V215.366H423.986V23.6338Z" fill="#372A88"/>
<path opacity="0.5" d="M423.986 23.6338H93.4512V215.366H423.986V23.6338Z" fill="white"/>
<path d="M93.4512 23.6338V39.0972H148.757V33.1372C148.756 32.4355 148.894 31.7405 149.163 31.092C149.431 30.4435 149.825 29.8543 150.321 29.3581C150.818 28.8618 151.408 28.4684 152.057 28.2001C152.706 27.9319 153.401 27.7942 154.103 27.7949H190.914C191.617 27.7949 192.312 27.9331 192.96 28.2016C193.609 28.4701 194.198 28.8636 194.695 29.3597C195.191 29.8557 195.585 30.4447 195.854 31.0928C196.122 31.741 196.261 32.4357 196.261 33.1372V39.0972H423.991V23.6338H93.4512Z" fill="#372A88"/>
<path opacity="0.7" d="M107.24 31.3653C107.24 32.0672 107.031 32.7533 106.641 33.3369C106.251 33.9206 105.696 34.3754 105.047 34.644C104.398 34.9126 103.684 34.9829 102.995 34.846C102.306 34.7091 101.674 34.3711 101.177 33.8747C100.68 33.3784 100.342 32.7461 100.205 32.0576C100.068 31.3692 100.138 30.6557 100.407 30.0072C100.676 29.3587 101.131 28.8045 101.715 28.4145C102.299 28.0245 102.986 27.8164 103.688 27.8164C104.155 27.8164 104.616 27.9082 105.047 28.0865C105.478 28.2649 105.87 28.5263 106.2 28.8559C106.529 29.1854 106.791 29.5766 106.969 30.0072C107.148 30.4378 107.24 30.8992 107.24 31.3653Z" fill="white"/>
<path opacity="0.7" d="M117.894 31.3663C117.894 32.0682 117.686 32.7543 117.296 33.3379C116.905 33.9215 116.351 34.3764 115.702 34.645C115.053 34.9136 114.339 34.9839 113.65 34.847C112.961 34.71 112.328 34.372 111.831 33.8757C111.335 33.3794 110.996 32.747 110.859 32.0586C110.722 31.3702 110.793 30.6566 111.061 30.0082C111.33 29.3597 111.785 28.8054 112.369 28.4155C112.953 28.0255 113.64 27.8174 114.343 27.8174C115.284 27.8174 116.188 28.1913 116.854 28.8568C117.52 29.5224 117.894 30.425 117.894 31.3663Z" fill="white"/>
<path opacity="0.7" d="M128.548 31.3663C128.548 32.0682 128.34 32.7543 127.95 33.3379C127.56 33.9215 127.005 34.3764 126.356 34.645C125.707 34.9136 124.993 34.9839 124.304 34.847C123.615 34.71 122.982 34.372 122.486 33.8757C121.989 33.3794 121.651 32.747 121.514 32.0586C121.377 31.3702 121.447 30.6566 121.716 30.0082C121.984 29.3597 122.44 28.8054 123.024 28.4155C123.608 28.0255 124.294 27.8174 124.997 27.8174C125.939 27.8174 126.842 28.1913 127.508 28.8568C128.174 29.5224 128.548 30.425 128.548 31.3663Z" fill="white"/>
<path opacity="0.3" d="M411.872 68.6641H196.232V203.338H411.872V68.6641Z" fill="white"/>
<path opacity="0.3" d="M168.417 68.6641H105.021V132.013H168.417V68.6641Z" fill="white"/>
<path opacity="0.4" d="M168.417 68.6641H105.021V132.013H168.417V68.6641Z" fill="white"/>
<path d="M157.362 148.793H119.841V151.47H157.362V148.793Z" fill="#2F2E41"/>
<path d="M410.658 48.0322H347.148V57.7578H410.658V48.0322Z" fill="#007CFF"/>
<path opacity="0.9" d="M410.658 48.0322H347.148V57.7578H410.658V48.0322Z" fill="white"/>
<path d="M411.878 48.0322H410.663V57.7578H411.878V48.0322Z" fill="#372A88"/>
<path d="M260.958 48.0322H259.743V57.7578H260.958V48.0322Z" fill="#372A88"/>
<path d="M259.742 48.0322H196.232V57.7578H259.742V48.0322Z" fill="#007CFF"/>
<path opacity="0.9" d="M259.742 48.0322H196.232V57.7578H259.742V48.0322Z" fill="white"/>
<path opacity="0.4" d="M190.599 202.358C190.207 202.361 189.819 202.286 189.456 202.138C189.093 201.99 188.763 201.772 188.484 201.496C188.206 201.22 187.985 200.892 187.835 200.53C187.684 200.168 187.606 199.78 187.606 199.389V161.548C187.606 160.761 187.919 160.006 188.477 159.449C189.034 158.892 189.79 158.579 190.578 158.579C191.366 158.579 192.122 158.892 192.679 159.449C193.236 160.006 193.549 160.761 193.549 161.548V199.389C193.549 200.172 193.239 200.924 192.687 201.48C192.134 202.037 191.384 202.352 190.599 202.358Z" fill="white"/>
<path opacity="0.4" d="M115.02 150.132C115.021 151.07 114.744 151.987 114.223 152.767C113.702 153.548 112.962 154.156 112.095 154.516C111.228 154.875 110.274 154.97 109.353 154.788C108.433 154.605 107.587 154.154 106.923 153.492C106.259 152.829 105.806 151.984 105.623 151.064C105.439 150.144 105.533 149.191 105.892 148.324C106.251 147.458 106.859 146.717 107.639 146.196C108.42 145.675 109.337 145.396 110.276 145.396C110.898 145.396 111.515 145.518 112.091 145.755C112.666 145.993 113.189 146.342 113.63 146.782C114.071 147.221 114.42 147.744 114.659 148.319C114.897 148.893 115.02 149.51 115.02 150.132Z" fill="white"/>
<path d="M167.903 163.688H119.841V166.364H167.903V163.688Z" fill="#2F2E41"/>
<path opacity="0.4" d="M115.02 165.025C115.021 165.963 114.744 166.881 114.223 167.661C113.702 168.441 112.962 169.05 112.095 169.409C111.228 169.769 110.274 169.864 109.353 169.681C108.433 169.499 107.587 169.048 106.923 168.385C106.259 167.722 105.806 166.878 105.623 165.958C105.439 165.038 105.533 164.085 105.892 163.218C106.251 162.351 106.859 161.611 107.639 161.089C108.42 160.568 109.337 160.29 110.276 160.29C111.533 160.29 112.739 160.789 113.629 161.677C114.518 162.565 115.019 163.769 115.02 165.025Z" fill="white"/>
<path d="M161.196 178.583H119.841V181.26H161.196V178.583Z" fill="#2F2E41"/>
<path opacity="0.4" d="M115.02 179.921C115.02 180.858 114.742 181.775 114.22 182.554C113.699 183.334 112.958 183.942 112.091 184.301C111.224 184.659 110.27 184.753 109.35 184.57C108.43 184.387 107.584 183.936 106.921 183.273C106.257 182.61 105.805 181.765 105.622 180.845C105.439 179.926 105.533 178.973 105.892 178.106C106.251 177.24 106.86 176.5 107.64 175.979C108.42 175.458 109.337 175.18 110.276 175.18C111.534 175.18 112.741 175.679 113.63 176.568C114.52 177.457 115.02 178.663 115.02 179.921Z" fill="white"/>
<path d="M157.362 193.472H119.841V196.148H157.362V193.472Z" fill="#2F2E41"/>
<path opacity="0.4" d="M115.02 194.81C115.021 195.748 114.744 196.665 114.223 197.445C113.702 198.225 112.962 198.834 112.095 199.194C111.228 199.553 110.274 199.648 109.353 199.466C108.433 199.283 107.587 198.832 106.923 198.169C106.259 197.507 105.806 196.662 105.623 195.742C105.439 194.822 105.533 193.869 105.892 193.002C106.251 192.136 106.859 191.395 107.639 190.874C108.42 190.352 109.337 190.074 110.276 190.074C110.898 190.074 111.515 190.195 112.091 190.433C112.666 190.671 113.189 191.019 113.63 191.459C114.071 191.899 114.42 192.421 114.659 192.996C114.897 193.571 115.02 194.187 115.02 194.81Z" fill="white"/>
<path d="M321.642 221.603H355.33C356.057 221.603 356.16 220.471 355.428 220.471H321.74C321.013 220.471 320.91 221.603 321.642 221.603Z" fill="#372A88"/>
<path d="M360.752 221.603H365.008C365.735 221.603 365.838 220.471 365.106 220.471H360.849C360.123 220.471 360.02 221.603 360.752 221.603Z" fill="#372A88"/>
<path d="M194.835 19.0674H161.147C160.415 19.0674 160.318 20.1998 161.049 20.1998H194.737C195.464 20.1998 195.567 19.0674 194.835 19.0674Z" fill="#372A88"/>
<path d="M155.725 19.0674H151.468C150.742 19.0674 150.639 20.1998 151.371 20.1998H155.616C156.348 20.1998 156.446 19.0674 155.719 19.0674H155.725Z" fill="#372A88"/>
<path d="M407.134 92.5684H338.831V155.977H407.134V92.5684Z" fill="#372A88"/>
<path opacity="0.9" d="M407.134 92.5684H338.831V155.977H407.134V92.5684Z" fill="#EAD1A6"/>
<path d="M407.133 155.978H408.521V92.5689H407.133V155.978Z" fill="#372A88"/>
<path d="M407.155 139.55H338.809V155.972H407.155V139.55Z" fill="#372A88"/>
<path d="M396.8 98.4639H349.166V102.885H396.8V98.4639Z" fill="#2F2E41"/>
<path d="M396.8 114.226H349.166V118.647H396.8V114.226Z" fill="#2F2E41"/>
<path d="M396.8 129.992H349.166V134.413H396.8V129.992Z" fill="#2F2E41"/>
<path d="M403.147 145.168H342.81V150.77H403.147V145.168Z" fill="white"/>
<path d="M337.437 46.748H269.134V125.073H337.437V46.748Z" fill="#372A88"/>
<path opacity="0.9" d="M337.437 46.748H269.134V125.073H337.437V46.748Z" fill="#EAD1A6"/>
<path d="M337.443 125.072H338.831V46.7475H337.443V125.072Z" fill="#372A88"/>
<path d="M335.041 49.1426H271.531V58.8682H335.041V49.1426Z" fill="#372A88"/>
<path d="M337.437 92.5684H269.091V108.991H337.437V92.5684Z" fill="#372A88"/>
<path d="M327.102 67.5586H279.469V71.9798H327.102V67.5586Z" fill="#2F2E41"/>
<path d="M327.102 83.3252H279.469V87.7464H327.102V83.3252Z" fill="#2F2E41"/>
<path d="M333.457 98.502H273.119V104.104H333.457V98.502Z" fill="white"/>
<path d="M327.102 114.854H279.469V119.275H327.102V114.854Z" fill="#2F2E41"/>
<path d="M83.1546 257.687L80.5303 327.652C84.2661 329.342 91.6348 325.089 91.6348 325.089L104.518 256.316L83.1546 257.687Z" fill="#F9B499"/>
<path d="M77.6237 324.467L76.9297 334.252L106.372 335.092C109.219 324.467 91.64 325.93 91.64 325.93V325.09C89.3967 326.001 86.9828 326.417 84.5637 326.31C82.1445 326.202 79.7772 325.573 77.6237 324.467Z" fill="#372A88"/>
<path opacity="0.2" d="M77.6237 324.467L76.9297 334.252L106.372 335.092C109.219 324.467 91.64 325.93 91.64 325.93V325.09C89.3967 326.001 86.9828 326.417 84.5637 326.31C82.1445 326.202 79.7772 325.573 77.6237 324.467Z" fill="black"/>
<path d="M87.4109 256.278L80.7905 332.896L69.4039 332.625C69.4039 332.625 62.0461 275.692 61.7099 271.449C61.3737 267.207 63.0275 255.682 63.3365 254.983L87.4109 256.278Z" fill="#F9B499"/>
<path d="M86.9118 261.535C86.8684 262.017 86.8142 262.618 86.7437 263.458C86.5757 265.176 86.3479 267.581 86.066 270.539C85.4912 276.499 84.6996 284.805 83.8971 293.903C83.0946 303 82.4494 311.3 81.9885 317.287C81.7608 320.246 81.571 322.705 81.4463 324.38C81.3758 325.182 81.2782 325.826 81.2782 326.308C81.2662 326.535 81.2353 326.759 81.186 326.98C81.1698 326.753 81.1698 326.525 81.186 326.298C81.186 325.821 81.224 325.214 81.2674 324.363C81.3704 322.651 81.5114 320.229 81.6794 317.271C82.0698 311.273 82.6663 302.994 83.4633 293.865C84.2604 284.735 85.09 276.472 85.7515 270.507C86.1148 267.554 86.3913 265.127 86.5919 263.463C86.6949 262.656 86.7763 262.022 86.8359 261.54C86.8594 261.317 86.8993 261.096 86.9552 260.879C86.9637 261.098 86.9492 261.318 86.9118 261.535Z" fill="#F7A48B"/>
<path d="M68.7144 327.7C67.9119 327.966 66.654 328.784 66.5997 329.602C66.3496 330.537 66.3173 331.517 66.5053 332.467C66.6933 333.416 67.0966 334.31 67.6842 335.08C71.1598 339.609 78.7399 347.829 81.0498 350.251C81.3323 350.547 81.6942 350.756 82.0924 350.852C82.4905 350.948 82.9079 350.927 83.2946 350.792C83.449 350.73 83.5978 350.653 83.7392 350.565C85.231 349.63 86.3167 348.17 86.7808 346.472C87.2448 344.775 87.0533 342.965 86.2442 341.403L81.1311 331.39V329.109C77.135 333.693 68.8011 327.63 68.8011 327.63L68.7144 327.7Z" fill="#372A88"/>
<path d="M68.6504 110.904C68.6504 110.904 73.7743 110.449 74.8479 110.774C82.9754 113.216 91.3339 114.81 99.7898 115.531C101.243 115.759 102.728 115.642 104.128 115.19C104.654 114.976 105.124 114.643 105.5 114.217C105.876 113.791 106.149 113.284 106.296 112.736C106.231 113.576 106.231 114.415 106.231 115.255L114.272 117.542C115.747 115.087 115.671 111.961 114.907 109.203C114.142 106.445 112.738 103.899 111.702 101.233C107.571 90.7434 108.704 80.1997 109.176 67.9059L69.5179 67.4941C66.693 80.1889 65.7116 98.2692 68.6504 110.904Z" fill="#2F2E41"/>
<path d="M140.575 134.073L141.248 141.333L148.676 139.409C148.676 139.409 162.99 140.466 164.286 140.249C164.846 140.196 165.395 140.057 165.913 139.837L166.108 139.122C167.193 139.211 168.285 139.174 169.361 139.014C170.945 138.738 169.714 137.93 170.945 137.654C171.524 137.555 172.078 137.339 172.571 137.02L172.642 135.801C174.176 135.292 172.642 133.71 172.642 133.71L163.424 133.439C162.161 132.946 155.936 133.303 155.784 133.021C155.633 132.74 159.298 132.176 161.277 131.894C161.325 131.889 161.372 131.878 161.418 131.862C161.557 131.826 161.687 131.762 161.802 131.675C161.916 131.587 162.012 131.478 162.083 131.354C162.155 131.229 162.201 131.092 162.219 130.949C162.237 130.807 162.226 130.662 162.188 130.524C160.605 129.104 156.918 130.285 155.784 130.209C154.651 130.134 149.316 129.63 148.069 130.209C147.196 130.788 146.54 131.64 146.203 132.631L140.575 134.073Z" fill="#F9B499"/>
<path d="M150.319 132.572C151.216 132.783 152.069 133.149 152.84 133.655C153.635 134.16 154.295 134.852 154.759 135.671C154.98 135.991 155.108 136.366 155.128 136.754C155.074 136.754 154.922 136.359 154.532 135.795C154.034 135.058 153.39 134.431 152.639 133.953C151.525 133.34 150.356 132.832 149.147 132.436C149.543 132.394 149.943 132.44 150.319 132.572Z" fill="#F7A48B"/>
<path d="M163.088 138.022C163.869 137.992 164.647 138.129 165.371 138.423C165.913 138.802 165.967 139.263 165.913 139.263C165.73 139.034 165.499 138.849 165.235 138.721C164.53 138.521 163.799 138.43 163.066 138.45C161.989 138.445 160.915 138.316 159.867 138.066C160.935 137.927 162.016 137.912 163.088 138.022Z" fill="#F7A48B"/>
<path d="M161.943 136.153C163.139 136.327 164.346 136.412 165.554 136.407C166.231 136.381 166.908 136.401 167.582 136.467C168.143 136.519 168.692 136.66 169.209 136.884C169.571 137.024 169.888 137.26 170.125 137.567C170.282 137.827 170.206 138.006 170.174 137.995C170.141 137.984 170.174 137.838 170.006 137.654C169.753 137.405 169.444 137.219 169.106 137.112C167.955 136.77 166.75 136.651 165.554 136.76C164.324 136.777 163.097 136.655 161.894 136.397C161.39 136.331 160.896 136.202 160.425 136.012C160.935 135.996 161.445 136.043 161.943 136.153Z" fill="#F7A48B"/>
<path d="M163.402 134.473C164.394 134.473 165.755 134.538 167.252 134.625C168.011 134.706 168.726 134.652 169.388 134.706C169.977 134.739 170.56 134.835 171.128 134.993C171.528 135.085 171.9 135.271 172.213 135.535C172.403 135.752 172.441 135.92 172.403 135.936C172.365 135.953 172.321 135.806 172.11 135.644C171.79 135.444 171.432 135.313 171.058 135.259C170.504 135.145 169.942 135.08 169.377 135.064C168.726 135.004 168.005 135.064 167.246 135.004C165.739 134.923 164.372 134.831 163.386 134.744C162.849 134.739 162.316 134.668 161.797 134.533C162.328 134.453 162.866 134.433 163.402 134.473Z" fill="#F7A48B"/>
<path d="M81.4779 95.0723L78.0457 94.7363L76.7227 101.119L79.45 109.447L84.2649 111.478L93.0108 113.413L101.654 113.228L103.503 109.609L96.6816 100.23L81.4779 95.0723Z" fill="#F9B499"/>
<path d="M117.259 125.739C118.359 129.306 118.708 133.062 118.284 136.77C117.612 143.191 114.44 145.114 114.44 145.114L116.066 183.263L74.1043 176.301L68.9912 125.251L80.6272 107.111C80.6272 107.111 93.5048 110.904 98.5691 110.996C103.633 111.088 103.221 108.287 103.221 108.287L117.259 125.739Z" fill="#E6E7E8"/>
<path d="M117.205 175.548C117.205 175.548 116.072 183.231 115.66 193.786C115.248 204.34 103.628 260.656 103.628 260.656L62.5066 258.451C62.5066 258.451 57.0086 213.697 54.8017 199.448C52.5949 185.198 61.471 165.682 61.471 165.682L117.205 175.548Z" fill="#2F2E41"/>
<path opacity="0.2" d="M88.3431 222.512C89.6878 234.887 90.6747 244.976 90.512 244.976C90.3493 244.976 89.2378 234.947 87.8877 222.572C86.5376 210.197 85.5778 200.108 85.7188 200.108C85.8598 200.108 86.9984 210.137 88.3431 222.512Z" fill="black"/>
<path d="M88.4682 156.866C88.5822 156.398 88.8613 155.986 89.2544 155.707C89.5368 155.51 89.862 155.383 90.2033 155.336C90.5445 155.29 90.892 155.325 91.2168 155.44C91.5416 155.554 91.8345 155.744 92.0712 155.994C92.308 156.244 92.4817 156.547 92.5782 156.877C92.661 157.152 92.6882 157.441 92.6581 157.727C92.6281 158.013 92.5414 158.29 92.4031 158.542C92.2648 158.795 92.0778 159.017 91.8527 159.196C91.6277 159.375 91.3693 159.508 91.0925 159.586C90.7454 159.689 90.3777 159.701 90.0247 159.621C89.6716 159.541 89.3448 159.373 89.0754 159.131C88.7137 158.811 88.4774 158.373 88.4085 157.896C88.3651 157.727 88.3651 157.55 88.4085 157.381C88.4465 157.381 88.4465 157.565 88.5224 157.869C88.6222 158.297 88.865 158.68 89.211 158.952C89.4539 159.148 89.7416 159.28 90.0483 159.336C90.355 159.393 90.6709 159.373 90.9678 159.277C91.329 159.166 91.6473 158.946 91.8797 158.648C92.1122 158.35 92.2476 157.988 92.2677 157.61C92.2878 157.233 92.1916 156.859 91.9921 156.538C91.7926 156.217 91.4995 155.964 91.1521 155.815C90.866 155.689 90.5531 155.637 90.2417 155.663C89.9302 155.688 89.63 155.791 89.3682 155.961C89.0035 156.194 88.7238 156.538 88.5712 156.942C88.4627 157.229 88.4085 157.403 88.4085 157.403C88.3696 157.222 88.3905 157.034 88.4682 156.866Z" fill="#263238"/>
<path d="M96.6989 96.0049L96.4766 100.724C96.4766 100.724 103.227 109.892 105.873 114.129C108.519 118.366 113.356 126.818 115.037 129.933C119.814 138.911 113.253 144.98 113.253 144.98L112.927 151.102L111.496 197.563L120.958 195.054L118.984 156.114C119.605 157.07 120.562 157.759 121.666 158.044C122.771 158.328 123.942 158.189 124.948 157.653C133.033 153.318 147.965 140.315 147.965 140.315L142.917 130.708L124.406 138.944V138.489C124.433 138.044 121.793 133.504 121.793 133.504L121.928 131.082C121.972 130.177 118.48 124.537 118.48 124.537C118.48 124.537 117.618 115.239 116.311 111.382C115.004 107.524 110.449 101.824 109.262 101.147C108.075 100.469 98.4936 98.2968 98.4936 98.2968L96.6989 96.0049Z" fill="#372A88"/>
<path d="M120.501 149.823C120.423 148.154 120.575 146.482 120.952 144.854C121.261 143.201 121.933 141.638 122.92 140.276C123.239 139.872 123.628 139.528 124.069 139.263C124.23 139.15 124.416 139.079 124.611 139.057C124.057 139.437 123.565 139.902 123.153 140.433C122.258 141.803 121.639 143.334 121.331 144.941C120.966 146.54 120.784 148.176 120.789 149.817C120.823 150.499 120.823 151.183 120.789 151.865C120.593 151.202 120.496 150.514 120.501 149.823Z" fill="#263238"/>
<path opacity="0.2" d="M117.351 139.381C117.918 137.764 118.093 136.035 117.861 134.337C117.446 131.809 116.697 129.348 115.633 127.017C114.548 124.308 113.431 121.317 112.027 118.289C111.344 116.821 110.535 115.416 109.609 114.09C108.708 112.811 107.684 111.684 106.735 110.584C105.061 108.609 103.607 106.458 102.397 104.169C101.237 102.294 100.261 100.831 99.5559 99.8344L98.7154 98.6803C98.6072 98.5557 98.5161 98.4172 98.4443 98.2686C98.5627 98.3822 98.6715 98.5055 98.7697 98.637C98.9594 98.8916 99.236 99.2601 99.6155 99.7477C100.353 100.734 101.405 102.18 102.565 104.044C103.788 106.297 105.241 108.416 106.903 110.367C107.935 111.49 108.909 112.666 109.82 113.889C110.758 115.24 111.578 116.668 112.271 118.159C113.691 121.22 114.77 124.221 115.855 126.92C116.913 129.28 117.643 131.774 118.024 134.332C118.242 136.081 118.022 137.857 117.384 139.501C117.201 139.939 116.982 140.361 116.728 140.763C116.642 140.903 116.54 141.032 116.424 141.148C116.775 140.582 117.085 139.992 117.351 139.381Z" fill="white"/>
<path d="M119.401 160.784C119.293 160.199 119.157 159.456 119.006 158.617C118.686 156.791 118.209 154.282 117.802 151.454C117.422 149.053 117.266 146.623 117.336 144.194C117.336 143.728 117.384 143.31 117.417 142.936C117.449 142.563 117.482 142.248 117.525 141.999C117.551 141.726 117.607 141.457 117.693 141.197C117.753 141.197 117.596 142.351 117.596 144.199C117.606 146.612 117.797 149.02 118.165 151.405C118.588 154.163 118.973 156.655 119.25 158.573C119.38 159.5 119.477 160.247 119.532 160.741C119.564 161.02 119.564 161.301 119.532 161.58C119.458 161.321 119.414 161.053 119.401 160.784Z" fill="#263238"/>
<g opacity="0.3">
<path d="M124.466 138.97C122.839 140.189 122.357 141.744 121.809 143.695C121.262 145.646 121.061 147.677 120.6 149.655C120.576 149.792 120.52 149.922 120.437 150.034C120.101 150.403 119.505 150.067 119.261 149.639C118.859 148.698 118.79 147.649 119.066 146.664C119.3 144.98 119.833 143.351 120.638 141.853C121.025 141.132 121.56 140.5 122.209 140.001C122.858 139.501 123.605 139.145 124.401 138.954" fill="black"/>
</g>
<path d="M78.1819 99.0385C78.1548 99.5261 84.9759 115.055 87.6382 122.223C90.3004 129.391 93.852 146.344 94.6165 152.933C95.381 159.521 92.3229 195.763 92.3229 195.763L55.8047 183.231C56.9813 172.78 66.893 151.768 66.893 151.768L62.9619 130.036C62.9619 130.036 54.5251 103.102 56.233 101.119C57.941 99.136 71.5994 96.4432 71.5994 96.4432L73.9852 93.8533L78.8055 93.3115C78.8055 93.3115 78.2036 98.5509 78.1819 99.0385Z" fill="#372A88"/>
<g opacity="0.3">
<path d="M66.47 155.831C66.8994 156.363 67.4888 156.743 68.1509 156.914C70.1462 157.505 72.2771 156.866 74.3538 156.123C76.4305 155.381 78.5614 154.612 80.6381 153.772C81.6776 153.4 82.6638 152.894 83.5715 152.266C84.241 151.681 84.9415 151.133 85.6699 150.624C87.9092 149.313 91.7969 150.667 94.1501 149.578L93.9495 148.359C92.4855 148.007 91.7535 147.974 90.2895 147.649C86.5537 146.847 82.9046 149.053 79.2446 150.169C75.384 151.339 71.1819 151.339 67.5165 153.019C67.0079 153.203 66.5674 153.538 66.2531 153.978C66.118 154.277 66.0669 154.608 66.1051 154.934C66.1433 155.26 66.2694 155.57 66.47 155.831Z" fill="black"/>
</g>
<path d="M51.4626 106.428C49.901 109.841 49.2937 115.726 49.2937 115.726L45.9374 128.951L42.0605 149.947C42.3223 151.809 42.9805 153.594 43.9908 155.181C45.65 157.76 51.9289 157.12 58.2186 155.934C64.5083 154.747 83.6593 148.998 83.6593 148.998L82.1953 138.834L61.7376 139.105C61.7376 139.105 69.2743 122.384 68.2062 116.62C67.138 110.855 61.7755 99.3519 61.2712 99.0972C59.2217 98.1653 53.0296 103.015 51.4626 106.428Z" fill="#372A88"/>
<path d="M72.0659 97.3104C72.0985 97.6896 72.1419 98.1935 72.1907 98.822C72.3099 100.128 72.5106 102.024 72.9389 104.327C73.4385 107.035 74.1362 109.702 75.0264 112.308C75.5307 113.771 76.1109 115.288 76.7995 116.827C76.9549 117.214 77.136 117.59 77.3417 117.954C77.5881 118.267 77.9413 118.479 78.334 118.55L80.8553 119.341L81.6957 119.595L82.0752 119.714L81.7391 119.931L78.5942 121.979L78.643 121.719L87.1829 134.371L89.7042 138.125L90.3603 139.144C90.4462 139.257 90.5173 139.381 90.5718 139.512C90.4734 139.414 90.3861 139.305 90.3115 139.187L89.5958 138.201L87.0203 134.506L78.3936 121.909L78.2906 121.752L78.4478 121.649L81.5872 119.601L81.636 119.926L80.7956 119.671L78.2743 118.885C77.808 118.785 77.3928 118.522 77.1031 118.143C76.8838 117.761 76.69 117.364 76.523 116.957C75.8398 115.402 75.2542 113.874 74.7553 112.394C73.878 109.772 73.2036 107.085 72.7383 104.359C72.4258 102.53 72.2177 100.685 72.1147 98.8329C72.0551 98.1502 72.0551 97.6625 72.0551 97.3104C72.0324 97.1305 72.0324 96.9484 72.0551 96.7686C72.07 96.9488 72.0736 97.1297 72.0659 97.3104Z" fill="#372A88"/>
<path opacity="0.2" d="M72.0659 97.3104C72.0985 97.6896 72.1419 98.1935 72.1907 98.822C72.3099 100.128 72.5106 102.024 72.9389 104.327C73.4385 107.035 74.1362 109.702 75.0264 112.308C75.5307 113.771 76.1109 115.288 76.7995 116.827C76.9549 117.214 77.136 117.59 77.3417 117.954C77.5881 118.267 77.9413 118.479 78.334 118.55L80.8553 119.341L81.6957 119.595L82.0752 119.714L81.7391 119.931L78.5942 121.979L78.643 121.719L87.1829 134.371L89.7042 138.125L90.3603 139.144C90.4462 139.257 90.5173 139.381 90.5718 139.512C90.4734 139.414 90.3861 139.305 90.3115 139.187L89.5958 138.201L87.0203 134.506L78.3936 121.909L78.2906 121.752L78.4478 121.649L81.5872 119.601L81.636 119.926L80.7956 119.671L78.2743 118.885C77.808 118.785 77.3928 118.522 77.1031 118.143C76.8838 117.761 76.69 117.364 76.523 116.957C75.8398 115.402 75.2542 113.874 74.7553 112.394C73.878 109.772 73.2036 107.085 72.7383 104.359C72.4258 102.53 72.2177 100.685 72.1147 98.8329C72.0551 98.1502 72.0551 97.6625 72.0551 97.3104C72.0324 97.1305 72.0324 96.9484 72.0551 96.7686C72.07 96.9488 72.0736 97.1297 72.0659 97.3104Z" fill="white"/>
<path opacity="0.2" d="M60.7285 99.3086C61.1338 99.3219 61.5345 99.3987 61.9159 99.5362C63.2948 100.089 64.4689 101.054 65.2776 102.299C65.8572 103.137 66.3513 104.03 66.7525 104.965C67.2289 106.029 67.6223 107.129 67.9291 108.254C68.6578 110.827 68.9726 113.499 68.8617 116.17C68.8028 117.555 68.5901 118.928 68.2273 120.266C67.8749 121.55 67.5333 122.785 67.2134 123.967C66.5464 126.318 65.9175 128.437 65.3427 130.192C64.768 131.948 64.2583 133.362 63.8625 134.321C63.651 134.792 63.4992 135.161 63.3582 135.404C63.3036 135.531 63.2324 135.649 63.1467 135.757C63.1851 135.625 63.2341 135.496 63.2931 135.372C63.407 135.112 63.5426 134.749 63.7269 134.288C64.0848 133.318 64.5619 131.893 65.0933 130.127C65.6247 128.361 66.297 126.269 66.8826 123.896C67.4682 121.523 68.4062 118.971 68.5093 116.17C68.6076 113.535 68.2966 110.902 67.5875 108.362C67.2889 107.254 66.9139 106.168 66.4651 105.111C66.0799 104.188 65.606 103.305 65.0499 102.473C64.2789 101.239 63.1497 100.269 61.8129 99.6933C61.3147 99.5143 60.7952 99.4014 60.2676 99.3574C60.4169 99.3129 60.5731 99.2963 60.7285 99.3086Z" fill="black"/>
<path opacity="0.2" d="M58.1584 138.028C59.5243 138.24 60.8544 138.64 62.1111 139.215C62.0786 139.301 60.3056 138.819 58.0825 138.375C55.8594 137.931 54.043 137.719 54.043 137.611C55.4277 137.551 56.8138 137.692 58.1584 138.028Z" fill="black"/>
<path d="M135.381 145.917L105.559 179.921C105.559 179.921 82.6121 156.455 83.664 156.585C84.1357 156.634 113.583 125.273 113.583 125.273L135.381 145.917Z" fill="#2F2E41"/>
<path opacity="0.2" d="M135.381 145.917L105.559 179.921C105.559 179.921 82.6121 156.455 83.664 156.585C84.1357 156.634 113.583 125.273 113.583 125.273L135.381 145.917Z" fill="black"/>
<path d="M82.4814 140.065L83.8587 148.874L87.2746 148.089C87.2746 148.089 95.294 148.723 96.9478 148.3C98.6015 147.878 102.608 147.374 102.608 147.374C102.468 147.885 102.51 148.429 102.728 148.912C102.873 149.175 103.068 149.407 103.304 149.593C103.54 149.779 103.81 149.916 104.1 149.996L105.477 147.114C106.127 148.262 107.103 147.195 107.103 147.195L108.052 144.675C108.795 146.144 110.091 144.784 110.091 144.784L110.368 141.419C110.851 141.894 111.422 142.271 112.048 142.53C112.824 142.774 112.889 141.446 112.889 141.446L109.375 136.776L101.394 135.557L89.514 140.222L82.4814 140.065Z" fill="#F9B499"/>
<path d="M104.479 136.727C105.013 136.838 105.539 136.986 106.052 137.171C106.681 137.372 107.304 137.599 107.911 137.859C108.529 138.125 109.116 138.455 109.663 138.845C109.938 139.025 110.132 139.305 110.205 139.626C110.256 139.876 110.287 140.129 110.297 140.384C110.389 140.88 110.373 141.39 110.248 141.88C110.205 141.88 110.178 141.338 110.037 140.417C109.994 140.2 109.961 139.94 109.901 139.701C109.872 139.58 109.818 139.466 109.742 139.366C109.667 139.266 109.571 139.183 109.462 139.122C108.93 138.765 108.367 138.455 107.781 138.195C107.152 137.919 106.529 137.691 105.954 137.491C105.379 137.29 104.87 137.095 104.452 136.987C103.98 136.875 103.492 136.844 103.01 136.895C103.23 136.769 103.475 136.688 103.727 136.66C103.98 136.631 104.236 136.654 104.479 136.727Z" fill="#F7A48B"/>
<path d="M103.601 139.582C104.436 139.821 105.613 140.032 106.887 140.482C107.228 140.571 107.543 140.738 107.809 140.969C107.993 141.226 108.133 141.511 108.221 141.815C108.437 142.305 108.521 142.842 108.465 143.375C108.394 143.716 108.287 144.048 108.145 144.366C108.107 144.489 108.056 144.607 107.993 144.719C107.973 144.591 107.973 144.461 107.993 144.334C108.092 144.011 108.157 143.679 108.189 143.342C108.143 142.577 107.914 141.834 107.522 141.175C107.293 140.989 107.027 140.856 106.741 140.785C105.515 140.352 104.355 140.097 103.488 139.794C103.026 139.673 102.594 139.459 102.219 139.165C102.687 139.279 103.149 139.418 103.601 139.582Z" fill="#F7A48B"/>
<path d="M105.76 146.36C105.886 146.04 105.92 145.691 105.857 145.352C105.804 145.16 105.705 144.984 105.569 144.838C105.433 144.691 105.264 144.58 105.076 144.513C104.666 144.362 104.234 144.279 103.797 144.269L102.68 144.166C102.36 144.133 102.089 144.074 101.932 144.074H101.677C101.677 144.074 101.72 143.895 101.921 143.895C102.175 143.879 102.431 143.879 102.685 143.895H103.813C104.296 143.896 104.775 143.982 105.228 144.15C105.469 144.242 105.682 144.392 105.851 144.587C106.019 144.782 106.137 145.015 106.193 145.266C106.258 145.673 106.188 146.089 105.993 146.452C105.834 146.771 105.615 147.056 105.348 147.292C105.456 146.969 105.594 146.657 105.76 146.36Z" fill="#F7A48B"/>
<path d="M68.4648 76.7156C69.3323 82.3776 72.6127 83.9001 77.4493 86.9668L107.358 74.3587C109.733 71.9639 110.931 62.7314 108.35 55.6119C107.087 52.0576 106.002 48.1836 102.885 46.0381C100.507 44.3147 97.7747 43.1414 94.8869 42.6029C89.3346 41.8878 84.2486 42.4133 79.5585 45.4746C74.2936 48.9151 72.5097 55.1839 70.7204 61.2197C69.6305 64.9637 67.8846 72.8796 68.4648 76.7156Z" fill="#2F2E41"/>
<path d="M76.4526 54.5611L75.9375 101.639C85.7624 106.288 93.7493 107.675 96.5851 99.8839L96.8779 93.3388C97.0947 90.4401 97.0948 90.2992 97.0948 90.2992C97.0948 90.2992 104.686 89.3727 106.697 79.6634C107.711 74.8467 107.82 66.8711 107.711 60.3314C107.619 54.4527 104.078 47.0732 98.19 47.42L79.7059 51.1748C78.8366 51.2264 78.0189 51.6038 77.4158 52.2315C76.8128 52.8592 76.4688 53.6911 76.4526 54.5611Z" fill="#F9B499"/>
<path d="M96.9315 92.7262C87.1066 93.1813 84.1895 86.1865 84.1895 86.1865C88.0353 88.7244 92.5096 90.1478 97.1159 90.2989L96.9315 92.7262Z" fill="#F7A48B"/>
<path d="M98.3689 45.9031C93.6955 44.43 88.7143 44.2243 83.9352 45.3071C80.568 46.0819 77.087 47.7182 75.52 50.8119C73.2698 55.2765 75.8236 60.8247 74.4355 65.6252C75.0197 66.1078 75.7427 66.3917 76.4994 66.4355C77.2561 66.4794 78.0071 66.2809 78.6431 65.869C79.894 65.0098 80.832 63.7683 81.3163 62.3309L80.9584 64.3248C83.9243 64.8341 86.9607 63.3983 89.1187 61.2906C91.2768 59.183 92.6919 56.4631 94.08 53.7919C93.7713 56.5225 92.6147 59.0879 90.7725 61.1281C91.3141 61.2597 91.879 61.2632 92.4222 61.138C92.9654 61.0129 93.4718 60.7628 93.9011 60.4075C94.7515 59.6866 95.4406 58.7949 95.9236 57.7905C97.8112 54.2665 98.684 50.2885 98.4449 46.2986" fill="#2F2E41"/>
<path d="M98.0161 46.5956V46.3789C98.0161 46.4223 98.0107 46.4981 98.0161 46.5956Z" fill="#263238"/>
<path d="M96.0596 61.4641C96.7733 61.3924 97.494 61.4812 98.1688 61.7242C98.5077 61.8419 98.869 61.8807 99.2252 61.8375C99.5814 61.7943 99.9229 61.6703 100.224 61.4749C100.559 61.1291 100.788 60.6949 100.885 60.2233C101.844 57.0195 102.246 53.6749 102.073 50.3352C102.847 52.1664 103.435 54.0704 103.83 56.0189C104.232 57.9846 104.072 60.0238 103.369 61.903C103.442 61.9856 103.531 62.053 103.63 62.1012C103.73 62.1495 103.837 62.1777 103.948 62.1842C104.058 62.1908 104.169 62.1755 104.273 62.1393C104.377 62.1032 104.474 62.0468 104.556 61.9734C104.897 61.6641 105.121 61.247 105.19 60.7923C105.506 59.1558 105.542 57.4779 105.299 55.8292C106.123 57.6389 106.28 59.6815 106.654 61.6321C107.029 63.5826 107.712 65.6144 109.279 66.8443C109.772 64.377 109.907 61.8515 109.68 59.3456C109.41 57.2361 108.844 55.1751 107.999 53.2231C107.234 51.055 106.053 49.0565 104.524 47.339C101.85 44.5757 100.555 45.5564 98.6351 46.3583L98.0224 46.5588C98.7381 51.6131 98.0595 56.7668 96.0596 61.4641Z" fill="#2F2E41"/>
<path d="M88.9558 111.348C86.0712 113.255 83.0945 114.171 80.2424 115.265C77.6113 113.449 75.4484 111.035 73.931 108.222C74.2943 109.847 74.7335 111.424 75.2432 112.99L74.4027 113.689C71.1396 107.261 69.664 100.075 70.1301 92.8829L76.3493 59.7022L84.9109 59.2471C86.5755 65.673 81.4299 72.2506 82.6227 78.7903C83.1216 81.4994 84.6669 83.9484 84.7536 86.6792C84.8241 89.269 83.5825 91.7397 83.6313 94.3133C83.7234 97.3638 85.5399 100.035 87.0906 102.668C88.6413 105.301 89.9589 108.482 88.9558 111.348Z" fill="#2F2E41"/>
<path d="M395.394 238.312C395.402 238.293 395.402 238.272 395.395 238.253C395.388 238.234 395.374 238.218 395.356 238.209C395.335 238.204 395.313 238.206 395.294 238.215C395.274 238.223 395.258 238.239 395.248 238.257C392.986 243.67 391.197 249.268 389.901 254.989C388.584 260.723 387.597 266.528 386.946 272.376L386.529 276.764C386.458 277.539 386.382 278.227 386.328 278.964L386.214 281.175C386.144 282.643 386.057 284.111 386.014 285.58L386.057 290.001L386.106 292.206C386.106 292.937 386.187 293.674 386.236 294.406C386.35 295.879 386.437 297.348 386.578 298.805C386.854 301.736 387.293 304.651 387.754 307.55C387.757 307.568 387.766 307.585 387.78 307.597C387.794 307.609 387.812 307.615 387.83 307.615C387.85 307.612 387.868 307.602 387.882 307.587C387.895 307.573 387.904 307.554 387.906 307.534C387.906 306.066 387.836 304.608 387.798 303.134C387.76 301.661 387.629 300.214 387.651 298.751C387.673 297.288 387.651 295.831 387.602 294.368L387.564 292.201L387.602 290.033V285.655L387.722 281.278L387.765 279.11C387.765 278.384 387.852 277.653 387.89 276.943L388.161 272.576C388.661 266.755 389.488 260.966 390.639 255.238C391.733 249.47 393.324 243.806 395.394 238.312Z" fill="#2F2E41"/>
<path d="M396.023 261.154C396.027 261.135 396.025 261.115 396.016 261.097C396.007 261.079 395.992 261.065 395.974 261.057C395.956 261.05 395.935 261.05 395.917 261.058C395.898 261.066 395.884 261.081 395.877 261.1C393.396 268.406 391.739 275.966 390.937 283.64C390.552 287.465 390.118 291.301 390.075 295.148C389.975 299.003 390.11 302.861 390.482 306.699C390.486 306.716 390.494 306.731 390.505 306.743C390.516 306.755 390.531 306.764 390.547 306.77C390.568 306.77 390.589 306.764 390.605 306.751C390.622 306.738 390.634 306.72 390.639 306.699C391.078 302.836 391.349 299.038 391.615 295.218C391.881 291.398 391.924 287.568 392.157 283.748C392.394 279.932 392.848 276.133 393.518 272.37C394.144 268.588 394.98 264.843 396.023 261.154Z" fill="#2F2E41"/>
<path d="M408.721 269.244C408.715 269.236 408.706 269.23 408.697 269.225C408.688 269.221 408.677 269.219 408.667 269.219C408.657 269.219 408.646 269.221 408.637 269.225C408.628 269.23 408.619 269.236 408.613 269.244C405.43 271.28 402.562 273.77 400.1 276.635C398.861 278.081 397.751 279.633 396.782 281.272L396.098 282.557L395.556 283.895C395.372 284.336 395.214 284.789 395.084 285.249C394.949 285.705 394.797 286.16 394.672 286.615C393.7 290.273 393.112 294.023 392.916 297.803C392.726 301.565 392.866 305.336 393.333 309.073C393.337 309.092 393.347 309.11 393.361 309.122C393.376 309.135 393.395 309.143 393.414 309.143C393.434 309.143 393.452 309.136 393.466 309.123C393.48 309.11 393.489 309.092 393.49 309.073L394.455 297.917C394.726 294.228 395.198 290.556 395.871 286.918C395.974 286.468 396.104 286.03 396.218 285.58C396.321 285.134 396.452 284.694 396.608 284.263L397.064 282.985L397.644 281.76C398.526 280.132 399.544 278.581 400.686 277.122C402.952 274.171 405.637 271.566 408.656 269.39C408.666 269.394 408.676 269.395 408.686 269.395C408.696 269.394 408.706 269.391 408.715 269.387C408.724 269.382 408.732 269.376 408.739 269.368C408.746 269.36 408.751 269.351 408.754 269.342C408.761 269.323 408.76 269.302 408.752 269.284C408.744 269.266 408.729 269.251 408.71 269.244H408.721Z" fill="#2F2E41"/>
<path d="M402.579 283.591C400.922 284.791 399.592 286.385 398.707 288.229C397.773 290.036 397.046 291.943 396.538 293.912C396.381 294.4 396.267 294.893 396.159 295.392L395.806 296.876C395.621 297.87 395.498 298.874 395.438 299.883C395.438 300.896 395.389 301.91 395.438 302.912C395.513 303.925 395.645 304.932 395.834 305.93C395.837 305.944 395.845 305.957 395.855 305.968C395.866 305.979 395.879 305.986 395.893 305.989C395.903 305.992 395.914 305.992 395.924 305.99C395.934 305.989 395.943 305.985 395.952 305.979C395.961 305.974 395.968 305.967 395.974 305.958C395.979 305.95 395.983 305.94 395.985 305.93C396.226 304.954 396.407 303.964 396.528 302.966C396.69 301.975 396.837 301.005 396.961 300.029C397.086 299.054 397.232 298.09 397.308 297.104C397.376 296.125 397.516 295.153 397.726 294.194C398.066 292.262 398.621 290.374 399.38 288.565C400.064 286.718 401.179 285.061 402.633 283.732C402.64 283.72 402.645 283.707 402.647 283.693C402.649 283.679 402.648 283.665 402.643 283.651C402.639 283.638 402.632 283.626 402.623 283.615C402.614 283.605 402.602 283.596 402.59 283.591H402.579Z" fill="#2F2E41"/>
<path d="M384.766 294.747C384.348 289.795 383.535 284.892 382.76 279.988C381.984 275.085 381.133 270.203 380.233 265.3C379.333 260.396 378.335 255.547 377.283 250.719C377.283 250.699 377.275 250.68 377.261 250.666C377.247 250.652 377.227 250.644 377.207 250.644C377.187 250.644 377.167 250.651 377.152 250.665C377.137 250.68 377.127 250.699 377.126 250.719C377.979 255.596 378.754 260.492 379.452 265.408C380.152 270.328 380.889 275.209 381.507 280.097C382.125 284.984 382.591 289.941 383.204 294.839L385.021 309.582C385.021 309.601 385.028 309.619 385.041 309.632C385.054 309.645 385.072 309.653 385.091 309.653C385.112 309.653 385.132 309.645 385.147 309.631C385.162 309.617 385.171 309.597 385.172 309.577C385.227 308.341 385.227 307.095 385.259 305.849C385.292 304.603 385.216 303.368 385.189 302.127C385.167 299.705 384.972 297.229 384.766 294.747Z" fill="#2F2E41"/>
<path d="M381.794 294.677C381.528 292.716 381.165 290.765 380.796 288.82L380.092 285.927C379.869 284.968 379.652 284.003 379.365 283.05C378.378 279.207 377.109 275.442 375.569 271.785L374.984 270.425L374.317 269.087C373.899 268.193 373.39 267.332 372.907 266.475C371.935 264.742 370.733 263.147 369.334 261.735C369.319 261.721 369.3 261.714 369.28 261.714C369.26 261.714 369.24 261.721 369.226 261.735C369.215 261.748 369.21 261.764 369.21 261.781C369.21 261.797 369.215 261.813 369.226 261.827C370.522 263.301 371.616 264.94 372.479 266.703C372.902 267.586 373.357 268.448 373.731 269.352L374.312 270.707L374.854 272.083C376.226 275.754 377.331 279.518 378.161 283.348C378.606 285.249 378.931 287.216 379.246 289.118L379.712 292.017C379.88 292.981 380.092 293.94 380.222 294.915C380.531 296.85 380.889 298.778 381.225 300.718C381.561 302.658 381.886 304.587 382.309 306.543C382.315 306.56 382.326 306.575 382.34 306.585C382.355 306.596 382.372 306.602 382.391 306.602C382.411 306.602 382.43 306.594 382.444 306.58C382.458 306.566 382.466 306.547 382.466 306.526C382.466 304.549 382.418 302.566 382.325 300.566C382.233 298.567 382 296.649 381.794 294.677Z" fill="#2F2E41"/>
<path d="M377.696 294.926C376.774 292.331 375.711 289.784 374.551 287.297C373.385 284.807 372.069 282.389 370.609 280.059C370.594 280.048 370.576 280.043 370.558 280.043C370.539 280.043 370.521 280.048 370.506 280.059C370.493 280.074 370.485 280.093 370.485 280.113C370.485 280.133 370.493 280.152 370.506 280.167C371.781 282.583 372.907 285.075 373.879 287.628C374.887 290.158 375.793 292.732 376.546 295.36C377.3 297.987 377.88 300.631 378.574 303.254C379.268 305.876 379.892 308.509 380.705 311.164C380.709 311.181 380.718 311.195 380.73 311.206C380.743 311.217 380.759 311.223 380.776 311.224C380.796 311.224 380.815 311.216 380.829 311.202C380.844 311.187 380.852 311.168 380.852 311.148C380.889 308.382 380.635 305.62 380.092 302.907C379.51 300.187 378.708 297.518 377.696 294.926Z" fill="#2F2E41"/>
<path d="M377.523 303.585C377.021 301.967 376.291 300.429 375.354 299.017C374.479 297.566 373.412 296.24 372.182 295.073C371.555 294.5 370.878 293.983 370.159 293.529C369.444 293.066 368.661 292.717 367.839 292.494C367.831 292.492 367.822 292.491 367.813 292.492C367.805 292.492 367.797 292.495 367.789 292.499C367.782 292.503 367.775 292.508 367.769 292.515C367.764 292.522 367.76 292.529 367.757 292.537C367.745 292.551 367.737 292.57 367.737 292.589C367.737 292.608 367.745 292.626 367.757 292.64C369.219 293.343 370.513 294.35 371.553 295.593C372.612 296.805 373.505 298.151 374.21 299.597C374.98 301.017 375.343 302.588 376.005 304.056C376.292 304.831 376.547 305.568 376.91 306.316C377.188 307.111 377.521 307.886 377.908 308.635C377.916 308.646 377.926 308.656 377.938 308.662C377.951 308.669 377.964 308.672 377.978 308.673C377.998 308.673 378.018 308.665 378.032 308.65C378.046 308.636 378.054 308.617 378.054 308.597C378.086 307.752 378.055 306.907 377.962 306.067C377.848 305.232 377.707 304.403 377.523 303.585Z" fill="#2F2E41"/>
<path d="M377.831 257.839C375.36 257.151 373.123 255.802 371.362 253.937C369.601 252.072 368.382 249.763 367.838 247.257C365.962 238.518 371.997 242.262 366.586 228.532C361.174 214.803 362.421 211.676 364.265 207.721C366.108 203.766 367.177 205.012 368.841 210.213C370.506 215.415 376.579 223.537 378.84 238.729C381.101 253.922 377.831 257.839 377.831 257.839Z" fill="#372A88"/>
<path d="M393.85 243.063C393.85 243.063 388.427 241.194 388.227 230.997C388.026 220.8 392.185 222.87 392.814 210.186C393.443 197.502 394.267 188.513 396.555 188.335C398.843 188.156 404.889 194.582 406.971 208.729C409.053 222.875 404.26 232.243 400.101 236.41C395.942 240.576 393.85 243.063 393.85 243.063Z" fill="#372A88"/>
<path d="M374.915 270.117C374.915 270.117 373.662 262.623 371.163 259.085C368.663 255.547 363.257 252.426 359.711 245.54C356.165 238.653 352.218 235.343 352.424 245.123C352.63 254.902 357.005 259.898 362.422 263.23C367.839 266.562 374.915 270.117 374.915 270.117Z" fill="#372A88"/>
<path d="M372.626 283.012C372.626 283.012 367.627 273.444 360.34 266.368C353.052 259.291 347.185 255.737 349.3 259.291C351.415 262.846 353.882 262.624 357.433 268.865C360.985 275.107 359.933 279.702 364.932 283.223C369.931 286.745 372.626 283.012 372.626 283.012Z" fill="#372A88"/>
<path d="M371.997 295.29C371.791 294.672 371.579 290.094 364.503 286.344C357.427 282.595 350.764 284.025 351.588 285.927C352.412 287.829 356.799 290.923 361.174 292.803C365.55 294.683 371.997 295.29 371.997 295.29Z" fill="#372A88"/>
<path d="M393.447 270.534C393.447 270.534 390.351 266.579 391.994 258.257C393.637 249.934 397.416 252.009 401.57 247.642C405.723 243.275 404.904 242.647 409.069 238.074C413.233 233.501 416.98 230.998 418.644 232.867C420.309 234.736 417.809 240.599 415.31 243.893C412.81 247.187 408.857 248.889 407.003 253.055C405.148 257.222 405.956 263.891 401.169 266.969C396.381 270.046 393.447 270.534 393.447 270.534Z" fill="#372A88"/>
<path d="M403.857 272.825C403.857 272.825 411.356 264.318 416.773 258.05C422.19 251.781 424.272 247.018 424.51 251.185C424.749 255.351 426.381 258.667 422.011 264.08C417.641 269.493 403.857 272.825 403.857 272.825Z" fill="#372A88"/>
<path d="M399.906 286.554C399.906 286.554 399.699 283.222 411.569 275.528C423.438 267.834 428.431 266.366 427.19 269.492C425.948 272.619 420.727 275.729 415.109 281.347C409.492 286.966 399.906 286.554 399.906 286.554Z" fill="#372A88"/>
<path d="M378.33 257.173C378.279 257.173 378.229 257.156 378.189 257.123C378.149 257.09 378.123 257.045 378.114 256.994C378.086 256.842 375.294 241.948 372.415 231.496C369.536 221.044 367.622 214.499 367.622 214.434C367.613 214.407 367.611 214.378 367.613 214.35C367.616 214.321 367.625 214.294 367.638 214.268C367.652 214.243 367.67 214.221 367.693 214.203C367.715 214.185 367.741 214.171 367.768 214.163C367.796 214.155 367.826 214.152 367.855 214.156C367.884 214.159 367.912 214.168 367.938 214.182C367.964 214.196 367.986 214.215 368.005 214.238C368.023 214.261 368.037 214.287 368.045 214.315C368.045 214.38 369.948 220.914 372.832 231.382C375.717 241.85 378.515 256.761 378.542 256.913C378.551 256.97 378.538 257.029 378.504 257.076C378.471 257.124 378.42 257.157 378.363 257.167L378.33 257.173Z" fill="#2F2E41"/>
<path d="M393.382 243.443H393.317C393.262 243.424 393.217 243.385 393.19 243.333C393.164 243.282 393.159 243.222 393.176 243.167C393.225 243.004 398.251 226.912 399.9 217.235C401.391 208.485 400.035 201.75 399.135 197.297C399.032 196.793 398.94 196.321 398.853 195.882C398.843 195.824 398.857 195.765 398.89 195.716C398.923 195.668 398.974 195.634 399.032 195.622C399.089 195.613 399.147 195.625 399.194 195.658C399.242 195.69 399.275 195.739 399.287 195.796C399.374 196.24 399.466 196.711 399.569 197.21C400.474 201.696 401.841 208.474 400.333 217.306C398.68 226.988 393.648 243.134 393.594 243.313C393.575 243.353 393.545 243.387 393.508 243.41C393.47 243.433 393.426 243.445 393.382 243.443Z" fill="#2F2E41"/>
<path d="M374.259 270.019C374.22 270.02 374.182 270.01 374.149 269.991C374.115 269.972 374.088 269.944 374.069 269.911C371.828 266.062 369.267 262.408 366.413 258.988C365.242 257.601 364.152 256.398 363.1 255.233C360.107 251.922 357.743 249.311 356.176 245.41C356.159 245.382 356.149 245.352 356.146 245.32C356.142 245.288 356.146 245.256 356.156 245.226C356.166 245.196 356.182 245.168 356.204 245.145C356.226 245.122 356.252 245.103 356.282 245.091C356.311 245.079 356.343 245.073 356.375 245.074C356.407 245.076 356.438 245.084 356.467 245.098C356.495 245.112 356.52 245.132 356.54 245.157C356.56 245.182 356.575 245.211 356.582 245.242C358.122 249.072 360.459 251.662 363.425 254.935C364.51 256.105 365.594 257.308 366.754 258.728C369.624 262.164 372.198 265.836 374.448 269.705C374.464 269.73 374.474 269.758 374.478 269.787C374.482 269.816 374.48 269.845 374.473 269.874C374.465 269.902 374.452 269.929 374.434 269.952C374.416 269.975 374.393 269.994 374.367 270.008C374.333 270.022 374.295 270.026 374.259 270.019Z" fill="#2F2E41"/>
<path d="M393.446 270.756H393.408C393.38 270.751 393.352 270.741 393.328 270.726C393.303 270.71 393.282 270.69 393.265 270.666C393.248 270.643 393.237 270.616 393.23 270.587C393.224 270.559 393.224 270.53 393.229 270.501C393.229 270.404 394.954 260.402 398.896 255.217C400.425 253.206 402.518 250.784 404.741 248.222C408.292 244.12 411.963 239.878 413.877 236.681C413.891 236.656 413.91 236.634 413.933 236.616C413.956 236.599 413.982 236.586 414.01 236.579C414.038 236.572 414.067 236.57 414.095 236.575C414.124 236.579 414.151 236.59 414.175 236.605C414.201 236.62 414.223 236.639 414.24 236.662C414.258 236.686 414.271 236.712 414.278 236.741C414.285 236.769 414.286 236.799 414.282 236.827C414.277 236.856 414.267 236.884 414.251 236.909C412.321 240.159 408.639 244.396 405.071 248.509C402.859 251.066 400.766 253.483 399.248 255.482C395.371 260.58 393.679 270.479 393.663 270.577C393.653 270.627 393.626 270.672 393.587 270.705C393.547 270.738 393.498 270.756 393.446 270.756Z" fill="#2F2E41"/>
<path d="M371.51 295.289C371.468 295.288 371.427 295.277 371.391 295.257C371.32 295.208 364.342 290.673 359.408 288.213C359.356 288.187 359.317 288.142 359.298 288.087C359.28 288.032 359.284 287.972 359.31 287.92C359.336 287.869 359.381 287.829 359.436 287.811C359.491 287.793 359.551 287.797 359.603 287.823C364.553 290.293 371.564 294.866 371.635 294.866C371.676 294.892 371.707 294.93 371.724 294.975C371.741 295.02 371.742 295.069 371.728 295.115C371.714 295.161 371.685 295.201 371.645 295.229C371.606 295.256 371.558 295.27 371.51 295.267V295.289Z" fill="#2F2E41"/>
<path d="M391.892 339.202H382.723C381.928 339.202 381.151 338.967 380.49 338.526C379.829 338.086 379.314 337.459 379.009 336.726C376.015 329.563 368.018 308.855 372.822 302.987C377.409 297.401 397.178 297.401 401.765 302.987C406.575 308.855 398.583 329.536 395.573 336.726C395.271 337.455 394.76 338.078 394.106 338.518C393.451 338.959 392.681 339.197 391.892 339.202Z" fill="#2F2E41"/>
</g>
<defs>
<clipPath id="clip0_1100_922">
<rect width="424" height="370" fill="white"/>
</clipPath>
</defs>
</svg>
