<svg width="477" height="445" viewBox="0 0 477 445" fill="none" xmlns="http://www.w3.org/2000/svg">
<g clip-path="url(#clip0_1008_1205)">
<path d="M241.952 433.142C341.931 431.026 422.649 413.591 422.24 394.201C421.831 374.811 340.451 360.807 240.472 362.923C140.493 365.039 59.7752 382.474 60.1839 401.864C60.5926 421.254 141.973 435.258 241.952 433.142Z" fill="#605797"/>
<path opacity="0.7" d="M241.952 433.142C341.931 431.026 422.649 413.591 422.24 394.201C421.831 374.811 340.451 360.807 240.472 362.923C140.493 365.039 59.7752 382.474 60.1839 401.864C60.5926 421.254 141.973 435.258 241.952 433.142Z" fill="white"/>
<path d="M441.939 280.903C441.939 280.903 499.028 226.921 467.664 155.247C458.849 135.366 444.938 118.178 427.346 105.429C388.075 76.7113 288.748 19.8881 139.336 41.8354C123.284 44.1329 107.926 49.9151 94.336 58.7781C72.4015 73.1924 49.16 99.6752 59.0445 145.049C62.5365 161.086 61.7497 177.814 55.9881 193.179C50.285 208.408 39.4706 227.065 19.3439 247.233C19.3439 247.233 -23.5756 288.749 18.1799 324.681C27.096 332.282 37.642 337.718 48.9974 340.568C101.015 353.913 311.411 398.219 441.939 280.903Z" fill="#605797"/>
<path opacity="0.7" d="M441.939 280.903C441.939 280.903 499.028 226.921 467.664 155.247C458.849 135.366 444.938 118.178 427.346 105.429C388.075 76.7113 288.748 19.8881 139.336 41.8354C123.284 44.1329 107.926 49.9151 94.336 58.7781C72.4015 73.1924 49.16 99.6752 59.0445 145.049C62.5365 161.086 61.7497 177.814 55.9881 193.179C50.285 208.408 39.4706 227.065 19.3439 247.233C19.3439 247.233 -23.5756 288.749 18.1799 324.681C27.096 332.282 37.642 337.718 48.9974 340.568C101.015 353.913 311.411 398.219 441.939 280.903Z" fill="white"/>
<path d="M427.209 206.336H324.69C317.098 206.336 310.943 212.504 310.943 220.112V412.085C310.943 419.694 317.098 425.861 324.69 425.861H427.209C434.802 425.861 440.956 419.694 440.956 412.085V220.112C440.956 212.504 434.802 206.336 427.209 206.336Z" fill="#605797"/>
<path opacity="0.6" d="M427.209 206.336H324.69C317.098 206.336 310.943 212.504 310.943 220.112V412.085C310.943 419.694 317.098 425.861 324.69 425.861H427.209C434.802 425.861 440.956 419.694 440.956 412.085V220.112C440.956 212.504 434.802 206.336 427.209 206.336Z" fill="white"/>
<path d="M418.463 205.144H315.944C308.351 205.144 302.197 211.311 302.197 218.919V410.893C302.197 418.501 308.351 424.669 315.944 424.669H418.463C426.055 424.669 432.21 418.501 432.21 410.893V218.919C432.21 211.311 426.055 205.144 418.463 205.144Z" fill="#605797"/>
<path opacity="0.5" d="M418.463 205.144H315.944C308.351 205.144 302.197 211.311 302.197 218.919V410.893C302.197 418.501 308.351 424.669 315.944 424.669H418.463C426.055 424.669 432.21 418.501 432.21 410.893V218.919C432.21 211.311 426.055 205.144 418.463 205.144Z" fill="white"/>
<path opacity="0.6" d="M414.938 348.876H396.08C393.505 348.876 391.417 350.968 391.417 353.548V407.081C391.417 409.661 393.505 411.753 396.08 411.753H414.938C417.513 411.753 419.601 409.661 419.601 407.081V353.548C419.601 350.968 417.513 348.876 414.938 348.876Z" fill="white"/>
<path opacity="0.6" d="M416.675 311.394H397.816C395.241 311.394 393.153 313.485 393.153 316.066V334.963C393.153 337.544 395.241 339.636 397.816 339.636H416.675C419.25 339.636 421.337 337.544 421.337 334.963V316.066C421.337 313.485 419.25 311.394 416.675 311.394Z" fill="white"/>
<path d="M418.105 229.248H317.992C315.913 229.248 314.227 230.937 314.227 233.021V257.151C314.227 259.235 315.913 260.924 317.992 260.924H418.105C420.185 260.924 421.87 259.235 421.87 257.151V233.021C421.87 230.937 420.185 229.248 418.105 229.248Z" fill="white"/>
<path opacity="0.6" d="M339.413 274.759H320.554C317.979 274.759 315.892 276.851 315.892 279.431V298.329C315.892 300.909 317.979 303.001 320.554 303.001H339.413C341.988 303.001 344.075 300.909 344.075 298.329V279.431C344.075 276.851 341.988 274.759 339.413 274.759Z" fill="white"/>
<path d="M354.044 243.975V237.719L354.935 235.334C355.301 235.41 355.637 235.591 355.901 235.857C356.164 236.122 356.344 236.459 356.418 236.826V245.167L355.826 245.76L354.044 243.975ZM355.826 246.36L356.418 246.953V255.294C356.344 255.661 356.164 255.998 355.901 256.263C355.637 256.529 355.301 256.71 354.935 256.786L354.044 254.401V248.145L355.826 246.36Z" fill="#2F2E41"/>
<path d="M361.146 238.312V243.975L359.364 245.76L358.766 245.167V237.419L361.146 238.312ZM358.766 254.701V246.972L359.364 246.379L361.146 248.165V253.828L358.766 254.701ZM369.17 256.786H360.255C359.89 256.706 359.556 256.523 359.292 256.259C359.028 255.994 358.845 255.659 358.766 255.294L361.146 254.401H368.299L369.17 256.786ZM368.273 237.719H361.178L358.798 236.826C358.873 236.459 359.054 236.121 359.319 235.856C359.584 235.591 359.921 235.409 360.287 235.334H369.177L368.273 237.719ZM368.871 243.975V237.719L369.762 235.334C370.127 235.414 370.461 235.597 370.725 235.861C370.989 236.126 371.172 236.461 371.251 236.826V245.167L370.653 245.76L368.871 243.975ZM370.653 246.36L371.251 246.953V255.294C371.172 255.659 370.989 255.994 370.725 256.259C370.461 256.523 370.127 256.706 369.762 256.786L368.871 254.401V248.145L370.653 246.36Z" fill="#2F2E41"/>
<path d="M375.979 238.312V243.975L374.197 245.76L373.605 245.167V237.419L375.979 238.312ZM373.605 254.701V246.972L374.197 246.379L375.979 248.165V253.828L373.605 254.701ZM384.01 256.786H375.088C374.722 256.71 374.387 256.529 374.123 256.263C373.859 255.998 373.679 255.661 373.605 255.294L375.979 254.401H383.132L384.01 256.786ZM383.119 237.719H376.012L373.631 236.826C373.711 236.461 373.894 236.126 374.158 235.861C374.422 235.597 374.756 235.414 375.121 235.334H384.01L383.119 237.719ZM383.711 243.975V237.719L384.602 235.334C384.967 235.414 385.301 235.597 385.565 235.861C385.829 236.126 386.011 236.461 386.091 236.826V245.167L385.493 245.76L383.711 243.975ZM385.493 246.36L386.091 246.953V255.294C386.011 255.659 385.829 255.994 385.565 256.259C385.301 256.523 384.967 256.706 384.602 256.786L383.711 254.401V248.145L385.493 246.36Z" fill="#2F2E41"/>
<path d="M390.819 238.312V243.975L389.03 245.76L388.439 245.167V237.419L390.819 238.312ZM388.439 254.701V246.972L389.03 246.379L390.819 248.165V253.828L388.439 254.701ZM398.843 256.786H389.928C389.561 256.711 389.225 256.529 388.96 256.264C388.695 255.999 388.514 255.661 388.439 255.294L390.819 254.401H397.972L398.843 256.786ZM397.953 237.719H390.845L388.471 236.826C388.545 236.459 388.725 236.122 388.989 235.857C389.252 235.591 389.588 235.41 389.954 235.334H398.843L397.953 237.719ZM398.544 243.975V237.719L399.442 235.334C399.805 235.415 400.138 235.599 400.401 235.863C400.663 236.127 400.845 236.462 400.924 236.826V245.167L400.333 245.76L398.544 243.975ZM400.333 246.36L400.924 246.953V255.294C400.845 255.658 400.663 255.993 400.401 256.257C400.138 256.521 399.805 256.705 399.442 256.786L398.551 254.401V248.145L400.333 246.36Z" fill="#2F2E41"/>
<path d="M405.652 238.312V243.975L403.87 245.76L403.272 245.167V237.419L405.652 238.312ZM403.272 254.701V246.972L403.87 246.379L405.652 248.165V253.828L403.272 254.701ZM413.677 256.786H404.761C404.396 256.706 404.062 256.523 403.798 256.259C403.534 255.994 403.352 255.659 403.272 255.294L405.652 254.401H412.805L413.677 256.786ZM412.786 237.719H405.704L403.324 236.826C403.403 236.462 403.585 236.127 403.848 235.863C404.11 235.599 404.443 235.415 404.807 235.334H413.696L412.786 237.719ZM413.384 243.975V237.719L414.275 235.334C414.641 235.41 414.977 235.591 415.24 235.857C415.504 236.122 415.684 236.459 415.758 236.826V245.167L415.166 245.76L413.384 243.975ZM415.166 246.36L415.758 246.953V255.294C415.684 255.661 415.504 255.998 415.24 256.263C414.977 256.529 414.641 256.71 414.275 256.786L413.384 254.401V248.145L415.166 246.36Z" fill="#2F2E41"/>
<path opacity="0.6" d="M378.476 274.459H359.617C357.042 274.459 354.955 276.551 354.955 279.131V298.029C354.955 300.609 357.042 302.701 359.617 302.701H378.476C381.051 302.701 383.139 300.609 383.139 298.029V279.131C383.139 276.551 381.051 274.459 378.476 274.459Z" fill="white"/>
<path d="M261.072 311.224C261.072 311.224 262.821 303.352 278.825 305.099V315.017H269.344C269.344 315.017 261.169 314.697 261.072 311.224Z" fill="#2F2E41"/>
<path opacity="0.2" d="M261.072 311.224C261.072 311.224 262.821 303.352 278.825 305.099V315.017H269.344C269.344 315.017 261.169 314.697 261.072 311.224Z" fill="black"/>
<path d="M337.033 273.677H318.174C315.599 273.677 313.511 275.769 313.511 278.349V297.247C313.511 299.827 315.599 301.919 318.174 301.919H337.033C339.608 301.919 341.695 299.827 341.695 297.247V278.349C341.695 275.769 339.608 273.677 337.033 273.677Z" fill="white"/>
<path d="M368.553 74.991L377.091 77.1479L380.661 63.0138L371.96 60.8112C372.153 55.3726 371.136 49.9591 368.982 44.9633L377.15 39.8023L369.391 27.4472L360.691 32.947C357.637 29.9985 354.094 27.6059 350.221 25.8767L352.913 15.2484L338.808 11.6709L336.018 22.6902C331.377 22.588 326.758 23.3708 322.408 24.997L317.634 16.8319L305.084 24.202L310.052 32.6733C306.879 35.6731 304.267 39.2174 302.34 43.1387L293.626 40.9296L290.055 55.0638L298.594 57.2272C298.304 61.9006 298.913 66.5862 300.389 71.029L290.836 77.0632L298.594 89.3923L307.62 83.6904C310.661 87.1731 314.333 90.0475 318.441 92.1617L315.963 101.871L330.068 105.455L332.416 96.1563C337.069 96.5221 341.748 95.9912 346.202 94.5924L350.669 102.236L363.227 94.8661L358.948 87.5611C363.026 84.1234 366.304 79.833 368.553 74.991ZM329.034 84.0618C315.514 80.0738 307.835 65.6595 311.886 51.8577C315.937 38.0559 330.179 30.0928 343.698 34.0744C357.218 38.0559 364.898 52.4767 360.847 66.2785C356.795 80.0803 342.554 88.0303 329.034 84.0618Z" fill="#E6E7E8"/>
<path d="M337.423 55.2201V185.066C337.423 186.001 337.239 186.926 336.882 187.789C336.525 188.652 336.002 189.436 335.343 190.096C334.683 190.756 333.9 191.28 333.039 191.636C332.177 191.993 331.254 192.177 330.322 192.176H134.095C132.213 192.176 130.409 191.427 129.078 190.093C127.748 188.76 127 186.952 127 185.066V55.2201C127.002 53.3357 127.75 51.5291 129.081 50.1972C130.411 48.8653 132.214 48.1172 134.095 48.1172H330.302C331.235 48.1146 332.16 48.2964 333.023 48.652C333.886 49.0077 334.67 49.5302 335.332 50.1899C335.993 50.8496 336.518 51.6333 336.877 52.4965C337.236 53.3596 337.421 54.2851 337.423 55.2201Z" fill="#605797"/>
<path opacity="0.6" d="M337.423 55.2201V185.066C337.423 186.001 337.239 186.926 336.882 187.789C336.525 188.652 336.002 189.436 335.343 190.096C334.683 190.756 333.9 191.28 333.039 191.636C332.177 191.993 331.254 192.177 330.322 192.176H134.095C132.213 192.176 130.409 191.427 129.078 190.093C127.748 188.76 127 186.952 127 185.066V55.2201C127.002 53.3357 127.75 51.5291 129.081 50.1972C130.411 48.8653 132.214 48.1172 134.095 48.1172H330.302C331.235 48.1146 332.16 48.2964 333.023 48.652C333.886 49.0077 334.67 49.5302 335.332 50.1899C335.993 50.8496 336.518 51.6333 336.877 52.4965C337.236 53.3596 337.421 54.2851 337.423 55.2201Z" fill="white"/>
<path opacity="0.6" d="M337.189 83.7295H227.75V174.868H337.189V83.7295Z" fill="white"/>
<path opacity="0.6" d="M337.423 55.2201V75.1213H127V55.2201C127.002 53.3357 127.75 51.5291 129.081 50.1972C130.411 48.8653 132.214 48.1172 134.095 48.1172H330.302C331.235 48.1146 332.16 48.2964 333.023 48.652C333.886 49.0077 334.67 49.5302 335.332 50.1899C335.993 50.8496 336.518 51.6333 336.877 52.4965C337.236 53.3596 337.421 54.2851 337.423 55.2201Z" fill="white"/>
<path d="M158.462 67.3924C160.756 67.3924 162.617 65.5282 162.617 63.2284C162.617 60.9287 160.756 59.0645 158.462 59.0645C156.167 59.0645 154.306 60.9287 154.306 63.2284C154.306 65.5282 156.167 67.3924 158.462 67.3924Z" fill="white"/>
<path d="M142.985 67.3924C145.279 67.3924 147.14 65.5282 147.14 63.2284C147.14 60.9287 145.279 59.0645 142.985 59.0645C140.69 59.0645 138.829 60.9287 138.829 63.2284C138.829 65.5282 140.69 67.3924 142.985 67.3924Z" fill="white"/>
<path d="M173.932 67.3924C176.227 67.3924 178.088 65.5282 178.088 63.2284C178.088 60.9287 176.227 59.0645 173.932 59.0645C171.637 59.0645 169.777 60.9287 169.777 63.2284C169.777 65.5282 171.637 67.3924 173.932 67.3924Z" fill="white"/>
<path d="M185.702 87.2744H148.551V90.0504H185.702V87.2744Z" fill="#605797"/>
<path d="M218.926 87.0137H189.624V90.0503H218.926V87.0137Z" fill="#605797"/>
<path d="M227.003 95.8301H148.551V98.3715H227.003V95.8301Z" fill="#605797"/>
<path d="M284.385 165.687H248.612V168.463H284.385V165.687Z" fill="#605797"/>
<path d="M316.379 165.426H288.163V168.462H316.379V165.426Z" fill="#605797"/>
<path d="M324.157 174.242H248.612V176.784H324.157V174.242Z" fill="#605797"/>
<path d="M308.173 182.382H248.612V184.923H308.173V182.382Z" fill="#605797"/>
<path d="M262.639 139.308H247.428V150.066H262.639V139.308Z" fill="#605797"/>
<path d="M284.704 131.437H269.493V150.458H284.704V131.437Z" fill="#2F2E41"/>
<path d="M305.181 122.672H289.971V150.66H305.181V122.672Z" fill="white"/>
<path opacity="0.32" d="M326.056 114.305H310.845V150.862H326.056V114.305Z" fill="white"/>
<path d="M245.341 131.39C245.274 131.392 245.208 131.374 245.151 131.339C245.094 131.303 245.049 131.252 245.021 131.191C244.992 131.13 244.983 131.062 244.992 130.996C245.002 130.93 245.03 130.867 245.074 130.817L256.494 116.709C256.541 116.649 256.607 116.606 256.681 116.588C256.756 116.571 256.834 116.579 256.903 116.611L269.428 122.287L279.703 105.918C279.728 105.878 279.761 105.843 279.799 105.816C279.838 105.789 279.882 105.77 279.929 105.761C279.975 105.752 280.023 105.753 280.069 105.763C280.115 105.773 280.159 105.792 280.197 105.82L292.858 114.689L300.948 98.0459C300.987 97.9643 301.057 97.9015 301.142 97.8711C301.227 97.8406 301.321 97.8449 301.403 97.883L313.147 103.363L325.581 85.2411C325.635 85.1686 325.716 85.1199 325.805 85.1052C325.894 85.0905 325.986 85.111 326.06 85.1622C326.135 85.2135 326.187 85.2916 326.206 85.3804C326.224 85.4692 326.208 85.5617 326.16 85.6386L313.557 103.982C313.511 104.051 313.441 104.101 313.361 104.122C313.281 104.144 313.196 104.136 313.121 104.1L301.416 98.6389L293.3 115.34C293.279 115.386 293.248 115.426 293.21 115.459C293.172 115.492 293.127 115.516 293.079 115.529C293.031 115.543 292.98 115.545 292.93 115.536C292.881 115.527 292.834 115.507 292.793 115.477L280.093 106.602L269.851 122.893C269.806 122.964 269.738 123.016 269.657 123.04C269.577 123.064 269.491 123.058 269.415 123.023L256.864 117.341L245.614 131.241C245.583 131.285 245.542 131.321 245.495 131.347C245.447 131.373 245.395 131.388 245.341 131.39Z" fill="white"/>
<path d="M327.669 92.7292C327.591 92.7301 327.516 92.7048 327.454 92.6576C327.393 92.6103 327.349 92.5437 327.33 92.4685L325.653 85.8804L317.55 88.8454C317.468 88.8615 317.383 88.848 317.31 88.8071C317.238 88.7662 317.182 88.7007 317.153 88.6222C317.124 88.5438 317.124 88.4576 317.152 88.3791C317.181 88.3006 317.237 88.2349 317.309 88.1937L325.763 85.0984C325.807 85.0792 325.855 85.0693 325.903 85.0693C325.951 85.0693 325.999 85.0792 326.043 85.0984C326.087 85.1201 326.125 85.1513 326.155 85.1896C326.186 85.2278 326.207 85.2724 326.218 85.32L327.994 92.2795C328.005 92.324 328.008 92.3704 328.001 92.416C327.995 92.4615 327.979 92.5053 327.956 92.5448C327.932 92.5843 327.901 92.6186 327.864 92.6458C327.827 92.673 327.785 92.6924 327.74 92.7031C327.718 92.7164 327.694 92.7253 327.669 92.7292Z" fill="white"/>
<path d="M313.864 59.0912L312.861 60.0576L320.635 68.1613L321.638 67.1948L313.864 59.0912Z" fill="white"/>
<path d="M320.803 58.9332L313.032 66.8027L314.021 67.7836L321.793 59.9141L320.803 58.9332Z" fill="white"/>
<path d="M194.696 118.599C200.99 119.263 206.957 121.741 211.874 125.733C216.791 129.726 220.447 135.061 222.4 141.093C224.354 147.125 224.52 153.595 222.879 159.72C221.238 165.845 217.86 171.362 213.154 175.602C208.448 179.843 202.617 182.625 196.365 183.613C190.114 184.6 183.711 183.75 177.932 181.166C172.152 178.582 167.245 174.374 163.803 169.052C160.361 163.73 158.533 157.522 158.54 151.181H191.34L194.696 118.599Z" fill="#EAD1A6"/>
<path d="M168.112 116.396L185.859 146.248L191.263 112.219C191.263 112.219 179.07 109.124 168.112 116.396Z" fill="white"/>
<path d="M157.291 113.92L174.426 142.384L140.312 143.153C140.312 143.153 139.083 123.668 157.291 113.92Z" fill="#2F2E41"/>
<path d="M408.305 105.71L412.948 105.534L412.656 97.8248L407.909 98.0073C407.202 95.2108 405.88 92.6081 404.039 90.3896L407.421 86.5449L401.666 81.4556L398.063 85.5479C396.074 84.5088 393.92 83.8231 391.697 83.5213L391.476 77.7217L383.783 78.0149L384.01 84.0296C381.635 84.6681 379.403 85.7564 377.436 87.2357L373.794 83.808L368.52 89.4252L372.312 93.0027C371.146 94.9992 370.347 97.1884 369.951 99.467L365.197 99.6494L365.49 107.365L370.146 107.182C370.696 109.596 371.702 111.881 373.111 113.914L369.158 118.41L374.939 123.513L378.671 119.264C380.734 120.585 383.03 121.501 385.434 121.962L385.63 127.24L393.349 126.94L393.153 121.864C395.571 121.354 397.869 120.385 399.923 119.01L403.331 122.222L408.611 116.599L405.359 113.529C406.893 111.166 407.897 108.499 408.305 105.71ZM389.583 116.221C386.852 116.269 384.168 115.501 381.874 114.015C379.58 112.529 377.779 110.393 376.7 107.878C375.622 105.363 375.315 102.583 375.818 99.8928C376.322 97.2023 377.613 94.7229 379.527 92.7703C381.442 90.8177 383.893 89.4803 386.569 88.9285C389.244 88.3766 392.023 88.6352 394.551 89.6714C397.08 90.7076 399.243 92.4744 400.766 94.7469C402.289 97.0194 403.103 99.6946 403.103 102.432C403.131 106.052 401.726 109.536 399.195 112.121C396.665 114.705 393.216 116.179 389.603 116.221H389.583Z" fill="#E6E7E8"/>
<path d="M76.6935 427.301C77.2519 427.3 77.7885 427.083 78.1917 426.696C78.595 426.309 78.8339 425.781 78.859 425.222L83.0859 327.268H78.2672L74.5345 425.014C74.5177 425.308 74.5611 425.603 74.662 425.88C74.7629 426.157 74.9193 426.41 75.1215 426.624C75.3237 426.839 75.5674 427.009 75.8377 427.125C76.1081 427.242 76.3993 427.302 76.6935 427.301Z" fill="#EAD1A6"/>
<path d="M55.806 327.267L28.6562 425.522C28.5166 426.03 28.2144 426.478 27.7962 426.797C27.3779 427.116 26.8667 427.288 26.3411 427.288C25.9719 427.287 25.6079 427.201 25.2773 427.036C24.9467 426.872 24.6583 426.633 24.4345 426.339C24.2107 426.044 24.0574 425.703 23.9866 425.339C23.9158 424.976 23.9293 424.602 24.0261 424.245L51.4295 323.521L55.806 327.267Z" fill="#EAD1A6"/>
<path d="M134.095 427.301C134.722 427.302 135.324 427.059 135.777 426.624C136.229 426.189 136.496 425.596 136.521 424.968L140.585 328.525H135.701L131.676 424.747C131.659 425.076 131.709 425.405 131.823 425.714C131.937 426.022 132.113 426.305 132.339 426.544C132.565 426.783 132.838 426.973 133.139 427.103C133.441 427.233 133.766 427.301 134.095 427.301Z" fill="#EAD1A6"/>
<path d="M90.5188 234.116C90.5188 234.116 83.3655 220.19 71.7447 218.744C70.2111 218.554 68.6546 218.713 67.1909 219.209C65.7272 219.706 64.3941 220.527 63.2909 221.611C60.0849 224.771 55.7734 231.255 53.9721 244.08C53.9721 244.08 51.2994 271.918 53.2373 287.909H67.8494C67.8494 287.909 85.4074 287.544 87.8851 320.068V328.539H142.451L116.062 296.113L94.0694 288.945L92.3786 244.418L90.5188 234.116Z" fill="#A7A9AC"/>
<path d="M173.152 291.623C173.152 291.623 156.894 296.347 140.169 327.268C140.169 327.268 135.519 322.269 123.742 323.762C123.742 323.762 75.5813 335.713 76.1796 294.184C76.1796 294.184 77.8769 282.656 82.2469 277.515L113.767 278.655H121.219L125.218 281.952C125.218 281.952 160.172 285.145 173.152 291.623Z" fill="#2F2E41"/>
<path d="M111.569 203.442H121.284V189.575H111.569V203.442Z" fill="#F9B499"/>
<path d="M121.278 200.301V197.363L112.869 194.241C112.869 194.241 115.672 199.585 121.278 200.301Z" fill="#F7A48B"/>
<path d="M121.278 197.363C129.398 197.363 135.981 189.597 135.981 180.017C135.981 170.436 129.398 162.67 121.278 162.67C113.157 162.67 106.574 170.436 106.574 180.017C106.574 189.597 113.157 197.363 121.278 197.363Z" fill="#F9B499"/>
<path d="M109.621 189.357C111.703 188.347 112.162 184.984 110.646 181.845C109.13 178.706 106.214 176.979 104.132 177.989C102.05 178.998 101.591 182.361 103.107 185.5C104.622 188.64 107.539 190.366 109.621 189.357Z" fill="#F9B499"/>
<path d="M123.534 282.859C128.086 282.631 128.086 267.532 128.086 267.532L142.815 263.752L149.553 248.537C154.456 247.748 160.256 249.117 160.256 249.117L168.255 248.048C168.4 248.028 168.54 247.977 168.663 247.897C168.787 247.818 168.891 247.713 168.97 247.589C169.049 247.464 169.099 247.325 169.119 247.179C169.138 247.033 169.125 246.885 169.081 246.745L167.891 243.063L162.389 226.7L161.583 224.296C161.504 224.039 161.33 223.822 161.097 223.689C160.863 223.557 160.588 223.52 160.328 223.585L144.565 227.006L142.393 227.482C131.643 207.809 122.104 205.268 122.104 205.268C123.879 209.432 131.299 225.866 131.299 225.866C134.349 234.67 130.161 244.053 130.161 244.053L122.513 271.97C122.513 271.97 118.976 283.093 123.534 282.859Z" fill="#605797"/>
<path opacity="0.2" d="M149 247.846L149.598 248.53C154.501 247.741 160.302 249.11 160.302 249.11L168.301 248.041C168.446 248.021 168.585 247.97 168.709 247.891C168.832 247.811 168.937 247.706 169.016 247.582C169.094 247.458 169.145 247.318 169.164 247.172C169.183 247.026 169.17 246.878 169.126 246.738L167.891 243.062C165.907 244.288 160.978 246.321 149 247.846Z" fill="black"/>
<path opacity="0.2" d="M141.287 246.092C141.287 246.092 137.243 242.476 139.863 237.667C139.863 237.667 142.568 234.578 140.136 228.289C140.136 228.289 133.451 214.514 123.131 207.326C123.131 207.326 133.952 219.707 137.158 227.716C137.83 229.416 138.086 231.253 137.906 233.073C137.62 236.077 136.748 242.046 134.258 244.978L141.287 246.092Z" fill="black"/>
<path d="M122.104 205.267V202.009C122.105 201.848 122.046 201.692 121.939 201.572C121.832 201.452 121.685 201.375 121.525 201.357L111.562 200.582H107.53C107.358 200.582 107.193 200.651 107.071 200.773C106.949 200.895 106.88 201.061 106.88 201.234V205.58C106.88 205.58 114.443 203.26 120.387 214.638C120.387 214.638 129.309 228.511 125.036 243.447C125.036 243.447 121.044 261.25 116.583 267.095C116.583 267.095 113.981 269.975 113.773 278.577H121.226C121.458 276.32 121.893 274.089 122.526 271.911L130.174 243.994C130.174 243.994 134.726 233.646 131.312 225.807L122.104 205.267Z" fill="#605797"/>
<path opacity="0.4" d="M122.104 205.267V202.009C122.105 201.848 122.046 201.692 121.939 201.572C121.832 201.452 121.685 201.375 121.525 201.357L111.562 200.582H107.53C107.358 200.582 107.193 200.651 107.071 200.773C106.949 200.895 106.88 201.061 106.88 201.234V205.58C106.88 205.58 114.443 203.26 120.387 214.638C120.387 214.638 129.309 228.511 125.036 243.447C125.036 243.447 121.044 261.25 116.583 267.095C116.583 267.095 113.981 269.975 113.773 278.577H121.226C121.458 276.32 121.893 274.089 122.526 271.911L130.174 243.994C130.174 243.994 134.726 233.646 131.312 225.807L122.104 205.267Z" fill="white"/>
<path d="M91.8127 197.48C91.8127 197.48 96.4884 190.012 97.1452 175.142C97.1452 175.142 97.6784 162.656 105.235 162.76C105.235 162.76 114.775 153.083 127 158.016C127 158.016 135.35 159.971 138.185 174.001C138.185 174.001 144.89 202.087 139.525 208.662C139.525 208.662 138.777 194.469 137.437 190.585L138.478 210.604L136.111 212.898L135.5 202.686L135.051 213.764H133.1C133.1 213.764 132.664 213.276 131.955 212.533C132.183 209.626 132.69 201.755 131.858 197.363C131.858 197.363 131.598 205.912 130.987 211.542C128.639 209.196 124.919 206.147 122.09 205.287V202.217C122.09 202.217 122.201 201.403 121.265 201.409V197.363C121.265 197.363 134.16 197.545 135.942 181.071C136.105 178.058 135.587 175.046 134.427 172.261H126.304L123.703 169.192L124.399 171.577L119.327 172.678C119.327 172.678 115.724 168.86 114.853 166.996C114.853 166.996 114.554 173.871 112.252 175.761L106.705 181.345C106.705 181.345 105.697 179.475 104.058 179.045C103.793 178.978 103.513 179.006 103.267 179.126C103.02 179.245 102.824 179.447 102.712 179.697C102.23 180.798 101.788 183.118 103.902 186.799C103.902 186.799 105.82 190.019 108.968 189.549C109.386 190.258 109.849 190.939 110.353 191.589C110.757 192.126 111.191 192.64 111.653 193.127V200.771H107.621C107.449 200.771 107.284 200.839 107.162 200.961C107.04 201.084 106.971 201.249 106.971 201.422V205.769C106.971 205.769 102.913 207.437 99.2391 212.937C97.4897 211.995 95.8608 210.844 94.3879 209.509C95.6885 207.554 97.6394 204.172 98.1596 200.842C96.8693 203.569 95.2839 206.145 93.432 208.525C93.1133 208.193 92.7817 207.874 92.4955 207.483C95.2983 202.817 97.5093 194.398 97.5093 194.398C96.69 197.512 93.3799 203.286 91.5786 206.297C90.9152 205.385 90.5475 204.29 90.5251 203.162C90.5238 201.195 90.9638 199.253 91.8127 197.48Z" fill="#2F2E41"/>
<path opacity="0.2" d="M164.21 291.082C162.552 291.907 160.947 292.834 159.405 293.858C157.876 294.894 156.374 295.982 154.93 297.149C152.041 299.472 149.35 302.033 146.886 304.806C144.415 307.576 142.177 310.547 140.195 313.688C139.167 315.232 138.302 316.881 137.412 318.503C136.95 319.305 136.599 320.165 136.202 321.005L135.064 323.534C136.729 320.239 138.592 317.049 140.643 313.981C144.756 307.862 149.685 302.337 155.295 297.559C158.078 295.151 161.061 292.984 164.21 291.082Z" fill="black"/>
<path opacity="0.2" d="M142.432 318.777C138.81 316.959 134.667 316.425 130.629 316.386C129.621 316.386 128.6 316.386 127.592 316.51L126.077 316.646L124.575 316.855C123.567 316.979 122.578 317.207 121.583 317.383C120.588 317.559 119.632 317.728 118.624 317.852C114.643 318.349 110.627 318.495 106.62 318.289C105.619 318.23 104.617 318.184 103.622 318.073C102.627 317.963 101.626 317.858 100.631 317.728C99.6358 317.598 98.6474 317.409 97.6524 317.259C96.6575 317.109 95.7016 316.842 94.6936 316.646C95.6625 316.914 96.6445 317.207 97.6134 317.435C98.5824 317.663 99.5643 317.911 100.572 318.087C101.58 318.262 102.569 318.425 103.57 318.543C104.572 318.66 105.58 318.764 106.588 318.849C110.628 319.143 114.687 319.05 118.709 318.569C119.717 318.432 120.718 318.276 121.713 318.06C122.708 317.845 123.664 317.637 124.666 317.513C126.642 317.197 128.636 317.008 130.635 316.946C132.638 316.884 134.642 316.995 136.625 317.279C138.619 317.512 140.573 318.017 142.432 318.777Z" fill="black"/>
<path opacity="0.2" d="M123.729 284.116C121.759 284.532 119.866 285.254 118.117 286.254C116.348 287.225 114.689 288.385 113.168 289.714C111.66 291.053 110.284 292.535 109.059 294.138L108.597 294.731L108.174 295.383L107.329 296.634C106.815 297.488 106.327 298.374 105.859 299.241C106.464 298.439 107.004 297.599 107.615 296.81L108.525 295.637L108.981 295.044L109.475 294.49C109.806 294.119 110.125 293.747 110.45 293.37C110.775 292.992 111.14 292.659 111.484 292.301C112.134 291.564 112.908 290.926 113.624 290.248C115.116 288.952 116.707 287.775 118.384 286.729C118.8 286.456 119.223 286.208 119.684 285.973C120.146 285.739 120.562 285.511 120.985 285.322C121.869 284.853 122.786 284.45 123.729 284.116Z" fill="black"/>
<path opacity="0.2" d="M101.366 289.264C102.033 288.63 102.758 288.06 103.531 287.563C104.288 287.049 105.077 286.584 105.892 286.168C107.518 285.346 109.208 284.655 110.945 284.103L112.245 283.699L113.546 283.36C114.424 283.099 115.334 282.975 116.225 282.754C117.116 282.532 118.033 282.454 118.943 282.298C119.854 282.141 120.771 282.076 121.681 281.933C120.758 281.933 119.834 281.933 118.911 281.933C117.987 281.933 117.064 282.082 116.14 282.2C114.296 282.444 112.477 282.85 110.704 283.412C108.924 283.976 107.212 284.737 105.599 285.68C103.982 286.606 102.547 287.821 101.366 289.264Z" fill="black"/>
<path opacity="0.2" d="M88.3013 281.216C87.6979 281.602 87.171 282.097 86.7471 282.676C86.3078 283.243 85.9142 283.844 85.57 284.474C84.8938 285.73 84.3176 287.037 83.8467 288.384C83.6321 289.036 83.4045 289.733 83.1964 290.417C82.9883 291.101 82.8193 291.785 82.6762 292.483C82.5331 293.18 82.3836 293.871 82.2665 294.568C82.1495 295.265 82.0519 295.969 81.9739 296.673C82.4096 295.324 82.7998 293.968 83.2029 292.62C83.6061 291.271 84.0353 289.935 84.5035 288.612C84.9717 287.289 85.466 286.005 86.0512 284.702C86.344 284.069 86.6696 283.451 87.0267 282.851C87.3642 282.243 87.7942 281.691 88.3013 281.216Z" fill="black"/>
<path d="M108.155 419.723L110.067 420.03L116.862 402.272L118.696 401.888L119.385 416.876C119.613 426.363 138.628 424.91 138.628 424.91C143.44 424.148 132.261 414.973 132.261 414.973C129.71 414.186 127.084 413.671 124.425 413.435C124.425 413.435 124.932 402.357 121.609 397.307C121.609 397.307 128.145 388.914 125.732 383.87C114.593 380.612 112.973 391.853 112.973 391.853L108.155 419.723Z" fill="#605797"/>
<path d="M152.518 390.986C150.729 395.026 153.376 398.753 153.376 398.753C158.793 405.986 159.567 409.831 159.567 409.831H168.58C164.529 406.99 162.136 392.778 162.136 392.778C161.882 386.58 167.039 373.671 167.039 373.671L181.996 323.495C188.96 297.09 173.158 291.564 173.158 291.564C168.001 292.868 159.821 300.538 159.821 300.538L151.809 370.016L152.368 379.64L150.281 381.133C153.48 384.932 152.518 390.986 152.518 390.986Z" fill="#F7A48B"/>
<path d="M142.334 419.593H143.901L148.603 400.845C151.562 402.07 154.3 406.592 155.548 408.899C155.987 409.729 156.177 410.668 156.094 411.604C155.529 419.573 162.428 419.423 162.428 419.423H177.034C180.071 416.869 168.58 409.877 168.58 409.877H159.567C159.567 409.877 158.793 406.006 153.376 398.799C153.376 398.799 150.73 395.071 152.518 391.031C152.518 391.031 153.48 384.971 150.281 381.172L145.943 384.573C140.917 388.405 142.367 392.791 143.245 394.524C143.535 395.109 143.665 395.762 143.622 396.414L142.334 419.593Z" fill="#605797"/>
<path d="M67.6868 219.05C67.6868 219.05 55.6043 214.716 51.2279 226.707C51.2279 226.707 45.4662 235.517 45.2646 259.224C45.2646 259.224 44.6729 303.249 50.8312 328.545H87.898V308.423C87.898 308.423 87.8395 288.104 67.8624 287.909H53.2438C53.2438 287.909 51.9432 264.991 53.9786 244.079C53.9526 244.079 56.1181 222.895 67.6868 219.05Z" fill="#EAD1A6"/>
<path d="M87.8656 328.545H82.0129V305.04C82.0129 305.04 80.7123 291.29 67.856 287.908C67.856 287.908 86.3569 286.312 87.8916 308.422L87.8656 328.545Z" fill="#EAD1A6"/>
<path d="M76.1731 381.132C76.1731 381.132 73.3443 375.763 68.8053 375.417H49.0883C46.9618 375.392 44.8927 376.108 43.2357 377.444C41.7363 378.697 40.5757 380.309 39.8606 382.129C39.8606 382.129 39.0933 384.423 37.4025 384.221C37.4025 384.221 35.5101 383.622 36.9018 380.637C37.8806 378.235 39.3903 376.088 41.3173 374.355C42.9869 372.986 45.0838 372.248 47.2415 372.27H69.9563C70.5017 372.27 71.0437 372.356 71.5625 372.524C73.4655 373.144 75.1498 374.3 76.4137 375.854L76.1731 381.132Z" fill="#A7A9AC"/>
<path d="M133.88 372.271H86.5389C86.5389 372.271 83.1183 372.635 81.0504 374.649L80.7708 381.165C80.7708 381.165 81.9088 376.852 90.2456 376.083H133.666L133.88 372.271Z" fill="#A7A9AC"/>
<path opacity="0.2" d="M144.565 227.013L162.389 226.707L161.583 224.302C161.504 224.045 161.33 223.828 161.097 223.696C160.863 223.564 160.588 223.527 160.328 223.592L144.565 227.013Z" fill="black"/>
<path d="M168.873 257.542C169.304 257.626 169.747 257.615 170.173 257.509C170.367 257.447 170.54 257.334 170.675 257.183C170.81 257.031 170.903 256.846 170.942 256.647C170.982 256.447 170.968 256.241 170.902 256.049C170.835 255.857 170.718 255.686 170.564 255.554C169.009 254.153 164.711 250.523 160.295 249.09C160.295 249.09 153.409 247.532 149.592 248.51L146.041 256.505C146.041 256.505 152.544 259.653 155.074 259.901H164.373C164.373 259.901 165.465 259.901 165.225 259.047C165.225 259.047 167.65 260.689 168.567 259.288C168.752 259.042 168.876 258.755 168.929 258.452C168.982 258.148 168.963 257.836 168.873 257.542Z" fill="#F9B499"/>
<path d="M168.021 256.936C167.537 256.298 166.987 255.713 166.382 255.189C165.785 254.659 165.151 254.174 164.483 253.736C163.165 252.819 161.687 252.156 160.126 251.781C160.777 252.218 161.479 252.602 162.136 253.026C162.793 253.449 163.436 253.86 164.087 254.297C165.413 255.17 166.681 256.095 168.021 256.936Z" fill="#F7A48B"/>
<path d="M164.074 258.644C163.088 257.582 161.999 256.621 160.822 255.776C159.653 254.905 158.387 254.17 157.051 253.587C158.109 254.579 159.232 255.5 160.413 256.343C161.573 257.202 162.797 257.971 164.074 258.644Z" fill="#F7A48B"/>
<path d="M159.086 259.921C158.714 259.458 158.291 259.038 157.824 258.67C157.365 258.297 156.878 257.959 156.368 257.66C155.349 257.031 154.202 256.639 153.012 256.513C153.526 256.825 154.027 257.106 154.527 257.392L156.017 258.259C157.018 258.833 158 259.419 159.086 259.921Z" fill="#F7A48B"/>
<path d="M163.859 231.072C163.859 231.072 170.817 227.116 176.514 227.012C176.925 227.008 177.336 227.036 177.743 227.097C180.045 227.416 187.309 228.713 184.395 232.167C184.395 232.167 185.299 233.978 182.861 233.887C182.861 233.887 184.213 236.428 181.593 236.494C181.593 236.494 182.77 238.214 180.143 238.123C180.143 238.123 174.29 236.858 171.656 237.295C171.396 237.334 171.158 237.463 170.982 237.659C170.806 237.855 170.704 238.107 170.694 238.37C170.694 238.846 170.954 239.38 171.994 239.628C171.994 239.628 177.697 238.937 176.254 241.205C174.663 242.175 172.8 242.598 170.947 242.41C169.94 242.237 169.001 241.786 168.236 241.107C168.082 240.988 167.902 240.907 167.711 240.87C167.52 240.834 167.323 240.844 167.137 240.899L163.859 231.072Z" fill="#F9B499"/>
<path d="M184.395 232.167C183.772 231.349 183 230.657 182.119 230.127C181.235 229.585 180.269 229.189 179.258 228.954C178.252 228.724 177.218 228.645 176.189 228.72C175.181 228.765 174.179 228.857 173.171 228.987C174.179 229.124 175.181 229.215 176.189 229.261C177.17 229.285 178.146 229.409 179.102 229.632C180.054 229.852 180.979 230.177 181.859 230.603C182.755 231.038 183.604 231.562 184.395 232.167Z" fill="#F7A48B"/>
<path d="M182.861 233.888C182.371 233.296 181.77 232.807 181.092 232.447C180.424 232.073 179.715 231.78 178.978 231.574C178.246 231.367 177.494 231.236 176.735 231.183C175.978 231.122 175.217 231.146 174.465 231.255C175.207 231.437 175.935 231.561 176.657 231.718C177.379 231.874 178.087 232.037 178.79 232.245C179.491 232.439 180.181 232.67 180.858 232.936C181.548 233.203 182.218 233.521 182.861 233.888Z" fill="#F7A48B"/>
<path d="M181.593 236.547C181.284 235.989 180.836 235.522 180.292 235.191C179.771 234.843 179.207 234.565 178.614 234.364C178.024 234.165 177.417 234.023 176.8 233.94C176.188 233.872 175.571 233.872 174.96 233.94C175.538 234.162 176.117 234.331 176.689 234.5C177.262 234.67 177.828 234.846 178.38 235.048C178.938 235.235 179.485 235.452 180.019 235.699C180.574 235.921 181.102 236.205 181.593 236.547Z" fill="#F7A48B"/>
<path d="M181.593 263.263H235.639L237.31 256.095L244.567 225.155C244.632 224.881 244.634 224.596 244.573 224.321C244.512 224.046 244.39 223.788 244.215 223.567C244.04 223.347 243.818 223.168 243.565 223.046C243.312 222.924 243.034 222.861 242.753 222.861H191.919C191.647 222.861 191.383 222.953 191.169 223.122C190.956 223.291 190.805 223.528 190.742 223.793L181.593 263.263Z" fill="#2F2E41"/>
<path opacity="0.2" d="M237.31 256.095L244.567 225.155C244.632 224.881 244.634 224.596 244.573 224.321C244.512 224.046 244.39 223.788 244.215 223.567C244.041 223.347 243.818 223.168 243.565 223.046C243.312 222.924 243.034 222.861 242.753 222.861H216.559C216.559 222.861 212.742 245.61 237.31 256.095Z" fill="white"/>
<path opacity="0.2" d="M214.146 249.11C216.614 249.11 218.614 247.105 218.614 244.633C218.614 242.161 216.614 240.156 214.146 240.156C211.679 240.156 209.679 242.161 209.679 244.633C209.679 247.105 211.679 249.11 214.146 249.11Z" fill="black"/>
<path d="M191.919 222.861H188.258C187.998 222.86 187.744 222.947 187.539 223.107C187.333 223.268 187.188 223.494 187.127 223.748L178.289 259.901H156.381C155.475 259.901 154.582 260.106 153.767 260.503C152.953 260.899 152.239 261.475 151.679 262.188L150.866 263.231H181.593L190.742 223.793C190.742 223.793 190.814 223.096 191.919 222.861Z" fill="#2F2E41"/>
<path opacity="0.2" d="M191.919 222.861H188.258C187.998 222.86 187.744 222.947 187.539 223.107C187.333 223.268 187.188 223.494 187.127 223.748L178.289 259.901H156.381C155.475 259.901 154.582 260.106 153.767 260.503C152.953 260.899 152.239 261.475 151.679 262.188L150.866 263.231H181.593L190.742 223.793C190.742 223.793 190.814 223.096 191.919 222.861Z" fill="black"/>
<g opacity="0.2">
<path d="M234.514 260.175H187.14V260.872H234.514V260.175Z" fill="black"/>
</g>
<path d="M114.371 284.071C113.871 281.699 112.791 274.296 116.394 267.936C117.725 265.656 118.89 263.282 119.879 260.833C122.851 253.216 128.587 238.071 125.16 226.707C125.16 226.707 120.4 204.121 107.537 205.437C107.062 205.489 106.604 205.64 106.191 205.88C103.902 207.184 96.5729 212.462 92.2744 228.036C88.8536 239.11 86.7836 250.558 86.1096 262.13C86.1096 262.13 85.882 266.692 83.1443 270.028C83.1443 270.028 78.2345 274.831 83.71 278.838C83.71 278.838 95.2658 286.625 113.767 284.866C113.859 284.856 113.949 284.827 114.03 284.781C114.111 284.734 114.182 284.672 114.239 284.598C114.295 284.524 114.336 284.439 114.359 284.348C114.382 284.257 114.386 284.163 114.371 284.071Z" fill="#605797"/>
<path opacity="0.2" d="M110.749 263.296H108.239V266.613C108.239 266.613 84.8287 243.805 98.1923 222.223C98.1923 222.21 88.7175 249.683 110.749 263.296Z" fill="black"/>
<path d="M144.285 260.527L149.618 248.53C149.618 248.53 151.445 247.051 145.209 246.705L122.175 243.062L144.578 249.331C144.918 249.426 145.213 249.641 145.407 249.937C145.601 250.234 145.68 250.59 145.631 250.941L144.285 260.527Z" fill="#605797"/>
<path opacity="0.2" d="M144.285 260.527L149.618 248.53C149.618 248.53 151.445 247.051 145.209 246.705L122.175 243.062L144.578 249.331C144.918 249.426 145.213 249.641 145.407 249.937C145.601 250.234 145.68 250.59 145.631 250.941L144.285 260.527Z" fill="white"/>
<path d="M125.674 241.069C125.674 241.069 125.42 242.711 125.127 244.119C125.127 244.119 119.541 245.103 118.176 236.755C118.176 236.755 115.776 225.195 112.694 219.017C112.694 219.017 111.094 214.332 109.039 212.612C109.039 212.612 112.095 211.699 115.932 222.569C115.932 222.569 120.627 241.349 125.674 241.069Z" fill="#605797"/>
<path opacity="0.2" d="M125.674 241.069C125.674 241.069 125.42 242.711 125.127 244.119C125.127 244.119 119.541 245.103 118.176 236.755C118.176 236.755 115.776 225.195 112.694 219.017C112.694 219.017 111.094 214.332 109.039 212.612C109.039 212.612 112.095 211.699 115.932 222.569C115.932 222.569 120.627 241.349 125.674 241.069Z" fill="black"/>
<path d="M124.419 413.447C127.077 413.683 129.704 414.198 132.255 414.985V405.81C132.944 395.82 147.862 376.303 147.862 376.303C164.932 350.472 171.578 325.215 171.578 325.215C177.197 307.536 159.834 300.596 159.834 300.596C149.344 309.96 140.195 327.274 140.195 327.274C137.555 334.149 135.948 361.811 135.948 361.811C134.797 374.094 125.745 383.856 125.745 383.856C128.158 388.9 121.622 397.293 121.622 397.293C124.926 402.363 124.419 413.447 124.419 413.447Z" fill="#F9B499"/>
<path d="M285.913 269.564H273.623L293.483 427.301H297.579L285.913 269.564Z" fill="#EAD1A6"/>
<path d="M138.797 269.532L118.82 427.301H114.794L127.468 269.532H138.797Z" fill="#EAD1A6"/>
<path d="M117.825 235.185C117.825 235.185 118.377 244.959 125.674 244.053L144.571 249.338C144.571 249.338 145.813 249.605 145.573 251.293L144.272 260.533L142.841 263.759L116.27 263.264L114.385 245.279L117.825 235.185Z" fill="#605797"/>
<path d="M109.039 272.093H304.199V263.25H109.039V272.093Z" fill="#A7A9AC"/>
<path d="M269.142 248.51C269.142 248.51 265.969 280.062 270.443 300.674L315.918 295.63L322.421 275.833C322.421 275.833 317.361 263.172 301.416 268.45C301.416 268.45 291.259 252.413 279.306 246.562C279.274 246.562 272.315 246.842 269.142 248.51Z" fill="#605797"/>
<path opacity="0.2" d="M269.142 248.51C269.142 248.51 265.969 280.062 270.443 300.674L315.918 295.63L322.421 275.833C322.421 275.833 317.361 263.172 301.416 268.45C301.416 268.45 291.259 252.413 279.306 246.562C279.274 246.562 272.315 246.842 269.142 248.51Z" fill="black"/>
<path d="M279.273 246.562C279.273 246.562 305.006 246.562 319.592 271.793C319.592 271.793 313.739 264.267 301.384 268.45C301.39 268.476 291.655 253.111 279.273 246.562Z" fill="#605797"/>
<path opacity="0.3" d="M279.273 246.562C279.273 246.562 305.006 246.562 319.592 271.793C319.592 271.793 313.739 264.267 301.384 268.45C301.39 268.476 291.655 253.111 279.273 246.562Z" fill="black"/>
<path d="M271.899 253.535C271.899 253.535 269.142 282.813 273.044 295.35L275.411 292.842C275.411 292.842 272.068 274.302 273.74 259.249C273.74 259.249 274.93 262.651 278.5 263.009C279.65 263.098 280.801 262.859 281.82 262.319C282.84 261.779 283.686 260.961 284.261 259.96C284.948 258.773 285.479 257.503 285.842 256.18L278.467 250.315L274.435 253.665L271.899 253.535Z" fill="white"/>
<path d="M295.55 267.33L297.911 274.863L302.086 272.771C302.086 272.771 302.957 277.333 299.043 279.249C298.174 279.665 297.223 279.881 296.259 279.881C295.296 279.881 294.345 279.665 293.476 279.249C292.613 278.891 291.859 278.313 291.288 277.572C290.718 276.831 290.351 275.953 290.224 275.026C290.026 273.334 290.443 271.626 291.398 270.217C292.354 268.807 293.784 267.789 295.427 267.35L295.55 267.33Z" fill="white"/>
<path d="M310.013 271.514L318.083 277.092" stroke="white" stroke-miterlimit="10"/>
<path d="M331.796 314.1C340.055 311.239 343.844 300.496 340.259 290.105C336.674 279.713 327.073 273.609 318.815 276.469C310.556 279.33 306.767 290.073 310.352 300.465C313.937 310.856 323.538 316.961 331.796 314.1Z" fill="#605797"/>
<path opacity="0.1" d="M331.796 314.1C340.055 311.239 343.844 300.496 340.259 290.105C336.674 279.713 327.073 273.609 318.815 276.469C310.556 279.33 306.767 290.073 310.352 300.465C313.937 310.856 323.538 316.961 331.796 314.1Z" fill="black"/>
<path opacity="0.6" d="M417.539 274.459H398.681C396.106 274.459 394.018 276.551 394.018 279.131V298.029C394.018 300.609 396.106 302.701 398.681 302.701H417.539C420.115 302.701 422.202 300.609 422.202 298.029V279.131C422.202 276.551 420.115 274.459 417.539 274.459Z" fill="white"/>
<path d="M376.09 273.377H357.231C354.656 273.377 352.568 275.469 352.568 278.049V296.947C352.568 299.527 354.656 301.619 357.231 301.619H376.09C378.665 301.619 380.752 299.527 380.752 296.947V278.049C380.752 275.469 378.665 273.377 376.09 273.377Z" fill="white"/>
<path d="M414.288 310.306H395.429C392.854 310.306 390.767 312.398 390.767 314.978V333.876C390.767 336.456 392.854 338.548 395.429 338.548H414.288C416.863 338.548 418.951 336.456 418.951 333.876V314.978C418.951 312.398 416.863 310.306 414.288 310.306Z" fill="white"/>
<path d="M412.552 346.367H393.693C391.118 346.367 389.031 348.459 389.031 351.039V406.963C389.031 409.544 391.118 411.636 393.693 411.636H412.552C415.127 411.636 417.214 409.544 417.214 406.963V351.039C417.214 348.459 415.127 346.367 412.552 346.367Z" fill="white"/>
<path d="M327.775 315.146C336.033 312.285 339.822 301.542 336.237 291.15C332.653 280.759 323.052 274.654 314.793 277.515C306.535 280.376 302.746 291.119 306.331 301.51C309.915 311.902 319.516 318.006 327.775 315.146Z" fill="#605797"/>
<path opacity="0.2" d="M329.427 312.511C336.452 310.066 339.708 301.049 336.7 292.372C333.692 283.695 325.559 278.643 318.534 281.088C311.509 283.533 308.252 292.55 311.26 301.227C314.268 309.905 322.402 314.957 329.427 312.511Z" fill="white"/>
<path d="M326.03 305.411C325.911 305.412 325.794 305.381 325.69 305.323C325.587 305.265 325.5 305.181 325.438 305.079L315.423 289.01C315.326 288.852 315.295 288.663 315.337 288.482C315.379 288.302 315.491 288.146 315.648 288.048C315.805 287.951 315.994 287.92 316.174 287.962C316.354 288.004 316.509 288.116 316.607 288.273L326.615 304.317C326.712 304.473 326.743 304.662 326.702 304.841C326.66 305.021 326.55 305.177 326.394 305.275C326.289 305.356 326.162 305.404 326.03 305.411Z" fill="white"/>
<path d="M322.804 304.663C322.188 304.712 321.568 304.636 320.982 304.437C320.396 304.239 319.857 303.923 319.397 303.509C319.012 303.082 318.724 302.575 318.555 302.025C318.385 301.474 318.337 300.893 318.415 300.323C318.557 298.687 319.244 297.147 320.366 295.95C320.825 295.457 321.221 294.907 321.543 294.315C321.777 293.858 321.872 293.343 321.815 292.833C321.759 292.323 321.553 291.841 321.224 291.447C320.926 291.063 320.517 290.779 320.054 290.634C319.59 290.488 319.093 290.488 318.629 290.633C316.119 291.356 315.853 295.559 315.846 295.605C315.848 295.701 315.83 295.797 315.794 295.885C315.757 295.974 315.703 296.055 315.634 296.122C315.565 296.189 315.483 296.24 315.393 296.274C315.303 296.307 315.207 296.322 315.111 296.317C315.015 296.311 314.922 296.286 314.836 296.243C314.75 296.199 314.675 296.138 314.614 296.064C314.553 295.99 314.507 295.904 314.481 295.811C314.455 295.719 314.448 295.622 314.461 295.527C314.461 295.312 314.786 290.313 318.239 289.29C318.964 289.081 319.735 289.093 320.454 289.325C321.172 289.557 321.805 289.999 322.271 290.594C322.772 291.199 323.084 291.94 323.167 292.722C323.25 293.505 323.101 294.294 322.739 294.992C322.365 295.699 321.904 296.355 321.367 296.947C320.465 297.912 319.915 299.155 319.806 300.473C319.747 300.847 319.768 301.229 319.867 301.594C319.967 301.959 320.144 302.299 320.385 302.59C320.925 303.138 321.868 303.379 323.194 303.32C323.997 303.2 324.72 302.769 325.21 302.121C326.01 301.059 326.199 299.417 325.776 297.247C325.757 297.157 325.756 297.065 325.774 296.975C325.791 296.885 325.826 296.8 325.877 296.724C325.928 296.648 325.994 296.583 326.07 296.533C326.147 296.483 326.232 296.449 326.322 296.432C326.412 296.414 326.504 296.414 326.594 296.432C326.684 296.45 326.769 296.485 326.845 296.536C326.921 296.587 326.987 296.652 327.038 296.728C327.088 296.804 327.124 296.89 327.142 296.98C327.649 299.586 327.363 301.593 326.303 302.988C325.939 303.463 325.484 303.86 324.965 304.155C324.446 304.451 323.872 304.639 323.279 304.708C323.116 304.663 322.96 304.663 322.804 304.663Z" fill="white"/>
<path d="M296.929 324.714C303.764 324.714 309.304 316.688 309.304 306.787C309.304 296.886 303.764 288.86 296.929 288.86C290.094 288.86 284.554 296.886 284.554 306.787C284.554 316.688 290.094 324.714 296.929 324.714Z" fill="#605797"/>
<path opacity="0.1" d="M296.929 324.714C303.764 324.714 309.304 316.688 309.304 306.787C309.304 296.886 303.764 288.86 296.929 288.86C290.094 288.86 284.554 296.886 284.554 306.787C284.554 316.688 290.094 324.714 296.929 324.714Z" fill="black"/>
<path d="M304.233 314.519C308.905 303.059 305.11 290.664 295.758 286.836C286.405 283.007 275.036 289.195 270.364 300.655C265.692 312.116 269.486 324.511 278.839 328.339C288.191 332.168 299.561 325.98 304.233 314.519Z" fill="#605797"/>
<path opacity="0.2" d="M300.629 312.649C304.365 303.484 301.332 293.572 293.855 290.511C286.377 287.451 277.287 292.399 273.55 301.565C269.814 310.73 272.847 320.641 280.324 323.702C287.802 326.763 296.892 321.814 300.629 312.649Z" fill="white"/>
<path d="M285.555 317.812H285.51C285.419 317.807 285.329 317.784 285.247 317.744C285.165 317.704 285.092 317.649 285.031 317.58C284.971 317.512 284.924 317.432 284.895 317.345C284.865 317.259 284.853 317.167 284.859 317.076L286.16 296.256C286.171 296.071 286.255 295.898 286.394 295.775C286.532 295.652 286.714 295.59 286.898 295.601C287.083 295.612 287.255 295.696 287.378 295.835C287.5 295.974 287.563 296.156 287.552 296.341L286.251 317.16C286.241 317.338 286.163 317.505 286.034 317.626C285.904 317.747 285.733 317.814 285.555 317.812Z" fill="white"/>
<path d="M286.264 314.802C285.472 314.812 284.689 314.638 283.975 314.294C282.434 313.531 281.329 311.967 280.685 309.647C280.635 309.469 280.657 309.279 280.748 309.118C280.838 308.956 280.988 308.837 281.166 308.787C281.344 308.737 281.534 308.76 281.695 308.85C281.856 308.941 281.974 309.092 282.024 309.27C282.558 311.224 283.422 312.463 284.587 313.043C285.978 313.727 287.584 313.329 288.69 312.88C289.091 312.729 289.447 312.478 289.725 312.15C290.003 311.823 290.192 311.431 290.277 311.009C290.706 308.305 286.173 306.344 284.385 305.796C281.693 304.773 281.654 302.838 281.868 301.776C282.063 300.939 282.475 300.169 283.064 299.544C283.652 298.919 284.395 298.461 285.217 298.218C285.826 297.996 286.473 297.903 287.119 297.946C287.765 297.988 288.395 298.165 288.969 298.465C291.181 299.651 292 302.44 292.032 302.558C292.066 302.648 292.081 302.744 292.076 302.84C292.071 302.936 292.046 303.03 292.003 303.116C291.96 303.202 291.9 303.278 291.826 303.34C291.752 303.401 291.666 303.447 291.574 303.473C291.481 303.5 291.385 303.507 291.289 303.494C291.194 303.482 291.103 303.449 291.02 303.399C290.938 303.35 290.867 303.283 290.812 303.204C290.757 303.126 290.718 303.036 290.699 302.942C290.699 302.942 289.997 300.59 288.306 299.684C287.898 299.473 287.45 299.351 286.992 299.327C286.533 299.302 286.075 299.375 285.646 299.541C285.059 299.708 284.526 300.028 284.102 300.468C283.678 300.909 283.379 301.455 283.234 302.049C283.091 302.773 283.097 303.809 284.827 304.467C285.087 304.539 292.364 306.741 291.649 311.205C291.528 311.862 291.241 312.478 290.815 312.992C290.389 313.507 289.839 313.903 289.217 314.144C288.284 314.55 287.281 314.774 286.264 314.802Z" fill="white"/>
<path d="M311.411 315.004C311.411 315.004 340.486 284.526 347.789 263.016C347.789 263.016 371.648 289.16 376.564 293.643L369.339 315.036L311.411 315.004Z" fill="#605797"/>
<path opacity="0.2" d="M311.411 315.004C311.411 315.004 340.486 284.526 347.789 263.016C347.789 263.016 371.648 289.16 376.564 293.643L369.339 315.036L311.411 315.004Z" fill="black"/>
<path d="M343.445 282.885C343.445 282.885 330.328 305.444 319.742 315.004H317.01C317.01 315.004 340.766 286.618 348.816 269.734C348.816 269.734 366.498 288.293 370.699 292.014L366.556 291.851L356.717 281.542C356.717 281.542 357.016 286.755 350.605 287.218C350.605 287.218 345.532 287.668 343.445 282.885Z" fill="white"/>
<path d="M343.055 315.004C343.055 315.004 341.156 304.493 352.51 307.236C352.51 307.236 352.555 312.853 353.811 315.056L343.055 315.004Z" fill="white"/>
<path d="M370.699 326.003C378.869 326.003 385.493 318.395 385.493 309.009C385.493 299.623 378.869 292.014 370.699 292.014C362.528 292.014 355.904 299.623 355.904 309.009C355.904 318.395 362.528 326.003 370.699 326.003Z" fill="#605797"/>
<path opacity="0.1" d="M370.699 326.003C378.869 326.003 385.493 318.395 385.493 309.009C385.493 299.623 378.869 292.014 370.699 292.014C362.528 292.014 355.904 299.623 355.904 309.009C355.904 318.395 362.528 326.003 370.699 326.003Z" fill="black"/>
<path d="M367.415 291.838C359.24 291.838 352.62 299.449 352.62 308.833C352.62 318.216 359.24 325.821 367.415 325.821C375.589 325.821 382.209 318.21 382.209 308.826C382.209 299.443 375.582 291.838 367.415 291.838ZM367.415 322.009C361.074 322.009 355.937 316.144 355.937 308.833C355.937 301.521 361.074 295.65 367.415 295.65C373.755 295.65 378.886 301.554 378.886 308.833C378.886 316.112 373.748 322.009 367.415 322.009Z" fill="#605797"/>
<path d="M367.415 291.838C359.24 291.838 352.62 299.449 352.62 308.833C352.62 318.216 359.24 325.821 367.415 325.821C375.589 325.821 382.209 318.21 382.209 308.826C382.209 299.443 375.582 291.838 367.415 291.838ZM367.415 322.009C361.074 322.009 355.937 316.144 355.937 308.833C355.937 301.521 361.074 295.65 367.415 295.65C373.755 295.65 378.886 301.554 378.886 308.833C378.886 316.112 373.748 322.009 367.415 322.009Z" fill="#605797"/>
<path d="M367.402 322.106C373.74 322.106 378.879 316.207 378.879 308.93C378.879 301.653 373.74 295.754 367.402 295.754C361.063 295.754 355.924 301.653 355.924 308.93C355.924 316.207 361.063 322.106 367.402 322.106Z" fill="#605797"/>
<path opacity="0.2" d="M367.402 322.106C373.74 322.106 378.879 316.207 378.879 308.93C378.879 301.653 373.74 295.754 367.402 295.754C361.063 295.754 355.924 301.653 355.924 308.93C355.924 316.207 361.063 322.106 367.402 322.106Z" fill="white"/>
<path d="M368.494 317.291H368.436C366.835 317.074 365.369 316.28 364.311 315.058C363.253 313.836 362.676 312.269 362.687 310.651C362.687 308.266 363.461 306.448 364.904 305.262C367.506 303.137 371.329 303.809 371.492 303.835C371.582 303.854 371.662 303.907 371.714 303.983C371.766 304.06 371.787 304.154 371.772 304.245C371.754 304.335 371.702 304.415 371.627 304.468C371.552 304.52 371.459 304.541 371.368 304.525C371.329 304.525 367.668 303.874 365.34 305.829C364.072 306.884 363.389 308.52 363.389 310.696C363.362 312.158 363.881 313.576 364.843 314.674C365.806 315.772 367.142 316.471 368.592 316.633C368.683 316.642 368.767 316.686 368.826 316.757C368.884 316.828 368.912 316.919 368.904 317.011C368.895 317.102 368.851 317.187 368.78 317.246C368.709 317.304 368.618 317.332 368.527 317.324L368.494 317.291Z" fill="white"/>
<path d="M370.113 309.491H361.315C361.231 309.479 361.154 309.437 361.098 309.373C361.042 309.309 361.011 309.227 361.011 309.142C361.011 309.057 361.042 308.975 361.098 308.911C361.154 308.847 361.231 308.805 361.315 308.793H370.113C370.163 308.786 370.213 308.79 370.262 308.805C370.31 308.819 370.354 308.844 370.392 308.877C370.43 308.91 370.46 308.951 370.481 308.996C370.501 309.042 370.512 309.092 370.512 309.142C370.512 309.192 370.501 309.242 370.481 309.288C370.46 309.333 370.43 309.374 370.392 309.407C370.354 309.44 370.31 309.465 370.262 309.479C370.213 309.493 370.163 309.497 370.113 309.491Z" fill="white"/>
<path d="M369.938 311.818H361.113C361.063 311.825 361.013 311.821 360.965 311.806C360.917 311.792 360.872 311.767 360.835 311.734C360.797 311.701 360.767 311.66 360.746 311.615C360.725 311.569 360.714 311.519 360.714 311.469C360.714 311.419 360.725 311.369 360.746 311.323C360.767 311.278 360.797 311.237 360.835 311.204C360.872 311.171 360.917 311.146 360.965 311.132C361.013 311.118 361.063 311.114 361.113 311.12H369.938C370.022 311.132 370.099 311.174 370.155 311.238C370.21 311.302 370.241 311.384 370.241 311.469C370.241 311.554 370.21 311.636 370.155 311.7C370.099 311.764 370.022 311.806 369.938 311.818Z" fill="white"/>
<path d="M261.072 311.225V414.445C261.072 414.445 260.786 424.943 271.841 424.943H384.179C385.8 424.943 387.355 424.297 388.502 423.149C389.648 422 390.292 420.442 390.292 418.817V321.143C390.292 319.518 389.648 317.96 388.502 316.811C387.355 315.663 385.8 315.017 384.179 315.017H270.722C269.084 315.028 267.45 314.838 265.858 314.45C263.751 313.929 261.39 312.964 261.072 311.225Z" fill="#2F2E41"/>
<path d="M265.552 320.569C263.601 320.126 262.463 319.533 262.073 318.797C262.007 318.686 261.964 318.563 261.949 318.435C261.933 318.307 261.944 318.177 261.982 318.054L262.632 318.282C262.632 318.282 262.548 319.162 265.708 319.891L265.552 320.569Z" fill="white"/>
<path d="M380.343 418.505H375.537V417.807H380.343C381.506 417.808 382.629 417.384 383.503 416.615L383.965 417.136C382.963 418.017 381.675 418.503 380.343 418.505ZM367.031 418.505H358.493V417.807H367.005L367.031 418.505ZM350.013 418.505H341.474V417.807H349.987L350.013 418.505ZM332.994 418.505H324.456V417.807H332.968L332.994 418.505ZM315.976 418.505H307.438V417.807H315.963L315.976 418.505ZM298.958 418.505H290.42V417.807H298.932L298.958 418.505ZM281.94 418.505H273.401V417.807H281.914L281.94 418.505ZM385.824 408.854H385.129V400.33H385.824V408.854ZM385.824 391.8H385.129V383.277H385.824V391.8ZM385.824 374.753H385.129V366.223H385.824V374.753ZM385.824 357.7H385.129V349.17H385.824V357.7ZM385.824 340.646H385.129V332.116H385.824V340.646ZM383.548 324.186C382.862 323.311 381.986 322.604 380.987 322.119C379.987 321.633 378.891 321.382 377.78 321.384H376.22V320.687H377.741C378.957 320.684 380.157 320.959 381.251 321.489C382.344 322.02 383.304 322.793 384.056 323.749L383.548 324.186ZM277.797 321.514C276.497 321.514 275.242 321.514 274.104 321.455V320.758C276.536 320.836 279.417 320.836 282.59 320.758V321.455C280.906 321.488 279.28 321.514 277.771 321.514H277.797ZM367.707 321.384H359.175V320.687H367.681L367.707 321.384ZM350.689 321.384H342.157V320.687H350.663L350.689 321.384ZM333.671 321.384H325.139V320.687H333.645L333.671 321.384ZM316.653 321.384H308.121V320.687H316.614L316.653 321.384ZM299.634 321.384H291.102V320.687H299.608L299.634 321.384Z" fill="white"/>
<path d="M265.136 416.158C263.954 415.352 262.907 414.362 262.034 413.226L262.58 412.796C263.415 413.873 264.411 414.814 265.533 415.585L265.136 416.158Z" fill="white"/>
<path d="M415.153 273.377H396.294C393.719 273.377 391.632 275.469 391.632 278.049V296.947C391.632 299.527 393.719 301.619 396.294 301.619H415.153C417.728 301.619 419.815 299.527 419.815 296.947V278.049C419.815 275.469 417.728 273.377 415.153 273.377Z" fill="white"/>
<path d="M391.489 361.916H367.109C365.906 361.916 364.93 362.893 364.93 364.099V382.13C364.93 383.336 365.906 384.313 367.109 384.313H391.489C392.692 384.313 393.667 383.336 393.667 382.13V364.099C393.667 362.893 392.692 361.916 391.489 361.916Z" fill="#2F2E41"/>
<path opacity="0.2" d="M391.489 361.916H367.109C365.906 361.916 364.93 362.893 364.93 364.099V382.13C364.93 383.336 365.906 384.313 367.109 384.313H391.489C392.692 384.313 393.667 383.336 393.667 382.13V364.099C393.667 362.893 392.692 361.916 391.489 361.916Z" fill="black"/>
<path d="M390.012 363.884H365.633C364.43 363.884 363.454 364.861 363.454 366.067V384.098C363.454 385.303 364.43 386.281 365.633 386.281H390.012C391.216 386.281 392.191 385.303 392.191 384.098V366.067C392.191 364.861 391.216 363.884 390.012 363.884Z" fill="#2F2E41"/>
<path opacity="0.2" d="M374.997 379.145C378.118 379.145 380.648 376.61 380.648 373.482C380.648 370.355 378.118 367.819 374.997 367.819C371.876 367.819 369.346 370.355 369.346 373.482C369.346 376.61 371.876 379.145 374.997 379.145Z" fill="black"/>
<path d="M373.033 379.888C376.154 379.888 378.684 377.353 378.684 374.225C378.684 371.098 376.154 368.562 373.033 368.562C369.912 368.562 367.382 371.098 367.382 374.225C367.382 377.353 369.912 379.888 373.033 379.888Z" fill="#605797"/>
</g>
<defs>
<clipPath id="clip0_1008_1205">
<rect width="477" height="445" fill="white"/>
</clipPath>
</defs>
</svg>
