<svg width="35" height="35" viewBox="0 0 35 35" fill="none" xmlns="http://www.w3.org/2000/svg">
<path d="M27.7809 7.16083C26.4439 5.8103 24.8514 4.73951 23.0962 4.0109C21.3411 3.2823 19.4584 2.91046 17.558 2.91708C9.59551 2.91708 3.10592 9.40666 3.10592 17.3692C3.10592 19.9212 3.77676 22.4004 5.03092 24.5879L2.98926 32.0837L10.6455 30.0712C12.7601 31.2233 15.1372 31.8358 17.558 31.8358C25.5205 31.8358 32.0101 25.3462 32.0101 17.3837C32.0101 13.5192 30.508 9.88791 27.7809 7.16083ZM17.558 29.3858C15.3997 29.3858 13.2851 28.8025 11.433 27.7087L10.9955 27.4462L6.44551 28.6421L7.65592 24.2087L7.36426 23.7567C6.16514 21.8418 5.52842 19.6285 5.52676 17.3692C5.52676 10.7483 10.9226 5.3525 17.5434 5.3525C20.7518 5.3525 23.7705 6.60666 26.0309 8.88166C27.1502 9.99578 28.0372 11.321 28.6405 12.7804C29.2438 14.2399 29.5514 15.8045 29.5455 17.3837C29.5747 24.0046 24.1788 29.3858 17.558 29.3858ZM24.1497 20.4025C23.7851 20.2275 22.0059 19.3525 21.6851 19.2212C21.3497 19.1046 21.1163 19.0462 20.8684 19.3962C20.6205 19.7608 19.9351 20.5775 19.7309 20.8108C19.5268 21.0587 19.308 21.0879 18.9434 20.8983C18.5788 20.7233 17.4122 20.3296 16.0413 19.1046C14.9622 18.1421 14.2476 16.9608 14.0288 16.5962C13.8247 16.2317 13.9997 16.0421 14.1893 15.8525C14.3497 15.6921 14.5538 15.4296 14.7288 15.2254C14.9038 15.0212 14.9768 14.8608 15.0934 14.6275C15.2101 14.3796 15.1518 14.1754 15.0643 14.0004C14.9768 13.8254 14.2476 12.0462 13.9559 11.3171C13.6643 10.6171 13.358 10.7046 13.1393 10.69H12.4393C12.1913 10.69 11.8122 10.7775 11.4768 11.1421C11.1559 11.5067 10.2226 12.3817 10.2226 14.1608C10.2226 15.94 11.5205 17.6608 11.6955 17.8942C11.8705 18.1421 14.2476 21.7879 17.8643 23.3483C18.7247 23.7275 19.3955 23.9462 19.9205 24.1067C20.7809 24.3837 21.5684 24.34 22.1955 24.2525C22.8955 24.1504 24.3393 23.3775 24.6309 22.5317C24.9372 21.6858 24.9372 20.9712 24.8351 20.8108C24.733 20.6504 24.5143 20.5775 24.1497 20.4025Z" fill="white"/>
</svg>
